<svg width="137" height="137" viewBox="0 0 137 137" fill="none" xmlns="http://www.w3.org/2000/svg">
<g filter="url(#filter0_d_16_2749)">
<circle cx="68.5" cy="68.5" r="62.5" fill="white"/>
</g>
<path d="M72.9897 88.9546V98.6503C69.6569 99.1168 66.2753 99.1168 62.9424 98.6503V88.9546H72.9897Z" fill="#8FA2FF"/>
<path d="M67.9654 92.5424C61.8746 92.5424 56.0332 90.1228 51.7264 85.816C47.4196 81.5091 45 75.6678 45 69.577V65.271H90.9308V69.577C90.9308 75.6678 88.5112 81.5091 84.2044 85.816C79.8975 90.1228 74.0562 92.5424 67.9654 92.5424Z" fill="#4E6AFF"/>
<path d="M53.612 38H82.3187C84.6028 38 86.7933 38.9073 88.4084 40.5224C90.0234 42.1375 90.9308 44.328 90.9308 46.612V65.2714H45V46.612C45 44.328 45.9073 42.1375 47.5224 40.5224C49.1375 38.9073 51.328 38 53.612 38Z" fill="#323FD4"/>
<path d="M82.3186 43.7415H53.6119C52.0265 43.7415 50.7412 45.0267 50.7412 46.6121V66.7068C50.7412 68.2923 52.0265 69.5775 53.6119 69.5775H82.3186C83.904 69.5775 85.1893 68.2923 85.1893 66.7068V46.6121C85.1893 45.0267 83.904 43.7415 82.3186 43.7415Z" fill="white"/>
<path d="M82.0249 75.3184H69.4011V86.7365C72.3217 86.4931 75.1318 85.5085 77.5656 83.8759C79.9994 82.2433 81.9764 80.0167 83.3095 77.4068C83.4216 77.1875 83.4753 76.943 83.4656 76.697C83.4559 76.4509 83.383 76.2114 83.2539 76.0017C83.1249 75.7919 82.9441 75.6189 82.7288 75.4992C82.5136 75.3795 82.2712 75.3173 82.0249 75.3184ZM66.5304 75.3184H53.9067C53.6604 75.3173 53.418 75.3795 53.2027 75.4992C52.9875 75.6189 52.8067 75.7919 52.6776 76.0017C52.5486 76.2114 52.4757 76.4509 52.466 76.697C52.4562 76.943 52.51 77.1875 52.622 77.4068C53.9551 80.0167 55.9321 82.2433 58.3659 83.8759C60.7998 85.5085 63.6099 86.4931 66.5304 86.7365V75.3184Z" fill="#8FA2FF"/>
<path d="M61.5067 83.2135C61.4122 83.2141 61.3186 83.196 61.2312 83.1602C61.1437 83.1245 61.0642 83.0719 60.9971 83.0054L58.8441 80.8524C58.7769 80.7857 58.7235 80.7063 58.687 80.6188C58.6506 80.5314 58.6318 80.4376 58.6318 80.3428C58.6318 80.2481 58.6506 80.1543 58.687 80.0668C58.7235 79.9794 58.7769 79.9 58.8441 79.8333L60.9971 77.6803C61.064 77.6134 61.1435 77.5603 61.2309 77.5241C61.3183 77.4879 61.412 77.4692 61.5067 77.4692C61.6013 77.4692 61.695 77.4879 61.7824 77.5241C61.8699 77.5603 61.9493 77.6134 62.0162 77.6803C62.0831 77.7472 62.1362 77.8267 62.1724 77.9141C62.2086 78.0015 62.2273 78.0952 62.2273 78.1898C62.2273 78.2845 62.2086 78.3782 62.1724 78.4656C62.1362 78.553 62.0831 78.6325 62.0162 78.6994L60.3656 80.3428L62.0162 81.9863C62.1174 82.0867 62.1865 82.2149 62.2145 82.3547C62.2425 82.4945 62.2283 82.6394 62.1736 82.7711C62.119 82.9027 62.0264 83.0151 61.9076 83.0939C61.7888 83.1727 61.6492 83.2143 61.5067 83.2135ZM74.4247 83.2135C74.2821 83.2143 74.1426 83.1727 74.0238 83.0939C73.905 83.0151 73.8124 82.9027 73.7577 82.7711C73.7031 82.6394 73.6888 82.4945 73.7169 82.3547C73.7449 82.2149 73.8139 82.0867 73.9152 81.9863L75.5658 80.3428L73.9152 78.6994C73.8482 78.6325 73.7952 78.553 73.7589 78.4656C73.7227 78.3782 73.7041 78.2845 73.7041 78.1898C73.7041 77.9987 73.78 77.8154 73.9152 77.6803C74.0503 77.5452 74.2336 77.4692 74.4247 77.4692C74.6158 77.4692 74.7991 77.5452 74.9342 77.6803L77.0872 79.8333C77.1545 79.9 77.2079 79.9794 77.2443 80.0668C77.2808 80.1543 77.2995 80.2481 77.2995 80.3428C77.2995 80.4376 77.2808 80.5314 77.2443 80.6188C77.2079 80.7063 77.1545 80.7857 77.0872 80.8524L74.9342 83.0054C74.8672 83.0719 74.7876 83.1245 74.7002 83.1602C74.6128 83.196 74.5191 83.2141 74.4247 83.2135Z" fill="#323FD4"/>
<path d="M59.3538 64.5534H55.7654C55.3847 64.5534 55.0197 64.4022 54.7505 64.133C54.4813 63.8638 54.3301 63.4987 54.3301 63.118C54.3301 62.7374 54.4813 62.3723 54.7505 62.1031C55.0197 61.8339 55.3847 61.6827 55.7654 61.6827H59.3538C59.9248 61.6827 60.4724 61.4559 60.8762 61.0521C61.2799 60.6483 61.5068 60.1007 61.5068 59.5297C61.5068 58.9587 61.2799 58.4111 60.8762 58.0073C60.4724 57.6035 59.9248 57.3767 59.3538 57.3767H55.7654C55.3847 57.3767 55.0197 57.2255 54.7505 56.9563C54.4813 56.6871 54.3301 56.322 54.3301 55.9414V50.2C54.3301 49.8193 54.4813 49.4543 54.7505 49.1851C55.0197 48.9159 55.3847 48.7647 55.7654 48.7647H62.9421C63.3228 48.7647 63.6879 48.9159 63.957 49.1851C64.2262 49.4543 64.3774 49.8193 64.3774 50.2C64.3774 50.5807 64.2262 50.9458 63.957 51.2149C63.6879 51.4841 63.3228 51.6353 62.9421 51.6353H57.2008V54.506H59.3538C60.6861 54.506 61.9639 55.0353 62.906 55.9774C63.8482 56.9195 64.3774 58.1973 64.3774 59.5297C64.3774 60.8621 63.8482 62.1399 62.906 63.082C61.9639 64.0241 60.6861 64.5534 59.3538 64.5534ZM80.1661 64.5534H72.2718C71.8911 64.5534 71.526 64.4022 71.2568 64.133C70.9877 63.8638 70.8364 63.4987 70.8364 63.118C70.8386 61.7737 71.2524 60.4622 72.0222 59.3601C72.7921 58.2579 73.881 57.418 75.1425 56.9533L77.1591 56.2356C77.6941 56.0569 78.1475 55.6925 78.4371 55.2085C78.7268 54.7245 78.8335 54.1527 78.7381 53.5968C78.6427 53.0408 78.3514 52.5374 77.917 52.1776C77.4825 51.8178 76.9337 51.6255 76.3697 51.6353H75.8601C75.2891 51.6353 74.7415 51.8622 74.3377 52.2659C73.934 52.6697 73.7071 53.2173 73.7071 53.7884C73.7071 54.169 73.5559 54.5341 73.2867 54.8033C73.0175 55.0725 72.6525 55.2237 72.2718 55.2237C71.8911 55.2237 71.526 55.0725 71.2568 54.8033C70.9877 54.5341 70.8364 54.169 70.8364 53.7884C70.8364 52.456 71.3657 51.1782 72.3078 50.2361C73.25 49.294 74.5278 48.7647 75.8601 48.7647H76.3697C77.6029 48.7607 78.7978 49.1925 79.7437 49.9838C80.6895 50.7752 81.3254 51.8752 81.5391 53.0897C81.7528 54.3043 81.5307 55.5553 80.9118 56.622C80.2929 57.6886 79.3171 58.5024 78.1567 58.9197L76.1328 59.6373C75.6538 59.81 75.2155 60.0795 74.845 60.4289C74.4746 60.7783 74.1801 61.2002 73.9798 61.6683H80.1661C80.5468 61.6683 80.9119 61.8196 81.1811 62.0887C81.4502 62.3579 81.6015 62.723 81.6015 63.1037C81.6015 63.4844 81.4502 63.8494 81.1811 64.1186C80.9119 64.3878 80.5468 64.539 80.1661 64.539V64.5534ZM67.2481 64.5534C66.9642 64.5534 66.6867 64.4692 66.4507 64.3115C66.2146 64.1538 66.0307 63.9296 65.922 63.6673C65.8134 63.405 65.785 63.1164 65.8403 62.838C65.8957 62.5596 66.0324 62.3038 66.2332 62.1031C66.4339 61.9024 66.6897 61.7657 66.9681 61.7103C67.2465 61.6549 67.5351 61.6833 67.7974 61.792C68.0597 61.9006 68.2838 62.0846 68.4415 62.3206C68.5993 62.5566 68.6834 62.8342 68.6834 63.118C68.6834 63.4987 68.5322 63.8638 68.263 64.133C67.9939 64.4022 67.6288 64.5534 67.2481 64.5534Z" fill="#A5BCED"/>
<path d="M83.6869 51.3038C86.9065 51.3038 89.5165 48.6939 89.5165 45.4743C89.5165 42.2547 86.9065 39.6448 83.6869 39.6448C80.4674 39.6448 77.8574 42.2547 77.8574 45.4743C77.8574 48.6939 80.4674 51.3038 83.6869 51.3038Z" fill="#FFA100"/>
<path d="M86.3367 46.5873C86.3367 45.1516 83.6869 41.7646 83.6869 41.7646C83.6869 41.7646 81.0371 45.1516 81.0371 46.5873C81.0371 47.276 81.3163 47.9365 81.8132 48.4235C82.3101 48.9105 82.9841 49.184 83.6869 49.184C84.3897 49.184 85.0636 48.9105 85.5606 48.4235C86.0575 47.9365 86.3367 47.276 86.3367 46.5873Z" fill="white"/>
<defs>
<filter id="filter0_d_16_2749" x="0" y="0" width="137" height="137" filterUnits="userSpaceOnUse" color-interpolation-filters="sRGB">
<feFlood flood-opacity="0" result="BackgroundImageFix"/>
<feColorMatrix in="SourceAlpha" type="matrix" values="0 0 0 0 0 0 0 0 0 0 0 0 0 0 0 0 0 0 127 0" result="hardAlpha"/>
<feMorphology radius="3" operator="dilate" in="SourceAlpha" result="effect1_dropShadow_16_2749"/>
<feOffset/>
<feGaussianBlur stdDeviation="1.5"/>
<feComposite in2="hardAlpha" operator="out"/>
<feColorMatrix type="matrix" values="0 0 0 0 0 0 0 0 0 0 0 0 0 0 0 0 0 0 0.25 0"/>
<feBlend mode="normal" in2="BackgroundImageFix" result="effect1_dropShadow_16_2749"/>
<feBlend mode="normal" in="SourceGraphic" in2="effect1_dropShadow_16_2749" result="shape"/>
</filter>
</defs>
</svg>
