<svg width="50" height="32" viewBox="0 0 50 32" fill="none" xmlns="http://www.w3.org/2000/svg">
<rect width="50" height="32" rx="4" fill="white"/>
<g clip-path="url(#clip0_742_17508)">
<path fill-rule="evenodd" clip-rule="evenodd" d="M10.964 9.48047C10.95 9.48047 10.9363 9.48047 10.9226 9.48047C9.07822 9.48047 7.3029 9.91698 5.58289 10.7974C4.8852 12.4875 4.49154 14.2057 4.47075 15.9594C4.44309 17.6986 4.79537 19.4803 5.57603 21.2973C7.37195 22.093 9.16786 22.5015 10.964 22.5227C12.7599 22.5015 14.556 22.093 16.3519 21.2973C17.1326 19.4803 17.4849 17.6986 17.4572 15.9594C17.4364 14.2057 17.0427 12.4875 16.345 10.7974C14.625 9.91698 12.8497 9.48047 11.0054 9.48047C10.9916 9.48047 10.9779 9.48047 10.964 9.48047Z" fill="#FEFEFE"/>
<path d="M5.29279 10.4085C7.10263 9.46471 8.98152 9 10.9226 9C10.9363 9 10.95 9 10.964 9C10.9779 9 10.9916 9 11.0054 9C12.9464 9 14.8253 9.46471 16.6351 10.4085L16.7458 10.5281C17.4849 12.3027 17.9062 14.1126 17.927 15.9506C17.927 15.9858 17.927 16.014 17.927 16.0492V16.176C17.9201 17.9436 17.547 19.7465 16.7458 21.5775L16.6214 21.6971C14.7357 22.5493 12.8497 22.9788 10.964 23C9.07822 22.9788 7.19228 22.5493 5.30653 21.6971L5.18217 21.5775C4.38091 19.7465 4.00784 17.9436 4.00098 16.176V16.0492C4.00098 16.014 4.00098 15.9858 4.00098 15.9506C4.02177 14.1126 4.44309 12.3027 5.18217 10.5281L5.29279 10.4085ZM10.964 9.4789C10.95 9.4789 10.9363 9.4789 10.9226 9.4789C9.07822 9.4789 7.3029 9.91542 5.58289 10.7958C4.8852 12.4859 4.49154 14.2042 4.47075 15.9578C4.44309 17.6971 4.79537 19.4787 5.57603 21.2957C7.37195 22.0914 9.16786 22.4999 10.964 22.5211C12.7599 22.4999 14.556 22.0914 16.3519 21.2957C17.1326 19.4787 17.4849 17.6971 17.4572 15.9578C17.4364 14.2042 17.0427 12.4859 16.345 10.7958C14.625 9.91542 12.8497 9.4789 11.0054 9.4789C10.9916 9.4789 10.9779 9.4789 10.964 9.4789Z" fill="#003399"/>
<path fill-rule="evenodd" clip-rule="evenodd" d="M11.0882 19.9086C10.9915 18.5635 11.0537 17.1621 10.6599 15.8804C10.2938 14.6832 8.90533 14.0002 8.87768 12.6832C8.85002 11.655 9.61695 10.4649 11.0537 10.4649C12.4007 10.4579 13.2364 11.4579 13.3331 12.5707C13.4506 13.8594 11.9172 14.7254 11.5164 15.9508C11.102 17.2043 11.2195 18.5917 11.0882 19.9086Z" fill="#003399"/>
<path fill-rule="evenodd" clip-rule="evenodd" d="M11.6201 19.5825C11.5647 18.4136 11.5647 17.2938 11.8825 16.3008C12.2348 15.174 12.967 14.2234 14.086 13.9135C14.8527 13.7023 15.9788 14.6177 15.7992 15.5543C15.6471 16.3078 14.9081 17.1952 13.72 17.2938C13.1673 17.3432 12.9325 17.7937 12.5871 18.0544C14.1345 17.8995 15.136 17.2796 15.8337 16.6317C15.9372 17.181 16.0063 18.1036 15.585 18.4206C14.756 19.0191 13.9893 18.5332 13.0153 18.8149C12.4696 18.9769 12.1312 19.329 11.6201 19.5825Z" fill="#003399"/>
<path fill-rule="evenodd" clip-rule="evenodd" d="M10.5631 19.5825C10.6253 18.4136 10.6185 17.2938 10.3076 16.3008C9.95529 15.174 9.22308 14.2234 8.10406 13.9135C7.33732 13.7023 6.20439 14.6177 6.39092 15.5543C6.54293 16.3078 7.28201 17.1952 8.47026 17.2938C9.01594 17.3432 9.2576 17.7937 9.60301 18.0544C8.04875 17.8995 7.05409 17.2796 6.3564 16.6317C6.25283 17.181 6.18379 18.1036 6.60511 18.4206C7.43403 19.0191 8.20076 18.5332 9.17482 18.8149C9.7205 18.9769 10.052 19.329 10.5631 19.5825Z" fill="#003399"/>
<path fill-rule="evenodd" clip-rule="evenodd" d="M14.2449 21.3231V21.133L14.3829 21.0978L14.2449 20.8864V20.5343L14.8666 21.4147L14.6456 21.4709L14.4936 21.2525L14.2449 21.3231ZM14.2449 20.5343V20.8864L14.1482 20.7456L14.1068 21.1681L14.2449 21.133V21.3231L14.086 21.3583L14.0583 21.6189L13.8373 21.6752L13.9824 20.5273L14.2035 20.4709L14.2449 20.5343ZM12.1863 21.9358V21.7526H12.2347C12.3107 21.7456 12.3591 21.7386 12.3797 21.7314C12.4074 21.7244 12.435 21.7032 12.4489 21.6822C12.4695 21.654 12.4766 21.6259 12.4766 21.5907C12.4695 21.5555 12.4627 21.5273 12.4419 21.5061C12.4281 21.4851 12.4005 21.4709 12.3728 21.4639C12.3452 21.4569 12.283 21.4569 12.1863 21.4639V21.2807C12.2416 21.2807 12.2761 21.2737 12.2901 21.2737C12.3246 21.2667 12.3522 21.2455 12.3728 21.2245C12.3936 21.2033 12.4005 21.1751 12.3936 21.14C12.3936 21.1048 12.3797 21.0766 12.3591 21.0626C12.3452 21.0414 12.3175 21.0274 12.2761 21.0274C12.2624 21.0274 12.2347 21.0274 12.1863 21.0344V20.8512C12.2624 20.8442 12.3175 20.8442 12.3522 20.8512C12.3936 20.8512 12.435 20.8654 12.4695 20.8864C12.5041 20.9006 12.5317 20.9286 12.5594 20.964C12.5802 20.9992 12.5939 21.0414 12.6008 21.0906C12.6078 21.14 12.5939 21.1893 12.5731 21.2315C12.5525 21.2737 12.518 21.3089 12.4695 21.3371C12.5386 21.3513 12.5939 21.3793 12.6284 21.4217C12.67 21.4639 12.6906 21.5133 12.6975 21.5767C12.6975 21.6259 12.6906 21.6752 12.6769 21.7244C12.6561 21.7738 12.6284 21.809 12.5939 21.8442C12.5525 21.8724 12.5111 21.8934 12.4558 21.9076C12.4213 21.9146 12.3314 21.9216 12.2002 21.9358H12.1863ZM13.4918 21.3441L13.706 21.3723C13.6923 21.4921 13.6578 21.5907 13.5956 21.661C13.5334 21.7244 13.4436 21.7738 13.333 21.7948C13.1949 21.816 13.0705 21.7878 12.967 21.7104C12.8563 21.6259 12.7942 21.5061 12.7596 21.3371C12.7322 21.1611 12.7528 21.0132 12.8289 20.9006C12.8979 20.7878 13.0083 20.7174 13.1535 20.6892C13.2847 20.668 13.3883 20.6892 13.485 20.7526C13.5403 20.7878 13.5885 20.8442 13.6231 20.9286L13.4228 21.0132C13.4022 20.964 13.3675 20.9216 13.3261 20.9006C13.2778 20.8724 13.2294 20.8654 13.1741 20.8724C13.0982 20.8864 13.0429 20.9286 13.0015 20.9922C12.9601 21.0626 12.953 21.1541 12.9738 21.2807C13.0015 21.4147 13.0429 21.5061 13.0982 21.5555C13.1535 21.6049 13.2225 21.6259 13.2984 21.6119C13.3538 21.5977 13.3951 21.5695 13.4297 21.5273C13.4644 21.4851 13.485 21.4217 13.4918 21.3441ZM12.1863 20.8512V21.0344C12.1588 21.0344 12.1312 21.0414 12.0967 21.0414L11.9723 21.0556L11.9929 21.3019L12.138 21.2879C12.1518 21.2879 12.1726 21.2879 12.1863 21.2807V21.4639C12.1863 21.4639 12.1863 21.4639 12.1794 21.4639L12.0137 21.4781L12.0345 21.7666L12.1863 21.7526V21.9358L11.8409 21.971L11.7442 20.8934L12.1657 20.8582C12.1726 20.8512 12.1794 20.8512 12.1863 20.8512ZM10.8531 21.5625V21.3793C10.9015 21.3793 10.9292 21.3723 10.9498 21.3653C10.9774 21.3583 10.9982 21.3371 11.019 21.3161C11.0328 21.2879 11.0396 21.2597 11.0396 21.2315C11.0467 21.1893 11.0328 21.1611 11.012 21.133C10.9914 21.1048 10.9637 21.0906 10.9292 21.0836C10.9084 21.0836 10.8876 21.0766 10.8531 21.0766V20.8934C10.9569 20.8934 11.019 20.9006 11.0536 20.9146C11.1157 20.9286 11.164 20.964 11.2054 21.0202C11.247 21.0766 11.2676 21.147 11.2607 21.2315C11.2607 21.2949 11.247 21.3513 11.2262 21.4005C11.1985 21.4429 11.1708 21.4781 11.1363 21.5061C11.0949 21.5273 11.0604 21.5413 11.019 21.5555C10.9774 21.5625 10.9223 21.5625 10.8531 21.5625ZM10.8531 20.8934V21.0766C10.8325 21.0766 10.8048 21.0766 10.7703 21.0766L10.6667 21.0696V21.3793H10.7772C10.8048 21.3793 10.8325 21.3793 10.8531 21.3793V21.5625C10.8394 21.5625 10.8186 21.5625 10.798 21.5625H10.6597L10.6528 21.971L10.4386 21.9638L10.4594 20.8864L10.798 20.8934C10.8186 20.8934 10.8394 20.8934 10.8531 20.8934ZM8.85691 21.4569V21.126C8.91909 21.14 8.96048 21.14 8.98126 21.14C9.00892 21.133 9.02952 21.126 9.05031 21.1048C9.06404 21.0836 9.07797 21.0626 9.08483 21.0274C9.0917 20.9922 9.08483 20.964 9.07091 20.9358C9.05718 20.9076 9.02952 20.8934 8.995 20.8794C8.98126 20.8724 8.93282 20.8654 8.85691 20.8512V20.668L8.94674 20.6822C9.05718 20.7034 9.13309 20.7244 9.18153 20.7526C9.22979 20.7808 9.2645 20.823 9.2851 20.8794C9.30589 20.9286 9.31275 20.9922 9.29902 21.0556C9.2851 21.133 9.25058 21.1963 9.19526 21.2385C9.14701 21.2807 9.07091 21.3019 8.97421 21.3019C9.01579 21.3371 9.05031 21.3723 9.07091 21.4075C9.09856 21.4499 9.12622 21.5133 9.16074 21.6049L9.25058 21.8372L9.00186 21.7878L8.89143 21.5273C8.87751 21.5061 8.87064 21.4781 8.85691 21.4569ZM9.46477 20.7878L9.6719 20.809L9.62364 21.3935C9.61678 21.4851 9.61678 21.5485 9.61678 21.5695C9.62365 21.6189 9.64424 21.654 9.6719 21.6822C9.70642 21.7174 9.748 21.7314 9.81018 21.7386C9.87236 21.7456 9.92061 21.7314 9.94827 21.7104C9.98279 21.6892 10.0036 21.661 10.0173 21.6259C10.0242 21.5907 10.0312 21.5273 10.0381 21.4429L10.0864 20.8442L10.3005 20.8654L10.2523 21.4287C10.2452 21.5625 10.2315 21.654 10.2107 21.7032C10.197 21.7526 10.1693 21.8018 10.1417 21.83C10.1071 21.8654 10.0589 21.8934 10.0036 21.9076C9.95513 21.9288 9.88609 21.9288 9.80312 21.9216C9.69956 21.9146 9.62364 21.8934 9.5752 21.8654C9.52694 21.8372 9.48537 21.8018 9.4579 21.7666C9.43024 21.7244 9.41632 21.6822 9.40945 21.64C9.40259 21.5767 9.40259 21.4851 9.40945 21.3653L9.46477 20.7878ZM7.78615 21.1048L7.82754 20.9286L8.27671 21.0484L8.16608 21.4639C8.11077 21.4991 8.04173 21.5203 7.94503 21.5273C7.85519 21.5343 7.77242 21.5273 7.68945 21.5061C7.57901 21.4781 7.48918 21.4287 7.427 21.3653C7.35796 21.2949 7.31638 21.2103 7.29578 21.1188C7.28186 21.0202 7.28186 20.9216 7.30951 20.823C7.33717 20.7174 7.38542 20.6259 7.45466 20.5485C7.51684 20.4779 7.59961 20.4357 7.69631 20.4147C7.77242 20.3935 7.86206 20.4005 7.95895 20.4287C8.08312 20.4639 8.17982 20.5133 8.23513 20.5907C8.29044 20.661 8.3181 20.7526 8.31123 20.8512L8.09704 20.8372C8.09704 20.7808 8.08312 20.7314 8.04859 20.6892C8.01407 20.654 7.97268 20.6189 7.9105 20.6049C7.82067 20.5837 7.74476 20.5907 7.67572 20.6329C7.60648 20.6752 7.55823 20.7596 7.5237 20.8724C7.48918 20.9992 7.49605 21.0978 7.53057 21.1751C7.57196 21.2525 7.63414 21.3019 7.7171 21.3231C7.76536 21.3371 7.80694 21.3371 7.85519 21.3371C7.90364 21.3301 7.94503 21.3161 7.98642 21.3019L8.02094 21.1681L7.78615 21.1048ZM8.85691 20.668L8.49757 20.6049L8.3181 21.668L8.52523 21.7032L8.60133 21.2597L8.64958 21.2667C8.69803 21.2737 8.73255 21.2879 8.75315 21.2949C8.77394 21.3089 8.78767 21.3301 8.80846 21.3513C8.81533 21.3723 8.83612 21.4075 8.85691 21.4569V21.126C8.83612 21.126 8.81533 21.1188 8.78767 21.1188L8.63585 21.0906L8.67724 20.823L8.84299 20.8512C8.84985 20.8512 8.85691 20.8512 8.85691 20.8512V20.668Z" fill="#003399"/>
<path fill-rule="evenodd" clip-rule="evenodd" d="M41.7788 19.3539V17.3679H42.6354V13.875L41.7788 15.6215V11.2623H45.143L45.9995 21.3045H42.6354V19.3539H41.7788ZM41.7788 11.2623V15.6215L40.9223 17.3679H41.7788V19.3539H40.1626L39.4994 21.1989H37.4132V18.9032L39.7411 13.7834H39.2644L40.5908 11.2623H41.7788ZM37.4132 14.6075L38.4563 12.0862L37.4132 11.4947V14.6075ZM29.117 13.6426C29.1655 13.3539 29.1655 13.0722 29.117 12.8046V13.6426ZM37.4132 11.4947V14.6075L37.2751 14.9454C35.2166 13.4455 32.1773 14.8116 32.0045 16.3961C31.8319 18.051 33.0684 19.3891 36.2252 18.3891L35.1407 21.3467C30.9753 21.8186 29.3589 20.1355 29.117 18.1707V17.0582C29.1792 16.5441 29.3106 16.044 29.4901 15.5793C31.5418 10.3821 34.8712 11.5511 36.1353 11.4525L36.3219 10.875L37.4132 11.4947ZM37.4132 18.9032L36.3701 21.1989H37.4132V18.9032ZM25.3732 21.1355C27.6043 20.6848 29.7941 17.9524 27.5975 15.7764C28.454 15.3115 28.9858 14.4737 29.117 13.6426V12.8046C28.9652 11.9384 28.3089 11.2341 27.0724 11.2129L25.3732 11.1777V13.1074H26.0777C26.8307 13.1074 26.734 15.0934 25.7945 15.0934H25.3732V16.6145C26.3886 16.8116 26.0293 18.2481 25.3732 18.6918V21.1355ZM29.117 17.0582V18.1707C29.0756 17.8046 29.0756 17.4313 29.117 17.0582ZM22.4304 11.1144L21.0558 13.8328L21.6705 13.7834L20.0127 21.1989H24.7583C24.9656 21.1989 25.1659 21.1777 25.3732 21.1355V18.6918C25.2557 18.7764 25.1245 18.8256 24.9932 18.8256H23.287L23.8534 16.5933H25.1313C25.2212 16.5933 25.3041 16.6003 25.3732 16.6145V15.0934H24.1849L24.6616 13.1074H25.3732V11.1777L22.4304 11.1144Z" fill="#003399"/>
</g>
<defs>
<clipPath id="clip0_742_17508">
<rect width="42" height="14" fill="white" transform="translate(4 9)"/>
</clipPath>
</defs>
</svg>
