<svg width="1180" height="250" viewBox="0 0 1180 250" fill="none" xmlns="http://www.w3.org/2000/svg">
<rect width="1180" height="250" fill="#4E9FCA"/>
<mask id="mask0_16_2898" style="mask-type:alpha" maskUnits="userSpaceOnUse" x="802" y="0" width="378" height="250">
<path d="M1180 25C1180 11.1929 1168.81 0 1155 0L818 0C809.163 0 802 7.16344 802 16V234C802 242.837 809.163 250 818 250H1180V25Z" fill="#D9D9D9"/>
</mask>
<g mask="url(#mask0_16_2898)">
<circle cx="965.41" cy="203.082" r="82.5" fill="url(#paint0_linear_16_2898)" fill-opacity="0.8"/>
<circle cx="1105.58" cy="41.3926" r="145" fill="url(#paint1_linear_16_2898)" fill-opacity="0.8"/>
</g>
<mask id="mask1_16_2898" style="mask-type:alpha" maskUnits="userSpaceOnUse" x="0" y="0" width="378" height="250">
<path d="M0 25C0 11.1929 11.1929 0 25 0L362 0C370.837 0 378 7.16344 378 16V234C378 242.837 370.837 250 362 250H0L0 25Z" fill="#D9D9D9"/>
</mask>
<g mask="url(#mask1_16_2898)">
<circle cx="82.5" cy="82.5" r="82.5" transform="matrix(-1 0 0 1 297.09 120.582)" fill="url(#paint2_linear_16_2898)" fill-opacity="0.8"/>
<circle cx="145" cy="145" r="145" transform="matrix(-1 0 0 1 219.416 -103.607)" fill="url(#paint3_linear_16_2898)" fill-opacity="0.8"/>
</g>
<defs>
<linearGradient id="paint0_linear_16_2898" x1="952.169" y1="124.947" x2="981.27" y2="285.582" gradientUnits="userSpaceOnUse">
<stop stop-color="#4E9FCA"/>
<stop offset="1" stop-color="white" stop-opacity="0.7"/>
</linearGradient>
<linearGradient id="paint1_linear_16_2898" x1="1169.22" y1="-14.9802" x2="1036.66" y2="167.536" gradientUnits="userSpaceOnUse">
<stop stop-color="#4E9FCA"/>
<stop offset="1" stop-color="white" stop-opacity="0.7"/>
</linearGradient>
<linearGradient id="paint2_linear_16_2898" x1="69.2593" y1="4.36508" x2="98.3598" y2="165" gradientUnits="userSpaceOnUse">
<stop stop-color="#4E9FCA"/>
<stop offset="1" stop-color="white" stop-opacity="0.7"/>
</linearGradient>
<linearGradient id="paint3_linear_16_2898" x1="208.637" y1="88.6273" x2="76.0763" y2="271.144" gradientUnits="userSpaceOnUse">
<stop stop-color="#4E9FCA"/>
<stop offset="1" stop-color="white" stop-opacity="0.7"/>
</linearGradient>
</defs>
</svg>
