<svg width="50" height="32" viewBox="0 0 50 32" fill="none" xmlns="http://www.w3.org/2000/svg">
<rect width="50" height="32" rx="4" fill="white"/>
<g clip-path="url(#clip0_742_17512)">
<path fill-rule="evenodd" clip-rule="evenodd" d="M18.4438 8C18.9336 8.34311 19.4317 8.86356 19.4317 9.36622V18.226C19.4317 18.7224 18.9744 19.4244 18.5579 19.7044C20.027 19.7044 21.4963 19.7044 22.9657 19.7044C25.8175 19.5838 27.5472 18.5302 27.754 16.3213C27.8991 14.772 27.099 13.5669 25.1337 12.8876C26.1142 12.5058 26.6414 11.6744 26.6897 10.5276C26.7724 8.55489 24.5289 8 23.1177 8H18.4438V8ZM21.1797 12.744V9.05H22.5322C24.0669 9.05 24.7899 9.82044 24.7897 10.9818C24.7895 12.1431 23.7518 12.744 22.4567 12.744H21.1797ZM22.6215 18.5767H21.1797V13.7938H22.8137C25.2479 13.7938 25.9841 15.2916 25.8536 16.5158C25.7231 17.74 24.695 18.5767 22.6215 18.5767ZM31.6352 8H29.2401C29.7726 8.60644 30.0049 8.92511 30.0049 9.86511V17.9393C30.0049 18.8693 29.6021 19.44 29.0242 19.8438H32.2113C31.7381 19.5484 31.2287 18.968 31.2287 17.9178V10.7849C32.8387 12.9858 34.4486 15.1864 36.0587 17.3873C36.9716 18.6093 38.0299 19.6453 39.2638 20.4567V9.82244C39.2638 8.75756 39.6836 8.35156 40.245 8H37.1378C37.7009 8.42756 37.9995 8.91044 37.9995 9.78V16.9016L31.6352 8V8ZM42.0086 19.8438C42.6531 19.4062 42.9811 18.8927 42.9811 18.226V9.76867C42.9811 8.76867 42.699 8.54267 42.1458 8H45.8242C45.1894 8.36578 44.744 9.11244 44.744 9.76867V18.2027C44.744 18.8498 45.1182 19.4427 45.6257 19.8438H42.0086Z" fill="#007697"/>
<path fill-rule="evenodd" clip-rule="evenodd" d="M4 8H7.55089C7.36543 8.32578 7.22492 9.05778 7.5839 10.7024C7.90313 12.1642 8.82609 13.6891 9.78879 14.8944L8.57896 15.9109L4 10.0236V8ZM9.18528 8H15.4364V9.55C14.9528 9.26089 14.0711 8.98156 12.7763 9.51156C10.6874 10.3664 10.5085 12.8704 10.5085 12.8704C9.35294 11.4422 8.59264 9.10022 9.18528 8V8ZM15.4364 11.606V16.2196C14.0159 16.7711 12.0237 15.3367 11.5231 13.634C10.7975 11.1658 12.5077 10.2749 13.7312 10.5191C14.6455 10.7018 15.1765 11.2593 15.4364 11.606ZM15.4364 16.9769V19.7029H11.6052L12.3733 19.0578C11.8721 19.1202 10.8877 18.8791 10.4081 18.2627L9.05954 16.5287L10.2924 15.4929C11.0501 16.3476 11.7715 16.9616 12.1796 17.1458C13.053 17.54 14.037 17.7304 15.4364 16.9769ZM9.46586 19.7029H5.28063L7.88837 17.5124C8.10162 17.7869 8.30771 18.052 8.50338 18.3036C8.88755 18.7973 9.21004 19.2851 9.46586 19.7029ZM4.0645 19.7029H4V12.5131C4.99593 13.7936 6.26809 15.4293 7.40778 16.8947L4.0645 19.7029Z" fill="#EC6722"/>
<path fill-rule="evenodd" clip-rule="evenodd" d="M43.5721 23.081L43.7869 23.0487C43.7995 23.1327 43.8312 23.1976 43.8881 23.2492C43.945 23.2945 44.021 23.3205 44.1219 23.3205C44.2169 23.3205 44.2929 23.2945 44.3432 23.2556C44.3875 23.217 44.413 23.1652 44.413 23.107C44.413 23.0616 44.3938 23.0227 44.3498 22.9905C44.3181 22.971 44.2423 22.9452 44.1282 22.9194C43.9704 22.8741 43.8566 22.8416 43.7995 22.8092C43.7363 22.777 43.6857 22.7381 43.6542 22.6863C43.6225 22.6345 43.6099 22.5763 43.6099 22.5116C43.6099 22.4534 43.6225 22.3952 43.6479 22.3498C43.6731 22.2981 43.7111 22.2594 43.7554 22.227C43.7869 22.2012 43.8375 22.1752 43.8944 22.1623C43.9513 22.143 44.0145 22.1301 44.0779 22.1301C44.1791 22.1301 44.2674 22.1494 44.3432 22.1752C44.419 22.2076 44.4761 22.2465 44.5141 22.2981C44.5456 22.3498 44.5708 22.4147 44.5899 22.4987L44.3749 22.531C44.3624 22.4598 44.3369 22.4081 44.2929 22.3694C44.2486 22.337 44.1791 22.3176 44.0968 22.3176C43.9956 22.3176 43.9261 22.3305 43.8818 22.363C43.8375 22.4016 43.8186 22.4405 43.8186 22.4858C43.8186 22.5116 43.8312 22.5376 43.844 22.5634C43.8629 22.5827 43.8881 22.6023 43.9261 22.6216C43.9513 22.6283 44.0145 22.6476 44.1219 22.6798C44.2737 22.7187 44.3812 22.7512 44.4381 22.7834C44.5016 22.8092 44.5519 22.8481 44.5836 22.8998C44.6153 22.9452 44.634 23.0098 44.634 23.0876C44.634 23.1587 44.6153 23.2298 44.5708 23.2945C44.533 23.3592 44.4698 23.411 44.3875 23.4498C44.3118 23.4823 44.2231 23.5016 44.1219 23.5016C43.9513 23.5016 43.8249 23.4627 43.7428 23.3916C43.6542 23.3205 43.5973 23.217 43.5721 23.081ZM45.3802 22.7123C45.5257 22.6927 45.6332 22.667 45.709 22.6412C45.709 22.6087 45.709 22.5894 45.709 22.5827C45.709 22.4923 45.6901 22.4276 45.6458 22.3887C45.5952 22.3434 45.5131 22.3176 45.3993 22.3176C45.3928 22.3176 45.3865 22.3176 45.3802 22.3176C45.2916 22.3176 45.2221 22.337 45.1778 22.3694C45.1274 22.4081 45.0894 22.473 45.0703 22.5634L44.8555 22.5376C44.8744 22.4405 44.9059 22.3694 44.9502 22.3112C44.9945 22.253 45.0577 22.2076 45.1463 22.1816C45.2158 22.1558 45.2916 22.1365 45.3802 22.1365C45.3993 22.1301 45.4182 22.1301 45.4308 22.1301C45.5446 22.1301 45.6332 22.1494 45.6964 22.1752C45.7659 22.2012 45.8165 22.2336 45.8482 22.2723C45.8797 22.3112 45.9049 22.363 45.9175 22.4212C45.924 22.4598 45.9303 22.531 45.9303 22.6283V22.9194C45.9303 23.1263 45.9303 23.2623 45.9429 23.3141C45.9492 23.3656 45.9681 23.4238 45.9998 23.4692H45.7722C45.747 23.4238 45.7344 23.3723 45.7279 23.3074C45.6458 23.3787 45.5698 23.4305 45.494 23.4563C45.456 23.4692 45.4182 23.4823 45.3802 23.4887C45.3422 23.495 45.2981 23.5016 45.2538 23.5016C45.1146 23.5016 45.0071 23.4627 44.9313 23.3981C44.8555 23.327 44.8175 23.2363 44.8175 23.1263C44.8175 23.0616 44.8364 23.0034 44.8618 22.9516C44.8933 22.8998 44.925 22.8545 44.9756 22.8223C45.0197 22.7898 45.0703 22.7641 45.1274 22.7512C45.1715 22.7381 45.2347 22.7252 45.3233 22.7187C45.3422 22.7123 45.3613 22.7123 45.3802 22.7123ZM45.3802 23.3205C45.4371 23.3141 45.4877 23.2945 45.532 23.2687C45.5952 23.2363 45.6458 23.1845 45.6773 23.1198C45.6964 23.0681 45.709 22.9905 45.709 22.8934V22.8158C45.6332 22.8481 45.5257 22.8741 45.3802 22.8934C45.3739 22.8934 45.3613 22.8998 45.3548 22.8998C45.2664 22.9127 45.2032 22.9256 45.1652 22.9452C45.1274 22.9581 45.102 22.9841 45.0829 23.0163C45.0577 23.0487 45.0514 23.081 45.0514 23.1198C45.0514 23.1781 45.0703 23.2298 45.1146 23.2687C45.1589 23.3074 45.2221 23.327 45.3107 23.327C45.3361 23.327 45.3548 23.327 45.3802 23.3205ZM4.06885 23.4692V21.6641H4.42283L4.84022 22.9452C4.87823 23.0616 4.90972 23.1523 4.92231 23.2105C4.9475 23.1458 4.97921 23.0487 5.01721 22.9194L5.44091 21.6641H5.75688V23.4692H5.52929V21.9616L5.01721 23.4692H4.80852L4.29644 21.9358V23.4692H4.06885ZM7.47033 23.4692V21.6641H7.69162V23.4692H7.47033ZM6.62316 22.6927H6.98344C6.97084 22.5827 6.94565 22.4987 6.90135 22.4405C6.83164 22.3565 6.74325 22.3176 6.63576 22.3176C6.62946 22.3176 6.62946 22.3176 6.62316 22.3176C6.52826 22.3176 6.44617 22.3498 6.38276 22.4147C6.31326 22.4858 6.27548 22.5763 6.26896 22.6927H6.62316ZM6.62316 23.3205C6.62946 23.3205 6.63576 23.3205 6.64205 23.3205C6.72436 23.3205 6.78755 23.2945 6.84445 23.2556C6.90135 23.2105 6.94565 23.1458 6.98344 23.0487L7.20473 23.0745C7.16673 23.2105 7.10353 23.3141 7.00885 23.3916C6.91395 23.4627 6.78755 23.5016 6.64205 23.5016C6.63576 23.5016 6.62946 23.5016 6.62316 23.5016C6.44617 23.495 6.30067 23.437 6.19947 23.3205C6.08567 23.2038 6.03507 23.0423 6.03507 22.8287C6.03507 22.6087 6.08567 22.4341 6.19947 22.3176C6.30697 22.1947 6.45247 22.1365 6.62316 22.1301C6.62946 22.1301 6.62946 22.1301 6.62946 22.1301C6.80015 22.1301 6.93914 22.1947 7.04685 22.3112C7.16065 22.4276 7.21103 22.5958 7.21103 22.8158C7.21103 22.8287 7.21103 22.8481 7.21103 22.8741H6.62316H6.25637C6.26266 23.0163 6.30697 23.1263 6.37646 23.2038C6.44617 23.2752 6.52826 23.3141 6.62316 23.3205ZM9.38595 23.9741L9.36076 23.7667C9.41136 23.7798 9.44936 23.7863 9.48715 23.7863C9.53145 23.7863 9.56946 23.7798 9.60095 23.7605C9.63265 23.7474 9.65155 23.7216 9.67044 23.6892C9.68955 23.6698 9.70844 23.6181 9.74015 23.5274C9.74015 23.5145 9.74645 23.495 9.75904 23.4756L9.27216 22.1623H9.50605L9.77164 22.9194C9.80964 23.0163 9.84113 23.1198 9.86654 23.2234C9.89173 23.1198 9.91714 23.0227 9.95515 22.9256L10.2268 22.1623H10.4418L9.95515 23.495C9.90455 23.6374 9.86654 23.7345 9.83484 23.7927C9.79705 23.8638 9.75275 23.9156 9.70215 23.9481C9.65155 23.987 9.59465 23.9998 9.52516 23.9998C9.48085 23.9998 9.43655 23.9932 9.38595 23.9741ZM8.51359 22.7123C8.65888 22.6927 8.76638 22.667 8.84238 22.6412C8.84238 22.6087 8.84238 22.5894 8.84238 22.5827C8.84238 22.4923 8.82327 22.4276 8.77919 22.3887C8.72207 22.3434 8.63999 22.3176 8.53249 22.3176C8.52619 22.3176 8.51989 22.3176 8.51359 22.3176C8.41869 22.3176 8.3555 22.337 8.3049 22.3694C8.2606 22.4081 8.22259 22.473 8.1974 22.5634L7.9887 22.5376C8.00781 22.4405 8.0393 22.3694 8.0836 22.3112C8.12791 22.253 8.1911 22.2076 8.27319 22.1816C8.3429 22.1558 8.42499 22.1365 8.51359 22.1365C8.52619 22.1301 8.54508 22.1301 8.56419 22.1301C8.67147 22.1301 8.76008 22.1494 8.82979 22.1752C8.89928 22.2012 8.94966 22.2336 8.98137 22.2723C9.01308 22.3112 9.03827 22.363 9.05108 22.4212C9.05716 22.4598 9.05716 22.531 9.05716 22.6283V22.9194C9.05716 23.1263 9.06368 23.2623 9.07627 23.3141C9.08257 23.3656 9.10168 23.4238 9.12687 23.4692H8.89928C8.88017 23.4238 8.86758 23.3723 8.86128 23.3074C8.77919 23.3787 8.70318 23.4305 8.62739 23.4563C8.58939 23.4692 8.55138 23.4823 8.51359 23.4887C8.46929 23.495 8.43129 23.5016 8.38699 23.5016C8.248 23.5016 8.1405 23.4627 8.06471 23.3981C7.9887 23.327 7.95092 23.2363 7.95092 23.1263C7.95092 23.0616 7.96351 23.0034 7.99522 22.9516C8.02041 22.8998 8.05841 22.8545 8.1025 22.8223C8.1531 22.7898 8.2037 22.7641 8.2606 22.7512C8.3049 22.7381 8.36809 22.7252 8.4567 22.7187C8.47559 22.7123 8.49448 22.7123 8.51359 22.7123ZM8.51359 23.3205C8.56419 23.3141 8.61479 23.2945 8.66539 23.2687C8.72859 23.2363 8.77267 23.1845 8.80438 23.1198C8.82979 23.0681 8.84238 22.9905 8.84238 22.8934V22.8158C8.76638 22.8481 8.65888 22.8741 8.51359 22.8934C8.50078 22.8934 8.49448 22.8998 8.48819 22.8998C8.3998 22.9127 8.33639 22.9256 8.2986 22.9452C8.2606 22.9581 8.22911 22.9841 8.21 23.0163C8.1911 23.0487 8.1848 23.081 8.1848 23.1198C8.1848 23.1781 8.2037 23.2298 8.248 23.2687C8.2923 23.3074 8.3555 23.327 8.43759 23.327C8.46299 23.327 8.48819 23.327 8.51359 23.3205ZM14.6275 23.4692V21.6641H14.8677L15.7971 23.081V21.6641H16.0184V23.4692H15.7782L14.8551 22.0523V23.4692H14.6275ZM13.3692 23.4692V22.1623H13.5905V23.4692H13.3692ZM13.3692 21.923V21.6641H13.5905V21.923H13.3692ZM11.9972 23.4692V22.1623H12.1933V22.3498C12.2882 22.2076 12.4272 22.1301 12.6041 22.1301C12.6802 22.1301 12.7496 22.1494 12.8128 22.1752C12.876 22.2012 12.9266 22.2398 12.9583 22.2852C12.9898 22.3305 13.0152 22.3887 13.0278 22.4534C13.0341 22.4923 13.0404 22.5634 13.0404 22.667V23.4692H12.8191V22.6734C12.8191 22.5827 12.8128 22.5181 12.7937 22.473C12.7811 22.4276 12.7496 22.3887 12.7053 22.363C12.6613 22.337 12.617 22.3241 12.5535 22.3241C12.4652 22.3241 12.3828 22.3565 12.3197 22.4147C12.2502 22.473 12.2185 22.5894 12.2185 22.7576V23.4692H11.9972ZM11.1185 22.7123C11.2638 22.6927 11.3713 22.667 11.4471 22.6412C11.4471 22.6087 11.4471 22.5894 11.4471 22.5827C11.4471 22.4923 11.4282 22.4276 11.3839 22.3887C11.327 22.3434 11.2449 22.3176 11.1374 22.3176C11.1311 22.3176 11.1246 22.3176 11.1185 22.3176C11.0236 22.3176 10.9541 22.337 10.9098 22.3694C10.8655 22.4081 10.8275 22.473 10.8023 22.5634L10.5936 22.5376C10.6125 22.4405 10.6442 22.3694 10.6885 22.3112C10.7328 22.253 10.796 22.2076 10.8781 22.1816C10.9478 22.1558 11.0299 22.1365 11.1185 22.1365C11.1311 22.1301 11.15 22.1301 11.1691 22.1301C11.2764 22.1301 11.365 22.1494 11.4345 22.1752C11.5042 22.2012 11.5548 22.2336 11.5863 22.2723C11.618 22.3112 11.6369 22.363 11.6558 22.4212C11.6621 22.4598 11.6621 22.531 11.6621 22.6283V22.9194C11.6621 23.1263 11.6686 23.2623 11.6749 23.3141C11.6875 23.3656 11.7064 23.4238 11.7318 23.4692H11.5042C11.4851 23.4238 11.4662 23.3723 11.4599 23.3074C11.3839 23.3787 11.3081 23.4305 11.2323 23.4563C11.1943 23.4692 11.1563 23.4823 11.1185 23.4887C11.0742 23.495 11.0362 23.5016 10.9921 23.5016C10.8529 23.5016 10.7454 23.4627 10.6696 23.3981C10.5936 23.327 10.5556 23.2363 10.5556 23.1263C10.5556 23.0616 10.5684 23.0034 10.5999 22.9516C10.6253 22.8998 10.6631 22.8545 10.7074 22.8223C10.758 22.7898 10.8086 22.7641 10.8655 22.7512C10.9098 22.7381 10.973 22.7252 11.0553 22.7187C11.0805 22.7123 11.0994 22.7123 11.1185 22.7123ZM11.1185 23.3205C11.1691 23.3141 11.2197 23.2945 11.2638 23.2687C11.3333 23.2363 11.3776 23.1845 11.4093 23.1198C11.4345 23.0681 11.4471 22.9905 11.4471 22.8934V22.8158C11.3713 22.8481 11.2575 22.8741 11.1185 22.8934C11.1059 22.8934 11.0994 22.8998 11.0931 22.8998C11.0045 22.9127 10.9413 22.9256 10.9035 22.9452C10.8655 22.9581 10.834 22.9841 10.8149 23.0163C10.796 23.0487 10.7834 23.081 10.7834 23.1198C10.7834 23.1781 10.8086 23.2298 10.8529 23.2687C10.8972 23.3074 10.9604 23.327 11.0425 23.327C11.0679 23.327 11.0931 23.327 11.1185 23.3205ZM16.9034 22.6927H17.2639C17.2513 22.5827 17.2259 22.4987 17.1818 22.4405C17.1121 22.3565 17.0237 22.3176 16.9099 22.3176C16.9099 22.3176 16.9099 22.3176 16.9034 22.3176C16.8087 22.3176 16.7264 22.3498 16.6632 22.4147C16.5937 22.4858 16.5557 22.5763 16.5494 22.6927H16.9034ZM16.9034 23.3205C16.9099 23.3205 16.9162 23.3205 16.9225 23.3205C17.0046 23.3205 17.068 23.2945 17.1249 23.2556C17.1818 23.2105 17.2259 23.1458 17.2576 23.0487L17.4852 23.0745C17.4472 23.2105 17.384 23.3141 17.2891 23.3916C17.1944 23.4627 17.068 23.5016 16.9225 23.5016C16.9162 23.5016 16.9099 23.5016 16.9034 23.5016C16.7264 23.495 16.5811 23.437 16.4736 23.3205C16.3661 23.2038 16.3092 23.0423 16.3092 22.8287C16.3092 22.6087 16.3661 22.4341 16.4799 22.3176C16.5874 22.1947 16.7329 22.1365 16.9034 22.1301H16.9099C17.0806 22.1301 17.2198 22.1947 17.3271 22.3112C17.4346 22.4276 17.4915 22.5958 17.4915 22.8158C17.4915 22.8287 17.4915 22.8481 17.4915 22.8741H16.9034H16.5368C16.5431 23.0163 16.5811 23.1263 16.6569 23.2038C16.7203 23.2752 16.8087 23.3141 16.9034 23.3205ZM18.244 23.2881C18.3452 23.2881 18.4272 23.2492 18.4967 23.1716C18.5664 23.0941 18.5979 22.971 18.5979 22.803C18.5979 22.6412 18.5599 22.5181 18.4904 22.4405C18.4272 22.3565 18.3452 22.3176 18.244 22.3176C18.1428 22.3176 18.067 22.3565 17.9973 22.4341C17.9278 22.5181 17.8963 22.6345 17.8963 22.7963C17.8963 22.9645 17.9278 23.0876 17.9973 23.1716C18.0604 23.2492 18.1428 23.2881 18.244 23.2881ZM18.244 23.8185C18.3323 23.8121 18.4021 23.7927 18.4527 23.7538C18.5093 23.715 18.541 23.657 18.5664 23.5856C18.5727 23.5403 18.579 23.4434 18.579 23.3012C18.4904 23.411 18.3766 23.4627 18.244 23.4692C18.2377 23.4692 18.2314 23.4692 18.2248 23.4692C18.0479 23.4692 17.9152 23.4045 17.814 23.2752C17.7193 23.1458 17.6748 22.9905 17.6748 22.8092C17.6748 22.6863 17.6939 22.5698 17.738 22.4663C17.7825 22.3565 17.8457 22.2787 17.9278 22.2205C18.0164 22.1623 18.1111 22.1301 18.2248 22.1301C18.2314 22.1301 18.2377 22.1301 18.244 22.1301C18.3895 22.1365 18.5033 22.2012 18.5979 22.3176V22.1623H18.8003V23.2945C18.8003 23.495 18.7812 23.6438 18.7371 23.7281C18.6991 23.8121 18.6359 23.8767 18.5473 23.9285C18.4652 23.9741 18.364 23.9998 18.244 23.9998C18.2377 23.9998 18.2314 23.9998 18.2185 23.9998C18.067 23.9998 17.9467 23.9674 17.852 23.8963C17.7571 23.825 17.7128 23.7216 17.7128 23.5792L17.9278 23.6116C17.9341 23.6763 17.9595 23.7281 17.9973 23.7538C18.0544 23.7992 18.1302 23.8185 18.2185 23.8185C18.2314 23.8185 18.2377 23.8185 18.244 23.8185ZM23.2577 23.4692V21.6641H23.4916V22.5634L24.3641 21.6641H24.6803L23.9404 22.3952L24.7118 23.4692H24.4084L23.7761 22.557L23.4916 22.8481V23.4692H23.2577ZM21.9236 23.4692V23.217H22.1701V23.4692C22.1701 23.5663 22.1575 23.6374 22.1195 23.6958C22.088 23.7538 22.0374 23.7992 21.9679 23.825L21.911 23.7345C21.9553 23.715 21.9868 23.6827 22.0122 23.6438C22.0311 23.6052 22.0437 23.5467 22.0437 23.4692H21.9236ZM21.3229 23.4692V22.1623H21.5379V23.4692H21.3229ZM21.3229 21.923V21.6641H21.5379V21.923H21.3229ZM20.4947 23.4692V22.1623H20.6908V22.363C20.7414 22.2658 20.7855 22.2076 20.8298 22.1752C20.8678 22.1494 20.9184 22.1301 20.969 22.1301C21.0385 22.1301 21.1142 22.1558 21.1903 22.2012L21.1142 22.4081C21.0636 22.3758 21.007 22.363 20.9564 22.363C20.9121 22.363 20.8678 22.3758 20.8298 22.4081C20.792 22.4341 20.7666 22.473 20.7477 22.5247C20.7225 22.6087 20.7097 22.6927 20.7097 22.7834V23.4692H20.4947ZM19.6475 22.6927H20.0015C19.9952 22.5827 19.97 22.4987 19.9257 22.4405C19.8562 22.3565 19.7613 22.3176 19.6538 22.3176H19.6475C19.5526 22.3176 19.4705 22.3498 19.401 22.4147C19.3378 22.4858 19.2998 22.5763 19.2935 22.6927H19.6475ZM19.6475 23.3205C19.6538 23.3205 19.6601 23.3205 19.6664 23.3205C19.7424 23.3205 19.8119 23.2945 19.8688 23.2556C19.9257 23.2105 19.97 23.1458 20.0015 23.0487L20.223 23.0745C20.1913 23.2105 20.1281 23.3141 20.0269 23.3916C19.932 23.4627 19.8119 23.5016 19.6664 23.5016C19.6601 23.5016 19.6538 23.5016 19.6475 23.5016C19.4705 23.495 19.325 23.437 19.2175 23.3205C19.11 23.2038 19.0531 23.0423 19.0531 22.8287C19.0531 22.6087 19.11 22.4341 19.224 22.3176C19.3313 22.1947 19.4705 22.1365 19.6475 22.1301C19.6475 22.1301 19.6475 22.1301 19.6538 22.1301C19.8245 22.1301 19.9637 22.1947 20.0712 22.3112C20.1787 22.4276 20.2356 22.5958 20.2356 22.8158C20.2356 22.8287 20.2356 22.8481 20.2291 22.8741H19.6475H19.2807C19.2872 23.0163 19.325 23.1263 19.401 23.2038C19.4642 23.2752 19.5463 23.3141 19.6475 23.3205ZM25.3946 22.6927H25.7551C25.7425 22.5827 25.7171 22.4987 25.6728 22.4405C25.6033 22.3565 25.5149 22.3176 25.4011 22.3176C25.4011 22.3176 25.4011 22.3176 25.3946 22.3176C25.2999 22.3176 25.2176 22.3498 25.1544 22.4147C25.0849 22.4858 25.0469 22.5763 25.0406 22.6927H25.3946ZM25.3946 23.3205C25.4011 23.3205 25.4074 23.3205 25.4137 23.3205C25.4895 23.3205 25.559 23.2945 25.6159 23.2556C25.6728 23.2105 25.7171 23.1458 25.7488 23.0487L25.9764 23.0745C25.9384 23.2105 25.8752 23.3141 25.7803 23.3916C25.6793 23.4627 25.559 23.5016 25.4137 23.5016C25.4074 23.5016 25.4011 23.5016 25.3946 23.5016C25.2176 23.495 25.0723 23.437 24.9711 23.3205C24.8636 23.2038 24.8067 23.0423 24.8067 22.8287C24.8067 22.6087 24.8636 22.4341 24.9774 22.3176C25.0786 22.1947 25.2239 22.1365 25.3946 22.1301H25.4011C25.5718 22.1301 25.7108 22.1947 25.8183 22.3112C25.9258 22.4276 25.9827 22.5958 25.9827 22.8158C25.9827 22.8287 25.9827 22.8481 25.9827 22.8741H25.3946H25.0343C25.0343 23.0163 25.0723 23.1263 25.1481 23.2038C25.2113 23.2752 25.2936 23.3141 25.3946 23.3205ZM26.7858 22.1365C26.7984 22.1301 26.8047 22.1301 26.811 22.1301C26.893 22.1301 26.9628 22.1494 27.0385 22.1816C27.108 22.2141 27.1649 22.2594 27.2092 22.3176C27.2535 22.3758 27.2915 22.447 27.3167 22.531C27.3419 22.6152 27.3547 22.7058 27.3547 22.7963C27.3547 23.0227 27.2978 23.1976 27.1903 23.3141C27.0828 23.437 26.9499 23.5016 26.7984 23.5016C26.7984 23.5016 26.7921 23.5016 26.7858 23.5016C26.6466 23.495 26.5328 23.4305 26.4442 23.3074V23.4692H26.2483V21.6641H26.4633V22.3112C26.5454 22.2012 26.6592 22.1365 26.7858 22.1365ZM26.7858 23.3205C26.8804 23.3141 26.9628 23.2752 27.026 23.191C27.0954 23.107 27.1334 22.9841 27.1334 22.8158C27.1334 22.6476 27.1017 22.5181 27.0322 22.4405C26.9691 22.3565 26.8867 22.3176 26.7921 22.3176C26.7921 22.3176 26.7921 22.3176 26.7858 22.3176C26.6972 22.3176 26.6149 22.3565 26.5454 22.4405C26.4759 22.5247 26.4442 22.6476 26.4442 22.8092C26.4442 22.9645 26.4633 23.0745 26.5074 23.1458C26.5771 23.2623 26.6655 23.3205 26.7858 23.3205ZM28.9922 23.4692V22.1623H29.1818V22.3498C29.2767 22.2076 29.4159 22.1301 29.5929 22.1301C29.6686 22.1301 29.7384 22.1494 29.8016 22.1752C29.871 22.2012 29.9154 22.2398 29.9471 22.2852C29.9785 22.3305 30.0037 22.3887 30.0166 22.4534C30.0228 22.4923 30.0291 22.5634 30.0291 22.667V23.4692H29.8141V22.6734C29.8141 22.5827 29.8016 22.5181 29.7887 22.473C29.7698 22.4276 29.7384 22.3887 29.6941 22.363C29.6561 22.337 29.6055 22.3241 29.5423 22.3241C29.4537 22.3241 29.3716 22.3565 29.3084 22.4147C29.2389 22.473 29.2072 22.5894 29.2072 22.7576V23.4692H28.9922ZM28.107 22.7123C28.2525 22.6927 28.36 22.667 28.4358 22.6412C28.4358 22.6087 28.4358 22.5894 28.4358 22.5827C28.4358 22.4923 28.4169 22.4276 28.3726 22.3887C28.3157 22.3434 28.2334 22.3176 28.1261 22.3176C28.1196 22.3176 28.1135 22.3176 28.107 22.3176C28.0123 22.3176 27.9489 22.337 27.8983 22.3694C27.8542 22.4081 27.8162 22.473 27.791 22.5634L27.5823 22.5376C27.6012 22.4405 27.6329 22.3694 27.677 22.3112C27.7213 22.253 27.7845 22.2076 27.8668 22.1816C27.9363 22.1558 28.0186 22.1365 28.107 22.1365C28.1196 22.1301 28.1387 22.1301 28.1576 22.1301C28.2651 22.1301 28.3537 22.1494 28.4232 22.1752C28.4927 22.2012 28.5433 22.2336 28.575 22.2723C28.6065 22.3112 28.6319 22.363 28.6445 22.4212C28.6508 22.4598 28.6508 22.531 28.6508 22.6283V22.9194C28.6508 23.1263 28.6571 23.2623 28.6697 23.3141C28.6762 23.3656 28.6951 23.4238 28.7203 23.4692H28.4927C28.4738 23.4238 28.4612 23.3723 28.4549 23.3074C28.3726 23.3787 28.2966 23.4305 28.2208 23.4563C28.183 23.4692 28.145 23.4823 28.107 23.4887C28.0627 23.495 28.0249 23.5016 27.9806 23.5016C27.8416 23.5016 27.7339 23.4627 27.6581 23.3981C27.5823 23.327 27.5443 23.2363 27.5443 23.1263C27.5443 23.0616 27.5571 23.0034 27.5886 22.9516C27.6138 22.8998 27.6518 22.8545 27.6961 22.8223C27.7467 22.7898 27.7973 22.7641 27.8542 22.7512C27.8983 22.7381 27.9617 22.7252 28.0501 22.7187C28.0692 22.7123 28.0881 22.7123 28.107 22.7123ZM28.107 23.3205C28.1576 23.3141 28.2082 23.2945 28.2525 23.2687C28.322 23.2363 28.3663 23.1845 28.3978 23.1198C28.4232 23.0681 28.4358 22.9905 28.4358 22.8934V22.8158C28.36 22.8481 28.2462 22.8741 28.107 22.8934C28.0944 22.8934 28.0881 22.8998 28.0818 22.8998C27.9932 22.9127 27.93 22.9256 27.8922 22.9452C27.8542 22.9581 27.8225 22.9841 27.8036 23.0163C27.7845 23.0487 27.7784 23.081 27.7784 23.1198C27.7784 23.1781 27.7973 23.2298 27.8416 23.2687C27.8857 23.3074 27.9489 23.327 28.0312 23.327C28.0564 23.327 28.0818 23.327 28.107 23.3205ZM30.8511 23.2881C30.9521 23.2881 31.0344 23.2492 31.0976 23.1716C31.1673 23.0941 31.1988 22.971 31.1988 22.803C31.1988 22.6412 31.1673 22.5181 31.0976 22.4405C31.0281 22.3565 30.9458 22.3176 30.8511 22.3176C30.8511 22.3176 30.8511 22.3176 30.8448 22.3176C30.7499 22.3176 30.6676 22.3565 30.5981 22.4341C30.5349 22.5181 30.4969 22.6345 30.4969 22.7963C30.4969 22.9645 30.5349 23.0876 30.5981 23.1716C30.6676 23.2492 30.7499 23.2881 30.8511 23.2881ZM30.8511 23.8185C30.9395 23.8121 31.009 23.7927 31.0596 23.7538C31.1102 23.715 31.1482 23.657 31.1673 23.5856C31.1799 23.5403 31.1862 23.4434 31.1862 23.3012C31.0913 23.411 30.9838 23.4627 30.8511 23.4692C30.8448 23.4692 30.8383 23.4692 30.832 23.4692C30.655 23.4692 30.516 23.4045 30.4211 23.2752C30.3262 23.1458 30.2756 22.9905 30.2756 22.8092C30.2756 22.6863 30.301 22.5698 30.3453 22.4663C30.3894 22.3565 30.4526 22.2787 30.5349 22.2205C30.617 22.1623 30.7182 22.1301 30.832 22.1301C30.8383 22.1301 30.8448 22.1301 30.8511 22.1301C30.9901 22.1365 31.1102 22.2012 31.2051 22.3176V22.1623H31.4075V23.2945C31.4075 23.495 31.3821 23.6438 31.3443 23.7281C31.3 23.8121 31.2368 23.8767 31.1482 23.9285C31.0661 23.9741 30.9712 23.9998 30.8511 23.9998C30.8448 23.9998 30.832 23.9998 30.8257 23.9998C30.6739 23.9998 30.5475 23.9674 30.4591 23.8963C30.3642 23.825 30.3199 23.7216 30.3199 23.5792L30.5286 23.6116C30.5412 23.6763 30.5664 23.7281 30.6044 23.7538C30.6613 23.7992 30.731 23.8185 30.8257 23.8185C30.832 23.8185 30.8448 23.8185 30.8511 23.8185ZM32.223 23.2881C32.3242 23.2881 32.4062 23.2492 32.4697 23.1716C32.5392 23.0941 32.5709 22.971 32.5709 22.803C32.5709 22.6412 32.5392 22.5181 32.4697 22.4405C32.4002 22.3565 32.3179 22.3176 32.223 22.3176H32.2167C32.1218 22.3176 32.0397 22.3565 31.9702 22.4341C31.9068 22.5181 31.869 22.6345 31.869 22.7963C31.869 22.9645 31.9068 23.0876 31.9702 23.1716C32.0397 23.2492 32.1218 23.2881 32.223 23.2881ZM32.223 23.8185C32.3116 23.8121 32.3811 23.7927 32.4317 23.7538C32.4823 23.715 32.5203 23.657 32.5392 23.5856C32.5518 23.5403 32.5581 23.4434 32.5581 23.3012C32.4634 23.411 32.3556 23.4627 32.223 23.4692C32.2167 23.4692 32.2104 23.4692 32.2041 23.4692C32.0271 23.4692 31.8879 23.4045 31.7932 23.2752C31.6983 23.1458 31.6477 22.9905 31.6477 22.8092C31.6477 22.6863 31.6729 22.5698 31.7172 22.4663C31.7615 22.3565 31.8247 22.2787 31.9068 22.2205C31.9891 22.1623 32.0903 22.1301 32.2041 22.1301C32.2104 22.1301 32.2167 22.1301 32.223 22.1301C32.3622 22.1365 32.4823 22.2012 32.5772 22.3176V22.1623H32.773V23.2945C32.773 23.495 32.7542 23.6438 32.7161 23.7281C32.6718 23.8121 32.6087 23.8767 32.5203 23.9285C32.438 23.9741 32.337 23.9998 32.223 23.9998C32.2167 23.9998 32.2041 23.9998 32.1978 23.9998C32.046 23.9998 31.9196 23.9674 31.831 23.8963C31.7363 23.825 31.6857 23.7216 31.692 23.5792L31.9007 23.6116C31.9133 23.6763 31.9385 23.7281 31.9765 23.7538C32.0271 23.7992 32.1029 23.8185 32.1978 23.8185C32.2041 23.8185 32.2167 23.8185 32.223 23.8185ZM33.5887 22.7123C33.7342 22.6927 33.8478 22.667 33.9175 22.6412C33.9175 22.6087 33.9175 22.5894 33.9175 22.5827C33.9175 22.4923 33.8984 22.4276 33.8606 22.3887C33.8037 22.3434 33.7214 22.3176 33.6139 22.3176C33.6076 22.3176 33.595 22.3176 33.5887 22.3176C33.5001 22.3176 33.4306 22.337 33.3863 22.3694C33.3357 22.4081 33.3042 22.473 33.2788 22.5634L33.0638 22.5376C33.0892 22.4405 33.1209 22.3694 33.1587 22.3112C33.203 22.253 33.2725 22.2076 33.3548 22.1816C33.4243 22.1558 33.5001 22.1365 33.5887 22.1365C33.6076 22.1301 33.6265 22.1301 33.6456 22.1301C33.7531 22.1301 33.8417 22.1494 33.9112 22.1752C33.9807 22.2012 34.0248 22.2336 34.0628 22.2723C34.0945 22.3112 34.1134 22.363 34.126 22.4212C34.1325 22.4598 34.1388 22.531 34.1388 22.6283V22.9194C34.1388 23.1263 34.1451 23.2623 34.1514 23.3141C34.164 23.3656 34.1766 23.4238 34.2083 23.4692H33.9807C33.9555 23.4238 33.9429 23.3723 33.9364 23.3074C33.8543 23.3787 33.7783 23.4305 33.7025 23.4563C33.671 23.4692 33.6265 23.4823 33.5887 23.4887C33.5507 23.495 33.5066 23.5016 33.4686 23.5016C33.3231 23.5016 33.2156 23.4627 33.1398 23.3981C33.0701 23.327 33.0323 23.2363 33.0323 23.1263C33.0323 23.0616 33.0449 23.0034 33.0701 22.9516C33.1018 22.8998 33.1398 22.8545 33.1841 22.8223C33.2282 22.7898 33.2853 22.7641 33.342 22.7512C33.38 22.7381 33.4495 22.7252 33.5318 22.7187C33.5507 22.7123 33.5698 22.7123 33.5887 22.7123ZM33.5887 23.3205C33.6456 23.3141 33.6962 23.2945 33.7405 23.2687C33.8037 23.2363 33.8543 23.1845 33.8858 23.1198C33.9049 23.0681 33.9175 22.9905 33.9175 22.8934V22.8158C33.8417 22.8481 33.7342 22.8741 33.5887 22.8934C33.5824 22.8934 33.5759 22.8998 33.5633 22.8998C33.4749 22.9127 33.4117 22.9256 33.3737 22.9452C33.342 22.9581 33.3105 22.9841 33.2914 23.0163C33.2725 23.0487 33.2599 23.081 33.2599 23.1198C33.2599 23.1781 33.2853 23.2298 33.3294 23.2687C33.3674 23.3074 33.4369 23.327 33.5192 23.327C33.5444 23.327 33.5698 23.327 33.5887 23.3205ZM35.8457 23.4692V22.1623H36.0418V22.3498C36.1367 22.2076 36.2694 22.1301 36.4466 22.1301C36.5224 22.1301 36.5982 22.1494 36.6614 22.1752C36.7246 22.2012 36.7752 22.2398 36.8069 22.2852C36.8384 22.3305 36.8575 22.3887 36.8701 22.4534C36.8827 22.4923 36.8827 22.5634 36.8827 22.667V23.4692H36.6677V22.6734C36.6677 22.5827 36.6614 22.5181 36.6425 22.473C36.6236 22.4276 36.5982 22.3887 36.5539 22.363C36.5098 22.337 36.4592 22.3241 36.4021 22.3241C36.3074 22.3241 36.2314 22.3565 36.1619 22.4147C36.0924 22.473 36.0609 22.5894 36.0609 22.7576V23.4692H35.8457ZM34.9608 22.7123C35.1061 22.6927 35.2199 22.667 35.2896 22.6412C35.2896 22.6087 35.2896 22.5894 35.2896 22.5827C35.2896 22.4923 35.2705 22.4276 35.2325 22.3887C35.1758 22.3434 35.0935 22.3176 34.986 22.3176C34.9734 22.3176 34.9671 22.3176 34.9608 22.3176C34.8722 22.3176 34.8027 22.337 34.7584 22.3694C34.7078 22.4081 34.6763 22.473 34.6509 22.5634L34.4359 22.5376C34.455 22.4405 34.4865 22.3694 34.5308 22.3112C34.5751 22.253 34.6446 22.2076 34.7269 22.1816C34.7962 22.1558 34.8722 22.1365 34.9608 22.1365C34.9797 22.1301 34.9986 22.1301 35.0177 22.1301C35.1252 22.1301 35.2136 22.1494 35.2831 22.1752C35.3463 22.2012 35.3968 22.2336 35.4286 22.2723C35.4666 22.3112 35.4855 22.363 35.4981 22.4212C35.5043 22.4598 35.5109 22.531 35.5109 22.6283V22.9194C35.5109 23.1263 35.5169 23.2623 35.5235 23.3141C35.5298 23.3656 35.5486 23.4238 35.5804 23.4692H35.3528C35.3274 23.4238 35.3148 23.3723 35.3085 23.3074C35.2264 23.3787 35.1504 23.4305 35.0746 23.4563C35.0366 23.4692 34.9986 23.4823 34.9608 23.4887C34.9228 23.495 34.8785 23.5016 34.8407 23.5016C34.6952 23.5016 34.5877 23.4627 34.5117 23.3981C34.4359 23.327 34.3979 23.2363 34.3979 23.1263C34.3979 23.0616 34.417 23.0034 34.4422 22.9516C34.4739 22.8998 34.5117 22.8545 34.556 22.8223C34.6003 22.7898 34.6509 22.7641 34.7141 22.7512C34.7521 22.7381 34.8153 22.7252 34.9039 22.7187C34.9228 22.7123 34.9417 22.7123 34.9608 22.7123ZM34.9608 23.3205C35.0177 23.3141 35.0681 23.2945 35.1124 23.2687C35.1758 23.2363 35.2264 23.1845 35.2579 23.1198C35.2768 23.0681 35.2896 22.9905 35.2896 22.8934V22.8158C35.2136 22.8481 35.1061 22.8741 34.9608 22.8934C34.9545 22.8934 34.948 22.8998 34.9354 22.8998C34.8468 22.9127 34.7836 22.9256 34.7458 22.9452C34.7078 22.9581 34.6824 22.9841 34.6635 23.0163C34.6446 23.0487 34.632 23.081 34.632 23.1198C34.632 23.1781 34.6572 23.2298 34.6952 23.2687C34.7395 23.3074 34.8027 23.327 34.8911 23.327C34.9165 23.327 34.9354 23.327 34.9608 23.3205ZM38.5455 21.6641H38.5835C38.7162 21.6641 38.8237 21.6836 38.9058 21.7223C38.9881 21.7547 39.0513 21.813 39.0956 21.8905C39.1462 21.9616 39.1651 22.0458 39.1651 22.1301C39.1651 22.2012 39.1462 22.2787 39.1082 22.3434C39.0639 22.4147 39.0007 22.4663 38.9186 22.5116C39.0261 22.5441 39.1082 22.5958 39.1651 22.6734C39.2222 22.7512 39.2537 22.8416 39.2537 22.9452C39.2537 23.0292 39.2348 23.1134 39.2031 23.1845C39.1651 23.2556 39.1208 23.3141 39.0704 23.3527C39.0198 23.3916 38.9564 23.4174 38.8806 23.4434C38.7985 23.4627 38.7036 23.4692 38.5898 23.4692H38.5455H37.9197V21.6641H38.5455ZM38.5455 22.4212C38.6404 22.4212 38.7162 22.4147 38.7605 22.4016C38.8174 22.3823 38.8617 22.3565 38.8932 22.3112C38.9249 22.2723 38.9375 22.2205 38.9375 22.1558C38.9375 22.0976 38.9249 22.0394 38.8932 21.9941C38.868 21.9487 38.8237 21.923 38.7731 21.9034C38.7288 21.8905 38.653 21.8776 38.5455 21.8776C38.533 21.8776 38.5201 21.8776 38.5075 21.8776H38.1536V22.4212H38.533C38.5392 22.4212 38.5392 22.4212 38.5455 22.4212ZM38.5455 23.2556H38.5898C38.6656 23.2556 38.7225 23.2556 38.7542 23.2492C38.8048 23.2363 38.8491 23.2234 38.8869 23.1976C38.9249 23.1781 38.9503 23.1458 38.9755 23.1005C39.0007 23.0552 39.0135 23.0034 39.0135 22.9452C39.0135 22.8805 38.9944 22.8223 38.9629 22.7705C38.9249 22.7187 38.8806 22.6863 38.8174 22.667C38.7605 22.6476 38.6719 22.6345 38.5647 22.6345H38.5455H38.1536V23.2556H38.5455ZM40.9166 23.4692V22.1623H41.1125V22.3498C41.2074 22.2076 41.3403 22.1301 41.5173 22.1301C41.5993 22.1301 41.6688 22.1494 41.732 22.1752C41.7954 22.2012 41.8458 22.2398 41.8775 22.2852C41.9092 22.3305 41.9344 22.3887 41.947 22.4534C41.9533 22.4923 41.9596 22.5634 41.9596 22.667V23.4692H41.7385V22.6734C41.7385 22.5827 41.732 22.5181 41.7131 22.473C41.7005 22.4276 41.6688 22.3887 41.6245 22.363C41.5804 22.337 41.5299 22.3241 41.4729 22.3241C41.3843 22.3241 41.3023 22.3565 41.2325 22.4147C41.1693 22.473 41.1316 22.5894 41.1316 22.7576V23.4692H40.9166ZM40.0314 22.7123C40.1767 22.6927 40.2905 22.667 40.3602 22.6412C40.3665 22.6087 40.3665 22.5894 40.3665 22.5827C40.3665 22.4923 40.3411 22.4276 40.3033 22.3887C40.2464 22.3434 40.1641 22.3176 40.0568 22.3176C40.0503 22.3176 40.0377 22.3176 40.0314 22.3176C39.9428 22.3176 39.8733 22.337 39.829 22.3694C39.7784 22.4081 39.7469 22.473 39.7215 22.5634L39.5128 22.5376C39.5319 22.4405 39.5634 22.3694 39.6077 22.3112C39.652 22.253 39.7152 22.2076 39.7975 22.1816C39.867 22.1558 39.9428 22.1365 40.0314 22.1365C40.0503 22.1301 40.0694 22.1301 40.0883 22.1301C40.1958 22.1301 40.2842 22.1494 40.3539 22.1752C40.4234 22.2012 40.474 22.2336 40.5057 22.2723C40.5372 22.3112 40.5561 22.363 40.5689 22.4212C40.575 22.4598 40.5815 22.531 40.5815 22.6283V22.9194C40.5815 23.1263 40.5878 23.2623 40.5941 23.3141C40.6067 23.3656 40.6256 23.4238 40.651 23.4692H40.4234C40.4045 23.4238 40.3854 23.3723 40.3791 23.3074C40.3033 23.3787 40.221 23.4305 40.1515 23.4563C40.1135 23.4692 40.0755 23.4823 40.0314 23.4887C39.9934 23.495 39.9491 23.5016 39.9113 23.5016C39.7721 23.5016 39.6646 23.4627 39.5888 23.3981C39.5128 23.327 39.475 23.2363 39.475 23.1263C39.475 23.0616 39.4876 23.0034 39.5128 22.9516C39.5445 22.8998 39.5825 22.8545 39.6266 22.8223C39.6711 22.7898 39.7278 22.7641 39.7849 22.7512C39.8227 22.7381 39.8922 22.7252 39.9745 22.7187C39.9934 22.7123 40.0123 22.7123 40.0314 22.7123ZM40.0314 23.3205C40.0883 23.3141 40.1387 23.2945 40.1832 23.2687C40.2464 23.2363 40.297 23.1845 40.3285 23.1198C40.3539 23.0681 40.3602 22.9905 40.3602 22.8934V22.8158C40.2905 22.8481 40.1767 22.8741 40.0314 22.8934C40.0251 22.8934 40.0188 22.8998 40.0062 22.8998C39.9176 22.9127 39.8544 22.9256 39.8227 22.9452C39.7849 22.9581 39.7532 22.9841 39.7343 23.0163C39.7152 23.0487 39.7026 23.081 39.7026 23.1198C39.7026 23.1781 39.7278 23.2298 39.7721 23.2687C39.8101 23.3074 39.8796 23.327 39.9619 23.327C39.9871 23.327 40.0123 23.327 40.0314 23.3205ZM42.7816 23.2881C42.8765 23.2881 42.9649 23.2492 43.0283 23.1716C43.0978 23.0941 43.1295 22.971 43.1295 22.803C43.1295 22.6412 43.0978 22.5181 43.0283 22.4405C42.9588 22.3565 42.8765 22.3176 42.7816 22.3176C42.7753 22.3176 42.7753 22.3176 42.7753 22.3176C42.6804 22.3176 42.5983 22.3565 42.5288 22.4341C42.4591 22.5181 42.4276 22.6345 42.4276 22.7963C42.4276 22.9645 42.4591 23.0876 42.5288 23.1716C42.5983 23.2492 42.6804 23.2881 42.7816 23.2881ZM42.7816 23.8185C42.8702 23.8121 42.9334 23.7927 42.984 23.7538C43.0409 23.715 43.0789 23.657 43.0978 23.5856C43.1104 23.5403 43.1104 23.4434 43.1104 23.3012C43.022 23.411 42.9145 23.4627 42.7816 23.4692C42.7753 23.4692 42.7627 23.4692 42.7564 23.4692C42.5794 23.4692 42.4465 23.4045 42.3518 23.2752C42.2569 23.1458 42.2063 22.9905 42.2063 22.8092C42.2063 22.6863 42.2252 22.5698 42.2695 22.4663C42.3138 22.3565 42.3833 22.2787 42.4654 22.2205C42.5477 22.1623 42.6489 22.1301 42.7627 22.1301C42.769 22.1301 42.7753 22.1301 42.7816 22.1301C42.9208 22.1365 43.0409 22.2012 43.1358 22.3176V22.1623H43.3317V23.2945C43.3317 23.495 43.3128 23.6438 43.2748 23.7281C43.2305 23.8121 43.1673 23.8767 43.0789 23.9285C42.9966 23.9741 42.8954 23.9998 42.7816 23.9998C42.769 23.9998 42.7627 23.9998 42.7564 23.9998C42.6046 23.9998 42.4782 23.9674 42.3833 23.8963C42.2886 23.825 42.2443 23.7216 42.2506 23.5792L42.4591 23.6116C42.4719 23.6763 42.4908 23.7281 42.5351 23.7538C42.5857 23.7992 42.6615 23.8185 42.7564 23.8185C42.7627 23.8185 42.769 23.8185 42.7816 23.8185Z" fill="#007697"/>
</g>
<defs>
<clipPath id="clip0_742_17512">
<rect width="42" height="16" fill="white" transform="translate(4 8)"/>
</clipPath>
</defs>
</svg>
