<svg width="50" height="32" viewBox="0 0 50 32" fill="none" xmlns="http://www.w3.org/2000/svg">
<rect width="50" height="32" rx="4" fill="white"/>
<path fill-rule="evenodd" clip-rule="evenodd" d="M15.7552 6.44718C15.7552 5.09556 16.879 4 18.2653 4H30.75C32.1364 4 33.2598 5.09556 33.2598 6.44718V18.619C33.2598 19.9703 32.1364 21.0659 30.75 21.0659H18.2653C16.879 21.0659 15.7552 19.9703 15.7552 18.619V6.44718ZM18.8091 19.3939C18.0697 19.3939 17.4706 18.8094 17.4706 18.0886V6.98129C17.4706 6.26047 18.0697 5.67635 18.8091 5.67635H20.336C22.3479 5.67635 23.8379 7.66376 22.551 8.92036L18.8176 12.5651L22.0217 15.8375C23.5753 17.4241 21.7559 19.3939 20.0324 19.3939H18.8091ZM23.6543 5.67635H24.9446C26.9564 5.67635 28.4468 7.66376 27.1596 8.92036L23.4262 12.5651L30.2897 19.3912L23.0466 19.3899C24.6029 19.3899 25.5854 16.8373 23.9197 15.1467L21.3763 12.5651L24.3372 9.5895C25.9315 7.98683 24.7746 5.9254 23.6543 5.67635ZM31.5431 18.0886L25.9852 12.5651L28.9461 9.5895C30.5404 7.98683 29.3832 5.9254 28.2628 5.67635H30.2022C30.9416 5.67635 31.5407 6.26047 31.5407 6.98129L31.5431 18.0886ZM11.133 26.2243V27.2188H11.5885C11.8248 27.2188 12.004 27.1758 12.1261 27.0895C12.2485 27.0031 12.3094 26.8774 12.3094 26.7127C12.3094 26.55 12.2537 26.4277 12.1415 26.3463C12.0297 26.265 11.8624 26.2243 11.6405 26.2243H11.133ZM11.133 24.5279V25.4738H11.4845C11.7294 25.4738 11.9124 25.4335 12.0338 25.3528C12.1548 25.2724 12.2157 25.1494 12.2157 24.9844C12.2157 24.8353 12.1586 24.722 12.0444 24.6443C11.9301 24.5666 11.7619 24.5279 11.5396 24.5279H11.133ZM10 23.7651H11.7783C12.3039 23.7651 12.6989 23.8571 12.964 24.0412C13.2286 24.2249 13.361 24.4986 13.361 24.8623C13.361 25.1067 13.2919 25.3101 13.1531 25.4721C13.0146 25.6338 12.8128 25.7505 12.5481 25.8222C12.8453 25.8759 13.0741 25.9896 13.2338 26.1636C13.3938 26.337 13.4738 26.559 13.4738 26.8291C13.4738 27.2265 13.3282 27.5209 13.0368 27.7126C12.7454 27.9043 12.2964 28 11.6894 28H10V23.7651V23.7651ZM15.9539 24.7096L15.3917 26.2976H16.498L15.9539 24.7096ZM15.2785 23.7651H16.6755L18.3197 28H17.0821L16.7733 27.1031H15.1013L14.7775 28H13.6318L15.2785 23.7651ZM18.5704 23.7651H20.0156L21.2738 26.3043C21.3165 26.3897 21.3664 26.5084 21.4232 26.6604C21.4803 26.8124 21.5436 26.9988 21.6127 27.2192C21.5761 27.0105 21.549 26.8188 21.5316 26.6441C21.5145 26.4693 21.5056 26.3093 21.5056 26.1643V23.7651H22.551V28H21.1117L19.8049 25.3685C19.7437 25.2474 19.6876 25.1157 19.637 24.9737C19.5861 24.8317 19.5392 24.6773 19.4965 24.5103C19.5372 24.7627 19.5669 24.9944 19.5864 25.2061C19.6059 25.4175 19.6155 25.6038 19.6155 25.7649V28H18.5704V23.7651ZM23.3732 23.7651H24.5311V25.5952L25.8761 23.7651H27.1722L25.5766 25.7112L27.335 28H25.8963L24.5311 26.0363V28H23.3732V23.7651ZM30.7049 26.2243V27.2188H31.1604C31.3967 27.2188 31.5759 27.1758 31.698 27.0895C31.8204 27.0031 31.8813 26.8774 31.8813 26.7127C31.8813 26.55 31.8256 26.4277 31.7134 26.3463C31.6012 26.265 31.4344 26.2243 31.2124 26.2243H30.7049ZM30.7049 24.5279V25.4738H31.0565C31.3013 25.4738 31.4843 25.4335 31.6053 25.3528C31.7267 25.2724 31.7876 25.1494 31.7876 24.9844C31.7876 24.8353 31.7305 24.722 31.6163 24.6443C31.5021 24.5666 31.3338 24.5279 31.1115 24.5279H30.7049ZM29.5719 23.7651H31.3502C31.8755 23.7651 32.2708 23.8571 32.5355 24.0412C32.8006 24.2249 32.9329 24.4986 32.9329 24.8623C32.9329 25.1067 32.8635 25.3101 32.725 25.4721C32.5865 25.6338 32.3847 25.7505 32.1197 25.8222C32.4172 25.8759 32.6456 25.9896 32.8057 26.1636C32.9657 26.337 33.0454 26.559 33.0454 26.8291C33.0454 27.2265 32.9001 27.5209 32.6087 27.7126C32.3173 27.9043 31.8683 28 31.2613 28H29.5719V23.7651ZM34.8624 24.5096V25.5958H35.2686C35.5193 25.5958 35.7071 25.5515 35.8322 25.4631C35.9577 25.3745 36.0203 25.2418 36.0203 25.0647C36.0203 24.8737 35.9506 24.7337 35.811 24.644C35.6715 24.5543 35.4509 24.5096 35.1496 24.5096H34.8624ZM33.7294 23.7651H35.455C36.0302 23.7651 36.457 23.8561 36.7354 24.0378C37.0138 24.2199 37.153 24.4966 37.153 24.868C37.153 25.1424 37.0798 25.3681 36.9327 25.5448C36.7857 25.7219 36.5733 25.8399 36.296 25.8996C36.5244 25.9809 36.708 26.2123 36.8469 26.5937L37.3657 28H36.1581L35.7758 26.8411C35.7146 26.6544 35.6311 26.525 35.5251 26.4537C35.4195 26.382 35.2543 26.3463 35.0303 26.3463H34.8624V28H33.7294V23.7651ZM37.8421 23.7651H39V28H37.8421V23.7651Z" fill="#1F4396"/>
</svg>
