<svg width="50" height="32" viewBox="0 0 50 32" fill="none" xmlns="http://www.w3.org/2000/svg">
<rect width="50" height="32" rx="4" fill="white"/>
<path d="M18.0273 12.2305V20.634H20.0439V14.336C20.0439 13.8656 19.7878 12.4446 18.0273 12.2305Z" fill="#0CA49D"/>
<path d="M7.30808 19.1718C7.56454 19.1718 7.77417 19.1399 7.93704 19.0762C8.09972 19.0124 8.22705 18.9299 8.3191 18.8286C8.4109 18.7274 8.47402 18.613 8.50853 18.4854C8.54297 18.3581 8.56017 18.2287 8.56017 18.0974C8.56017 17.9474 8.54009 17.8124 8.4998 17.6923C8.45978 17.5723 8.39075 17.4712 8.29306 17.3886C8.19555 17.3061 8.06623 17.2423 7.90542 17.1973C7.7446 17.1524 7.54164 17.1298 7.29653 17.1298H5.94122V19.1718H7.30808ZM5.94122 13.8334V15.8585H6.95206C7.16637 15.8585 7.35984 15.8435 7.53214 15.8135C7.70431 15.7835 7.85089 15.731 7.97142 15.6559C8.09196 15.581 8.18401 15.4779 8.24713 15.3466C8.31025 15.2153 8.34194 15.0503 8.34194 14.8516C8.34194 14.6566 8.31698 14.4944 8.26727 14.365C8.21743 14.2356 8.14084 14.1316 8.03749 14.0527C7.93415 13.974 7.80291 13.9178 7.64414 13.884C7.48525 13.8502 7.29653 13.8334 7.07843 13.8334H5.94122ZM7.07843 12.4102C7.65652 12.4102 8.1486 12.4628 8.55446 12.5677C8.96019 12.6728 9.29151 12.8208 9.5481 13.0121C9.8045 13.2034 9.9911 13.4359 10.108 13.7096C10.2247 13.9834 10.2832 14.289 10.2832 14.6266C10.2832 14.8103 10.2563 14.9876 10.2029 15.1581C10.1492 15.3289 10.0649 15.4881 9.95005 15.6362C9.83516 15.7845 9.68775 15.9204 9.50781 16.0442C9.32775 16.1679 9.11158 16.2748 8.8589 16.3647C9.41012 16.496 9.81797 16.7078 10.0821 17.0004C10.3463 17.2929 10.4786 17.6717 10.4786 18.1367C10.4786 18.4854 10.4096 18.81 10.2717 19.1099C10.1339 19.41 9.93176 19.6715 9.66568 19.8946C9.39966 20.1178 9.07129 20.2921 8.6807 20.4178C8.2903 20.5435 7.84415 20.6062 7.34265 20.6062H4V12.4102H7.07843Z" fill="#0CA49D"/>
<path d="M16.3139 14.0754C16.2564 14.1655 16.1963 14.2329 16.1329 14.2779C16.0698 14.3229 15.9885 14.3454 15.8889 14.3454C15.8008 14.3454 15.7061 14.3182 15.6046 14.2639C15.5032 14.2095 15.3883 14.1486 15.2601 14.0811C15.1318 14.0136 14.9853 13.9526 14.8207 13.8982C14.6561 13.8438 14.4684 13.8167 14.2577 13.8167C13.894 13.8167 13.6231 13.8926 13.4451 14.0445C13.2671 14.1963 13.178 14.4017 13.178 14.6605C13.178 14.8256 13.2317 14.9624 13.3388 15.0711C13.4459 15.1799 13.5868 15.2737 13.7611 15.3524C13.9353 15.4311 14.1344 15.5034 14.3584 15.569C14.5823 15.6346 14.8111 15.7078 15.0446 15.7883C15.2782 15.869 15.5071 15.9637 15.731 16.0724C15.955 16.1812 16.1542 16.3199 16.3283 16.4887C16.5026 16.6575 16.6432 16.8628 16.7504 17.1046C16.8575 17.3465 16.9112 17.6382 16.9112 17.9793C16.9112 18.3583 16.8443 18.7126 16.7103 19.0425C16.5762 19.3726 16.3818 19.6605 16.1273 19.906C15.8726 20.1518 15.5587 20.3448 15.1855 20.4854C14.8121 20.6261 14.3879 20.6964 13.9133 20.6964C13.6529 20.6964 13.3876 20.6701 13.1178 20.6177C12.8478 20.5652 12.5866 20.4911 12.3339 20.3954C12.0811 20.2998 11.8437 20.1864 11.6217 20.0551C11.3994 19.9239 11.2061 19.7776 11.0415 19.6163L11.6158 18.7275C11.6619 18.6637 11.722 18.6104 11.7967 18.5673C11.8714 18.5241 11.9527 18.5026 12.041 18.5026C12.1557 18.5026 12.2714 18.5382 12.3884 18.6094C12.5052 18.6807 12.6372 18.7594 12.7847 18.8457C12.9321 18.932 13.1015 19.0107 13.2929 19.082C13.4843 19.1532 13.7103 19.1888 13.9707 19.1888C14.3229 19.1888 14.5967 19.1129 14.792 18.9611C14.9872 18.8091 15.0848 18.5682 15.0848 18.2382C15.0848 18.0469 15.0311 17.8913 14.9241 17.7712C14.8169 17.6513 14.676 17.5519 14.502 17.473C14.3275 17.3943 14.1294 17.3249 13.9074 17.265C13.6854 17.2051 13.4575 17.1384 13.2241 17.0652C12.9904 16.9921 12.7626 16.9022 12.5406 16.7953C12.3184 16.6884 12.1202 16.5478 11.9462 16.3734C11.7718 16.199 11.6311 15.9815 11.524 15.7208C11.4168 15.4602 11.3631 15.1386 11.3631 14.7561C11.3631 14.4487 11.4263 14.1486 11.5527 13.856C11.6791 13.5635 11.8647 13.3029 12.1097 13.0742C12.3549 12.8455 12.6555 12.6626 13.0115 12.5256C13.3675 12.3888 13.7753 12.3203 14.2349 12.3203C14.4913 12.3203 14.7412 12.3401 14.9844 12.3795C15.2274 12.4187 15.4582 12.477 15.6765 12.5538C15.8948 12.6307 16.0986 12.7226 16.2881 12.8295C16.4777 12.9364 16.647 13.0573 16.7963 13.1923L16.3139 14.0754Z" fill="#0CA49D"/>
<path d="M20.2653 9.20303C20.2608 9.13433 20.2528 9.06669 20.2423 9C20.6935 9.45616 21.3379 9.72355 22.0357 9.68037C22.3695 9.65962 22.6817 9.56961 22.9595 9.42611C22.7437 9.79496 22.6318 10.2276 22.6613 10.6836C22.6977 11.248 22.9443 11.7501 23.3211 12.1226C23.1284 12.0846 22.9276 12.0699 22.722 12.0828C21.9055 12.1333 21.2164 12.5964 20.8515 13.2515C20.7074 12.2832 19.9407 11.5305 18.9819 11.3649C19.792 10.9771 20.3257 10.139 20.2653 9.20303Z" fill="#F9AD3C"/>
<path d="M23.725 17.2811C23.8175 17.2811 23.8971 17.2708 23.9639 17.25C24.0308 17.2293 24.0853 17.2004 24.1277 17.1633C24.1711 17.1251 24.2029 17.0803 24.2229 17.029C24.243 16.9767 24.253 16.9194 24.253 16.8572C24.253 16.7361 24.209 16.6406 24.1209 16.5707C24.033 16.4998 23.9011 16.4643 23.725 16.4643H23.2072V17.2811H23.725ZM23.2072 15.4379V16.2384H23.6348C23.7262 16.2384 23.8052 16.2286 23.8721 16.2089C23.94 16.1893 23.9957 16.162 24.0391 16.1271C24.0837 16.0921 24.1165 16.0502 24.1377 16.0011C24.1589 15.9508 24.1694 15.8963 24.1694 15.8374C24.1694 15.6988 24.1271 15.5978 24.0424 15.5345C23.9578 15.4701 23.8264 15.4379 23.6482 15.4379H23.2072ZM23.6482 15.1875C23.7952 15.1875 23.9216 15.2016 24.0274 15.2301C24.1344 15.2584 24.2218 15.2988 24.2897 15.3512C24.3587 15.4035 24.4094 15.468 24.4417 15.5443C24.474 15.6196 24.4902 15.7048 24.4902 15.7997C24.4902 15.8576 24.4807 15.9132 24.4618 15.9667C24.4439 16.019 24.4167 16.0682 24.3799 16.114C24.3432 16.1598 24.2964 16.2013 24.2396 16.2384C24.1839 16.2744 24.1182 16.3039 24.0424 16.3268C24.2185 16.3595 24.3504 16.4212 24.4384 16.5118C24.5274 16.6013 24.572 16.7191 24.572 16.8653C24.572 16.9647 24.5531 17.0552 24.5152 17.1371C24.4785 17.2189 24.4239 17.2893 24.3515 17.3483C24.2802 17.4072 24.1923 17.453 24.0876 17.4857C23.9829 17.5174 23.8637 17.5332 23.73 17.5332H22.8848V15.1875H23.6482Z" fill="#0CA49D"/>
<path d="M26.2833 16.6624L25.9074 15.708C25.8963 15.6797 25.8846 15.6469 25.8723 15.6098C25.8601 15.5716 25.8484 15.5313 25.8373 15.4887C25.8139 15.5771 25.7899 15.6508 25.7654 15.7097L25.3895 16.6624H26.2833ZM26.9582 17.5332H26.7076C26.6786 17.5332 26.6553 17.5262 26.6375 17.512C26.6196 17.4978 26.6063 17.4798 26.5974 17.4579L26.3735 16.8916H25.2993L25.0755 17.4579C25.0688 17.4776 25.056 17.4951 25.037 17.5103C25.0181 17.5256 24.9947 17.5332 24.9669 17.5332H24.7163L25.6735 15.1875H26.001L26.9582 17.5332Z" fill="#0CA49D"/>
<path d="M29.2129 15.1875V17.5332H29.0509C29.0252 17.5332 29.0036 17.5289 28.9857 17.5201C28.969 17.5114 28.9523 17.4967 28.9356 17.4759L27.5507 15.708C27.5529 15.7353 27.5546 15.7621 27.5557 15.7882C27.5568 15.8144 27.5574 15.839 27.5574 15.8619V17.5332H27.2734V15.1875H27.4405C27.4549 15.1875 27.4672 15.1886 27.4772 15.1908C27.4872 15.1918 27.4962 15.1946 27.5039 15.1989C27.5117 15.2022 27.5195 15.2077 27.5273 15.2153C27.5352 15.2219 27.5435 15.2306 27.5524 15.2415L28.9373 17.0078C28.935 16.9794 28.9328 16.9521 28.9306 16.9259C28.9295 16.8987 28.9289 16.873 28.9289 16.849V15.1875H29.2129Z" fill="#0CA49D"/>
<path d="M30.1472 16.2155H30.2691C30.3114 16.2155 30.3454 16.2106 30.371 16.2008C30.3966 16.1898 30.42 16.1718 30.4412 16.1468L31.238 15.2628C31.2603 15.2344 31.2837 15.2148 31.3082 15.2038C31.3327 15.193 31.3628 15.1875 31.3984 15.1875H31.6723L30.7602 16.1975C30.738 16.2237 30.7162 16.2455 30.6951 16.263C30.675 16.2793 30.6534 16.293 30.6299 16.3039C30.66 16.3137 30.6873 16.3284 30.7118 16.3481C30.7363 16.3666 30.7602 16.3912 30.7836 16.4218L31.7358 17.5332H31.4552C31.434 17.5332 31.4157 17.5321 31.4001 17.5299C31.3856 17.5267 31.3728 17.5223 31.3617 17.5169C31.3505 17.5103 31.3405 17.5032 31.3316 17.4956C31.3238 17.4869 31.316 17.477 31.3082 17.4661L30.4829 16.5347C30.4607 16.5074 30.4367 16.4883 30.4111 16.4774C30.3855 16.4654 30.3465 16.4594 30.2941 16.4594H30.1472V17.5332H29.8247V15.1875H30.1472V16.2155Z" fill="#0CA49D"/>
<path d="M34.1163 15.5569C34.1062 15.5733 34.0951 15.5858 34.0828 15.5946C34.0717 15.6022 34.0578 15.6061 34.0411 15.6061C34.0221 15.6061 33.9999 15.5968 33.9742 15.5782C33.9486 15.5597 33.9164 15.5394 33.8774 15.5176C33.8395 15.4948 33.7933 15.474 33.7387 15.4555C33.6852 15.4369 33.6201 15.4276 33.5433 15.4276C33.4709 15.4276 33.4068 15.4374 33.3512 15.4571C33.2966 15.4756 33.2503 15.5013 33.2125 15.534C33.1757 15.5667 33.1479 15.6055 33.129 15.6503C33.11 15.6939 33.1005 15.7413 33.1005 15.7926C33.1005 15.8581 33.1167 15.9127 33.149 15.9564C33.1824 15.9989 33.2258 16.0355 33.2793 16.066C33.3339 16.0966 33.3951 16.1233 33.463 16.1462C33.5321 16.1681 33.6023 16.191 33.6736 16.215C33.7459 16.239 33.8161 16.2663 33.884 16.2968C33.9531 16.3263 34.0144 16.3639 34.0678 16.4098C34.1224 16.4556 34.1658 16.5118 34.1981 16.5784C34.2315 16.645 34.2482 16.7268 34.2482 16.8239C34.2482 16.9265 34.2304 17.0231 34.1948 17.1136C34.1592 17.2032 34.1068 17.2812 34.0377 17.3478C33.9698 17.4144 33.8857 17.4667 33.7855 17.5049C33.6863 17.5431 33.5733 17.5622 33.4464 17.5622C33.2904 17.5622 33.149 17.5349 33.022 17.4804C32.8951 17.4247 32.7865 17.3499 32.6963 17.2561L32.7898 17.1055C32.7987 17.0935 32.8093 17.0837 32.8216 17.076C32.8349 17.0673 32.8494 17.0629 32.865 17.0629C32.8795 17.0629 32.8957 17.069 32.9134 17.081C32.9324 17.0918 32.9536 17.106 32.9769 17.1235C33.0003 17.141 33.027 17.16 33.0571 17.1808C33.0872 17.2015 33.1211 17.2206 33.159 17.2381C33.198 17.2555 33.242 17.2703 33.291 17.2823C33.34 17.2932 33.3951 17.2986 33.4564 17.2986C33.5332 17.2986 33.6017 17.2883 33.6619 17.2675C33.722 17.2468 33.7727 17.2179 33.8139 17.1808C33.8562 17.1426 33.8885 17.0973 33.9108 17.0449C33.933 16.9925 33.9442 16.9341 33.9442 16.8698C33.9442 16.7989 33.9275 16.741 33.894 16.6963C33.8618 16.6504 33.8189 16.6122 33.7654 16.5817C33.712 16.5511 33.6507 16.5255 33.5816 16.5047C33.5126 16.4829 33.4424 16.4611 33.3712 16.4392C33.2999 16.4163 33.2297 16.3902 33.1607 16.3607C33.0916 16.3312 33.0304 16.293 32.9769 16.2461C32.9235 16.1992 32.8801 16.1408 32.8466 16.071C32.8143 16 32.7982 15.9127 32.7982 15.809C32.7982 15.7261 32.8143 15.6459 32.8466 15.5684C32.8801 15.4909 32.9279 15.4222 32.9903 15.3621C33.0538 15.3021 33.1312 15.2541 33.2225 15.2181C33.3149 15.1821 33.4208 15.1641 33.5399 15.1641C33.6736 15.1641 33.7949 15.1848 33.9041 15.2263C34.0144 15.2677 34.1112 15.3277 34.1948 15.4063L34.1163 15.5569Z" fill="#0CA49D"/>
<path d="M35.5556 16.5985V17.5332H35.2315V16.5985L34.3545 15.1875H34.6385C34.6674 15.1875 34.6902 15.1946 34.707 15.2087C34.7237 15.2219 34.7382 15.2393 34.7504 15.2612L35.2983 16.1729C35.3184 16.2111 35.3368 16.2471 35.3535 16.281C35.3702 16.3137 35.3846 16.347 35.3969 16.3808C35.4091 16.347 35.4231 16.3137 35.4386 16.281C35.4543 16.2471 35.4715 16.2111 35.4905 16.1729L36.0367 15.2612C36.0468 15.2426 36.0607 15.2257 36.0785 15.2104C36.0963 15.1951 36.1191 15.1875 36.147 15.1875H36.4327L35.5556 16.5985Z" fill="#0CA49D"/>
<path d="M37.7784 16.6624L37.4025 15.708C37.3914 15.6797 37.3797 15.6469 37.3675 15.6098C37.3552 15.5716 37.3435 15.5313 37.3324 15.4887C37.309 15.5771 37.2851 15.6508 37.2606 15.7097L36.8847 16.6624H37.7784ZM38.4533 17.5332H38.2028C38.1738 17.5332 38.1504 17.5262 38.1326 17.512C38.1147 17.4978 38.1014 17.4798 38.0925 17.4579L37.8686 16.8916H36.7945L36.5706 17.4579C36.5639 17.4776 36.5511 17.4951 36.5322 17.5103C36.5132 17.5256 36.4899 17.5332 36.462 17.5332H36.2114L37.1686 15.1875H37.4961L38.4533 17.5332Z" fill="#0CA49D"/>
<path d="M39.4313 16.3235C39.5248 16.3235 39.6072 16.3126 39.6785 16.2908C39.7509 16.2679 39.811 16.2362 39.8589 16.1959C39.9079 16.1544 39.9447 16.1053 39.9692 16.0485C39.9937 15.9918 40.0059 15.929 40.0059 15.8603C40.0059 15.7206 39.9592 15.6152 39.8656 15.5443C39.772 15.4734 39.6317 15.4379 39.4446 15.4379H39.0905V16.3235H39.4313ZM40.5372 17.5332H40.2498C40.1908 17.5332 40.1474 17.5108 40.1195 17.4661L39.4981 16.628C39.4791 16.6018 39.4585 16.5832 39.4363 16.5724C39.4151 16.5604 39.3817 16.5543 39.336 16.5543H39.0905V17.5332H38.7681V15.1875H39.4446C39.5961 15.1875 39.7269 15.2028 39.8372 15.2333C39.9475 15.2628 40.0382 15.3059 40.1095 15.3626C40.1819 15.4194 40.2354 15.4881 40.2699 15.5689C40.3044 15.6486 40.3216 15.7381 40.3216 15.8374C40.3216 15.9203 40.3083 15.9978 40.2816 16.0698C40.2548 16.1418 40.2159 16.2067 40.1646 16.2646C40.1145 16.3213 40.0527 16.3699 39.9792 16.4103C39.9068 16.4507 39.8244 16.4812 39.7319 16.502C39.7732 16.5249 39.8088 16.5582 39.8389 16.6018L40.5372 17.5332Z" fill="#0CA49D"/>
<path d="M41.1864 17.5332H40.8628V15.1875H41.1864V17.5332Z" fill="#0CA49D"/>
<path d="M43.0704 16.6624L42.6945 15.708C42.6834 15.6797 42.6717 15.6469 42.6595 15.6098C42.6472 15.5716 42.6355 15.5313 42.6244 15.4887C42.601 15.5771 42.5771 15.6508 42.5525 15.7097L42.1766 16.6624H43.0704ZM43.7453 17.5332H43.4947C43.4657 17.5332 43.4424 17.5262 43.4246 17.512C43.4067 17.4978 43.3934 17.4798 43.3845 17.4579L43.1606 16.8916H42.0865L41.8626 17.4579C41.8559 17.4776 41.8431 17.4951 41.8242 17.5103C41.8052 17.5256 41.7818 17.5332 41.754 17.5332H41.5034L42.4606 15.1875H42.7881L43.7453 17.5332Z" fill="#0CA49D"/>
<path d="M46 15.1875V17.5332H45.6759V16.466H44.3846V17.5332H44.0605V15.1875H44.3846V16.2335H45.6759V15.1875H46Z" fill="#0CA49D"/>
<path d="M23.2084 20.627H22.8848V18.2812H23.2084V20.627Z" fill="#0CA49D"/>
<path d="M25.7608 18.2812V20.627H25.5988C25.5732 20.627 25.5514 20.6227 25.5336 20.6139C25.5169 20.6052 25.5002 20.5904 25.4835 20.5698L24.0986 18.8018C24.1008 18.8291 24.1025 18.8558 24.1036 18.882C24.1048 18.9082 24.1053 18.9328 24.1053 18.9557V20.627H23.8213V18.2812H23.9883C24.0028 18.2812 24.0151 18.2824 24.0251 18.2846C24.0351 18.2856 24.044 18.2884 24.0518 18.2928C24.0596 18.296 24.0674 18.3015 24.0752 18.3091C24.083 18.3156 24.0913 18.3244 24.1003 18.3353L25.4851 20.1015C25.483 20.0732 25.4807 20.0459 25.4785 20.0197C25.4774 19.9924 25.4768 19.9668 25.4768 19.9428V18.2812H25.7608Z" fill="#0CA49D"/>
<path d="M28.4479 19.455C28.4479 19.6307 28.4195 19.7905 28.3627 19.9346C28.3059 20.0787 28.2257 20.202 28.1221 20.3046C28.0186 20.4071 27.8938 20.4868 27.7479 20.5435C27.6031 20.5992 27.4428 20.627 27.2668 20.627H26.373V18.2812H27.2668C27.4428 18.2812 27.6031 18.3097 27.7479 18.3664C27.8938 18.422 28.0186 18.5017 28.1221 18.6054C28.2257 18.708 28.3059 18.8313 28.3627 18.9753C28.4195 19.1194 28.4479 19.2793 28.4479 19.455ZM28.1154 19.455C28.1154 19.3109 28.0954 19.1821 28.0553 19.0687C28.0152 18.9551 27.9584 18.8591 27.8849 18.7805C27.8114 18.702 27.7223 18.6419 27.6176 18.6005C27.5129 18.559 27.396 18.5383 27.2668 18.5383H26.6971V20.37H27.2668C27.396 20.37 27.5129 20.3493 27.6176 20.3078C27.7223 20.2663 27.8114 20.2069 27.8849 20.1294C27.9584 20.0508 28.0152 19.9548 28.0553 19.8413C28.0954 19.7278 28.1154 19.599 28.1154 19.455Z" fill="#0CA49D"/>
<path d="M31.1262 19.4538C31.1262 19.6295 31.0978 19.791 31.0409 19.9383C30.9842 20.0846 30.904 20.2106 30.8004 20.3164C30.6968 20.4223 30.5721 20.5047 30.4262 20.5636C30.2814 20.6215 30.1211 20.6504 29.9451 20.6504C29.7691 20.6504 29.6087 20.6215 29.4639 20.5636C29.3192 20.5047 29.195 20.4223 29.0914 20.3164C28.9878 20.2106 28.9076 20.0846 28.8509 19.9383C28.794 19.791 28.7656 19.6295 28.7656 19.4538C28.7656 19.2781 28.794 19.1171 28.8509 18.9709C28.9076 18.8235 28.9878 18.697 29.0914 18.5911C29.195 18.4842 29.3192 18.4012 29.4639 18.3423C29.6087 18.2834 29.7691 18.2539 29.9451 18.2539C30.1211 18.2539 30.2814 18.2834 30.4262 18.3423C30.5721 18.4012 30.6968 18.4842 30.8004 18.5911C30.904 18.697 30.9842 18.8235 31.0409 18.9709C31.0978 19.1171 31.1262 19.2781 31.1262 19.4538ZM30.7937 19.4538C30.7937 19.3097 30.7737 19.1804 30.7336 19.0658C30.6935 18.9512 30.6367 18.8546 30.5632 18.7761C30.4896 18.6964 30.4005 18.6353 30.2959 18.5928C30.1912 18.5502 30.0742 18.5289 29.9451 18.5289C29.817 18.5289 29.7006 18.5502 29.5959 18.5928C29.4913 18.6353 29.4016 18.6964 29.327 18.7761C29.2535 18.8546 29.1966 18.9512 29.1565 19.0658C29.1164 19.1804 29.0964 19.3097 29.0964 19.4538C29.0964 19.5978 29.1164 19.7272 29.1565 19.8417C29.1966 19.9552 29.2535 20.0518 29.327 20.1315C29.4016 20.21 29.4913 20.2706 29.5959 20.3132C29.7006 20.3547 29.817 20.3754 29.9451 20.3754C30.0742 20.3754 30.1912 20.3547 30.2959 20.3132C30.4005 20.2706 30.4896 20.21 30.5632 20.1315C30.6367 20.0518 30.6935 19.9552 30.7336 19.8417C30.7737 19.7272 30.7937 19.5978 30.7937 19.4538Z" fill="#0CA49D"/>
<path d="M33.5293 18.2812V20.627H33.3673C33.3417 20.627 33.32 20.6227 33.3022 20.6139C33.2854 20.6052 33.2688 20.5904 33.252 20.5698L31.8672 18.8018C31.8694 18.8291 31.8711 18.8558 31.8722 18.882C31.8733 18.9082 31.8738 18.9328 31.8738 18.9557V20.627H31.5898V18.2812H31.7569C31.7714 18.2812 31.7836 18.2824 31.7936 18.2846C31.8036 18.2856 31.8126 18.2884 31.8204 18.2928C31.8282 18.296 31.836 18.3015 31.8438 18.3091C31.8516 18.3156 31.8599 18.3244 31.8688 18.3353L33.2537 20.1015C33.2515 20.0732 33.2493 20.0459 33.247 20.0197C33.2459 19.9924 33.2454 19.9668 33.2454 19.9428V18.2812H33.5293Z" fill="#0CA49D"/>
<path d="M35.6184 20.3684L35.6167 20.627H34.1416V18.2812H35.6167V18.5399H34.4657V19.3191H35.3979V19.5679H34.4657V20.3684H35.6184Z" fill="#0CA49D"/>
<path d="M37.2945 18.6468C37.2845 18.6631 37.2733 18.6757 37.2611 18.6844C37.25 18.692 37.236 18.6959 37.2193 18.6959C37.2004 18.6959 37.1781 18.6866 37.1525 18.668C37.1269 18.6495 37.0946 18.6293 37.0556 18.6075C37.0178 18.5845 36.9715 18.5638 36.9169 18.5453C36.8635 18.5267 36.7983 18.5175 36.7215 18.5175C36.6491 18.5175 36.5851 18.5273 36.5294 18.5469C36.4748 18.5654 36.4286 18.5911 36.3907 18.6238C36.354 18.6566 36.3261 18.6953 36.3072 18.74C36.2883 18.7837 36.2788 18.8312 36.2788 18.8825C36.2788 18.948 36.2949 19.0025 36.3272 19.0462C36.3606 19.0887 36.404 19.1253 36.4575 19.1558C36.5121 19.1864 36.5733 19.2132 36.6413 19.2361C36.7104 19.2579 36.7805 19.2808 36.8518 19.3048C36.9242 19.3288 36.9943 19.3561 37.0623 19.3867C37.1314 19.4161 37.1926 19.4538 37.2461 19.4996C37.3006 19.5454 37.3441 19.6016 37.3763 19.6682C37.4098 19.7348 37.4264 19.8166 37.4264 19.9138C37.4264 20.0164 37.4087 20.1129 37.373 20.2035C37.3373 20.293 37.285 20.371 37.216 20.4376C37.148 20.5041 37.0639 20.5566 36.9637 20.5947C36.8646 20.6329 36.7515 20.652 36.6246 20.652C36.4686 20.652 36.3272 20.6248 36.2003 20.5702C36.0733 20.5145 35.9647 20.4398 35.8745 20.3459L35.968 20.1953C35.977 20.1833 35.9875 20.1735 35.9998 20.1658C36.0131 20.1571 36.0276 20.1528 36.0432 20.1528C36.0577 20.1528 36.0739 20.1587 36.0917 20.1707C36.1106 20.1817 36.1317 20.1959 36.1552 20.2133C36.1786 20.2308 36.2053 20.2499 36.2353 20.2706C36.2654 20.2914 36.2994 20.3105 36.3373 20.3279C36.3762 20.3454 36.4202 20.3601 36.4692 20.3721C36.5182 20.383 36.5733 20.3885 36.6346 20.3885C36.7114 20.3885 36.78 20.3781 36.8401 20.3574C36.9002 20.3366 36.9509 20.3077 36.9921 20.2706C37.0344 20.2324 37.0668 20.1871 37.089 20.1347C37.1113 20.0824 37.1224 20.024 37.1224 19.9596C37.1224 19.8886 37.1057 19.8308 37.0723 19.7861C37.04 19.7402 36.9971 19.7021 36.9437 19.6715C36.8902 19.6409 36.829 19.6153 36.7599 19.5945C36.6909 19.5727 36.6207 19.5509 36.5494 19.5291C36.4781 19.5061 36.408 19.4799 36.3389 19.4505C36.2699 19.421 36.2086 19.3828 36.1552 19.3359C36.1017 19.289 36.0583 19.2306 36.0249 19.1607C35.9925 19.0898 35.9764 19.0025 35.9764 18.8988C35.9764 18.8159 35.9925 18.7357 36.0249 18.6582C36.0583 18.5808 36.1061 18.512 36.1685 18.452C36.232 18.3919 36.3094 18.3439 36.4007 18.3079C36.4932 18.2719 36.599 18.2539 36.7181 18.2539C36.8518 18.2539 36.9732 18.2747 37.0823 18.3161C37.1926 18.3576 37.2895 18.4176 37.373 18.4962L37.2945 18.6468Z" fill="#0CA49D"/>
<path d="M38.2075 20.627H37.8838V18.2812H38.2075V20.627Z" fill="#0CA49D"/>
<path d="M40.0919 19.7562L39.716 18.8018C39.7049 18.7734 39.6932 18.7407 39.6809 18.7036C39.6687 18.6654 39.657 18.625 39.6458 18.5825C39.6225 18.6708 39.5985 18.7445 39.574 18.8035L39.1981 19.7562H40.0919ZM40.7668 20.627H40.5162C40.4872 20.627 40.4639 20.6199 40.4461 20.6057C40.4282 20.5916 40.4149 20.5735 40.406 20.5517L40.1821 19.9853H39.1079L38.8841 20.5517C38.8774 20.5714 38.8646 20.5888 38.8456 20.6041C38.8267 20.6194 38.8033 20.627 38.7755 20.627H38.5249L39.4821 18.2812H39.8096L40.7668 20.627Z" fill="#0CA49D"/>
</svg>
