<svg width="50" height="32" viewBox="0 0 50 32" fill="none" xmlns="http://www.w3.org/2000/svg">
<rect width="50" height="32" rx="4" fill="white"/>
<g clip-path="url(#clip0_654_16588)">
<path fill-rule="evenodd" clip-rule="evenodd" d="M9.53781 10.0218C7.51276 10.2094 5.87165 11.2601 4.87494 12.8819C4.22726 13.9357 3.9228 15.1841 4.01669 16.4653C4.24642 19.5998 6.99535 22.2535 10.5139 21.9803C13.6708 21.7351 16.2755 18.9523 16.0087 15.5297C15.9109 14.2765 15.4665 13.2438 14.754 12.3112C14.4314 11.889 14.3678 11.8821 14.0309 11.5364C13.6132 11.1077 12.7298 10.6154 12.166 10.3977C11.41 10.1055 10.4474 9.93744 9.53781 10.0218Z" fill="#108DE8"/>
<path fill-rule="evenodd" clip-rule="evenodd" d="M6.5309 14.2501C6.45413 14.4673 6.49983 16.8826 6.49983 17.3306C6.49983 17.8152 6.4022 17.9666 7.17598 18.2259C9.22472 18.9125 11.2534 16.5846 13.2906 17.7363C13.385 17.7897 13.5 17.8991 13.527 17.7223L13.5278 14.6153C13.5279 14.2811 13.5584 14.1765 13.3322 14.0221C11.5092 12.7777 9.53541 14.9062 7.68567 14.6675C7.00113 14.5791 6.71765 14.2369 6.5309 14.2501Z" fill="white"/>
<path fill-rule="evenodd" clip-rule="evenodd" d="M20.606 19.0424C21.4046 19.0983 22.3349 18.4914 22.6627 18.1439C23.8013 16.9364 23.8287 15.1894 22.6826 13.9251C22.2558 13.4543 21.2566 12.934 20.6192 13.0069L18.3175 13.0085L18.3169 19.0349L20.606 19.0424ZM19.6099 17.7367C19.7794 17.7655 20.4757 17.7548 20.667 17.7375C22.2394 17.5967 22.7948 15.49 21.4729 14.6075C21.2535 14.461 21.0094 14.3442 20.689 14.3093C20.5136 14.2901 19.7643 14.2782 19.6091 14.3057L19.6099 17.7367Z" fill="#108DE8"/>
<path fill-rule="evenodd" clip-rule="evenodd" d="M40.7661 19.0525L42.0754 19.052L42.0767 17.7531L44.6746 17.7535L44.6822 19.0521L45.9909 19.0523C45.9918 18.3305 45.9912 17.6145 45.9912 16.8986C45.9912 16.2537 46.0465 15.4464 45.8842 14.8614C45.6095 13.8713 44.6486 12.9932 43.3841 12.9883C42.106 12.9834 41.1782 13.859 40.882 14.8347C40.7067 15.4122 40.7652 16.2401 40.7652 16.8757C40.7652 17.6002 40.7576 18.3285 40.7661 19.0525ZM42.0766 16.4463L44.6811 16.4474C44.6874 15.8903 44.7484 15.3489 44.4933 14.922C44.3107 14.6166 43.9257 14.2971 43.3848 14.2949C42.833 14.2926 42.4651 14.5994 42.2682 14.9157C42.0103 15.3306 42.0685 15.9019 42.0766 16.4463Z" fill="#108DE8"/>
<path fill-rule="evenodd" clip-rule="evenodd" d="M25.7906 19.0516L27.0954 19.0527C27.0962 18.7816 27.0603 17.9506 27.1081 17.7536L29.696 17.7539L29.7052 19.0518L31.0117 19.053C31.0049 18.3334 31.0111 17.6148 31.0111 16.8992C31.0111 16.2852 31.0692 15.4055 30.905 14.8612C30.1573 12.3822 26.6764 12.3646 25.9039 14.8364C25.7289 15.3962 25.7887 16.2528 25.7887 16.8763C25.7887 17.5957 25.7719 18.3346 25.7906 19.0516ZM27.0962 16.4467L29.7039 16.448C29.7094 15.899 29.7706 15.3474 29.5148 14.9214C29.0467 14.1417 27.8563 14.0295 27.2901 14.9176C27.0312 15.3236 27.0877 15.9122 27.0962 16.4467Z" fill="#108DE8"/>
<path fill-rule="evenodd" clip-rule="evenodd" d="M33.3085 15.3582L33.2907 16.2585C33.2907 17.0132 33.2523 18.4212 33.2934 19.0336L34.5729 19.0342C34.6026 18.605 34.5266 15.542 34.6077 15.4445C34.608 14.8492 35.2413 14.2958 35.8819 14.2935C36.2753 14.292 36.5622 14.4489 36.7711 14.6351C36.9341 14.7806 37.1835 15.1119 37.1787 15.4476C37.2386 15.4806 37.1913 18.6756 37.2101 19.0334L38.491 19.0342L38.4808 15.3766C38.5128 15.09 38.3367 14.647 38.2237 14.4221C37.2756 12.5336 34.554 12.5086 33.5788 14.3896C33.4645 14.6101 33.2815 15.0651 33.3085 15.3582Z" fill="#108DE8"/>
<path fill-rule="evenodd" clip-rule="evenodd" d="M20.6061 19.0398L18.317 19.0322L18.3176 13.0059L20.6193 13.0042C20.5774 12.9468 19.6171 12.9811 19.4825 12.9811C19.1477 12.9811 18.6191 12.9502 18.3078 12.986C18.2784 13.082 18.2664 18.8967 18.3058 19.0534C18.5177 19.0801 19.9947 19.0595 20.4617 19.0606L20.59 19.0474C20.5941 19.0462 20.6008 19.0424 20.6061 19.0398Z" fill="#79BBE7"/>
<path fill-rule="evenodd" clip-rule="evenodd" d="M37.1788 15.4499C37.1926 15.9429 37.1516 18.8805 37.1986 19.0566L38.5028 19.0621C38.5368 18.9209 38.5158 16.6304 38.5158 16.2836C38.5158 16.1178 38.5612 15.4666 38.4809 15.3789L38.4911 19.0366L37.2103 19.0357C37.1914 18.6779 37.2387 15.4829 37.1788 15.4499Z" fill="#79BBE7"/>
<path fill-rule="evenodd" clip-rule="evenodd" d="M34.6078 15.4456C34.5267 15.5432 34.6027 18.6062 34.573 19.0354L33.2935 19.0347C33.2524 18.4224 33.2908 17.0144 33.2908 16.2596L33.3086 15.3594C33.2358 15.3904 33.2683 16.9948 33.2683 17.195C33.2683 17.4866 33.2329 18.8889 33.2838 19.056L34.5874 19.0607L34.6078 15.4456Z" fill="#79BBE7"/>
</g>
<defs>
<clipPath id="clip0_654_16588">
<rect width="42" height="12" fill="white" transform="translate(4 10)"/>
</clipPath>
</defs>
</svg>
