<svg width="50" height="32" viewBox="0 0 50 32" fill="none" xmlns="http://www.w3.org/2000/svg">
<rect width="50" height="32" rx="4" fill="white"/>
<g clip-path="url(#clip0_654_16584)">
<path d="M26.8219 21.1054C26.7784 21.9277 26.4162 22.4909 25.7218 22.8318C25.52 22.9309 25.3318 22.8526 25.2399 22.6434C25.1692 22.4821 25.2502 22.2986 25.4403 22.2129C25.932 21.991 26.1479 21.5361 26.1387 21.1076C26.1274 20.5867 25.8189 20.1894 25.3337 20.0185C24.8665 19.8541 24.3785 20.0136 24.0338 20.4438C23.769 20.7742 23.7462 21.3447 23.9786 21.7273C24.1074 21.9395 24.2779 22.0996 24.5017 22.2063C24.7125 22.3069 24.7869 22.4923 24.7017 22.6759C24.6146 22.8633 24.4083 22.9233 24.2012 22.8176C23.6449 22.5336 23.2805 22.0923 23.169 21.4663C22.9928 20.4766 23.6038 19.5887 24.4842 19.3425C25.5247 19.0513 26.5243 19.7163 26.7568 20.679C26.7936 20.831 26.8048 20.9893 26.8219 21.1054Z" fill="#00AA11"/>
<path d="M29.4786 20.1007C29.4841 20.022 29.4885 19.9591 29.4934 19.8876C29.6734 19.8876 29.8467 19.8876 30.0307 19.8876C30.0348 19.9275 30.042 19.9652 30.042 20.0029C30.0425 20.6455 30.0458 21.2878 30.0408 21.9304C30.0377 22.3269 29.8866 22.6526 29.5365 22.8528C29.0979 23.1036 28.4138 23.0244 28.0218 22.6912C27.9849 22.6599 27.9498 22.6264 27.9066 22.5874C28.0232 22.4714 28.1374 22.3576 28.2629 22.2326C28.4587 22.3916 28.678 22.4714 28.9343 22.4636C29.3294 22.4517 29.524 22.2326 29.4725 21.8067C29.1418 22.0686 28.7768 22.0784 28.4064 21.9532C28.1854 21.8784 28.0107 21.7287 27.887 21.5201C27.6258 21.0794 27.6931 20.5202 28.0547 20.1789C28.4424 19.8132 29.0287 19.7756 29.4786 20.1007ZM29.4562 20.9543C29.4562 20.5822 29.2563 20.3792 28.8929 20.3826C28.5512 20.3857 28.3208 20.6123 28.3083 20.9279C28.2919 21.3389 28.5562 21.5241 28.9058 21.5192C29.2649 21.5144 29.4562 21.3221 29.4562 20.9543Z" fill="black"/>
<path d="M38.5903 19.8788C38.2589 20.1951 37.957 20.4831 37.6508 20.7753C37.9623 21.1943 38.2669 21.6042 38.5923 22.0422C38.3698 22.0422 38.1857 22.0478 38.0024 22.038C37.9596 22.0358 37.909 21.9897 37.8798 21.9503C37.7106 21.7214 37.5469 21.4883 37.381 21.257C37.3531 21.2179 37.3235 21.1803 37.2736 21.1141C37.1541 21.2523 37.002 21.3612 36.9503 21.5067C36.8959 21.659 36.9381 21.8465 36.9381 22.0424C36.8388 22.0424 36.7528 22.0424 36.6669 22.0424C36.5847 22.0424 36.5027 22.0424 36.4072 22.0424C36.4035 21.9782 36.3978 21.9258 36.3978 21.8736C36.3972 21.063 36.4017 20.2525 36.3936 19.442C36.3921 19.2863 36.4393 19.241 36.5851 19.2569C36.6951 19.269 36.8073 19.2594 36.9359 19.2594C36.9359 19.7517 36.9359 20.2267 36.9359 20.7421C37.1044 20.5885 37.2443 20.463 37.3819 20.3348C37.5217 20.2047 37.6579 20.0705 37.7985 19.9413C37.829 19.9133 37.8716 19.8826 37.9092 19.8816C38.1218 19.8759 38.3346 19.8788 38.5903 19.8788Z" fill="black"/>
<path d="M34.4445 21.1451C34.4778 21.3738 34.6941 21.5484 34.9433 21.5687C35.1538 21.5858 35.3511 21.5547 35.5231 21.4162C35.5505 21.3941 35.6099 21.3766 35.6336 21.3913C35.7486 21.4626 35.8565 21.5457 35.9776 21.6324C35.6042 22.0085 35.1796 22.112 34.691 21.9899C34.294 21.8906 34.0058 21.6652 33.9126 21.2529C33.7097 20.3557 34.3927 19.7628 35.1821 19.8981C35.6401 19.9765 35.9254 20.2482 36.0328 20.7012C36.0648 20.8367 36.0556 20.9823 36.0667 21.1451C35.7801 21.1451 35.5129 21.1451 35.2457 21.1451C34.9825 21.1451 34.7192 21.1451 34.4445 21.1451ZM35.5042 20.7314C35.4669 20.4625 35.2557 20.334 34.8996 20.3509C34.6445 20.3631 34.4717 20.5098 34.459 20.7314C34.8048 20.7314 35.1502 20.7314 35.5042 20.7314Z" fill="black"/>
<path d="M31.4983 19.8516C32.1297 19.877 32.5985 20.2746 32.6456 20.8937C32.6778 21.316 32.4942 21.6551 32.1269 21.8828C31.7064 22.1436 31.0395 22.0739 30.6835 21.7257C30.1498 21.2038 30.3129 20.2828 30.9968 19.9936C31.1557 19.9264 31.3308 19.898 31.4983 19.8516ZM32.0723 20.9649C32.0713 20.6136 31.8496 20.3811 31.5143 20.3837C31.1382 20.3865 30.9418 20.6319 30.9292 20.9663C30.9171 21.2875 31.1894 21.5454 31.5083 21.5431C31.8489 21.5405 32.0735 21.3103 32.0723 20.9649Z" fill="black"/>
<path d="M32.977 19.8828C33.1705 19.8828 33.3408 19.8828 33.5342 19.8828C33.5342 19.9308 33.5342 19.9776 33.5342 20.0245C33.5342 20.8058 33.5346 21.5872 33.5338 22.3687C33.5336 22.763 33.3063 22.9923 32.9167 22.9936C32.7664 22.9942 32.6161 22.9937 32.4497 22.9937C32.4497 22.901 32.4497 22.8234 32.4497 22.7457C32.4497 22.6674 32.4497 22.589 32.4497 22.4831C32.5504 22.4831 32.6414 22.4867 32.732 22.4823C32.9381 22.4722 32.977 22.4297 32.977 22.2241C32.9772 21.502 32.977 20.78 32.977 20.0579C32.977 20.0045 32.977 19.9511 32.977 19.8828Z" fill="black"/>
<path d="M24.297 21.1132C24.2549 20.797 24.6509 20.4161 24.9875 20.4384C25.3597 20.4632 25.668 20.7572 25.6656 21.1332C25.6633 21.5081 25.3417 21.8392 24.9709 21.8293C24.6003 21.8193 24.2751 21.5222 24.297 21.1132Z" fill="#00AA11"/>
<path d="M11.4077 20.1445H11.983C12.296 20.1445 12.4813 20.3234 12.4813 20.61C12.4813 20.901 12.2981 21.0712 11.983 21.0712H11.5825V21.6532H11.4077V20.1445ZM11.9722 20.9032C12.2001 20.9032 12.3045 20.8105 12.3045 20.61C12.3045 20.4096 12.1959 20.3126 11.9722 20.3126H11.5825V20.9032H11.9722Z" fill="black"/>
<path d="M13.0993 20.4766C13.4188 20.4766 13.6318 20.7201 13.6318 21.0801C13.6318 21.4399 13.4188 21.6835 13.0993 21.6835C12.7819 21.6835 12.5688 21.4399 12.5688 21.0801C12.5688 20.7201 12.7819 20.4766 13.0993 20.4766ZM13.0993 20.6339C12.8756 20.6339 12.735 20.8063 12.735 21.0801C12.735 21.3537 12.8756 21.5262 13.0993 21.5262C13.3229 21.5262 13.4657 21.3537 13.4657 21.0801C13.4657 20.8063 13.3229 20.6339 13.0993 20.6339Z" fill="black"/>
<path d="M13.7383 20.5117H13.9023L14.1067 21.3997H14.1111L14.4136 20.5117H14.5648L14.8673 21.3997H14.8715L15.0761 20.5117H15.2401L14.9696 21.6541H14.8119L14.4924 20.7208H14.4882L14.1664 21.6541H14.0087L13.7383 20.5117Z" fill="black"/>
<path d="M15.8711 20.4766C16.1736 20.4766 16.3759 20.7072 16.3759 21.0434V21.1296H15.5175C15.5217 21.3494 15.6602 21.5305 15.8668 21.5305C16.0266 21.5305 16.116 21.4723 16.2119 21.302L16.3504 21.3861C16.2545 21.5822 16.0905 21.6835 15.8711 21.6835C15.558 21.6835 15.3491 21.4399 15.3491 21.0801C15.3491 20.7201 15.5644 20.4766 15.8711 20.4766ZM16.2076 20.9937C16.2055 20.8882 16.1715 20.802 16.1096 20.7331C16.0479 20.664 15.9691 20.6296 15.8711 20.6296C15.6794 20.6296 15.5261 20.802 15.5217 20.9937H16.2076Z" fill="black"/>
<path d="M16.6123 20.5115H16.7699V20.6064H16.7741C16.8168 20.5354 16.8998 20.4922 17.0084 20.4922C17.0425 20.4922 17.081 20.4987 17.1214 20.5094L17.0851 20.6839C17.0447 20.6711 17.0063 20.6646 16.9744 20.6646C16.8401 20.6646 16.7783 20.7552 16.7783 20.9685V21.6538H16.6123V20.5115Z" fill="black"/>
<path d="M17.7201 20.4766C18.0227 20.4766 18.225 20.7072 18.225 21.0434V21.1296H17.3665C17.3707 21.3494 17.5092 21.5305 17.7158 21.5305C17.8756 21.5305 17.9652 21.4723 18.0609 21.302L18.1994 21.3861C18.1035 21.5822 17.9395 21.6835 17.7201 21.6835C17.4069 21.6835 17.1982 21.4399 17.1982 21.0801C17.1982 20.7201 17.4134 20.4766 17.7201 20.4766ZM18.0568 20.9937C18.0546 20.8882 18.0205 20.802 17.9587 20.7331C17.8969 20.664 17.8181 20.6296 17.7201 20.6296C17.5284 20.6296 17.375 20.802 17.3707 20.9937H18.0568Z" fill="black"/>
<path d="M18.9259 20.4768C19.0622 20.4768 19.1837 20.535 19.2584 20.6299H19.2625V20.0781H19.4288V21.6515H19.269V21.5371H19.2646C19.1901 21.6299 19.0644 21.6837 18.9259 21.6837C18.632 21.6837 18.4189 21.4359 18.4189 21.0803C18.4189 20.7247 18.632 20.4768 18.9259 20.4768ZM19.2625 20.9682C19.2625 20.7829 19.1135 20.6342 18.9259 20.6342C18.7236 20.6342 18.5851 20.8109 18.5851 21.0803C18.5851 21.3497 18.7236 21.5265 18.9367 21.5265C19.1156 21.5265 19.2625 21.3756 19.2625 21.1903V20.9682Z" fill="black"/>
<path d="M20.4449 21.5371V21.6515H20.2852V20.0781H20.4513V20.6299H20.4556C20.5302 20.535 20.6516 20.4768 20.7879 20.4768C21.0819 20.4768 21.2948 20.7247 21.2948 21.0803C21.2948 21.4359 21.0819 21.6837 20.7879 21.6837C20.6494 21.6837 20.5237 21.6299 20.4491 21.5371H20.4449ZM20.7879 20.6342C20.6005 20.6342 20.4513 20.7829 20.4513 20.9682V21.1903C20.4513 21.3756 20.5983 21.5265 20.7773 21.5265C20.9903 21.5265 21.1288 21.3497 21.1288 21.0803C21.1288 20.8109 20.9903 20.6342 20.7879 20.6342Z" fill="black"/>
<path d="M21.7852 21.5571L21.3506 20.5117H21.5274L21.8704 21.3631H21.8747L22.2197 20.5117H22.3965L21.7192 22.139H21.5466L21.7852 21.5571Z" fill="black"/>
<path d="M8.58382 9C11.1144 9 13.1658 11.0029 13.1658 13.4736C13.1658 15.9444 11.1144 17.9473 8.58382 17.9473C6.05337 17.9473 4.00195 15.9444 4.00195 13.4736C4.00195 11.0029 6.05337 9 8.58382 9Z" fill="#00AED6"/>
<path fill-rule="evenodd" clip-rule="evenodd" d="M11.2562 13.336C11.2213 12.7667 10.7249 12.3302 10.1413 12.3556H7.24712C7.14155 12.3556 7.05609 12.2721 7.05609 12.1692C7.05609 12.0663 7.14155 11.9828 7.24712 11.9828H10.1795C10.1623 11.5969 9.89249 11.2657 9.51121 11.1627C8.65641 11.0135 7.78124 11.0135 6.92631 11.1627C6.44049 11.2792 6.07702 11.6739 6.00989 12.158C5.87626 13.0354 5.87626 13.9275 6.00989 14.8049C6.11225 15.3171 6.52915 15.7136 7.05609 15.8004C8.11601 15.9307 9.18835 15.9307 10.2481 15.8004C10.7204 15.7069 11.0777 15.328 11.1341 14.8609C11.2311 14.3583 11.2719 13.8471 11.2562 13.336ZM10.3017 13.9623V14.1264C10.3017 14.2294 10.2162 14.3128 10.1108 14.3128C10.0054 14.3128 9.9199 14.2294 9.9199 14.1264V13.9623C9.85815 13.9098 9.8233 13.8335 9.82433 13.7537C9.82433 13.5991 9.95257 13.4739 10.1108 13.4739C10.2689 13.4739 10.3971 13.5991 10.3971 13.7537C10.3962 13.8331 10.3617 13.9087 10.3017 13.9623Z" fill="white"/>
<path d="M26.2159 12.9721C26.2221 12.1876 25.5759 11.5468 24.7725 11.5405C23.9692 11.5344 23.3127 12.1653 23.3064 12.9498C23.3002 13.7342 23.9463 14.3751 24.7497 14.3812C24.7574 14.3813 24.7649 14.3813 24.7725 14.3812C25.5348 14.4211 26.1859 13.8501 26.2267 13.1058C26.2292 13.0612 26.2293 13.0166 26.2273 12.9721H26.2159ZM21.8936 12.9721C21.8936 11.4808 23.1002 10.3438 24.7725 10.3438C26.4449 10.3438 27.6514 11.4883 27.6514 12.9721C27.6514 14.4558 26.4563 15.604 24.7725 15.604C23.0886 15.604 21.8936 14.4596 21.8936 12.9721Z" fill="black"/>
<path d="M19.6025 13.2407C19.6025 13.8558 18.9611 14.3591 18.1478 14.3591C17.4009 14.4328 16.7342 13.9013 16.6587 13.1721C16.651 13.0983 16.6497 13.0239 16.6549 12.9499C16.6549 12.1372 17.2657 11.578 18.2051 11.578C18.9687 11.578 19.6025 12.0887 19.6025 12.6666V13.2407ZM19.6598 10.3365V10.9256C19.195 10.5136 18.5796 10.3024 17.9531 10.3403C16.4716 10.3536 15.2818 11.5371 15.2955 12.9835C15.3092 14.4299 16.5212 15.5916 18.0026 15.5782C18.6126 15.6048 19.2063 15.3818 19.6406 14.963V15.4664C19.6406 16.1485 19.0375 16.6481 18.2433 16.6481C17.6366 16.6909 17.0392 16.4856 16.5937 16.0814L15.6659 16.9539C16.3616 17.6205 17.3072 17.979 18.2814 17.9455C19.908 17.9455 21.0229 16.8792 21.0229 15.4588V10.3365H19.6598Z" fill="black"/>
<path d="M28.4917 10.4916H29.8586V10.9314H29.8777C30.3258 10.5325 30.9176 10.3234 31.5235 10.3499C33.0112 10.4046 34.1718 11.6264 34.1158 13.079C34.0626 14.4548 32.9325 15.5583 31.5235 15.6101C30.9446 15.6232 30.3798 15.4371 29.9274 15.0844V17.5748H28.5032L28.4917 10.4916ZM31.302 11.5801C30.5382 11.5801 29.9159 12.0983 29.9159 12.6611V13.2912C29.9159 13.8915 30.5307 14.3873 31.3096 14.3873C32.1036 14.4272 32.7803 13.8312 32.8213 13.0561C32.8622 12.2808 32.2518 11.62 31.4577 11.5801C31.4084 11.5777 31.359 11.5777 31.3096 11.5801H31.302Z" fill="black"/>
<path d="M36.8497 12.4913C37.7852 12.3682 38.0639 12.2378 38.0639 11.9842C38.0639 11.6562 37.7089 11.4586 37.159 11.4586C36.5663 11.4112 36.0267 11.7925 35.8875 12.357L34.5435 12.085C34.7345 11.0709 35.8035 10.3477 37.1208 10.3477C38.6099 10.3477 39.534 11.0932 39.534 12.3012V15.4662H38.2549V14.9144H38.2358C37.8017 15.3914 37.1656 15.6448 36.5138 15.6004C35.3874 15.6004 34.6046 15.0002 34.6046 14.1092C34.6046 13.2182 35.2461 12.7075 36.8497 12.4913ZM38.1785 13.0169H38.1594C38.0334 13.1958 37.7775 13.3003 37.0712 13.4195C36.235 13.5723 35.9257 13.7327 35.9257 14.0234C35.9257 14.3143 36.1739 14.456 36.7122 14.456C37.5332 14.456 38.167 14.0832 38.167 13.6097L38.1785 13.0169Z" fill="black"/>
<path d="M42.1113 15.1857L39.7554 10.4922H41.3247L42.8711 13.7429H42.894L44.4213 10.4922H45.9983L42.4702 17.5754H40.9009L42.1113 15.1857Z" fill="black"/>
</g>
<defs>
<clipPath id="clip0_654_16584">
<rect width="42" height="14" fill="white" transform="translate(4 9)"/>
</clipPath>
</defs>
</svg>
