<svg width="137" height="137" viewBox="0 0 137 137" fill="none" xmlns="http://www.w3.org/2000/svg">
<g filter="url(#filter0_d_16_2696)">
<circle cx="68.5" cy="68.5" r="62.5" fill="white"/>
</g>
<path d="M81.1318 81.5381H62.0889C59.2832 81.5381 57.0107 79.2656 57.0107 76.46V46.791C57.0107 41.1797 61.5557 36.6348 67.167 36.6348H76.0537C81.665 36.6348 86.21 41.1797 86.21 46.791V76.46C86.21 79.2656 83.9375 81.5381 81.1318 81.5381Z" fill="black"/>
<path d="M57.0107 100.365H85.3975C88.7617 100.365 91.4785 97.6357 91.4785 94.2842C91.4785 93.9414 91.4531 93.5986 91.3896 93.2559L88.7998 78.1865C88.0762 73.9463 84.9404 70.5186 80.7891 69.4014L75.9902 68.1191H70.4043L65.8086 69.5791C62.8379 70.5186 60.8193 73.2861 60.8193 76.4092C60.8193 77.2978 60.7051 78.1738 60.4766 79.0244L60.248 79.8496C59.6387 82.1221 59.8418 84.5215 60.8193 86.6543C58.3945 88.8633 57.0107 91.999 57.0107 95.2744V100.365Z" fill="url(#paint0_linear_16_2696)"/>
<path d="M70.4043 68.1191C71.001 69.9219 73.2607 70.5313 74.6826 69.2744L75.9902 68.1191V64.3105H70.4043V68.1191Z" fill="#F5B7A9"/>
<path d="M71.6104 65.834C66.1387 65.834 61.708 61.4033 61.708 55.9316V40.4434H81.5127V55.9316C81.5127 61.4033 77.082 65.834 71.6104 65.834Z" fill="#F5B7A9"/>
<path d="M69.1348 50.4727H66.0879V51.7422H69.1348V50.4727Z" fill="black"/>
<path d="M69.6426 55.4238H68.373V53.6465H67.6113V52.377H69.0078C69.3633 52.377 69.6426 52.6562 69.6426 53.0117V55.4238Z" fill="black"/>
<path d="M77.2598 50.4727H74.2129V51.7422H77.2598V50.4727Z" fill="black"/>
<path d="M74.7207 55.4238H73.4512V53.0117C73.4512 52.6562 73.7305 52.377 74.0859 52.377H75.7363V53.6465H74.7207V55.4238Z" fill="black"/>
<path d="M71.6484 59.8672C71.5088 59.8672 71.3691 59.8164 71.2422 59.7275L69.6807 58.458L70.4805 57.4678L71.6357 58.4072L72.7148 57.4805L73.54 58.4453L72.0547 59.7148C71.9404 59.8164 71.8008 59.8672 71.6484 59.8672Z" fill="#D84861"/>
<path d="M82.7188 94.3984H77.3867V93.1289H81.9824L80.3066 81.665L81.5635 81.4873L83.3408 93.6748C83.3662 93.8525 83.3154 94.043 83.1885 94.1826C83.0742 94.3223 82.8965 94.3984 82.7188 94.3984Z" fill="#9ABD2E"/>
<path d="M57.0107 46.791V60.248C59.6006 60.248 61.708 58.1406 61.708 55.5508V49.584H62.9268C66.6719 49.584 70.0615 47.4004 71.6104 43.998C73.1592 47.4004 76.5488 49.584 80.2939 49.584H81.5127V55.5508C81.5127 58.1406 83.6201 60.248 86.21 60.248V46.791C86.21 41.1797 81.665 36.6348 76.0537 36.6348H67.167C61.5557 36.6348 57.0107 41.1797 57.0107 46.791Z" fill="black"/>
<path d="M64.6914 86.0195H60.7559V87.2891H64.6914V86.0195Z" fill="#9ABD2E"/>
<path d="M77.3867 93.7637H74.0859C72.2578 93.7637 70.7852 95.2363 70.7852 97.0645C70.7852 98.8926 72.2578 100.365 74.0859 100.365H77.3867V93.7637ZM56.0078 100.365H57.0107C58.8389 100.365 60.3115 98.8926 60.3115 97.0645C60.3115 95.2363 58.8389 93.7637 57.0107 93.7637H56.0078C54.7383 93.7637 53.71 94.792 53.71 96.0615V98.0674C53.71 99.3369 54.7383 100.365 56.0078 100.365Z" fill="#F5B7A9"/>
<path d="M49.8511 87.4033C48.8608 86.4131 47.2485 86.4131 46.2583 87.4033C45.2681 88.3936 45.2681 90.0059 46.2583 90.9961L49.8511 94.5889L53.4438 90.9961C54.4341 90.0059 54.4341 88.3936 53.4438 87.4033C52.4536 86.4004 50.8413 86.4004 49.8511 87.4033Z" fill="#D84861"/>
<defs>
<filter id="filter0_d_16_2696" x="0" y="0" width="137" height="137" filterUnits="userSpaceOnUse" color-interpolation-filters="sRGB">
<feFlood flood-opacity="0" result="BackgroundImageFix"/>
<feColorMatrix in="SourceAlpha" type="matrix" values="0 0 0 0 0 0 0 0 0 0 0 0 0 0 0 0 0 0 127 0" result="hardAlpha"/>
<feMorphology radius="3" operator="dilate" in="SourceAlpha" result="effect1_dropShadow_16_2696"/>
<feOffset/>
<feGaussianBlur stdDeviation="1.5"/>
<feComposite in2="hardAlpha" operator="out"/>
<feColorMatrix type="matrix" values="0 0 0 0 0 0 0 0 0 0 0 0 0 0 0 0 0 0 0.25 0"/>
<feBlend mode="normal" in2="BackgroundImageFix" result="effect1_dropShadow_16_2696"/>
<feBlend mode="normal" in="SourceGraphic" in2="effect1_dropShadow_16_2696" result="shape"/>
</filter>
<linearGradient id="paint0_linear_16_2696" x1="74.2439" y1="68.8809" x2="74.2439" y2="99.7329" gradientUnits="userSpaceOnUse">
<stop stop-color="#9ABD2E"/>
<stop offset="1" stop-color="#B2D34B"/>
</linearGradient>
</defs>
</svg>
