<svg width="570" height="292" viewBox="0 0 570 292" fill="none" xmlns="http://www.w3.org/2000/svg">
<g clip-path="url(#clip0_451_18336)">
<path d="M495.771 194.964C503.894 201.574 507.829 213.302 504.624 223.343C510.442 222.443 516.738 222.415 521.826 225.368C527.025 228.406 530.173 234.171 531.41 240.078C532.618 245.984 532.169 252.087 531.719 258.106C535.626 257.881 539.87 257.741 543.046 259.991C546.25 262.241 547.093 267.922 543.664 269.806C541.584 270.932 539.392 272.478 537.059 272.478C521.629 272.478 506.17 272.478 490.74 272.478C455.691 272.478 420.67 272.478 385.621 272.478C344.558 272.478 303.494 272.478 262.431 272.478C223.25 272.478 184.042 272.478 144.861 272.478C115.434 272.478 86.0343 272.478 56.6068 272.478C50.0018 272.478 43.3967 272.619 36.7917 272.647C32.0136 272.675 27.6009 274.672 23.8346 270.397C20.6305 266.741 20.6867 260.75 23.7222 256.953C26.7577 253.156 32.3509 251.75 36.9322 253.381C34.0654 249.444 31.1142 245.309 30.2148 240.5C29.3435 235.69 31.1704 230.009 35.6674 228.096C37.41 227.337 39.3775 227.224 41.2325 227.477C43.8464 227.843 46.376 228.912 48.4278 230.599C46.2355 224.131 45.6734 217.099 46.7414 210.349C47.3879 206.271 48.7651 202.136 51.6881 199.267C54.7799 196.23 59.305 194.964 63.6615 194.964C68.018 194.964 72.2621 196.061 76.4781 197.158C76.4219 191.533 76.3938 185.711 78.5861 180.508C83.4204 169.117 95.2532 169.145 104.472 174.545C104.247 171.17 103.235 167.851 103.292 164.476C103.488 156.235 107.002 148.866 113.157 144.085C118.048 140.288 124.231 138.629 130.161 139.501C127.688 139.135 135.558 128.644 136.795 127.744C140.139 125.325 144.327 124.453 148.206 123.835C156.329 122.569 164.48 123.385 172.602 122.822C201.749 120.741 231.598 122.4 260.857 122.4C291.971 122.4 323.085 122.4 354.227 122.4C369.994 122.4 385.762 122.4 401.53 122.4C412.913 122.4 425.336 120.769 432.278 132.132C438.518 142.313 444.926 153.057 444.252 165.517C450.829 159.245 462.493 162.029 468.198 169.089C473.904 176.148 474.972 185.852 474.775 194.936C477.474 189.564 485.315 189.339 490.768 191.87C492.567 192.686 494.253 193.727 495.771 194.964Z" fill="#86CEA3"/>
<path d="M389.247 79.7903C389.949 81.1403 391.158 82.3216 391.608 83.7279C392.114 85.3029 391.608 86.9061 391.776 88.4811C391.973 90.2249 392.929 91.8843 393.912 93.4593C394.475 94.3875 395.065 95.3156 395.655 96.2438C398.662 100.884 402.091 105.469 406.111 109.491C411.17 114.554 417.128 118.688 424.267 120.797C437.393 124.707 452.543 121.051 464.038 128.223C468.339 130.923 471.543 134.832 475.871 137.476C488.688 145.323 506.282 139.585 519.717 146.448C524.748 148.979 528.796 153.142 534.192 154.914C541.5 157.276 549.482 154.379 553.698 149.261C555.384 147.235 557.352 145.914 559.347 144.648C561.371 143.382 563.395 142.201 565.222 140.373C568.651 136.998 570.281 132.441 570.028 127.716C569.719 121.191 566.149 114.3 561.062 107.916C559.572 106.088 557.942 104.231 556.593 102.347C555.665 101.053 554.878 99.7313 554.373 98.3813C552.433 93.4031 554.625 88.9592 554.935 84.206C555.581 74.5308 547.486 63.1962 534.923 56.221C529.358 53.0991 528.402 52.3116 527.306 48.1209C526.378 44.4645 523.146 41.0332 519.661 37.8831C516.907 35.4081 513.927 32.9612 510.161 31.3299C502.797 28.1517 494.59 29.0798 488.491 31.3299C485.849 32.3143 483.291 33.4956 480.087 33.6362C472.414 33.9737 463.701 28.2079 456.253 28.9111C451.756 29.333 449.142 32.033 447.54 34.8737C442.762 43.5364 439.08 44.4927 428.68 48.9928C419.489 52.9585 410.27 56.9523 401.08 60.9461C396.948 62.7462 392.367 64.2368 390.624 67.9775C389.106 71.2401 387.392 76.2465 389.247 79.7903Z" fill="#6B9E84"/>
<path d="M429.439 93.9389C429.102 93.6014 429.552 93.292 429.861 93.2077C430.311 93.0952 430.985 93.1514 431.294 93.517C432.194 94.4733 433.29 95.2046 434.527 95.6546C435.482 95.9921 436.41 96.1046 437.365 96.0484C434.049 91.8295 430.957 87.1607 430.873 81.8449C430.873 82.0981 433.037 85.3887 433.318 85.9231C434.414 88.0044 435.735 90.0013 437.112 91.9139C439.895 95.7671 443.211 99.1984 447.09 101.955C449.17 103.445 458.22 111.517 460.553 109.577C461.312 108.93 461.593 107.889 461.818 106.905C462.436 104.092 462.774 101.252 462.998 98.4109C463.195 95.4858 462.802 92.3358 463.279 89.467C464.066 84.77 464.179 79.9886 464.348 75.2354C464.432 73.2385 463.729 70.8478 466.231 71.5228C467.833 71.9447 469.716 72.7322 469.828 74.6448C469.913 76.4729 469.266 78.5824 469.069 80.4105C468.845 82.5199 468.648 84.6294 468.479 86.7388C467.889 94.9796 467.889 103.277 468.367 111.517C468.732 117.902 469.379 124.286 470.25 130.615C470.756 134.355 470.362 142.737 475.674 143.215C478.288 143.468 480.481 141.359 482.279 139.418C489.081 132.077 495.124 124.23 501.364 116.439C506.732 109.717 511.454 102.77 516.176 95.5702C516.682 94.8108 517.328 93.9671 518.228 94.0514C519.099 94.1358 519.633 95.1765 519.521 96.0484C519.408 96.9202 518.818 97.6796 518.284 98.3547C515.895 101.364 513.59 104.458 511.426 107.636C510.611 108.817 507.126 113.627 508.194 115.314C508.334 115.539 508.643 115.624 508.924 115.652C509.796 115.736 510.639 115.455 511.426 115.118C512.775 114.555 514.04 113.767 515.305 113.008C516.822 112.108 518.453 111.292 519.774 110.111C521.685 108.424 523.68 106.905 525.816 105.527C526.744 104.936 527.812 104.345 528.88 104.655C530.735 105.217 526.969 108.255 526.688 108.452C524.861 109.717 523.146 111.152 521.348 112.474C517.75 115.089 513.871 117.452 509.543 118.633C506.058 119.589 503.163 119.843 501.392 123.133C499.565 126.508 496.305 129.096 493.719 131.908C490.318 135.593 487.311 139.587 484.275 143.581C475 155.843 474.466 166.953 476.237 181.972C478.232 198.566 480.93 215.104 482.842 231.698C483.853 240.389 484.669 249.108 485.062 257.827C485.231 261.23 484.865 264.914 485.456 268.233C485.961 271.074 488.351 274.421 487.395 277.402C485.849 282.324 478.035 279.568 474.1 279.709C471.515 279.793 467.777 281.93 465.247 280.805C461.649 279.23 462.408 273.971 463.589 270.23C473.96 237.548 470.503 202.223 465.64 168.303C464.376 159.528 463.027 150.725 462.802 141.837C462.605 134.44 464.797 127.015 462.633 119.702C462.352 118.746 461.987 117.818 461.453 116.974C460.862 116.102 460.075 115.399 459.26 114.724C455.466 111.602 451.137 109.211 447.259 106.174C445.488 104.795 443.745 103.277 442.087 101.758C441.075 100.83 439.979 99.9859 439.305 98.7765C439.052 98.3265 438.883 97.7921 438.518 97.4546C437.927 96.9202 437.534 97.089 436.719 97.0609C434.161 97.0609 431.238 95.9921 429.439 93.9389Z" fill="#EC8161"/>
<path d="M389.247 79.7903C389.95 81.1403 391.158 82.3216 391.608 83.7279C392.114 85.3029 391.608 86.9061 391.777 88.4811C391.973 90.2249 392.929 91.8843 393.913 93.4593C394.475 94.3875 395.065 95.3156 395.655 96.2438C398.663 100.884 402.092 105.469 406.111 109.491C407.854 108.675 409.596 107.832 411.451 107.241C415.47 105.947 419.827 105.891 424.071 105.356C428.287 104.85 432.672 103.697 435.651 100.744C437.871 98.5501 439.305 95.3156 441.694 93.3468C444.195 91.2374 448.186 93.0656 451.053 93.375C459.035 94.2469 463.195 87.7498 470.503 86.5123C473.819 85.9217 477.501 86.7936 480.228 88.7624C481.605 89.7749 482.785 91.0124 484.078 92.1374C488.856 96.2438 495.574 98.0719 501.785 97.0032C502.966 96.8063 504.146 96.4969 505.327 96.4969C506.676 96.5532 507.969 96.975 509.149 97.5375C512.775 99.2813 515.192 102.291 517.047 105.694C518.987 109.294 519.83 113.654 522.669 116.719C526.238 120.544 532.056 121.613 535.851 125.241C539.842 129.066 540.966 135.226 545.379 138.601C546.334 139.332 547.374 139.867 548.442 140.317C552.04 141.807 556.143 142.201 559.291 144.564C559.32 144.592 559.376 144.62 559.404 144.648C561.427 143.382 563.451 142.201 565.278 140.373C568.707 136.998 570.337 132.441 570.084 127.716C569.775 121.191 566.206 114.3 561.118 107.916C559.629 106.088 557.998 104.231 556.649 102.347C555.722 101.053 554.935 99.7313 554.429 98.3813C552.49 93.4031 554.682 88.9592 554.991 84.206C555.638 74.5308 547.543 63.1962 534.979 56.221C529.414 53.0991 528.459 52.3116 527.362 48.1209C526.435 44.4645 523.203 41.0332 519.717 37.8831C516.963 35.4081 513.984 32.9612 510.217 31.3299C502.854 28.1517 494.646 29.0798 488.547 31.3299C485.905 32.3143 483.348 33.4956 480.143 33.6362C472.47 33.9737 463.757 28.2079 456.309 28.9111C451.812 29.333 449.198 32.033 447.596 34.8737C442.818 43.5364 439.136 44.4927 428.737 48.9928C419.546 52.9585 410.327 56.9523 401.136 60.9461C397.004 62.7462 392.423 64.2368 390.68 67.9775C389.106 71.2401 387.392 76.2465 389.247 79.7903Z" fill="#86CEA3"/>
<path d="M449.395 209.028C450.632 212.206 451.025 215.778 450.407 219.153C452.487 215.581 456.028 213.05 459.85 212.628C463.673 212.178 467.664 213.893 470.109 217.156C473.96 222.247 473.566 229.672 472.976 236.309C474.719 234.453 477.08 233.103 479.497 233.412C482.617 233.834 484.978 237.013 485.68 240.388C486.383 243.791 485.765 247.335 484.921 250.682C488.772 249.528 493.072 250.513 496.333 253.1C499.593 255.688 501.813 259.766 502.516 264.154C502.91 266.46 502.853 268.991 501.813 271.045C499.649 275.348 493.944 274.363 490.234 274.363C473.595 274.363 456.927 274.363 440.288 274.363C412.66 274.363 385.031 274.363 357.374 274.363C324.995 274.363 292.589 274.363 260.21 274.363C229.293 274.363 198.404 274.363 167.487 274.363C144.299 274.363 121.083 274.363 97.8949 274.363C91.0369 274.363 84.1789 274.532 77.349 274.504C75.2973 274.504 73.4985 275.32 71.5872 275.348C66.7248 275.376 60.8786 274.42 58.9112 269.498C57.2248 265.335 59.3328 260.441 62.0872 257.066C65.2632 253.185 69.957 250.175 74.5946 251.3C73.6952 247.869 74.7351 243.903 77.1523 241.569C79.5695 239.234 83.2514 238.616 86.1745 240.078C86.1464 234.65 87.2988 228.969 90.5591 224.947C94.4659 220.109 105.118 218.225 110.543 220.278C111.245 215.722 111.92 211.418 113.859 207.228C116.501 201.574 120.043 200.027 125.495 200.196C128.166 200.281 130.78 200.927 133.253 201.996C134.209 202.39 139.802 204.781 139.802 206.018C139.689 199.746 139.802 193.165 142.669 187.568C145.535 181.971 152.028 177.696 158.127 179.327C152.787 162.677 180.078 165.799 189.382 165.18C212.373 163.661 235.898 164.87 258.973 164.87C283.51 164.87 308.075 164.87 332.612 164.87C345.035 164.87 357.487 164.87 369.91 164.87C378.932 164.87 388.235 162.339 394.166 171.311C397.089 175.755 397.735 181.465 400.967 185.683C406.251 182.252 413.475 182.055 418.956 185.205C424.549 188.412 427.191 194.149 427.64 200.843C430.732 200.449 432.981 198.649 436.297 198.902C439.726 199.156 443.071 200.674 445.629 203.234C447.259 204.781 448.552 206.806 449.395 209.028Z" fill="#6B9E84"/>
<path d="M229.124 266.234H152.646V272.872H229.124V266.234Z" fill="#6981B7"/>
<path d="M436.522 47.9531H97.0801V286.514H436.522V47.9531Z" fill="#A6CFE4"/>
<path d="M109.644 47.9531H97.0801V51.3282H109.644V47.9531Z" fill="#E3EEFC"/>
<path d="M105.681 50.0078H97.0801V64.8863H105.681V50.0078Z" fill="#E3EEFC"/>
<path d="M109.644 63.5938H97.0801V78.4722H109.644V63.5938Z" fill="#E3EEFC"/>
<path d="M105.681 77.1484H97.0801V92.0269H105.681V77.1484Z" fill="#E3EEFC"/>
<path d="M109.644 90.7344H97.0801V105.613H109.644V90.7344Z" fill="#E3EEFC"/>
<path d="M105.681 104.289H97.0801V119.167H105.681V104.289Z" fill="#E3EEFC"/>
<path d="M109.644 117.844H97.0801V132.722H109.644V117.844Z" fill="#E3EEFC"/>
<path d="M105.681 131.43H97.0801V146.308H105.681V131.43Z" fill="#E3EEFC"/>
<path d="M109.644 144.984H97.0801V159.863H109.644V144.984Z" fill="#E3EEFC"/>
<path d="M105.681 158.57H97.0801V173.449H105.681V158.57Z" fill="#E3EEFC"/>
<path d="M109.644 172.125H97.0801V187.003H109.644V172.125Z" fill="#E3EEFC"/>
<path d="M105.681 185.711H97.0801V200.589H105.681V185.711Z" fill="#E3EEFC"/>
<path d="M109.644 199.266H97.0801V214.144H109.644V199.266Z" fill="#E3EEFC"/>
<path d="M105.681 212.828H97.0801V227.707H105.681V212.828Z" fill="#E3EEFC"/>
<path d="M109.644 226.406H97.0801V241.285H109.644V226.406Z" fill="#E3EEFC"/>
<path d="M105.681 239.969H97.0801V254.847H105.681V239.969Z" fill="#E3EEFC"/>
<path d="M109.644 253.555H97.0801V268.433H109.644V253.555Z" fill="#E3EEFC"/>
<path d="M105.681 267.109H97.0801V281.988H105.681V267.109Z" fill="#E3EEFC"/>
<path d="M436.55 47.9531H423.986V51.3282H436.55V47.9531Z" fill="#E3EEFC"/>
<path d="M436.521 50.0078H427.921V64.8863H436.521V50.0078Z" fill="#E3EEFC"/>
<path d="M436.55 63.5938H423.986V78.4722H436.55V63.5938Z" fill="#E3EEFC"/>
<path d="M436.521 77.1484H427.921V92.0269H436.521V77.1484Z" fill="#E3EEFC"/>
<path d="M436.55 90.7344H423.986V105.613H436.55V90.7344Z" fill="#E3EEFC"/>
<path d="M436.521 104.289H427.921V119.167H436.521V104.289Z" fill="#E3EEFC"/>
<path d="M436.55 117.844H423.986V132.722H436.55V117.844Z" fill="#E3EEFC"/>
<path d="M436.521 131.43H427.921V146.308H436.521V131.43Z" fill="#E3EEFC"/>
<path d="M436.55 144.984H423.986V159.863H436.55V144.984Z" fill="#E3EEFC"/>
<path d="M436.521 158.57H427.921V173.449H436.521V158.57Z" fill="#E3EEFC"/>
<path d="M436.55 172.125H423.986V187.003H436.55V172.125Z" fill="#E3EEFC"/>
<path d="M436.521 185.711H427.921V200.589H436.521V185.711Z" fill="#E3EEFC"/>
<path d="M436.55 199.266H423.986V214.144H436.55V199.266Z" fill="#E3EEFC"/>
<path d="M436.521 212.828H427.921V227.707H436.521V212.828Z" fill="#E3EEFC"/>
<path d="M436.55 226.406H423.986V241.285H436.55V226.406Z" fill="#E3EEFC"/>
<path d="M436.521 239.969H427.921V254.847H436.521V239.969Z" fill="#E3EEFC"/>
<path d="M436.55 253.555H423.986V268.433H436.55V253.555Z" fill="#E3EEFC"/>
<path d="M436.521 267.109H427.921V281.988H436.521V267.109Z" fill="#E3EEFC"/>
<path d="M135.165 156.881C135.165 161.916 131.089 165.966 126.086 165.966C121.055 165.966 117.008 161.888 117.008 156.881C117.008 151.847 121.083 147.797 126.086 147.797C131.089 147.797 135.165 151.875 135.165 156.881Z" fill="#E3EEFC"/>
<path d="M126.087 165.992H130.837L128.448 167.23L126.087 168.467L123.698 167.23L121.309 165.992H126.087Z" fill="#0B478C"/>
<path d="M130.836 164.672H121.336V165.994H130.836V164.672Z" fill="#0B478C"/>
<path d="M122.517 150.668C122.32 150.555 122.011 150.584 121.814 150.668C119.622 151.793 118.385 154.184 118.835 156.631C118.891 156.996 119.903 156.94 119.847 156.631C119.425 154.352 120.465 152.102 122.545 151.034C122.714 150.921 122.686 150.78 122.517 150.668Z" fill="white"/>
<path d="M132.607 158.347C132.466 159.304 132.073 160.204 131.426 160.935C131.117 161.272 132.073 161.441 132.298 161.188C133 160.372 133.45 159.416 133.59 158.347C133.675 158.038 132.663 157.982 132.607 158.347Z" fill="white"/>
<path d="M131.764 180.617H130.977C129.515 180.617 128.335 179.436 128.335 177.974V175.105C128.335 173.642 129.515 172.461 130.977 172.461H131.764C133.225 172.461 134.406 173.642 134.406 175.105V177.974C134.406 179.436 133.225 180.617 131.764 180.617Z" fill="#052F5F"/>
<path d="M131.371 177.388H128.223C126.508 177.388 125.131 175.7 125.131 173.591V166.784C125.131 166.25 125.552 165.828 126.086 165.828C126.621 165.828 127.042 166.25 127.042 166.784V173.619C127.042 174.744 127.66 175.503 128.251 175.503H131.399C131.933 175.503 132.354 175.925 132.354 176.46C132.326 176.966 131.905 177.388 131.371 177.388Z" fill="#0B478C"/>
<path d="M235.73 110.339H146.042L157.116 89.9766H224.656L235.73 110.339Z" fill="#052F5F"/>
<path d="M194.975 110.336H186.825H146.042V121.361H186.825H194.975H235.73V110.336H194.975Z" fill="#052F5F"/>
<path d="M160.995 121.447C160.995 123.753 158.015 125.666 154.193 125.863C153.968 125.863 153.743 125.891 153.518 125.891C152.759 125.891 152.001 125.835 151.298 125.694C148.262 125.131 146.042 123.444 146.042 121.475C146.042 121.447 146.042 121.419 146.042 121.391C146.098 119.45 148.291 117.791 151.298 117.228C152.001 117.088 152.731 117.031 153.518 117.031C153.743 117.031 153.968 117.031 154.193 117.059C157.959 117.256 160.91 119.113 160.995 121.391C160.995 121.391 160.995 121.419 160.995 121.447Z" fill="#052F5F"/>
<path d="M175.948 121.447C175.948 123.697 173.137 125.553 169.455 125.835C169.146 125.863 168.809 125.863 168.471 125.863C167.797 125.863 167.179 125.806 166.56 125.722C163.356 125.216 160.995 123.5 160.995 121.447C160.995 121.419 160.995 121.391 160.995 121.363C161.051 119.338 163.384 117.65 166.56 117.172C167.179 117.087 167.797 117.031 168.471 117.031C168.809 117.031 169.146 117.031 169.455 117.059C173.081 117.341 175.863 119.169 175.948 121.363C175.948 121.391 175.948 121.419 175.948 121.447Z" fill="#052F5F"/>
<path d="M190.9 121.449C190.9 123.642 188.23 125.442 184.717 125.808C184.295 125.864 183.873 125.864 183.424 125.864C182.861 125.864 182.327 125.836 181.822 125.752C178.477 125.33 175.947 123.558 175.947 121.42C175.947 121.392 175.947 121.364 175.947 121.336C176.003 119.255 178.505 117.511 181.822 117.089C182.327 117.033 182.861 116.977 183.424 116.977C183.873 116.977 184.295 117.005 184.717 117.033C188.174 117.398 190.844 119.17 190.9 121.308C190.9 121.392 190.9 121.42 190.9 121.449Z" fill="#052F5F"/>
<path d="M205.825 121.45C205.825 123.56 203.323 125.331 199.95 125.781C199.445 125.838 198.911 125.894 198.348 125.894C197.899 125.894 197.477 125.866 197.055 125.838C193.542 125.472 190.872 123.672 190.872 121.478C190.872 121.45 190.872 121.422 190.872 121.394C190.928 119.256 193.57 117.456 197.055 117.119C197.477 117.063 197.899 117.062 198.348 117.062C198.911 117.062 199.445 117.091 199.95 117.175C203.267 117.597 205.769 119.341 205.825 121.422C205.825 121.394 205.825 121.422 205.825 121.45Z" fill="#052F5F"/>
<path d="M220.777 121.447C220.777 123.5 218.416 125.216 215.212 125.722C214.593 125.806 213.975 125.863 213.301 125.863C212.963 125.863 212.626 125.863 212.317 125.835C208.663 125.553 205.824 123.697 205.824 121.447C205.824 121.419 205.824 121.391 205.824 121.363C205.88 119.141 208.691 117.341 212.317 117.059C212.626 117.031 212.963 117.031 213.301 117.031C213.975 117.031 214.593 117.087 215.212 117.172C218.36 117.678 220.721 119.366 220.777 121.363C220.777 121.391 220.777 121.419 220.777 121.447Z" fill="#052F5F"/>
<path d="M235.73 121.449C235.73 123.445 233.51 125.105 230.474 125.667C229.771 125.808 229.041 125.864 228.254 125.864C228.029 125.864 227.804 125.864 227.579 125.836C223.785 125.639 220.777 123.727 220.777 121.42C220.777 121.392 220.777 121.364 220.777 121.336C220.834 119.058 223.813 117.202 227.579 117.005C227.804 117.005 228.029 116.977 228.254 116.977C229.013 116.977 229.771 117.033 230.474 117.173C233.481 117.736 235.674 119.367 235.73 121.336C235.73 121.392 235.73 121.42 235.73 121.449Z" fill="#052F5F"/>
<path d="M164.817 89.9766L154.333 110.339L154.193 110.593V125.837C153.968 125.837 153.743 125.865 153.518 125.865C152.759 125.865 152.001 125.809 151.298 125.668V110.058L161.641 89.9766H164.817Z" fill="#0B478C"/>
<path d="M175.778 89.9766L169.482 110.339L169.426 110.508V125.837C169.117 125.865 168.78 125.865 168.442 125.865C167.768 125.865 167.15 125.809 166.531 125.724V110.171L172.771 89.9766H175.778Z" fill="#0B478C"/>
<path d="M186.796 89.9734L184.688 110.336V110.393V125.805C184.266 125.862 183.845 125.862 183.395 125.862C182.833 125.862 182.299 125.834 181.793 125.749V110.252V110.196L183.873 89.9453H186.796V89.9734Z" fill="#0B478C"/>
<path d="M199.95 110.279V125.776C199.444 125.832 198.91 125.888 198.348 125.888C197.898 125.888 197.477 125.86 197.055 125.832V110.419V110.363L194.947 90H197.87L199.95 110.279Z" fill="#0B478C"/>
<path d="M215.212 110.171V125.724C214.594 125.809 213.975 125.865 213.301 125.865C212.963 125.865 212.626 125.865 212.317 125.837V110.508L212.261 110.339L205.965 89.9766H208.972L215.212 110.171Z" fill="#0B478C"/>
<path d="M230.474 110.058V125.668C229.772 125.809 229.041 125.865 228.254 125.865C228.029 125.865 227.804 125.865 227.579 125.837V110.593L227.439 110.339L216.955 89.9766H220.131L230.474 110.058Z" fill="#0B478C"/>
<path d="M234.24 109.945H147.279C146.885 109.945 146.885 110.62 147.279 110.62H234.24C234.605 110.62 234.605 109.945 234.24 109.945Z" fill="#0B478C"/>
<path d="M122.854 252.602L126.395 269.477C126.817 271.446 128.587 272.88 130.611 272.88H136.401C138.453 272.88 140.195 271.474 140.617 269.477L144.158 252.602H122.854Z" fill="#EC8161"/>
<path d="M153.714 237.917C153.321 237.354 152.759 236.989 152.112 237.186C153.377 234.626 154.642 231.982 154.782 229.113C154.867 227.285 154.389 225.345 153.265 223.91C152.253 222.588 149.976 222.532 149.583 221.041C149.161 219.466 149.33 217.751 149.02 216.119C148.683 214.516 147.531 212.857 146.013 212.969C145.254 213.026 144.58 213.504 143.905 213.841C143.708 213.954 143.427 214.01 143.259 213.869C143.118 213.757 143.09 213.532 143.062 213.307C142.753 210.888 141.151 208.863 139.352 207.372C138.621 206.754 137.441 206.247 136.878 207.063C136.541 207.513 136.457 208.301 135.923 208.301C135.726 208.301 135.529 208.16 135.389 208.019C134.602 207.316 133.815 206.529 132.831 206.275C131.538 205.91 130.133 206.557 129.121 207.513C128.109 208.497 127.435 209.791 126.76 211.057C126.535 211.451 126.282 211.901 125.861 212.013C125.214 212.154 124.708 211.422 124.118 211.141C122.994 210.607 121.785 211.732 121.111 212.829C120.324 214.151 119.733 215.613 119.424 217.132C119.34 217.498 118.862 221.407 119.115 221.491C117.935 221.07 116.614 222.11 116.164 223.376C115.714 224.67 115.911 226.076 116.108 227.426C116.276 228.607 116.473 229.817 116.642 230.998C115.152 230.942 114.056 232.77 114.14 234.401C114.253 236.032 115.152 237.411 116.052 238.732C116.895 239.97 117.71 241.208 118.553 242.417C118.103 241.77 116.979 244.048 117.007 244.386C117.035 245.511 118.3 246.326 119.059 247.029C120.942 248.801 122.966 250.433 125.383 251.361C127.126 252.036 129.009 252.289 130.892 252.458C137.834 253.048 145.563 252.12 150.847 247.198C153.012 245.201 154.586 242.304 154.248 239.351C154.22 238.901 154.023 238.339 153.714 237.917Z" fill="#6B9E84"/>
<path d="M126.17 219.215C125.748 218.906 125.13 218.934 124.737 219.272C124.259 219.637 124.146 220.341 124.034 220.875C123.781 222.112 123.865 223.406 124.202 224.644C123.809 224.587 123.387 224.7 123.022 224.925C122.488 225.291 122.207 225.938 122.094 226.556C121.813 227.822 122.01 229.172 122.516 230.325C122.825 231 123.247 231.591 123.753 232.125C123.893 232.266 124.427 232.153 124.231 231.985C123.219 230.972 122.6 229.594 122.516 228.159C122.46 227.456 122.516 226.697 122.797 226.022C123.022 225.459 123.64 224.644 124.343 225.037C124.455 225.094 124.877 225.122 124.821 224.897C124.484 223.856 124.371 222.759 124.484 221.662C124.54 221.128 124.624 220.594 124.793 220.116C124.905 219.834 125.271 219.075 125.664 219.384C125.776 219.469 125.917 219.469 126.057 219.44C126.142 219.384 126.282 219.3 126.17 219.215Z" fill="#86CEA3"/>
<path d="M144.973 233.023C144.945 232.657 144.888 232.263 144.776 231.898C144.692 231.588 144.607 231.223 144.411 230.97C144.214 230.688 143.877 230.491 143.539 230.491C143.961 229.366 144.158 228.129 144.073 226.919C144.045 226.329 143.961 225.626 143.596 225.119C143.258 224.669 142.724 224.444 142.162 224.501C142.078 224.501 141.909 224.557 141.965 224.669C142.022 224.782 142.218 224.782 142.303 224.782C142.809 224.726 143.174 225.344 143.314 225.738C143.483 226.273 143.511 226.863 143.511 227.398C143.511 228.551 143.286 229.704 142.837 230.745C142.752 230.97 143.286 230.941 143.371 230.829C143.736 230.351 144.158 231.785 144.214 231.982C144.354 232.573 144.411 233.163 144.383 233.754C144.326 234.963 143.961 236.117 143.258 237.129C143.146 237.298 143.708 237.382 143.792 237.213C144.692 236.004 145.085 234.485 144.973 233.023Z" fill="#86CEA3"/>
<path d="M133.477 244.191C132.887 243.516 132.606 242.644 132.55 241.772C132.522 241.294 132.55 240.816 132.606 240.338C132.634 240.113 132.634 239.888 132.719 239.663C132.747 239.607 132.775 239.494 132.831 239.438C132.831 239.438 132.859 239.466 132.859 239.522C132.887 239.719 133.449 239.719 133.421 239.522C133.365 239.072 132.719 239.044 132.409 239.241C132.185 239.382 132.128 239.607 132.072 239.86C132.016 240.197 131.988 240.535 131.96 240.872C131.875 242.11 132.128 243.376 132.972 244.332C133.084 244.473 133.646 244.388 133.477 244.191Z" fill="#86CEA3"/>
<path d="M138.144 212.744C137.947 212.041 137.328 211.141 136.485 211.506C136.373 211.562 136.401 211.647 136.485 211.703C136.598 211.759 136.738 211.759 136.851 211.703H136.879C136.907 211.731 136.935 211.731 136.991 211.759C137.047 211.816 137.104 211.872 137.16 211.928C137.244 212.041 137.328 212.153 137.385 212.294C137.525 212.575 137.61 212.912 137.666 213.222C137.75 213.953 137.61 214.684 137.413 215.388C137.357 215.556 137.919 215.584 137.975 215.388C138.228 214.544 138.397 213.644 138.144 212.744Z" fill="#86CEA3"/>
<path d="M148.936 242.498C148.515 243.932 147.447 245.141 146.098 245.76C145.985 245.816 146.013 245.901 146.098 245.957C146.21 246.013 146.379 246.013 146.491 245.957C147.925 245.31 149.049 244.073 149.498 242.554C149.555 242.357 148.993 242.301 148.936 242.498Z" fill="#86CEA3"/>
<path d="M125.102 247.087C123.978 246.159 123.388 244.696 123.528 243.234C123.556 243.037 122.994 243.037 122.966 243.234C122.825 244.724 123.444 246.271 124.596 247.227C124.709 247.312 124.877 247.312 124.99 247.284C125.074 247.256 125.186 247.171 125.102 247.087Z" fill="#86CEA3"/>
<path d="M220.327 131.852H161.472V266.854H220.327V131.852Z" fill="#052F5F"/>
<path d="M217.319 135.336H164.423V266.851H217.319V135.336Z" fill="#E3EEFC"/>
<path d="M211.22 139.977H170.578V228.938H211.22V139.977Z" fill="#6981B7"/>
<path d="M211.22 186.859H170.578V188.238H211.22V186.859Z" fill="#E3EEFC"/>
<path d="M190.787 150.438H190.534L183.929 159.55L184.069 159.635L190.646 150.55L197.223 159.635L197.392 159.55L190.787 150.438Z" fill="#052F5F"/>
<path d="M201.523 158.508H179.881V170.827H201.523V158.508Z" fill="#A6CFE4"/>
<path d="M196.127 158.086H185.222L184.406 159.239H196.97L196.127 158.086ZM179.432 158.086V171.108H201.889V158.086H179.432ZM200.736 169.983H180.584V159.239H200.736V169.983Z" fill="#052F5F"/>
<path d="M186.402 162.781C185.418 162.781 184.969 163.456 184.969 164.553C184.969 165.65 185.39 166.297 186.402 166.297C187.386 166.297 187.808 165.594 187.808 164.497C187.808 163.428 187.414 162.781 186.402 162.781ZM186.402 165.875C185.756 165.875 185.531 165.397 185.531 164.553C185.531 163.709 185.756 163.231 186.402 163.231C187.049 163.231 187.245 163.625 187.245 164.497C187.217 165.313 187.021 165.875 186.402 165.875Z" fill="white"/>
<path d="M189.578 162.867H188.397V166.242H188.96V164.948C188.96 164.948 189.156 164.977 189.409 164.977C190.224 164.977 190.618 164.442 190.618 163.88C190.646 163.233 190.252 162.867 189.578 162.867ZM189.269 164.555C189.128 164.555 189.016 164.555 188.96 164.527V163.289H189.522C189.887 163.289 190.028 163.542 190.028 163.908C190.056 164.386 189.718 164.555 189.269 164.555Z" fill="white"/>
<path d="M193.148 165.761C193.148 165.761 192.333 165.789 191.743 165.817V164.692C192.08 164.692 192.895 164.692 192.895 164.692C192.923 164.608 192.951 164.439 192.951 164.383C192.951 164.298 192.951 164.242 192.951 164.242C192.951 164.242 192.136 164.27 191.743 164.27V163.258C192.333 163.258 193.064 163.286 193.064 163.286C193.148 163.145 193.148 163.005 193.148 162.948C193.148 162.892 193.148 162.836 193.148 162.836H191.181V166.211H193.12C193.148 166.07 193.148 165.958 193.148 165.902C193.148 165.845 193.148 165.761 193.148 165.761Z" fill="white"/>
<path d="M195.818 162.867L195.846 164.977V165.933L195.509 164.977L194.638 162.867H193.738V166.242H194.272L194.244 164.133L194.216 163.148L194.553 164.133L195.425 166.242H196.324V162.867H195.818Z" fill="white"/>
<path d="M215.24 193.586H203.632V196.539H215.24V193.586Z" fill="#052F5F"/>
<path d="M211.052 261.54H170.719V234.117H211.052V261.54ZM171.562 260.696H210.208V234.933H171.562V260.696Z" fill="#6981B7"/>
<g opacity="0.2">
<path d="M211.22 152.578V166.669L170.578 202.726V188.663L211.22 152.578Z" fill="white"/>
<path d="M211.22 171.531V175.047L170.578 211.132V207.588L211.22 171.531Z" fill="white"/>
<path d="M211.22 214.117V217.633L198.487 228.939H194.524L211.22 214.117Z" fill="white"/>
<path d="M211.22 201.461V210.264L190.197 228.94H180.247L211.22 201.461Z" fill="white"/>
<path d="M179.797 139.977L170.578 148.161V139.977H179.797Z" fill="white"/>
</g>
<path d="M408.978 99.3125H251.891V245.425H408.978V99.3125Z" fill="#E3EEFC"/>
<path d="M263.509 180.891H278.152V170.737H263.509V180.891Z" fill="#A6CFE4"/>
<path d="M284.803 180.906H272.661V195.363H284.803V180.906Z" fill="#A6CFE4"/>
<path d="M276.525 191.852H280.966V185.355H276.525V191.852Z" fill="#A6CFE4"/>
<path d="M269.429 180.906H257.287V195.363H269.429V180.906Z" fill="#A6CFE4"/>
<path d="M261.129 191.852H265.569V185.355H261.129V191.852Z" fill="#A6CFE4"/>
<path d="M336.265 195.333C337.558 195.333 338.598 195.502 338.598 194.124V188.498C338.598 187.148 337.558 186.023 336.265 186.023C334.973 186.023 333.933 187.12 333.933 188.498V194.124C333.933 195.502 334.973 195.333 336.265 195.333Z" fill="#A6CFE4"/>
<path d="M334.976 187.594L337.534 187.594L337.534 185.287L334.976 185.288L334.976 187.594Z" fill="#A6CFE4"/>
<path d="M337.446 182.818L337.699 185.378C337.699 185.519 337.615 185.631 337.503 185.631H335.029C334.917 185.631 334.804 185.519 334.832 185.378L335.085 182.818C335.085 182.706 335.198 182.622 335.282 182.622H337.25C337.334 182.593 337.446 182.706 337.446 182.818Z" fill="#A6CFE4"/>
<path d="M337.137 181.745L337.306 183.377C337.334 183.545 337.193 183.686 337.053 183.686H335.479C335.31 183.686 335.198 183.545 335.226 183.377L335.395 181.745C335.395 181.605 335.507 181.492 335.648 181.492H336.912C337.025 181.492 337.137 181.605 337.137 181.745Z" fill="#A6CFE4"/>
<path d="M336.519 178.175L336.828 182.309C336.828 182.45 336.715 182.591 336.575 182.591H335.872C335.732 182.591 335.619 182.45 335.619 182.309L335.9 178.175C335.9 178.034 336.013 177.922 336.153 177.922H336.237C336.406 177.922 336.519 178.034 336.519 178.175Z" fill="#A6CFE4"/>
<path d="M333.68 182.813H338.852C338.992 182.813 339.105 182.7 339.105 182.531C339.105 182.391 338.992 182.25 338.852 182.25H333.68C333.54 182.25 333.427 182.362 333.427 182.531C333.399 182.672 333.511 182.813 333.68 182.813Z" fill="#A6CFE4"/>
<path d="M334.669 193.391L337.817 193.391L337.817 188.131L334.669 188.131L334.669 193.391Z" fill="#A6CFE4"/>
<path d="M346.16 195.333C347.453 195.333 348.493 195.502 348.493 194.124V188.498C348.493 187.148 347.453 186.023 346.16 186.023C344.867 186.023 343.827 187.12 343.827 188.498V194.124C343.855 195.502 344.895 195.333 346.16 195.333Z" fill="#A6CFE4"/>
<path d="M344.88 187.594L347.438 187.594L347.437 185.287L344.88 185.288L344.88 187.594Z" fill="#A6CFE4"/>
<path d="M347.368 182.818L347.621 185.378C347.621 185.519 347.537 185.631 347.424 185.631H344.951C344.839 185.631 344.726 185.519 344.754 185.378L345.007 182.818C345.007 182.706 345.12 182.622 345.204 182.622H347.172C347.256 182.593 347.34 182.706 347.368 182.818Z" fill="#A6CFE4"/>
<path d="M347.059 181.745L347.228 183.377C347.256 183.545 347.115 183.686 346.975 183.686H345.401C345.232 183.686 345.12 183.545 345.148 183.377L345.316 181.745C345.316 181.605 345.429 181.492 345.569 181.492H346.806C346.919 181.492 347.031 181.605 347.059 181.745Z" fill="#A6CFE4"/>
<path d="M346.441 178.175L346.751 182.309C346.751 182.45 346.638 182.591 346.498 182.591H345.795C345.654 182.591 345.542 182.45 345.542 182.309L345.823 178.175C345.823 178.034 345.935 177.922 346.076 177.922H346.16C346.329 177.922 346.441 178.034 346.441 178.175Z" fill="#A6CFE4"/>
<path d="M343.574 182.813H348.746C348.886 182.813 348.999 182.7 348.999 182.531C348.999 182.391 348.886 182.25 348.746 182.25H343.574C343.434 182.25 343.321 182.362 343.321 182.531C343.321 182.672 343.434 182.813 343.574 182.813Z" fill="#A6CFE4"/>
<path d="M344.6 193.391L347.748 193.391L347.748 188.131L344.6 188.131L344.6 193.391Z" fill="#A6CFE4"/>
<path d="M361.309 195.332H360.326C358.471 195.332 356.981 193.841 357.009 191.985L357.037 174.941C357.037 173.084 358.527 171.594 360.382 171.594H361.366C363.221 171.594 364.71 173.084 364.682 174.941L364.654 191.985C364.626 193.841 363.136 195.332 361.309 195.332Z" fill="#A6CFE4"/>
<path d="M364.654 187.425L364.682 177.891H358.808V187.425H364.654Z" fill="#A6CFE4"/>
<path d="M362.434 165.519V166.925V167.656C362.434 167.881 362.265 168.05 362.068 168.05H359.735C359.539 168.05 359.37 167.881 359.37 167.656V166.925V165.519C359.37 165.294 359.539 165.125 359.735 165.125H362.068C362.293 165.125 362.434 165.322 362.434 165.519Z" fill="#A6CFE4"/>
<path d="M361.141 171.593H360.55C359.539 171.593 358.724 170.777 358.752 169.765V169.23C358.752 168.218 359.567 167.402 360.579 167.43H361.169C362.181 167.43 362.968 168.246 362.968 169.259V169.793C362.968 170.805 362.153 171.593 361.141 171.593Z" fill="#A6CFE4"/>
<path d="M370.388 166.813L361.872 166.784C361.703 166.784 361.591 166.644 361.591 166.475V166.391C361.591 166.222 361.731 166.109 361.9 166.109L370.416 166.137L370.388 166.813Z" fill="#A6CFE4"/>
<path d="M371.147 167.181L370.135 167.012C369.994 166.984 369.91 166.871 369.91 166.731V166.309C369.91 166.168 370.023 166.028 370.135 166.028L371.147 165.859C371.484 165.803 371.765 166.084 371.765 166.421V166.646C371.765 166.956 371.484 167.237 371.147 167.181Z" fill="#A6CFE4"/>
<path d="M372.636 195.338H371.821C370.332 195.338 369.123 194.128 369.123 192.638L369.151 178.856C369.151 177.366 370.36 176.156 371.849 176.156H372.664C374.154 176.156 375.363 177.366 375.363 178.856L375.335 192.638C375.335 194.128 374.126 195.338 372.636 195.338Z" fill="#A6CFE4"/>
<path d="M375.362 188.949V181.242H370.612V188.949H375.362Z" fill="#A6CFE4"/>
<path d="M373.564 171.231V172.356V172.947C373.564 173.116 373.423 173.256 373.255 173.256H371.372C371.203 173.256 371.062 173.116 371.062 172.947V172.356V171.231C371.062 171.063 371.203 170.922 371.372 170.922H373.255C373.423 170.922 373.564 171.063 373.564 171.231Z" fill="#A6CFE4"/>
<path d="M372.524 176.156H372.046C371.231 176.156 370.585 175.481 370.585 174.694V174.244C370.585 173.428 371.259 172.781 372.046 172.781H372.524C373.339 172.781 373.986 173.456 373.986 174.244V174.694C373.986 175.481 373.311 176.156 372.524 176.156Z" fill="#A6CFE4"/>
<path d="M380.001 172.27L373.115 172.242C372.974 172.242 372.89 172.13 372.89 171.989V171.905C372.89 171.764 373.002 171.68 373.143 171.68L380.029 171.708L380.001 172.27Z" fill="#A6CFE4"/>
<path d="M380.591 172.551L379.776 172.41C379.663 172.382 379.579 172.298 379.579 172.185V171.82C379.579 171.707 379.663 171.595 379.776 171.595L380.591 171.454C380.872 171.398 381.097 171.623 381.097 171.904V172.073C381.125 172.382 380.872 172.607 380.591 172.551Z" fill="#A6CFE4"/>
<path d="M393.772 186.503L393.829 194.238C393.829 194.857 394.25 195.363 394.756 195.363L402.008 195.307C402.514 195.307 402.935 194.8 402.935 194.182L402.879 186.447C402.879 185.463 402.767 184.506 402.542 183.578C402.12 181.806 401.305 180.175 400.181 178.881L399.872 178.516L396.696 178.544L396.386 178.909C395.262 180.231 394.475 181.863 394.082 183.634C393.857 184.563 393.772 185.519 393.772 186.503Z" fill="#A6CFE4"/>
<path d="M396.077 178.542L400.462 178.514L400.237 175.477C400.209 175.223 400.04 175.055 399.815 175.055L396.695 175.083C396.471 175.083 396.274 175.28 396.274 175.505L396.077 178.542Z" fill="#A6CFE4"/>
<path d="M381.35 186.503L381.406 194.238C381.406 194.857 381.827 195.363 382.333 195.363L389.585 195.307C390.091 195.307 390.512 194.8 390.512 194.182L390.456 186.447C390.456 185.463 390.344 184.506 390.119 183.578C389.697 181.806 388.882 180.175 387.758 178.881L387.449 178.516L384.273 178.544L383.964 178.909C382.839 180.231 382.052 181.863 381.659 183.634C381.434 184.563 381.35 185.519 381.35 186.503Z" fill="#A6CFE4"/>
<path d="M383.654 178.542L388.039 178.514L387.814 175.477C387.786 175.223 387.617 175.055 387.392 175.055L384.273 175.083C384.048 175.083 383.851 175.28 383.851 175.505L383.654 178.542Z" fill="#A6CFE4"/>
<path d="M303.579 188.474C303.832 188.474 304.028 188.221 304.028 187.911V174.523C304.028 174.214 304.225 173.961 304.478 173.961H310.746C310.999 173.961 311.195 174.214 311.195 174.523V187.911C311.195 188.221 311.392 188.474 311.645 188.474C311.898 188.474 312.095 188.727 312.095 189.036V190.724C312.095 191.033 311.898 191.286 311.645 191.286C311.392 191.286 311.195 191.539 311.195 191.849V194.774C311.195 195.083 310.999 195.336 310.746 195.336H304.478C304.225 195.336 304.028 195.083 304.028 194.774V191.849C304.028 191.539 303.832 191.286 303.579 191.286C303.326 191.286 303.129 191.033 303.129 190.724V189.036C303.157 188.727 303.354 188.474 303.579 188.474Z" fill="#A6CFE4"/>
<path d="M304.422 175.223H310.774C311.252 175.223 311.645 174.83 311.645 174.352V174.098C311.645 173.62 311.252 173.227 310.774 173.227H304.422C303.944 173.227 303.551 173.62 303.551 174.098V174.352C303.551 174.83 303.944 175.223 304.422 175.223Z" fill="#A6CFE4"/>
<path d="M291.717 188.474C291.97 188.474 292.167 188.221 292.167 187.911V174.523C292.167 174.214 292.364 173.961 292.617 173.961H298.884C299.137 173.961 299.334 174.214 299.334 174.523V187.911C299.334 188.221 299.531 188.474 299.784 188.474C300.037 188.474 300.234 188.727 300.234 189.036V190.724C300.234 191.033 300.037 191.286 299.784 191.286C299.531 191.286 299.334 191.539 299.334 191.849V194.774C299.334 195.083 299.137 195.336 298.884 195.336H292.617C292.364 195.336 292.167 195.083 292.167 194.774V191.849C292.167 191.539 291.97 191.286 291.717 191.286C291.464 191.286 291.268 191.033 291.268 190.724V189.036C291.296 188.727 291.492 188.474 291.717 188.474Z" fill="#A6CFE4"/>
<path d="M292.561 175.223H298.913C299.391 175.223 299.784 174.83 299.784 174.352V174.098C299.784 173.62 299.391 173.227 298.913 173.227H292.561C292.083 173.227 291.689 173.62 291.689 174.098V174.352C291.689 174.83 292.083 175.223 292.561 175.223Z" fill="#A6CFE4"/>
<path d="M314.905 189.031V190.719C314.905 190.888 314.961 191.028 315.046 191.113C315.13 191.225 315.243 191.282 315.355 191.282C315.608 191.282 315.805 191.535 315.805 191.844V194.769C315.805 195.078 316.001 195.332 316.254 195.332H322.522C322.775 195.332 322.972 195.078 322.972 194.769V191.844C322.972 191.675 323.028 191.535 323.112 191.45C323.197 191.338 323.309 191.282 323.422 191.282C323.674 191.282 323.871 191.028 323.871 190.719V189.031C323.871 188.863 323.815 188.722 323.731 188.638C323.646 188.525 323.534 188.469 323.422 188.469C323.169 188.469 322.972 188.216 322.972 187.906V179.75H315.833V187.906C315.833 188.216 315.636 188.469 315.383 188.469C315.102 188.469 314.905 188.722 314.905 189.031Z" fill="#A6CFE4"/>
<path d="M315.299 179.778V181.719C315.299 181.747 315.327 181.747 315.327 181.747H323.337C323.365 181.747 323.365 181.719 323.365 181.719V179.778C323.365 179.75 323.337 179.75 323.337 179.75H315.327C315.299 179.75 315.299 179.75 315.299 179.778Z" fill="#A6CFE4"/>
<path d="M270.582 139.622C270.834 139.622 271.031 139.369 271.031 139.06V125.672C271.031 125.363 271.228 125.109 271.481 125.109H277.749C278.002 125.109 278.198 125.363 278.198 125.672V139.06C278.198 139.369 278.395 139.622 278.648 139.622C278.901 139.622 279.098 139.875 279.098 140.185V141.872C279.098 142.182 278.901 142.435 278.648 142.435C278.395 142.435 278.198 142.688 278.198 142.997V145.922C278.198 146.232 278.002 146.485 277.749 146.485H271.481C271.228 146.485 271.031 146.232 271.031 145.922V142.997C271.031 142.688 270.834 142.435 270.582 142.435C270.329 142.435 270.132 142.182 270.132 141.872V140.185C270.16 139.875 270.329 139.622 270.582 139.622Z" fill="#A6CFE4"/>
<path d="M271.424 126.372H277.776C278.254 126.372 278.648 125.978 278.648 125.5V125.247C278.648 124.769 278.254 124.375 277.776 124.375H271.424C270.947 124.375 270.553 124.769 270.553 125.247V125.5C270.525 125.978 270.947 126.372 271.424 126.372Z" fill="#A6CFE4"/>
<path d="M258.72 139.622C258.973 139.622 259.17 139.369 259.17 139.06V125.672C259.17 125.363 259.367 125.109 259.62 125.109H265.887C266.14 125.109 266.337 125.363 266.337 125.672V139.06C266.337 139.369 266.534 139.622 266.787 139.622C267.04 139.622 267.236 139.875 267.236 140.185V141.872C267.236 142.182 267.04 142.435 266.787 142.435C266.534 142.435 266.337 142.688 266.337 142.997V145.922C266.337 146.232 266.14 146.485 265.887 146.485H259.62C259.367 146.485 259.17 146.232 259.17 145.922V142.997C259.17 142.688 258.973 142.435 258.72 142.435C258.467 142.435 258.271 142.182 258.271 141.872V140.185C258.271 139.875 258.467 139.622 258.72 139.622Z" fill="#A6CFE4"/>
<path d="M259.563 126.372H265.915C266.393 126.372 266.787 125.978 266.787 125.5V125.247C266.787 124.769 266.393 124.375 265.915 124.375H259.563C259.085 124.375 258.692 124.769 258.692 125.247V125.5C258.664 125.978 259.057 126.372 259.563 126.372Z" fill="#A6CFE4"/>
<path d="M281.88 140.18V141.867C281.88 142.036 281.936 142.177 282.02 142.261C282.105 142.374 282.217 142.43 282.33 142.43C282.583 142.43 282.779 142.683 282.779 142.992V145.918C282.779 146.227 282.976 146.48 283.229 146.48H289.497C289.75 146.48 289.946 146.227 289.946 145.918V142.992C289.946 142.824 290.003 142.683 290.087 142.599C290.171 142.486 290.284 142.43 290.396 142.43C290.649 142.43 290.846 142.177 290.846 141.867V140.18C290.846 140.011 290.79 139.871 290.705 139.786C290.621 139.674 290.509 139.617 290.396 139.617C290.143 139.617 289.946 139.364 289.946 139.055V130.898H282.807V139.055C282.807 139.364 282.611 139.617 282.358 139.617C282.077 139.617 281.88 139.871 281.88 140.18Z" fill="#A6CFE4"/>
<path d="M282.273 130.927V132.867C282.273 132.895 282.302 132.895 282.302 132.895H290.312C290.34 132.895 290.34 132.867 290.34 132.867V130.927C290.34 130.898 290.312 130.898 290.312 130.898H282.302C282.302 130.898 282.273 130.898 282.273 130.927Z" fill="#A6CFE4"/>
<path d="M337.981 123.758H329.521V146.455H337.981V123.758Z" fill="#A6CFE4"/>
<path d="M331.6 135.742H335.9V127.164H331.6V135.742Z" fill="#A6CFE4"/>
<path d="M326.851 123.758H318.391V146.455H326.851V123.758Z" fill="#A6CFE4"/>
<path d="M320.488 135.742H324.788V127.164H320.488V135.742Z" fill="#A6CFE4"/>
<path d="M343.293 126.992H346.919H348.746L347.481 143.418H346.919H343.293H342.759L341.494 126.992H343.293Z" fill="#A6CFE4"/>
<path d="M342.753 146.461H347.475V143.423H342.753V146.461Z" fill="#A6CFE4"/>
<path d="M353.552 126.992H357.177H359.004L357.74 143.418H357.177H353.552H353.018L351.753 126.992H353.552Z" fill="#A6CFE4"/>
<path d="M353.012 146.461H357.733V143.423H353.012V146.461Z" fill="#A6CFE4"/>
<path d="M306.586 131.297H298.828V138.919H306.586V131.297Z" fill="#A6CFE4"/>
<path d="M315.13 131.297H307.373V138.919H315.13V131.297Z" fill="#A6CFE4"/>
<path d="M310.801 123.703H303.044V131.325H310.801V123.703Z" fill="#A6CFE4"/>
<path d="M314.006 138.859H306.249V146.481H314.006V138.859Z" fill="#A6CFE4"/>
<path d="M305.602 138.859H297.845V146.481H305.602V138.859Z" fill="#A6CFE4"/>
<path d="M307.654 138.781H313.725C313.781 138.781 313.922 138.809 313.922 138.894C313.922 138.978 313.781 139.006 313.725 139.006H307.654C307.598 139.006 307.457 138.978 307.457 138.894C307.457 138.781 307.598 138.781 307.654 138.781Z" fill="#A6CFE4"/>
<path d="M299.137 138.781H305.208C305.264 138.781 305.405 138.809 305.405 138.894C305.405 138.978 305.264 139.006 305.208 139.006H299.137C299.081 139.006 298.94 138.978 298.94 138.894C298.94 138.781 299.081 138.781 299.137 138.781Z" fill="#A6CFE4"/>
<path d="M392.451 137.061L392.507 145.302C392.507 145.949 392.957 146.483 393.491 146.483L401.248 146.427C401.783 146.427 402.232 145.893 402.232 145.218L402.176 136.977C402.176 135.936 402.035 134.924 401.811 133.939C401.361 132.055 400.49 130.311 399.309 128.933L398.972 128.539L395.599 128.567L395.262 128.961C394.081 130.367 393.238 132.111 392.817 133.995C392.564 134.98 392.451 136.02 392.451 137.061Z" fill="#A6CFE4"/>
<path d="M394.925 128.564L399.59 128.536L399.366 125.302C399.338 125.048 399.141 124.852 398.888 124.852L395.571 124.88C395.318 124.88 395.122 125.077 395.122 125.33L394.925 128.564Z" fill="#A6CFE4"/>
<path d="M364.794 131.661V143.783C364.794 145.274 365.918 146.483 367.324 146.483H370.696C372.102 146.483 373.226 145.274 373.226 143.783V131.661C373.226 129.158 371.343 127.133 369.01 127.133C367.858 127.133 366.79 127.639 366.031 128.455C365.272 129.27 364.794 130.395 364.794 131.661Z" fill="#A6CFE4"/>
<path d="M367.112 128.414H370.935V119.611H367.112V128.414Z" fill="#A6CFE4"/>
<path d="M367.112 125.188H370.935V119.591H367.112V125.188Z" fill="#A6CFE4"/>
<path d="M376.431 129.074V143.333C376.431 145.077 377.752 146.511 379.382 146.511H383.345C384.975 146.511 386.296 145.077 386.296 143.333V129.074C386.296 126.148 384.076 123.758 381.349 123.758C379.972 123.758 378.735 124.348 377.864 125.305C376.965 126.289 376.431 127.611 376.431 129.074Z" fill="#A6CFE4"/>
<path d="M379.144 125.273H383.613V114.923H379.144V125.273Z" fill="#A6CFE4"/>
<path d="M379.144 121.484H383.613V114.931H379.144V121.484Z" fill="#A6CFE4"/>
<path d="M356.47 229.75H371.113V219.597H356.47V229.75Z" fill="#A6CFE4"/>
<path d="M377.779 229.727H365.637V244.183H377.779V229.727Z" fill="#A6CFE4"/>
<path d="M369.487 240.703H373.928V234.206H369.487V240.703Z" fill="#A6CFE4"/>
<path d="M362.405 229.727H350.263V244.183H362.405V229.727Z" fill="#A6CFE4"/>
<path d="M354.09 240.703H358.531V234.206H354.09V240.703Z" fill="#A6CFE4"/>
<path d="M344.642 221.492H336.182V244.19H344.642V221.492Z" fill="#A6CFE4"/>
<path d="M338.293 233.469H342.594V224.89H338.293V233.469Z" fill="#A6CFE4"/>
<path d="M385.649 224.727H389.275H391.074L389.809 241.152H389.275H385.649H385.087L383.822 224.727H385.649Z" fill="#A6CFE4"/>
<path d="M385.098 244.195H389.82V241.158H385.098V244.195Z" fill="#A6CFE4"/>
<path d="M395.908 224.727H399.534H401.332L400.068 241.152H399.534H395.908H395.346L394.081 224.727H395.908Z" fill="#A6CFE4"/>
<path d="M395.358 244.195H400.08V241.158H395.358V244.195Z" fill="#A6CFE4"/>
<path d="M307.484 234.741L307.541 242.982C307.541 243.628 307.99 244.163 308.524 244.163L316.282 244.107C316.816 244.107 317.265 243.572 317.265 242.897L317.209 234.656C317.209 233.616 317.069 232.603 316.844 231.619C316.394 229.734 315.523 227.991 314.342 226.613L314.005 226.219L310.632 226.247L310.295 226.641C309.115 228.047 308.271 229.791 307.85 231.675C307.597 232.688 307.484 233.728 307.484 234.741Z" fill="#A6CFE4"/>
<path d="M309.986 226.275L314.652 226.247L314.427 223.013C314.399 222.759 314.202 222.562 313.949 222.562L310.633 222.591C310.38 222.591 310.183 222.788 310.183 223.041L309.986 226.275Z" fill="#A6CFE4"/>
<path d="M295.005 234.741L295.061 242.982C295.061 243.628 295.511 244.163 296.045 244.163L303.802 244.107C304.337 244.107 304.786 243.572 304.786 242.897L304.73 234.656C304.73 233.616 304.589 232.603 304.365 231.619C303.915 229.734 303.044 227.991 301.863 226.613L301.526 226.219L298.153 226.247L297.816 226.641C296.635 228.047 295.792 229.791 295.371 231.675C295.089 232.688 294.977 233.728 295.005 234.741Z" fill="#A6CFE4"/>
<path d="M297.479 226.275L302.144 226.247L301.919 223.013C301.891 222.759 301.695 222.562 301.442 222.562L298.125 222.591C297.872 222.591 297.675 222.788 297.675 223.041L297.479 226.275Z" fill="#A6CFE4"/>
<path d="M258.86 229.333V241.455C258.86 242.946 259.985 244.155 261.39 244.155H264.763C266.168 244.155 267.292 242.946 267.292 241.455V229.333C267.292 226.83 265.409 224.805 263.076 224.805C261.924 224.805 260.856 225.311 260.097 226.127C259.338 226.97 258.86 228.095 258.86 229.333Z" fill="#A6CFE4"/>
<path d="M261.172 226.133H264.994V217.33H261.172V226.133Z" fill="#A6CFE4"/>
<path d="M261.172 222.898H264.994V217.301H261.172V222.898Z" fill="#A6CFE4"/>
<path d="M270.637 229.333V241.455C270.637 242.946 271.761 244.155 273.166 244.155H276.539C277.944 244.155 279.069 242.946 279.069 241.455V229.333C279.069 226.83 277.186 224.805 274.853 224.805C273.7 224.805 272.632 225.311 271.873 226.127C271.086 226.97 270.637 228.095 270.637 229.333Z" fill="#A6CFE4"/>
<path d="M272.911 226.133H276.733V217.33H272.911V226.133Z" fill="#A6CFE4"/>
<path d="M272.911 222.898H276.733V217.301H272.911V222.898Z" fill="#A6CFE4"/>
<path d="M282.245 226.753V241.013C282.245 242.757 283.566 244.191 285.196 244.191H289.159C290.789 244.191 292.111 242.757 292.111 241.013V226.753C292.111 223.828 289.89 221.438 287.164 221.438C285.787 221.438 284.55 222.028 283.679 222.984C282.807 223.969 282.245 225.291 282.245 226.753Z" fill="#A6CFE4"/>
<path d="M284.971 222.961H289.439V212.611H284.971V222.961Z" fill="#A6CFE4"/>
<path d="M284.971 219.172H289.439V212.619H284.971V219.172Z" fill="#A6CFE4"/>
<path d="M324.236 225.484H329.239L330.644 241.263C330.785 242.838 329.632 244.188 328.143 244.188H325.304C323.842 244.188 322.662 242.838 322.802 241.263L324.236 225.484Z" fill="#A6CFE4"/>
<path d="M324.255 225.469H329.258V221.7H324.255V225.469Z" fill="#A6CFE4"/>
<g opacity="0.4">
<path d="M397.426 99.3125L251.891 228.493V198.455L363.558 99.3125H397.426Z" fill="white"/>
<path d="M408.978 99.4531V106.963L253.015 245.425H251.891V238.9L408.978 99.4531Z" fill="white"/>
<path d="M408.978 184.391V191.9L348.689 245.423H340.201L408.978 184.391Z" fill="white"/>
<path d="M301.021 99.3125L251.891 142.935V135.398L292.561 99.3125H301.021Z" fill="white"/>
<path d="M408.978 157.336V176.152L330.954 245.425H309.762L408.978 157.336Z" fill="white"/>
</g>
<path d="M409.484 146.625H251.356V149.184H409.484V146.625Z" fill="#052F5F"/>
<path d="M409.484 195.391H251.356V197.95H409.484V195.391Z" fill="#052F5F"/>
<path d="M410.158 246.636H250.682V98.1328H410.13V246.636H410.158ZM253.071 244.245H407.769V100.495H253.071V244.245Z" fill="#052F5F"/>
<path d="M445.151 63.282L445.32 63.1132C439.558 54.1974 435.736 44.2972 434.077 34.0032V28.6875H99.6098V33.9751C97.9515 44.2972 94.129 54.1693 88.3672 63.0851L88.5358 63.2539H445.151V63.282Z" fill="#0B478C"/>
<path d="M445.292 63.1172H88.3389V73.8612H445.292V63.1172Z" fill="#052F5F"/>
<path d="M434.105 26.0469H99.6377V33.9783H434.105V26.0469Z" fill="#052F5F"/>
<path d="M384.526 1.79688H149.134V47.6416H384.526V1.79688Z" fill="#E3EEFC"/>
<path d="M386.324 49.4729H147.307V0H386.324V49.4729ZM150.932 45.8447H382.699V3.6282H150.932V45.8447Z" fill="#A6CFE4"/>
<path d="M182.271 15.0469H188.905C192.727 15.0469 194.976 17.2125 194.976 20.8407C194.976 24.1314 192.643 27.1409 188.118 27.1409C186.656 27.169 185.504 27.0284 185.504 27.0284V34.4254H182.271V15.0469ZM187.162 24.7221C189.748 24.7221 191.631 23.7377 191.631 21.0658C191.631 18.9282 190.816 17.5501 188.708 17.5501H185.504V24.6377C185.785 24.6658 186.375 24.7221 187.162 24.7221Z" fill="#052F5F"/>
<path d="M197.898 15.0469H201.131V23.2877H208.691V15.0469H211.924V34.4254H208.691V25.7627H201.131V34.4254H197.898V15.0469Z" fill="#052F5F"/>
<path d="M219.625 15.0469H224.488L230.278 34.4254H227.045L225.275 28.4909H219.007L217.32 34.4254H214.004L219.625 15.0469ZM224.6 26.0159L221.986 16.5094L219.625 26.0159H224.6Z" fill="#052F5F"/>
<path d="M232.386 15.0469H239.159C242.982 15.0469 245.005 17.2407 245.005 20.5595C245.005 22.9783 243.825 25.0033 241.211 25.9315C242.673 28.7159 244.528 31.6691 245.989 34.4254H242.504L238.26 26.4096H238.063C236.995 26.4096 235.477 26.1565 235.477 26.1565V34.3973H232.357V15.0469H232.386ZM238.175 23.9908C240.565 23.9908 241.773 22.8939 241.773 20.6439C241.773 18.647 240.649 17.5501 238.681 17.5501H235.505V23.9064C235.843 23.9346 237.136 23.9908 238.175 23.9908Z" fill="#052F5F"/>
<path d="M248.94 15.0469H253.802L256.585 24.7221L257.625 28.8847L258.665 24.7221L261.391 15.0469H266.253L267.321 34.4254H264.23L263.639 20.4189L263.724 16.6782C262.403 20.6439 260.801 27.1971 259.48 31.1066H255.826L251.469 16.65L251.526 20.5032L251.048 34.4535H247.956L248.94 15.0469Z" fill="#052F5F"/>
<path d="M274.292 15.0469H279.155L284.945 34.4254H281.712L279.942 28.4909H273.674L271.987 34.4254H268.671L274.292 15.0469ZM279.267 26.0159L276.653 16.5094L274.292 26.0159H279.267Z" fill="#052F5F"/>
<path d="M294.248 14.6797C296.469 14.6797 298.858 15.4672 298.858 15.4672C298.858 15.4672 298.773 16.7047 298.127 18.0548C298.127 18.0548 296.356 17.3235 294.248 17.3235C290.875 17.3235 288.739 20.1361 288.739 24.9174C288.739 29.6706 290.875 32.1738 294.248 32.1738C296.384 32.1738 298.267 31.4144 298.267 31.4144C298.267 31.4144 298.83 32.4832 298.773 34.0301C298.773 34.0301 296.497 34.7895 294.248 34.7895C288.514 34.7895 285.535 31.4144 285.535 24.8893C285.535 18.3923 288.627 14.6797 294.248 14.6797Z" fill="#052F5F"/>
<path d="M305.575 27.1409L299.757 15.0469H303.242L306.334 22.3033L307.149 24.8065L307.964 22.3033L311.112 15.0469H314.597L308.807 27.1409V34.4254H305.575V27.1409Z" fill="#052F5F"/>
<path d="M331.489 23.0877H351.389V26.2378H331.489V23.0877ZM339.668 14.4531H343.182V35.0129H339.668V14.4531Z" fill="#052F5F"/>
<path d="M567.246 272.68H0V292.002H567.246V272.68Z" fill="#052F5F"/>
</g>
<defs>
<clipPath id="clip0_451_18336">
<rect width="570" height="292" fill="white"/>
</clipPath>
</defs>
</svg>
