<svg width="666" height="619" viewBox="0 0 666 619" fill="none" xmlns="http://www.w3.org/2000/svg">
<path d="M62.84 388.372C121.889 467.179 271.16 544.439 366.913 547.713C561.024 554.35 592.333 491.595 630.834 431.959C685.936 346.609 664.21 207.821 642.521 130.181C621.006 53.1717 561.564 -2.06386 484.17 0.0591625C415.091 1.95748 394.831 50.331 331.307 75.6329C278.09 96.8363 232.455 86.4056 179.336 78.1885C124.975 69.7836 67.9051 92.7378 36.3543 150.13C-8.95588 232.539 14.3935 323.705 62.84 388.372Z" fill="#4E9FCA" fill-opacity="0.5"/>
<path d="M330.585 301.561C368.318 296.041 413.658 288.672 428.937 246.483C433.11 234.969 442.247 222.453 453.169 229.023C466.67 237.146 459.398 256.783 453.239 266.379C429.356 303.57 379.997 317.214 330.675 316.845L330.585 301.561Z" fill="#F18E7F"/>
<path d="M342.476 296.199C340.568 295.022 337.488 293.748 336.945 296.189C336.462 298.359 337.542 299.235 340.014 300.533C335.704 301.2 335.741 304.148 339.819 305.379C336.341 308.522 337.736 312.597 342.379 310.591C339.729 312.674 335.328 316.4 339.33 319.415C343.419 322.501 347.427 316.229 350.61 314.478L342.476 296.199Z" fill="#EAF6FD"/>
<path d="M346.011 289.591C337.947 292.706 342.778 316.375 354.917 320.366C382.64 329.482 445.232 298.475 464.513 251.011C478.923 229.898 447.248 208.288 432.841 229.401C406.453 277.104 380.199 276.359 346.011 289.591Z" fill="#DB4444"/>
<path d="M320.381 618.999C497.323 618.999 640.763 603.073 640.763 583.427C640.763 563.781 497.323 547.855 320.381 547.855C143.44 547.855 0 563.781 0 583.427C0 603.073 143.44 618.999 320.381 618.999Z" fill="#A9ABAE" fill-opacity="0.5"/>
<path d="M657.014 106.43H417.321V558.802H657.014V106.43Z" fill="#945D3A"/>
<path d="M637.183 126.254H437.148V538.976H637.183V126.254Z" fill="#A9ABAE"/>
<mask id="mask0_387_18430" style="mask-type:luminance" maskUnits="userSpaceOnUse" x="437" y="126" width="201" height="413">
<path d="M637.183 126.254H437.148V538.976H637.183V126.254Z" fill="white"/>
</mask>
<g mask="url(#mask0_387_18430)">
<path d="M637.183 450.156H437.148V538.971H637.183V450.156Z" fill="#B67D4D"/>
</g>
<path d="M640.763 558.802L556.62 596.094H540.371V143.722L640.763 106.43V558.802Z" fill="#945D3A"/>
<path d="M657.015 558.802L556.62 596.094V143.722L657.015 106.43V558.802Z" fill="#C78F5F"/>
<path d="M580.962 383.401C580.962 378.547 578.637 374.613 575.766 374.613C572.898 374.613 570.57 378.547 570.57 383.401C570.57 388.254 572.898 392.188 575.766 392.188C578.634 392.184 580.962 388.254 580.962 383.401Z" fill="#F3C252"/>
<path d="M586.597 387.365C585.01 387.365 583.514 386.406 582.9 384.836C582.105 382.793 583.115 380.499 585.158 379.701L614.757 368.167C616.803 367.369 619.097 368.385 619.892 370.424C620.687 372.463 619.677 374.761 617.638 375.556L588.033 387.09C587.566 387.281 587.077 387.365 586.597 387.365Z" fill="#FFD96F"/>
<path d="M586.597 387.366H577.809C575.622 387.366 573.844 385.591 573.844 383.398C573.844 381.208 575.622 379.434 577.809 379.434H586.597C588.787 379.434 590.562 381.208 590.562 383.398C590.562 385.591 588.787 387.366 586.597 387.366Z" fill="#FFD96F"/>
<path d="M269.744 311.66C231.898 306.994 186.4 300.659 170.165 258.829C165.734 247.412 156.315 235.107 145.541 241.925C132.227 250.354 139.942 269.82 146.322 279.278C171.043 315.916 220.701 328.433 269.999 326.943L269.744 311.66Z" fill="#F18E7F"/>
<path d="M351.037 281.98H231.17V419.478H351.037V281.98Z" fill="#4E9FCA"/>
<path d="M317.417 281.979H314.057C314.057 264.506 303.761 250.289 291.104 250.289C278.446 250.289 268.151 264.506 268.151 281.979H264.791C264.791 262.651 276.594 246.93 291.104 246.93C305.613 246.93 317.417 262.651 317.417 281.979Z" fill="#4E9FCA"/>
<path d="M337.835 365.626C334.875 369.817 326.244 368.819 318.558 363.399C310.868 357.975 307.033 350.18 309.989 345.985C312.948 341.79 321.58 342.788 329.269 348.212C336.956 353.636 340.791 361.434 337.835 365.626Z" fill="#FCC551"/>
<path d="M327.204 348.283C320.876 344.367 314.178 343.841 311.772 347.248C309.37 350.654 312.113 356.788 317.926 361.436L327.204 348.283Z" fill="#FFD96F"/>
<path d="M329.898 350.18L320.619 363.33C326.945 367.243 333.646 367.772 336.051 364.365C338.451 360.959 335.707 354.825 329.898 350.18Z" fill="#FFD96F"/>
<path d="M304.359 388.876C304.359 396.089 310.2 401.935 317.417 401.935C320.455 401.935 323.249 400.887 325.467 399.142L307.147 380.824C305.407 383.042 304.359 385.835 304.359 388.876Z" fill="#FFD96F"/>
<path d="M307.144 380.823L325.463 399.141C326.292 398.49 327.034 397.749 327.685 396.923L309.365 378.605C308.536 379.256 307.794 379.997 307.144 380.823Z" fill="#FFD96F"/>
<path d="M327.684 396.927C329.43 394.71 330.475 391.916 330.475 388.876C330.475 381.663 324.625 375.816 317.414 375.816C314.373 375.816 311.582 376.867 309.364 378.607L327.684 396.927Z" fill="#FFD96F"/>
<path d="M308.019 381.699C306.493 383.689 305.576 386.175 305.576 388.875C305.576 395.412 310.879 400.714 317.417 400.714C320.12 400.714 322.601 399.795 324.594 398.271L308.019 381.699Z" fill="white"/>
<path d="M310.234 379.481L326.812 396.053C328.335 394.061 329.255 391.577 329.255 388.875C329.255 382.337 323.952 377.035 317.414 377.035C314.711 377.038 312.23 377.958 310.234 379.481Z" fill="white"/>
<path d="M298.55 392.446C295.734 395.258 291.495 395.774 288.157 393.994C290.353 393.948 293.159 392.596 295.543 390.21L306.552 379.199L299.31 371.964L288.301 382.971C285.917 385.352 284.566 388.158 284.519 390.357C282.736 387.019 283.249 382.781 286.064 379.965C286.064 379.965 286.064 379.965 286.064 379.959L296.688 369.343L296.197 368.852L284.741 380.306C281.021 384.022 281.021 390.05 284.741 393.769C288.457 397.485 294.489 397.485 298.205 393.769L309.665 382.314L309.174 381.823L298.55 392.446Z" fill="#FFD96F"/>
<path d="M307.659 357.396L296.196 368.851L296.687 369.342L307.318 358.719C310.13 355.904 314.369 355.391 317.707 357.171C315.508 357.218 312.705 358.575 310.321 360.956L299.312 371.966L306.554 379.201L317.563 368.2C319.95 365.81 321.305 363.008 321.348 360.815C323.125 364.149 322.612 368.391 319.797 371.203L309.173 381.826L309.664 382.317L321.123 370.862C321.126 370.862 321.126 370.862 321.126 370.862C324.84 367.146 324.84 361.118 321.126 357.399C317.404 353.68 311.375 353.68 307.659 357.396Z" fill="#007BBC"/>
<path d="M310.318 360.956C312.705 358.576 315.508 357.218 317.704 357.172C314.366 355.392 310.127 355.908 307.315 358.72L296.685 369.343L299.306 371.964L310.318 360.956Z" fill="white"/>
<path d="M286.063 379.966C283.248 382.782 282.734 387.02 284.518 390.358C284.565 388.159 285.916 385.353 288.3 382.972L299.309 371.965L296.687 369.344L286.063 379.96C286.063 379.966 286.063 379.966 286.063 379.966Z" fill="white"/>
<path d="M288.157 393.999C291.495 395.778 295.737 395.262 298.55 392.45L309.174 381.828L306.552 379.203L295.543 390.214C293.156 392.6 290.353 393.952 288.157 393.999Z" fill="#FCC551"/>
<path d="M319.797 371.201C322.613 368.389 323.126 364.147 321.349 360.812C321.302 363.005 319.947 365.808 317.563 368.198L306.555 379.199L309.176 381.823L319.797 371.201Z" fill="#052F5F"/>
<path d="M334.03 290.872L329.676 287.703L328.981 287.828L304.292 321.755L304.702 322.052L309.028 325.199L309.438 325.496L334.124 291.569L334.03 290.872Z" fill="white"/>
<path d="M312.515 316.552L330.909 291.277L327.493 294.678L311.901 316.104L312.515 316.552Z" fill="#052F5F"/>
<path d="M313.684 317.4L305.656 331.023L300.241 327.085L310.734 315.258L313.684 317.4Z" fill="#052F5F"/>
<path d="M310.737 315.259C312.142 315.036 313.456 315.994 313.678 317.398L310.737 315.259Z" fill="#052F5F"/>
<path d="M303.61 321.225L303.162 321.84L309.743 326.631L310.19 326.017L303.61 321.225Z" fill="white"/>
<path d="M303.07 334.49L305.166 331.609L305.773 332.047L306.22 331.434L299.638 326.645L299.188 327.261L300.311 328.077L299.795 327.699L297.699 330.58L292.665 328.919L249.09 388.795L262.664 398.676L306.242 338.797L303.07 334.49Z" fill="white"/>
<path d="M301.775 334.541L298.049 331.829L293.009 330.168L286.023 339.768L286.424 340.056L297.561 348.16L297.958 348.448L304.944 338.848L301.775 334.541Z" fill="#052F5F"/>
<path d="M288.652 341.712L247.013 398.938L249.502 400.748L291.142 343.523L288.652 341.712Z" fill="#052F5F"/>
<path d="M292.844 344.728L251.197 401.953L253.684 403.762L295.331 346.537L292.844 344.728Z" fill="#052F5F"/>
<path d="M291.197 343.521L249.55 400.746L251.197 401.944L292.843 344.719L291.197 343.521Z" fill="#4E9FCA"/>
<path d="M245.945 385.225L245.347 386.047L266.367 401.362L266.966 400.54L245.945 385.225Z" fill="white"/>
<path d="M243.56 396.426L242.438 397.969L256.02 407.844L257.142 406.3L243.56 396.426Z" fill="#052F5F"/>
<path d="M179.034 272.186C167.596 277.076 156.158 281.963 144.72 286.853C141.459 279.23 138.199 271.603 134.938 263.979C125.161 241.099 159.479 226.432 169.256 249.313C172.517 256.936 175.777 264.56 179.034 272.186Z" fill="#E73861"/>
<path d="M248.988 587.737C248.955 585.235 245.701 581.66 241.763 579.789L212.44 566.765C205.952 566.856 205.238 566.601 198.747 566.692C192.069 572.856 189.835 582.019 192.877 588.958L248.998 588.848C249.002 588.492 248.995 588.123 248.988 587.737Z" fill="#052F5F"/>
<path d="M192.881 588.958C193.418 590.169 194.092 591.322 194.954 592.369C214.02 592.104 229.99 592.553 249.052 592.288C249.052 592.288 249.035 590.812 249.002 588.844L192.881 588.958Z" fill="#D7D6D6"/>
<path d="M182.543 360.02L124.138 376.259C133.547 413.149 149.302 444.199 165.597 477.718C164.732 512.988 172.816 543.79 191.097 575.311L215.932 567.02C204.913 495.944 203.062 446.275 182.543 360.02Z" fill="#B67D4D"/>
<path d="M156.926 591.268C156.892 588.766 153.638 585.187 149.697 583.319L120.377 570.293C113.886 570.383 113.175 570.128 106.685 570.219C100.003 576.387 97.7721 585.543 100.814 592.482L156.936 592.368C156.936 592.019 156.929 591.651 156.926 591.268Z" fill="#052F5F"/>
<path d="M100.817 592.485C101.351 593.696 102.028 594.85 102.887 595.896C121.953 595.631 137.923 596.081 156.985 595.816C156.985 595.816 156.969 594.343 156.938 592.371L100.817 592.485Z" fill="#D7D6D6"/>
<path d="M110.378 362.203C109.624 368.827 109.134 375.344 108.829 381.8C107.373 412.227 110.355 441.161 113.099 471.786C99.7652 504.443 96.3739 536.104 102.267 572.054L128.431 573.124C142.449 507.126 157.319 461.603 168.569 383.651C169.314 378.5 170.038 373.211 170.749 367.761L110.378 362.203Z" fill="#D28D58"/>
<path d="M156.903 265.679C149.899 252.665 118.201 260.011 122.585 280.345C126.768 299.734 138.616 332.405 188.098 343.221C187.629 336.104 187.22 328.491 187.082 320.944C186.985 315.665 187.025 310.426 187.27 305.409C174.983 299.483 163.149 277.283 156.903 265.679Z" fill="#FCC551"/>
<path d="M188.098 343.225C138.615 332.406 126.768 299.739 122.585 280.35C118.201 260.015 149.899 252.67 156.903 265.683C163.149 277.284 174.983 299.487 187.266 305.417C187.367 303.311 187.501 301.238 187.679 299.226C190.594 266.632 183.365 237.701 163.726 225.775C147.621 215.995 124.524 226.191 113.679 247.344C98.3599 277.217 105.216 346.529 107.064 378.569C120.133 380.511 170.035 385.408 190.023 373.468C190.003 370 189.675 365.046 189.249 359.173C188.896 354.377 188.477 348.961 188.098 343.225Z" fill="#FFD96F"/>
<path d="M107.862 266.585L108.449 280.269C125.64 239.089 150.103 245.338 157.999 261.306C155.51 240.88 126.09 226.737 107.862 266.585Z" fill="#052F5F"/>
<path d="M157.999 261.305C158.318 263.924 158.201 266.644 157.553 269.371C150.301 299.932 117.855 338.237 107.654 355.12L108.077 364.917C118.277 348.033 152.689 308.045 159.945 277.481C161.27 271.896 160.398 266.151 157.999 261.305Z" fill="#052F5F"/>
<path d="M150.67 240.014C144.102 240.014 138.775 234.688 138.775 228.118V200.24C138.775 193.67 144.102 188.344 150.67 188.344C157.241 188.344 162.568 193.673 162.568 200.24V228.118C162.568 234.688 157.241 240.014 150.67 240.014Z" fill="#F5AE8B"/>
<path d="M156.997 208.53C161.984 212.672 164.047 218.424 161.602 221.365C159.157 224.307 153.132 223.331 148.141 219.182C143.153 215.04 141.09 209.295 143.536 206.353C145.981 203.408 152.009 204.384 156.997 208.53Z" fill="#F18E7F"/>
<path d="M179.594 172.801C188.087 189.906 183.304 209.563 168.921 216.707C154.531 223.848 135.978 215.778 127.488 198.673C118.998 181.568 123.771 161.911 138.165 154.767C152.552 147.62 171.101 155.696 179.594 172.801Z" fill="#F5AE8B"/>
<path d="M183.361 169.182C179.329 176.842 166.56 174.092 165.459 181.628C162.041 205.075 151.116 186.555 149.11 194.145C145.26 208.681 144.196 218.139 130.447 208.359C119.035 200.246 113.39 165.945 135.465 154.002C152.065 145.02 166.274 150.93 175.066 156.702C182.073 161.297 185.807 164.547 183.361 169.182Z" fill="#B44822"/>
<path d="M171.399 157.883C187.51 152.476 202.568 150.162 205.026 152.714C207.485 155.27 196.413 161.72 180.298 167.126L171.399 157.883Z" fill="#052F5F"/>
<path d="M170.115 183.728C169.998 183.728 169.88 183.698 169.776 183.638C169.437 183.447 169.317 183.021 169.505 182.685C171.031 179.975 174.227 177.413 177.924 177.815C178.31 177.856 178.585 178.204 178.544 178.587C178.501 178.972 178.135 179.247 177.773 179.207C174.684 178.872 172.024 181.059 170.726 183.373C170.598 183.601 170.36 183.728 170.115 183.728Z" fill="#B44822"/>
<path d="M177.515 184.928C177.847 186.571 177.424 188.04 176.579 188.208C175.734 188.375 174.781 187.185 174.452 185.538C174.12 183.898 174.543 182.429 175.385 182.258C176.233 182.09 177.186 183.284 177.515 184.928Z" fill="#B44822"/>
<path d="M172.063 199.058C173.479 204.894 179.419 202.741 181.335 198.938L172.063 199.058Z" fill="white"/>
<path d="M181.215 183.523C181.215 183.523 188.272 189.574 186.924 191.539C185.082 194.229 181.567 193.729 181.567 193.729L181.215 183.523Z" fill="#F5AE8B"/>
<path d="M118.562 187.838C112.162 168.771 120.796 148.677 137.846 142.959C154.896 137.24 173.902 148.057 180.299 167.12L118.562 187.838Z" fill="#4E9FCA"/>
<path d="M155.671 209.228L155.275 208.997C152.635 207.451 150.213 205.643 148.08 203.624C144.971 200.686 143.324 197.195 143.676 194.287C143.917 192.261 145.132 190.567 147.188 189.397C147.959 188.957 148.999 188.746 150.371 188.746C152.35 188.746 154.819 189.199 157.204 189.638C159.065 189.984 160.994 190.336 162.692 190.48L163.238 190.524L163.141 191.06C161.886 197.946 158.177 205.61 155.939 208.853L155.671 209.228ZM150.368 189.732C149.174 189.732 148.295 189.903 147.678 190.255C145.883 191.282 144.867 192.677 144.659 194.401C144.35 196.963 145.923 200.22 148.761 202.906C150.733 204.771 152.957 206.455 155.376 207.904C157.519 204.634 160.796 197.751 162.061 191.412C160.458 191.245 158.717 190.923 157.023 190.614C154.678 190.178 152.256 189.732 150.368 189.732Z" fill="white"/>
<path d="M184.948 185.066C184.74 184.885 184.432 184.912 184.254 185.117C182.362 187.297 174.446 190.49 165.077 190.577L164.893 190.58C164.249 190.58 163.531 190.543 162.692 190.476C162.407 190.446 162.209 190.627 162.162 190.882C160.935 197.623 157.305 205.116 155.118 208.289C155.041 208.406 155.014 208.54 155.044 208.678C155.075 208.812 155.158 208.926 155.276 208.996C162.836 213.43 171.38 215.332 179.487 216.731C179.514 216.734 179.544 216.737 179.571 216.737C179.725 216.737 179.87 216.667 179.964 216.546C183.969 211.371 188.832 203.379 189.235 194.695C189.413 190.882 188.799 188.35 184.948 185.066Z" fill="white"/>
<path d="M155.071 190.731C158.033 194.887 158.2 199.854 155.436 201.819C152.676 203.781 148.037 202.004 145.078 197.845C142.113 193.686 141.952 188.726 144.709 186.757C147.473 184.792 152.112 186.573 155.071 190.731Z" fill="#F5AE8B"/>
<path d="M257.388 328.027C219.541 323.365 174.043 317.026 157.808 275.196C153.377 263.779 143.958 251.474 133.184 258.292C119.871 266.721 127.586 286.187 133.966 295.641C158.687 332.283 208.344 344.796 257.643 343.311L257.388 328.027Z" fill="#F5AE8B"/>
<path d="M273.12 333.649C276.236 333.112 278.829 332.418 280.291 331.667C281.264 331.167 281.65 329.973 281.15 328.997C280.647 328.024 279.463 327.635 278.48 328.138C275.297 329.768 262.936 331.512 254.845 330.419C253.758 330.268 252.762 331.033 252.618 332.116C252.47 333.199 253.228 334.199 254.315 334.346C259.803 335.091 267.354 334.641 273.12 333.649Z" fill="#F5AE8B"/>
<path d="M277.624 337.468C280.523 336.968 282.938 336.358 284.001 335.771C284.96 335.241 285.302 334.033 284.772 333.078C284.242 332.122 283.032 331.77 282.079 332.306C280.029 333.44 267.491 335.211 263.211 334.409C262.134 334.204 261.098 334.915 260.896 335.992C260.692 337.069 261.403 338.102 262.48 338.303C265.673 338.9 272.422 338.363 277.624 337.468Z" fill="#F5AE8B"/>
<path d="M279.932 342.043C281.106 341.838 282.049 341.593 282.626 341.312C283.612 340.832 284.018 339.645 283.535 338.659C283.055 337.676 281.864 337.267 280.882 337.75C279.221 338.561 268.36 339.283 264.563 338.015C263.526 337.669 262.403 338.229 262.057 339.269C261.712 340.309 262.272 341.429 263.312 341.778C266.824 342.952 275.233 342.851 279.932 342.043Z" fill="#F5AE8B"/>
<path d="M277.986 347.08C278.308 347.023 278.583 346.96 278.808 346.886C279.844 346.534 280.405 345.41 280.052 344.37C279.703 343.334 278.583 342.774 277.537 343.129C275.836 343.706 267.729 343.227 265.364 341.687C264.445 341.087 263.217 341.345 262.62 342.261C262.019 343.18 262.281 344.407 263.197 345.004C266.414 347.104 274.625 347.661 277.986 347.08Z" fill="#F5AE8B"/>
<path d="M262.383 348.954C265.391 348.471 267.629 347.233 269.178 345.318C271.594 342.34 272.07 337.926 270.634 331.825L270.342 330.075L268.323 330.333C263.064 331.376 259.981 329.96 259.437 328.642C259.008 327.603 260.333 326.489 261.001 326.01C262.591 325.446 264.154 324.681 265.562 323.333C266.357 322.578 266.381 321.321 265.626 320.533C264.871 319.734 263.61 319.714 262.822 320.469C260.977 322.24 258.284 322.669 255.932 323.417C249.878 325.342 245.192 330.363 245.041 335.099C244.897 339.576 246.007 343.094 248.338 345.556C250.562 347.907 256.479 349.899 262.383 348.954Z" fill="#F5AE8B"/>
<path d="M166.683 288.556C155.241 293.446 143.803 298.333 132.365 303.223C129.108 295.599 125.847 287.972 122.587 280.346C112.809 257.469 147.127 242.799 156.905 265.679C160.162 273.309 163.426 280.929 166.683 288.556Z" fill="#FFD96F"/>
<path d="M108.775 271.022C108.775 275.12 105.42 278.474 101.321 278.474H52.3918C48.2928 278.474 44.9385 275.12 44.9385 271.022V237.761C44.9385 233.663 48.2928 230.309 52.3918 230.309H101.321C105.42 230.309 108.775 233.663 108.775 237.761V271.022Z" fill="#4E9FCA"/>
<path d="M83.3821 358.006C83.3821 361.082 80.8664 363.597 77.7905 363.597H45.2939C42.2179 363.597 39.7021 361.082 39.7021 358.006V298.88C39.7021 295.805 42.2179 293.289 45.2939 293.289H77.7905C80.8664 293.289 83.3821 295.805 83.3821 298.88V358.006Z" fill="#4E9FCA"/>
<path d="M108.774 364.476C108.774 368.061 105.839 370.996 102.253 370.996H55.635C52.0493 370.996 49.1143 368.061 49.1143 364.476V246.438C49.1143 242.853 52.0493 239.918 55.635 239.918H102.253C105.839 239.918 108.774 242.853 108.774 246.438V364.476Z" fill="#052F5F"/>
<path d="M71.9707 356.858V350.523C71.9707 349.007 72.2591 347.672 72.8361 346.508C73.413 345.344 74.2281 344.442 75.278 343.798C76.3279 343.154 77.5489 342.832 78.9443 342.832C80.3397 342.832 81.5607 343.154 82.6106 343.798C83.6605 344.442 84.4756 345.348 85.0492 346.508C85.6261 347.668 85.9179 349.007 85.9179 350.523V356.858H71.9707ZM83.268 350.68C83.268 349.285 82.8789 348.175 82.1041 347.343C81.3259 346.515 80.2726 346.099 78.9443 346.099C77.616 346.099 76.5627 346.515 75.7845 347.343C75.0063 348.175 74.6172 349.285 74.6172 350.68V353.628H83.2647V350.68H83.268Z" fill="#B1DCDE"/>
<path d="M83.3284 329.605H85.9179V340.402H71.9707V329.864H74.5602V337.195H77.5892V330.719H80.0982V337.195H83.325V329.605H83.3284Z" fill="#B1DCDE"/>
<path d="M71.9707 327.032V323.805H83.2882V316.812H85.9179V327.032H71.9707Z" fill="#B1DCDE"/>
<path d="M71.9707 315V311.773H85.9179V315H71.9707Z" fill="#B1DCDE"/>
<path d="M71.9707 295.137L85.9179 301.174V304.36L71.9707 310.377V306.889L81.933 302.646L71.9707 298.343V295.137Z" fill="#B1DCDE"/>
<path d="M83.3284 283.184H85.9179V293.983H71.9707V283.445H74.5602V290.777H77.5892V284.3H80.0982V290.777H83.325V283.184H83.3284Z" fill="#B1DCDE"/>
<path d="M85.9179 271.726L82.0337 274.416V274.577V277.388H85.9179V280.614H71.9707V274.577C71.9707 273.343 72.1786 272.27 72.5878 271.357C73.0004 270.448 73.5841 269.747 74.3421 269.254C75.1002 268.765 75.9958 268.52 77.0323 268.52C78.0688 268.52 78.9611 268.768 79.7124 269.268C80.4638 269.764 81.0374 270.472 81.4366 271.391L85.9213 268.262V271.726H85.9179ZM75.2277 272.545C74.8084 273.048 74.6004 273.786 74.6004 274.755V277.384H79.4608V274.755C79.4608 273.786 79.2496 273.048 78.8236 272.545C78.3976 272.038 77.8005 271.787 77.029 271.787C76.2474 271.787 75.647 272.038 75.2277 272.545Z" fill="#B1DCDE"/>
<path d="M80.977 259.474H85.9179V262.701H80.9368L71.9707 268.1V264.673L78.1695 260.946L71.9707 257.22V254.051L80.977 259.474Z" fill="#B1DCDE"/>
<path d="M392.123 575.95C392.157 573.451 395.407 569.873 399.348 567.998L428.669 554.971C435.159 555.062 435.87 554.81 442.361 554.898C449.039 561.062 451.273 570.225 448.228 577.164L392.106 577.054C392.11 576.701 392.117 576.336 392.123 575.95Z" fill="#E5A344"/>
<path d="M448.228 577.169C447.694 578.38 447.02 579.534 446.158 580.587C427.092 580.315 411.122 580.768 392.06 580.503C392.06 580.503 392.076 579.027 392.107 577.059L448.228 577.169Z" fill="#D7D6D6"/>
<path d="M473.174 344.144L413.584 332.996C397.118 418.997 429.101 485.176 424.248 556.94L445.061 557.862C457.922 513.504 456.258 475.232 443.136 453.616C455.413 419.138 467.549 378.271 473.174 344.144Z" fill="#F18E7F"/>
<path d="M468.176 578.016C467.488 575.612 469.575 571.252 472.812 568.324L497.151 547.422C503.393 545.644 504 545.198 510.243 543.414C518.41 547.402 523.187 555.532 522.261 563.055L468.478 579.076C468.377 578.737 468.28 578.385 468.176 578.016Z" fill="#F3C252"/>
<path d="M522.265 563.059C522.104 564.37 521.788 565.671 521.262 566.922C502.924 572.148 487.759 577.168 469.424 582.394C469.424 582.394 469.018 580.975 468.481 579.084L522.265 563.059Z" fill="#D7D6D6"/>
<path d="M485.571 336.693C481.868 317.971 463.711 305.763 444.964 309.415C426.462 313.014 414.295 330.723 417.432 349.203C436.424 351.161 467.471 345.104 485.571 336.693Z" fill="#E51F5C"/>
<path d="M487.215 451.536C485.927 420.335 487.825 390.263 482.133 359.77C482.633 358.841 483.079 357.881 483.488 356.909C484.83 353.743 485.699 350.369 486.054 346.87C486.386 343.59 486.259 340.206 485.598 336.799C485.592 336.765 485.581 336.728 485.571 336.691C467.471 345.103 436.42 351.157 417.432 349.198C417.479 349.477 417.519 349.758 417.572 350.037C417.982 352.129 422.839 368.916 423.238 370.341C444.649 446.7 472.161 485.622 494.759 549.467L513.063 545.04C509.951 505.494 503.883 471.532 487.215 451.536Z" fill="#F5AE8B"/>
<path d="M408.617 492.768C408.795 502.071 411.18 511.835 419.801 499.66C420.72 508.94 431.068 509.997 435.103 502.262C435.707 511.046 448.436 512.25 448.782 502.712C452.998 510.966 467.123 509.437 468.975 500.109C471.155 511.687 488.44 506.529 487.447 496.054C488.202 506.696 502.152 501.937 500.935 492.026C505.242 504.936 518.334 498.194 517.626 486.596C517.871 491.778 522 495.981 525.633 490.943C530.208 484.604 519.316 469.24 518.079 463.035L408.617 492.768Z" fill="#EAF6FD"/>
<path d="M482.714 308.77C472.081 284.444 475.643 276.991 476.287 247.913C476.998 215.746 456.557 204.127 437.974 207.421C416.939 211.154 400.063 244.327 397.43 255.141C395.243 264.112 396.293 271.115 398.651 277.592C408.597 273.862 417.113 264.619 421.088 247.819C426.814 223.61 459.039 227.129 458.177 251.991C456.684 294.998 431.034 346.629 406.487 367.835C403.116 391.407 405.232 455.53 408.657 493.936C437.461 498.903 507.962 492.42 522.265 474.657C516.891 403.622 496.249 339.74 482.714 308.77Z" fill="#DB4444"/>
<path d="M458.177 251.992C459.043 227.13 426.818 223.608 421.088 247.82C417.114 264.62 408.597 273.863 398.651 277.593C402.036 286.886 408.124 295.09 411.25 306.456C415.205 320.831 410.472 339.989 406.487 367.836C431.031 346.633 456.685 295 458.177 251.992Z" fill="#DB4444"/>
<path d="M447.302 203.024C448.385 204.742 442.656 210.302 434.505 215.441C426.354 220.579 418.867 223.349 417.784 221.632C416.7 219.911 422.43 214.354 430.581 209.216C438.732 204.078 446.218 201.307 447.302 203.024Z" fill="#EAF6FD"/>
<path d="M453.826 206.813C457.442 211.512 453.622 220.518 445.293 226.927C436.964 233.336 427.277 234.721 423.661 230.023C420.045 225.324 423.866 216.318 432.194 209.909C440.523 203.5 450.207 202.115 453.826 206.813Z" fill="#EAF6FD"/>
<path d="M438.198 219.226C430.775 220.188 426.304 216.818 426.304 210.247V182.37C426.304 175.799 431.627 170.477 438.198 170.477C444.769 170.477 450.096 175.803 450.096 182.37V210.247C450.096 216.818 445.621 218.26 438.198 219.226Z" fill="#F5AE8B"/>
<path d="M431.879 190.765C426.895 194.907 424.832 200.656 427.274 203.597C429.719 206.538 435.744 205.566 440.735 201.417C445.723 197.275 447.782 191.53 445.34 188.585C442.895 185.644 436.871 186.62 431.879 190.765Z" fill="#F18E7F"/>
<path d="M409.284 155.038C400.791 172.143 405.574 191.8 419.957 198.944C434.348 206.085 452.897 198.012 461.394 180.91C469.883 163.805 465.107 144.148 450.717 137.004C436.327 129.86 417.777 137.933 409.284 155.038Z" fill="#F5AE8B"/>
<path d="M418.76 165.964C418.512 165.964 418.277 165.833 418.146 165.605C416.851 163.291 414.178 161.115 411.102 161.44C410.71 161.483 410.374 161.202 410.331 160.819C410.287 160.434 410.566 160.092 410.951 160.048C414.651 159.656 417.844 162.205 419.367 164.921C419.558 165.257 419.438 165.686 419.099 165.874C418.995 165.934 418.877 165.964 418.76 165.964Z" fill="#DFE9F0"/>
<path d="M411.364 167.159C411.035 168.802 411.455 170.271 412.3 170.439C413.145 170.606 414.098 169.416 414.426 167.772C414.755 166.129 414.336 164.663 413.491 164.492C412.645 164.325 411.693 165.515 411.364 167.159Z" fill="#86371B"/>
<path d="M417.305 180.199C416.037 186.894 408.463 189.952 408.463 182.983L417.305 180.199Z" fill="white"/>
<path d="M406.775 165.758C404.917 172.194 399.507 172.224 400.855 174.186C402.697 176.876 406.269 177.339 406.269 177.339L406.775 165.758Z" fill="#F5AE8B"/>
<path d="M414.018 176.476C408.969 176.476 404.86 172.368 404.86 167.32C404.86 162.273 408.969 158.164 414.018 158.164C419.066 158.164 423.175 162.273 423.175 167.32C423.175 172.368 419.069 176.476 414.018 176.476ZM414.018 159.485C409.697 159.485 406.182 163 406.182 167.32C406.182 171.64 409.697 175.155 414.018 175.155C418.338 175.155 421.853 171.64 421.853 167.32C421.853 163 418.341 159.485 414.018 159.485Z" fill="#86371B"/>
<path d="M441.134 178.549C441.01 178.549 440.882 178.513 440.771 178.439C440.466 178.238 440.386 177.828 440.587 177.523L440.872 177.097C441.888 175.588 443.15 173.713 442.677 172.026C442.103 169.994 439.393 169.081 437.095 168.511C432.49 167.371 427.522 167.066 423.477 167.679C423.108 167.736 422.779 167.485 422.725 167.126C422.671 166.764 422.92 166.428 423.279 166.375C427.495 165.738 432.644 166.049 437.414 167.23C440.06 167.884 443.19 168.981 443.948 171.667C444.589 173.941 443.133 176.101 441.969 177.835L441.69 178.254C441.56 178.445 441.348 178.549 441.134 178.549Z" fill="#86371B"/>
<path d="M496.225 197.219C495.829 189.434 491.012 185.212 483.66 184.105C486.085 179.104 488.258 172.554 484.904 167.466C481.989 163.046 475.784 162.006 472.976 157.532C470.001 152.783 471.745 149.513 471.983 144.851C472.446 135.789 458.479 127.156 449.476 130.684C447.896 126.408 443.485 125.942 438.199 126.334C429.347 126.995 419.102 133.277 412.313 139.075C409.459 141.517 404.578 146.32 406.188 150.63C408.419 156.59 420.793 157.468 426.059 156.647C426.261 160.232 427.193 162.865 430.417 164.666C433.013 166.118 438.648 165.87 439.919 169.033C441.13 172.051 437.233 176.347 436.703 179.265C435.861 183.89 438.138 183.833 440.396 186.782C442.291 189.253 441.741 189.109 439.936 192.154C437.947 195.512 435.978 198.933 436.592 203.001C438.98 218.818 464.725 223.886 476.921 220.757C487.574 218.023 496.812 208.793 496.225 197.219Z" fill="#DFE9F0"/>
<path d="M462.306 216.237C457.147 216.237 452.78 214.544 451.713 207.42C450.962 202.396 452.045 197.526 455.124 192.096C456.929 188.92 457.466 186.793 456.818 185.412C455.889 183.419 452.29 182.769 447.731 181.94C445.216 181.484 443.807 180.73 443.3 179.569C442.606 177.976 443.834 176.051 445.132 174.008C445.86 172.865 446.615 171.684 447.087 170.497C447.711 168.941 447.762 167.666 447.242 166.603C446.101 164.265 442.23 163.142 438.487 162.058C434.23 160.824 429.826 159.546 428.615 156.367C427.864 154.391 428.427 151.95 430.343 148.904C430.483 148.68 430.779 148.612 431.003 148.753C431.228 148.894 431.295 149.189 431.154 149.414C429.41 152.188 428.873 154.351 429.511 156.025C430.551 158.758 434.723 159.969 438.755 161.139C442.881 162.337 446.779 163.467 448.104 166.184C448.748 167.505 448.708 169.031 447.976 170.856C447.466 172.123 446.692 173.344 445.94 174.525C444.78 176.346 443.686 178.063 444.176 179.187C444.535 180.005 445.786 180.616 447.902 180.998C452.917 181.91 456.543 182.568 457.684 185.006C458.485 186.716 457.952 189.051 455.953 192.569C452.984 197.801 451.938 202.476 452.656 207.279C453.783 214.805 458.754 215.832 465.872 215.06C466.133 215.033 466.371 215.221 466.398 215.483C466.428 215.744 466.237 215.983 465.976 216.009C464.735 216.147 463.5 216.237 462.306 216.237Z" fill="#A2AFBB"/>
<path d="M453.34 211.643C450.419 211.643 447.514 210.663 445.545 208.886C444.116 207.598 442.563 205.321 443.277 201.806C443.868 198.894 445.622 196.463 447.319 194.112C448.537 192.425 449.795 190.681 450.58 188.803C450.68 188.558 450.962 188.444 451.207 188.544C451.452 188.645 451.566 188.927 451.465 189.171C450.637 191.154 449.345 192.941 448.097 194.672C446.383 197.046 444.767 199.287 444.217 201.997C443.593 205.072 444.944 207.055 446.189 208.178C448.711 210.455 453.132 211.304 456.705 210.19C456.956 210.113 457.225 210.254 457.305 210.506C457.386 210.757 457.241 211.026 456.99 211.106C455.816 211.468 454.575 211.643 453.34 211.643Z" fill="#A2AFBB"/>
<path d="M472.215 184.809C472.117 184.809 472.017 184.779 471.93 184.715C471.718 184.558 471.671 184.256 471.829 184.045C474.459 180.499 478.289 174.117 474.395 171.186C473.301 170.364 471.695 170.005 470.138 169.66C467.153 168.996 463.769 168.244 463.705 163.941C463.681 162.305 464.218 160.859 464.691 159.585C465.164 158.317 465.536 157.317 465.14 156.693C464.748 156.076 463.557 155.684 461.491 155.499C460.931 155.449 460.059 155.463 459.049 155.476C455.383 155.526 450.358 155.593 448.761 153.236C448.131 152.303 448.114 151.102 448.711 149.674C448.815 149.429 449.093 149.315 449.338 149.415C449.583 149.519 449.697 149.798 449.597 150.043C449.124 151.17 449.11 152.038 449.556 152.696C450.861 154.627 455.778 154.557 459.036 154.517C460.072 154.5 460.968 154.49 461.575 154.544C464.023 154.762 465.375 155.268 465.949 156.18C466.596 157.207 466.127 158.461 465.587 159.917C465.14 161.111 464.637 162.466 464.661 163.921C464.714 167.47 467.324 168.046 470.343 168.717C472 169.086 473.711 169.465 474.969 170.411C478.393 172.99 477.575 177.897 472.597 184.605C472.507 184.742 472.359 184.809 472.215 184.809Z" fill="#A2AFBB"/>
<path d="M476.25 212.981C473.577 212.981 471.061 212.149 469.29 210.579C467.509 209.003 466.861 207.142 467.458 205.341C468.26 202.932 471.275 200.917 474.472 200.652C474.73 200.625 474.969 200.826 474.989 201.091C475.012 201.356 474.814 201.584 474.553 201.608C471.715 201.842 469.055 203.576 468.367 205.642C467.888 207.078 468.428 208.537 469.924 209.865C472.329 211.998 476.283 212.615 480 211.441C483.27 210.408 485.515 208.259 486.159 205.549C487.99 197.821 480.782 195.115 474.425 192.73C473.489 192.378 472.587 192.039 471.755 191.697C468.974 190.553 467.408 189.138 466.958 187.374C466.284 184.717 468.344 181.719 470.444 179.133C470.611 178.929 470.913 178.898 471.118 179.063C471.322 179.23 471.353 179.532 471.188 179.737C468.421 183.138 467.435 185.351 467.888 187.136C468.257 188.588 469.642 189.789 472.121 190.808C472.943 191.147 473.835 191.479 474.761 191.828C480.819 194.102 489.114 197.214 487.088 205.763C486.377 208.765 483.834 211.227 480.289 212.35C478.95 212.776 477.582 212.981 476.25 212.981Z" fill="#A2AFBB"/>
<path d="M440.071 158.493C440.057 158.493 440.047 158.493 440.034 158.493C439.769 158.473 439.571 158.245 439.591 157.98C439.655 157.108 439.433 156.441 438.917 155.934C437.169 154.231 432.533 154.69 429.468 154.992C428.589 155.079 427.831 155.153 427.281 155.163C421.203 155.267 415.091 154.828 411.623 150.88C409.845 148.854 409.415 146.53 410.385 144.155C412.149 139.822 418.271 136.213 422.564 135.881C422.833 135.854 423.058 136.059 423.078 136.321C423.098 136.586 422.9 136.814 422.638 136.834C418.704 137.139 412.881 140.563 411.27 144.514C410.439 146.56 410.797 148.489 412.34 150.246C415.554 153.905 421.407 154.318 427.264 154.204C427.777 154.194 428.515 154.123 429.374 154.036C432.617 153.717 437.521 153.234 439.584 155.247C440.309 155.951 440.631 156.893 440.547 158.047C440.53 158.299 440.319 158.493 440.071 158.493Z" fill="#A2AFBB"/>
<path d="M441.935 150.803C441.895 150.803 441.854 150.796 441.814 150.786C441.559 150.722 441.405 150.461 441.469 150.202C441.623 149.602 441.566 149.152 441.297 148.834C440.305 147.65 436.504 147.945 433.15 148.21C429.38 148.502 425.817 148.78 424.268 147.479C422.812 146.255 422.242 144.709 422.617 143.001C423.298 139.926 427.018 136.904 429.93 136.123C430.188 136.052 430.446 136.206 430.517 136.461C430.587 136.716 430.436 136.978 430.178 137.048C427.535 137.759 424.143 140.546 423.553 143.209C423.251 144.564 423.701 145.755 424.881 146.748C426.129 147.797 429.661 147.522 433.076 147.258C437.004 146.949 440.721 146.66 442.032 148.223C442.508 148.79 442.629 149.538 442.398 150.447C442.341 150.658 442.146 150.803 441.935 150.803Z" fill="#A2AFBB"/>
<path d="M466.858 152.901C466.754 152.901 466.65 152.867 466.56 152.797C464.933 151.512 463.085 151.509 461.297 151.502C459.663 151.499 458.12 151.495 457.074 150.409C456.175 149.476 455.799 147.897 455.886 145.431C455.913 144.687 456.088 143.862 456.275 142.99C456.708 140.967 457.154 138.874 455.823 137.58C454.115 135.92 449.456 136.624 446.739 137.503C446.488 137.583 446.219 137.449 446.135 137.194C446.055 136.943 446.192 136.674 446.444 136.59C448.97 135.772 454.32 134.783 456.49 136.892C458.197 138.556 457.674 141.018 457.211 143.188C457.034 144.019 456.866 144.804 456.842 145.465C456.768 147.621 457.067 149.02 457.765 149.745C458.529 150.539 459.814 150.543 461.3 150.543C463.162 150.546 465.268 150.553 467.157 152.042C467.365 152.206 467.398 152.505 467.234 152.716C467.14 152.837 466.999 152.901 466.858 152.901Z" fill="#A2AFBB"/>
<path d="M333.322 327.249C370.076 317.077 414.148 304.128 424.063 260.366C426.767 248.419 434.277 234.863 445.937 240.028C460.34 246.41 455.57 266.799 450.65 277.088C431.58 316.96 384.305 336.637 335.315 342.406L333.322 327.249Z" fill="#F5AE8B"/>
<path d="M312.191 329.446C309.074 328.909 306.485 328.215 305.019 327.463C304.043 326.964 303.657 325.766 304.16 324.794C304.657 323.821 305.848 323.432 306.83 323.935C310.01 325.565 322.374 327.309 330.465 326.216C331.555 326.061 332.551 326.826 332.696 327.913C332.843 328.996 332.082 329.996 330.995 330.143C325.504 330.884 317.953 330.438 312.191 329.446Z" fill="#F5AE8B"/>
<path d="M307.682 333.266C304.784 332.766 302.365 332.156 301.302 331.569C300.343 331.039 300 329.831 300.53 328.876C301.06 327.92 302.268 327.567 303.224 328.101C305.273 329.234 317.812 331.005 322.092 330.204C323.169 329.999 324.202 330.707 324.407 331.787C324.611 332.863 323.9 333.9 322.827 334.098C319.633 334.698 312.888 334.161 307.682 333.266Z" fill="#F5AE8B"/>
<path d="M305.377 337.842C304.2 337.637 303.261 337.392 302.684 337.111C301.698 336.631 301.292 335.444 301.775 334.461C302.258 333.478 303.445 333.066 304.425 333.552C306.085 334.364 316.95 335.085 320.744 333.82C321.78 333.475 322.904 334.035 323.253 335.075C323.598 336.114 323.035 337.235 321.998 337.583C318.483 338.751 310.077 338.65 305.377 337.842Z" fill="#F5AE8B"/>
<path d="M307.319 342.875C307 342.818 306.722 342.751 306.497 342.677C305.461 342.329 304.904 341.202 305.256 340.162C305.605 339.126 306.725 338.565 307.768 338.921C309.472 339.498 317.576 339.018 319.941 337.479C320.86 336.882 322.088 337.137 322.685 338.052C323.282 338.971 323.024 340.199 322.108 340.796C318.895 342.899 310.68 343.455 307.319 342.875Z" fill="#F5AE8B"/>
<path d="M329.374 319.218C327.026 318.47 324.332 318.04 322.487 316.27C321.702 315.515 320.441 315.535 319.683 316.333C318.925 317.122 318.952 318.379 319.744 319.134C321.152 320.482 322.715 321.247 324.305 321.81C324.973 322.29 326.298 323.403 325.869 324.443C325.325 325.758 322.243 327.177 316.983 326.134L315.108 325.765L314.668 327.626C313.233 333.727 313.709 338.14 316.124 341.119C317.674 343.034 319.918 344.235 322.92 344.751C326.721 345.405 334.996 344.047 336.968 341.357C338.97 338.623 340.409 335.377 340.265 330.899C340.114 326.164 335.428 321.139 329.374 319.218Z" fill="#F5AE8B"/>
<path d="M343.771 323.17C341.862 321.993 337.488 320.366 336.945 322.808C336.455 324.995 337.559 325.867 340.071 327.182C340.34 327.366 340.34 327.353 340.068 327.141C335.7 327.792 335.724 330.76 339.82 331.998C336.341 335.14 337.737 339.215 342.379 337.21C339.729 339.293 338.565 342.734 341.024 344.709C343.805 346.936 347.424 342.848 350.607 341.1L343.771 323.17Z" fill="#EAF6FD"/>
<path d="M345.66 320.007C338.079 324.169 342.332 342.126 354.894 344.473C383.58 349.836 454.38 307.58 464.074 257.292C468.914 232.194 440.56 218.749 429.075 241.585C409.234 292.364 377.791 302.368 345.66 320.007Z" fill="#DB4444"/>
<path d="M435.358 189.216L435.71 188.924C438.068 186.972 440.165 184.802 441.949 182.464C444.545 179.067 445.609 175.358 444.797 172.54C444.233 170.578 442.764 169.102 440.547 168.274C439.715 167.965 438.655 167.922 437.3 168.14C435.344 168.455 432.983 169.3 430.699 170.115C428.914 170.753 427.073 171.413 425.416 171.829L424.886 171.96L425.067 172.473C427.411 179.067 432.302 186.036 435.029 188.877L435.358 189.216ZM437.464 169.123C438.642 168.931 439.537 168.958 440.205 169.206C442.14 169.931 443.368 171.145 443.848 172.815C444.562 175.294 443.536 178.762 441.164 181.867C439.517 184.024 437.592 186.04 435.438 187.864C432.799 184.98 428.458 178.711 426.194 172.658C427.75 172.235 429.417 171.638 431.038 171.058C433.278 170.253 435.596 169.424 437.464 169.123Z" fill="white"/>
<path d="M402.582 170.064C402.757 169.853 403.065 169.829 403.273 170C405.491 171.848 413.816 173.73 423.081 172.314L423.262 172.287C423.896 172.183 424.6 172.033 425.415 171.831C425.69 171.754 425.915 171.905 426.006 172.147C428.297 178.603 433.083 185.418 435.75 188.198C435.844 188.299 435.894 188.43 435.887 188.571C435.877 188.708 435.813 188.836 435.709 188.923C428.957 194.51 420.83 197.76 413.051 200.44C413.024 200.45 412.994 200.454 412.971 200.457C412.82 200.484 412.665 200.437 412.551 200.333C407.765 195.865 401.687 188.758 399.895 180.25C399.107 176.52 399.305 173.921 402.582 170.064Z" fill="white"/>
<path d="M432.731 172.687C430.474 177.262 431.108 182.192 434.147 183.688C437.186 185.184 441.479 182.685 443.733 178.104C445.991 173.522 445.357 168.602 442.318 167.103C439.279 165.604 434.985 168.106 432.731 172.687Z" fill="#F5AE8B"/>
</svg>
