<svg width="625" height="575" viewBox="0 0 625 575" fill="none" xmlns="http://www.w3.org/2000/svg">
<path d="M564.855 198.756C524.844 130.891 483.533 49.6398 416.542 22.6412C309.64 -20.446 221.473 5.57311 137.532 37.7018C82.9429 58.5941 3.65064 129.773 21.9623 243.178C40.2739 356.584 -35.2648 437.069 21.584 482.503C67.2403 518.993 276.625 453.533 333.153 469.146C418.052 492.595 449.913 538.838 514.156 530.313C569.236 523.004 615.186 476.19 623.204 405.021C631.678 329.802 599.08 256.804 564.855 198.756Z" fill="#4E9FCA" fill-opacity="0.5"/>
<path d="M584.945 83.2617H33.834V305.37H584.945V83.2617Z" fill="#052F5F"/>
<path d="M266.79 213.211C248.21 227.69 211.263 287.218 231.608 298.684C248.862 308.408 262.36 276.857 277.568 252.823L266.79 213.211Z" fill="#C7E0F6"/>
<path d="M368.991 214.082C387.571 228.558 422.406 285.629 403.044 298.682C388.961 308.18 364.73 272.265 356.065 248.448L368.991 214.082Z" fill="#C7E0F6"/>
<path d="M359.954 186.533C359.954 209.252 341.513 227.671 318.759 227.671C296.006 227.671 277.564 209.252 277.564 186.533C277.564 163.815 296.006 145.398 318.759 145.398C341.513 145.398 359.954 163.815 359.954 186.533Z" fill="#D08A44"/>
<path d="M371.541 218.785C371.541 239.296 347.281 332.724 317.35 332.724C287.419 332.724 263.158 239.296 263.158 218.785C263.158 210.244 289.95 200.789 319.881 200.789C349.812 200.792 371.541 210.244 371.541 218.785Z" fill="#C7E0F6"/>
<path d="M371.541 218.785C371.541 233.797 327.165 258.694 297.234 258.694C267.303 258.694 263.158 239.296 263.158 218.785C263.158 210.244 289.95 200.789 319.881 200.789C349.812 200.792 371.541 210.244 371.541 218.785Z" fill="#DDF0FC"/>
<path d="M334.624 221.173L341.739 218.965C341.658 203.077 329.939 188.637 317.35 188.637V253.641C317.35 253.641 332.787 241.884 339.095 229.044L334.624 221.173Z" fill="#4CB3E6"/>
<path d="M300.076 221.173L292.96 218.965C293.038 203.077 304.76 188.637 317.35 188.637V253.641C317.35 253.641 301.912 241.884 295.605 229.044L300.076 221.173Z" fill="#4CB3E6"/>
<path d="M328.775 213.949C328.775 229.611 317.35 253.639 317.35 253.639C317.35 253.639 305.928 229.611 305.928 213.949H328.775Z" fill="#F5AE8B"/>
<path d="M317.353 224.667C311.026 224.667 305.898 219.541 305.898 213.214V176.398C305.898 170.072 311.029 164.945 317.353 164.945C323.68 164.945 328.807 170.072 328.807 176.398V213.211C328.804 219.537 323.677 224.667 317.353 224.667Z" fill="#F5AE8B"/>
<path d="M328.891 182.818C328.891 192.733 323.725 200.766 317.349 200.766C310.977 200.766 305.811 192.73 305.811 182.818C305.811 172.907 310.977 164.871 317.349 164.871C323.725 164.871 328.891 172.904 328.891 182.818Z" fill="#F18E7F"/>
<path d="M265.577 241.565C256.276 255.723 245.368 264.991 241.21 262.26C237.052 259.528 241.223 245.838 250.521 231.679C259.822 217.521 270.73 208.256 274.888 210.984C279.046 213.716 274.875 227.406 265.577 241.565Z" fill="#DDF0FC"/>
<path d="M347.563 154.96C347.563 174.259 334.036 189.904 317.354 189.904C300.668 189.904 287.142 174.259 287.142 154.96C287.142 135.661 300.665 120.016 317.354 120.016C334.036 120.016 347.563 135.661 347.563 154.96Z" fill="#F5AE8B"/>
<path d="M311.716 165.429C311.641 165.429 311.564 165.41 311.493 165.371C309.937 164.517 308.305 163.451 307.982 162.006C307.723 160.839 308.26 159.875 308.88 158.76C309.744 157.208 310.927 155.085 310.817 151.092C310.81 150.837 311.011 150.627 311.266 150.617C311.27 150.617 311.276 150.617 311.279 150.617C311.528 150.617 311.732 150.814 311.741 151.067C311.861 155.314 310.607 157.564 309.692 159.209C309.097 160.276 308.706 160.981 308.887 161.805C309.133 162.898 310.646 163.851 311.939 164.563C312.162 164.685 312.243 164.967 312.12 165.19C312.036 165.345 311.881 165.429 311.716 165.429Z" fill="#B44822"/>
<path d="M297.885 148.535C297.771 148.535 297.662 148.493 297.571 148.412C297.383 148.241 297.371 147.947 297.545 147.759C299.669 145.458 304.554 144.255 307.438 146.214C307.648 146.356 307.703 146.644 307.561 146.854C307.419 147.064 307.131 147.119 306.921 146.977C304.47 145.309 300.093 146.356 298.224 148.383C298.13 148.486 298.007 148.535 297.885 148.535Z" fill="#B44822"/>
<path d="M304.445 155.567C304.445 157.442 303.588 158.958 302.531 158.958C301.474 158.958 300.617 157.438 300.617 155.567C300.617 153.695 301.474 152.176 302.531 152.176C303.588 152.176 304.445 153.695 304.445 155.567Z" fill="#B44822"/>
<path d="M327.464 155.567C327.464 157.442 326.607 158.958 325.547 158.958C324.49 158.958 323.633 157.438 323.633 155.567C323.633 153.695 324.49 152.176 325.547 152.176C326.607 152.176 327.464 153.695 327.464 155.567Z" fill="#B44822"/>
<path d="M343.43 162.899V162.893C338.377 164.157 334.688 164.826 327.466 162.017C322.025 159.903 313.27 156.12 307.179 158.959C301.718 161.506 297.703 164.011 292.12 162.65C291.981 164.968 291.399 167.978 289.375 171.097C294.684 181.532 304.677 189.345 311.143 190.638C322.684 192.946 338.271 187.68 345.341 172.736C344.465 170.373 343.434 166.769 343.43 162.899Z" fill="white"/>
<path d="M306.994 121.826C312.148 111.717 327.243 106.409 337.549 110.272C343.204 112.393 345.974 116.983 346.67 122.899C347.1 126.549 346.223 131.01 349.825 133.117C353.304 135.157 358.156 133.767 361.195 136.957C364.92 140.866 362.097 147.292 360.946 151.698C358.344 161.68 368.981 164.806 373.452 171.937C388.589 196.104 368.651 212.073 354.506 208.385C337.009 203.824 338.455 188.346 340.815 181.011C342.253 176.537 347.562 166.119 340.074 164.237C336.641 163.374 333.741 162.977 332.713 160.339C330.893 155.648 334.801 153.208 329.91 147.961C324.889 142.576 313.774 145.327 307.544 141.257C300.713 136.793 303.865 127.964 306.994 121.826Z" fill="#E5A346"/>
<path d="M308.278 131.579C316.228 115.937 307.17 111.153 304.341 110.687C298.867 109.785 293.504 112.349 290.335 116.945C286.769 122.118 286.213 128.838 282.557 133.952C278.81 139.192 276.883 140.327 271.717 143.534C267.019 146.453 265.525 150.176 267.701 155.452C269.295 159.315 268.681 163.23 266.382 167.487C263.23 173.319 257.091 176.086 255.018 182.984C252.309 192.003 257.488 200.75 265.108 205.105C273.052 209.643 285.421 210.277 291.551 202.273C301.127 189.773 293.743 183.986 292.23 181.474C289.016 176.137 288.202 172.384 290.009 169.844C295.563 162.024 290.032 155.837 292.957 148.082C296.132 139.68 304.124 139.758 308.278 131.579Z" fill="#E5A346"/>
<path d="M332.71 150.013C332.584 150.013 332.461 149.961 332.37 149.864C329.894 147.149 325.782 146.118 322.371 147.362C322.135 147.446 321.866 147.327 321.779 147.087C321.692 146.848 321.815 146.583 322.054 146.496C325.866 145.106 330.285 146.211 333.049 149.244C333.221 149.431 333.208 149.725 333.02 149.897C332.933 149.974 332.823 150.013 332.71 150.013Z" fill="#B44822"/>
<path d="M336.324 150.589C336.292 150.589 336.256 150.586 336.224 150.58C335.975 150.525 335.816 150.279 335.871 150.03C336.521 147.063 336.243 144.91 335.021 143.445C332.629 140.578 326.813 140.788 321.682 140.966C318.795 141.07 316.066 141.166 314.042 140.746C308.769 139.65 304.392 135.849 303.144 131.288C302.09 127.418 303.37 123.597 306.749 120.526C306.936 120.355 307.23 120.368 307.402 120.559C307.573 120.746 307.56 121.04 307.369 121.212C304.259 124.037 303.076 127.531 304.033 131.045C305.19 135.283 309.287 138.816 314.227 139.844C316.144 140.242 318.814 140.148 321.646 140.048C326.99 139.857 333.046 139.644 335.726 142.857C337.142 144.554 337.485 146.969 336.77 150.231C336.728 150.444 336.534 150.589 336.324 150.589Z" fill="#B44822"/>
<path d="M354.278 206.905C354.21 206.905 354.145 206.888 354.081 206.859C349.205 204.538 344.605 198.471 345.339 192.335C345.662 189.623 346.981 187.082 348.258 184.622C350.068 181.131 351.779 177.834 350.854 174.136C349.845 170.098 346.541 167.625 343.347 165.236C338.624 161.703 334.162 158.367 338.132 150.657C338.249 150.431 338.527 150.341 338.753 150.457C338.979 150.573 339.07 150.851 338.953 151.078C335.342 158.092 339.309 161.06 343.9 164.493C347.223 166.979 350.66 169.549 351.753 173.906C352.765 177.944 350.893 181.551 349.082 185.043C347.844 187.428 346.564 189.895 346.26 192.442C345.574 198.164 349.9 203.84 354.481 206.022C354.711 206.132 354.808 206.407 354.698 206.636C354.614 206.808 354.449 206.905 354.278 206.905Z" fill="#B44822"/>
<path d="M356.738 207.149C356.631 207.149 356.524 207.114 356.437 207.036C350.553 201.968 353.977 196.136 357.284 190.492C359.26 187.127 361.303 183.645 361.222 180.458C361.09 175.276 357.818 173.052 354.349 170.699C351.714 168.911 348.992 167.062 347.698 163.829C347.605 163.593 347.721 163.325 347.957 163.228C348.193 163.134 348.462 163.248 348.559 163.487C349.745 166.458 352.234 168.145 354.869 169.936C358.377 172.318 362.004 174.781 362.147 180.435C362.234 183.888 360.123 187.482 358.083 190.961C354.821 196.521 351.74 201.774 357.042 206.338C357.233 206.506 357.255 206.797 357.09 206.988C356.996 207.094 356.867 207.149 356.738 207.149Z" fill="#B44822"/>
<path d="M355.014 160.182C354.975 160.182 354.933 160.175 354.891 160.166C354.231 159.985 353.468 159.816 352.66 159.639C349.527 158.953 345.628 158.103 343.973 155.446C342.473 153.038 343.32 150.788 344.141 148.612C344.536 147.568 344.943 146.485 345.076 145.406C345.467 142.228 344.907 139.829 343.369 138.068C340.003 134.224 332.338 134.137 325.574 134.062C321.426 134.017 317.511 133.972 314.792 133.112C314.55 133.034 314.414 132.776 314.492 132.533C314.569 132.291 314.825 132.155 315.07 132.233C317.657 133.054 321.507 133.096 325.584 133.141C332.541 133.219 340.427 133.306 344.064 137.463C345.761 139.403 346.411 142.115 345.994 145.519C345.848 146.708 345.422 147.843 345.008 148.939C344.232 150.995 343.501 152.938 344.759 154.958C346.207 157.285 349.896 158.09 352.861 158.737C353.682 158.915 354.458 159.086 355.143 159.273C355.389 159.341 355.531 159.597 355.463 159.842C355.402 160.046 355.217 160.182 355.014 160.182Z" fill="#B44822"/>
<path d="M282.466 175.674C282.305 175.674 282.146 175.59 282.062 175.438C281.939 175.215 282.017 174.933 282.24 174.811C287.27 171.995 289.188 167.702 288.101 161.693C287.765 159.844 286.863 158.027 285.99 156.272C285.069 154.419 284.199 152.671 283.921 150.857C283.058 145.219 287.587 142.53 291.968 139.928C296.109 137.468 300.021 135.144 299.468 130.518C299.439 130.266 299.62 130.036 299.873 130.004C300.122 129.971 300.354 130.156 300.387 130.408C301.011 135.632 296.656 138.221 292.44 140.723C288.134 143.283 284.063 145.698 284.833 150.718C285.088 152.393 285.929 154.077 286.815 155.864C287.717 157.678 288.648 159.553 289.007 161.531C290.174 167.977 288.108 172.587 282.689 175.619C282.621 175.654 282.544 175.674 282.466 175.674Z" fill="#B44822"/>
<path d="M274.655 205.676C272.99 205.676 271.17 205.253 269.246 204.403C269.013 204.299 268.907 204.028 269.01 203.795C269.114 203.562 269.385 203.459 269.618 203.559C273.808 205.414 277.435 205.088 279.834 202.644C282.838 199.58 283.365 193.809 281.085 188.925C280.549 187.774 279.87 186.685 279.214 185.628C277.591 183.016 275.913 180.317 276.52 176.796C277.154 173.147 279.986 167.435 284.302 166.164C284.545 166.09 284.804 166.232 284.875 166.478C284.946 166.724 284.807 166.979 284.561 167.05C281.034 168.088 278.114 172.998 277.429 176.955C276.879 180.132 278.392 182.566 279.996 185.143C280.665 186.223 281.36 187.338 281.92 188.537C284.357 193.758 283.756 199.964 280.491 203.294C278.939 204.875 276.944 205.676 274.655 205.676Z" fill="#B44822"/>
<path d="M274.842 205.425C274.587 205.425 274.38 205.218 274.38 204.963C274.38 204.707 274.587 204.5 274.842 204.5C280.299 204.497 284.489 202.525 286.643 198.95C288.828 195.323 288.592 190.423 285.993 185.506C285.873 185.279 285.96 185.001 286.187 184.882C286.413 184.762 286.691 184.85 286.811 185.073C289.562 190.283 289.791 195.514 287.435 199.425C285.104 203.295 280.632 205.422 274.842 205.425Z" fill="#B44822"/>
<path d="M267.465 194.605C267.329 194.605 267.193 194.543 267.103 194.427C263.372 189.652 262.99 181.959 266.243 176.909C266.999 175.733 268.244 174.498 269.56 173.189C271.845 170.919 274.435 168.346 274.584 165.818C274.668 164.399 273.953 163.119 273.197 161.765C272.359 160.265 271.493 158.716 271.616 156.825C271.868 153.056 275.285 148.834 278.318 147.26C278.544 147.14 278.825 147.231 278.942 147.457C279.058 147.683 278.971 147.961 278.745 148.078C275.99 149.51 272.764 153.479 272.537 156.887C272.431 158.503 273.194 159.87 274.002 161.315C274.791 162.725 275.609 164.186 275.505 165.873C275.334 168.75 272.612 171.456 270.209 173.842C268.929 175.115 267.72 176.314 267.015 177.407C264.015 182.069 264.381 189.445 267.827 193.855C267.985 194.055 267.95 194.346 267.746 194.501C267.665 194.572 267.565 194.605 267.465 194.605Z" fill="#B44822"/>
<path d="M266.974 201.244C266.903 201.244 266.831 201.228 266.767 201.193C262.742 199.153 260.569 196.437 260.314 193.127C259.851 187.228 265.723 180.779 270.889 177.048C271.096 176.9 271.384 176.945 271.532 177.152C271.681 177.359 271.636 177.646 271.429 177.795C266.456 181.386 260.802 187.535 261.235 193.053C261.468 196.02 263.469 198.484 267.187 200.368C267.413 200.485 267.507 200.763 267.391 200.989C267.304 201.154 267.142 201.244 266.974 201.244Z" fill="#B44822"/>
<path d="M320.341 130.675C320.328 130.675 320.312 130.675 320.299 130.672C315.766 130.258 312.103 128.093 310.745 125.018C309.95 123.221 309.585 120.312 312.349 116.656C312.504 116.452 312.792 116.413 312.995 116.565C313.199 116.72 313.238 117.008 313.086 117.212C311.111 119.824 310.593 122.393 311.589 124.643C312.814 127.41 316.183 129.369 320.383 129.751C320.638 129.773 320.822 130 320.8 130.252C320.777 130.494 320.577 130.675 320.341 130.675Z" fill="#B44822"/>
<path d="M363.938 198.987C362.499 198.987 360.999 198.573 359.467 197.746C359.244 197.623 359.159 197.345 359.279 197.122C359.402 196.899 359.68 196.815 359.903 196.934C362.868 198.538 365.577 198.447 367.96 196.666C372.298 193.421 374.335 185.31 373.255 180.225C372.062 174.607 367.998 170.738 364.067 166.994C363.149 166.121 362.202 165.216 361.3 164.305C356.059 158.984 356.327 155.913 358.342 149.105C359.069 146.658 359.897 143.189 358.713 141.289C358.277 140.59 357.604 140.173 356.657 140.012C356.405 139.97 356.237 139.731 356.279 139.478C356.321 139.226 356.557 139.058 356.809 139.1C358.018 139.304 358.92 139.876 359.496 140.801C360.876 143.015 360.003 146.752 359.227 149.367C357.242 156.058 357.019 158.644 361.956 163.655C362.845 164.56 363.789 165.456 364.704 166.325C368.736 170.165 372.906 174.135 374.161 180.035C375.302 185.401 373.262 193.854 368.516 197.403C367.106 198.46 365.564 198.987 363.938 198.987Z" fill="#B44822"/>
<path d="M213.22 284.142C212.137 284.142 211.17 283.376 210.957 282.271C210.714 281.019 211.535 279.81 212.786 279.568C218.066 278.55 219.171 273.507 219.168 269.457C219.168 268.183 220.2 267.148 221.473 267.148C222.747 267.148 223.782 268.18 223.782 269.453C223.785 277.522 220.096 282.859 213.659 284.1C213.511 284.129 213.365 284.142 213.22 284.142Z" fill="#F18E7F"/>
<path d="M225.412 290.028C225.412 296.37 221.914 301.513 217.595 301.513C213.279 301.513 209.777 296.37 209.777 290.028C209.777 283.685 213.275 278.539 217.595 278.539C221.914 278.542 225.412 283.685 225.412 290.028Z" fill="#F18E7F"/>
<path d="M620.262 544.06C620.262 561.148 483.617 574.999 315.059 574.999C146.497 574.999 9.85156 561.148 9.85156 544.06C9.85156 526.973 146.497 513.121 315.059 513.121C483.617 513.121 620.262 526.973 620.262 544.06Z" fill="#A9ABAE" fill-opacity="0.5"/>
<path d="M584.945 315.93H45.1689V533.322H584.945V315.93Z" fill="#4E9FCA"/>
<path d="M584.945 320.016H45.1689V326.63H584.945V320.016Z" fill="#052F5F"/>
<path d="M596.283 305.371H33.834V319.578H596.283V305.371Z" fill="#052F5F"/>
<path d="M392.309 402.02H237.808V447.227H392.309V402.02Z" fill="#052F5F"/>
<path d="M249.119 414.031H257.379C259.355 414.031 261.097 414.406 262.614 415.159C264.13 415.913 265.307 416.973 266.147 418.34C266.988 419.708 267.408 421.301 267.408 423.118C267.408 424.935 266.988 426.528 266.147 427.896C265.307 429.263 264.13 430.324 262.614 431.077C261.097 431.83 259.355 432.208 257.379 432.208H249.119V414.031ZM257.169 428.759C258.989 428.759 260.438 428.251 261.521 427.24C262.604 426.228 263.144 424.854 263.144 423.125C263.144 421.392 262.604 420.021 261.521 419.006C260.438 417.994 258.989 417.487 257.169 417.487H253.325V428.759H257.169Z" fill="white"/>
<path d="M284.653 428.837V432.215H270.573V414.035H284.313V417.41H274.754V421.357H283.195V424.632H274.754V428.84H284.653V428.837Z" fill="white"/>
<path d="M288.005 414.031H292.214V428.785H301.331V432.211H288.005V414.031Z" fill="white"/>
<path d="M303.692 414.031H307.902V432.211H303.692V414.031Z" fill="white"/>
<path d="M329.592 414.031L321.72 432.211H317.562L309.719 414.031H314.264L319.796 427.017L325.405 414.031H329.592Z" fill="white"/>
<path d="M345.178 428.837V432.215H331.099V414.035H344.839V417.41H335.279V421.357H343.72V424.632H335.279V428.84H345.178V428.837Z" fill="white"/>
<path d="M360.111 432.215L356.603 427.15H356.396H352.733V432.215H348.523V414.035H356.396C358.006 414.035 359.403 414.303 360.589 414.84C361.776 415.377 362.69 416.14 363.331 417.126C363.971 418.111 364.291 419.282 364.291 420.633C364.291 421.984 363.967 423.148 363.318 424.127C362.668 425.107 361.746 425.854 360.553 426.374L364.63 432.218H360.111V432.215ZM359.047 418.28C358.387 417.733 357.427 417.462 356.163 417.462H352.736V423.801H356.163C357.427 423.801 358.387 423.523 359.047 422.97C359.703 422.417 360.033 421.638 360.033 420.633C360.033 419.608 359.703 418.826 359.047 418.28Z" fill="white"/>
<path d="M376.087 425.772V432.215H371.881V425.72L364.843 414.031H369.311L374.17 422.109L379.029 414.031H383.161L376.087 425.772Z" fill="white"/>
<path d="M584.945 83.2617H412.28V305.37H584.945V83.2617Z" fill="#4E9FCA"/>
<path d="M206.498 83.2617H33.834V305.37H206.498V83.2617Z" fill="#4E9FCA"/>
<path d="M407.377 284.329C407.147 284.329 406.914 284.294 406.685 284.223C400.429 282.257 397.371 276.536 398.292 268.522C398.438 267.255 399.592 266.346 400.849 266.492C402.117 266.637 403.025 267.782 402.876 269.049C402.414 273.073 402.938 278.21 408.069 279.82C409.284 280.201 409.96 281.498 409.578 282.713C409.268 283.699 408.359 284.329 407.377 284.329Z" fill="#F18E7F"/>
<path d="M394.335 288.779C393.614 295.083 396.504 300.588 400.794 301.079C405.085 301.571 409.145 296.858 409.866 290.554C410.587 284.25 407.694 278.745 403.403 278.254C399.116 277.763 395.056 282.476 394.335 288.779Z" fill="#F18E7F"/>
<path d="M584.945 151.344H412.28V158.142H584.945V151.344Z" fill="#7BC5B6"/>
<path d="M584.945 227.668H412.28V234.466H584.945V227.668Z" fill="#55B9A1"/>
<path d="M578.518 101.188H548.5V151.344H578.518V101.188Z" fill="white"/>
<path d="M574.765 151.344H556.004L571.011 101.188H574.765V151.344Z" fill="#F2944C"/>
<path d="M578.519 151.344H559.758L574.765 101.188H578.519V151.344Z" fill="#EF7F3C"/>
<path d="M578.518 151.344H563.507L578.518 101.188V151.344Z" fill="#B44822"/>
<path d="M532.41 111.838C534.799 107.959 541.366 95.5551 541.239 87.6094H511.351V151.346H524.645C517.881 138.109 524.36 124.917 532.41 111.838Z" fill="white"/>
<path d="M541.243 87.6094C541.366 95.5551 534.8 107.959 532.411 111.838C524.36 124.92 517.878 138.109 524.645 151.346H541.243V87.6094Z" fill="#9CCB90"/>
<path d="M495.11 119.801C486.332 136.025 474.403 147.756 464.293 151.348H503.105V101.188H502.83C501.094 107.181 498.517 113.504 495.11 119.801Z" fill="#7BC5B6"/>
<path d="M502.174 101.188C500.089 107.181 496.995 113.504 492.902 119.801C482.899 135.198 469.492 146.534 457.775 150.721V151.348H464.293C474.403 147.756 486.332 136.025 495.11 119.801C498.517 113.504 501.094 107.181 502.834 101.188H502.174Z" fill="#ACD299"/>
<path d="M492.902 119.801C496.995 113.504 500.089 107.181 502.174 101.188H457.775V150.721C469.492 146.534 482.896 135.198 492.902 119.801Z" fill="white"/>
<path d="M448.068 101.188H418.053V151.344H448.068V101.188Z" fill="white"/>
<path d="M448.069 101.188L430.109 126.266L448.069 151.344V101.188Z" fill="#FCC551"/>
<path d="M448.068 110.984L437.121 126.268L448.068 141.555V110.984Z" fill="#F6A841"/>
<path d="M578.518 255.211H548.5V305.368H578.518V255.211Z" fill="#FCC551"/>
<path d="M578.518 255.211H548.5L578.518 305.368V255.211Z" fill="#F6A841"/>
<path d="M575.653 167.102H485.091V227.664H575.653V167.102Z" fill="white"/>
<path d="M539.837 180.93L523.565 197.384L539.837 213.841V180.93Z" fill="#EF7F3C"/>
<path d="M557.745 173.852L534.478 197.385L557.745 220.918V173.852Z" fill="#F2944C"/>
<path d="M575.652 166.773L545.385 197.383L575.652 227.996V166.773Z" fill="#F6A841"/>
<path d="M521.613 222.603C519.328 222.603 518.397 219.102 517.407 215.398C516.664 212.608 515.736 209.133 514.43 209.133C513.124 209.133 512.196 212.605 511.452 215.398C510.463 219.102 509.532 222.603 507.246 222.603C504.96 222.603 504.029 219.102 503.04 215.398C502.296 212.608 501.368 209.136 500.062 209.136C498.756 209.136 497.828 212.608 497.088 215.398C496.099 219.102 495.168 222.603 492.882 222.603V221.33C494.188 221.33 495.113 217.858 495.856 215.068C496.846 211.36 497.777 207.859 500.062 207.859C502.348 207.859 503.282 211.36 504.268 215.068C505.012 217.858 505.937 221.33 507.243 221.33C508.549 221.33 509.474 217.858 510.217 215.068C511.206 211.36 512.138 207.859 514.423 207.859C516.709 207.859 517.643 211.36 518.633 215.068C519.376 217.858 520.304 221.33 521.61 221.33C522.92 221.33 523.844 217.858 524.588 215.068C525.577 211.364 526.511 207.863 528.797 207.863V209.136C527.491 209.136 526.563 212.608 525.82 215.398C524.834 219.106 523.899 222.603 521.613 222.603Z" fill="#EF7F3C"/>
<path d="M475.394 173.855H421.574V227.668H475.394V173.855Z" fill="white"/>
<mask id="mask0_387_17633" style="mask-type:luminance" maskUnits="userSpaceOnUse" x="421" y="173" width="55" height="55">
<path d="M475.395 173.859H421.575V227.672H475.395V173.859Z" fill="white"/>
</mask>
<g mask="url(#mask0_387_17633)">
<path d="M504.465 200.763C504.465 185.04 491.721 172.297 475.999 172.297C460.277 172.297 447.529 185.04 447.529 200.763C447.529 216.483 460.277 229.229 475.999 229.229C491.721 229.229 504.465 216.486 504.465 200.763Z" fill="#F6A841"/>
</g>
<mask id="mask1_387_17633" style="mask-type:luminance" maskUnits="userSpaceOnUse" x="421" y="173" width="55" height="55">
<path d="M475.395 173.859H421.575V227.672H475.395V173.859Z" fill="white"/>
</mask>
<g mask="url(#mask1_387_17633)">
<path d="M476 221.617C464.503 221.617 455.15 212.265 455.15 200.773C455.15 189.278 464.503 179.926 476 179.926C487.493 179.926 496.846 189.278 496.846 200.773C496.846 212.265 487.497 221.617 476 221.617ZM476 181.196C465.205 181.196 456.424 189.976 456.424 200.77C456.424 211.563 465.205 220.343 476 220.343C486.792 220.343 495.573 211.563 495.573 200.77C495.576 189.976 486.795 181.196 476 181.196Z" fill="#B44822"/>
<path d="M476 216.969C467.064 216.969 459.793 209.699 459.793 200.767C459.793 191.833 467.064 184.562 476 184.562C484.936 184.562 492.204 191.833 492.204 200.767C492.204 209.702 484.936 216.969 476 216.969ZM476 185.836C467.765 185.836 461.067 192.534 461.067 200.767C461.067 209.001 467.765 215.699 476 215.699C484.231 215.699 490.93 209.001 490.93 200.767C490.933 192.534 484.234 185.836 476 185.836Z" fill="#B44822"/>
<path d="M475.999 212.333C469.624 212.333 464.435 207.145 464.435 200.77C464.435 194.392 469.624 189.207 475.999 189.207C482.374 189.207 487.563 194.395 487.563 200.77C487.563 207.145 482.374 212.333 475.999 212.333ZM475.999 190.481C470.325 190.481 465.708 195.097 465.708 200.773C465.708 206.446 470.325 211.063 475.999 211.063C481.673 211.063 486.29 206.446 486.29 200.773C486.29 195.097 481.673 190.481 475.999 190.481Z" fill="#B44822"/>
<path d="M482.286 200.772C482.286 197.301 479.473 194.488 476.001 194.488C472.529 194.488 469.713 197.301 469.713 200.772C469.713 204.244 472.529 207.057 476.001 207.057C479.473 207.057 482.286 204.244 482.286 200.772Z" fill="#B44822"/>
</g>
<path d="M511.29 240.391V305.369H511.293C511.293 289.791 541.308 272.817 541.308 240.391H511.29Z" fill="white"/>
<path d="M511.294 305.369H541.309V240.391C541.306 272.817 511.294 289.791 511.294 305.369Z" fill="#55B9A1"/>
<path d="M476.099 294.51C468.088 296.291 455.127 300.099 454.723 304.893V305.226C454.726 305.274 454.719 305.323 454.723 305.368H505.881V277.219C502.587 285.775 491.899 290.996 476.099 294.51Z" fill="#C2DBA4"/>
<path d="M454.724 251.312V304.893C455.128 300.099 468.089 296.291 476.1 294.51C491.903 290.996 502.588 285.775 505.882 277.222V251.312H454.724Z" fill="white"/>
<path d="M489.747 286.07C495.34 291.663 494.903 301.167 494.903 301.167C494.903 301.167 485.398 301.603 479.805 296.011C474.212 290.418 474.649 280.914 474.649 280.914C474.649 280.914 484.154 280.475 489.747 286.07Z" fill="#55B9A1"/>
<path d="M501.935 286.847C501.935 294.757 494.907 301.167 494.907 301.167C494.907 301.167 487.878 294.757 487.878 286.847C487.878 278.937 494.907 272.523 494.907 272.523C494.907 272.523 501.935 278.937 501.935 286.847Z" fill="#9CCB90"/>
<path d="M448.068 255.211H418.053V305.368H448.068V255.211Z" fill="white"/>
<path d="M431.647 284.886H437.121L448.068 255.211H442.594L431.647 284.886Z" fill="#F6A841"/>
<path d="M431.647 295.124H437.121L448.068 265.449H442.594L431.647 295.124Z" fill="#55B9A1"/>
<path d="M431.647 305.367H437.121L448.068 275.691H442.594L431.647 305.367Z" fill="#C2DBA4"/>
<path d="M206.499 151.344H33.835V158.142H206.499V151.344Z" fill="#7BC5B6"/>
<path d="M206.499 227.668H33.835V234.466H206.499V227.668Z" fill="#55B9A1"/>
<path d="M200.068 101.188H170.05V151.344H200.068V101.188Z" fill="white"/>
<path d="M196.318 151.344H177.557L192.564 101.188H196.318V151.344Z" fill="#F2944C"/>
<path d="M200.069 151.344H181.308L196.318 101.188H200.069V151.344Z" fill="#EF7F3C"/>
<path d="M200.068 151.344H185.061L200.068 101.188V151.344Z" fill="#B44822"/>
<path d="M153.966 111.838C156.352 107.959 162.918 95.5551 162.795 87.6094H132.906V151.346H146.2C139.437 138.109 145.919 124.917 153.966 111.838Z" fill="white"/>
<path d="M162.799 87.6094C162.922 95.5551 156.352 107.959 153.966 111.838C145.916 124.92 139.434 138.109 146.201 151.346H162.799V87.6094Z" fill="#9CCB90"/>
<path d="M116.665 119.801C107.888 136.025 95.9582 147.756 85.8486 151.348H124.661V101.188H124.386C122.65 107.181 120.073 113.504 116.665 119.801Z" fill="#7BC5B6"/>
<path d="M123.729 101.188C121.64 107.181 118.549 113.504 114.457 119.801C104.454 135.198 91.0464 146.534 79.3301 150.721V151.348H85.8478C95.9574 147.756 107.887 136.025 116.665 119.801C120.072 113.504 122.649 107.181 124.385 101.188H123.729Z" fill="#ACD299"/>
<path d="M114.457 119.801C118.549 113.504 121.643 107.181 123.729 101.188H79.3301V150.721C91.0432 146.534 104.45 135.198 114.457 119.801Z" fill="white"/>
<path d="M69.6215 101.188H39.6064V151.344H69.6215V101.188Z" fill="white"/>
<path d="M69.6255 101.188L51.6631 126.266L69.6255 151.344V101.188Z" fill="#FCC551"/>
<path d="M69.6256 110.984L58.6787 126.268L69.6256 141.555V110.984Z" fill="#F6A841"/>
<path d="M200.068 255.211H170.05V305.368H200.068V255.211Z" fill="#FCC551"/>
<path d="M200.068 255.211H170.05L200.068 305.368V255.211Z" fill="#F6A841"/>
<path d="M197.211 167.102H106.646V227.664H197.211V167.102Z" fill="#55B9A1"/>
<path d="M161.394 180.93L145.122 197.384L161.394 213.841V180.93Z" fill="#7BC5B6"/>
<path d="M179.302 173.852L156.034 197.385L179.302 220.918V173.852Z" fill="#AEDEF8"/>
<path d="M197.209 166.773L166.941 197.383L197.209 227.996V166.773Z" fill="#7BC5B6"/>
<path d="M96.9475 173.855H43.1279V227.668H96.9475V173.855Z" fill="#F6A841"/>
<mask id="mask2_387_17633" style="mask-type:luminance" maskUnits="userSpaceOnUse" x="43" y="173" width="54" height="55">
<path d="M96.9494 173.859H43.1299V227.672H96.9494V173.859Z" fill="white"/>
</mask>
<g mask="url(#mask2_387_17633)">
<path d="M126.023 200.763C126.023 185.04 113.279 172.297 97.5537 172.297C81.8317 172.297 69.084 185.04 69.084 200.763C69.084 216.483 81.8317 229.229 97.5537 229.229C113.279 229.229 126.023 216.486 126.023 200.763Z" fill="#F6A841"/>
</g>
<mask id="mask3_387_17633" style="mask-type:luminance" maskUnits="userSpaceOnUse" x="43" y="173" width="54" height="55">
<path d="M96.9494 173.859H43.1299V227.672H96.9494V173.859Z" fill="white"/>
</mask>
<g mask="url(#mask3_387_17633)">
<path d="M97.5566 221.617C86.0601 221.617 76.707 212.265 76.707 200.773C76.707 189.278 86.0601 179.926 97.5566 179.926C109.053 179.926 118.403 189.278 118.403 200.773C118.403 212.265 109.05 221.617 97.5566 221.617ZM97.5566 181.196C86.7616 181.196 77.9808 189.976 77.9808 200.77C77.9808 211.563 86.7616 220.343 97.5566 220.343C108.352 220.343 117.129 211.563 117.129 200.77C117.129 189.976 108.348 181.196 97.5566 181.196Z" fill="#B44822"/>
<path d="M97.5566 216.969C88.6206 216.969 81.3496 209.699 81.3496 200.767C81.3496 191.833 88.6206 184.562 97.5566 184.562C106.493 184.562 113.76 191.833 113.76 200.767C113.76 209.702 106.493 216.969 97.5566 216.969ZM97.5566 185.836C89.3222 185.836 82.6235 192.534 82.6235 200.767C82.6235 209.001 89.3222 215.699 97.5566 215.699C105.791 215.699 112.487 209.001 112.487 200.767C112.487 192.534 105.788 185.836 97.5566 185.836Z" fill="#B44822"/>
<path d="M97.5566 212.333C91.1811 212.333 85.9922 207.145 85.9922 200.77C85.9922 194.392 91.1811 189.207 97.5566 189.207C103.932 189.207 109.121 194.395 109.121 200.77C109.121 207.145 103.932 212.333 97.5566 212.333ZM97.5566 190.481C91.8827 190.481 87.266 195.097 87.266 200.773C87.266 206.446 91.8827 211.063 97.5566 211.063C103.23 211.063 107.847 206.446 107.847 200.773C107.847 195.097 103.23 190.481 97.5566 190.481Z" fill="#B44822"/>
<path d="M103.842 200.772C103.842 197.301 101.03 194.488 97.5574 194.488C94.0851 194.488 91.2725 197.301 91.2725 200.772C91.2725 204.244 94.0884 207.057 97.5574 207.057C101.03 207.057 103.842 204.244 103.842 200.772Z" fill="#B44822"/>
</g>
<path d="M132.845 240.391V305.369H132.848C132.848 289.791 162.863 272.817 162.863 240.391H132.845Z" fill="white"/>
<path d="M132.849 305.369H162.864V240.391C162.86 272.817 132.849 289.791 132.849 305.369Z" fill="#55B9A1"/>
<path d="M97.6556 294.51C89.6411 296.291 76.68 300.099 76.2759 304.893V305.226C76.2759 305.274 76.2726 305.323 76.2759 305.368H127.435V277.219C124.143 285.775 113.455 290.996 97.6556 294.51Z" fill="#C2DBA4"/>
<path d="M76.2783 251.312V304.893C76.6824 300.099 89.6435 296.291 97.6581 294.51C113.458 290.996 124.143 285.775 127.44 277.222V251.312H76.2783Z" fill="white"/>
<path d="M111.301 286.07C116.894 291.663 116.458 301.167 116.458 301.167C116.458 301.167 106.953 301.603 101.36 296.011C95.7668 290.418 96.2033 280.914 96.2033 280.914C96.2033 280.914 105.708 280.475 111.301 286.07Z" fill="#55B9A1"/>
<path d="M123.49 286.847C123.49 294.757 116.458 301.167 116.458 301.167C116.458 301.167 109.426 294.757 109.43 286.847C109.43 278.937 116.458 272.523 116.458 272.523C116.458 272.523 123.49 278.937 123.49 286.847Z" fill="#9CCB90"/>
<path d="M69.6215 255.211H39.6064V305.368H69.6215V255.211Z" fill="white"/>
<path d="M53.2041 284.886H58.6775L69.6244 255.211H64.151L53.2041 284.886Z" fill="#F6A841"/>
<path d="M53.2041 295.124H58.6775L69.6244 265.449H64.151L53.2041 295.124Z" fill="#55B9A1"/>
<path d="M53.2041 305.367H58.6775L69.6244 275.691H64.151L53.2041 305.367Z" fill="#C2DBA4"/>
<path d="M243.879 265.164H218.335V305.377H243.879V265.164Z" fill="#F4FAFF"/>
<path d="M259.827 265.164H234.283V305.377H259.827V265.164Z" fill="#2C6764"/>
<path d="M243.879 265.164H234.283V305.377H243.879V265.164Z" fill="#449996"/>
<path d="M226.112 268.047H221.476V296.361H226.112V268.047Z" fill="#449996"/>
<path d="M236.856 268.102C234.736 268.102 233.016 269.821 233.016 271.942C233.016 272.834 233.326 273.655 233.837 274.308L239.223 268.919C238.57 268.409 237.752 268.102 236.856 268.102Z" fill="#DEE0E2"/>
<path d="M239.222 268.922L233.836 274.311C234.027 274.553 234.243 274.773 234.486 274.964L239.875 269.575C239.684 269.332 239.465 269.116 239.222 268.922Z" fill="#D4D5D7"/>
<path d="M234.486 274.959C235.139 275.473 235.961 275.78 236.856 275.78C238.977 275.78 240.697 274.06 240.697 271.94C240.697 271.044 240.387 270.223 239.876 269.57L234.486 274.959Z" fill="#DEE0E2"/>
<path d="M238.967 269.179C238.378 268.729 237.651 268.461 236.856 268.461C234.935 268.461 233.377 270.019 233.377 271.942C233.377 272.738 233.645 273.468 234.095 274.053L238.967 269.179Z" fill="white"/>
<path d="M239.617 269.828L234.745 274.7C235.33 275.149 236.061 275.417 236.856 275.417C238.78 275.417 240.338 273.859 240.338 271.939C240.335 271.147 240.067 270.416 239.617 269.828Z" fill="white"/>
<path d="M234.398 276.418C232.278 276.418 230.558 278.134 230.558 280.258C230.558 281.154 230.868 281.972 231.376 282.625L236.765 277.239C236.112 276.725 235.291 276.418 234.398 276.418Z" fill="#DEE0E2"/>
<path d="M236.764 277.238L231.375 282.624C231.566 282.866 231.786 283.086 232.028 283.277L237.414 277.891C237.227 277.649 237.007 277.432 236.764 277.238Z" fill="#D4D5D7"/>
<path d="M232.029 283.28C232.682 283.794 233.503 284.101 234.396 284.101C236.517 284.101 238.237 282.381 238.237 280.261C238.237 279.365 237.929 278.544 237.415 277.895L232.029 283.28Z" fill="#DEE0E2"/>
<path d="M236.51 277.494C235.925 277.045 235.194 276.773 234.399 276.773C232.475 276.773 230.917 278.332 230.917 280.255C230.917 281.05 231.189 281.781 231.638 282.366L236.51 277.494Z" fill="white"/>
<path d="M237.159 278.145L232.287 283.019C232.872 283.469 233.603 283.737 234.398 283.737C236.322 283.737 237.88 282.179 237.88 280.255C237.877 279.463 237.609 278.733 237.159 278.145Z" fill="white"/>
<path d="M225.86 298.105H221.476V302.495H225.86V298.105Z" fill="#2C6764"/>
<path d="M241.597 300.668H227.204V302.494H241.597V300.668Z" fill="#2C6764"/>
<path d="M271.214 265.164H254.114V305.377H271.214V265.164Z" fill="#55B9A1"/>
<path d="M265.332 265.164H248.236V305.377H265.332V265.164Z" fill="#F4FAFF"/>
<path d="M255.443 267.957H250.577V290.711H255.443V267.957Z" fill="#7BC5B6"/>
<path d="M259.558 288.608C260.246 288.088 261.171 288.104 261.834 288.589C261.362 288.531 260.722 288.738 260.136 289.181L257.446 291.211L258.782 292.979L261.472 290.949C262.057 290.509 262.429 289.95 262.503 289.478C262.784 290.247 262.548 291.143 261.86 291.66L259.263 293.619L259.354 293.738L262.154 291.624C263.062 290.939 263.243 289.646 262.558 288.738C261.872 287.829 260.579 287.648 259.671 288.334L256.871 290.448L256.962 290.567L259.558 288.608Z" fill="#7BC5B6"/>
<path d="M256.554 295.85L259.357 293.736L259.267 293.616L256.671 295.575C255.982 296.093 255.057 296.076 254.395 295.595C254.87 295.65 255.51 295.443 256.092 295.003L258.782 292.973L257.447 291.205L254.757 293.235C254.175 293.675 253.8 294.237 253.725 294.706C253.444 293.937 253.68 293.041 254.369 292.524L256.965 290.565L256.874 290.445L254.075 292.556C253.169 293.245 252.988 294.535 253.674 295.443C254.356 296.358 255.646 296.539 256.554 295.85Z" fill="#FFE495"/>
<path d="M256.092 295.007C255.507 295.447 254.87 295.654 254.395 295.599C255.057 296.081 255.982 296.097 256.671 295.579L259.267 293.621L258.782 292.98L256.092 295.007Z" fill="#FFD862"/>
<path d="M261.863 291.659C262.552 291.138 262.788 290.246 262.506 289.477C262.429 289.949 262.057 290.508 261.475 290.947L258.785 292.977L259.27 293.618L261.863 291.659Z" fill="#55B9A1"/>
<path d="M261.834 288.589C261.171 288.107 260.247 288.088 259.558 288.608L256.962 290.567L257.444 291.207L260.133 289.177C260.722 288.741 261.362 288.534 261.834 288.589Z" fill="white"/>
<path d="M254.366 292.525C253.677 293.046 253.441 293.938 253.722 294.707C253.797 294.239 254.169 293.676 254.754 293.237L257.444 291.206L256.962 290.566L254.366 292.525Z" fill="white"/>
<path d="M253.28 299.709C252.42 299.803 251.634 299.314 251.314 298.561C251.689 298.852 252.349 299.004 253.073 298.923L256.422 298.555L256.18 296.35L252.83 296.719C252.103 296.799 251.495 297.087 251.191 297.452C251.34 296.648 252.006 296.001 252.863 295.907L256.096 295.555L256.079 295.406L252.591 295.788C251.459 295.911 250.642 296.929 250.768 298.06C250.894 299.192 251.909 300.009 253.04 299.887L256.529 299.505L256.513 299.356L253.28 299.709Z" fill="#7BC5B6"/>
<path d="M259.568 295.024L256.079 295.405L256.095 295.554L259.328 295.199C260.185 295.105 260.971 295.593 261.297 296.346C260.916 296.055 260.263 295.903 259.532 295.984L256.183 296.349L256.425 298.554L259.774 298.189C260.502 298.108 261.11 297.817 261.417 297.455C261.262 298.26 260.602 298.906 259.745 299L256.512 299.356L256.529 299.504L260.014 299.123C261.145 299 261.963 297.982 261.84 296.85C261.718 295.716 260.699 294.901 259.568 295.024Z" fill="#FFE495"/>
<path d="M259.532 295.985C260.26 295.907 260.916 296.056 261.298 296.347C260.971 295.593 260.189 295.105 259.329 295.199L256.096 295.555L256.183 296.35L259.532 295.985Z" fill="white"/>
<path d="M252.863 295.911C252.006 296.005 251.34 296.651 251.191 297.456C251.495 297.091 252.106 296.803 252.83 296.722L256.18 296.354L256.093 295.559L252.863 295.911Z" fill="white"/>
<path d="M251.314 298.561C251.635 299.314 252.42 299.802 253.28 299.709L256.513 299.353L256.426 298.555L253.076 298.923C252.349 299.001 251.693 298.849 251.314 298.561Z" fill="#55B9A1"/>
<path d="M259.745 298.998C260.605 298.905 261.265 298.258 261.417 297.453C261.106 297.815 260.502 298.106 259.774 298.187L256.425 298.552L256.512 299.351L259.745 298.998Z" fill="#FFD862"/>
<path d="M263.095 301.391H250.677V302.574H263.095V301.391Z" fill="#7BC5B6"/>
<path d="M305.926 259.719H276.057V305.376H305.926V259.719Z" fill="#E77E49"/>
<path d="M297.995 259.719H268.126V305.376H297.995V259.719Z" fill="#F4FAFF"/>
<path d="M297.995 259.719V305.376L268.126 259.719H297.995Z" fill="#F2944C"/>
<path d="M291.513 281.601C291.009 281.365 291.028 280.343 291.51 279.862C292.008 279.345 292.234 278.368 292.017 277.686L290.54 271.664C290.32 270.982 289.961 270.982 289.745 271.664L288.267 277.686C288.047 278.368 288.277 279.348 288.775 279.862C289.257 280.343 289.383 281.3 288.771 281.601C287.595 282.18 286.731 283.324 286.731 284.717V300.715C286.731 301.43 287.317 302.018 288.034 302.018H292.26C292.974 302.018 293.563 301.433 293.563 300.715V284.717C293.556 283.321 292.703 282.154 291.513 281.601Z" fill="#F3C252"/>
<path d="M288.992 277.871L289.884 272.156C289.855 272.211 289.829 272.279 289.803 272.353L288.552 277.681C288.365 278.259 288.559 279.09 288.982 279.53L289.218 279.775C288.972 279.261 288.872 278.453 288.992 277.871Z" fill="white"/>
<path d="M291.733 277.677L290.479 272.35C290.456 272.272 290.427 272.207 290.401 272.152L291.29 277.868C291.413 278.449 291.31 279.261 291.067 279.772L291.307 279.526C291.724 279.089 291.918 278.259 291.733 277.677Z" fill="#E5A344"/>
<path d="M288.51 300.281V284.716C288.51 284.713 288.51 284.71 288.51 284.706C288.51 283.756 288.775 282.706 289.182 282.023C288.08 282.418 287.291 283.472 287.291 284.706C287.291 284.71 287.291 284.713 287.291 284.716V300.281C287.291 300.996 287.876 301.581 288.591 301.581H289.25C288.843 301.581 288.51 300.996 288.51 300.281Z" fill="white"/>
<path d="M292.991 284.706C292.991 283.468 292.202 282.418 291.1 282.023C291.507 282.709 291.775 283.756 291.775 284.706C291.775 284.71 291.775 284.713 291.775 284.716V300.281C291.775 300.996 291.439 301.581 291.028 301.581H291.688C292.406 301.581 292.991 300.996 292.991 300.281V284.716C292.991 284.713 292.991 284.71 292.991 284.706Z" fill="#E5A344"/>
<path d="M290.934 280.215C290.691 280.318 290.42 280.373 290.138 280.373C289.86 280.373 289.599 280.318 289.356 280.218C289.489 280.606 289.508 281.081 289.35 281.391C289.605 281.33 289.867 281.298 290.138 281.298C290.42 281.298 290.688 281.33 290.947 281.395C290.811 281.101 290.811 280.609 290.934 280.215Z" fill="#E5A344"/>
<path d="M293.964 263.07H272.161V269.83H293.964V263.07Z" fill="#B44822"/>
<path d="M279.914 293.691H272.161V298.967H279.914V293.691Z" fill="#F2944C"/>
<path d="M285.517 300.176H272.161V302.015H285.517V300.176Z" fill="#F2944C"/>
<path d="M385.312 236.957H316.89V305.368H385.312V236.957Z" fill="#449996"/>
<path d="M369.011 236.957H300.592V305.368H369.011V236.957Z" fill="#F4FAFF"/>
<path d="M332.589 290.717C330.662 288.775 327.2 289.056 324.419 289.279C323.763 289.331 323.136 289.382 322.567 289.402C322.133 289.418 321.678 289.437 321.209 289.46C316.961 289.657 311.672 289.903 308.552 286.757C306.631 284.821 306.757 282.852 307.2 281.54C308.096 278.896 311.274 276.41 314.284 275.996L314.371 276.636C311.581 277.018 308.636 279.31 307.811 281.747C307.259 283.379 307.672 284.957 309.007 286.302C311.927 289.243 317.054 289.004 321.177 288.813C321.649 288.791 322.108 288.771 322.544 288.755C323.107 288.736 323.721 288.684 324.367 288.632C327.284 288.396 330.911 288.105 333.048 290.258L332.589 290.717Z" fill="#5BAEA5"/>
<path d="M330.877 293.546C334.194 293.546 336.881 291.871 336.881 289.806C336.881 287.74 334.194 286.062 330.877 286.062C327.563 286.062 324.87 287.737 324.87 289.806C324.87 291.871 327.56 293.546 330.877 293.546Z" fill="#48A4A1"/>
<path d="M329.677 291.773C331.904 291.773 333.705 290.649 333.705 289.262C333.705 287.875 331.901 286.75 329.677 286.75C327.452 286.75 325.648 287.875 325.648 289.262C325.648 290.649 327.449 291.773 329.677 291.773Z" fill="#55B5AF"/>
<path d="M331.715 282.476V282.256C331.715 281.041 331.964 279.082 332.271 277.905L336.39 262.027C336.694 260.85 335.95 259.887 334.735 259.887H318.997C317.781 259.887 316.536 260.85 316.229 262.027L312.11 277.905C311.807 279.082 311.558 281.041 311.558 282.256V282.476C311.558 283.692 312.553 284.687 313.769 284.687H333.93C332.711 284.687 331.715 283.692 331.715 282.476Z" fill="#5BAEA5"/>
<path d="M341.615 277.905L337.496 262.027C337.192 260.85 335.944 259.887 334.732 259.887C335.947 259.887 336.691 260.85 336.387 262.027L332.268 277.905C331.964 279.082 331.712 281.041 331.712 282.256V282.476C331.712 283.692 332.708 284.687 333.923 284.687H339.956C341.172 284.687 342.168 283.692 342.168 282.476V282.256C342.171 281.041 341.919 279.085 341.615 277.905Z" fill="#449996"/>
<path d="M332.27 277.905C331.966 279.082 330.718 280.045 329.503 280.045H313.764C312.549 280.045 311.805 279.082 312.106 277.905L316.225 262.027C316.532 260.85 317.773 259.887 318.992 259.887H334.73C335.946 259.887 336.689 260.85 336.386 262.027L332.27 277.905Z" fill="#D4EBEA"/>
<path d="M330.94 275.731C330.594 277.062 329.184 278.155 327.807 278.155H316.443C315.066 278.155 314.219 277.066 314.568 275.731L317.555 264.21C317.901 262.875 319.311 261.785 320.688 261.785H332.049C333.426 261.785 334.27 262.875 333.924 264.21L330.94 275.731Z" fill="#C9E6E9"/>
<path d="M328.028 270.765C327.911 271.208 327.442 271.573 326.983 271.573H320.685C320.226 271.573 319.945 271.208 320.061 270.765L321.801 264.054C321.917 263.611 322.386 263.246 322.845 263.246H329.14C329.599 263.246 329.877 263.608 329.764 264.054L328.028 270.765Z" fill="#48A4A1"/>
<path d="M324.814 274.86C324.549 275.872 323.517 276.693 322.506 276.693C321.494 276.693 320.886 275.872 321.148 274.86C321.41 273.848 322.441 273.027 323.456 273.027C324.465 273.027 325.076 273.848 324.814 274.86Z" fill="#005D66"/>
<path d="M362.385 286.332C362.385 285.013 357.335 283.943 351.101 283.943C344.868 283.943 339.818 285.013 339.818 286.332V260.92C339.818 259.601 344.868 258.531 351.101 258.531C357.331 258.531 362.385 259.601 362.385 260.92V286.332Z" fill="#7EBEA9"/>
<path d="M351.102 263.027C346.725 263.027 343.175 262.273 343.175 261.349C343.175 260.421 346.725 259.668 351.102 259.668C355.483 259.668 359.033 260.421 359.033 261.349C359.033 262.273 355.483 263.027 351.102 263.027Z" fill="#48A4A1"/>
<path d="M345.629 265.204C345.629 264.451 346.579 263.937 347.798 263.95C352.276 264.015 361.267 263.717 362.288 261.219C361.59 262.395 356.854 263.307 351.105 263.307C344.872 263.307 339.822 262.237 339.822 260.918V286.329C339.822 287.231 342.179 288.014 345.655 288.424C345.648 288.376 345.632 288.327 345.632 288.279C345.629 284.409 345.629 269.074 345.629 265.204Z" fill="#99CEAD"/>
<path d="M362.386 286.329V260.918C362.386 261.021 362.347 261.122 362.289 261.219C361.267 263.717 352.276 264.015 347.798 263.95C346.579 263.934 345.629 264.451 345.629 265.204C345.629 269.074 345.629 284.409 345.629 288.279C345.629 288.327 345.645 288.376 345.652 288.424C347.268 288.612 349.127 288.721 351.102 288.721C357.332 288.721 362.386 287.652 362.386 286.329Z" fill="#7EBEA9"/>
<path d="M362.384 286.544C362.384 289.279 353.338 290.536 348.967 290.814C347.846 290.885 346.973 290.245 346.973 289.492C346.973 285.623 346.973 270.287 346.973 266.418C346.973 265.665 347.846 265.08 348.967 265.009C353.335 264.731 362.384 263.683 362.384 260.738V286.544Z" fill="#99CEAD"/>
<path d="M349.269 287.393C349.269 284.49 349.269 270.118 349.269 267.215C350.478 267.37 351.726 267.37 352.935 267.215C352.935 270.118 352.935 284.49 352.935 287.393C351.726 287.548 350.478 287.548 349.269 287.393Z" fill="#D4EBEA"/>
<path d="M307.22 265.64H307.217C307.042 265.637 306.9 265.491 306.903 265.317C306.949 262.252 308.766 253.983 312.086 251.869C312.994 251.294 313.938 251.216 314.892 251.646C315.642 251.985 316.098 253.007 316.576 254.09C317.165 255.412 317.769 256.776 318.856 256.867C320.333 256.963 321.892 252.147 323.033 248.614C323.767 246.341 324.4 244.379 324.986 243.606C325.092 243.467 325.293 243.438 325.432 243.545C325.574 243.652 325.6 243.852 325.493 243.991C324.973 244.676 324.326 246.684 323.637 248.808C322.257 253.084 320.828 257.503 318.904 257.503C318.869 257.503 318.836 257.503 318.801 257.5C317.339 257.381 316.622 255.771 315.991 254.348C315.581 253.424 315.154 252.464 314.624 252.225C313.867 251.882 313.143 251.943 312.419 252.402C309.522 254.245 307.579 261.922 307.531 265.32C307.537 265.501 307.395 265.64 307.22 265.64Z" fill="#449996"/>
<path d="M315.916 251.552C315.916 252.615 315.053 253.478 313.989 253.478C312.926 253.478 312.062 252.615 312.062 251.552C312.062 250.488 312.926 249.625 313.989 249.625C315.053 249.625 315.916 250.485 315.916 251.552Z" fill="#EF7F3C"/>
<path d="M327.171 244.138C327.171 245.201 326.308 246.064 325.244 246.064C324.181 246.064 323.317 245.201 323.317 244.138C323.317 243.074 324.181 242.211 325.244 242.211C326.308 242.214 327.171 243.074 327.171 244.138Z" fill="#EF7F3C"/>
<path d="M359.003 242.109H331.688V254.461H359.003V242.109Z" fill="#449996"/>
<path d="M361.631 296.559H308.002V300.215H361.631V296.559Z" fill="#449996"/>
<path d="M407.051 236.766H377.754V305.374H407.051V236.766Z" fill="#1487C9"/>
<path d="M400.84 236.766H371.543V305.374H400.84V236.766Z" fill="#119ED9"/>
<path d="M385.238 295.613V264.648L383.075 263.962V262.453H383.392V262.133H379.942V262.453H380.259V263.962L378.119 264.648V295.613H376.163V296.046H378.119H385.238H387.191V295.613H385.238Z" fill="white"/>
<path d="M382.807 241.289H380.524L380.317 241.506V259.295H382.8H383.014V241.506L382.807 241.289Z" fill="white"/>
<path d="M381.838 255.461V242.211L381.518 244.225V255.461H381.838Z" fill="#119ED9"/>
<path d="M382.452 255.461L383.095 262.133H380.26L380.906 255.461H382.452Z" fill="#81CFF4"/>
<path d="M380.905 255.458C381.329 255.035 382.021 255.035 382.444 255.458H380.905Z" fill="#81CFF4"/>
<path d="M383.392 259.293H379.942V259.616H383.392V259.293Z" fill="white"/>
<path d="M382.642 264.305H380.689L378.549 264.993V270.026H378.759H384.595H384.805V264.993L382.642 264.305Z" fill="#119ED9"/>
<path d="M381.249 270.027H379.942V300.032H381.249V270.027Z" fill="#81CFF4"/>
<path d="M383.414 270.027H382.111V300.032H383.414V270.027Z" fill="#81CFF4"/>
<path d="M382.111 270.027H381.248V300.032H382.111V270.027Z" fill="#D3ECFB"/>
<path d="M385.238 300.039H378.119V300.847H385.238V300.039Z" fill="#81CFF4"/>
<path d="M396.221 292.25H388.588V300.849H396.221V292.25Z" fill="white"/>
<path d="M396.221 241.289H388.588V287.981H396.221V241.289Z" fill="#81CFF4"/>
<path d="M402.213 286.378C400.691 286.378 399.245 286.255 398.02 286.152C396.75 286.045 395.809 284.927 395.915 283.656C396.022 282.386 397.154 281.451 398.411 281.552C401.363 281.804 405.404 282.146 407.748 280.524C408.796 279.8 410.234 280.058 410.958 281.106C411.686 282.153 411.424 283.591 410.377 284.316C407.987 285.974 404.974 286.378 402.213 286.378Z" fill="#F5AE8B"/>
<path d="M398.269 292.593C397.095 292.593 396.093 291.704 395.973 290.514C395.847 289.247 396.772 288.115 398.043 287.989C402.86 287.511 406.325 286.302 408.346 284.401C409.274 283.528 410.735 283.57 411.608 284.498C412.481 285.426 412.439 286.887 411.511 287.76C408.731 290.378 404.353 292.001 398.498 292.583C398.421 292.589 398.346 292.593 398.269 292.593Z" fill="#F5AE8B"/>
<path d="M401.36 298.419C400.297 298.419 399.34 297.679 399.107 296.596C398.839 295.352 399.631 294.123 400.879 293.855C403.908 293.205 407.06 291.081 408.541 288.693C409.213 287.61 410.636 287.277 411.719 287.949C412.802 288.621 413.135 290.044 412.462 291.127C410.306 294.602 406.139 297.446 401.849 298.368C401.687 298.403 401.522 298.419 401.36 298.419Z" fill="#F5AE8B"/>
<path d="M405.333 301.768C404.422 301.768 403.558 301.225 403.193 300.329C402.714 299.149 403.284 297.801 404.464 297.323C405.618 296.854 406.827 295.154 407.157 293.534C407.412 292.286 408.631 291.482 409.879 291.734C411.127 291.989 411.932 293.208 411.68 294.456C411.153 297.038 409.213 300.374 406.2 301.596C405.918 301.713 405.624 301.768 405.333 301.768Z" fill="#F5AE8B"/>
<path d="M79.0885 230.268C79.0885 234.218 75.8555 237.451 71.9048 237.451H24.7452C20.7945 237.451 17.5615 234.218 17.5615 230.268V198.21C17.5615 194.26 20.7945 191.027 24.7452 191.027H71.9048C75.8555 191.027 79.0885 194.26 79.0885 198.21V230.268Z" fill="#4E9FCA"/>
<path d="M54.6117 314.103C54.6117 317.067 52.187 319.491 49.2223 319.491H17.9011C14.9364 319.491 12.5117 317.067 12.5117 314.103V257.115C12.5117 254.151 14.9364 251.727 17.9011 251.727H49.2223C52.187 251.727 54.6117 254.151 54.6117 257.115V314.103Z" fill="#4E9FCA"/>
<path d="M185.693 248.86C167.262 253.557 144.221 252.968 131.955 250.166C130.732 232.522 132.042 214.581 134.147 197.281L101.881 194.391C100.349 214.669 102.26 246.122 111.154 266.332C117.29 280.277 167.055 269.885 186.696 260.681L185.693 248.86Z" fill="#F18E7F"/>
<path d="M201.089 265.483C200.649 266.279 199.605 266.566 198.768 266.12L179.198 255.76C178.361 255.317 178.034 254.299 178.474 253.503L201.541 211.674C201.981 210.879 203.025 210.588 203.863 211.034L223.432 221.397C224.269 221.84 224.593 222.859 224.156 223.654L201.089 265.483Z" fill="#424853"/>
<path d="M181.319 253.543C180.521 253.119 180.207 252.146 180.627 251.387L200.914 214.597C201.335 213.837 202.334 213.559 203.132 213.986L221.311 223.612C222.113 224.036 222.427 225.009 222.006 225.772L201.716 262.565C201.296 263.325 200.297 263.603 199.495 263.176L181.319 253.543Z" fill="white"/>
<path d="M211.136 239.192C210.561 240.236 206.917 242.182 206.917 242.182C206.917 242.182 206.584 238.131 207.16 237.084C207.735 236.04 209.093 235.665 210.189 236.247C211.288 236.829 211.712 238.147 211.136 239.192Z" fill="#E73861"/>
<path d="M210.431 238.817C210.063 239.493 209.187 239.735 208.479 239.357C207.767 238.985 207.496 238.132 207.868 237.456C208.239 236.781 209.116 236.541 209.824 236.913C210.532 237.291 210.806 238.142 210.431 238.817Z" fill="white"/>
<path d="M210.519 224.129L200.953 219.067L201.81 217.516L211.376 222.581L210.519 224.129Z" fill="#4E9FCA"/>
<path d="M202.084 239.434L192.515 234.369L193.371 232.82L202.935 237.886L202.084 239.434Z" fill="#4E9FCA"/>
<path d="M208.511 227.771L198.948 222.706L200.477 219.926L210.044 224.994L208.511 227.771Z" fill="#4E9FCA"/>
<path d="M216.161 231.824L210.7 228.93L213.565 223.742L219.022 226.632L216.161 231.824Z" fill="#4E9FCA"/>
<path d="M213.214 229.769C213.13 229.72 213.075 229.636 213.072 229.546L213.03 226.472C213.03 226.333 213.143 226.219 213.289 226.223C213.434 226.223 213.554 226.342 213.557 226.478L213.593 229.077L217.579 226.517C217.699 226.443 217.864 226.468 217.944 226.591C218.029 226.708 217.999 226.863 217.88 226.937L213.486 229.762C213.409 229.811 213.302 229.811 213.214 229.769Z" fill="white"/>
<path d="M187.187 541.297C187.158 538.886 184.022 535.44 180.223 533.636L151.964 521.08C145.708 521.168 145.022 520.922 138.766 521.013C132.33 526.954 130.173 535.786 133.109 542.471L187.2 542.364C187.2 542.018 187.193 541.666 187.187 541.297Z" fill="#052F5F"/>
<path d="M133.112 542.469C133.626 543.636 134.279 544.751 135.11 545.757C153.487 545.501 168.879 545.935 187.252 545.676C187.252 545.676 187.236 544.257 187.203 542.359L133.112 542.469Z" fill="#B6B7B7"/>
<path d="M154.511 321.812L98.2188 337.468C105.9 367.592 117.979 393.676 131.04 420.591C117.358 441.173 114.988 481.991 132.456 527.231L159.209 524.393C148.579 455.884 168.122 409.228 154.511 321.812Z" fill="#B67D4D"/>
<path d="M137.925 544.694C137.896 542.283 134.756 538.837 130.961 537.033L102.701 524.478C96.4454 524.565 95.76 524.323 89.5042 524.41C83.0673 530.351 80.9141 539.183 83.8497 545.868L137.941 545.761C137.938 545.419 137.928 545.063 137.925 544.694Z" fill="#052F5F"/>
<path d="M83.8467 545.868C84.3607 547.039 85.0106 548.151 85.8415 549.159C104.218 548.901 119.61 549.34 137.986 549.078C137.986 549.078 137.967 547.659 137.941 545.762L83.8467 545.868Z" fill="#B6B7B7"/>
<path d="M142.387 339.493C142.639 336.238 142.888 332.947 143.118 329.566C143.47 327.617 143.667 325.609 143.667 323.557C143.667 305.115 128.715 290.164 110.271 290.164C91.8234 290.164 76.874 305.115 76.874 323.557C76.874 326.902 77.3783 330.125 78.2965 333.167C93.2264 337.68 119.908 341.359 142.387 339.493Z" fill="#B67D4D"/>
<path d="M78.2959 333.168C79.2755 336.41 80.7206 339.446 82.5699 342.19C83.1389 343.034 83.7403 343.858 84.3836 344.644C84.6164 374.542 89.2525 402.614 93.7787 432.37C82.1464 464.314 78.2086 493.608 86.0324 527.948L114.583 529.335C124.201 464.773 135.859 419.989 142.05 343.806C142.167 342.384 142.277 340.929 142.39 339.484C119.908 341.356 93.2258 337.677 78.2959 333.168Z" fill="#D28D58"/>
<path d="M143.667 260.278C140.337 255.406 137.124 229.584 134.838 220.488C130.632 203.746 107.364 202.809 99.3528 216.631C93.9505 225.954 100.122 241.826 102.793 251.624C106.071 263.643 110.073 273.46 115.524 284.668C119.876 293.609 124.864 300.249 135.578 299.793C143.577 299.45 151.695 297.527 159.703 295.115C159.063 284.933 158.604 273.871 158.953 263.627C153.273 264.373 146.474 264.38 143.667 260.278Z" fill="#FCC551"/>
<path d="M135.581 299.795C124.867 300.251 119.879 293.611 115.527 284.67C110.076 273.463 106.074 263.649 102.796 251.627C100.122 241.829 93.9535 225.953 99.3559 216.634C107.367 202.808 130.632 203.749 134.841 220.49C137.127 229.587 140.344 255.409 143.67 260.28C146.473 264.382 153.276 264.376 158.959 263.632C159.059 260.717 159.221 257.869 159.467 255.127C162.276 223.71 155.306 195.829 136.377 184.334C120.858 174.911 98.5928 184.735 88.1406 205.122C73.3755 233.912 78.988 284.774 74.4521 329.681C80.4946 330.757 97.9172 333.485 109.032 333.702C116.921 333.854 125.31 333.705 133.128 333.136C145.639 332.225 156.661 330.24 161.72 326.684C161.685 320.219 160.547 308.426 159.709 295.124C151.698 297.529 143.58 299.453 135.581 299.795Z" fill="#FFD96F"/>
<path d="M79.0889 223.275L79.2408 236.357C98.9556 196.331 124.777 201.471 132.627 216.493C130.681 197.019 99.8576 184.49 79.0889 223.275Z" fill="#052F5F"/>
<path d="M132.627 216.492C132.876 218.991 132.656 221.6 131.874 224.231C123.102 253.748 89.6766 288.372 78.2383 304.894L78.3514 314.262C89.7897 297.74 125.366 261.438 134.137 231.918C135.74 226.523 135.013 221.053 132.627 216.492Z" fill="#052F5F"/>
<path d="M123.791 198.055C117.458 198.055 112.327 192.922 112.327 186.592V159.72C112.327 153.387 117.461 148.254 123.791 148.254C130.125 148.254 135.259 153.387 135.259 159.72V186.592C135.259 192.925 130.125 198.055 123.791 198.055Z" fill="#F5AE8B"/>
<path d="M129.882 170.042C134.689 174.034 136.674 179.575 134.317 182.413C131.96 185.248 126.154 184.307 121.343 180.309C116.536 176.316 114.551 170.779 116.904 167.944C119.264 165.106 125.071 166.047 129.882 170.042Z" fill="#F18E7F"/>
<path d="M151.659 135.604C159.845 152.09 155.238 171.033 141.372 177.919C127.502 184.801 109.624 177.02 101.438 160.534C93.2521 144.047 97.8559 125.101 111.729 118.216C125.595 111.334 143.473 119.121 151.659 135.604Z" fill="#F5AE8B"/>
<path d="M155.289 132.116C151.403 139.499 139.095 136.848 138.035 144.112C134.737 166.711 124.21 148.857 122.274 156.176C118.562 170.186 117.538 179.302 104.285 169.875C93.2869 162.056 87.8457 128.996 109.122 117.485C125.122 108.825 138.82 114.524 147.294 120.087C154.048 124.516 157.643 127.648 155.289 132.116Z" fill="#B44822"/>
<path d="M143.761 121.225C159.289 116.014 173.802 113.783 176.171 116.243C178.538 118.703 167.869 124.923 152.338 130.134L143.761 121.225Z" fill="#052F5F"/>
<path d="M142.523 146.136C142.41 146.136 142.3 146.11 142.193 146.049C141.867 145.868 141.754 145.457 141.935 145.131C143.402 142.512 146.48 140.052 150.046 140.434C150.418 140.476 150.683 140.806 150.644 141.177C150.606 141.546 150.266 141.811 149.901 141.772C146.946 141.459 144.359 143.556 143.108 145.787C142.989 146.013 142.759 146.136 142.523 146.136Z" fill="#B44822"/>
<path d="M149.655 147.289C149.975 148.873 149.567 150.289 148.753 150.454C147.935 150.616 147.02 149.465 146.7 147.884C146.383 146.3 146.787 144.884 147.602 144.723C148.42 144.558 149.338 145.705 149.655 147.289Z" fill="#B44822"/>
<path d="M144.397 160.909C145.765 166.534 151.487 164.459 153.333 160.793L144.397 160.909Z" fill="white"/>
<path d="M153.221 145.941C153.221 145.941 160.023 151.773 158.726 153.667C156.952 156.26 153.563 155.781 153.563 155.781L153.221 145.941Z" fill="#F5AE8B"/>
<path d="M92.8352 150.096C86.6667 131.719 94.9916 112.353 111.422 106.841C127.852 101.329 146.17 111.755 152.338 130.132L92.8352 150.096Z" fill="#4E9FCA"/>
<path d="M128.602 170.716L128.217 170.49C125.676 168.999 123.342 167.257 121.282 165.311C118.289 162.479 116.701 159.114 117.038 156.308C117.27 154.356 118.441 152.727 120.423 151.595C121.163 151.172 122.168 150.965 123.487 150.965C125.398 150.965 127.774 151.404 130.073 151.828C131.871 152.158 133.726 152.5 135.362 152.639L135.886 152.685L135.789 153.202C134.58 159.835 131.004 167.225 128.848 170.351L128.602 170.716ZM123.491 151.925C122.34 151.925 121.493 152.09 120.898 152.429C119.168 153.418 118.185 154.763 117.988 156.425C117.691 158.891 119.207 162.033 121.942 164.619C123.843 166.417 125.986 168.036 128.317 169.439C130.38 166.287 133.542 159.651 134.761 153.544C133.215 153.383 131.534 153.072 129.905 152.772C127.648 152.355 125.314 151.925 123.491 151.925Z" fill="white"/>
<path d="M156.819 147.427C156.619 147.256 156.321 147.279 156.147 147.479C154.323 149.574 146.693 152.655 137.664 152.742H137.489C136.868 152.742 136.173 152.709 135.368 152.642C135.123 152.609 134.903 152.787 134.857 153.033C133.674 159.527 130.176 166.755 128.068 169.81C127.994 169.92 127.968 170.056 127.997 170.185C128.023 170.314 128.107 170.427 128.22 170.495C135.507 174.765 143.742 176.602 151.556 177.946C151.582 177.953 151.611 177.953 151.637 177.953C151.785 177.953 151.924 177.885 152.015 177.769C155.878 172.781 160.563 165.081 160.954 156.708C161.122 153.033 160.531 150.592 156.819 147.427Z" fill="white"/>
<path d="M128.026 152.887C130.881 156.893 131.039 161.68 128.378 163.574C125.718 165.465 121.246 163.755 118.392 159.744C115.534 155.735 115.379 150.954 118.039 149.057C120.7 147.162 125.171 148.876 128.026 152.887Z" fill="#F5AE8B"/>
<path d="M194.186 255.715C176.617 264.889 153.201 269.638 140.172 269.573C134.954 251.487 132.225 232.496 130.45 213.992L97.1895 218.485C100.219 239.956 109.252 272.266 122.798 291.245C132.148 304.34 180.096 281.945 197.865 267.792L194.186 255.715Z" fill="#F5AE8B"/>
<path d="M137.535 241.121C125.922 244.102 114.306 247.079 102.693 250.059C100.704 242.32 98.7194 234.578 96.7311 226.836C90.7695 203.61 125.615 194.669 131.573 217.898C133.561 225.637 135.546 233.376 137.535 241.121Z" fill="#FFD96F"/>
<path d="M216.743 238.104C215.77 237.7 214.651 238.159 214.244 239.135C212.071 244.352 209.633 247.953 206.869 250.472C205.928 251.163 201.386 254.341 199.812 252.262C199.184 251.432 199.055 249.809 200.765 247.96C201.771 246.874 204.273 245.403 205.156 244.928C206.058 244.44 206.413 243.328 205.964 242.41C205.515 241.488 204.419 241.087 203.478 241.498C194.454 245.461 187.022 254.664 190.274 264.585C191.367 267.924 194.128 270.113 198.046 270.75C202.918 271.545 209.394 269.945 212.475 265.81C215.43 261.841 216.74 257.464 216.261 253.155C216.077 251.509 215.621 250.016 215.178 248.574C214.997 247.995 214.822 247.414 214.664 246.822C215.76 245.009 216.794 242.953 217.774 240.606C218.178 239.629 217.716 238.511 216.743 238.104Z" fill="#F5AE8B"/>
<path d="M79.0898 320.345C79.0898 323.801 76.2609 326.629 72.8048 326.629H27.876C24.42 326.629 21.5879 323.801 21.5879 320.345V206.577C21.5879 203.121 24.4167 200.293 27.876 200.293H72.8048C76.2609 200.293 79.0898 203.121 79.0898 206.577V320.345Z" fill="#052F5F"/>
<path d="M43.6133 313.003V306.897C43.6133 305.436 43.8913 304.149 44.4474 303.027C45.0035 301.909 45.7891 301.036 46.7978 300.415C47.8097 299.795 48.9865 299.484 50.3314 299.484C51.6764 299.484 52.8531 299.795 53.8651 300.415C54.877 301.036 55.6626 301.906 56.2187 303.027C56.7748 304.149 57.0528 305.439 57.0528 306.897V313.003H43.6133ZM54.5053 307.052C54.5053 305.707 54.1302 304.637 53.3801 303.835C52.6333 303.034 51.6182 302.636 50.3347 302.636C49.0544 302.636 48.0393 303.037 47.2925 303.835C46.5424 304.637 46.1706 305.707 46.1706 307.052V309.893H54.5053V307.052Z" fill="white"/>
<path d="M54.5602 286.738H57.0561V297.147H43.6133V286.99H46.1091V294.057H49.0285V287.815H51.4468V294.057H54.557V286.738H54.5602Z" fill="white"/>
<path d="M43.6133 284.26V281.15H54.5214V274.41H57.0561V284.26H43.6133Z" fill="white"/>
<path d="M43.6133 272.661V269.551H57.0561V272.661H43.6133Z" fill="white"/>
<path d="M43.6133 253.52L57.0561 259.338V262.409L43.6133 268.208V264.847L53.2152 260.757L43.6133 256.61V253.52Z" fill="white"/>
<path d="M54.5602 241.992H57.0561V252.401H43.6133V242.244H46.1091V249.311H49.0285V243.069H51.4468V249.311H54.557V241.992H54.5602Z" fill="white"/>
<path d="M57.06 230.952L53.3161 233.544V233.696V236.405H57.06V239.515H43.6172V233.696C43.6172 232.507 43.8144 231.472 44.2121 230.596C44.6097 229.72 45.1723 229.045 45.9029 228.569C46.6304 228.094 47.4968 227.858 48.4958 227.858C49.4948 227.858 50.3548 228.097 51.0789 228.579C51.7999 229.061 52.3559 229.74 52.7407 230.625L57.06 227.609V230.952ZM46.7532 231.737C46.349 232.222 46.1486 232.933 46.1486 233.868V236.402H50.8365V233.868C50.8365 232.933 50.6328 232.222 50.2222 231.737C49.8116 231.253 49.2361 231.007 48.4926 231.007C47.7393 231.01 47.1573 231.253 46.7532 231.737Z" fill="white"/>
<path d="M52.2939 219.142H57.0561V222.252H52.255L43.6133 227.456V224.152L49.5846 220.561L43.6133 216.97V213.918L52.2939 219.142Z" fill="white"/>
<path d="M222.117 286.995C222.095 286.995 222.072 286.995 222.049 286.995C218.597 286.895 213.375 286.746 209.981 283.772C209.024 282.932 208.927 281.474 209.764 280.517C210.601 279.557 212.063 279.463 213.02 280.304C215.163 282.182 219.217 282.298 222.179 282.386C223.452 282.421 224.455 283.485 224.419 284.758C224.387 286.006 223.362 286.995 222.117 286.995Z" fill="#F5AE8B"/>
<path d="M221.331 293.385C221.17 293.385 221.005 293.369 220.84 293.333C215.088 292.089 210.921 289.981 208.461 287.065C207.64 286.092 207.762 284.634 208.735 283.813C209.709 282.992 211.163 283.115 211.988 284.088C213.776 286.209 217.083 287.799 221.816 288.824C223.061 289.092 223.853 290.32 223.585 291.565C223.352 292.648 222.395 293.385 221.331 293.385Z" fill="#F5AE8B"/>
<path d="M217.598 298.816C217.359 298.816 217.113 298.777 216.874 298.7C213.149 297.471 209.722 294.575 208.151 291.323C207.595 290.175 208.077 288.795 209.221 288.239C210.369 287.683 211.749 288.165 212.306 289.309C213.33 291.423 215.804 293.482 218.322 294.313C219.531 294.714 220.191 296.017 219.79 297.229C219.467 298.202 218.565 298.816 217.598 298.816Z" fill="#F5AE8B"/>
<path d="M214.94 303.246C214.565 303.246 214.186 303.156 213.834 302.962C210.979 301.404 209.434 297.867 209.201 295.242C209.091 293.972 210.029 292.854 211.299 292.744C212.567 292.63 213.688 293.571 213.802 294.842C213.947 296.487 214.953 298.317 216.049 298.915C217.167 299.526 217.578 300.929 216.967 302.047C216.55 302.813 215.758 303.246 214.94 303.246Z" fill="#F5AE8B"/>
</svg>
