<svg width="464" height="569" viewBox="0 0 464 569" fill="none" xmlns="http://www.w3.org/2000/svg">
<path d="M258.485 53.9146C295.35 61.7492 365.958 23.5057 423.728 61.3757C485.971 102.181 460.033 168.107 444.649 196.684C417.123 247.817 384.516 267.756 391.559 329.112C399.603 399.179 373.533 475.137 308.609 505.952C229.541 543.48 119.341 433.497 70.0242 423.171C-5.22101 407.411 -18.4776 296.745 23.7776 247.076C52.8068 212.956 62.8801 170.88 50.5357 121.373C38.182 71.8218 64.6309 -5.94447 154.25 0.360824C190.576 2.91647 204.549 42.4569 258.485 53.9146Z" fill="#4E9FCA" fill-opacity="0.5"/>
<path d="M436.525 537.326C436.525 554.819 344.747 568.999 231.535 568.999C118.322 568.999 26.5479 554.819 26.5479 537.326C26.5479 519.833 118.325 505.652 231.535 505.652C344.747 505.652 436.525 519.833 436.525 537.326Z" fill="#A9ABAE" fill-opacity="0.5"/>
<path d="M307.772 502.286C307.772 510.242 301.265 516.754 293.309 516.754H107.441C99.4845 516.754 92.9746 510.242 92.9746 502.286V84.6477C92.9746 76.6918 99.4845 70.1797 107.441 70.1797H293.312C301.269 70.1797 307.775 76.6918 307.775 84.6477V502.286H307.772Z" fill="#424853"/>
<path d="M114.039 490.966C106.434 490.966 100.209 484.741 100.209 477.134V109.8C100.209 102.193 106.434 95.9688 114.039 95.9688H286.71C294.318 95.9688 300.54 102.193 300.54 109.8V477.137C300.54 484.744 294.318 490.969 286.71 490.969H114.039V490.966Z" fill="white"/>
<path d="M290.604 167.879C290.604 170.528 288.435 172.697 285.786 172.697H114.961C112.312 172.697 110.143 170.528 110.143 167.879V137.001C110.143 134.352 112.312 132.184 114.961 132.184H285.786C288.435 132.184 290.604 134.352 290.604 137.001V167.879Z" fill="#052F5F"/>
<path d="M135.723 157.994C134.551 157.364 133.634 156.498 132.97 155.391C132.306 154.287 131.976 153.045 131.976 151.665C131.976 150.286 132.306 149.044 132.97 147.94C133.634 146.835 134.551 145.967 135.723 145.34C136.895 144.71 138.21 144.395 139.672 144.395C141.132 144.395 142.447 144.71 143.61 145.34C144.775 145.97 145.693 146.835 146.363 147.94C147.033 149.044 147.366 150.286 147.366 151.665C147.366 153.045 147.033 154.287 146.363 155.391C145.693 156.495 144.775 157.364 143.61 157.994C142.444 158.624 141.132 158.939 139.672 158.939C138.213 158.939 136.898 158.624 135.723 157.994ZM141.924 155.593C142.594 155.21 143.12 154.678 143.502 153.996C143.885 153.314 144.074 152.537 144.074 151.665C144.074 150.793 143.885 150.017 143.502 149.334C143.12 148.652 142.594 148.12 141.924 147.738C141.254 147.355 140.504 147.166 139.672 147.166C138.84 147.166 138.091 147.355 137.421 147.738C136.751 148.12 136.225 148.652 135.842 149.334C135.46 150.017 135.27 150.793 135.27 151.665C135.27 152.537 135.46 153.314 135.842 153.996C136.225 154.678 136.751 155.21 137.421 155.593C138.091 155.975 138.84 156.165 139.672 156.165C140.504 156.165 141.254 155.975 141.924 155.593Z" fill="white"/>
<path d="M158.783 158.697L156.069 154.779H155.907H153.074V158.697H149.819V144.633H155.907C157.152 144.633 158.235 144.841 159.153 145.257C160.071 145.673 160.777 146.26 161.273 147.025C161.768 147.789 162.016 148.692 162.016 149.738C162.016 150.784 161.765 151.683 161.264 152.439C160.762 153.194 160.049 153.775 159.122 154.176L162.276 158.697H158.783ZM157.957 147.918C157.446 147.496 156.702 147.285 155.727 147.285H153.074V152.188H155.727C156.705 152.188 157.449 151.974 157.957 151.546C158.464 151.117 158.721 150.515 158.721 149.738C158.721 148.946 158.468 148.34 157.957 147.918Z" fill="white"/>
<path d="M164.589 144.633H170.979C172.506 144.633 173.855 144.923 175.03 145.508C176.201 146.092 177.113 146.912 177.762 147.97C178.41 149.028 178.734 150.261 178.734 151.668C178.734 153.075 178.41 154.308 177.762 155.366C177.113 156.424 176.201 157.244 175.03 157.828C173.858 158.413 172.509 158.703 170.979 158.703H164.589V144.633ZM170.817 156.027C172.224 156.027 173.344 155.635 174.182 154.852C175.021 154.069 175.44 153.008 175.44 151.668C175.44 150.328 175.021 149.267 174.182 148.484C173.344 147.701 172.224 147.309 170.817 147.309H167.844V156.03H170.817V156.027Z" fill="white"/>
<path d="M192.076 156.085V158.697H181.186V144.633H191.816V147.245H184.422V150.298H190.953V152.83H184.422V156.085H192.076Z" fill="white"/>
<path d="M203.629 158.697L200.916 154.779H200.754H197.921V158.697H194.666V144.633H200.754C201.999 144.633 203.082 144.841 203.999 145.257C204.917 145.673 205.624 146.26 206.119 147.025C206.615 147.789 206.863 148.692 206.863 149.738C206.863 150.784 206.612 151.683 206.11 152.439C205.609 153.194 204.896 153.775 203.972 154.176L207.126 158.697H203.629ZM202.806 147.918C202.296 147.496 201.552 147.285 200.576 147.285H197.924V152.188H200.576C201.555 152.188 202.299 151.974 202.806 151.546C203.314 151.117 203.571 150.515 203.571 149.738C203.568 148.946 203.314 148.34 202.806 147.918Z" fill="white"/>
<path d="M228.023 144.633V158.697H225.35L218.338 150.157V158.697H215.123V144.633H217.815L224.808 153.173V144.633H228.023Z" fill="white"/>
<path d="M234.222 157.994C233.05 157.364 232.133 156.498 231.469 155.391C230.805 154.287 230.475 153.045 230.475 151.665C230.475 150.286 230.805 149.044 231.469 147.94C232.133 146.835 233.05 145.967 234.222 145.34C235.394 144.71 236.709 144.395 238.171 144.395C239.631 144.395 240.946 144.71 242.109 145.34C243.274 145.97 244.192 146.835 244.862 147.94C245.532 149.044 245.865 150.286 245.865 151.665C245.865 153.045 245.529 154.287 244.862 155.391C244.192 156.495 243.274 157.364 242.109 157.994C240.943 158.624 239.631 158.939 238.171 158.939C236.709 158.939 235.394 158.624 234.222 157.994ZM240.42 155.593C241.09 155.21 241.616 154.678 241.998 153.996C242.381 153.314 242.57 152.537 242.57 151.665C242.57 150.793 242.381 150.017 241.998 149.334C241.616 148.652 241.09 148.12 240.42 147.738C239.75 147.355 239 147.166 238.168 147.166C237.336 147.166 236.587 147.355 235.917 147.738C235.247 148.12 234.721 148.652 234.338 149.334C233.956 150.017 233.766 150.793 233.766 151.665C233.766 152.537 233.956 153.314 234.338 153.996C234.721 154.678 235.247 155.21 235.917 155.593C236.587 155.975 237.336 156.165 238.168 156.165C239 156.165 239.75 155.975 240.42 155.593Z" fill="white"/>
<path d="M269.115 144.633L264.514 158.697H261.017L257.921 149.175L254.727 158.697H251.252L246.63 144.633H250.007L253.183 154.519L256.499 144.633H259.512L262.727 154.598L266.003 144.633H269.115Z" fill="white"/>
<path d="M255.937 562.911C209.08 552.184 162.22 541.456 115.363 530.729C147.08 469.75 128.187 397.187 159.907 336.207C206.764 346.934 253.624 357.661 300.484 368.391C268.764 429.368 287.654 501.931 255.937 562.911Z" fill="#DFE3E9"/>
<path d="M259.623 383.041C233.846 377.14 208.073 371.24 182.297 365.34C183.576 361.528 184.992 357.748 186.571 354.004C212.347 359.904 238.12 365.808 263.896 371.708C262.318 375.449 260.898 379.23 259.623 383.041Z" fill="#4E9FCA"/>
<path d="M272.86 405.153C234.917 396.467 196.975 387.78 159.032 379.096C159.384 377.569 159.748 376.049 160.134 374.535C198.076 383.222 236.022 391.909 273.961 400.596C273.579 402.11 273.212 403.63 272.86 405.153Z" fill="#4E9FCA"/>
<path d="M271.129 413.376C233.184 404.689 195.241 396.002 157.299 387.315C157.596 385.78 157.908 384.244 158.232 382.715C196.174 391.402 234.117 400.089 272.063 408.776C271.735 410.308 271.426 411.84 271.129 413.376Z" fill="#4E9FCA"/>
<path d="M269.661 421.66C231.721 412.974 193.776 404.29 155.833 395.603C156.084 394.055 156.347 392.51 156.622 390.969C194.565 399.656 232.51 408.339 270.453 417.029C270.178 418.568 269.915 420.113 269.661 421.66Z" fill="#4E9FCA"/>
<path d="M182.019 524.422C167.078 521.003 152.134 517.58 137.19 514.16C137.71 512.674 138.212 511.184 138.692 509.691C153.636 513.111 168.577 516.534 183.518 519.954C183.038 521.446 182.539 522.939 182.019 524.422Z" fill="#4E9FCA"/>
<path d="M229.772 439.618C203.999 433.718 178.223 427.815 152.446 421.914C152.865 417.916 153.309 413.925 153.801 409.945C179.575 415.846 205.351 421.746 231.127 427.646C230.635 431.629 230.191 435.624 229.772 439.618Z" fill="#4E9FCA"/>
<path d="M227.404 463.779C201.628 457.879 175.851 451.979 150.078 446.078C150.476 442.077 150.858 438.07 151.244 434.066C177.017 439.967 202.793 445.867 228.567 451.767C228.181 455.774 227.802 459.778 227.404 463.779Z" fill="#4E9FCA"/>
<path d="M224.608 487.843C198.832 481.943 173.055 476.04 147.282 470.139C147.839 466.175 148.335 462.196 148.79 458.207C174.567 464.107 200.34 470.008 226.116 475.908C225.661 479.9 225.165 483.876 224.608 487.843Z" fill="#4E9FCA"/>
<path d="M220.326 511.57C194.55 505.67 168.776 499.77 143 493.866C143.89 489.979 144.679 486.066 145.383 482.133C171.159 488.036 196.936 493.937 222.709 499.837C222.002 503.767 221.216 507.68 220.326 511.57Z" fill="#4E9FCA"/>
<path d="M266.277 447.975C256.234 445.675 246.188 443.378 236.142 441.074C236.558 437.077 237.001 433.085 237.494 429.105C247.54 431.406 257.586 433.703 267.632 436.006C267.14 439.989 266.696 443.977 266.277 447.975Z" fill="#4E9FCA"/>
<path d="M263.906 472.14C253.863 469.84 243.817 467.542 233.773 465.242C234.171 461.241 234.55 457.234 234.936 453.23C244.982 455.531 255.028 457.828 265.075 460.128C264.686 464.132 264.304 468.139 263.906 472.14Z" fill="#4E9FCA"/>
<path d="M261.113 496.204C251.07 493.907 241.024 491.607 230.978 489.303C231.534 485.336 232.03 481.36 232.486 477.371C242.532 479.668 252.578 481.968 262.621 484.269C262.165 488.26 261.67 492.24 261.113 496.204Z" fill="#4E9FCA"/>
<path d="M256.827 519.927C246.784 517.627 236.737 515.327 226.694 513.026C227.585 509.139 228.371 505.227 229.074 501.293C239.121 503.596 249.167 505.893 259.213 508.194C258.506 512.124 257.72 516.036 256.827 519.927Z" fill="#4E9FCA"/>
<path d="M226.172 544.211C214.93 544.911 205.22 536.334 204.523 525.096C203.828 513.855 212.403 504.147 223.642 503.45C234.882 502.755 244.591 511.329 245.289 522.567C245.989 533.808 237.415 543.516 226.172 544.211ZM223.691 504.202C212.865 504.875 204.602 514.226 205.275 525.051C205.948 535.876 215.3 544.134 226.126 543.461C236.95 542.791 245.212 533.438 244.539 522.616C243.869 511.791 234.515 503.535 223.691 504.202Z" fill="#347031"/>
<path d="M225.535 533.962C219.949 534.308 215.122 530.047 214.776 524.462C214.431 518.88 218.692 514.05 224.278 513.707C229.864 513.361 234.691 517.622 235.037 523.208C235.386 528.787 231.125 533.614 225.535 533.962ZM224.327 514.457C219.154 514.778 215.211 519.243 215.532 524.413C215.853 529.582 220.32 533.528 225.493 533.207C230.663 532.886 234.609 528.42 234.288 523.247C233.966 518.081 229.497 514.135 224.327 514.457Z" fill="#347031"/>
<path d="M225.483 525.473C225.584 524.95 225.857 524.387 226.12 523.842C226.361 523.341 226.634 522.775 226.646 522.466C226.664 522.031 227.031 521.698 227.469 521.707C227.906 521.723 228.246 522.093 228.231 522.53C228.203 523.169 227.87 523.864 227.548 524.53C227.175 525.298 228.475 525.286 228.891 525.057C229.607 524.656 230.675 522.866 230.283 521.135C230.142 520.536 229.993 519.952 229.84 519.392C229.723 518.97 229.971 518.535 230.393 518.419C230.815 518.303 231.253 518.554 231.369 518.979C231.819 520.624 232.241 522.301 232.37 524.007C232.406 524.488 232.418 524.968 232.397 525.445C232.36 526.271 231.926 528.687 230.393 529.941C229.821 530.406 229.151 530.654 228.432 530.666C227.512 530.679 226.71 530.287 226.178 529.532C225.474 528.534 225.202 526.941 225.483 525.473Z" fill="#347031"/>
<path d="M224.539 525.529C224.373 525.022 224.037 524.496 223.707 523.991C223.407 523.526 223.064 522.994 223.015 522.691C222.945 522.26 222.538 521.975 222.104 522.036C221.672 522.107 221.379 522.517 221.449 522.948C221.553 523.581 221.972 524.226 222.376 524.85C222.838 525.566 221.55 525.713 221.106 525.536C220.345 525.227 219.066 523.584 219.24 521.816C219.308 521.207 219.387 520.605 219.467 520.03C219.531 519.595 219.228 519.198 218.794 519.134C218.362 519.069 217.958 519.372 217.897 519.807C217.653 521.498 217.445 523.211 217.524 524.921C217.549 525.401 217.594 525.881 217.677 526.352C217.818 527.166 218.546 529.512 220.222 530.564C220.852 530.959 221.547 531.118 222.26 531.041C223.171 530.944 223.924 530.454 224.358 529.637C224.927 528.567 225.004 526.952 224.539 525.529Z" fill="#347031"/>
<path d="M219.745 520.075C219.742 520.09 219.739 520.108 219.736 520.127C219.865 521.259 220.458 522.286 221.211 523.161C221.198 523.106 221.183 523.051 221.174 522.996C221.079 522.412 221.474 521.858 222.083 521.76C222.664 521.687 223.196 522.075 223.291 522.647C223.331 522.895 223.685 523.442 223.946 523.846C224.282 524.363 224.628 524.905 224.802 525.446C224.875 525.666 224.931 525.893 224.98 526.122C225.035 526.153 225.065 526.168 225.065 526.168C225.065 526.168 225.084 526.156 225.117 526.131C225.136 525.893 225.163 525.654 225.209 525.418C225.316 524.856 225.594 524.281 225.864 523.727C226.075 523.293 226.356 522.705 226.365 522.451C226.39 521.873 226.867 521.421 227.454 521.424C228.069 521.448 228.531 521.95 228.51 522.54C228.507 522.61 228.501 522.684 228.488 522.76C229.122 521.815 229.593 520.745 229.611 519.628C229.596 519.573 229.584 519.521 229.568 519.466C229.522 519.298 229.522 519.127 229.559 518.961C229.296 517.585 228.048 516.585 226.61 516.673C225.763 516.725 225.028 517.148 224.548 517.772C223.994 517.215 223.214 516.884 222.367 516.936C220.908 517.028 219.779 518.206 219.718 519.634C219.754 519.775 219.767 519.925 219.745 520.075Z" fill="#347031"/>
<path d="M215.63 533.197C213.406 530.998 211.95 528.007 211.742 524.645C211.292 517.39 216.832 511.116 224.092 510.666C231.351 510.217 237.625 515.753 238.075 523.012C238.283 526.37 237.206 529.521 235.273 531.977L238.668 534.978C241.367 531.647 242.878 527.343 242.593 522.736C241.988 512.988 233.566 505.546 223.816 506.152C214.067 506.754 206.624 515.181 207.227 524.929C207.511 529.536 209.542 533.622 212.632 536.593L215.63 533.197Z" fill="#347031"/>
<path d="M234.272 533.109C232.073 535.333 229.084 536.786 225.722 536.997C222.363 537.205 219.215 536.128 216.759 534.195L213.761 537.59C217.092 540.288 221.399 541.799 226.003 541.515C230.611 541.23 234.697 539.199 237.668 536.11L234.272 533.109Z" fill="#347031"/>
<path d="M220.332 185.714C219.779 185.839 219.176 185.704 218.72 185.298C217.044 183.79 215.306 182.346 213.624 180.948C210.494 178.345 207.258 175.656 204.321 172.484C203.645 171.75 203.688 170.606 204.419 169.93C205.153 169.251 206.297 169.297 206.973 170.028C209.754 173.029 212.758 175.525 215.936 178.171C217.643 179.59 219.409 181.055 221.137 182.609C221.88 183.276 221.942 184.42 221.275 185.163C221.015 185.451 220.684 185.634 220.332 185.714Z" fill="#F5AE8B"/>
<path d="M224.122 180.631C223.535 180.766 222.895 180.576 222.476 180.087C221.097 178.463 219.659 176.893 218.27 175.373C215.7 172.565 213.039 169.662 210.677 166.328C210.142 165.576 210.319 164.536 211.075 164.004C211.828 163.468 212.868 163.649 213.403 164.398C215.645 167.564 218.117 170.262 220.736 173.119C222.146 174.657 223.602 176.251 225.025 177.924C225.621 178.628 225.536 179.683 224.832 180.279C224.618 180.457 224.376 180.573 224.122 180.631Z" fill="#F5AE8B"/>
<path d="M226.57 178.379C225.988 178.511 225.352 178.327 224.936 177.844C224.049 176.816 223.134 175.844 222.232 174.877C220.543 173.072 218.8 171.207 217.261 169.059C216.725 168.31 216.897 167.267 217.646 166.732C218.393 166.193 219.436 166.365 219.974 167.117C221.388 169.087 222.981 170.794 224.67 172.598C225.603 173.596 226.542 174.602 227.46 175.66C228.066 176.355 227.989 177.413 227.292 178.015C227.074 178.202 226.827 178.324 226.57 178.379Z" fill="#F5AE8B"/>
<path d="M222.076 182.915C221.525 183.041 220.92 182.882 220.501 182.444C218.711 180.585 216.848 178.792 215.049 177.061C211.709 173.843 208.255 170.518 205.187 166.676C204.611 165.958 204.731 164.905 205.45 164.33C206.169 163.752 207.221 163.875 207.796 164.593C210.73 168.264 213.954 171.366 217.365 174.654C219.188 176.406 221.073 178.22 222.905 180.129C223.544 180.793 223.523 181.851 222.859 182.49C222.636 182.71 222.364 182.851 222.076 182.915Z" fill="#F5AE8B"/>
<path d="M224.612 193.981C216.909 195.743 211.256 188.808 208.638 185.597C208.173 185.025 207.689 184.431 207.463 184.233C206.774 183.621 206.71 182.565 207.325 181.877C207.937 181.189 208.992 181.125 209.681 181.737C210.106 182.113 210.574 182.691 211.226 183.486C215.557 188.802 220.446 193.213 226.76 189.546C227.558 189.084 228.58 189.356 229.042 190.151C229.504 190.95 229.235 191.971 228.436 192.433C227.112 193.204 225.836 193.702 224.612 193.981Z" fill="#F5AE8B"/>
<path d="M214.049 181.062C216.839 184.516 214.703 188.391 211.029 184.268L216.695 192.713C219.518 193.668 222.458 194.659 225.468 194.163C230.271 193.368 235.135 189.887 234.01 184.546C232.917 179.374 228.258 175.239 224.144 172.293L214.049 181.062Z" fill="#F5AE8B"/>
<path d="M335.561 247.545C289.212 247.683 247.709 219.971 224.358 192.665L227.69 177.301C235.35 187.652 251.212 199.192 261.655 205.815C282.127 218.805 307.922 221.913 331.857 219.744L335.561 247.545Z" fill="#F5AE8B"/>
<path d="M242.419 187.285C241.715 181.296 234.771 182.724 237.108 188.371C236.028 185.07 230.21 183.66 230.464 187.285C230.586 189.041 232.923 190.322 234.459 191.329C230.146 187.728 224.951 193.341 231.201 194.993C228.017 194.075 222.957 194.598 224.361 198.945C225.563 202.667 232.403 202.068 235.432 201.658L242.419 187.285Z" fill="#EAF6FD"/>
<path d="M247.485 187.044C241.183 182.664 228.589 193.143 231.688 204.054C238.764 228.97 297.979 253.483 343.178 254.799C365.871 254.9 366.021 220.868 343.328 220.767C317.8 220.069 274.21 205.607 247.485 187.044Z" fill="#DB4444"/>
<path d="M297.539 545.601C297.569 543.322 300.534 540.058 304.128 538.351L330.868 526.471C336.788 526.554 337.436 526.324 343.355 526.404C349.446 532.029 351.484 540.382 348.706 546.711L297.523 546.61C297.53 546.286 297.536 545.952 297.539 545.601Z" fill="#E5A344"/>
<path d="M348.709 546.71C348.222 547.815 347.608 548.867 346.821 549.824C329.433 549.579 314.869 549.989 297.48 549.748C297.48 549.748 297.499 548.402 297.523 546.609L348.709 546.71Z" fill="#D7D6D6"/>
<path d="M371.459 334.195L317.114 324.027C302.096 402.46 331.268 462.816 326.839 528.264L345.821 529.106C357.549 488.65 356.032 453.747 344.065 434.033C355.258 402.586 366.326 365.315 371.459 334.195Z" fill="#F8A379"/>
<path d="M366.902 547.484C366.275 545.291 368.177 541.314 371.13 538.644L393.327 519.582C399.02 517.961 399.577 517.554 405.27 515.93C412.719 519.567 417.075 526.981 416.23 533.842L367.18 548.454C367.085 548.142 366.994 547.82 366.902 547.484Z" fill="#F3C252"/>
<path d="M416.227 533.84C416.08 535.036 415.792 536.223 415.315 537.364C398.591 542.129 384.761 546.708 368.039 551.471C368.039 551.471 367.666 550.18 367.18 548.452L416.227 533.84Z" fill="#D7D6D6"/>
<path d="M382.767 327.4C379.39 310.326 362.831 299.192 345.733 302.523C328.859 305.808 317.763 321.955 320.624 338.809C337.941 340.595 366.257 335.071 382.767 327.4Z" fill="#E51F5C"/>
<path d="M384.264 432.137C383.089 403.681 384.817 376.253 379.629 348.443C380.085 347.595 380.492 346.721 380.865 345.834C382.089 342.949 382.884 339.869 383.205 336.682C383.508 333.687 383.392 330.604 382.786 327.496C382.78 327.466 382.771 327.432 382.762 327.398C366.254 335.07 337.936 340.591 320.618 338.808C320.661 339.062 320.698 339.318 320.747 339.572C321.12 341.481 325.549 356.79 325.914 358.09C345.44 427.729 370.531 463.226 391.144 521.45L407.837 517.412C404.998 481.343 399.464 450.373 384.264 432.137Z" fill="#F5AE8B"/>
<path d="M312.584 469.741C312.746 478.226 314.921 487.13 322.783 476.027C323.621 484.49 333.059 485.454 336.739 478.4C337.29 486.411 348.899 487.509 349.217 478.81C353.063 486.335 365.945 484.943 367.633 476.437C369.622 486.995 385.385 482.291 384.48 472.739C385.168 482.444 397.891 478.104 396.781 469.065C400.709 480.838 412.649 474.69 412.003 464.113C412.226 468.839 415.989 472.671 419.305 468.077C423.478 462.296 413.545 448.284 412.416 442.625L312.584 469.741Z" fill="#EAF6FD"/>
<path d="M380.157 301.933C370.46 279.748 373.708 272.951 374.296 246.432C374.944 217.095 356.302 206.497 339.357 209.503C320.173 212.908 304.783 243.162 302.382 253.024C300.387 261.206 301.344 267.592 303.495 273.499C312.565 270.098 320.333 261.668 323.958 246.346C329.18 224.268 358.569 227.477 357.78 250.154C356.418 289.377 333.025 336.464 310.638 355.804C307.564 377.301 309.494 435.782 312.617 470.808C338.886 475.338 403.186 469.425 416.227 453.226C411.327 388.438 392.504 330.178 380.157 301.933Z" fill="#DB4444"/>
<path d="M357.78 250.153C358.569 227.478 329.18 224.266 323.958 246.344C320.333 261.666 312.565 270.096 303.495 273.497C306.582 281.973 312.134 289.455 314.985 299.821C318.592 312.931 314.276 330.402 310.641 355.799C333.025 336.465 356.418 289.375 357.78 250.153Z" fill="#DB4444"/>
<path d="M355.669 255.777C347.008 301.307 311.92 336.792 280.677 354.532L266.223 348.348C277.841 342.793 292.179 329.411 300.669 320.415C317.307 302.784 325.255 278.051 327.669 254.141L355.669 255.777Z" fill="#F5AE8B"/>
<path d="M251.316 370.773C251.197 370.773 251.074 370.761 250.952 370.736C249.973 370.537 249.343 369.583 249.542 368.604C251.723 357.908 260.438 348.542 271.748 344.746C272.696 344.431 273.721 344.938 274.039 345.884C274.357 346.829 273.846 347.857 272.898 348.175C262.791 351.567 255.014 359.868 253.084 369.326C252.91 370.182 252.157 370.773 251.316 370.773Z" fill="#F5AE8B"/>
<path d="M255.42 376.108C254.451 376.108 253.646 375.338 253.616 374.359C253.356 366.146 256.999 357.279 263.362 350.635C264.053 349.916 265.194 349.889 265.916 350.58C266.638 351.271 266.663 352.415 265.971 353.137C260.266 359.092 256.999 366.984 257.228 374.242C257.259 375.243 256.476 376.075 255.479 376.108C255.46 376.108 255.439 376.108 255.42 376.108Z" fill="#F5AE8B"/>
<path d="M260.383 376.111C259.505 376.111 258.737 375.472 258.6 374.582C257.422 367.067 260.478 358.686 263.454 353.791C263.971 352.938 265.085 352.666 265.938 353.186C266.792 353.703 267.061 354.816 266.544 355.67C263.886 360.041 261.148 367.47 262.176 374.019C262.329 375.007 261.656 375.934 260.668 376.087C260.57 376.102 260.475 376.111 260.383 376.111Z" fill="#F5AE8B"/>
<path d="M266.21 373.894C265.653 373.894 265.102 373.634 264.748 373.147C261.346 368.467 261.581 361.246 262.814 356.486C263.062 355.52 264.047 354.932 265.017 355.189C265.983 355.437 266.565 356.425 266.314 357.392C265.194 361.708 265.179 367.599 267.669 371.021C268.256 371.829 268.079 372.961 267.268 373.548C266.953 373.784 266.58 373.894 266.21 373.894Z" fill="#F5AE8B"/>
<path d="M283.732 348.703C286.204 353.328 283.509 359.589 277.709 362.687C271.909 365.786 265.203 364.544 262.731 359.919C260.26 355.291 262.958 349.03 268.755 345.934C274.558 342.839 281.261 344.078 283.732 348.703Z" fill="#F5AE8B"/>
<path d="M282.465 337.215C280.421 337.328 275.114 338.64 275.979 340.751C276.753 342.644 278.035 342.721 280.599 342.396C280.895 342.393 280.889 342.384 280.577 342.366C277.647 345.128 279.213 347.339 282.921 346.134C281.954 350.297 285.12 352.622 287.552 348.701C286.656 351.64 286.39 355.8 290.103 355.057C293.484 354.381 294.267 350.294 295.738 347.324L282.465 337.215Z" fill="#EAF6FD"/>
<path d="M282.078 332.544C277.046 338.34 286.11 351.983 297.294 350.077C322.832 345.721 353.564 289.489 359.731 244.699C362.27 222.153 328.445 218.345 325.906 240.891C322.471 266.196 303.406 307.973 282.078 332.544Z" fill="#DB4444"/>
<path d="M347.866 205.491C348.854 207.057 343.629 212.129 336.195 216.815C328.761 221.501 321.933 224.031 320.945 222.461C319.957 220.895 325.182 215.824 332.616 211.138C340.049 206.452 346.877 203.925 347.866 205.491Z" fill="#EAF6FD"/>
<path d="M353.812 208.947C357.109 213.233 353.625 221.445 346.029 227.291C338.433 233.136 329.602 234.399 326.301 230.114C323.003 225.829 326.487 217.616 334.083 211.77C341.682 205.925 350.514 204.662 353.812 208.947Z" fill="#EAF6FD"/>
<path d="M339.56 220.268C332.79 221.146 328.712 218.072 328.712 212.079V186.655C328.712 180.663 333.567 175.809 339.56 175.809C345.552 175.809 350.41 180.663 350.41 186.655V212.079C350.41 218.072 346.329 219.39 339.56 220.268Z" fill="#F5AE8B"/>
<path d="M333.799 194.314C329.253 198.091 327.371 203.334 329.599 206.017C331.829 208.699 337.323 207.809 341.872 204.028C346.424 200.251 348.302 195.011 346.072 192.329C343.842 189.643 338.348 190.533 333.799 194.314Z" fill="#F18E7F"/>
<path d="M313.19 161.727C305.444 177.327 309.804 195.254 322.924 201.77C336.048 208.282 352.965 200.919 360.714 185.32C368.457 169.72 364.1 151.792 350.977 145.277C337.853 138.765 320.936 146.128 313.19 161.727Z" fill="#F5AE8B"/>
<path d="M321.835 171.694C321.611 171.694 321.394 171.578 321.278 171.367C320.097 169.256 317.659 167.271 314.854 167.568C314.496 167.607 314.19 167.351 314.15 167.002C314.113 166.65 314.364 166.338 314.716 166.298C318.087 165.94 321.003 168.265 322.391 170.743C322.566 171.049 322.456 171.44 322.147 171.611C322.046 171.666 321.939 171.694 321.835 171.694Z" fill="#DFE9F0"/>
<path d="M315.086 172.783C314.783 174.282 315.168 175.622 315.939 175.778C316.71 175.931 317.579 174.845 317.882 173.346C318.182 171.847 317.799 170.511 317.028 170.355C316.254 170.199 315.386 171.285 315.086 172.783Z" fill="#86371B"/>
<path d="M320.503 184.676C319.347 190.778 312.437 193.571 312.437 187.215L320.503 184.676Z" fill="white"/>
<path d="M310.902 171.508C309.21 177.375 304.276 177.405 305.502 179.194C307.182 181.648 310.44 182.07 310.44 182.07L310.902 171.508Z" fill="#F5AE8B"/>
<path d="M317.509 181.275C312.905 181.275 309.157 177.528 309.157 172.925C309.157 168.321 312.905 164.574 317.509 164.574C322.113 164.574 325.86 168.321 325.86 172.925C325.86 177.531 322.113 181.275 317.509 181.275ZM317.509 165.782C313.569 165.782 310.363 168.988 310.363 172.928C310.363 176.867 313.569 180.073 317.509 180.073C321.449 180.073 324.655 176.867 324.655 172.928C324.655 168.988 321.449 165.782 317.509 165.782Z" fill="#86371B"/>
<path d="M342.239 183.168C342.126 183.168 342.009 183.135 341.905 183.067C341.627 182.884 341.554 182.511 341.737 182.232L341.994 181.847C342.921 180.471 344.074 178.758 343.643 177.219C343.12 175.365 340.648 174.533 338.553 174.013C334.349 172.973 329.822 172.698 326.129 173.255C325.796 173.301 325.493 173.077 325.444 172.75C325.395 172.42 325.622 172.114 325.949 172.065C329.791 171.484 334.49 171.768 338.84 172.845C341.254 173.441 344.108 174.442 344.799 176.892C345.384 178.966 344.056 180.935 342.991 182.52L342.737 182.899C342.624 183.074 342.432 183.168 342.239 183.168Z" fill="#86371B"/>
<path d="M392.48 200.198C392.119 193.098 387.726 189.247 381.02 188.238C383.232 183.677 385.214 177.704 382.155 173.063C379.497 169.032 373.834 168.084 371.277 164.003C368.56 159.672 370.151 156.69 370.371 152.438C370.793 144.173 358.055 136.3 349.844 139.518C348.401 135.618 344.381 135.193 339.563 135.551C331.49 136.153 322.147 141.882 315.955 147.171C313.352 149.398 308.901 153.775 310.369 157.705C312.404 163.141 323.689 163.942 328.492 163.193C328.675 166.463 329.526 168.864 332.465 170.506C334.833 171.831 339.973 171.607 341.132 174.489C342.236 177.242 338.682 181.16 338.198 183.821C337.43 188.036 339.508 187.987 341.566 190.676C343.295 192.93 342.796 192.799 341.147 195.576C339.333 198.638 337.538 201.758 338.097 205.468C340.275 219.893 363.754 224.515 374.877 221.661C384.59 219.174 393.018 210.754 392.48 200.198Z" fill="#DFE9F0"/>
<path d="M361.548 217.542C356.843 217.542 352.86 215.998 351.887 209.501C351.202 204.919 352.19 200.481 354.998 195.525C356.644 192.626 357.134 190.689 356.543 189.429C355.696 187.615 352.413 187.019 348.256 186.263C345.962 185.847 344.677 185.159 344.215 184.101C343.582 182.651 344.701 180.892 345.888 179.029C346.552 177.986 347.24 176.91 347.672 175.827C348.241 174.408 348.287 173.245 347.813 172.276C346.772 170.144 343.242 169.119 339.828 168.131C335.946 167.005 331.929 165.84 330.825 162.94C330.14 161.139 330.654 158.912 332.401 156.135C332.529 155.93 332.798 155.868 333.003 155.997C333.208 156.125 333.269 156.395 333.141 156.599C331.55 159.129 331.061 161.102 331.642 162.628C332.59 165.121 336.396 166.225 340.073 167.293C343.836 168.385 347.39 169.416 348.599 171.893C349.186 173.098 349.149 174.49 348.482 176.154C348.017 177.31 347.311 178.424 346.626 179.5C345.567 181.161 344.57 182.727 345.016 183.752C345.344 184.498 346.485 185.055 348.415 185.404C352.992 186.236 356.296 186.835 357.336 189.059C358.067 190.619 357.58 192.748 355.757 195.957C353.05 200.731 352.095 204.992 352.75 209.369C353.778 216.233 358.311 217.169 364.803 216.466C365.042 216.441 365.259 216.612 365.283 216.854C365.311 217.093 365.136 217.31 364.895 217.334C363.76 217.46 362.634 217.542 361.548 217.542Z" fill="#A2AFBB"/>
<path d="M353.369 213.353C350.704 213.353 348.052 212.46 346.256 210.839C344.953 209.665 343.537 207.588 344.188 204.382C344.727 201.727 346.327 199.509 347.871 197.365C348.982 195.827 350.129 194.236 350.848 192.52C350.94 192.297 351.197 192.19 351.42 192.285C351.643 192.376 351.747 192.633 351.656 192.857C350.9 194.664 349.722 196.298 348.584 197.876C347.021 200.039 345.546 202.085 345.048 204.553C344.479 207.358 345.712 209.166 346.847 210.191C349.147 212.268 353.179 213.038 356.437 212.026C356.666 211.956 356.911 212.084 356.985 212.313C357.055 212.543 356.926 212.788 356.697 212.861C355.626 213.194 354.498 213.353 353.369 213.353Z" fill="#A2AFBB"/>
<path d="M370.583 188.88C370.491 188.88 370.402 188.852 370.323 188.794C370.13 188.65 370.087 188.378 370.231 188.182C372.629 184.949 376.123 179.128 372.571 176.455C371.577 175.706 370.108 175.378 368.689 175.063C365.966 174.458 362.88 173.772 362.822 169.848C362.8 168.355 363.29 167.037 363.721 165.878C364.152 164.722 364.492 163.81 364.131 163.241C363.776 162.675 362.687 162.32 360.803 162.152C360.292 162.106 359.496 162.119 358.576 162.131C355.229 162.177 350.649 162.238 349.193 160.088C348.618 159.237 348.603 158.145 349.147 156.839C349.239 156.616 349.496 156.512 349.719 156.604C349.943 156.695 350.047 156.952 349.955 157.176C349.524 158.203 349.514 158.996 349.918 159.598C351.108 161.36 355.596 161.299 358.563 161.259C359.509 161.247 360.325 161.235 360.879 161.284C363.112 161.482 364.345 161.944 364.868 162.776C365.459 163.712 365.03 164.856 364.538 166.184C364.131 167.273 363.672 168.508 363.693 169.839C363.742 173.072 366.122 173.601 368.876 174.213C370.387 174.549 371.947 174.895 373.094 175.758C376.218 178.11 375.471 182.585 370.931 188.702C370.849 188.819 370.717 188.88 370.583 188.88Z" fill="#A2AFBB"/>
<path d="M374.266 214.574C371.827 214.574 369.533 213.815 367.918 212.384C366.293 210.946 365.7 209.249 366.247 207.603C366.979 205.407 369.729 203.569 372.644 203.33C372.883 203.302 373.097 203.489 373.115 203.728C373.137 203.969 372.956 204.18 372.718 204.199C370.13 204.413 367.707 205.994 367.08 207.878C366.645 209.187 367.135 210.521 368.499 211.729C370.695 213.675 374.302 214.241 377.689 213.167C380.671 212.225 382.718 210.264 383.302 207.793C384.972 200.745 378.401 198.277 372.601 196.102C371.748 195.781 370.925 195.472 370.166 195.16C367.63 194.117 366.202 192.829 365.792 191.217C365.177 188.795 367.055 186.06 368.973 183.705C369.126 183.518 369.401 183.488 369.588 183.641C369.775 183.794 369.802 184.069 369.652 184.255C367.129 187.357 366.229 189.376 366.642 191.003C366.979 192.324 368.242 193.423 370.503 194.352C371.252 194.661 372.066 194.967 372.913 195.282C378.438 197.356 386.003 200.195 384.156 207.991C383.507 210.729 381.188 212.974 377.955 213.999C376.728 214.387 375.477 214.574 374.266 214.574Z" fill="#A2AFBB"/>
<path d="M341.269 164.877C341.257 164.877 341.248 164.877 341.236 164.877C340.994 164.859 340.813 164.651 340.832 164.409C340.89 163.614 340.688 163.005 340.217 162.544C338.623 160.99 334.395 161.409 331.599 161.684C330.798 161.764 330.106 161.831 329.605 161.84C324.062 161.941 318.488 161.534 315.325 157.934C313.703 156.087 313.312 153.967 314.196 151.801C315.805 147.849 321.385 144.558 325.304 144.255C325.542 144.237 325.753 144.417 325.772 144.656C325.79 144.898 325.609 145.106 325.371 145.124C321.783 145.402 316.472 148.522 315.007 152.128C314.248 153.994 314.575 155.753 315.985 157.356C318.913 160.69 324.254 161.06 329.596 160.965C330.064 160.956 330.737 160.889 331.52 160.812C334.478 160.522 338.95 160.078 340.832 161.917C341.49 162.559 341.786 163.418 341.71 164.471C341.685 164.703 341.496 164.877 341.269 164.877Z" fill="#A2AFBB"/>
<path d="M342.967 157.867C342.931 157.867 342.894 157.861 342.86 157.851C342.628 157.79 342.487 157.555 342.545 157.319C342.686 156.772 342.634 156.362 342.389 156.071C341.481 154.992 338.015 155.261 334.959 155.499C331.517 155.765 328.268 156.019 326.858 154.832C325.53 153.716 325.01 152.306 325.356 150.749C325.977 147.941 329.37 145.191 332.022 144.475C332.254 144.414 332.493 144.552 332.557 144.784C332.621 145.017 332.481 145.259 332.248 145.32C329.841 145.968 326.745 148.51 326.206 150.939C325.934 152.174 326.341 153.26 327.418 154.166C328.556 155.123 331.777 154.872 334.888 154.631C338.474 154.352 341.86 154.089 343.056 155.511C343.491 156.028 343.604 156.711 343.39 157.539C343.341 157.735 343.163 157.867 342.967 157.867Z" fill="#A2AFBB"/>
<path d="M365.697 159.779C365.603 159.779 365.508 159.749 365.428 159.684C363.945 158.51 362.259 158.507 360.628 158.504C359.139 158.501 357.734 158.497 356.78 157.506C355.96 156.656 355.618 155.215 355.697 152.967C355.722 152.288 355.881 151.536 356.052 150.74C356.447 148.896 356.853 146.987 355.639 145.807C354.082 144.293 349.833 144.935 347.355 145.736C347.125 145.81 346.881 145.684 346.804 145.455C346.731 145.225 346.856 144.978 347.086 144.904C349.389 144.158 354.268 143.256 356.248 145.18C357.808 146.697 357.328 148.939 356.905 150.921C356.743 151.679 356.59 152.395 356.569 152.998C356.499 154.965 356.774 156.243 357.41 156.901C358.108 157.626 359.279 157.629 360.635 157.632C362.329 157.635 364.253 157.641 365.976 158.999C366.165 159.149 366.196 159.424 366.049 159.614C365.954 159.721 365.826 159.779 365.697 159.779Z" fill="#A2AFBB"/>
<path d="M332.394 176.046C329.693 179.835 329.54 184.365 332.058 186.158C334.575 187.95 338.806 186.329 341.504 182.533C344.209 178.74 344.359 174.216 341.841 172.421C339.323 170.629 335.092 172.253 332.394 176.046Z" fill="#F5AE8B"/>
<path d="M220.371 292.09H128.221V315.22H220.371V292.09Z" fill="#DEE0E2"/>
<path d="M219.258 293.492H129.625V313.821H219.258V293.492Z" fill="#CFD0D2"/>
<path d="M216.997 303.657C216.997 298.445 210.695 294.215 202.897 294.172V293.496H219.258V313.825H202.897V313.146C210.695 313.097 216.997 308.869 216.997 303.657Z" fill="#4E9FCA"/>
<path d="M216.997 303.66C216.997 308.875 210.695 313.103 202.897 313.145V294.172C210.695 294.218 216.997 298.445 216.997 303.66Z" fill="#4E9FCA"/>
<path d="M286.021 299.242H237.772V308.003H286.021V299.242Z" fill="#DEE0E2"/>
<path d="M286.021 299.941H237.772V307.304H286.021V299.941Z" fill="#CFD0D2"/>
<path d="M250.235 304.184H283.739L277.183 303.129H250.235V304.184Z" fill="#ADAFB1"/>
<path d="M250.235 306.162L228.555 308.266V299.047L250.235 301.148V306.162Z" fill="#4E9FCA"/>
<path d="M222.598 308.2L220.371 315.223V292.09L222.598 299.049V308.2Z" fill="#DEE0E2"/>
<path d="M221.485 306.795L219.258 313.821V293.492L221.485 300.448V306.795Z" fill="#4E9FCA"/>
<path d="M250.235 301.152C251.615 302.538 251.615 304.78 250.235 306.16V301.152Z" fill="#4E9FCA"/>
<path d="M237.772 298.012H236.726V309.228H237.772V298.012Z" fill="#DEE0E2"/>
<path d="M238.329 301.898L249.697 302.461V304.853L238.329 305.413V301.898Z" fill="#4E9FCA"/>
<path d="M236.172 301.797V305.522L229.292 305.862V301.457L236.172 301.797Z" fill="#4E9FCA"/>
<path d="M286.021 308.006L286.721 307.336V299.915L286.021 299.242V308.006Z" fill="#DEE0E2"/>
<path d="M228.551 298.012H227.505V309.228H228.551V298.012Z" fill="#DEE0E2"/>
<path d="M227.509 299.047H221.485V308.199H227.509V299.047Z" fill="#DEE0E2"/>
<path d="M227.509 300.449H221.485V306.796H227.509V300.449Z" fill="#CFD0D2"/>
<path d="M202.897 298.016H115.274V302.258H202.897V298.016Z" fill="#4E9FCA"/>
<path d="M202.897 305.059H115.274V309.298H202.897V305.059Z" fill="#4E9FCA"/>
<path d="M202.897 302.258H115.274V305.063H202.897V302.258Z" fill="#C2DBA4"/>
<path d="M129.625 285.746H128.221V321.57H129.625V285.746Z" fill="#DEE0E2"/>
<path d="M115.25 292.09H112.619V315.22H115.25V292.09Z" fill="#4E9FCA"/>
<path d="M219.258 296.648H218.76V310.67H219.258V296.648Z" fill="#1D1D1B"/>
<path d="M216.642 299.047H216.146V308.272H216.642V299.047Z" fill="#1D1D1B"/>
<path d="M214.036 299.047H213.54V308.272H214.036V299.047Z" fill="#1D1D1B"/>
<path d="M211.426 299.047H210.928V308.272H211.426V299.047Z" fill="#1D1D1B"/>
<path d="M208.814 299.047H208.315V308.272H208.814V299.047Z" fill="#1D1D1B"/>
<path d="M206.205 296.648H205.709V310.67H206.205V296.648Z" fill="#1D1D1B"/>
<path d="M203.592 299.047H203.097V308.272H203.592V299.047Z" fill="#1D1D1B"/>
<path d="M200.983 299.047H200.484V308.272H200.983V299.047Z" fill="#1D1D1B"/>
<path d="M198.371 299.047H197.875V308.272H198.371V299.047Z" fill="#1D1D1B"/>
<path d="M195.763 299.047H195.265V308.272H195.763V299.047Z" fill="#1D1D1B"/>
<path d="M193.151 296.648H192.652V310.67H193.151V296.648Z" fill="#1D1D1B"/>
<path d="M190.539 299.047H190.043V308.272H190.539V299.047Z" fill="#1D1D1B"/>
<path d="M187.932 299.047H187.434V308.272H187.932V299.047Z" fill="#1D1D1B"/>
<path d="M185.316 299.047H184.82V308.272H185.316V299.047Z" fill="#1D1D1B"/>
<path d="M182.707 299.047H182.212V308.272H182.707V299.047Z" fill="#1D1D1B"/>
<path d="M180.101 296.648H179.603V310.67H180.101V296.648Z" fill="#1D1D1B"/>
<path d="M177.486 299.047H176.99V308.272H177.486V299.047Z" fill="#1D1D1B"/>
<path d="M174.875 299.047H174.38V308.272H174.875V299.047Z" fill="#1D1D1B"/>
<path d="M172.267 299.047H171.769V308.272H172.267V299.047Z" fill="#1D1D1B"/>
<path d="M169.658 299.047H169.159V308.272H169.658V299.047Z" fill="#1D1D1B"/>
<path d="M167.044 296.648H166.549V310.67H167.044V296.648Z" fill="#1D1D1B"/>
<path d="M164.438 299.047H163.939V308.272H164.438V299.047Z" fill="#1D1D1B"/>
<path d="M161.826 299.047H161.327V308.272H161.826V299.047Z" fill="#1D1D1B"/>
<path d="M159.213 299.047H158.718V308.272H159.213V299.047Z" fill="#1D1D1B"/>
<path d="M156.606 299.047H156.107V308.272H156.606V299.047Z" fill="#1D1D1B"/>
<path d="M153.994 296.648H153.495V310.67H153.994V296.648Z" fill="#1D1D1B"/>
<path d="M151.382 299.047H150.887V308.272H151.382V299.047Z" fill="#1D1D1B"/>
<path d="M148.775 299.047H148.276V308.272H148.775V299.047Z" fill="#1D1D1B"/>
<path d="M146.16 299.047H145.664V308.272H146.16V299.047Z" fill="#1D1D1B"/>
<path d="M143.551 299.047H143.056V308.272H143.551V299.047Z" fill="#1D1D1B"/>
<path d="M140.944 296.648H140.445V310.67H140.944V296.648Z" fill="#1D1D1B"/>
<path d="M136.982 182.461C130.894 182.461 125.957 187.395 125.957 193.488C125.957 196.054 126.841 198.409 128.313 200.284L143.786 184.816C141.91 183.345 139.552 182.461 136.982 182.461Z" fill="#FFD862"/>
<path d="M143.786 184.816L128.312 200.285C128.857 200.982 129.487 201.609 130.182 202.157L145.652 186.685C145.11 185.991 144.483 185.367 143.786 184.816Z" fill="#FFD862"/>
<path d="M130.185 202.16C132.06 203.631 134.415 204.518 136.982 204.518C143.076 204.518 148.013 199.578 148.013 193.491C148.013 190.922 147.129 188.566 145.655 186.691L130.185 202.16Z" fill="#FFD862"/>
<path d="M143.049 185.553C141.363 184.265 139.271 183.488 136.982 183.488C131.464 183.488 126.991 187.963 126.991 193.487C126.991 195.769 127.765 197.868 129.053 199.547L143.049 185.553Z" fill="#FFE495"/>
<path d="M144.918 187.426L130.926 201.42C132.605 202.71 134.704 203.484 136.986 203.484C142.511 203.484 146.986 199.009 146.986 193.488C146.983 191.203 146.209 189.111 144.918 187.426Z" fill="#FFE495"/>
<path d="M156.831 195.418C150.743 195.418 145.806 200.352 145.806 206.445C145.806 209.011 146.69 211.366 148.164 213.241L163.637 197.773C161.762 196.302 159.404 195.418 156.831 195.418Z" fill="#FFD862"/>
<path d="M163.634 197.773L148.161 213.242C148.706 213.939 149.336 214.566 150.03 215.114L165.5 199.642C164.962 198.948 164.332 198.324 163.634 197.773Z" fill="#FFD862"/>
<path d="M150.033 215.117C151.908 216.588 154.264 217.475 156.831 217.475C162.924 217.475 167.862 212.535 167.862 206.448C167.862 203.879 166.978 201.523 165.503 199.648L150.033 215.117Z" fill="#FFD862"/>
<path d="M162.897 198.514C161.212 197.226 159.119 196.449 156.831 196.449C151.312 196.449 146.837 200.924 146.837 206.448C146.837 208.73 147.614 210.828 148.902 212.508L162.897 198.514Z" fill="#FFE495"/>
<path d="M164.767 200.383L150.774 214.377C152.454 215.667 154.552 216.441 156.835 216.441C162.359 216.441 166.835 211.966 166.835 206.445C166.832 204.163 166.061 202.068 164.767 200.383Z" fill="#FFE495"/>
<path d="M131.425 260.323C129.21 262.538 125.878 262.941 123.248 261.541C124.979 261.504 127.182 260.439 129.057 258.564L137.714 249.908L132.018 244.213L123.361 252.869C121.486 254.744 120.424 256.952 120.387 258.678C118.989 256.053 119.393 252.716 121.608 250.505L129.965 242.151L129.58 241.766L120.568 250.774C117.64 253.698 117.64 258.439 120.568 261.363C123.495 264.29 128.234 264.29 131.155 261.366L140.168 252.358L139.782 251.97L131.425 260.323Z" fill="#4E9FCA"/>
<path d="M138.585 232.755L129.576 241.766L129.962 242.152L138.319 233.795C140.528 231.581 143.862 231.177 146.493 232.578C144.762 232.615 142.559 233.679 140.684 235.554L132.02 244.21L137.717 249.906L146.374 241.249C148.258 239.371 149.32 237.166 149.354 235.441C150.755 238.068 150.351 241.402 148.136 243.614L139.778 251.97L140.164 252.359L149.179 243.348C152.107 240.421 152.107 235.682 149.179 232.758C146.255 229.831 141.51 229.831 138.585 232.755Z" fill="#FFE495"/>
<path d="M140.685 235.552C142.563 233.674 144.766 232.61 146.494 232.576C143.864 231.175 140.529 231.582 138.32 233.794L129.963 242.15L132.019 244.212L140.685 235.552Z" fill="white"/>
<path d="M121.608 250.506C119.393 252.72 118.989 256.058 120.387 258.679C120.424 256.954 121.485 254.745 123.361 252.87L132.018 244.214L129.962 242.152L121.608 250.506Z" fill="#C2DBA4"/>
<path d="M123.248 261.539C125.879 262.94 129.21 262.533 131.425 260.321L139.78 251.968L137.715 249.906L129.057 258.563C127.182 260.438 124.98 261.502 123.248 261.539Z" fill="#4E9FCA"/>
<path d="M148.136 243.614C150.351 241.4 150.755 238.066 149.354 235.441C149.32 237.167 148.256 239.375 146.374 241.25L137.717 249.906L139.782 251.968L148.136 243.614Z" fill="#FFD862"/>
<path d="M161.588 255.784C164.717 255.863 167.305 257.998 168.104 260.871C166.883 259.641 164.595 258.778 161.943 258.708L149.7 258.396L149.495 266.447L161.738 266.759C164.39 266.826 166.721 266.074 167.997 264.914C167.061 267.738 164.363 269.741 161.23 269.662L149.419 269.359L149.403 269.903L162.145 270.23C166.281 270.338 169.719 267.074 169.82 262.938C169.927 258.803 166.66 255.365 162.53 255.261L149.789 254.934L149.777 255.478L161.588 255.784Z" fill="#4E9FCA"/>
<path d="M136.665 269.581L149.403 269.905L149.418 269.36L137.604 269.058C134.478 268.981 131.886 266.843 131.088 263.971C132.306 265.2 134.594 266.063 137.249 266.13L149.495 266.448L149.7 258.398L137.457 258.086C134.799 258.012 132.468 258.765 131.192 259.927C132.134 257.101 134.829 255.097 137.959 255.18L149.773 255.483L149.785 254.938L137.044 254.608C132.908 254.504 129.47 257.768 129.366 261.903C129.262 266.038 132.529 269.477 136.665 269.581Z" fill="#FFE495"/>
<path d="M137.249 266.132C134.597 266.065 132.308 265.202 131.088 263.973C131.886 266.842 134.474 268.983 137.604 269.059L149.418 269.362L149.495 266.45L137.249 266.132Z" fill="white"/>
<path d="M161.229 269.665C164.359 269.745 167.057 267.741 167.996 264.918C166.72 266.08 164.389 266.83 161.737 266.762L149.494 266.45L149.418 269.362L161.229 269.665Z" fill="#C2DBA4"/>
<path d="M168.104 260.87C167.305 257.998 164.717 255.863 161.588 255.783L149.777 255.48L149.703 258.399L161.946 258.711C164.595 258.775 166.883 259.637 168.104 260.87Z" fill="#4E9FCA"/>
<path d="M137.959 255.178C134.83 255.099 132.135 257.102 131.192 259.925C132.468 258.763 134.802 258.01 137.457 258.084L149.7 258.396L149.774 255.478L137.959 255.178Z" fill="#FFD862"/>
<path d="M229.053 231.1C229.335 229.781 227.328 228.322 225.694 228.555H225.688C223.966 228.766 221.739 227.775 220.738 226.359L211.231 214.711C210.233 213.292 210.756 212.597 212.393 213.169L226.211 219.097C227.851 219.666 229.417 221.535 229.686 223.248V223.251H229.689C229.919 224.884 231.583 226.527 233.061 225.781C235.9 224.349 239.372 224.346 242.07 226.38L273.041 249.715C274.429 250.762 274.708 252.753 273.662 254.135L267.5 262.311C266.457 263.697 264.469 263.975 263.08 262.929L232.112 239.594C229.411 237.56 228.389 234.211 229.053 231.1Z" fill="#F3C252"/>
<path d="M225.514 220.78L213.146 214.164C213.298 214.192 213.464 214.234 213.647 214.302L225.789 219.645C227.181 220.129 228.509 221.716 228.741 223.169L228.873 223.995C228.236 222.774 226.817 221.395 225.514 220.78Z" fill="white"/>
<path d="M221.146 225.804L212.663 215.606C212.549 215.444 212.464 215.297 212.396 215.156L222.161 225.226C223.113 226.305 224.832 227.29 226.178 227.566L225.346 227.67C223.887 227.85 221.996 227.009 221.146 225.804Z" fill="#E5A344"/>
<path d="M269.606 252.532L239.473 229.83C239.47 229.823 239.461 229.817 239.452 229.814C237.614 228.429 235.191 227.413 233.27 227.208C235.64 225.648 238.831 225.654 241.226 227.462C241.232 227.468 241.239 227.474 241.248 227.48L271.38 250.186C272.763 251.229 273.041 253.22 271.998 254.606L271.038 255.881C271.634 255.08 270.992 253.575 269.606 252.532Z" fill="white"/>
<path d="M232.911 238.494C230.516 236.686 229.629 233.624 230.476 230.914C231.204 232.707 232.847 234.753 234.685 236.138C234.691 236.145 234.701 236.151 234.707 236.154L264.839 258.856C266.225 259.899 267.85 260.104 268.446 259.309L267.482 260.587C266.436 261.973 264.448 262.251 263.065 261.208L232.936 238.503C232.926 238.503 232.92 238.497 232.911 238.494Z" fill="#E5A344"/>
<path d="M227.214 227.959C227.768 227.632 228.263 227.197 228.676 226.65C229.08 226.114 229.361 225.518 229.524 224.906C230.077 225.732 230.97 226.457 231.803 226.607C231.313 227.008 230.866 227.47 230.466 227.999C230.062 228.537 229.735 229.109 229.481 229.702C229.107 229.014 228.156 228.292 227.214 227.959Z" fill="#E5A344"/>
<path d="M180.324 220.68H112.619V227.941H180.324V220.68Z" fill="#797A7C"/>
<path d="M195.271 220.68H188.009V227.941H195.271V220.68Z" fill="#797A7C"/>
<path d="M180.324 274.578H112.619V281.84H180.324V274.578Z" fill="#797A7C"/>
<path d="M195.271 274.578H188.009V281.84H195.271V274.578Z" fill="#797A7C"/>
<path d="M273.181 274.578H205.477V281.84H273.181V274.578Z" fill="#797A7C"/>
<path d="M288.13 274.578H280.867V281.84H288.13V274.578Z" fill="#797A7C"/>
<path d="M180.324 326.328H112.619V333.59H180.324V326.328Z" fill="#797A7C"/>
<path d="M195.271 326.328H188.009V333.59H195.271V326.328Z" fill="#797A7C"/>
<path d="M228.797 253.309C228.641 251.969 226.27 251.235 224.796 251.981H224.79C223.226 252.734 220.8 252.513 219.396 251.495L206.649 243.527C205.248 242.505 205.52 241.682 207.255 241.691L222.244 242.86C223.979 242.872 226.059 244.139 226.87 245.674L226.873 245.677H226.876C227.619 247.151 229.721 248.17 230.883 246.986C233.11 244.717 236.396 243.597 239.608 244.652L276.44 256.783C278.089 257.325 278.995 259.123 278.453 260.766L275.247 270.49C274.706 272.138 272.913 273.041 271.261 272.499L234.429 260.368C231.214 259.313 229.17 256.468 228.797 253.309Z" fill="#F3C252"/>
<path d="M222.121 244.678L208.284 242.391C208.437 242.366 208.608 242.357 208.804 242.36L222.02 243.513C223.494 243.525 225.262 244.599 225.951 245.899L226.339 246.639C225.342 245.691 223.555 244.841 222.121 244.678Z" fill="white"/>
<path d="M219.607 250.843L208.294 243.918C208.135 243.801 208.007 243.688 207.896 243.578L220.384 249.971C221.635 250.687 223.575 251.069 224.942 250.895L224.189 251.259C222.859 251.895 220.8 251.708 219.607 250.843Z" fill="#E5A344"/>
<path d="M274.088 260.551L238.253 248.747C238.247 248.747 238.238 248.744 238.229 248.738C236.041 248.016 233.42 247.839 231.535 248.261C233.279 246.022 236.301 245.003 239.152 245.943C239.162 245.946 239.168 245.952 239.177 245.952V245.949L275.012 257.752C276.657 258.294 277.56 260.089 277.018 261.738L276.52 263.255C276.829 262.31 275.734 261.093 274.088 260.551Z" fill="white"/>
<path d="M234.827 259.062C231.976 258.123 230.152 255.507 230.082 252.672C231.345 254.134 233.56 255.544 235.751 256.266C235.76 256.266 235.766 256.269 235.775 256.275L271.61 268.079C273.256 268.62 274.859 268.29 275.171 267.348L274.672 268.868C274.128 270.517 272.338 271.419 270.689 270.878L234.854 259.074C234.845 259.068 234.839 259.065 234.827 259.062Z" fill="#E5A344"/>
<path d="M226.047 250.927C226.466 250.44 226.796 249.868 227.011 249.217C227.219 248.578 227.295 247.926 227.249 247.293C228.038 247.896 229.118 248.296 229.953 248.171C229.62 248.706 229.345 249.29 229.137 249.917C228.926 250.56 228.8 251.205 228.754 251.847C228.179 251.315 227.047 250.939 226.047 250.927Z" fill="#E5A344"/>
</svg>
