<svg width="710" height="624" viewBox="0 0 710 624" fill="none" xmlns="http://www.w3.org/2000/svg">
<rect width="710" height="624" fill="white"/>
<path d="M323.325 0.497545C406.684 7.7639 468.569 56.8673 525.706 118.267C577.303 173.711 618.729 263.55 619.161 343.602C619.42 391.479 602.527 438.565 556.183 446.517C477.113 460.08 469.339 471.444 463.918 517.366C452.117 617.312 154.908 534.194 103.646 405.58C89.556 370.228 77.7401 327.912 114.48 307.899C137.768 295.212 154.157 296.863 159.566 267.151C170.049 209.586 156.019 150.883 174.551 93.6026C194.532 31.837 263.113 -4.74812 323.325 0.497545Z" fill="#4E9FCA" fill-opacity="0.5"/>
<path d="M564.21 591.609C564.21 609.498 470.355 624 354.58 624C238.805 624 144.953 609.498 144.953 591.609C144.953 573.72 238.808 559.219 354.58 559.219C470.359 559.219 564.21 573.72 564.21 591.609Z" fill="#A9ABAE" fill-opacity="0.5"/>
<path d="M438.168 355.813C438.168 359.157 440.905 361.894 444.25 361.894H540.457C543.801 361.894 546.538 359.157 546.538 355.813V243.862C546.538 240.518 543.801 237.781 540.457 237.781H444.25C440.905 237.781 438.168 240.518 438.168 243.862V355.813Z" fill="#4E9FCA"/>
<path d="M438.168 387.348C438.168 390.692 440.905 393.429 444.25 393.429H540.457C543.801 393.429 546.538 390.692 546.538 387.348V275.393C546.538 272.05 543.801 269.312 540.457 269.312H444.25C440.905 269.312 438.168 272.05 438.168 275.393V387.348Z" fill="#052F5F"/>
<path d="M425.005 595.063C425.033 592.729 428.071 589.392 431.743 587.649L459.089 575.5C465.142 575.585 465.805 575.35 471.856 575.431C478.087 581.181 480.171 589.726 477.33 596.195L424.989 596.095C424.992 595.76 425.002 595.419 425.005 595.063Z" fill="#052F5F"/>
<path d="M477.33 596.198C476.833 597.33 476.204 598.406 475.4 599.382C457.618 599.135 442.724 599.554 424.942 599.307C424.942 599.307 424.961 597.931 424.986 596.098L477.33 596.198Z" fill="#B6B7B7"/>
<path d="M500.246 367.398L454.656 367.445C450.745 384.484 431.59 456.5 429.857 479.387C428.243 500.676 440.156 514.89 450.467 578.217H474.724C474.721 547.424 474.089 511.646 461.184 482.34C476.661 454.013 494.858 418.638 500.083 391.991L500.246 367.398Z" fill="#B67D4D"/>
<path d="M492.381 599.112C492.381 582.659 498.807 569.324 506.734 569.324C514.661 569.324 521.087 582.659 521.087 599.112H492.381Z" fill="#052F5F"/>
<path d="M521.084 596.094H492.381V599.388H521.084V596.094Z" fill="#B6B7B7"/>
<path d="M530.106 362.41C530.979 368.597 536.582 390.878 536.572 430.845C536.566 481.887 527.594 531.219 519.873 578.217H492.353C500.246 475.118 486.903 449.847 492.353 395.811L492.09 367.409L530.106 362.41Z" fill="#D28D58"/>
<path d="M439.241 335.463C444.578 317.778 451.792 299.751 460.032 283.723L434.352 272.859C425.498 291.824 416.285 324.193 416.101 345.707L439.241 335.463Z" fill="#F5AE8B"/>
<path d="M544.549 335.42C539.212 317.735 531.998 299.708 523.758 283.68L549.442 272.816C558.292 291.781 567.477 324.172 567.658 345.689L544.549 335.42Z" fill="#F5AE8B"/>
<path d="M448.63 361.805C447.945 368.436 447.097 375.067 446.071 381.702C476.814 389.628 507.553 389.628 538.296 381.702C537.455 376.281 536.754 370.857 536.144 365.436C514.401 371.386 474.54 373.488 448.63 361.805Z" fill="#FFD96F"/>
<path d="M456.066 291.765C457.374 300.496 451.414 343.462 492.634 344.71C533.854 345.958 530 274.336 530.434 280.861C530.866 287.383 540.436 299.557 551.144 298.453C554.345 297.208 557.545 295.963 560.745 294.721C557.442 286.219 554.138 277.724 550.835 269.225C549.258 265.174 547.112 262.093 544.662 259.863C537.242 251.639 516.557 245.715 492.184 245.715C466.102 245.715 444.241 252.493 438.344 261.621C436.605 263.635 435.075 266.144 433.877 269.225C430.57 277.724 427.266 286.219 423.963 294.721C428.427 296.457 432.894 298.193 437.362 299.929C448.987 304.443 452.15 296.514 456.066 291.765Z" fill="#FFD96F"/>
<path d="M551.144 298.457C540.435 299.561 530.866 287.387 530.434 280.865C529.999 274.343 533.85 345.962 492.634 344.714C451.414 343.466 457.374 300.5 456.066 291.769C452.152 296.518 448.986 304.447 437.361 299.934C441.666 301.607 445.971 303.281 450.275 304.954C451.129 323.903 450.582 342.853 448.63 361.806C474.539 373.489 514.401 371.387 536.143 365.437C533.881 345.321 533.184 325.205 534.082 305.089C539.769 302.877 545.456 300.666 551.144 298.457Z" fill="#FCC551"/>
<path d="M509.232 245.945C515.154 254.134 531.588 322.919 535.076 359.836C540.379 325.91 530.987 257.012 525.065 248.823L509.232 245.945Z" fill="#052F5F"/>
<path d="M475.471 245.945C469.552 254.134 453.119 322.919 449.628 359.836C444.325 325.91 453.716 257.012 459.635 248.823L475.471 245.945Z" fill="#052F5F"/>
<path d="M472.402 353.545C471.636 353.545 470.923 353.067 470.657 352.304C469.377 348.625 472.966 343.079 477.029 340.58C478.543 339.648 480.474 338.897 482.335 338.174C483.99 337.533 485.698 336.87 486.896 336.147C487.769 335.622 488.905 335.903 489.433 336.776C489.962 337.652 489.677 338.787 488.805 339.313C487.337 340.198 485.473 340.921 483.674 341.618C481.963 342.281 480.198 342.966 478.966 343.727C475.728 345.716 473.673 349.723 474.148 351.087C474.483 352.05 473.976 353.104 473.009 353.442C472.809 353.511 472.606 353.545 472.402 353.545Z" fill="#F5AE8B"/>
<path d="M508.911 360.92C509.092 361.983 508.373 362.853 507.306 362.853H485.01C483.946 362.853 482.929 361.983 482.748 360.92L475.271 317.015C475.09 315.949 475.812 315.082 476.876 315.082H499.172C500.236 315.082 501.252 315.952 501.434 317.015L508.911 360.92Z" fill="#FCC551"/>
<path d="M544.549 335.418C535.893 341.202 518.652 347.617 501.515 347.767L502.85 359.3C522.584 363.148 567.783 360.539 567.658 345.687L544.549 335.418Z" fill="#F5AE8B"/>
<path d="M507.4 364.103C507.581 365.167 506.858 366.036 505.795 366.036H483.502C482.435 366.036 481.418 365.167 481.237 364.103L473.763 320.202C473.579 319.138 474.301 318.266 475.368 318.266H497.664C498.728 318.266 499.744 319.135 499.926 320.202L507.4 364.103Z" fill="#424853"/>
<path d="M479.422 350.213C478.94 350.213 478.446 350.204 477.936 350.188C476.916 350.154 476.115 349.297 476.15 348.277C476.184 347.258 477.019 346.482 478.061 346.491C488.325 346.838 491.012 343.529 494.213 338.036C494.729 337.154 495.861 336.854 496.741 337.37C497.623 337.886 497.923 339.015 497.407 339.9C494.009 345.725 490.484 350.213 479.422 350.213Z" fill="#F5AE8B"/>
<path d="M481.587 353.229C480.564 353.229 479.738 352.403 479.738 351.381C479.738 350.358 480.564 349.532 481.587 349.532C489.552 349.532 494.295 346.964 499.71 339.719C500.323 338.9 501.477 338.734 502.297 339.344C503.117 339.954 503.286 341.114 502.673 341.934C496.519 350.167 490.803 353.229 481.587 353.229Z" fill="#F5AE8B"/>
<path d="M483.411 355.629C482.544 355.629 481.656 355.604 480.743 355.564C479.723 355.514 478.937 354.647 478.984 353.628C479.034 352.605 479.901 351.82 480.921 351.87C489.077 352.276 495.327 350.703 499 347.356C499.757 346.671 500.924 346.724 501.612 347.475C502.3 348.232 502.247 349.398 501.49 350.09C497.454 353.771 491.379 355.629 483.411 355.629Z" fill="#F5AE8B"/>
<path d="M489.283 359.005C487.171 359.005 485.088 358.767 483.311 358.201C482.341 357.891 481.8 356.85 482.11 355.877C482.423 354.904 483.464 354.372 484.434 354.676C488.072 355.839 493.732 355.292 497.092 354.087C498.052 353.747 499.113 354.247 499.457 355.207C499.798 356.171 499.297 357.228 498.334 357.569C495.965 358.42 492.59 359.005 489.283 359.005Z" fill="#F5AE8B"/>
<path d="M489.846 346.342C492.182 356.496 490.709 360.894 480.833 361.723C472.358 362.436 468.751 353.556 472.242 346.102L489.846 346.342Z" fill="#F5AE8B"/>
<path d="M416.101 345.712C415.976 360.564 461.14 363.151 480.874 359.3L482.207 347.767C465.116 347.614 447.92 341.233 439.238 335.465L416.101 345.712Z" fill="#F5AE8B"/>
<path d="M492.183 257.811C486.055 257.811 481.087 252.844 481.087 246.716V220.716C481.087 214.588 486.055 209.621 492.183 209.621C498.312 209.621 503.28 214.588 503.28 220.716V246.716C503.28 252.844 498.312 257.811 492.183 257.811Z" fill="#F5AE8B"/>
<path d="M496.656 232.311C502.657 238.058 505.003 245.352 501.9 248.59C498.793 251.827 491.413 249.791 485.413 244.041C479.413 238.292 477.067 231.007 480.17 227.766C483.273 224.529 490.653 226.562 496.656 232.311Z" fill="#F18E7F"/>
<path d="M470.823 210.52C472.897 214.802 472.274 219.394 469.427 220.77C466.58 222.147 462.595 219.788 460.521 215.5C458.447 211.214 459.072 206.625 461.916 205.249C464.76 203.87 468.748 206.231 470.823 210.52Z" fill="#F5AE8B"/>
<path d="M513.54 210.52C511.466 214.802 512.089 219.394 514.935 220.77C517.779 222.147 521.768 219.788 523.842 215.5C525.916 211.214 525.294 206.625 522.447 205.249C519.603 203.87 515.614 206.231 513.54 210.52Z" fill="#F5AE8B"/>
<path d="M518.693 210.45C518.693 228.546 506.824 243.216 492.183 243.216C477.542 243.216 465.673 228.549 465.673 210.45C465.673 192.355 477.539 177.688 492.183 177.688C506.824 177.688 518.693 192.355 518.693 210.45Z" fill="#F5AE8B"/>
<path d="M508.469 207.228C508.329 207.228 508.185 207.181 508.066 207.09C506.117 205.563 503.023 204.65 500.504 206.039C500.188 206.211 499.791 206.098 499.616 205.782C499.441 205.47 499.557 205.072 499.873 204.897C502.913 203.221 506.583 204.275 508.867 206.064C509.151 206.286 509.201 206.696 508.979 206.977C508.851 207.143 508.663 207.228 508.469 207.228Z" fill="#B44822"/>
<path d="M505.723 209.555C505.723 211.201 504.912 212.53 503.918 212.53C502.917 212.53 502.109 211.197 502.109 209.555C502.109 207.91 502.917 206.574 503.918 206.574C504.916 206.577 505.723 207.91 505.723 209.555Z" fill="#B44822"/>
<path d="M475.897 207.228C475.703 207.228 475.509 207.14 475.384 206.977C475.162 206.696 475.212 206.283 475.496 206.064C477.783 204.275 481.45 203.221 484.494 204.897C484.806 205.072 484.922 205.47 484.75 205.782C484.575 206.098 484.178 206.211 483.862 206.039C481.346 204.65 478.252 205.567 476.3 207.09C476.178 207.184 476.034 207.228 475.897 207.228Z" fill="#B44822"/>
<path d="M478.637 209.555C478.637 211.201 479.447 212.53 480.445 212.53C481.443 212.53 482.253 211.197 482.253 209.555C482.253 207.91 481.443 206.574 480.445 206.574C479.447 206.574 478.637 207.91 478.637 209.555Z" fill="#B44822"/>
<path d="M490.784 221.475C490.162 221.475 489.589 221.428 489.151 221.362C488.798 221.309 488.551 220.978 488.604 220.621C488.657 220.264 488.995 220.024 489.345 220.071C491.053 220.327 493.925 220.127 494.955 218.888C495.427 218.322 495.493 217.562 495.152 216.567L494.908 215.86C493.866 212.861 492.686 209.46 494.06 206.248C494.204 205.916 494.585 205.76 494.917 205.907C495.249 206.048 495.402 206.432 495.258 206.761C494.085 209.507 495.177 212.657 496.14 215.432L496.387 216.145C497 217.94 496.491 219.082 495.959 219.723C494.811 221.103 492.558 221.475 490.784 221.475Z" fill="#B44822"/>
<path d="M483.648 227.668C487.274 234.515 497.085 234.515 500.711 227.668H483.648Z" fill="white"/>
<path d="M478.801 177.685C461.817 167.35 461.757 199.421 463.675 206.903C465.455 213.86 469.243 218.758 469.547 208.427C469.853 198.045 476.642 190.841 485.242 188.019H499.119C507.719 190.841 514.508 198.048 514.815 208.427C515.118 218.758 518.906 213.863 520.687 206.903C522.604 199.421 522.548 178.345 510.388 177.685H478.801Z" fill="#B44822"/>
<path d="M513.369 192.512C508.801 199.51 497.33 200.117 487.741 193.861C478.159 187.608 474.092 176.863 478.662 169.863C483.23 162.865 494.702 162.258 504.287 168.514C513.876 174.767 517.939 185.512 513.369 192.512Z" fill="#67300F"/>
<path d="M461.719 195.599C461.706 175.248 475.609 160.259 492.389 161.366C509.192 160.562 522.825 175.255 522.45 195.599C503.464 185.708 480.886 186.049 461.719 195.599Z" fill="#4E9FCA"/>
<path d="M466.659 193.46C482.692 185.289 501.672 185.289 517.708 193.46C517.708 196.8 517.708 198.765 517.708 202.106C517.708 204.142 516.144 204.993 514.179 204.158C500.13 198.183 484.241 198.183 470.188 204.158C468.223 204.993 466.659 204.142 466.659 202.106C466.659 198.765 466.659 196.8 466.659 193.46Z" fill="#052F5F"/>
<path d="M324.385 485.943C324.385 499.356 313.514 510.226 300.103 510.226C286.691 510.226 275.82 499.356 275.82 485.943C275.82 472.536 286.691 461.66 300.103 461.66C313.514 461.66 324.385 472.536 324.385 485.943Z" fill="#55B9A1"/>
<path d="M297.143 504.747C296.68 504.747 296.255 504.494 296.036 504.087L286.66 486.802C286.328 486.189 286.557 485.422 287.167 485.091C287.78 484.759 288.547 484.985 288.878 485.598L297.125 500.803L311.321 473.724C311.643 473.107 312.407 472.867 313.026 473.192C313.642 473.517 313.883 474.277 313.558 474.897L298.266 504.075C298.051 504.488 297.622 504.75 297.159 504.75C297.15 504.747 297.146 504.747 297.143 504.747Z" fill="white"/>
<path d="M409.934 585.781C409.934 593.917 403.277 600.576 395.14 600.576H205.063C196.929 600.576 190.269 593.917 190.269 585.781V158.686C190.269 150.55 196.926 143.891 205.063 143.891H395.14C403.277 143.891 409.934 150.55 409.934 158.686V585.781Z" fill="#424853"/>
<path d="M211.814 574.2C204.037 574.2 197.671 567.834 197.671 560.058V184.407C197.671 176.627 204.037 170.262 211.814 170.262H388.396C396.173 170.262 402.54 176.627 402.54 184.407V560.058C402.54 567.834 396.173 574.2 388.396 574.2H211.814Z" fill="white"/>
<path d="M325.678 89.173C325.678 103.299 300.1 143.891 300.1 143.891C300.1 143.891 274.525 103.296 274.525 89.173C274.525 75.0532 285.975 63.6016 300.1 63.6016C314.228 63.5984 325.678 75.0501 325.678 89.173Z" fill="#DB4444"/>
<path d="M316.621 89.1729C316.621 98.291 309.225 105.689 300.103 105.689C290.98 105.689 283.588 98.291 283.588 89.1729C283.588 80.0516 290.983 72.6602 300.103 72.6602C309.225 72.657 316.621 80.0516 316.621 89.1729Z" fill="white"/>
<path d="M258.363 204.172V208.592H256.555V204.135L251.478 195.805H253.433L257.525 202.546L261.635 195.805H263.444L258.363 204.172Z" fill="#2C6764"/>
<path d="M265.487 208.064C264.721 207.638 264.12 207.05 263.689 206.303C263.257 205.555 263.041 204.704 263.041 203.753C263.041 202.802 263.257 201.955 263.689 201.204C264.12 200.456 264.721 199.871 265.487 199.449C266.254 199.03 267.12 198.82 268.081 198.82C269.041 198.82 269.905 199.03 270.665 199.449C271.425 199.868 272.023 200.453 272.454 201.204C272.886 201.951 273.102 202.802 273.102 203.753C273.102 204.704 272.886 205.552 272.454 206.303C272.023 207.05 271.425 207.638 270.665 208.064C269.905 208.489 269.041 208.702 268.081 208.702C267.12 208.702 266.254 208.489 265.487 208.064ZM269.751 206.74C270.246 206.456 270.63 206.052 270.912 205.536C271.194 205.02 271.331 204.426 271.331 203.756C271.331 203.087 271.19 202.493 270.912 201.976C270.63 201.46 270.246 201.06 269.751 200.782C269.257 200.5 268.7 200.362 268.081 200.362C267.461 200.362 266.901 200.503 266.41 200.782C265.916 201.063 265.528 201.46 265.24 201.976C264.956 202.496 264.812 203.087 264.812 203.756C264.812 204.426 264.956 205.02 265.24 205.536C265.525 206.052 265.916 206.456 266.41 206.74C266.905 207.028 267.461 207.169 268.081 207.169C268.703 207.169 269.26 207.025 269.751 206.74Z" fill="#2C6764"/>
<path d="M284.557 198.914V208.595H282.896V207.134C282.543 207.635 282.077 208.02 281.498 208.295C280.919 208.567 280.29 208.705 279.608 208.705C278.316 208.705 277.299 208.348 276.558 207.635C275.817 206.922 275.444 205.874 275.444 204.485V198.914H277.199V204.285C277.199 205.223 277.425 205.933 277.875 206.412C278.326 206.894 278.97 207.134 279.812 207.134C280.738 207.134 281.466 206.853 282.005 206.293C282.54 205.733 282.809 204.942 282.809 203.919V198.914H284.557Z" fill="#2C6764"/>
<path d="M290.933 199.262C291.53 198.971 292.253 198.824 293.107 198.824V200.523C293.01 200.51 292.876 200.504 292.707 200.504C291.756 200.504 291.011 200.789 290.47 201.355C289.929 201.921 289.656 202.728 289.656 203.776V208.599H287.901V198.918H289.581V200.545C289.885 199.978 290.335 199.553 290.933 199.262Z" fill="#2C6764"/>
<path d="M301.855 208.064C301.088 207.638 300.488 207.05 300.056 206.303C299.624 205.555 299.408 204.704 299.408 203.753C299.408 202.802 299.624 201.955 300.056 201.204C300.488 200.456 301.088 199.871 301.855 199.449C302.621 199.03 303.488 198.82 304.448 198.82C305.412 198.82 306.272 199.03 307.032 199.449C307.792 199.868 308.39 200.453 308.822 201.204C309.253 201.951 309.469 202.802 309.469 203.753C309.469 204.704 309.253 205.552 308.822 206.303C308.39 207.05 307.792 207.638 307.032 208.064C306.272 208.489 305.408 208.702 304.448 208.702C303.488 208.702 302.621 208.489 301.855 208.064ZM306.122 206.74C306.616 206.456 307.001 206.052 307.282 205.536C307.564 205.02 307.702 204.426 307.702 203.756C307.702 203.087 307.561 202.493 307.282 201.976C307.001 201.46 306.616 201.06 306.122 200.782C305.627 200.5 305.071 200.362 304.451 200.362C303.832 200.362 303.272 200.503 302.781 200.782C302.286 201.063 301.898 201.46 301.611 201.976C301.326 202.496 301.182 203.087 301.182 203.756C301.182 204.426 301.326 205.02 301.611 205.536C301.898 206.052 302.286 206.456 302.781 206.74C303.275 207.028 303.832 207.169 304.451 207.169C305.071 207.169 305.627 207.025 306.122 206.74Z" fill="#2C6764"/>
<path d="M314.935 199.262C315.529 198.971 316.255 198.824 317.109 198.824V200.523C317.012 200.51 316.878 200.504 316.706 200.504C315.758 200.504 315.01 200.789 314.469 201.355C313.928 201.921 313.655 202.728 313.655 203.776V208.599H311.9V198.918H313.58V200.545C313.887 199.978 314.337 199.553 314.935 199.262Z" fill="#2C6764"/>
<path d="M328.306 195.043V208.597H326.626V207.064C326.235 207.599 325.744 208.009 325.146 208.287C324.549 208.568 323.892 208.706 323.172 208.706C322.234 208.706 321.395 208.5 320.651 208.087C319.909 207.674 319.328 207.092 318.905 206.341C318.486 205.594 318.276 204.73 318.276 203.758C318.276 202.785 318.486 201.925 318.905 201.183C319.324 200.442 319.906 199.863 320.651 199.447C321.392 199.034 322.234 198.825 323.172 198.825C323.867 198.825 324.505 198.956 325.09 199.219C325.675 199.482 326.163 199.866 326.551 200.379V195.043H328.306ZM324.98 206.742C325.481 206.457 325.869 206.054 326.15 205.537C326.432 205.021 326.57 204.427 326.57 203.758C326.57 203.088 326.429 202.494 326.15 201.978C325.872 201.462 325.481 201.061 324.98 200.783C324.48 200.501 323.926 200.364 323.319 200.364C322.697 200.364 322.14 200.504 321.649 200.783C321.154 201.064 320.767 201.462 320.479 201.978C320.194 202.497 320.05 203.088 320.05 203.758C320.05 204.427 320.194 205.021 320.479 205.537C320.767 206.054 321.154 206.457 321.649 206.742C322.143 207.029 322.7 207.17 323.319 207.17C323.926 207.17 324.48 207.026 324.98 206.742Z" fill="#2C6764"/>
<path d="M340.343 204.34H332.488C332.597 205.194 332.973 205.876 333.611 206.395C334.249 206.911 335.044 207.171 335.995 207.171C337.152 207.171 338.081 206.78 338.788 206.001L339.755 207.133C339.317 207.643 338.773 208.034 338.119 208.303C337.468 208.572 336.739 208.706 335.935 208.706C334.912 208.706 334.005 208.497 333.213 208.078C332.422 207.658 331.809 207.07 331.377 206.317C330.945 205.563 330.729 204.709 330.729 203.761C330.729 202.823 330.939 201.978 331.358 201.221C331.778 200.467 332.356 199.879 333.095 199.457C333.83 199.038 334.662 198.828 335.588 198.828C336.514 198.828 337.337 199.038 338.062 199.457C338.788 199.876 339.351 200.464 339.761 201.221C340.168 201.975 340.374 202.841 340.374 203.814C340.377 203.942 340.365 204.121 340.343 204.34ZM333.482 201.071C332.916 201.581 332.585 202.253 332.488 203.079H338.698C338.601 202.263 338.269 201.596 337.703 201.08C337.136 200.564 336.433 200.305 335.594 200.305C334.753 200.301 334.049 200.558 333.482 201.071Z" fill="#2C6764"/>
<path d="M345.84 199.262C346.438 198.971 347.16 198.824 348.014 198.824V200.523C347.917 200.51 347.783 200.504 347.611 200.504C346.66 200.504 345.915 200.789 345.374 201.355C344.833 201.921 344.561 202.728 344.561 203.776V208.599H342.809V198.918H344.489V200.545C344.792 199.978 345.242 199.553 345.84 199.262Z" fill="#2C6764"/>
<path d="M241.12 218.639C240.895 218.42 240.782 218.151 240.782 217.835C240.782 217.519 240.895 217.247 241.12 217.021C241.345 216.796 241.627 216.684 241.968 216.684C242.309 216.684 242.594 216.79 242.819 217.003C243.044 217.215 243.157 217.481 243.157 217.797C243.157 218.126 243.044 218.404 242.819 218.629C242.594 218.854 242.309 218.967 241.968 218.967C241.627 218.967 241.345 218.858 241.12 218.639ZM241.092 220.828H242.847V230.509H241.092V220.828Z" fill="#2C6764"/>
<path d="M246.682 230.301C245.95 230.089 245.378 229.817 244.965 229.488L245.697 228.099C246.122 228.403 246.642 228.647 247.249 228.831C247.859 229.013 248.472 229.106 249.094 229.106C250.627 229.106 251.397 228.669 251.397 227.793C251.397 227.502 251.294 227.27 251.087 227.098C250.881 226.926 250.621 226.804 250.311 226.723C250.002 226.645 249.56 226.557 248.988 226.457C248.209 226.335 247.574 226.194 247.08 226.038C246.585 225.878 246.163 225.612 245.809 225.234C245.456 224.856 245.281 224.327 245.281 223.645C245.281 222.769 245.647 222.065 246.376 221.537C247.105 221.008 248.087 220.742 249.316 220.742C249.961 220.742 250.608 220.82 251.253 220.98C251.897 221.139 252.429 221.352 252.842 221.618L252.094 223.007C251.303 222.497 250.371 222.241 249.301 222.241C248.556 222.241 247.99 222.363 247.602 222.606C247.211 222.85 247.017 223.173 247.017 223.573C247.017 223.889 247.127 224.139 247.346 224.321C247.565 224.502 247.837 224.637 248.159 224.721C248.481 224.805 248.935 224.902 249.52 225.012C250.299 225.146 250.928 225.29 251.409 225.44C251.891 225.594 252.301 225.85 252.642 226.216C252.983 226.582 253.152 227.092 253.152 227.749C253.152 228.625 252.776 229.322 252.029 229.842C251.281 230.358 250.261 230.617 248.969 230.617C248.175 230.62 247.411 230.514 246.682 230.301Z" fill="#2C6764"/>
<path d="M261.805 229.982C261.038 229.557 260.438 228.969 260.006 228.221C259.574 227.474 259.358 226.623 259.358 225.672C259.358 224.721 259.574 223.873 260.006 223.126C260.438 222.378 261.038 221.793 261.805 221.371C262.571 220.952 263.438 220.742 264.398 220.742C265.359 220.742 266.222 220.952 266.982 221.371C267.743 221.79 268.34 222.375 268.772 223.126C269.203 223.873 269.419 224.724 269.419 225.672C269.419 226.623 269.203 227.471 268.772 228.221C268.34 228.969 267.743 229.557 266.982 229.982C266.222 230.408 265.359 230.62 264.398 230.62C263.438 230.62 262.574 230.408 261.805 229.982ZM266.072 228.656C266.566 228.371 266.951 227.968 267.233 227.452C267.514 226.936 267.652 226.341 267.652 225.672C267.652 225.003 267.511 224.408 267.233 223.892C266.951 223.376 266.566 222.976 266.072 222.697C265.578 222.419 265.021 222.278 264.401 222.278C263.782 222.278 263.222 222.419 262.731 222.697C262.237 222.979 261.849 223.376 261.561 223.892C261.273 224.411 261.132 225.003 261.132 225.672C261.132 226.341 261.276 226.936 261.561 227.452C261.845 227.968 262.237 228.371 262.731 228.656C263.225 228.941 263.782 229.085 264.401 229.085C265.021 229.085 265.578 228.944 266.072 228.656Z" fill="#2C6764"/>
<path d="M279.953 221.808C280.679 222.521 281.039 223.566 281.039 224.939V230.51H279.287V225.139C279.287 224.201 279.062 223.497 278.611 223.022C278.161 222.546 277.516 222.309 276.675 222.309C275.724 222.309 274.976 222.587 274.428 223.141C273.881 223.694 273.606 224.489 273.606 225.524V230.51H271.851V220.829H273.531V222.29C273.884 221.789 274.363 221.408 274.963 221.139C275.567 220.87 276.252 220.738 277.019 220.738C278.251 220.738 279.23 221.095 279.953 221.808Z" fill="#2C6764"/>
<path d="M294.65 229.944C294.393 230.163 294.078 230.332 293.699 230.445C293.32 230.561 292.933 230.62 292.529 230.62C291.556 230.62 290.799 230.357 290.264 229.835C289.729 229.313 289.46 228.562 289.46 227.589V222.275H287.814V220.833H289.46V218.715H291.212V220.833H293.99V222.275H291.212V227.517C291.212 228.039 291.343 228.443 291.606 228.721C291.869 229.003 292.241 229.14 292.729 229.14C293.264 229.14 293.721 228.987 294.099 228.684L294.65 229.944Z" fill="#2C6764"/>
<path d="M304.87 221.809C305.593 222.523 305.955 223.567 305.955 224.94V230.511H304.204V225.141C304.204 224.202 303.978 223.498 303.528 223.023C303.077 222.548 302.433 222.31 301.591 222.31C300.64 222.31 299.893 222.588 299.345 223.142C298.798 223.696 298.522 224.49 298.522 225.525V230.511H296.771V216.961H298.522V222.203C298.888 221.741 299.367 221.381 299.955 221.127C300.546 220.871 301.207 220.743 301.939 220.743C303.168 220.74 304.144 221.096 304.87 221.809Z" fill="#2C6764"/>
<path d="M317.975 226.257H310.119C310.229 227.108 310.604 227.793 311.242 228.312C311.88 228.828 312.675 229.088 313.626 229.088C314.784 229.088 315.713 228.697 316.42 227.918L317.389 229.05C316.952 229.563 316.407 229.951 315.756 230.22C315.103 230.489 314.377 230.62 313.573 230.62C312.55 230.62 311.643 230.411 310.851 229.992C310.06 229.573 309.447 228.984 309.015 228.231C308.583 227.477 308.367 226.623 308.367 225.672C308.367 224.734 308.577 223.889 308.996 223.132C309.415 222.378 309.994 221.79 310.732 221.371C311.467 220.952 312.3 220.742 313.226 220.742C314.152 220.742 314.974 220.952 315.7 221.371C316.426 221.79 316.992 222.378 317.399 223.132C317.809 223.886 318.012 224.752 318.012 225.725C318.012 225.86 318 226.035 317.975 226.257ZM311.114 222.985C310.548 223.495 310.216 224.167 310.119 224.993H316.329C316.232 224.177 315.9 223.51 315.334 222.991C314.768 222.475 314.064 222.215 313.226 222.215C312.387 222.215 311.683 222.475 311.114 222.985Z" fill="#2C6764"/>
<path d="M340.005 220.832L336.389 230.513H334.709L331.915 223.172L329.084 230.513H327.404L323.807 220.832H325.468L328.28 228.539L331.202 220.832H332.682L335.551 228.577L338.438 220.832H340.005Z" fill="#2C6764"/>
<path d="M348.07 221.73C348.784 222.387 349.137 223.369 349.137 224.67V230.513H347.476V229.234C347.185 229.684 346.766 230.028 346.225 230.266C345.683 230.504 345.039 230.623 344.298 230.623C343.212 230.623 342.345 230.36 341.695 229.838C341.044 229.315 340.719 228.627 340.719 227.773C340.719 226.922 341.028 226.237 341.651 225.718C342.274 225.202 343.259 224.942 344.61 224.942H347.388V224.595C347.388 223.841 347.169 223.263 346.731 222.859C346.294 222.459 345.649 222.255 344.795 222.255C344.223 222.255 343.663 222.349 343.115 222.537C342.568 222.725 342.105 222.978 341.726 223.294L340.994 221.98C341.495 221.58 342.089 221.27 342.783 221.057C343.478 220.845 344.213 220.738 344.992 220.738C346.331 220.741 347.357 221.07 348.07 221.73ZM346.325 228.824C346.813 228.527 347.166 228.102 347.385 227.554V226.203H344.682C343.196 226.203 342.455 226.703 342.455 227.701C342.455 228.189 342.643 228.571 343.021 228.852C343.4 229.134 343.922 229.271 344.592 229.271C345.258 229.271 345.837 229.121 346.325 228.824Z" fill="#2C6764"/>
<path d="M360.774 220.832L356.078 231.48C355.665 232.465 355.18 233.159 354.627 233.563C354.073 233.963 353.406 234.167 352.627 234.167C352.152 234.167 351.692 234.092 351.248 233.938C350.804 233.785 350.434 233.563 350.144 233.272L350.891 231.958C351.392 232.434 351.967 232.672 352.627 232.672C353.053 232.672 353.41 232.559 353.694 232.334C353.982 232.108 354.239 231.721 354.47 231.173L354.78 230.498L350.506 220.835H352.333L355.712 228.58L359.053 220.835H360.774V220.832Z" fill="#2C6764"/>
<path d="M360.037 299.98H240.17V437.478H360.037V299.98Z" fill="#4E9FCA"/>
<path d="M326.417 299.979H323.057C323.057 282.506 312.761 268.289 300.104 268.289C287.446 268.289 277.151 282.506 277.151 299.979H273.791C273.791 280.651 285.594 264.93 300.104 264.93C314.613 264.93 326.417 280.651 326.417 299.979Z" fill="#4E9FCA"/>
<path d="M346.835 383.626C343.875 387.817 335.244 386.819 327.558 381.399C319.868 375.975 316.033 368.18 318.989 363.985C321.948 359.79 330.58 360.788 338.269 366.212C345.956 371.636 349.791 379.434 346.835 383.626Z" fill="#FCC551"/>
<path d="M336.204 366.283C329.876 362.367 323.178 361.841 320.772 365.248C318.37 368.654 321.113 374.788 326.926 379.436L336.204 366.283Z" fill="#FFD96F"/>
<path d="M338.898 368.18L329.619 381.33C335.945 385.243 342.646 385.772 345.051 382.365C347.451 378.959 344.707 372.825 338.898 368.18Z" fill="#FFD96F"/>
<path d="M313.359 406.876C313.359 414.089 319.2 419.935 326.417 419.935C329.455 419.935 332.249 418.887 334.467 417.142L316.147 398.824C314.407 401.042 313.359 403.835 313.359 406.876Z" fill="#FFD96F"/>
<path d="M316.144 398.823L334.463 417.141C335.292 416.49 336.034 415.749 336.685 414.923L318.365 396.605C317.536 397.256 316.794 397.997 316.144 398.823Z" fill="#FFD96F"/>
<path d="M336.684 414.927C338.43 412.71 339.475 409.916 339.475 406.876C339.475 399.663 333.625 393.816 326.414 393.816C323.373 393.816 320.582 394.867 318.364 396.607L336.684 414.927Z" fill="#FFD96F"/>
<path d="M317.019 399.699C315.493 401.689 314.576 404.175 314.576 406.875C314.576 413.412 319.879 418.714 326.417 418.714C329.12 418.714 331.601 417.795 333.594 416.271L317.019 399.699Z" fill="white"/>
<path d="M319.234 397.481L335.812 414.053C337.335 412.061 338.255 409.577 338.255 406.875C338.255 400.337 332.952 395.035 326.414 395.035C323.711 395.038 321.23 395.958 319.234 397.481Z" fill="white"/>
<path d="M307.55 410.446C304.734 413.258 300.495 413.774 297.157 411.994C299.353 411.948 302.159 410.596 304.543 408.21L315.552 397.199L308.31 389.964L297.301 400.971C294.917 403.352 293.566 406.158 293.519 408.357C291.736 405.019 292.249 400.781 295.064 397.965C295.064 397.965 295.064 397.965 295.064 397.959L305.688 387.343L305.197 386.852L293.741 398.306C290.021 402.022 290.021 408.05 293.741 411.769C297.457 415.485 303.489 415.485 307.205 411.769L318.665 400.314L318.174 399.823L307.55 410.446Z" fill="#FFD96F"/>
<path d="M316.659 375.396L305.196 386.851L305.687 387.342L316.318 376.719C319.13 373.904 323.369 373.391 326.707 375.171C324.508 375.218 321.705 376.575 319.321 378.956L308.312 389.966L315.554 397.201L326.563 386.2C328.95 383.81 330.305 381.008 330.348 378.815C332.125 382.149 331.612 386.391 328.797 389.203L318.173 399.826L318.664 400.317L330.123 388.862C330.126 388.862 330.126 388.862 330.126 388.862C333.84 385.146 333.84 379.118 330.126 375.399C326.404 371.68 320.375 371.68 316.659 375.396Z" fill="#007BBC"/>
<path d="M319.318 378.956C321.705 376.576 324.508 375.218 326.704 375.172C323.366 373.392 319.127 373.908 316.315 376.72L305.685 387.343L308.306 389.964L319.318 378.956Z" fill="white"/>
<path d="M295.063 397.966C292.248 400.782 291.734 405.02 293.518 408.358C293.565 406.159 294.916 403.353 297.3 400.972L308.309 389.965L305.687 387.344L295.063 397.96C295.063 397.966 295.063 397.966 295.063 397.966Z" fill="white"/>
<path d="M297.157 411.999C300.495 413.778 304.737 413.262 307.55 410.45L318.174 399.828L315.552 397.203L304.543 408.214C302.156 410.6 299.353 411.952 297.157 411.999Z" fill="#FCC551"/>
<path d="M328.797 389.201C331.613 386.389 332.126 382.147 330.349 378.812C330.302 381.005 328.947 383.808 326.563 386.198L315.555 397.199L318.176 399.823L328.797 389.201Z" fill="#052F5F"/>
<path d="M343.03 308.872L338.676 305.703L337.981 305.828L313.292 339.755L313.702 340.052L318.028 343.199L318.438 343.496L343.124 309.569L343.03 308.872Z" fill="white"/>
<path d="M321.515 334.552L339.909 309.277L336.493 312.678L320.901 334.104L321.515 334.552Z" fill="#052F5F"/>
<path d="M322.684 335.4L314.656 349.023L309.241 345.085L319.734 333.258L322.684 335.4Z" fill="#052F5F"/>
<path d="M319.737 333.259C321.142 333.036 322.456 333.994 322.678 335.398L319.737 333.259Z" fill="#052F5F"/>
<path d="M312.61 339.225L312.162 339.84L318.743 344.631L319.19 344.017L312.61 339.225Z" fill="white"/>
<path d="M312.07 352.49L314.166 349.609L314.773 350.047L315.22 349.434L308.638 344.645L308.188 345.261L309.311 346.077L308.795 345.699L306.699 348.58L301.665 346.919L258.09 406.795L271.664 416.676L315.242 356.797L312.07 352.49Z" fill="white"/>
<path d="M310.775 352.541L307.049 349.829L302.009 348.168L295.023 357.768L295.424 358.056L306.561 366.16L306.958 366.448L313.944 356.848L310.775 352.541Z" fill="#052F5F"/>
<path d="M297.652 359.712L256.013 416.938L258.502 418.748L300.142 361.523L297.652 359.712Z" fill="#052F5F"/>
<path d="M301.844 362.728L260.197 419.953L262.684 421.762L304.331 364.537L301.844 362.728Z" fill="#052F5F"/>
<path d="M300.197 361.521L258.55 418.746L260.197 419.944L301.843 362.719L300.197 361.521Z" fill="#4E9FCA"/>
<path d="M254.945 403.225L254.347 404.047L275.367 419.362L275.966 418.54L254.945 403.225Z" fill="white"/>
<path d="M252.56 414.426L251.438 415.969L265.02 425.844L266.142 424.3L252.56 414.426Z" fill="#052F5F"/>
</svg>
