<svg width="710" height="624" viewBox="0 0 710 624" fill="none" xmlns="http://www.w3.org/2000/svg">
<rect width="710" height="624" fill="white"/>
<path d="M607.855 247.756C567.844 179.891 526.533 98.6398 459.542 71.6412C352.64 28.554 264.473 54.5731 180.532 86.7018C125.943 107.594 46.6506 178.773 64.9623 292.178C83.2739 405.584 7.7352 486.069 64.584 531.503C110.24 567.993 319.625 502.533 376.153 518.146C461.052 541.595 492.913 587.838 557.156 579.313C612.236 572.004 658.186 525.19 666.204 454.021C674.678 378.802 642.08 305.804 607.855 247.756Z" fill="#4E9FCA" fill-opacity="0.5"/>
<path d="M627.945 132.262H76.834V354.37H627.945V132.262Z" fill="#052F5F"/>
<path d="M309.79 262.211C291.21 276.69 254.263 336.218 274.608 347.684C291.862 357.408 305.36 325.857 320.568 301.823L309.79 262.211Z" fill="#C7E0F6"/>
<path d="M411.991 263.082C430.571 277.558 465.406 334.629 446.044 347.682C431.961 357.18 407.73 321.265 399.065 297.448L411.991 263.082Z" fill="#C7E0F6"/>
<path d="M402.954 235.533C402.954 258.252 384.513 276.671 361.759 276.671C339.006 276.671 320.564 258.252 320.564 235.533C320.564 212.815 339.006 194.398 361.759 194.398C384.513 194.398 402.954 212.815 402.954 235.533Z" fill="#D08A44"/>
<path d="M414.541 267.785C414.541 288.296 390.281 381.724 360.35 381.724C330.419 381.724 306.158 288.296 306.158 267.785C306.158 259.244 332.95 249.789 362.881 249.789C392.812 249.792 414.541 259.244 414.541 267.785Z" fill="#C7E0F6"/>
<path d="M414.541 267.785C414.541 282.797 370.165 307.694 340.234 307.694C310.303 307.694 306.158 288.296 306.158 267.785C306.158 259.244 332.95 249.789 362.881 249.789C392.812 249.792 414.541 259.244 414.541 267.785Z" fill="#DDF0FC"/>
<path d="M377.624 270.173L384.739 267.965C384.658 252.077 372.939 237.637 360.35 237.637V302.641C360.35 302.641 375.787 290.884 382.095 278.044L377.624 270.173Z" fill="#4CB3E6"/>
<path d="M343.076 270.173L335.96 267.965C336.038 252.077 347.76 237.637 360.35 237.637V302.641C360.35 302.641 344.912 290.884 338.605 278.044L343.076 270.173Z" fill="#4CB3E6"/>
<path d="M371.775 262.949C371.775 278.611 360.35 302.639 360.35 302.639C360.35 302.639 348.928 278.611 348.928 262.949H371.775Z" fill="#F5AE8B"/>
<path d="M360.353 273.667C354.026 273.667 348.898 268.541 348.898 262.214V225.398C348.898 219.072 354.029 213.945 360.353 213.945C366.68 213.945 371.807 219.072 371.807 225.398V262.211C371.804 268.537 366.677 273.667 360.353 273.667Z" fill="#F5AE8B"/>
<path d="M371.891 231.818C371.891 241.733 366.725 249.766 360.349 249.766C353.977 249.766 348.811 241.73 348.811 231.818C348.811 221.907 353.977 213.871 360.349 213.871C366.725 213.871 371.891 221.904 371.891 231.818Z" fill="#F18E7F"/>
<path d="M308.577 290.565C299.276 304.723 288.368 313.991 284.21 311.26C280.052 308.528 284.223 294.838 293.521 280.679C302.822 266.521 313.73 257.256 317.888 259.984C322.046 262.716 317.875 276.406 308.577 290.565Z" fill="#DDF0FC"/>
<path d="M390.563 203.96C390.563 223.259 377.036 238.904 360.354 238.904C343.668 238.904 330.142 223.259 330.142 203.96C330.142 184.661 343.665 169.016 360.354 169.016C377.036 169.016 390.563 184.661 390.563 203.96Z" fill="#F5AE8B"/>
<path d="M354.716 214.429C354.641 214.429 354.564 214.41 354.493 214.371C352.937 213.517 351.305 212.451 350.982 211.006C350.723 209.839 351.26 208.875 351.88 207.76C352.744 206.208 353.927 204.085 353.817 200.092C353.81 199.837 354.011 199.627 354.266 199.617C354.27 199.617 354.276 199.617 354.279 199.617C354.528 199.617 354.732 199.814 354.741 200.067C354.861 204.314 353.607 206.564 352.692 208.209C352.097 209.276 351.706 209.981 351.887 210.805C352.133 211.898 353.646 212.851 354.939 213.563C355.162 213.685 355.243 213.967 355.12 214.19C355.036 214.345 354.881 214.429 354.716 214.429Z" fill="#B44822"/>
<path d="M340.885 197.535C340.771 197.535 340.662 197.493 340.571 197.412C340.383 197.241 340.371 196.947 340.545 196.759C342.669 194.458 347.554 193.255 350.438 195.214C350.648 195.356 350.703 195.644 350.561 195.854C350.419 196.064 350.131 196.119 349.921 195.977C347.47 194.309 343.093 195.356 341.224 197.383C341.13 197.486 341.007 197.535 340.885 197.535Z" fill="#B44822"/>
<path d="M347.445 204.567C347.445 206.442 346.588 207.958 345.531 207.958C344.474 207.958 343.617 206.438 343.617 204.567C343.617 202.695 344.474 201.176 345.531 201.176C346.588 201.176 347.445 202.695 347.445 204.567Z" fill="#B44822"/>
<path d="M370.464 204.567C370.464 206.442 369.607 207.958 368.547 207.958C367.49 207.958 366.633 206.438 366.633 204.567C366.633 202.695 367.49 201.176 368.547 201.176C369.607 201.176 370.464 202.695 370.464 204.567Z" fill="#B44822"/>
<path d="M386.43 211.899V211.893C381.377 213.157 377.688 213.826 370.466 211.017C365.025 208.903 356.27 205.12 350.179 207.959C344.718 210.506 340.703 213.011 335.12 211.65C334.981 213.968 334.399 216.978 332.375 220.097C337.684 230.532 347.677 238.345 354.143 239.638C365.684 241.946 381.271 236.68 388.341 221.736C387.465 219.373 386.434 215.769 386.43 211.899Z" fill="white"/>
<path d="M349.994 170.826C355.148 160.717 370.243 155.409 380.549 159.272C386.204 161.393 388.974 165.983 389.67 171.899C390.1 175.549 389.223 180.01 392.825 182.117C396.304 184.157 401.156 182.767 404.195 185.957C407.92 189.866 405.097 196.292 403.946 200.698C401.344 210.68 411.981 213.806 416.452 220.937C431.589 245.104 411.651 261.073 397.506 257.385C380.009 252.824 381.455 237.346 383.815 230.011C385.253 225.537 390.562 215.119 383.074 213.237C379.641 212.374 376.741 211.977 375.713 209.339C373.893 204.648 377.801 202.208 372.91 196.961C367.889 191.576 356.774 194.327 350.544 190.257C343.713 185.793 346.865 176.964 349.994 170.826Z" fill="#E5A346"/>
<path d="M351.278 180.579C359.228 164.937 350.17 160.153 347.341 159.687C341.867 158.785 336.504 161.349 333.335 165.945C329.769 171.118 329.213 177.838 325.557 182.952C321.81 188.192 319.883 189.327 314.717 192.534C310.019 195.453 308.525 199.176 310.701 204.452C312.295 208.315 311.681 212.23 309.382 216.487C306.23 222.319 300.091 225.086 298.018 231.984C295.309 241.003 300.488 249.75 308.108 254.105C316.052 258.643 328.421 259.277 334.551 251.273C344.127 238.773 336.743 232.986 335.23 230.474C332.016 225.137 331.202 221.384 333.009 218.844C338.563 211.024 333.032 204.837 335.957 197.082C339.132 188.68 347.124 188.758 351.278 180.579Z" fill="#E5A346"/>
<path d="M375.71 199.013C375.584 199.013 375.461 198.961 375.37 198.864C372.894 196.149 368.782 195.118 365.371 196.362C365.135 196.446 364.866 196.327 364.779 196.087C364.692 195.848 364.815 195.583 365.054 195.496C368.866 194.106 373.285 195.211 376.049 198.244C376.221 198.431 376.208 198.725 376.02 198.897C375.933 198.974 375.823 199.013 375.71 199.013Z" fill="#B44822"/>
<path d="M379.324 199.589C379.292 199.589 379.256 199.586 379.224 199.58C378.975 199.525 378.816 199.279 378.871 199.03C379.521 196.063 379.243 193.91 378.021 192.445C375.629 189.578 369.813 189.788 364.682 189.966C361.795 190.07 359.066 190.166 357.042 189.746C351.769 188.65 347.392 184.849 346.144 180.288C345.09 176.418 346.37 172.597 349.749 169.526C349.936 169.355 350.23 169.368 350.402 169.559C350.573 169.746 350.56 170.04 350.369 170.212C347.259 173.037 346.076 176.531 347.033 180.045C348.19 184.283 352.287 187.816 357.227 188.844C359.144 189.242 361.814 189.148 364.646 189.048C369.99 188.857 376.046 188.644 378.726 191.857C380.142 193.554 380.485 195.969 379.77 199.231C379.728 199.444 379.534 199.589 379.324 199.589Z" fill="#B44822"/>
<path d="M397.278 255.905C397.21 255.905 397.145 255.888 397.081 255.859C392.205 253.538 387.605 247.471 388.339 241.335C388.662 238.623 389.981 236.082 391.258 233.622C393.068 230.131 394.779 226.834 393.854 223.136C392.845 219.098 389.541 216.625 386.347 214.236C381.624 210.703 377.162 207.367 381.132 199.657C381.249 199.431 381.527 199.341 381.753 199.457C381.979 199.573 382.07 199.851 381.953 200.078C378.342 207.092 382.309 210.06 386.9 213.493C390.223 215.979 393.66 218.549 394.753 222.906C395.765 226.944 393.893 230.551 392.082 234.043C390.844 236.428 389.564 238.895 389.26 241.442C388.574 247.164 392.9 252.84 397.481 255.022C397.711 255.132 397.808 255.407 397.698 255.636C397.614 255.808 397.449 255.905 397.278 255.905Z" fill="#B44822"/>
<path d="M399.738 256.149C399.631 256.149 399.524 256.114 399.437 256.036C393.553 250.968 396.977 245.136 400.284 239.492C402.26 236.127 404.303 232.645 404.222 229.458C404.09 224.276 400.818 222.052 397.349 219.699C394.714 217.911 391.992 216.062 390.698 212.829C390.605 212.593 390.721 212.325 390.957 212.228C391.193 212.134 391.462 212.248 391.559 212.487C392.745 215.458 395.234 217.145 397.869 218.936C401.377 221.318 405.004 223.781 405.147 229.435C405.234 232.888 403.123 236.482 401.083 239.961C397.821 245.521 394.74 250.774 400.042 255.338C400.233 255.506 400.255 255.797 400.09 255.988C399.996 256.094 399.867 256.149 399.738 256.149Z" fill="#B44822"/>
<path d="M398.014 209.182C397.975 209.182 397.933 209.175 397.891 209.166C397.231 208.985 396.468 208.816 395.66 208.639C392.527 207.953 388.628 207.103 386.973 204.446C385.473 202.038 386.32 199.788 387.141 197.612C387.536 196.568 387.943 195.485 388.076 194.406C388.467 191.228 387.907 188.829 386.369 187.068C383.003 183.224 375.338 183.137 368.574 183.062C364.426 183.017 360.511 182.972 357.792 182.112C357.55 182.034 357.414 181.776 357.492 181.533C357.569 181.291 357.825 181.155 358.07 181.233C360.657 182.054 364.507 182.096 368.584 182.141C375.541 182.219 383.427 182.306 387.064 186.463C388.761 188.403 389.411 191.115 388.994 194.519C388.848 195.708 388.422 196.843 388.008 197.939C387.232 199.995 386.501 201.938 387.759 203.958C389.207 206.285 392.896 207.09 395.861 207.737C396.682 207.915 397.458 208.086 398.143 208.273C398.389 208.341 398.531 208.597 398.463 208.842C398.402 209.046 398.217 209.182 398.014 209.182Z" fill="#B44822"/>
<path d="M325.466 224.674C325.305 224.674 325.146 224.59 325.062 224.438C324.939 224.215 325.017 223.933 325.24 223.811C330.27 220.995 332.188 216.702 331.101 210.693C330.765 208.844 329.863 207.027 328.99 205.272C328.069 203.419 327.199 201.671 326.921 199.857C326.058 194.219 330.587 191.53 334.968 188.928C339.109 186.468 343.021 184.144 342.468 179.518C342.439 179.266 342.62 179.036 342.873 179.004C343.122 178.971 343.354 179.156 343.387 179.408C344.011 184.632 339.656 187.221 335.44 189.723C331.134 192.283 327.063 194.698 327.833 199.718C328.088 201.393 328.929 203.077 329.815 204.864C330.717 206.678 331.648 208.553 332.007 210.531C333.174 216.977 331.108 221.587 325.689 224.619C325.621 224.654 325.544 224.674 325.466 224.674Z" fill="#B44822"/>
<path d="M317.655 254.676C315.99 254.676 314.17 254.253 312.246 253.403C312.013 253.299 311.907 253.028 312.01 252.795C312.114 252.562 312.385 252.459 312.618 252.559C316.808 254.414 320.435 254.088 322.834 251.644C325.838 248.58 326.365 242.809 324.085 237.925C323.549 236.774 322.87 235.685 322.214 234.628C320.591 232.016 318.913 229.317 319.52 225.796C320.154 222.147 322.986 216.435 327.302 215.164C327.545 215.09 327.804 215.232 327.875 215.478C327.946 215.724 327.807 215.979 327.561 216.05C324.034 217.088 321.114 221.998 320.429 225.955C319.879 229.132 321.392 231.566 322.996 234.143C323.665 235.223 324.36 236.338 324.92 237.537C327.357 242.758 326.756 248.964 323.491 252.294C321.939 253.875 319.944 254.676 317.655 254.676Z" fill="#B44822"/>
<path d="M317.842 254.425C317.587 254.425 317.38 254.218 317.38 253.963C317.38 253.707 317.587 253.5 317.842 253.5C323.299 253.497 327.489 251.525 329.643 247.95C331.828 244.323 331.592 239.423 328.993 234.506C328.873 234.279 328.96 234.001 329.187 233.882C329.413 233.762 329.691 233.85 329.811 234.073C332.562 239.283 332.791 244.514 330.435 248.425C328.104 252.295 323.632 254.422 317.842 254.425Z" fill="#B44822"/>
<path d="M310.465 243.605C310.329 243.605 310.193 243.543 310.103 243.427C306.372 238.652 305.99 230.959 309.243 225.909C309.999 224.733 311.244 223.498 312.56 222.189C314.845 219.919 317.435 217.346 317.584 214.818C317.668 213.399 316.953 212.119 316.197 210.765C315.359 209.265 314.493 207.716 314.616 205.825C314.868 202.056 318.285 197.834 321.318 196.26C321.544 196.14 321.825 196.231 321.942 196.457C322.058 196.683 321.971 196.961 321.745 197.078C318.99 198.51 315.764 202.479 315.537 205.887C315.431 207.503 316.194 208.87 317.002 210.315C317.791 211.725 318.609 213.186 318.505 214.873C318.334 217.75 315.612 220.456 313.209 222.842C311.929 224.115 310.72 225.314 310.015 226.407C307.015 231.069 307.381 238.445 310.827 242.855C310.985 243.055 310.95 243.346 310.746 243.501C310.665 243.572 310.565 243.605 310.465 243.605Z" fill="#B44822"/>
<path d="M309.974 250.244C309.903 250.244 309.831 250.228 309.767 250.193C305.742 248.153 303.569 245.437 303.314 242.127C302.851 236.228 308.723 229.779 313.889 226.048C314.096 225.9 314.384 225.945 314.532 226.152C314.681 226.359 314.636 226.646 314.429 226.795C309.456 230.386 303.802 236.535 304.235 242.053C304.468 245.02 306.469 247.484 310.187 249.368C310.413 249.485 310.507 249.763 310.391 249.989C310.304 250.154 310.142 250.244 309.974 250.244Z" fill="#B44822"/>
<path d="M363.341 179.675C363.328 179.675 363.312 179.675 363.299 179.672C358.766 179.258 355.103 177.093 353.745 174.018C352.95 172.221 352.585 169.312 355.349 165.656C355.504 165.452 355.792 165.413 355.995 165.565C356.199 165.72 356.238 166.008 356.086 166.212C354.111 168.824 353.593 171.393 354.589 173.643C355.814 176.41 359.183 178.369 363.383 178.751C363.638 178.773 363.822 179 363.8 179.252C363.777 179.494 363.577 179.675 363.341 179.675Z" fill="#B44822"/>
<path d="M406.938 247.987C405.499 247.987 403.999 247.573 402.467 246.746C402.244 246.623 402.159 246.345 402.279 246.122C402.402 245.899 402.68 245.815 402.903 245.934C405.868 247.538 408.577 247.447 410.96 245.666C415.298 242.421 417.335 234.31 416.255 229.225C415.062 223.607 410.998 219.738 407.067 215.994C406.149 215.121 405.202 214.216 404.3 213.305C399.059 207.984 399.327 204.913 401.342 198.105C402.069 195.658 402.897 192.189 401.713 190.289C401.277 189.59 400.604 189.173 399.657 189.012C399.405 188.97 399.237 188.731 399.279 188.478C399.321 188.226 399.557 188.058 399.809 188.1C401.018 188.304 401.92 188.876 402.496 189.801C403.876 192.015 403.003 195.752 402.227 198.367C400.242 205.058 400.019 207.644 404.956 212.655C405.845 213.56 406.789 214.456 407.704 215.325C411.736 219.165 415.906 223.135 417.161 229.035C418.302 234.401 416.262 242.854 411.516 246.403C410.106 247.46 408.564 247.987 406.938 247.987Z" fill="#B44822"/>
<path d="M256.22 333.142C255.137 333.142 254.17 332.376 253.957 331.271C253.714 330.019 254.535 328.81 255.786 328.568C261.066 327.55 262.171 322.507 262.168 318.457C262.168 317.183 263.2 316.148 264.473 316.148C265.747 316.148 266.782 317.18 266.782 318.453C266.785 326.522 263.096 331.859 256.659 333.1C256.511 333.129 256.365 333.142 256.22 333.142Z" fill="#F18E7F"/>
<path d="M268.412 339.028C268.412 345.37 264.914 350.513 260.595 350.513C256.279 350.513 252.777 345.37 252.777 339.028C252.777 332.685 256.275 327.539 260.595 327.539C264.914 327.542 268.412 332.685 268.412 339.028Z" fill="#F18E7F"/>
<path d="M663.262 593.06C663.262 610.148 526.617 623.999 358.059 623.999C189.497 623.999 52.8516 610.148 52.8516 593.06C52.8516 575.973 189.497 562.121 358.059 562.121C526.617 562.121 663.262 575.973 663.262 593.06Z" fill="#A9ABAE" fill-opacity="0.5"/>
<path d="M627.945 364.93H88.1689V582.322H627.945V364.93Z" fill="#4E9FCA"/>
<path d="M627.945 369.016H88.1689V375.63H627.945V369.016Z" fill="#052F5F"/>
<path d="M639.283 354.371H76.834V368.578H639.283V354.371Z" fill="#052F5F"/>
<path d="M435.309 451.02H280.808V496.227H435.309V451.02Z" fill="#052F5F"/>
<path d="M292.119 463.031H300.379C302.355 463.031 304.097 463.406 305.614 464.159C307.13 464.913 308.307 465.973 309.147 467.34C309.988 468.708 310.408 470.301 310.408 472.118C310.408 473.935 309.988 475.528 309.147 476.896C308.307 478.263 307.13 479.324 305.614 480.077C304.097 480.83 302.355 481.208 300.379 481.208H292.119V463.031ZM300.169 477.759C301.989 477.759 303.438 477.251 304.521 476.24C305.604 475.228 306.144 473.854 306.144 472.125C306.144 470.392 305.604 469.021 304.521 468.006C303.438 466.994 301.989 466.487 300.169 466.487H296.325V477.759H300.169Z" fill="white"/>
<path d="M327.653 477.837V481.215H313.573V463.035H327.313V466.41H317.754V470.357H326.195V473.632H317.754V477.84H327.653V477.837Z" fill="white"/>
<path d="M331.005 463.031H335.214V477.785H344.331V481.211H331.005V463.031Z" fill="white"/>
<path d="M346.692 463.031H350.902V481.211H346.692V463.031Z" fill="white"/>
<path d="M372.592 463.031L364.72 481.211H360.562L352.719 463.031H357.264L362.796 476.017L368.405 463.031H372.592Z" fill="white"/>
<path d="M388.178 477.837V481.215H374.099V463.035H387.839V466.41H378.279V470.357H386.72V473.632H378.279V477.84H388.178V477.837Z" fill="white"/>
<path d="M403.111 481.215L399.603 476.15H399.396H395.733V481.215H391.523V463.035H399.396C401.006 463.035 402.403 463.303 403.589 463.84C404.776 464.377 405.69 465.14 406.331 466.126C406.971 467.111 407.291 468.282 407.291 469.633C407.291 470.984 406.967 472.148 406.318 473.127C405.668 474.107 404.746 474.854 403.553 475.374L407.63 481.218H403.111V481.215ZM402.047 467.28C401.387 466.733 400.427 466.462 399.163 466.462H395.736V472.801H399.163C400.427 472.801 401.387 472.523 402.047 471.97C402.703 471.417 403.033 470.638 403.033 469.633C403.033 468.608 402.703 467.826 402.047 467.28Z" fill="white"/>
<path d="M419.087 474.772V481.215H414.881V474.72L407.843 463.031H412.311L417.17 471.109L422.029 463.031H426.161L419.087 474.772Z" fill="white"/>
<path d="M627.945 132.262H455.28V354.37H627.945V132.262Z" fill="#4E9FCA"/>
<path d="M249.498 132.262H76.834V354.37H249.498V132.262Z" fill="#4E9FCA"/>
<path d="M450.377 333.329C450.147 333.329 449.914 333.294 449.685 333.223C443.429 331.257 440.371 325.536 441.292 317.522C441.438 316.255 442.592 315.346 443.849 315.492C445.117 315.637 446.025 316.782 445.876 318.049C445.414 322.073 445.938 327.21 451.069 328.82C452.284 329.201 452.96 330.498 452.578 331.713C452.268 332.699 451.359 333.329 450.377 333.329Z" fill="#F18E7F"/>
<path d="M437.335 337.779C436.614 344.083 439.504 349.588 443.794 350.079C448.085 350.571 452.145 345.858 452.866 339.554C453.587 333.25 450.694 327.745 446.403 327.254C442.116 326.763 438.056 331.476 437.335 337.779Z" fill="#F18E7F"/>
<path d="M627.945 200.344H455.28V207.142H627.945V200.344Z" fill="#7BC5B6"/>
<path d="M627.945 276.668H455.28V283.466H627.945V276.668Z" fill="#55B9A1"/>
<path d="M621.518 150.188H591.5V200.344H621.518V150.188Z" fill="white"/>
<path d="M617.765 200.344H599.004L614.011 150.188H617.765V200.344Z" fill="#F2944C"/>
<path d="M621.519 200.344H602.758L617.765 150.188H621.519V200.344Z" fill="#EF7F3C"/>
<path d="M621.518 200.344H606.507L621.518 150.188V200.344Z" fill="#B44822"/>
<path d="M575.41 160.838C577.799 156.959 584.366 144.555 584.239 136.609H554.351V200.346H567.645C560.881 187.109 567.36 173.917 575.41 160.838Z" fill="white"/>
<path d="M584.243 136.609C584.366 144.555 577.8 156.959 575.411 160.838C567.36 173.92 560.878 187.109 567.645 200.346H584.243V136.609Z" fill="#9CCB90"/>
<path d="M538.11 168.801C529.332 185.025 517.403 196.756 507.293 200.348H546.105V150.188H545.83C544.094 156.181 541.517 162.504 538.11 168.801Z" fill="#7BC5B6"/>
<path d="M545.174 150.188C543.089 156.181 539.995 162.504 535.902 168.801C525.899 184.198 512.492 195.534 500.775 199.721V200.348H507.293C517.403 196.756 529.332 185.025 538.11 168.801C541.517 162.504 544.094 156.181 545.834 150.188H545.174Z" fill="#ACD299"/>
<path d="M535.902 168.801C539.995 162.504 543.089 156.181 545.174 150.188H500.775V199.721C512.492 195.534 525.896 184.198 535.902 168.801Z" fill="white"/>
<path d="M491.068 150.188H461.053V200.344H491.068V150.188Z" fill="white"/>
<path d="M491.069 150.188L473.109 175.266L491.069 200.344V150.188Z" fill="#FCC551"/>
<path d="M491.068 159.984L480.121 175.268L491.068 190.555V159.984Z" fill="#F6A841"/>
<path d="M621.518 304.211H591.5V354.368H621.518V304.211Z" fill="#FCC551"/>
<path d="M621.518 304.211H591.5L621.518 354.368V304.211Z" fill="#F6A841"/>
<path d="M618.653 216.102H528.091V276.664H618.653V216.102Z" fill="white"/>
<path d="M582.837 229.93L566.565 246.384L582.837 262.841V229.93Z" fill="#EF7F3C"/>
<path d="M600.745 222.852L577.478 246.385L600.745 269.918V222.852Z" fill="#F2944C"/>
<path d="M618.652 215.773L588.385 246.383L618.652 276.996V215.773Z" fill="#F6A841"/>
<path d="M564.613 271.603C562.328 271.603 561.397 268.102 560.407 264.398C559.664 261.608 558.736 258.133 557.43 258.133C556.124 258.133 555.196 261.605 554.452 264.398C553.463 268.102 552.532 271.603 550.246 271.603C547.96 271.603 547.029 268.102 546.04 264.398C545.296 261.608 544.368 258.136 543.062 258.136C541.756 258.136 540.828 261.608 540.088 264.398C539.099 268.102 538.168 271.603 535.882 271.603V270.33C537.188 270.33 538.113 266.858 538.856 264.068C539.846 260.36 540.777 256.859 543.062 256.859C545.348 256.859 546.282 260.36 547.268 264.068C548.012 266.858 548.937 270.33 550.243 270.33C551.549 270.33 552.474 266.858 553.217 264.068C554.206 260.36 555.138 256.859 557.423 256.859C559.709 256.859 560.643 260.36 561.633 264.068C562.376 266.858 563.304 270.33 564.61 270.33C565.92 270.33 566.844 266.858 567.588 264.068C568.577 260.364 569.511 256.863 571.797 256.863V258.136C570.491 258.136 569.563 261.608 568.82 264.398C567.834 268.106 566.899 271.603 564.613 271.603Z" fill="#EF7F3C"/>
<path d="M518.394 222.855H464.574V276.668H518.394V222.855Z" fill="white"/>
<mask id="mask0_1036_32991" style="mask-type:luminance" maskUnits="userSpaceOnUse" x="464" y="222" width="55" height="55">
<path d="M518.395 222.859H464.575V276.672H518.395V222.859Z" fill="white"/>
</mask>
<g mask="url(#mask0_1036_32991)">
<path d="M547.465 249.763C547.465 234.04 534.721 221.297 518.999 221.297C503.277 221.297 490.529 234.04 490.529 249.763C490.529 265.483 503.277 278.229 518.999 278.229C534.721 278.229 547.465 265.486 547.465 249.763Z" fill="#F6A841"/>
</g>
<mask id="mask1_1036_32991" style="mask-type:luminance" maskUnits="userSpaceOnUse" x="464" y="222" width="55" height="55">
<path d="M518.395 222.859H464.575V276.672H518.395V222.859Z" fill="white"/>
</mask>
<g mask="url(#mask1_1036_32991)">
<path d="M519 270.617C507.503 270.617 498.15 261.265 498.15 249.773C498.15 238.278 507.503 228.926 519 228.926C530.493 228.926 539.846 238.278 539.846 249.773C539.846 261.265 530.497 270.617 519 270.617ZM519 230.196C508.205 230.196 499.424 238.976 499.424 249.77C499.424 260.563 508.205 269.343 519 269.343C529.792 269.343 538.573 260.563 538.573 249.77C538.576 238.976 529.795 230.196 519 230.196Z" fill="#B44822"/>
<path d="M519 265.969C510.064 265.969 502.793 258.699 502.793 249.767C502.793 240.833 510.064 233.562 519 233.562C527.936 233.562 535.204 240.833 535.204 249.767C535.204 258.702 527.936 265.969 519 265.969ZM519 234.836C510.765 234.836 504.067 241.534 504.067 249.767C504.067 258.001 510.765 264.699 519 264.699C527.231 264.699 533.93 258.001 533.93 249.767C533.933 241.534 527.234 234.836 519 234.836Z" fill="#B44822"/>
<path d="M518.999 261.333C512.624 261.333 507.435 256.145 507.435 249.77C507.435 243.392 512.624 238.207 518.999 238.207C525.374 238.207 530.563 243.395 530.563 249.77C530.563 256.145 525.374 261.333 518.999 261.333ZM518.999 239.481C513.325 239.481 508.708 244.097 508.708 249.773C508.708 255.446 513.325 260.063 518.999 260.063C524.673 260.063 529.29 255.446 529.29 249.773C529.29 244.097 524.673 239.481 518.999 239.481Z" fill="#B44822"/>
<path d="M525.286 249.772C525.286 246.301 522.473 243.488 519.001 243.488C515.529 243.488 512.713 246.301 512.713 249.772C512.713 253.244 515.529 256.057 519.001 256.057C522.473 256.057 525.286 253.244 525.286 249.772Z" fill="#B44822"/>
</g>
<path d="M554.29 289.391V354.369H554.293C554.293 338.791 584.308 321.817 584.308 289.391H554.29Z" fill="white"/>
<path d="M554.294 354.369H584.309V289.391C584.306 321.817 554.294 338.791 554.294 354.369Z" fill="#55B9A1"/>
<path d="M519.099 343.51C511.088 345.291 498.127 349.099 497.723 353.893V354.226C497.726 354.274 497.719 354.323 497.723 354.368H548.881V326.219C545.587 334.775 534.899 339.996 519.099 343.51Z" fill="#C2DBA4"/>
<path d="M497.724 300.312V353.893C498.128 349.099 511.089 345.291 519.1 343.51C534.903 339.996 545.588 334.775 548.882 326.222V300.312H497.724Z" fill="white"/>
<path d="M532.747 335.07C538.34 340.663 537.903 350.167 537.903 350.167C537.903 350.167 528.398 350.603 522.805 345.011C517.212 339.418 517.649 329.914 517.649 329.914C517.649 329.914 527.154 329.475 532.747 335.07Z" fill="#55B9A1"/>
<path d="M544.935 335.847C544.935 343.757 537.907 350.167 537.907 350.167C537.907 350.167 530.878 343.757 530.878 335.847C530.878 327.937 537.907 321.523 537.907 321.523C537.907 321.523 544.935 327.937 544.935 335.847Z" fill="#9CCB90"/>
<path d="M491.068 304.211H461.053V354.368H491.068V304.211Z" fill="white"/>
<path d="M474.647 333.886H480.121L491.068 304.211H485.594L474.647 333.886Z" fill="#F6A841"/>
<path d="M474.647 344.124H480.121L491.068 314.449H485.594L474.647 344.124Z" fill="#55B9A1"/>
<path d="M474.647 354.367H480.121L491.068 324.691H485.594L474.647 354.367Z" fill="#C2DBA4"/>
<path d="M249.499 200.344H76.835V207.142H249.499V200.344Z" fill="#7BC5B6"/>
<path d="M249.499 276.668H76.835V283.466H249.499V276.668Z" fill="#55B9A1"/>
<path d="M243.068 150.188H213.05V200.344H243.068V150.188Z" fill="white"/>
<path d="M239.318 200.344H220.557L235.564 150.188H239.318V200.344Z" fill="#F2944C"/>
<path d="M243.069 200.344H224.308L239.318 150.188H243.069V200.344Z" fill="#EF7F3C"/>
<path d="M243.068 200.344H228.061L243.068 150.188V200.344Z" fill="#B44822"/>
<path d="M196.966 160.838C199.352 156.959 205.918 144.555 205.795 136.609H175.906V200.346H189.2C182.437 187.109 188.919 173.917 196.966 160.838Z" fill="white"/>
<path d="M205.799 136.609C205.922 144.555 199.352 156.959 196.966 160.838C188.916 173.92 182.434 187.109 189.201 200.346H205.799V136.609Z" fill="#9CCB90"/>
<path d="M159.665 168.801C150.888 185.025 138.958 196.756 128.849 200.348H167.661V150.188H167.386C165.65 156.181 163.073 162.504 159.665 168.801Z" fill="#7BC5B6"/>
<path d="M166.729 150.188C164.64 156.181 161.549 162.504 157.457 168.801C147.454 184.198 134.046 195.534 122.33 199.721V200.348H128.848C138.957 196.756 150.887 185.025 159.665 168.801C163.072 162.504 165.649 156.181 167.385 150.188H166.729Z" fill="#ACD299"/>
<path d="M157.457 168.801C161.549 162.504 164.643 156.181 166.729 150.188H122.33V199.721C134.043 195.534 147.45 184.198 157.457 168.801Z" fill="white"/>
<path d="M112.622 150.188H82.6064V200.344H112.622V150.188Z" fill="white"/>
<path d="M112.626 150.188L94.6631 175.266L112.626 200.344V150.188Z" fill="#FCC551"/>
<path d="M112.626 159.984L101.679 175.268L112.626 190.555V159.984Z" fill="#F6A841"/>
<path d="M243.068 304.211H213.05V354.368H243.068V304.211Z" fill="#FCC551"/>
<path d="M243.068 304.211H213.05L243.068 354.368V304.211Z" fill="#F6A841"/>
<path d="M240.211 216.102H149.646V276.664H240.211V216.102Z" fill="#55B9A1"/>
<path d="M204.394 229.93L188.122 246.384L204.394 262.841V229.93Z" fill="#7BC5B6"/>
<path d="M222.302 222.852L199.034 246.385L222.302 269.918V222.852Z" fill="#AEDEF8"/>
<path d="M240.209 215.773L209.941 246.383L240.209 276.996V215.773Z" fill="#7BC5B6"/>
<path d="M139.947 222.855H86.1279V276.668H139.947V222.855Z" fill="#F6A841"/>
<mask id="mask2_1036_32991" style="mask-type:luminance" maskUnits="userSpaceOnUse" x="86" y="222" width="54" height="55">
<path d="M139.949 222.859H86.1299V276.672H139.949V222.859Z" fill="white"/>
</mask>
<g mask="url(#mask2_1036_32991)">
<path d="M169.023 249.763C169.023 234.04 156.279 221.297 140.554 221.297C124.832 221.297 112.084 234.04 112.084 249.763C112.084 265.483 124.832 278.229 140.554 278.229C156.279 278.229 169.023 265.486 169.023 249.763Z" fill="#F6A841"/>
</g>
<mask id="mask3_1036_32991" style="mask-type:luminance" maskUnits="userSpaceOnUse" x="86" y="222" width="54" height="55">
<path d="M139.949 222.859H86.1299V276.672H139.949V222.859Z" fill="white"/>
</mask>
<g mask="url(#mask3_1036_32991)">
<path d="M140.557 270.617C129.06 270.617 119.707 261.265 119.707 249.773C119.707 238.278 129.06 228.926 140.557 228.926C152.053 228.926 161.403 238.278 161.403 249.773C161.403 261.265 152.05 270.617 140.557 270.617ZM140.557 230.196C129.762 230.196 120.981 238.976 120.981 249.77C120.981 260.563 129.762 269.343 140.557 269.343C151.352 269.343 160.129 260.563 160.129 249.77C160.129 238.976 151.348 230.196 140.557 230.196Z" fill="#B44822"/>
<path d="M140.557 265.969C131.621 265.969 124.35 258.699 124.35 249.767C124.35 240.833 131.621 233.562 140.557 233.562C149.493 233.562 156.76 240.833 156.76 249.767C156.76 258.702 149.493 265.969 140.557 265.969ZM140.557 234.836C132.322 234.836 125.623 241.534 125.623 249.767C125.623 258.001 132.322 264.699 140.557 264.699C148.791 264.699 155.487 258.001 155.487 249.767C155.487 241.534 148.788 234.836 140.557 234.836Z" fill="#B44822"/>
<path d="M140.557 261.333C134.181 261.333 128.992 256.145 128.992 249.77C128.992 243.392 134.181 238.207 140.557 238.207C146.932 238.207 152.121 243.395 152.121 249.77C152.121 256.145 146.932 261.333 140.557 261.333ZM140.557 239.481C134.883 239.481 130.266 244.097 130.266 249.773C130.266 255.446 134.883 260.063 140.557 260.063C146.23 260.063 150.847 255.446 150.847 249.773C150.847 244.097 146.23 239.481 140.557 239.481Z" fill="#B44822"/>
<path d="M146.842 249.772C146.842 246.301 144.03 243.488 140.557 243.488C137.085 243.488 134.272 246.301 134.272 249.772C134.272 253.244 137.088 256.057 140.557 256.057C144.03 256.057 146.842 253.244 146.842 249.772Z" fill="#B44822"/>
</g>
<path d="M175.845 289.391V354.369H175.848C175.848 338.791 205.863 321.817 205.863 289.391H175.845Z" fill="white"/>
<path d="M175.849 354.369H205.864V289.391C205.86 321.817 175.849 338.791 175.849 354.369Z" fill="#55B9A1"/>
<path d="M140.656 343.51C132.641 345.291 119.68 349.099 119.276 353.893V354.226C119.276 354.274 119.273 354.323 119.276 354.368H170.435V326.219C167.143 334.775 156.455 339.996 140.656 343.51Z" fill="#C2DBA4"/>
<path d="M119.278 300.312V353.893C119.682 349.099 132.644 345.291 140.658 343.51C156.458 339.996 167.143 334.775 170.44 326.222V300.312H119.278Z" fill="white"/>
<path d="M154.301 335.07C159.894 340.663 159.458 350.167 159.458 350.167C159.458 350.167 149.953 350.603 144.36 345.011C138.767 339.418 139.203 329.914 139.203 329.914C139.203 329.914 148.708 329.475 154.301 335.07Z" fill="#55B9A1"/>
<path d="M166.49 335.847C166.49 343.757 159.458 350.167 159.458 350.167C159.458 350.167 152.426 343.757 152.43 335.847C152.43 327.937 159.458 321.523 159.458 321.523C159.458 321.523 166.49 327.937 166.49 335.847Z" fill="#9CCB90"/>
<path d="M112.622 304.211H82.6064V354.368H112.622V304.211Z" fill="white"/>
<path d="M96.2041 333.886H101.678L112.624 304.211H107.151L96.2041 333.886Z" fill="#F6A841"/>
<path d="M96.2041 344.124H101.678L112.624 314.449H107.151L96.2041 344.124Z" fill="#55B9A1"/>
<path d="M96.2041 354.367H101.678L112.624 324.691H107.151L96.2041 354.367Z" fill="#C2DBA4"/>
<path d="M286.879 314.164H261.335V354.377H286.879V314.164Z" fill="#F4FAFF"/>
<path d="M302.827 314.164H277.283V354.377H302.827V314.164Z" fill="#2C6764"/>
<path d="M286.879 314.164H277.283V354.377H286.879V314.164Z" fill="#449996"/>
<path d="M269.112 317.047H264.476V345.361H269.112V317.047Z" fill="#449996"/>
<path d="M279.856 317.102C277.736 317.102 276.016 318.821 276.016 320.942C276.016 321.834 276.326 322.655 276.837 323.308L282.223 317.919C281.57 317.409 280.752 317.102 279.856 317.102Z" fill="#DEE0E2"/>
<path d="M282.222 317.922L276.836 323.311C277.027 323.553 277.243 323.773 277.486 323.964L282.875 318.575C282.684 318.332 282.465 318.116 282.222 317.922Z" fill="#D4D5D7"/>
<path d="M277.486 323.959C278.139 324.473 278.961 324.78 279.856 324.78C281.977 324.78 283.697 323.06 283.697 320.94C283.697 320.044 283.387 319.223 282.876 318.57L277.486 323.959Z" fill="#DEE0E2"/>
<path d="M281.967 318.179C281.378 317.729 280.651 317.461 279.856 317.461C277.935 317.461 276.377 319.019 276.377 320.942C276.377 321.738 276.645 322.468 277.095 323.053L281.967 318.179Z" fill="white"/>
<path d="M282.617 318.828L277.745 323.7C278.33 324.149 279.061 324.417 279.856 324.417C281.78 324.417 283.338 322.859 283.338 320.939C283.335 320.147 283.067 319.416 282.617 318.828Z" fill="white"/>
<path d="M277.398 325.418C275.278 325.418 273.558 327.134 273.558 329.258C273.558 330.154 273.868 330.972 274.376 331.625L279.765 326.239C279.112 325.725 278.291 325.418 277.398 325.418Z" fill="#DEE0E2"/>
<path d="M279.764 326.238L274.375 331.624C274.566 331.866 274.786 332.086 275.028 332.277L280.414 326.891C280.227 326.649 280.007 326.432 279.764 326.238Z" fill="#D4D5D7"/>
<path d="M275.029 332.28C275.682 332.794 276.503 333.101 277.396 333.101C279.517 333.101 281.237 331.381 281.237 329.261C281.237 328.365 280.929 327.544 280.415 326.895L275.029 332.28Z" fill="#DEE0E2"/>
<path d="M279.51 326.494C278.925 326.045 278.194 325.773 277.399 325.773C275.475 325.773 273.917 327.332 273.917 329.255C273.917 330.05 274.189 330.781 274.638 331.366L279.51 326.494Z" fill="white"/>
<path d="M280.159 327.145L275.287 332.019C275.872 332.469 276.603 332.737 277.398 332.737C279.322 332.737 280.88 331.179 280.88 329.255C280.877 328.463 280.609 327.733 280.159 327.145Z" fill="white"/>
<path d="M268.86 347.105H264.476V351.495H268.86V347.105Z" fill="#2C6764"/>
<path d="M284.597 349.668H270.204V351.494H284.597V349.668Z" fill="#2C6764"/>
<path d="M314.214 314.164H297.114V354.377H314.214V314.164Z" fill="#55B9A1"/>
<path d="M308.332 314.164H291.236V354.377H308.332V314.164Z" fill="#F4FAFF"/>
<path d="M298.443 316.957H293.577V339.711H298.443V316.957Z" fill="#7BC5B6"/>
<path d="M302.558 337.608C303.246 337.088 304.171 337.104 304.834 337.589C304.362 337.531 303.722 337.738 303.136 338.181L300.446 340.211L301.782 341.979L304.472 339.949C305.057 339.509 305.429 338.95 305.503 338.478C305.784 339.247 305.548 340.143 304.86 340.66L302.263 342.619L302.354 342.738L305.154 340.624C306.062 339.939 306.243 338.646 305.558 337.738C304.872 336.829 303.579 336.648 302.671 337.334L299.871 339.448L299.962 339.567L302.558 337.608Z" fill="#7BC5B6"/>
<path d="M299.554 344.85L302.357 342.736L302.267 342.616L299.671 344.575C298.982 345.093 298.057 345.076 297.395 344.595C297.87 344.65 298.51 344.443 299.092 344.003L301.782 341.973L300.447 340.205L297.757 342.235C297.175 342.675 296.8 343.237 296.725 343.706C296.444 342.937 296.68 342.041 297.369 341.524L299.965 339.565L299.874 339.445L297.075 341.556C296.169 342.245 295.988 343.535 296.674 344.443C297.356 345.358 298.646 345.539 299.554 344.85Z" fill="#FFE495"/>
<path d="M299.092 344.007C298.507 344.447 297.87 344.654 297.395 344.599C298.057 345.081 298.982 345.097 299.671 344.579L302.267 342.621L301.782 341.98L299.092 344.007Z" fill="#FFD862"/>
<path d="M304.863 340.659C305.552 340.138 305.788 339.246 305.506 338.477C305.429 338.949 305.057 339.508 304.475 339.947L301.785 341.977L302.27 342.618L304.863 340.659Z" fill="#55B9A1"/>
<path d="M304.834 337.589C304.171 337.107 303.247 337.088 302.558 337.608L299.962 339.567L300.444 340.207L303.133 338.177C303.722 337.741 304.362 337.534 304.834 337.589Z" fill="white"/>
<path d="M297.366 341.525C296.677 342.046 296.441 342.938 296.722 343.707C296.797 343.239 297.169 342.676 297.754 342.237L300.444 340.206L299.962 339.566L297.366 341.525Z" fill="white"/>
<path d="M296.28 348.709C295.42 348.803 294.634 348.314 294.314 347.561C294.689 347.852 295.349 348.004 296.073 347.923L299.422 347.555L299.18 345.35L295.83 345.719C295.103 345.799 294.495 346.087 294.191 346.452C294.34 345.648 295.006 345.001 295.863 344.907L299.096 344.555L299.079 344.406L295.591 344.788C294.459 344.911 293.642 345.929 293.768 347.06C293.894 348.192 294.909 349.009 296.04 348.887L299.529 348.505L299.513 348.356L296.28 348.709Z" fill="#7BC5B6"/>
<path d="M302.568 344.024L299.079 344.405L299.095 344.554L302.328 344.199C303.185 344.105 303.971 344.593 304.297 345.346C303.916 345.055 303.263 344.903 302.532 344.984L299.183 345.349L299.425 347.554L302.774 347.189C303.502 347.108 304.11 346.817 304.417 346.455C304.262 347.26 303.602 347.906 302.745 348L299.512 348.356L299.529 348.504L303.014 348.123C304.145 348 304.963 346.982 304.84 345.85C304.718 344.716 303.699 343.901 302.568 344.024Z" fill="#FFE495"/>
<path d="M302.532 344.985C303.26 344.907 303.916 345.056 304.298 345.347C303.971 344.593 303.189 344.105 302.329 344.199L299.096 344.555L299.183 345.35L302.532 344.985Z" fill="white"/>
<path d="M295.863 344.911C295.006 345.005 294.34 345.651 294.191 346.456C294.495 346.091 295.106 345.803 295.83 345.722L299.18 345.354L299.093 344.559L295.863 344.911Z" fill="white"/>
<path d="M294.314 347.561C294.635 348.314 295.42 348.802 296.28 348.709L299.513 348.353L299.426 347.555L296.076 347.923C295.349 348.001 294.693 347.849 294.314 347.561Z" fill="#55B9A1"/>
<path d="M302.745 347.998C303.605 347.905 304.265 347.258 304.417 346.453C304.106 346.815 303.502 347.106 302.774 347.187L299.425 347.552L299.512 348.351L302.745 347.998Z" fill="#FFD862"/>
<path d="M306.095 350.391H293.677V351.574H306.095V350.391Z" fill="#7BC5B6"/>
<path d="M348.926 308.719H319.057V354.376H348.926V308.719Z" fill="#E77E49"/>
<path d="M340.995 308.719H311.126V354.376H340.995V308.719Z" fill="#F4FAFF"/>
<path d="M340.995 308.719V354.376L311.126 308.719H340.995Z" fill="#F2944C"/>
<path d="M334.513 330.601C334.009 330.365 334.028 329.343 334.51 328.862C335.008 328.345 335.234 327.368 335.017 326.686L333.54 320.664C333.32 319.982 332.961 319.982 332.745 320.664L331.267 326.686C331.047 327.368 331.277 328.348 331.775 328.862C332.257 329.343 332.383 330.3 331.771 330.601C330.595 331.18 329.731 332.324 329.731 333.717V349.715C329.731 350.43 330.317 351.018 331.034 351.018H335.26C335.974 351.018 336.563 350.433 336.563 349.715V333.717C336.556 332.321 335.703 331.154 334.513 330.601Z" fill="#F3C252"/>
<path d="M331.992 326.871L332.884 321.156C332.855 321.211 332.829 321.279 332.803 321.353L331.552 326.681C331.365 327.259 331.559 328.09 331.982 328.53L332.218 328.775C331.972 328.261 331.872 327.453 331.992 326.871Z" fill="white"/>
<path d="M334.733 326.677L333.479 321.35C333.456 321.272 333.427 321.207 333.401 321.152L334.29 326.868C334.413 327.449 334.31 328.261 334.067 328.772L334.307 328.526C334.724 328.089 334.918 327.259 334.733 326.677Z" fill="#E5A344"/>
<path d="M331.51 349.281V333.716C331.51 333.713 331.51 333.71 331.51 333.706C331.51 332.756 331.775 331.706 332.182 331.023C331.08 331.418 330.291 332.472 330.291 333.706C330.291 333.71 330.291 333.713 330.291 333.716V349.281C330.291 349.996 330.876 350.581 331.591 350.581H332.25C331.843 350.581 331.51 349.996 331.51 349.281Z" fill="white"/>
<path d="M335.991 333.706C335.991 332.468 335.202 331.418 334.1 331.023C334.507 331.709 334.775 332.756 334.775 333.706C334.775 333.71 334.775 333.713 334.775 333.716V349.281C334.775 349.996 334.439 350.581 334.028 350.581H334.688C335.406 350.581 335.991 349.996 335.991 349.281V333.716C335.991 333.713 335.991 333.71 335.991 333.706Z" fill="#E5A344"/>
<path d="M333.934 329.215C333.691 329.318 333.42 329.373 333.138 329.373C332.86 329.373 332.599 329.318 332.356 329.218C332.489 329.606 332.508 330.081 332.35 330.391C332.605 330.33 332.867 330.298 333.138 330.298C333.42 330.298 333.688 330.33 333.947 330.395C333.811 330.101 333.811 329.609 333.934 329.215Z" fill="#E5A344"/>
<path d="M336.964 312.07H315.161V318.83H336.964V312.07Z" fill="#B44822"/>
<path d="M322.914 342.691H315.161V347.967H322.914V342.691Z" fill="#F2944C"/>
<path d="M328.517 349.176H315.161V351.015H328.517V349.176Z" fill="#F2944C"/>
<path d="M428.312 285.957H359.89V354.368H428.312V285.957Z" fill="#449996"/>
<path d="M412.011 285.957H343.592V354.368H412.011V285.957Z" fill="#F4FAFF"/>
<path d="M375.589 339.717C373.662 337.775 370.2 338.056 367.419 338.279C366.763 338.331 366.136 338.382 365.567 338.402C365.133 338.418 364.678 338.437 364.209 338.46C359.961 338.657 354.672 338.903 351.552 335.757C349.631 333.821 349.757 331.852 350.2 330.54C351.096 327.896 354.274 325.41 357.284 324.996L357.371 325.636C354.581 326.018 351.636 328.31 350.811 330.747C350.259 332.379 350.672 333.957 352.007 335.302C354.927 338.243 360.054 338.004 364.177 337.813C364.649 337.791 365.108 337.771 365.544 337.755C366.107 337.736 366.721 337.684 367.367 337.632C370.284 337.396 373.911 337.105 376.048 339.258L375.589 339.717Z" fill="#5BAEA5"/>
<path d="M373.877 342.546C377.194 342.546 379.881 340.871 379.881 338.806C379.881 336.74 377.194 335.062 373.877 335.062C370.563 335.062 367.87 336.737 367.87 338.806C367.87 340.871 370.56 342.546 373.877 342.546Z" fill="#48A4A1"/>
<path d="M372.677 340.773C374.904 340.773 376.705 339.649 376.705 338.262C376.705 336.875 374.901 335.75 372.677 335.75C370.452 335.75 368.648 336.875 368.648 338.262C368.648 339.649 370.449 340.773 372.677 340.773Z" fill="#55B5AF"/>
<path d="M374.715 331.476V331.256C374.715 330.041 374.964 328.082 375.271 326.905L379.39 311.027C379.694 309.85 378.95 308.887 377.735 308.887H361.997C360.781 308.887 359.536 309.85 359.229 311.027L355.11 326.905C354.807 328.082 354.558 330.041 354.558 331.256V331.476C354.558 332.692 355.553 333.687 356.769 333.687H376.93C375.711 333.687 374.715 332.692 374.715 331.476Z" fill="#5BAEA5"/>
<path d="M384.615 326.905L380.496 311.027C380.192 309.85 378.944 308.887 377.732 308.887C378.947 308.887 379.691 309.85 379.387 311.027L375.268 326.905C374.964 328.082 374.712 330.041 374.712 331.256V331.476C374.712 332.692 375.708 333.687 376.923 333.687H382.956C384.172 333.687 385.168 332.692 385.168 331.476V331.256C385.171 330.041 384.919 328.085 384.615 326.905Z" fill="#449996"/>
<path d="M375.27 326.905C374.966 328.082 373.718 329.045 372.503 329.045H356.764C355.549 329.045 354.805 328.082 355.106 326.905L359.225 311.027C359.532 309.85 360.773 308.887 361.992 308.887H377.73C378.946 308.887 379.689 309.85 379.386 311.027L375.27 326.905Z" fill="#D4EBEA"/>
<path d="M373.94 324.731C373.594 326.062 372.184 327.155 370.807 327.155H359.443C358.066 327.155 357.219 326.066 357.568 324.731L360.555 313.21C360.901 311.875 362.311 310.785 363.688 310.785H375.049C376.426 310.785 377.27 311.875 376.924 313.21L373.94 324.731Z" fill="#C9E6E9"/>
<path d="M371.028 319.765C370.911 320.208 370.442 320.573 369.983 320.573H363.685C363.226 320.573 362.945 320.208 363.061 319.765L364.801 313.054C364.917 312.611 365.386 312.246 365.845 312.246H372.14C372.599 312.246 372.877 312.608 372.764 313.054L371.028 319.765Z" fill="#48A4A1"/>
<path d="M367.814 323.86C367.549 324.872 366.517 325.693 365.506 325.693C364.494 325.693 363.886 324.872 364.148 323.86C364.41 322.848 365.441 322.027 366.456 322.027C367.465 322.027 368.076 322.848 367.814 323.86Z" fill="#005D66"/>
<path d="M405.385 335.332C405.385 334.013 400.335 332.943 394.101 332.943C387.868 332.943 382.818 334.013 382.818 335.332V309.92C382.818 308.601 387.868 307.531 394.101 307.531C400.331 307.531 405.385 308.601 405.385 309.92V335.332Z" fill="#7EBEA9"/>
<path d="M394.102 312.027C389.725 312.027 386.175 311.273 386.175 310.349C386.175 309.421 389.725 308.668 394.102 308.668C398.483 308.668 402.033 309.421 402.033 310.349C402.033 311.273 398.483 312.027 394.102 312.027Z" fill="#48A4A1"/>
<path d="M388.629 314.204C388.629 313.451 389.579 312.937 390.798 312.95C395.276 313.015 404.267 312.717 405.288 310.219C404.59 311.395 399.854 312.307 394.105 312.307C387.872 312.307 382.822 311.237 382.822 309.918V335.329C382.822 336.231 385.179 337.014 388.655 337.424C388.648 337.376 388.632 337.327 388.632 337.279C388.629 333.409 388.629 318.074 388.629 314.204Z" fill="#99CEAD"/>
<path d="M405.386 335.329V309.918C405.386 310.021 405.347 310.122 405.289 310.219C404.267 312.717 395.276 313.015 390.798 312.95C389.579 312.934 388.629 313.451 388.629 314.204C388.629 318.074 388.629 333.409 388.629 337.279C388.629 337.327 388.645 337.376 388.652 337.424C390.268 337.612 392.127 337.721 394.102 337.721C400.332 337.721 405.386 336.652 405.386 335.329Z" fill="#7EBEA9"/>
<path d="M405.384 335.544C405.384 338.279 396.338 339.536 391.967 339.814C390.846 339.885 389.973 339.245 389.973 338.492C389.973 334.623 389.973 319.287 389.973 315.418C389.973 314.665 390.846 314.08 391.967 314.009C396.335 313.731 405.384 312.683 405.384 309.738V335.544Z" fill="#99CEAD"/>
<path d="M392.269 336.393C392.269 333.49 392.269 319.118 392.269 316.215C393.478 316.37 394.726 316.37 395.935 316.215C395.935 319.118 395.935 333.49 395.935 336.393C394.726 336.548 393.478 336.548 392.269 336.393Z" fill="#D4EBEA"/>
<path d="M350.22 314.64H350.217C350.042 314.637 349.9 314.491 349.903 314.317C349.949 311.252 351.766 302.983 355.086 300.869C355.994 300.294 356.938 300.216 357.892 300.646C358.642 300.985 359.098 302.007 359.576 303.09C360.165 304.412 360.769 305.776 361.856 305.867C363.333 305.963 364.892 301.147 366.033 297.614C366.767 295.341 367.4 293.379 367.986 292.606C368.092 292.467 368.293 292.438 368.432 292.545C368.574 292.652 368.6 292.852 368.493 292.991C367.973 293.676 367.326 295.684 366.637 297.808C365.257 302.084 363.828 306.503 361.904 306.503C361.869 306.503 361.836 306.503 361.801 306.5C360.339 306.381 359.622 304.771 358.991 303.348C358.581 302.424 358.154 301.464 357.624 301.225C356.867 300.882 356.143 300.943 355.419 301.402C352.522 303.245 350.579 310.922 350.531 314.32C350.537 314.501 350.395 314.64 350.22 314.64Z" fill="#449996"/>
<path d="M358.916 300.552C358.916 301.615 358.053 302.478 356.989 302.478C355.926 302.478 355.062 301.615 355.062 300.552C355.062 299.488 355.926 298.625 356.989 298.625C358.053 298.625 358.916 299.485 358.916 300.552Z" fill="#EF7F3C"/>
<path d="M370.171 293.138C370.171 294.201 369.308 295.064 368.244 295.064C367.181 295.064 366.317 294.201 366.317 293.138C366.317 292.074 367.181 291.211 368.244 291.211C369.308 291.214 370.171 292.074 370.171 293.138Z" fill="#EF7F3C"/>
<path d="M402.003 291.109H374.688V303.461H402.003V291.109Z" fill="#449996"/>
<path d="M404.631 345.559H351.002V349.215H404.631V345.559Z" fill="#449996"/>
<path d="M450.051 285.766H420.754V354.374H450.051V285.766Z" fill="#1487C9"/>
<path d="M443.84 285.766H414.543V354.374H443.84V285.766Z" fill="#119ED9"/>
<path d="M428.238 344.613V313.648L426.075 312.962V311.453H426.392V311.133H422.942V311.453H423.259V312.962L421.119 313.648V344.613H419.163V345.046H421.119H428.238H430.191V344.613H428.238Z" fill="white"/>
<path d="M425.807 290.289H423.524L423.317 290.506V308.295H425.8H426.014V290.506L425.807 290.289Z" fill="white"/>
<path d="M424.838 304.461V291.211L424.518 293.225V304.461H424.838Z" fill="#119ED9"/>
<path d="M425.452 304.461L426.095 311.133H423.26L423.906 304.461H425.452Z" fill="#81CFF4"/>
<path d="M423.905 304.458C424.329 304.035 425.021 304.035 425.444 304.458H423.905Z" fill="#81CFF4"/>
<path d="M426.392 308.293H422.942V308.616H426.392V308.293Z" fill="white"/>
<path d="M425.642 313.305H423.689L421.549 313.993V319.026H421.759H427.595H427.805V313.993L425.642 313.305Z" fill="#119ED9"/>
<path d="M424.249 319.027H422.942V349.032H424.249V319.027Z" fill="#81CFF4"/>
<path d="M426.414 319.027H425.111V349.032H426.414V319.027Z" fill="#81CFF4"/>
<path d="M425.111 319.027H424.248V349.032H425.111V319.027Z" fill="#D3ECFB"/>
<path d="M428.238 349.039H421.119V349.847H428.238V349.039Z" fill="#81CFF4"/>
<path d="M439.221 341.25H431.588V349.849H439.221V341.25Z" fill="white"/>
<path d="M439.221 290.289H431.588V336.981H439.221V290.289Z" fill="#81CFF4"/>
<path d="M445.213 335.378C443.691 335.378 442.245 335.255 441.02 335.152C439.75 335.045 438.809 333.927 438.915 332.656C439.022 331.386 440.154 330.451 441.411 330.552C444.363 330.804 448.404 331.146 450.748 329.524C451.796 328.8 453.234 329.058 453.958 330.106C454.686 331.153 454.424 332.591 453.377 333.316C450.987 334.974 447.974 335.378 445.213 335.378Z" fill="#F5AE8B"/>
<path d="M441.269 341.593C440.095 341.593 439.093 340.704 438.973 339.514C438.847 338.247 439.772 337.115 441.043 336.989C445.86 336.511 449.325 335.302 451.346 333.401C452.274 332.528 453.735 332.57 454.608 333.498C455.481 334.426 455.439 335.887 454.511 336.76C451.731 339.378 447.353 341.001 441.498 341.583C441.421 341.589 441.346 341.593 441.269 341.593Z" fill="#F5AE8B"/>
<path d="M444.36 347.419C443.297 347.419 442.34 346.679 442.107 345.596C441.839 344.352 442.631 343.123 443.879 342.855C446.908 342.205 450.06 340.081 451.541 337.693C452.213 336.61 453.636 336.277 454.719 336.949C455.802 337.621 456.135 339.044 455.462 340.127C453.306 343.602 449.139 346.446 444.849 347.368C444.687 347.403 444.522 347.419 444.36 347.419Z" fill="#F5AE8B"/>
<path d="M448.333 350.768C447.422 350.768 446.558 350.225 446.193 349.329C445.714 348.149 446.284 346.801 447.464 346.323C448.618 345.854 449.827 344.154 450.157 342.534C450.412 341.286 451.631 340.482 452.879 340.734C454.127 340.989 454.932 342.208 454.68 343.456C454.153 346.038 452.213 349.374 449.2 350.596C448.918 350.713 448.624 350.768 448.333 350.768Z" fill="#F5AE8B"/>
<path d="M122.088 279.268C122.088 283.218 118.855 286.451 114.905 286.451H67.7452C63.7945 286.451 60.5615 283.218 60.5615 279.268V247.21C60.5615 243.26 63.7945 240.027 67.7452 240.027H114.905C118.855 240.027 122.088 243.26 122.088 247.21V279.268Z" fill="#4E9FCA"/>
<path d="M97.6117 363.103C97.6117 366.067 95.187 368.491 92.2223 368.491H60.9011C57.9364 368.491 55.5117 366.067 55.5117 363.103V306.115C55.5117 303.151 57.9364 300.727 60.9011 300.727H92.2223C95.187 300.727 97.6117 303.151 97.6117 306.115V363.103Z" fill="#4E9FCA"/>
<path d="M228.693 297.86C210.262 302.557 187.221 301.968 174.955 299.166C173.732 281.522 175.042 263.581 177.147 246.281L144.881 243.391C143.349 263.669 145.26 295.122 154.154 315.332C160.29 329.277 210.055 318.885 229.696 309.681L228.693 297.86Z" fill="#F18E7F"/>
<path d="M244.089 314.483C243.649 315.279 242.605 315.566 241.768 315.12L222.198 304.76C221.361 304.317 221.034 303.299 221.474 302.503L244.541 260.674C244.981 259.879 246.025 259.588 246.863 260.034L266.432 270.397C267.269 270.84 267.593 271.859 267.156 272.654L244.089 314.483Z" fill="#424853"/>
<path d="M224.319 302.543C223.521 302.119 223.207 301.146 223.627 300.387L243.914 263.597C244.335 262.837 245.334 262.559 246.132 262.986L264.311 272.612C265.113 273.036 265.427 274.009 265.006 274.772L244.716 311.565C244.296 312.325 243.297 312.603 242.495 312.176L224.319 302.543Z" fill="white"/>
<path d="M254.136 288.192C253.561 289.236 249.917 291.182 249.917 291.182C249.917 291.182 249.584 287.131 250.16 286.084C250.735 285.04 252.093 284.665 253.189 285.247C254.288 285.829 254.712 287.147 254.136 288.192Z" fill="#E73861"/>
<path d="M253.431 287.817C253.063 288.493 252.187 288.735 251.479 288.357C250.767 287.985 250.496 287.132 250.868 286.456C251.239 285.781 252.116 285.541 252.824 285.913C253.532 286.291 253.806 287.142 253.431 287.817Z" fill="white"/>
<path d="M253.519 273.129L243.953 268.067L244.81 266.516L254.376 271.581L253.519 273.129Z" fill="#4E9FCA"/>
<path d="M245.084 288.434L235.515 283.369L236.371 281.82L245.935 286.886L245.084 288.434Z" fill="#4E9FCA"/>
<path d="M251.511 276.771L241.948 271.706L243.477 268.926L253.044 273.994L251.511 276.771Z" fill="#4E9FCA"/>
<path d="M259.161 280.824L253.7 277.93L256.565 272.742L262.022 275.632L259.161 280.824Z" fill="#4E9FCA"/>
<path d="M256.214 278.769C256.13 278.72 256.075 278.636 256.072 278.546L256.03 275.472C256.03 275.333 256.143 275.219 256.289 275.223C256.434 275.223 256.554 275.342 256.557 275.478L256.593 278.077L260.579 275.517C260.699 275.443 260.864 275.468 260.944 275.591C261.029 275.708 260.999 275.863 260.88 275.937L256.486 278.762C256.409 278.811 256.302 278.811 256.214 278.769Z" fill="white"/>
<path d="M230.187 590.297C230.158 587.886 227.022 584.44 223.223 582.636L194.964 570.08C188.708 570.168 188.022 569.922 181.766 570.013C175.33 575.954 173.173 584.786 176.109 591.471L230.2 591.364C230.2 591.018 230.193 590.666 230.187 590.297Z" fill="#052F5F"/>
<path d="M176.112 591.469C176.626 592.636 177.279 593.751 178.11 594.757C196.487 594.501 211.879 594.935 230.252 594.676C230.252 594.676 230.236 593.257 230.203 591.359L176.112 591.469Z" fill="#B6B7B7"/>
<path d="M197.511 370.812L141.219 386.468C148.9 416.592 160.979 442.676 174.04 469.591C160.358 490.173 157.988 530.991 175.456 576.231L202.209 573.393C191.579 504.884 211.122 458.228 197.511 370.812Z" fill="#B67D4D"/>
<path d="M180.925 593.694C180.896 591.283 177.756 587.837 173.961 586.033L145.701 573.478C139.445 573.565 138.76 573.323 132.504 573.41C126.067 579.351 123.914 588.183 126.85 594.868L180.941 594.761C180.938 594.419 180.928 594.063 180.925 593.694Z" fill="#052F5F"/>
<path d="M126.847 594.868C127.361 596.039 128.011 597.151 128.841 598.159C147.218 597.901 162.61 598.34 180.986 598.078C180.986 598.078 180.967 596.659 180.941 594.762L126.847 594.868Z" fill="#B6B7B7"/>
<path d="M185.387 388.493C185.639 385.238 185.888 381.947 186.118 378.566C186.47 376.617 186.667 374.609 186.667 372.557C186.667 354.115 171.715 339.164 153.271 339.164C134.823 339.164 119.874 354.115 119.874 372.557C119.874 375.902 120.378 379.125 121.297 382.167C136.226 386.68 162.908 390.359 185.387 388.493Z" fill="#B67D4D"/>
<path d="M121.296 382.168C122.275 385.41 123.721 388.446 125.57 391.19C126.139 392.034 126.74 392.858 127.384 393.644C127.616 423.542 132.253 451.614 136.779 481.37C125.146 513.314 121.209 542.608 129.032 576.948L157.583 578.335C167.201 513.773 178.859 468.989 185.05 392.806C185.167 391.384 185.277 389.929 185.39 388.484C162.908 390.356 136.226 386.677 121.296 382.168Z" fill="#D28D58"/>
<path d="M186.667 309.278C183.337 304.406 180.124 278.584 177.838 269.488C173.632 252.746 150.364 251.809 142.353 265.631C136.951 274.954 143.122 290.826 145.793 300.624C149.071 312.643 153.073 322.46 158.524 333.668C162.876 342.609 167.864 349.249 178.578 348.793C186.577 348.45 194.695 346.527 202.703 344.115C202.063 333.933 201.604 322.871 201.953 312.627C196.273 313.373 189.474 313.38 186.667 309.278Z" fill="#FCC551"/>
<path d="M178.581 348.795C167.867 349.251 162.879 342.611 158.527 333.67C153.076 322.463 149.074 312.649 145.796 300.627C143.122 290.829 136.954 274.953 142.356 265.634C150.367 251.808 173.632 252.749 177.841 269.49C180.127 278.587 183.344 304.409 186.67 309.28C189.473 313.382 196.276 313.376 201.959 312.632C202.059 309.717 202.221 306.869 202.467 304.127C205.276 272.71 198.306 244.829 179.377 233.334C163.858 223.911 141.593 233.735 131.141 254.122C116.376 282.912 121.988 333.774 117.452 378.681C123.495 379.757 140.917 382.485 152.032 382.702C159.921 382.854 168.31 382.705 176.128 382.136C188.639 381.225 199.661 379.24 204.72 375.684C204.685 369.219 203.547 357.426 202.709 344.124C194.698 346.529 186.58 348.453 178.581 348.795Z" fill="#FFD96F"/>
<path d="M122.089 272.275L122.241 285.357C141.956 245.331 167.777 250.471 175.627 265.493C173.681 246.019 142.858 233.49 122.089 272.275Z" fill="#052F5F"/>
<path d="M175.627 265.492C175.876 267.991 175.656 270.6 174.874 273.231C166.102 302.748 132.677 337.372 121.238 353.894L121.351 363.262C132.79 346.74 168.366 310.438 177.137 280.918C178.74 275.523 178.013 270.053 175.627 265.492Z" fill="#052F5F"/>
<path d="M166.791 247.055C160.458 247.055 155.327 241.922 155.327 235.592V208.72C155.327 202.387 160.461 197.254 166.791 197.254C173.125 197.254 178.259 202.387 178.259 208.72V235.592C178.259 241.925 173.125 247.055 166.791 247.055Z" fill="#F5AE8B"/>
<path d="M172.882 219.042C177.689 223.034 179.674 228.575 177.317 231.413C174.96 234.248 169.154 233.307 164.343 229.309C159.536 225.316 157.551 219.779 159.904 216.944C162.264 214.106 168.071 215.047 172.882 219.042Z" fill="#F18E7F"/>
<path d="M194.659 184.604C202.845 201.09 198.238 220.033 184.372 226.919C170.502 233.801 152.624 226.02 144.438 209.534C136.252 193.047 140.856 174.101 154.729 167.216C168.595 160.334 186.473 168.121 194.659 184.604Z" fill="#F5AE8B"/>
<path d="M198.289 181.116C194.403 188.499 182.095 185.848 181.035 193.112C177.737 215.711 167.21 197.857 165.274 205.176C161.562 219.186 160.538 228.302 147.285 218.875C136.287 211.056 130.846 177.996 152.122 166.485C168.122 157.825 181.82 163.524 190.294 169.087C197.048 173.516 200.643 176.648 198.289 181.116Z" fill="#B44822"/>
<path d="M186.761 170.225C202.289 165.014 216.802 162.783 219.171 165.243C221.538 167.703 210.869 173.923 195.338 179.134L186.761 170.225Z" fill="#052F5F"/>
<path d="M185.523 195.136C185.41 195.136 185.3 195.11 185.193 195.049C184.867 194.868 184.754 194.457 184.935 194.131C186.402 191.512 189.48 189.052 193.046 189.434C193.418 189.476 193.683 189.806 193.644 190.177C193.606 190.546 193.266 190.811 192.901 190.772C189.946 190.459 187.359 192.556 186.108 194.787C185.989 195.013 185.759 195.136 185.523 195.136Z" fill="#B44822"/>
<path d="M192.655 196.289C192.975 197.873 192.567 199.289 191.753 199.454C190.935 199.616 190.02 198.465 189.7 196.884C189.383 195.3 189.787 193.884 190.602 193.723C191.42 193.558 192.338 194.705 192.655 196.289Z" fill="#B44822"/>
<path d="M187.397 209.909C188.765 215.534 194.487 213.459 196.333 209.793L187.397 209.909Z" fill="white"/>
<path d="M196.221 194.941C196.221 194.941 203.023 200.773 201.726 202.667C199.952 205.26 196.563 204.781 196.563 204.781L196.221 194.941Z" fill="#F5AE8B"/>
<path d="M135.835 199.096C129.667 180.719 137.992 161.353 154.422 155.841C170.852 150.329 189.17 160.755 195.338 179.132L135.835 199.096Z" fill="#4E9FCA"/>
<path d="M171.602 219.716L171.217 219.49C168.676 217.999 166.342 216.257 164.282 214.311C161.289 211.479 159.701 208.114 160.038 205.308C160.27 203.356 161.441 201.727 163.423 200.595C164.163 200.172 165.168 199.965 166.487 199.965C168.398 199.965 170.774 200.404 173.073 200.828C174.871 201.158 176.726 201.5 178.362 201.639L178.886 201.685L178.789 202.202C177.58 208.835 174.004 216.225 171.848 219.351L171.602 219.716ZM166.491 200.925C165.34 200.925 164.493 201.09 163.898 201.429C162.168 202.418 161.185 203.763 160.988 205.425C160.691 207.891 162.207 211.033 164.942 213.619C166.843 215.417 168.986 217.036 171.317 218.439C173.38 215.287 176.542 208.651 177.761 202.544C176.215 202.383 174.534 202.072 172.905 201.772C170.648 201.355 168.314 200.925 166.491 200.925Z" fill="white"/>
<path d="M199.819 196.427C199.619 196.256 199.321 196.279 199.147 196.479C197.323 198.574 189.693 201.655 180.664 201.742H180.489C179.868 201.742 179.173 201.709 178.368 201.642C178.123 201.609 177.903 201.787 177.857 202.033C176.674 208.527 173.176 215.755 171.068 218.81C170.994 218.92 170.968 219.056 170.997 219.185C171.023 219.314 171.107 219.427 171.22 219.495C178.507 223.765 186.742 225.602 194.556 226.946C194.582 226.953 194.611 226.953 194.637 226.953C194.785 226.953 194.924 226.885 195.015 226.769C198.878 221.781 203.563 214.081 203.954 205.708C204.122 202.033 203.531 199.592 199.819 196.427Z" fill="white"/>
<path d="M171.026 201.887C173.881 205.893 174.039 210.68 171.378 212.574C168.718 214.465 164.246 212.755 161.392 208.744C158.534 204.735 158.379 199.954 161.039 198.057C163.7 196.162 168.171 197.876 171.026 201.887Z" fill="#F5AE8B"/>
<path d="M237.186 304.715C219.617 313.889 196.201 318.638 183.172 318.573C177.954 300.487 175.225 281.496 173.45 262.992L140.189 267.485C143.219 288.956 152.252 321.266 165.798 340.245C175.148 353.34 223.096 330.945 240.865 316.792L237.186 304.715Z" fill="#F5AE8B"/>
<path d="M180.535 290.121C168.922 293.102 157.306 296.079 145.693 299.059C143.704 291.32 141.719 283.578 139.731 275.836C133.77 252.61 168.615 243.669 174.573 266.898C176.561 274.637 178.546 282.376 180.535 290.121Z" fill="#FFD96F"/>
<path d="M259.743 287.104C258.77 286.7 257.651 287.159 257.244 288.135C255.071 293.352 252.633 296.953 249.869 299.472C248.928 300.163 244.386 303.341 242.812 301.262C242.184 300.432 242.055 298.809 243.765 296.96C244.771 295.874 247.273 294.403 248.156 293.928C249.058 293.44 249.413 292.328 248.964 291.41C248.515 290.488 247.419 290.087 246.478 290.498C237.454 294.461 230.022 303.664 233.274 313.585C234.367 316.924 237.128 319.113 241.046 319.75C245.918 320.545 252.394 318.945 255.475 314.81C258.43 310.841 259.74 306.464 259.261 302.155C259.077 300.509 258.621 299.016 258.178 297.574C257.997 296.995 257.822 296.414 257.664 295.822C258.76 294.009 259.794 291.953 260.774 289.606C261.178 288.629 260.716 287.511 259.743 287.104Z" fill="#F5AE8B"/>
<path d="M122.09 369.345C122.09 372.801 119.261 375.629 115.805 375.629H70.876C67.42 375.629 64.5879 372.801 64.5879 369.345V255.577C64.5879 252.121 67.4167 249.293 70.876 249.293H115.805C119.261 249.293 122.09 252.121 122.09 255.577V369.345Z" fill="#052F5F"/>
<path d="M86.6133 362.003V355.897C86.6133 354.436 86.8913 353.149 87.4474 352.027C88.0035 350.909 88.7891 350.036 89.7978 349.415C90.8097 348.795 91.9865 348.484 93.3314 348.484C94.6764 348.484 95.8531 348.795 96.8651 349.415C97.877 350.036 98.6626 350.906 99.2187 352.027C99.7748 353.149 100.053 354.439 100.053 355.897V362.003H86.6133ZM97.5053 356.052C97.5053 354.707 97.1302 353.637 96.3801 352.835C95.6333 352.034 94.6182 351.636 93.3347 351.636C92.0544 351.636 91.0393 352.037 90.2925 352.835C89.5424 353.637 89.1706 354.707 89.1706 356.052V358.893H97.5053V356.052Z" fill="white"/>
<path d="M97.5602 335.738H100.056V346.147H86.6133V335.99H89.1091V343.057H92.0285V336.815H94.4468V343.057H97.557V335.738H97.5602Z" fill="white"/>
<path d="M86.6133 333.26V330.15H97.5214V323.41H100.056V333.26H86.6133Z" fill="white"/>
<path d="M86.6133 321.661V318.551H100.056V321.661H86.6133Z" fill="white"/>
<path d="M86.6133 302.52L100.056 308.338V311.409L86.6133 317.208V313.847L96.2152 309.757L86.6133 305.61V302.52Z" fill="white"/>
<path d="M97.5602 290.992H100.056V301.401H86.6133V291.244H89.1091V298.311H92.0285V292.069H94.4468V298.311H97.557V290.992H97.5602Z" fill="white"/>
<path d="M100.06 279.952L96.3161 282.544V282.696V285.405H100.06V288.515H86.6172V282.696C86.6172 281.507 86.8144 280.472 87.2121 279.596C87.6097 278.72 88.1723 278.045 88.9029 277.569C89.6304 277.094 90.4968 276.858 91.4958 276.858C92.4948 276.858 93.3548 277.097 94.0789 277.579C94.7999 278.061 95.3559 278.74 95.7407 279.625L100.06 276.609V279.952ZM89.7532 280.737C89.349 281.222 89.1486 281.933 89.1486 282.868V285.402H93.8365V282.868C93.8365 281.933 93.6328 281.222 93.2222 280.737C92.8116 280.253 92.2361 280.007 91.4926 280.007C90.7393 280.01 90.1573 280.253 89.7532 280.737Z" fill="white"/>
<path d="M95.2939 268.142H100.056V271.252H95.255L86.6133 276.456V273.152L92.5846 269.561L86.6133 265.97V262.918L95.2939 268.142Z" fill="white"/>
<path d="M265.117 335.995C265.095 335.995 265.072 335.995 265.049 335.995C261.597 335.895 256.375 335.746 252.981 332.772C252.024 331.932 251.927 330.474 252.764 329.517C253.601 328.557 255.063 328.463 256.02 329.304C258.163 331.182 262.217 331.298 265.179 331.386C266.452 331.421 267.455 332.485 267.419 333.758C267.387 335.006 266.362 335.995 265.117 335.995Z" fill="#F5AE8B"/>
<path d="M264.331 342.385C264.17 342.385 264.005 342.369 263.84 342.333C258.088 341.089 253.921 338.981 251.461 336.065C250.64 335.092 250.762 333.634 251.735 332.813C252.709 331.992 254.163 332.115 254.988 333.088C256.776 335.209 260.083 336.799 264.816 337.824C266.061 338.092 266.853 339.32 266.585 340.565C266.352 341.648 265.395 342.385 264.331 342.385Z" fill="#F5AE8B"/>
<path d="M260.598 347.816C260.359 347.816 260.113 347.777 259.874 347.7C256.149 346.471 252.722 343.575 251.151 340.323C250.595 339.175 251.077 337.795 252.221 337.239C253.369 336.683 254.749 337.165 255.306 338.309C256.33 340.423 258.804 342.482 261.322 343.313C262.531 343.714 263.191 345.017 262.79 346.229C262.467 347.202 261.565 347.816 260.598 347.816Z" fill="#F5AE8B"/>
<path d="M257.94 352.246C257.565 352.246 257.186 352.156 256.834 351.962C253.979 350.404 252.434 346.867 252.201 344.242C252.091 342.972 253.029 341.854 254.299 341.744C255.567 341.63 256.688 342.571 256.802 343.842C256.947 345.487 257.953 347.317 259.049 347.915C260.167 348.526 260.578 349.929 259.967 351.047C259.55 351.813 258.758 352.246 257.94 352.246Z" fill="#F5AE8B"/>
</svg>
