<svg width="710" height="624" viewBox="0 0 710 624" fill="none" xmlns="http://www.w3.org/2000/svg">
<rect width="710" height="624" fill="white"/>
<path d="M630.226 597.543C630.226 612.158 527.356 624.002 400.456 624.002C273.557 624.002 170.69 612.158 170.69 597.543C170.69 582.928 273.56 571.078 400.456 571.078C527.353 571.078 630.226 582.925 630.226 597.543Z" fill="#A9ABAE" fill-opacity="0.5"/>
<path d="M631.777 255.041C573.283 247.681 555.221 244.084 544.084 177.444C533.28 112.782 484.092 64.9269 405.461 55.6209C360.903 50.345 285.058 78.3616 250.464 152.254C204.739 148.405 146.537 164.121 105.025 192.43C60.4946 222.803 -6.32686 332.371 61.0022 376.137C105.025 404.748 167.662 370.772 212.803 396.652C253.499 419.984 253.207 477.878 279.12 512.587C382.913 651.605 613.639 503.36 680.759 403.966C726.017 336.954 725.252 266.805 631.777 255.041Z" fill="#4E9FCA" fill-opacity="0.5"/>
<mask id="mask0_1036_32992" style="mask-type:luminance" maskUnits="userSpaceOnUse" x="32" y="55" width="678" height="515">
<path d="M631.777 255.041C573.283 247.681 555.221 244.084 544.084 177.444C533.28 112.782 484.092 64.9269 405.461 55.6209C360.903 50.345 285.058 78.3616 250.464 152.254C204.739 148.405 146.537 164.121 105.025 192.43C60.4946 222.803 -6.32686 332.371 61.0022 376.137C105.025 404.748 167.662 370.772 212.803 396.652C253.499 419.984 253.207 477.878 279.12 512.587C382.913 651.605 613.639 503.36 680.759 403.966C726.017 336.954 725.252 266.805 631.777 255.041Z" fill="white"/>
</mask>
<g mask="url(#mask0_1036_32992)">
<path d="M544.084 177.449H462.956V477.065H544.084V177.449Z" fill="#4682A2"/>
<path d="M382.056 138.652H300.925V477.064H382.056V138.652Z" fill="#4682A2"/>
<path d="M668.953 286.941H535.461V477.065H668.953V286.941Z" fill="#4682A2"/>
<path d="M502.936 264.348H369.447V477.064H502.936V264.348Z" fill="#4682A2"/>
<path d="M676.287 286.82H528.132L602.208 260.332L676.287 286.82Z" fill="#4682A2"/>
<path d="M752.877 300.25H619.385V477.067H752.877V300.25Z" fill="#4682A2"/>
<path d="M760.206 300.128H612.055L686.13 273.637L760.206 300.128Z" fill="#4682A2"/>
<path d="M152.592 300.25H19.0996V477.067H152.592V300.25Z" fill="#4682A2"/>
<path d="M159.921 300.128H11.7695L85.8452 273.637L159.921 300.128Z" fill="#4682A2"/>
<path d="M334.157 286.941H200.668V477.065H334.157V286.941Z" fill="#4682A2"/>
<path d="M341.49 286.82H193.335L267.414 260.332L341.49 286.82Z" fill="#4682A2"/>
<path d="M275.756 236.418H142.264V477.062H275.756V236.418Z" fill="#4682A2"/>
<path d="M283.086 236.296H134.931L209.006 209.805L283.086 236.296Z" fill="#4682A2"/>
<path d="M478.1 228.574H394.283V302.43H478.1V228.574Z" fill="#4682A2"/>
<path d="M482.702 228.523H389.68L436.189 218.234L482.702 228.523Z" fill="#4682A2"/>
<path d="M752.876 477.062H19.0986V579.593H752.876V477.062Z" fill="#4682A2"/>
</g>
<path d="M422.006 493.251C421.471 493.251 420.929 493.149 420.408 492.935L394.118 482.104C392.06 481.256 391.11 478.971 391.991 476.999C392.876 475.027 395.267 474.12 397.318 474.964L423.612 485.799C425.669 486.644 426.62 488.932 425.735 490.901C425.073 492.37 423.581 493.251 422.006 493.251Z" fill="#383639"/>
<path d="M431.514 487.956C432.492 485.688 430.873 481.21 427.923 478.002L405.612 454.949C399.476 452.527 398.906 452.024 392.774 449.598C384.014 452.576 378.224 459.965 378.293 467.391L431.082 488.955C431.226 488.633 431.364 488.301 431.514 487.956Z" fill="#052F5F"/>
<path d="M378.293 467.391C378.303 468.686 378.475 469.988 378.859 471.266C396.89 478.386 411.717 484.957 429.742 492.071C429.742 492.071 430.318 490.736 431.083 488.951L378.293 467.391Z" fill="#D7D6D6"/>
<path d="M428.166 379.159C397.136 378.088 378.879 351.156 391.161 330.338C382.861 327.367 373.597 324.037 362.604 319.793L333.072 367.674C349.941 377.312 390.777 379.876 415.634 380.369C410.753 383.59 406.143 388.689 401.928 396.315C405.725 390.05 413.305 383.397 428.166 379.159Z" fill="#B67D4D"/>
<path d="M441.429 351.575C423.885 342.013 410.042 337.102 391.164 330.34C378.882 351.154 397.139 378.089 428.169 379.161C413.308 383.398 405.724 390.051 401.931 396.313C395.554 407.845 390.087 425.172 385.988 450.631L411.215 458.543C416 445.72 425.436 423.922 443.817 396.701C453.369 382.55 458.486 360.878 441.429 351.575Z" fill="#D28D58"/>
<path d="M476.339 377.004C473.962 377.004 472.426 376.195 471.568 375.541C469.671 374.091 468.793 371.689 469.222 369.115C469.853 365.328 473.046 361.972 477.56 360.351L511.959 347.104L511.201 345.293L516.97 343.07C518.716 342.4 520.568 342.173 522.362 342.393C523.737 340.934 524.258 338.968 523.528 337.229C523.024 336.026 521.981 335.099 520.592 334.616C519.12 334.106 517.467 334.149 515.931 334.741L510.161 336.963L508.649 333.357L514.418 331.135C516.884 330.185 519.57 330.122 521.977 330.967C524.464 331.832 526.354 333.541 527.294 335.783C528.412 338.449 527.966 341.381 526.361 343.757C527.945 344.707 529.153 346.072 529.842 347.722C531.756 352.278 529.091 357.613 523.905 359.615L481.58 375.916C479.508 376.711 477.769 377.004 476.339 377.004ZM523.387 346.644C522.763 347.045 522.084 347.393 521.353 347.676L479.025 363.974C475.214 365.338 473.537 367.836 473.225 369.726C473.026 370.916 473.345 371.928 474.096 372.504C475.259 373.391 477.433 373.322 480.067 372.306L522.392 356.005C525.503 354.809 527.157 351.739 526.08 349.168C525.606 348.037 524.656 347.15 523.387 346.644Z" fill="#F6A841"/>
<path d="M516.631 335.134C516.631 338.957 513.4 342.054 509.411 342.054C505.426 342.054 502.191 338.957 502.191 335.134C502.191 331.311 505.426 328.215 509.411 328.215C513.4 328.215 516.631 331.315 516.631 335.134Z" fill="#424853"/>
<path d="M520.321 341.441C520.887 339.623 521.233 337.739 521.24 335.902C521.254 333.144 520.729 330.175 519.083 327.858C518.157 326.556 516.819 325.245 515.447 324.37C512.71 322.625 509.136 322.431 505.915 322.414C496.308 322.362 492.566 328.216 493.753 333.321C494.36 335.928 495.341 338.459 496.912 340.685C497.882 342.055 499.049 343.278 500.482 344.218C502.489 345.543 504.79 346.204 507.352 346.204C508.982 346.204 510.717 345.937 512.552 345.402C513.622 345.089 514.226 344.005 513.9 342.976C513.574 341.95 512.442 341.368 511.369 341.684C509.122 342.341 506.186 342.193 504.457 340.51C504.001 340.067 503.614 339.495 503.346 338.929C502.568 337.286 502.434 334.689 504.619 332.782C507.785 330.011 510.662 330.813 512.521 331.974C515.299 333.709 517.025 337.042 516.596 339.596C516.232 341.036 515.697 342.45 515.035 343.752C514.545 344.715 514.96 345.878 515.968 346.348C516.963 346.809 518.194 346.408 518.678 345.454C519.323 344.192 519.885 342.834 520.321 341.441Z" fill="#F18E7F"/>
<path d="M504.742 325.811C469.212 306.798 423.632 279.432 396.992 242.682C389.724 232.649 376.759 222.814 366.274 231.617C353.308 242.497 365.883 259.571 374.9 267.306C409.833 297.291 453.187 323.293 498.5 333.657L504.742 325.811Z" fill="#F18E7F"/>
<path d="M534.419 444.105H532.988V597.538H534.419V444.105Z" fill="#C4C4C5"/>
<path d="M506.979 448.519L505.635 448.988L560.387 593.168L561.731 592.7L506.979 448.519Z" fill="#C4C4C5"/>
<path d="M482.783 461.556L481.688 462.438L584.598 579.969L585.694 579.088L482.783 461.556Z" fill="#C4C4C5"/>
<path d="M602.671 559.773L464.023 483.054L464.737 481.867L603.387 558.587L602.671 559.773Z" fill="#C4C4C5"/>
<path d="M455.014 506.861L454.766 508.211L612.43 534.863L612.678 533.513L455.014 506.861Z" fill="#C4C4C5"/>
<path d="M612.45 506.813L454.786 533.48L455.035 534.83L612.699 508.163L612.45 506.813Z" fill="#C4C4C5"/>
<path d="M602.637 481.877L464.024 558.656L464.74 559.843L603.353 483.064L602.637 481.877Z" fill="#C4C4C5"/>
<path d="M584.574 461.629L481.663 579.16L482.759 580.041L585.67 462.51L584.574 461.629Z" fill="#C4C4C5"/>
<path d="M560.358 448.505L505.619 592.691L506.963 593.16L561.702 448.974L560.358 448.505Z" fill="#C4C4C5"/>
<path d="M262.904 444.105H261.474V597.538H262.904V444.105Z" fill="#C4C4C5"/>
<path d="M235.467 448.512L234.123 448.98L288.875 593.161L290.219 592.692L235.467 448.512Z" fill="#C4C4C5"/>
<path d="M211.28 461.56L210.185 462.441L313.093 579.97L314.189 579.089L211.28 461.56Z" fill="#C4C4C5"/>
<path d="M193.199 481.86L192.484 483.047L331.129 559.765L331.844 558.577L193.199 481.86Z" fill="#C4C4C5"/>
<path d="M183.49 506.861L183.241 508.211L340.905 534.863L341.154 533.513L183.49 506.861Z" fill="#C4C4C5"/>
<path d="M340.9 506.853L183.235 533.535L183.484 534.885L341.148 508.203L340.9 506.853Z" fill="#C4C4C5"/>
<path d="M331.151 481.746L192.586 558.602L193.302 559.788L331.867 482.932L331.151 481.746Z" fill="#C4C4C5"/>
<path d="M313.069 461.613L210.174 579.16L211.27 580.041L314.164 462.494L313.069 461.613Z" fill="#C4C4C5"/>
<path d="M288.84 448.432L234.214 592.664L235.558 593.132L290.185 448.899L288.84 448.432Z" fill="#C4C4C5"/>
<path d="M262.19 434.414C212.395 434.414 172.028 473.101 172.028 520.824C172.028 568.551 212.395 607.237 262.19 607.237C311.989 607.237 352.356 568.551 352.356 520.824C352.356 473.101 311.989 434.414 262.19 434.414ZM262.19 594.167C219.927 594.167 185.666 561.329 185.666 520.824C185.666 480.319 219.93 447.484 262.19 447.484C304.454 447.484 338.718 480.319 338.718 520.824C338.718 561.329 304.454 594.167 262.19 594.167Z" fill="#424853"/>
<path d="M385.969 543.964L262.111 530.345L262.273 528.984L386.13 542.603L385.969 543.964Z" fill="#383639"/>
<path d="M385.962 497.717L262.099 511.023L262.258 512.386L386.121 499.079L385.962 497.717Z" fill="#383639"/>
<path d="M272.329 520.823C272.329 526.194 267.795 530.54 262.19 530.54C256.592 530.54 252.055 526.194 252.055 520.823C252.055 515.462 256.592 511.109 262.19 511.109C267.795 511.106 272.329 515.458 272.329 520.823Z" fill="#424853"/>
<path d="M392.328 522.764H262.231C261.11 522.764 260.204 521.897 260.204 520.822C260.204 519.75 261.11 518.879 262.231 518.879H392.328C393.449 518.879 394.355 519.747 394.355 520.822C394.355 521.897 393.446 522.764 392.328 522.764Z" fill="#F6A841"/>
<path d="M262.186 524.709C261.311 524.709 260.427 524.436 259.682 523.877C257.923 522.546 257.617 520.107 259 518.42L346.198 412.166C347.584 410.479 350.132 410.19 351.895 411.515C353.655 412.843 353.96 415.285 352.578 416.968L265.376 523.226C264.58 524.202 263.39 524.709 262.186 524.709Z" fill="#F6A841"/>
<path d="M395.349 523.417L388.548 522.227L345.612 415.973L349.392 410.684H491.569L494.59 417.163L395.349 523.417ZM355.312 418.455L393.72 513.51L482.5 418.455H355.312Z" fill="#F6A841"/>
<path d="M378.244 362.166C378.244 364.931 374.732 368.136 370.434 369.28L314.564 384.213C310.267 385.364 305.698 382.957 304.402 378.862L299.891 364.576C298.598 360.486 301.191 357.137 305.653 357.137H370.132C374.595 357.14 378.244 359.402 378.244 362.166Z" fill="#052F5F"/>
<path d="M533.701 434.414C483.906 434.414 443.539 473.101 443.539 520.824C443.539 568.551 483.906 607.237 533.701 607.237C583.5 607.237 623.866 568.551 623.866 520.824C623.866 473.101 583.5 434.414 533.701 434.414ZM533.701 594.167C491.438 594.167 457.176 561.329 457.176 520.824C457.176 480.319 491.441 447.484 533.701 447.484C575.968 447.484 610.229 480.319 610.229 520.824C610.233 561.329 575.968 594.167 533.701 594.167Z" fill="#424853"/>
<path d="M615.512 508.315C614.086 508.315 612.816 507.352 612.532 505.965C608.388 485.788 596.298 468.36 578.48 456.897C560.661 445.435 539.259 441.309 518.199 445.28C516.542 445.589 514.954 444.56 514.628 442.983C514.306 441.405 515.38 439.87 517.026 439.561C539.674 435.287 562.705 439.728 581.868 452.055C601.035 464.389 614.044 483.132 618.5 504.837C618.826 506.419 617.752 507.95 616.102 508.259C615.903 508.299 615.708 508.315 615.512 508.315Z" fill="#606169"/>
<path d="M533.674 603.653C493.232 603.653 457.005 576.245 448.911 536.805C448.585 535.227 449.659 533.695 451.308 533.383C452.965 533.074 454.556 534.1 454.879 535.681C463.43 577.336 505.734 604.557 549.212 596.365C550.868 596.05 552.46 597.085 552.782 598.663C553.105 600.244 552.034 601.776 550.385 602.085C544.777 603.147 539.186 603.653 533.674 603.653Z" fill="#606169"/>
<path d="M636.862 521.335C636.303 521.335 635.85 520.901 635.847 520.365C635.813 512.91 634.897 505.484 633.13 498.288C633 497.766 633.34 497.246 633.885 497.121C634.434 496.993 634.976 497.322 635.103 497.845C636.907 505.182 637.84 512.755 637.877 520.359C637.877 520.894 637.425 521.332 636.866 521.335C636.862 521.335 636.862 521.335 636.862 521.335Z" fill="#FFD96F"/>
<path d="M632.355 492.801C631.92 492.801 631.518 492.531 631.385 492.114C626.226 475.977 616.557 461.25 603.417 449.528C603.006 449.164 602.985 448.549 603.366 448.158C603.746 447.763 604.391 447.743 604.799 448.108C618.2 460.061 628.065 475.083 633.326 491.545C633.491 492.061 633.189 492.603 632.654 492.761C632.551 492.788 632.451 492.801 632.355 492.801Z" fill="#FFD96F"/>
<path d="M598.307 444.981C598.084 444.981 597.861 444.909 597.672 444.764C579.374 430.679 556.671 422.931 533.691 422.931C533.536 422.931 533.42 422.957 533.228 422.931C532.672 422.931 532.216 422.5 532.216 421.965C532.212 421.429 532.665 420.992 533.224 420.988C533.379 420.988 533.536 420.988 533.694 420.988C557.134 420.988 580.289 428.884 598.945 443.249C599.38 443.584 599.452 444.199 599.099 444.616C598.893 444.853 598.602 444.981 598.307 444.981Z" fill="#FFD96F"/>
<path d="M446.27 574.133C445.93 574.133 445.601 573.968 445.409 573.673C435.112 557.825 429.624 539.713 429.535 521.285C429.532 520.749 429.984 520.312 430.544 520.309H430.547C431.103 520.309 431.559 520.739 431.559 521.275C431.648 539.341 437.033 557.105 447.127 572.647C447.422 573.101 447.278 573.699 446.805 573.985C446.637 574.083 446.451 574.133 446.27 574.133Z" fill="#FFD96F"/>
<path d="M470.441 599.892C470.225 599.892 470.005 599.823 469.82 599.685C461.814 593.719 454.759 586.635 448.846 578.631C448.52 578.19 448.633 577.585 449.086 577.276C449.542 576.967 450.177 577.069 450.499 577.506C456.296 585.356 463.214 592.299 471.061 598.15C471.504 598.478 471.583 599.09 471.24 599.511C471.044 599.76 470.746 599.892 470.441 599.892Z" fill="#FFD96F"/>
<path d="M159.032 521.335C158.466 521.331 158.017 520.894 158.017 520.358C158.054 512.755 158.987 505.182 160.788 497.845C160.915 497.325 161.46 496.993 162.006 497.121C162.551 497.246 162.887 497.766 162.76 498.288C160.994 505.484 160.081 512.91 160.044 520.365C160.044 520.904 159.591 521.335 159.032 521.335Z" fill="#FFD96F"/>
<path d="M163.539 492.799C163.443 492.799 163.34 492.786 163.24 492.756C162.705 492.598 162.407 492.056 162.568 491.54C167.83 475.078 177.694 460.055 191.095 448.103C191.503 447.738 192.144 447.761 192.525 448.153C192.909 448.547 192.885 449.158 192.473 449.523C179.333 461.242 169.665 475.972 164.506 492.109C164.376 492.529 163.974 492.799 163.539 492.799Z" fill="#FFD96F"/>
<path d="M197.591 444.981C197.296 444.981 197.001 444.856 196.798 444.616C196.449 444.199 196.517 443.584 196.953 443.249C215.608 428.884 238.767 420.988 262.203 420.988C262.361 420.988 262.516 420.988 262.673 420.988C263.232 420.992 263.685 421.429 263.682 421.965C263.678 422.5 263.226 422.931 262.666 422.931C262.536 422.938 262.358 422.931 262.203 422.931C239.223 422.931 216.52 430.676 198.222 444.764C198.037 444.906 197.814 444.981 197.591 444.981Z" fill="#FFD96F"/>
<path d="M325.454 599.891C325.152 599.891 324.854 599.759 324.652 599.513C324.309 599.092 324.388 598.481 324.83 598.152C332.678 592.301 339.596 585.358 345.392 577.509C345.715 577.068 346.349 576.966 346.805 577.279C347.262 577.588 347.371 578.192 347.046 578.633C341.136 586.637 334.077 593.721 326.072 599.687C325.89 599.825 325.667 599.891 325.454 599.891Z" fill="#FFD96F"/>
<path d="M262.2 603.692C251.238 603.692 240.272 601.667 229.801 597.61C228.243 597.009 227.492 595.309 228.12 593.817C228.748 592.328 230.521 591.601 232.078 592.206C251.975 599.918 273.81 599.737 293.563 591.703C313.319 583.673 328.623 568.746 336.666 549.68C337.297 548.188 339.064 547.464 340.628 548.069C342.185 548.671 342.936 550.374 342.305 551.863C333.655 572.375 317.188 588.429 295.94 597.071C285.087 601.482 273.645 603.692 262.2 603.692Z" fill="#606169"/>
<path d="M184.886 493.794C184.509 493.794 184.121 493.725 183.747 493.581C182.19 492.979 181.439 491.28 182.07 489.787C199.926 447.448 250.397 426.92 294.575 444.04C296.132 444.641 296.883 446.341 296.255 447.833C295.628 449.325 293.861 450.045 292.294 449.444C251.234 433.537 204.31 452.612 187.709 491.973C187.229 493.104 186.09 493.794 184.886 493.794Z" fill="#606169"/>
<path d="M543.841 520.823C543.841 526.194 539.303 530.54 533.702 530.54C528.101 530.54 523.566 526.194 523.566 520.823C523.566 515.455 528.101 511.109 533.702 511.109C539.306 511.106 543.841 515.455 543.841 520.823Z" fill="#424853"/>
<path d="M533.708 524.709C532.083 524.709 530.546 523.766 529.925 522.227L469.909 373.647C469.099 371.645 470.138 369.397 472.227 368.621C474.323 367.849 476.666 368.845 477.472 370.84L537.492 519.42C538.301 521.422 537.262 523.674 535.173 524.45C534.689 524.624 534.192 524.709 533.708 524.709Z" fill="#F6A841"/>
<path d="M336.855 372.787L329.29 375.594L388.539 522.287L396.104 519.48L336.855 372.787Z" fill="#F6A841"/>
<path d="M408.328 483.765L375.07 557.434L376.383 557.978L409.641 484.31L408.328 483.765Z" fill="#383639"/>
<path d="M392.325 497.574C378.927 497.574 368.068 507.981 368.068 520.821C368.068 533.664 378.931 544.071 392.325 544.071C405.722 544.071 416.584 533.661 416.584 520.821C416.584 507.981 405.725 497.574 392.325 497.574ZM392.325 539.104C381.788 539.104 373.248 530.916 373.248 520.818C373.248 510.72 381.788 502.535 392.325 502.535C402.861 502.535 411.402 510.72 411.402 520.818C411.405 530.919 402.861 539.104 392.325 539.104Z" fill="#424853"/>
<path d="M393.042 499.863H391.611V541.785H393.042V499.863Z" fill="#383639"/>
<path d="M373.716 509.758L373.001 510.945L410.884 531.908L411.599 530.721L373.716 509.758Z" fill="#383639"/>
<path d="M410.978 509.757L373.106 530.738L373.821 531.922L411.692 510.941L410.978 509.757Z" fill="#383639"/>
<path d="M398.601 520.82C398.601 524.147 395.792 526.836 392.325 526.836C388.86 526.836 386.048 524.147 386.048 520.82C386.048 517.497 388.857 514.805 392.325 514.805C395.792 514.805 398.601 517.497 398.601 520.82Z" fill="#424853"/>
<path d="M387.628 561.673C387.542 561.673 387.457 561.673 387.371 561.666L358.806 559.954C356.57 559.819 354.872 557.975 355.013 555.832C355.15 553.688 357.109 552.055 359.311 552.196L387.875 553.909C390.108 554.047 391.809 555.891 391.668 558.031C391.538 560.092 389.751 561.673 387.628 561.673Z" fill="#383639"/>
<path d="M519.183 347.076C519.183 350.895 515.949 353.995 511.963 353.995C507.974 353.995 504.743 350.899 504.743 347.076C504.743 343.253 507.978 340.156 511.963 340.156C515.952 340.156 519.183 343.253 519.183 347.076Z" fill="#424853"/>
<path d="M480.908 372.24C480.908 376.063 477.677 379.16 473.688 379.16C469.702 379.16 466.468 376.063 466.468 372.24C466.468 368.417 469.699 365.324 473.688 365.324C477.673 365.321 480.908 368.417 480.908 372.24Z" fill="#424853"/>
<path d="M406.898 553.571C407.021 551.125 403.927 547.424 400.024 545.356L370.928 530.834C364.298 530.528 363.588 530.232 356.958 529.93C349.752 535.557 346.888 544.38 349.56 551.352L406.843 554.656C406.86 554.304 406.877 553.946 406.898 553.571Z" fill="#052F5F"/>
<path d="M349.557 551.352C350.023 552.571 350.641 553.741 351.453 554.816C370.928 555.717 387.196 557.127 406.671 558.024C406.671 558.024 406.743 556.585 406.84 554.655L349.557 551.352Z" fill="#D7D6D6"/>
<path d="M373.493 335.973C373.545 335.23 373.579 334.481 373.579 333.725C373.579 314.83 357.599 299.512 337.887 299.512C318.172 299.512 302.192 314.83 302.192 333.725C302.192 338.895 303.403 343.793 305.55 348.188C307.879 352.961 311.316 357.136 315.552 360.4C320.83 387.973 336.087 413.725 344.95 440.893C338.707 474.945 335.829 503.139 349.511 536.349L375.887 531.941C375.74 498.688 379.111 471.004 378.244 440.893C377.379 411.026 373.346 339.77 373.493 335.973Z" fill="#D28D58"/>
<path d="M344.95 221.012C341.764 223.392 338.77 226.189 336.098 229.401C315.083 254.613 301.6 311.139 296.691 342.68C315.902 321.228 322.062 291.551 329.368 263.893C333.079 249.837 335.888 233.289 344.95 221.012Z" fill="#FCC551"/>
<path d="M375.716 237.168C384.627 237.063 395.727 249.883 403.969 257.782C405.598 241.665 401.441 228.01 390.63 218.434C378.978 208.116 359.819 209.894 344.947 221.008C335.885 233.286 333.079 249.833 329.365 263.889C322.056 291.548 315.895 321.224 296.688 342.676C296.592 343.294 296.492 343.925 296.403 344.527C313.639 351.059 334.63 350.431 351.837 347.499C362.161 345.74 377.678 340.152 387.351 329.284C387.032 327.529 386.864 325.645 386.809 323.69C384.233 307.014 372.835 293.122 366.86 282.846C352.64 258.393 352.033 237.447 375.716 237.168Z" fill="#FFD96F"/>
<path d="M403.972 257.782C395.727 249.88 384.631 237.063 375.72 237.169C352.037 237.448 352.644 258.394 366.864 282.85C372.839 293.126 384.237 307.014 386.813 323.694C386.535 313.523 389.701 300.927 395.058 288.905C399.966 277.88 402.995 267.394 403.972 257.782Z" fill="#FCC551"/>
<path d="M373.579 225.646C372.108 225.646 370.616 225.389 369.161 224.847C362.902 222.51 359.808 215.748 362.247 209.749L372.605 184.293C375.047 178.294 382.106 175.329 388.359 177.666C394.618 180.007 397.712 186.765 395.273 192.764L384.915 218.22C383.039 222.828 378.443 225.646 373.579 225.646Z" fill="#F5AE8B"/>
<path d="M327.177 248.236L323.16 261.263C357.751 226.941 386.83 235.78 391.213 251.26C396.33 232.161 362.926 215.098 327.177 248.236Z" fill="#2C6764"/>
<path d="M391.21 251.262C390.678 253.241 389.735 255.239 388.339 257.208C369.365 283.933 321.065 312.025 303.356 325.072L300.479 334.398C318.191 321.348 369.361 292.223 388.336 265.495C391.683 260.785 392.479 255.745 391.21 251.262Z" fill="#2C6764"/>
<path d="M500.181 335.393C464.651 316.38 419.067 289.011 392.431 252.26C385.163 242.231 372.197 232.396 361.709 241.199C348.747 252.076 361.321 269.15 370.335 276.888C405.269 306.873 448.112 332.783 493.428 343.147L500.181 335.393Z" fill="#F5AE8B"/>
<path d="M403.008 261.191C393.575 269.376 384.147 277.558 374.718 285.74C369.028 279.717 363.334 273.689 357.64 267.667C340.563 249.59 368.853 225.042 385.93 243.118C391.624 249.143 397.314 255.165 403.008 261.191Z" fill="#FFD96F"/>
<path d="M384.4 196.847C389.185 201.245 390.869 207.007 388.163 209.713C385.453 212.418 379.379 211.044 374.59 206.639C369.806 202.241 368.122 196.485 370.828 193.776C373.537 191.071 379.612 192.448 384.4 196.847Z" fill="#F18E7F"/>
<path d="M410.05 163.497C417.465 180.811 411.158 199.696 395.967 205.672C380.769 211.644 362.436 202.463 355.021 185.15C347.605 167.833 353.906 148.951 369.107 142.969C384.305 136.993 402.634 146.18 410.05 163.497Z" fill="#F5AE8B"/>
<path d="M414.158 160.223C409.487 167.429 396.663 163.849 394.992 171.14C389.799 193.825 380.007 174.953 377.404 182.234C372.417 196.175 370.647 205.35 357.335 194.828C346.288 186.1 343.026 152.173 366.411 142.039C383.999 134.413 398.062 141.188 406.609 147.44C413.414 152.423 416.985 155.861 414.158 160.223Z" fill="#B44822"/>
<path d="M402.781 148.339C419.608 144.177 435.132 142.967 437.454 145.637C439.776 148.302 428.012 153.838 411.181 158L402.781 148.339Z" fill="#052F5F"/>
<path d="M384.929 180.574C387.645 184.844 387.453 189.709 384.497 191.438C381.537 193.163 376.937 191.102 374.217 186.832C371.497 182.559 371.696 177.694 374.653 175.968C377.61 174.236 382.209 176.303 384.929 180.574Z" fill="#F5AE8B"/>
<path d="M399.64 173.516C399.506 173.516 399.369 173.48 399.245 173.401C398.916 173.197 398.824 172.77 399.043 172.454C400.796 169.904 404.25 167.626 407.981 168.276C408.372 168.346 408.626 168.701 408.558 169.075C408.486 169.447 408.098 169.687 407.728 169.628C404.613 169.082 401.729 171.041 400.24 173.207C400.1 173.411 399.873 173.516 399.64 173.516Z" fill="#B44822"/>
<path d="M407.045 175.203C407.261 176.834 406.729 178.237 405.855 178.349C404.977 178.451 404.095 177.222 403.879 175.595C403.663 173.964 404.198 172.56 405.073 172.452C405.947 172.343 406.832 173.576 407.045 175.203Z" fill="#B44822"/>
<path d="M400.456 188.633C401.478 194.441 407.69 192.748 409.923 189.162L400.456 188.633Z" fill="white"/>
<path d="M410.92 174.094C410.92 174.094 417.681 180.5 416.161 182.328C414.086 184.826 410.536 184.093 410.536 184.093L410.92 174.094Z" fill="#F5AE8B"/>
<path d="M346.706 173.936C341.568 154.85 351.84 135.811 369.641 131.406C387.446 127.008 406.043 138.907 411.181 157.993L346.706 173.936Z" fill="#4E9FCA"/>
<path d="M519.306 333.759C513.139 329.828 500.664 332.445 495.681 334.696C488.996 337.714 489.387 344.308 490.666 346.658C491.949 349.009 494.12 350.655 496.627 351.185C501.556 352.22 505.322 349.587 508.646 347.27C510.837 345.741 512.906 344.298 515.193 343.815C516.37 343.565 517.567 344.002 518.174 344.903C518.908 345.988 518.637 347.51 517.423 349.078C516.757 349.939 516.943 351.158 517.845 351.796C518.208 352.056 518.63 352.177 519.049 352.177C519.155 352.177 519.261 352.158 519.368 352.145C519.217 352.483 519.062 352.815 518.894 353.141C518.404 354.104 518.819 355.267 519.827 355.741C520.115 355.875 520.417 355.938 520.712 355.938C521.463 355.938 522.184 355.537 522.537 354.847C526.179 347.7 526.591 338.407 519.306 333.759Z" fill="#F5AE8B"/>
<path d="M181.871 228.145C172.596 228.145 167.894 226.001 163.346 223.93C158.801 221.86 154.507 219.904 145.692 219.904C136.877 219.904 132.586 221.86 128.042 223.93C123.494 226.001 118.791 228.145 109.52 228.145C100.249 228.145 95.5469 226.001 90.9989 223.93C86.4542 221.86 82.1634 219.904 73.352 219.904C64.5371 219.904 60.2463 221.86 55.7017 223.93C51.1571 226.001 46.4547 228.145 37.1836 228.145C27.9126 228.145 23.2102 226.001 18.6656 223.93C14.1209 221.86 9.82668 219.904 1.01525 219.904C0.452745 219.904 0 219.467 0 218.934C0 218.395 0.452745 217.961 1.01525 217.961C10.2863 217.961 14.9887 220.101 19.5333 222.175C24.0779 224.243 28.3722 226.199 37.1836 226.199C45.9985 226.199 50.2893 224.243 54.8305 222.175C59.3786 220.101 64.081 217.961 73.352 217.961C82.623 217.961 87.3254 220.101 91.8701 222.175C96.4147 224.243 100.709 226.199 109.52 226.199C118.332 226.199 122.626 224.243 127.167 222.175C131.715 220.101 136.418 217.961 145.689 217.961C154.963 217.961 159.666 220.101 164.21 222.175C168.755 224.243 173.049 226.199 181.864 226.199C190.679 226.199 194.973 224.243 199.518 222.175C204.066 220.101 208.768 217.961 218.043 217.961C218.602 217.961 219.058 218.395 219.058 218.934C219.058 219.467 218.602 219.904 218.043 219.904C209.228 219.904 204.934 221.86 200.389 223.93C195.844 226.001 191.142 228.145 181.871 228.145Z" fill="#FFD96F"/>
<path d="M209.958 256.52C200.687 256.52 195.981 254.377 191.436 252.306C186.892 250.238 182.601 248.279 173.783 248.279C164.971 248.279 160.677 250.235 156.132 252.306C151.584 254.377 146.885 256.52 137.611 256.52C128.34 256.52 123.637 254.377 119.089 252.306C114.548 250.238 110.254 248.279 101.442 248.279C92.6275 248.279 88.3367 250.235 83.7921 252.306C79.244 254.377 74.545 256.52 65.2705 256.52C55.9995 256.52 51.2971 254.377 46.7525 252.306C42.2078 250.238 37.917 248.279 29.1022 248.279C28.5431 248.279 28.0869 247.845 28.0869 247.31C28.0869 246.77 28.5397 246.34 29.1022 246.34C38.3732 246.34 43.0756 248.483 47.6237 250.551C52.1649 252.618 56.4591 254.578 65.2705 254.578C74.0854 254.578 78.3762 252.618 82.9208 250.551C87.4655 248.483 92.1679 246.34 101.442 246.34C110.713 246.34 115.416 248.483 119.96 250.551C124.505 252.618 128.796 254.578 137.611 254.578C146.422 254.578 150.716 252.618 155.261 250.551C159.809 248.483 164.511 246.34 173.783 246.34C183.057 246.34 187.759 248.483 192.304 250.551C196.849 252.618 201.143 254.578 209.958 254.578C218.773 254.578 223.067 252.618 227.612 250.551C232.16 248.483 236.862 246.34 246.136 246.34C246.696 246.34 247.152 246.774 247.152 247.31C247.152 247.845 246.699 248.279 246.136 248.279C237.322 248.279 233.027 250.235 228.483 252.306C223.935 254.377 219.232 256.52 209.958 256.52Z" fill="#FFD96F"/>
<path d="M218.698 376.523C209.427 376.523 204.725 374.383 200.177 372.305C195.632 370.238 191.338 368.282 182.523 368.282C173.708 368.282 169.414 370.234 164.873 372.305C160.325 374.383 155.622 376.523 146.351 376.523C137.08 376.523 132.378 374.383 127.833 372.305C123.289 370.238 118.998 368.282 110.186 368.282C101.372 368.282 97.0808 370.234 92.5362 372.305C87.9881 374.383 83.2857 376.523 74.0147 376.523C64.7436 376.523 60.0412 374.383 55.4932 372.305C50.952 370.238 46.6577 368.282 37.8463 368.282C37.2838 368.282 36.8311 367.845 36.8311 367.309C36.8311 366.77 37.2838 366.336 37.8463 366.336C47.1173 366.336 51.8163 368.479 56.3644 370.55C60.909 372.618 65.2032 374.574 74.0147 374.574C82.8295 374.574 87.1204 372.618 91.665 370.55C96.213 368.476 100.912 366.336 110.186 366.336C119.454 366.336 124.16 368.479 128.705 370.55C133.246 372.618 137.54 374.574 146.351 374.574C155.166 374.574 159.461 372.618 164.005 370.55C168.55 368.476 173.252 366.336 182.523 366.336C191.794 366.336 196.497 368.479 201.048 370.55C205.593 372.618 209.884 374.574 218.698 374.574C227.513 374.574 231.804 372.618 236.349 370.55C240.897 368.476 245.599 366.336 254.874 366.336C255.433 366.336 255.889 366.77 255.889 367.309C255.889 367.845 255.433 368.282 254.874 368.282C246.059 368.282 241.768 370.234 237.223 372.305C232.675 374.383 227.973 376.523 218.698 376.523Z" fill="#FFD96F"/>
<path d="M246.789 404.902C237.518 404.902 232.816 402.759 228.264 400.688C223.72 398.617 219.429 396.661 210.614 396.661C201.799 396.661 197.508 398.617 192.964 400.688C188.416 402.759 183.713 404.902 174.442 404.902C165.171 404.902 160.469 402.759 155.921 400.688C151.38 398.617 147.085 396.661 138.274 396.661C129.459 396.661 125.168 398.617 120.624 400.688C116.079 402.759 111.373 404.902 102.106 404.902C92.8345 404.902 88.1321 402.759 83.584 400.688C79.0394 398.617 74.7486 396.661 65.9337 396.661C65.3746 396.661 64.9219 396.227 64.9219 395.688C64.9219 395.152 65.3746 394.715 65.9337 394.715C75.2082 394.715 79.9071 396.858 84.4552 398.929C88.9998 401 93.2906 402.953 102.106 402.953C110.92 402.953 115.211 400.997 119.752 398.929C124.3 396.858 129.003 394.715 138.274 394.715C147.545 394.715 152.247 396.858 156.792 398.929C161.337 401 165.627 402.953 174.442 402.953C183.257 402.953 187.548 400.997 192.093 398.929C196.641 396.858 201.343 394.715 210.614 394.715C219.889 394.715 224.587 396.858 229.136 398.929C233.68 401 237.974 402.953 246.789 402.953C255.604 402.953 259.898 400.997 264.443 398.929C268.991 396.858 273.693 394.715 282.968 394.715C283.527 394.715 283.98 395.152 283.98 395.688C283.98 396.224 283.527 396.661 282.968 396.661C274.153 396.661 269.859 398.617 265.314 400.688C260.763 402.759 256.064 404.902 246.789 404.902Z" fill="#FFD96F"/>
<path d="M327.746 248.263C326.563 252.116 322.306 254.344 318.283 253.21L270.285 239.677C266.265 238.543 263.94 234.46 265.123 230.608L274.723 199.337C275.907 195.484 280.163 193.255 284.186 194.39L332.185 207.923C336.204 209.057 338.53 213.14 337.347 216.992L327.746 248.263Z" fill="#4E9FCA"/>
<path d="M277.731 323.029C276.843 325.919 273.65 327.588 270.635 326.737L238.757 317.75C235.742 316.899 234 313.838 234.885 310.949L251.949 255.356C252.837 252.467 256.03 250.797 259.045 251.648L290.923 260.635C293.937 261.483 295.68 264.547 294.795 267.436L277.731 323.029Z" fill="#4E9FCA"/>
<path d="M300.776 336.133C299.741 339.506 296.016 341.452 292.497 340.459L246.766 327.567C243.247 326.574 241.216 323.004 242.249 319.632L276.314 208.647C277.35 205.274 281.075 203.325 284.594 204.318L330.325 217.21C333.844 218.203 335.875 221.773 334.842 225.145L300.776 336.133Z" fill="#052F5F"/>
<path d="M267.65 318.795L269.479 312.839C269.914 311.415 270.586 310.235 271.488 309.305C272.391 308.372 273.45 307.747 274.665 307.431C275.879 307.116 277.172 307.152 278.54 307.537C279.909 307.924 281.013 308.562 281.857 309.46C282.701 310.357 283.239 311.429 283.469 312.681C283.702 313.933 283.599 315.271 283.16 316.695L281.332 322.651L267.65 318.795ZM280.516 316.113C280.917 314.801 280.859 313.647 280.334 312.651C279.813 311.655 278.9 310.975 277.597 310.607C276.294 310.239 275.141 310.337 274.14 310.903C273.138 311.468 272.435 312.408 272.034 313.72L271.183 316.491L279.665 318.884L280.516 316.113Z" fill="#B1DCDE"/>
<path d="M286.656 296.31L289.197 297.027L286.079 307.181L272.397 303.325L275.44 293.414L277.981 294.131L275.865 301.024L278.835 301.862L280.705 295.774L283.167 296.468L281.298 302.556L284.464 303.447L286.656 296.31Z" fill="#B1DCDE"/>
<path d="M276.256 290.753L277.185 287.718L288.288 290.848L290.308 284.273L292.887 285L289.938 294.608L276.256 290.753Z" fill="#B1DCDE"/>
<path d="M279.73 279.436L280.663 276.402L294.345 280.261L293.412 283.296L279.73 279.436Z" fill="#B1DCDE"/>
<path d="M285.462 260.762L297.402 270.295L296.482 273.292L281.062 275.094L282.066 271.816L293.066 270.584L284.533 263.779L285.462 260.762Z" fill="#B1DCDE"/>
<path d="M300.056 252.665L302.598 253.382L299.48 263.536L285.798 259.677L288.84 249.766L291.382 250.482L289.265 257.375L292.236 258.214L294.105 252.126L296.568 252.819L294.698 258.907L297.864 259.801L300.056 252.665Z" fill="#B1DCDE"/>
<path d="M305.904 242.61L301.315 244.063L301.27 244.214L300.458 246.857L304.268 247.928L303.335 250.962L289.653 247.103L291.396 241.426C291.752 240.266 292.263 239.316 292.929 238.573C293.594 237.833 294.373 237.334 295.258 237.081C296.143 236.828 297.093 236.844 298.108 237.13C299.123 237.416 299.929 237.899 300.523 238.573C301.116 239.25 301.473 240.072 301.6 241.045L306.899 239.342L305.904 242.61ZM295.179 240.42C294.623 240.779 294.205 241.416 293.924 242.327L293.166 244.799L297.933 246.143L298.691 243.671C298.972 242.761 298.976 242.008 298.705 241.416C298.434 240.825 297.919 240.42 297.165 240.21C296.4 239.99 295.735 240.062 295.179 240.42Z" fill="#B1DCDE"/>
<path d="M304.59 229.72L309.436 231.088L308.503 234.122L303.616 232.744L293.261 235.341L294.249 232.12L301.403 230.332L296.399 225.115L297.311 222.137L304.59 229.72Z" fill="#B1DCDE"/>
</svg>
