<svg width="530" height="624" viewBox="0 0 530 624" fill="none" xmlns="http://www.w3.org/2000/svg">
<path d="M233.325 0.497545C316.684 7.7639 378.569 56.8673 435.706 118.267C487.303 173.711 528.729 263.55 529.161 343.602C529.42 391.479 512.527 438.565 466.183 446.517C387.113 460.08 379.339 471.444 373.918 517.366C362.117 617.312 64.908 534.194 13.6462 405.58C-0.444021 370.228 -12.2599 327.912 24.4798 307.899C47.7675 295.212 64.1572 296.863 69.5661 267.151C80.0494 209.586 66.0186 150.883 84.5511 93.6026C104.532 31.837 173.113 -4.74812 233.325 0.497545Z" fill="#4E9FCA" fill-opacity="0.5"/>
<path d="M474.21 591.609C474.21 609.498 380.355 624 264.58 624C148.805 624 54.9531 609.498 54.9531 591.609C54.9531 573.72 148.808 559.219 264.58 559.219C380.359 559.219 474.21 573.72 474.21 591.609Z" fill="#A9ABAE" fill-opacity="0.5"/>
<path d="M348.168 355.813C348.168 359.157 350.905 361.894 354.25 361.894H450.457C453.801 361.894 456.538 359.157 456.538 355.813V243.862C456.538 240.518 453.801 237.781 450.457 237.781H354.25C350.905 237.781 348.168 240.518 348.168 243.862V355.813Z" fill="#4E9FCA"/>
<path d="M348.168 387.348C348.168 390.692 350.905 393.429 354.25 393.429H450.457C453.801 393.429 456.538 390.692 456.538 387.348V275.393C456.538 272.05 453.801 269.312 450.457 269.312H354.25C350.905 269.312 348.168 272.05 348.168 275.393V387.348Z" fill="#052F5F"/>
<path d="M335.005 595.063C335.033 592.729 338.071 589.392 341.743 587.649L369.089 575.5C375.142 575.585 375.805 575.35 381.856 575.431C388.087 581.181 390.171 589.726 387.33 596.195L334.989 596.095C334.992 595.76 335.002 595.419 335.005 595.063Z" fill="#052F5F"/>
<path d="M387.33 596.198C386.833 597.33 386.204 598.406 385.4 599.382C367.618 599.135 352.724 599.554 334.942 599.307C334.942 599.307 334.961 597.931 334.986 596.098L387.33 596.198Z" fill="#B6B7B7"/>
<path d="M410.246 367.398L364.656 367.445C360.745 384.484 341.59 456.5 339.857 479.387C338.243 500.676 350.156 514.89 360.467 578.217H384.724C384.721 547.424 384.089 511.646 371.184 482.34C386.661 454.013 404.858 418.638 410.083 391.991L410.246 367.398Z" fill="#B67D4D"/>
<path d="M402.381 599.112C402.381 582.659 408.807 569.324 416.734 569.324C424.661 569.324 431.087 582.659 431.087 599.112H402.381Z" fill="#052F5F"/>
<path d="M431.084 596.094H402.381V599.388H431.084V596.094Z" fill="#B6B7B7"/>
<path d="M440.106 362.41C440.979 368.597 446.582 390.878 446.572 430.845C446.566 481.887 437.594 531.219 429.873 578.217H402.353C410.246 475.118 396.903 449.847 402.353 395.811L402.09 367.409L440.106 362.41Z" fill="#D28D58"/>
<path d="M349.241 335.463C354.578 317.778 361.792 299.751 370.032 283.723L344.352 272.859C335.498 291.824 326.285 324.193 326.101 345.707L349.241 335.463Z" fill="#F5AE8B"/>
<path d="M454.549 335.42C449.212 317.735 441.998 299.708 433.758 283.68L459.442 272.816C468.292 291.781 477.477 324.172 477.658 345.689L454.549 335.42Z" fill="#F5AE8B"/>
<path d="M358.63 361.805C357.945 368.436 357.097 375.067 356.071 381.702C386.814 389.628 417.553 389.628 448.296 381.702C447.455 376.281 446.754 370.857 446.144 365.436C424.401 371.386 384.54 373.488 358.63 361.805Z" fill="#FFD96F"/>
<path d="M366.066 291.765C367.374 300.496 361.414 343.462 402.634 344.71C443.854 345.958 440 274.336 440.434 280.861C440.866 287.383 450.436 299.557 461.144 298.453C464.345 297.208 467.545 295.963 470.745 294.721C467.442 286.219 464.138 277.724 460.835 269.225C459.258 265.174 457.112 262.093 454.662 259.863C447.242 251.639 426.557 245.715 402.184 245.715C376.102 245.715 354.241 252.493 348.344 261.621C346.605 263.635 345.075 266.144 343.877 269.225C340.57 277.724 337.266 286.219 333.963 294.721C338.427 296.457 342.894 298.193 347.362 299.929C358.987 304.443 362.15 296.514 366.066 291.765Z" fill="#FFD96F"/>
<path d="M461.144 298.457C450.435 299.561 440.866 287.387 440.434 280.865C439.999 274.343 443.85 345.962 402.634 344.714C361.414 343.466 367.374 300.5 366.066 291.769C362.152 296.518 358.986 304.447 347.361 299.934C351.666 301.607 355.971 303.281 360.275 304.954C361.129 323.903 360.582 342.853 358.63 361.806C384.539 373.489 424.401 371.387 446.143 365.437C443.881 345.321 443.184 325.205 444.082 305.089C449.769 302.877 455.456 300.666 461.144 298.457Z" fill="#FCC551"/>
<path d="M419.232 245.945C425.154 254.134 441.588 322.919 445.076 359.836C450.379 325.91 440.987 257.012 435.065 248.823L419.232 245.945Z" fill="#052F5F"/>
<path d="M385.471 245.945C379.552 254.134 363.119 322.919 359.628 359.836C354.325 325.91 363.716 257.012 369.635 248.823L385.471 245.945Z" fill="#052F5F"/>
<path d="M382.402 353.545C381.636 353.545 380.923 353.067 380.657 352.304C379.377 348.625 382.966 343.079 387.029 340.58C388.543 339.648 390.474 338.897 392.335 338.174C393.99 337.533 395.698 336.87 396.896 336.147C397.769 335.622 398.905 335.903 399.433 336.776C399.962 337.652 399.677 338.787 398.805 339.313C397.337 340.198 395.473 340.921 393.674 341.618C391.963 342.281 390.198 342.966 388.966 343.727C385.728 345.716 383.673 349.723 384.148 351.087C384.483 352.05 383.976 353.104 383.009 353.442C382.809 353.511 382.606 353.545 382.402 353.545Z" fill="#F5AE8B"/>
<path d="M418.911 360.92C419.092 361.983 418.373 362.853 417.306 362.853H395.01C393.946 362.853 392.929 361.983 392.748 360.92L385.271 317.015C385.09 315.949 385.812 315.082 386.876 315.082H409.172C410.236 315.082 411.252 315.952 411.434 317.015L418.911 360.92Z" fill="#FCC551"/>
<path d="M454.549 335.418C445.893 341.202 428.652 347.617 411.515 347.767L412.85 359.3C432.584 363.148 477.783 360.539 477.658 345.687L454.549 335.418Z" fill="#F5AE8B"/>
<path d="M417.4 364.103C417.581 365.167 416.858 366.036 415.795 366.036H393.502C392.435 366.036 391.418 365.167 391.237 364.103L383.763 320.202C383.579 319.138 384.301 318.266 385.368 318.266H407.664C408.728 318.266 409.744 319.135 409.926 320.202L417.4 364.103Z" fill="#424853"/>
<path d="M389.422 350.213C388.94 350.213 388.446 350.204 387.936 350.188C386.916 350.154 386.115 349.297 386.15 348.277C386.184 347.258 387.019 346.482 388.061 346.491C398.325 346.838 401.012 343.529 404.213 338.036C404.729 337.154 405.861 336.854 406.741 337.37C407.623 337.886 407.923 339.015 407.407 339.9C404.009 345.725 400.484 350.213 389.422 350.213Z" fill="#F5AE8B"/>
<path d="M391.587 353.229C390.564 353.229 389.738 352.403 389.738 351.381C389.738 350.358 390.564 349.532 391.587 349.532C399.552 349.532 404.295 346.964 409.71 339.719C410.323 338.9 411.477 338.734 412.297 339.344C413.117 339.954 413.286 341.114 412.673 341.934C406.519 350.167 400.803 353.229 391.587 353.229Z" fill="#F5AE8B"/>
<path d="M393.411 355.629C392.544 355.629 391.656 355.604 390.743 355.564C389.723 355.514 388.937 354.647 388.984 353.628C389.034 352.605 389.901 351.82 390.921 351.87C399.077 352.276 405.327 350.703 409 347.356C409.757 346.671 410.924 346.724 411.612 347.475C412.3 348.232 412.247 349.398 411.49 350.09C407.454 353.771 401.379 355.629 393.411 355.629Z" fill="#F5AE8B"/>
<path d="M399.283 359.005C397.171 359.005 395.088 358.767 393.311 358.201C392.341 357.891 391.8 356.85 392.11 355.877C392.423 354.904 393.464 354.372 394.434 354.676C398.072 355.839 403.732 355.292 407.092 354.087C408.052 353.747 409.113 354.247 409.457 355.207C409.798 356.171 409.297 357.228 408.334 357.569C405.965 358.42 402.59 359.005 399.283 359.005Z" fill="#F5AE8B"/>
<path d="M399.846 346.342C402.182 356.496 400.709 360.894 390.833 361.723C382.358 362.436 378.751 353.556 382.242 346.102L399.846 346.342Z" fill="#F5AE8B"/>
<path d="M326.101 345.712C325.976 360.564 371.14 363.151 390.874 359.3L392.207 347.767C375.116 347.614 357.92 341.233 349.238 335.465L326.101 345.712Z" fill="#F5AE8B"/>
<path d="M402.183 257.811C396.055 257.811 391.087 252.844 391.087 246.716V220.716C391.087 214.588 396.055 209.621 402.183 209.621C408.312 209.621 413.28 214.588 413.28 220.716V246.716C413.28 252.844 408.312 257.811 402.183 257.811Z" fill="#F5AE8B"/>
<path d="M406.656 232.311C412.657 238.058 415.003 245.352 411.9 248.59C408.793 251.827 401.413 249.791 395.413 244.041C389.413 238.292 387.067 231.007 390.17 227.766C393.273 224.529 400.653 226.562 406.656 232.311Z" fill="#F18E7F"/>
<path d="M380.823 210.52C382.897 214.802 382.274 219.394 379.427 220.77C376.58 222.147 372.595 219.788 370.521 215.5C368.447 211.214 369.072 206.625 371.916 205.249C374.76 203.87 378.748 206.231 380.823 210.52Z" fill="#F5AE8B"/>
<path d="M423.54 210.52C421.466 214.802 422.089 219.394 424.935 220.77C427.779 222.147 431.768 219.788 433.842 215.5C435.916 211.214 435.294 206.625 432.447 205.249C429.603 203.87 425.614 206.231 423.54 210.52Z" fill="#F5AE8B"/>
<path d="M428.693 210.45C428.693 228.546 416.824 243.216 402.183 243.216C387.542 243.216 375.673 228.549 375.673 210.45C375.673 192.355 387.539 177.688 402.183 177.688C416.824 177.688 428.693 192.355 428.693 210.45Z" fill="#F5AE8B"/>
<path d="M418.469 207.228C418.329 207.228 418.185 207.181 418.066 207.09C416.117 205.563 413.023 204.65 410.504 206.039C410.188 206.211 409.791 206.098 409.616 205.782C409.441 205.47 409.557 205.072 409.873 204.897C412.913 203.221 416.583 204.275 418.867 206.064C419.151 206.286 419.201 206.696 418.979 206.977C418.851 207.143 418.663 207.228 418.469 207.228Z" fill="#B44822"/>
<path d="M415.723 209.555C415.723 211.201 414.912 212.53 413.918 212.53C412.917 212.53 412.109 211.197 412.109 209.555C412.109 207.91 412.917 206.574 413.918 206.574C414.916 206.577 415.723 207.91 415.723 209.555Z" fill="#B44822"/>
<path d="M385.897 207.228C385.703 207.228 385.509 207.14 385.384 206.977C385.162 206.696 385.212 206.283 385.496 206.064C387.783 204.275 391.45 203.221 394.494 204.897C394.806 205.072 394.922 205.47 394.75 205.782C394.575 206.098 394.178 206.211 393.862 206.039C391.346 204.65 388.252 205.567 386.3 207.09C386.178 207.184 386.034 207.228 385.897 207.228Z" fill="#B44822"/>
<path d="M388.637 209.555C388.637 211.201 389.447 212.53 390.445 212.53C391.443 212.53 392.253 211.197 392.253 209.555C392.253 207.91 391.443 206.574 390.445 206.574C389.447 206.574 388.637 207.91 388.637 209.555Z" fill="#B44822"/>
<path d="M400.784 221.475C400.162 221.475 399.589 221.428 399.151 221.362C398.798 221.309 398.551 220.978 398.604 220.621C398.657 220.264 398.995 220.024 399.345 220.071C401.053 220.327 403.925 220.127 404.955 218.888C405.427 218.322 405.493 217.562 405.152 216.567L404.908 215.86C403.866 212.861 402.686 209.46 404.06 206.248C404.204 205.916 404.585 205.76 404.917 205.907C405.249 206.048 405.402 206.432 405.258 206.761C404.085 209.507 405.177 212.657 406.14 215.432L406.387 216.145C407 217.94 406.491 219.082 405.959 219.723C404.811 221.103 402.558 221.475 400.784 221.475Z" fill="#B44822"/>
<path d="M393.648 227.668C397.274 234.515 407.085 234.515 410.711 227.668H393.648Z" fill="white"/>
<path d="M388.801 177.685C371.817 167.35 371.757 199.421 373.675 206.903C375.455 213.86 379.243 218.758 379.547 208.427C379.853 198.045 386.642 190.841 395.242 188.019H409.119C417.719 190.841 424.508 198.048 424.815 208.427C425.118 218.758 428.906 213.863 430.687 206.903C432.604 199.421 432.548 178.345 420.388 177.685H388.801Z" fill="#B44822"/>
<path d="M423.369 192.512C418.801 199.51 407.33 200.117 397.741 193.861C388.159 187.608 384.092 176.863 388.662 169.863C393.23 162.865 404.702 162.258 414.287 168.514C423.876 174.767 427.939 185.512 423.369 192.512Z" fill="#67300F"/>
<path d="M371.719 195.599C371.706 175.248 385.609 160.259 402.389 161.366C419.192 160.562 432.825 175.255 432.45 195.599C413.464 185.708 390.886 186.049 371.719 195.599Z" fill="#4E9FCA"/>
<path d="M376.659 193.46C392.692 185.289 411.672 185.289 427.708 193.46C427.708 196.8 427.708 198.765 427.708 202.106C427.708 204.142 426.144 204.993 424.179 204.158C410.13 198.183 394.241 198.183 380.188 204.158C378.223 204.993 376.659 204.142 376.659 202.106C376.659 198.765 376.659 196.8 376.659 193.46Z" fill="#052F5F"/>
<path d="M234.385 485.943C234.385 499.356 223.514 510.226 210.103 510.226C196.691 510.226 185.82 499.356 185.82 485.943C185.82 472.536 196.691 461.66 210.103 461.66C223.514 461.66 234.385 472.536 234.385 485.943Z" fill="#55B9A1"/>
<path d="M207.143 504.747C206.68 504.747 206.255 504.494 206.036 504.087L196.66 486.802C196.328 486.189 196.557 485.422 197.167 485.091C197.78 484.759 198.547 484.985 198.878 485.598L207.125 500.803L221.321 473.724C221.643 473.107 222.407 472.867 223.026 473.192C223.642 473.517 223.883 474.277 223.558 474.897L208.266 504.075C208.051 504.488 207.622 504.75 207.159 504.75C207.15 504.747 207.146 504.747 207.143 504.747Z" fill="white"/>
<path d="M319.934 585.781C319.934 593.917 313.277 600.576 305.14 600.576H115.063C106.929 600.576 100.269 593.917 100.269 585.781V158.686C100.269 150.55 106.926 143.891 115.063 143.891H305.14C313.277 143.891 319.934 150.55 319.934 158.686V585.781Z" fill="#424853"/>
<path d="M121.814 574.2C114.037 574.2 107.671 567.834 107.671 560.058V184.407C107.671 176.627 114.037 170.262 121.814 170.262H298.396C306.173 170.262 312.54 176.627 312.54 184.407V560.058C312.54 567.834 306.173 574.2 298.396 574.2H121.814Z" fill="white"/>
<path d="M235.678 89.173C235.678 103.299 210.1 143.891 210.1 143.891C210.1 143.891 184.525 103.296 184.525 89.173C184.525 75.0532 195.975 63.6016 210.1 63.6016C224.228 63.5984 235.678 75.0501 235.678 89.173Z" fill="#DB4444"/>
<path d="M226.621 89.1729C226.621 98.291 219.225 105.689 210.103 105.689C200.98 105.689 193.588 98.291 193.588 89.1729C193.588 80.0516 200.983 72.6602 210.103 72.6602C219.225 72.657 226.621 80.0516 226.621 89.1729Z" fill="white"/>
<path d="M168.363 204.172V208.592H166.555V204.135L161.478 195.805H163.433L167.525 202.546L171.635 195.805H173.444L168.363 204.172Z" fill="#2C6764"/>
<path d="M175.487 208.064C174.721 207.638 174.12 207.05 173.689 206.303C173.257 205.555 173.041 204.704 173.041 203.753C173.041 202.802 173.257 201.955 173.689 201.204C174.12 200.456 174.721 199.871 175.487 199.449C176.254 199.03 177.12 198.82 178.081 198.82C179.041 198.82 179.905 199.03 180.665 199.449C181.425 199.868 182.023 200.453 182.454 201.204C182.886 201.951 183.102 202.802 183.102 203.753C183.102 204.704 182.886 205.552 182.454 206.303C182.023 207.05 181.425 207.638 180.665 208.064C179.905 208.489 179.041 208.702 178.081 208.702C177.12 208.702 176.254 208.489 175.487 208.064ZM179.751 206.74C180.246 206.456 180.63 206.052 180.912 205.536C181.194 205.02 181.331 204.426 181.331 203.756C181.331 203.087 181.19 202.493 180.912 201.976C180.63 201.46 180.246 201.06 179.751 200.782C179.257 200.5 178.7 200.362 178.081 200.362C177.461 200.362 176.901 200.503 176.41 200.782C175.916 201.063 175.528 201.46 175.24 201.976C174.956 202.496 174.812 203.087 174.812 203.756C174.812 204.426 174.956 205.02 175.24 205.536C175.525 206.052 175.916 206.456 176.41 206.74C176.905 207.028 177.461 207.169 178.081 207.169C178.703 207.169 179.26 207.025 179.751 206.74Z" fill="#2C6764"/>
<path d="M194.557 198.914V208.595H192.896V207.134C192.543 207.635 192.077 208.02 191.498 208.295C190.919 208.567 190.29 208.705 189.608 208.705C188.316 208.705 187.299 208.348 186.558 207.635C185.817 206.922 185.444 205.874 185.444 204.485V198.914H187.199V204.285C187.199 205.223 187.425 205.933 187.875 206.412C188.326 206.894 188.97 207.134 189.812 207.134C190.738 207.134 191.466 206.853 192.005 206.293C192.54 205.733 192.809 204.942 192.809 203.919V198.914H194.557Z" fill="#2C6764"/>
<path d="M200.933 199.262C201.53 198.971 202.253 198.824 203.107 198.824V200.523C203.01 200.51 202.876 200.504 202.707 200.504C201.756 200.504 201.011 200.789 200.47 201.355C199.929 201.921 199.656 202.728 199.656 203.776V208.599H197.901V198.918H199.581V200.545C199.885 199.978 200.335 199.553 200.933 199.262Z" fill="#2C6764"/>
<path d="M211.855 208.064C211.088 207.638 210.488 207.05 210.056 206.303C209.624 205.555 209.408 204.704 209.408 203.753C209.408 202.802 209.624 201.955 210.056 201.204C210.488 200.456 211.088 199.871 211.855 199.449C212.621 199.03 213.488 198.82 214.448 198.82C215.412 198.82 216.272 199.03 217.032 199.449C217.792 199.868 218.39 200.453 218.822 201.204C219.253 201.951 219.469 202.802 219.469 203.753C219.469 204.704 219.253 205.552 218.822 206.303C218.39 207.05 217.792 207.638 217.032 208.064C216.272 208.489 215.408 208.702 214.448 208.702C213.488 208.702 212.621 208.489 211.855 208.064ZM216.122 206.74C216.616 206.456 217.001 206.052 217.282 205.536C217.564 205.02 217.702 204.426 217.702 203.756C217.702 203.087 217.561 202.493 217.282 201.976C217.001 201.46 216.616 201.06 216.122 200.782C215.627 200.5 215.071 200.362 214.451 200.362C213.832 200.362 213.272 200.503 212.781 200.782C212.286 201.063 211.898 201.46 211.611 201.976C211.326 202.496 211.182 203.087 211.182 203.756C211.182 204.426 211.326 205.02 211.611 205.536C211.898 206.052 212.286 206.456 212.781 206.74C213.275 207.028 213.832 207.169 214.451 207.169C215.071 207.169 215.627 207.025 216.122 206.74Z" fill="#2C6764"/>
<path d="M224.935 199.262C225.529 198.971 226.255 198.824 227.109 198.824V200.523C227.012 200.51 226.878 200.504 226.706 200.504C225.758 200.504 225.01 200.789 224.469 201.355C223.928 201.921 223.655 202.728 223.655 203.776V208.599H221.9V198.918H223.58V200.545C223.887 199.978 224.337 199.553 224.935 199.262Z" fill="#2C6764"/>
<path d="M238.306 195.043V208.597H236.626V207.064C236.235 207.599 235.744 208.009 235.146 208.287C234.549 208.568 233.892 208.706 233.172 208.706C232.234 208.706 231.395 208.5 230.651 208.087C229.909 207.674 229.328 207.092 228.905 206.341C228.486 205.594 228.276 204.73 228.276 203.758C228.276 202.785 228.486 201.925 228.905 201.183C229.324 200.442 229.906 199.863 230.651 199.447C231.392 199.034 232.234 198.825 233.172 198.825C233.867 198.825 234.505 198.956 235.09 199.219C235.675 199.482 236.163 199.866 236.551 200.379V195.043H238.306ZM234.98 206.742C235.481 206.457 235.869 206.054 236.15 205.537C236.432 205.021 236.57 204.427 236.57 203.758C236.57 203.088 236.429 202.494 236.15 201.978C235.872 201.462 235.481 201.061 234.98 200.783C234.48 200.501 233.926 200.364 233.319 200.364C232.697 200.364 232.14 200.504 231.649 200.783C231.154 201.064 230.767 201.462 230.479 201.978C230.194 202.497 230.05 203.088 230.05 203.758C230.05 204.427 230.194 205.021 230.479 205.537C230.767 206.054 231.154 206.457 231.649 206.742C232.143 207.029 232.7 207.17 233.319 207.17C233.926 207.17 234.48 207.026 234.98 206.742Z" fill="#2C6764"/>
<path d="M250.343 204.34H242.488C242.597 205.194 242.973 205.876 243.611 206.395C244.249 206.911 245.044 207.171 245.995 207.171C247.152 207.171 248.081 206.78 248.788 206.001L249.755 207.133C249.317 207.643 248.773 208.034 248.119 208.303C247.468 208.572 246.739 208.706 245.935 208.706C244.912 208.706 244.005 208.497 243.213 208.078C242.422 207.658 241.809 207.07 241.377 206.317C240.945 205.563 240.729 204.709 240.729 203.761C240.729 202.823 240.939 201.978 241.358 201.221C241.778 200.467 242.356 199.879 243.095 199.457C243.83 199.038 244.662 198.828 245.588 198.828C246.514 198.828 247.337 199.038 248.062 199.457C248.788 199.876 249.351 200.464 249.761 201.221C250.168 201.975 250.374 202.841 250.374 203.814C250.377 203.942 250.365 204.121 250.343 204.34ZM243.482 201.071C242.916 201.581 242.585 202.253 242.488 203.079H248.698C248.601 202.263 248.269 201.596 247.703 201.08C247.136 200.564 246.433 200.305 245.594 200.305C244.753 200.301 244.049 200.558 243.482 201.071Z" fill="#2C6764"/>
<path d="M255.84 199.262C256.438 198.971 257.16 198.824 258.014 198.824V200.523C257.917 200.51 257.783 200.504 257.611 200.504C256.66 200.504 255.915 200.789 255.374 201.355C254.833 201.921 254.561 202.728 254.561 203.776V208.599H252.809V198.918H254.489V200.545C254.792 199.978 255.242 199.553 255.84 199.262Z" fill="#2C6764"/>
<path d="M151.12 218.639C150.895 218.42 150.782 218.151 150.782 217.835C150.782 217.519 150.895 217.247 151.12 217.021C151.345 216.796 151.627 216.684 151.968 216.684C152.309 216.684 152.594 216.79 152.819 217.003C153.044 217.215 153.157 217.481 153.157 217.797C153.157 218.126 153.044 218.404 152.819 218.629C152.594 218.854 152.309 218.967 151.968 218.967C151.627 218.967 151.345 218.858 151.12 218.639ZM151.092 220.828H152.847V230.509H151.092V220.828Z" fill="#2C6764"/>
<path d="M156.682 230.301C155.95 230.089 155.378 229.817 154.965 229.488L155.697 228.099C156.122 228.403 156.642 228.647 157.249 228.831C157.859 229.013 158.472 229.106 159.094 229.106C160.627 229.106 161.397 228.669 161.397 227.793C161.397 227.502 161.294 227.27 161.087 227.098C160.881 226.926 160.621 226.804 160.311 226.723C160.002 226.645 159.56 226.557 158.988 226.457C158.209 226.335 157.574 226.194 157.08 226.038C156.585 225.878 156.163 225.612 155.809 225.234C155.456 224.856 155.281 224.327 155.281 223.645C155.281 222.769 155.647 222.065 156.376 221.537C157.105 221.008 158.087 220.742 159.316 220.742C159.961 220.742 160.608 220.82 161.253 220.98C161.897 221.139 162.429 221.352 162.842 221.618L162.094 223.007C161.303 222.497 160.371 222.241 159.301 222.241C158.556 222.241 157.99 222.363 157.602 222.606C157.211 222.85 157.017 223.173 157.017 223.573C157.017 223.889 157.127 224.139 157.346 224.321C157.565 224.502 157.837 224.637 158.159 224.721C158.481 224.805 158.935 224.902 159.52 225.012C160.299 225.146 160.928 225.29 161.409 225.44C161.891 225.594 162.301 225.85 162.642 226.216C162.983 226.582 163.152 227.092 163.152 227.749C163.152 228.625 162.776 229.322 162.029 229.842C161.281 230.358 160.261 230.617 158.969 230.617C158.175 230.62 157.411 230.514 156.682 230.301Z" fill="#2C6764"/>
<path d="M171.805 229.982C171.038 229.557 170.438 228.969 170.006 228.221C169.574 227.474 169.358 226.623 169.358 225.672C169.358 224.721 169.574 223.873 170.006 223.126C170.438 222.378 171.038 221.793 171.805 221.371C172.571 220.952 173.438 220.742 174.398 220.742C175.359 220.742 176.222 220.952 176.982 221.371C177.743 221.79 178.34 222.375 178.772 223.126C179.203 223.873 179.419 224.724 179.419 225.672C179.419 226.623 179.203 227.471 178.772 228.221C178.34 228.969 177.743 229.557 176.982 229.982C176.222 230.408 175.359 230.62 174.398 230.62C173.438 230.62 172.574 230.408 171.805 229.982ZM176.072 228.656C176.566 228.371 176.951 227.968 177.233 227.452C177.514 226.936 177.652 226.341 177.652 225.672C177.652 225.003 177.511 224.408 177.233 223.892C176.951 223.376 176.566 222.976 176.072 222.697C175.578 222.419 175.021 222.278 174.401 222.278C173.782 222.278 173.222 222.419 172.731 222.697C172.237 222.979 171.849 223.376 171.561 223.892C171.273 224.411 171.132 225.003 171.132 225.672C171.132 226.341 171.276 226.936 171.561 227.452C171.845 227.968 172.237 228.371 172.731 228.656C173.225 228.941 173.782 229.085 174.401 229.085C175.021 229.085 175.578 228.944 176.072 228.656Z" fill="#2C6764"/>
<path d="M189.953 221.808C190.679 222.521 191.039 223.566 191.039 224.939V230.51H189.287V225.139C189.287 224.201 189.062 223.497 188.611 223.022C188.161 222.546 187.516 222.309 186.675 222.309C185.724 222.309 184.976 222.587 184.428 223.141C183.881 223.694 183.606 224.489 183.606 225.524V230.51H181.851V220.829H183.531V222.29C183.884 221.789 184.363 221.408 184.963 221.139C185.567 220.87 186.252 220.738 187.019 220.738C188.251 220.738 189.23 221.095 189.953 221.808Z" fill="#2C6764"/>
<path d="M204.65 229.944C204.393 230.163 204.078 230.332 203.699 230.445C203.32 230.561 202.933 230.62 202.529 230.62C201.556 230.62 200.799 230.357 200.264 229.835C199.729 229.313 199.46 228.562 199.46 227.589V222.275H197.814V220.833H199.46V218.715H201.212V220.833H203.99V222.275H201.212V227.517C201.212 228.039 201.343 228.443 201.606 228.721C201.869 229.003 202.241 229.14 202.729 229.14C203.264 229.14 203.721 228.987 204.099 228.684L204.65 229.944Z" fill="#2C6764"/>
<path d="M214.87 221.809C215.593 222.523 215.955 223.567 215.955 224.94V230.511H214.204V225.141C214.204 224.202 213.978 223.498 213.528 223.023C213.077 222.548 212.433 222.31 211.591 222.31C210.64 222.31 209.893 222.588 209.345 223.142C208.798 223.696 208.522 224.49 208.522 225.525V230.511H206.771V216.961H208.522V222.203C208.888 221.741 209.367 221.381 209.955 221.127C210.546 220.871 211.207 220.743 211.939 220.743C213.168 220.74 214.144 221.096 214.87 221.809Z" fill="#2C6764"/>
<path d="M227.975 226.257H220.119C220.229 227.108 220.604 227.793 221.242 228.312C221.88 228.828 222.675 229.088 223.626 229.088C224.784 229.088 225.713 228.697 226.42 227.918L227.389 229.05C226.952 229.563 226.407 229.951 225.756 230.22C225.103 230.489 224.377 230.62 223.573 230.62C222.55 230.62 221.643 230.411 220.851 229.992C220.06 229.573 219.447 228.984 219.015 228.231C218.583 227.477 218.367 226.623 218.367 225.672C218.367 224.734 218.577 223.889 218.996 223.132C219.415 222.378 219.994 221.79 220.732 221.371C221.467 220.952 222.3 220.742 223.226 220.742C224.152 220.742 224.974 220.952 225.7 221.371C226.426 221.79 226.992 222.378 227.399 223.132C227.809 223.886 228.012 224.752 228.012 225.725C228.012 225.86 228 226.035 227.975 226.257ZM221.114 222.985C220.548 223.495 220.216 224.167 220.119 224.993H226.329C226.232 224.177 225.9 223.51 225.334 222.991C224.768 222.475 224.064 222.215 223.226 222.215C222.387 222.215 221.683 222.475 221.114 222.985Z" fill="#2C6764"/>
<path d="M250.005 220.832L246.389 230.513H244.709L241.915 223.172L239.084 230.513H237.404L233.807 220.832H235.468L238.28 228.539L241.202 220.832H242.682L245.551 228.577L248.438 220.832H250.005Z" fill="#2C6764"/>
<path d="M258.07 221.73C258.784 222.387 259.137 223.369 259.137 224.67V230.513H257.476V229.234C257.185 229.684 256.766 230.028 256.225 230.266C255.683 230.504 255.039 230.623 254.298 230.623C253.212 230.623 252.345 230.36 251.695 229.838C251.044 229.315 250.719 228.627 250.719 227.773C250.719 226.922 251.028 226.237 251.651 225.718C252.274 225.202 253.259 224.942 254.61 224.942H257.388V224.595C257.388 223.841 257.169 223.263 256.731 222.859C256.294 222.459 255.649 222.255 254.795 222.255C254.223 222.255 253.663 222.349 253.115 222.537C252.568 222.725 252.105 222.978 251.726 223.294L250.994 221.98C251.495 221.58 252.089 221.27 252.783 221.057C253.478 220.845 254.213 220.738 254.992 220.738C256.331 220.741 257.357 221.07 258.07 221.73ZM256.325 228.824C256.813 228.527 257.166 228.102 257.385 227.554V226.203H254.682C253.196 226.203 252.455 226.703 252.455 227.701C252.455 228.189 252.643 228.571 253.021 228.852C253.4 229.134 253.922 229.271 254.592 229.271C255.258 229.271 255.837 229.121 256.325 228.824Z" fill="#2C6764"/>
<path d="M270.774 220.832L266.078 231.48C265.665 232.465 265.18 233.159 264.627 233.563C264.073 233.963 263.406 234.167 262.627 234.167C262.152 234.167 261.692 234.092 261.248 233.938C260.804 233.785 260.434 233.563 260.144 233.272L260.891 231.958C261.392 232.434 261.967 232.672 262.627 232.672C263.053 232.672 263.41 232.559 263.694 232.334C263.982 232.108 264.239 231.721 264.47 231.173L264.78 230.498L260.506 220.835H262.333L265.712 228.58L269.053 220.835H270.774V220.832Z" fill="#2C6764"/>
<path d="M270.037 299.98H150.17V437.478H270.037V299.98Z" fill="#4E9FCA"/>
<path d="M236.417 299.979H233.057C233.057 282.506 222.761 268.289 210.104 268.289C197.446 268.289 187.151 282.506 187.151 299.979H183.791C183.791 280.651 195.594 264.93 210.104 264.93C224.613 264.93 236.417 280.651 236.417 299.979Z" fill="#4E9FCA"/>
<path d="M256.835 383.626C253.875 387.817 245.244 386.819 237.558 381.399C229.868 375.975 226.033 368.18 228.989 363.985C231.948 359.79 240.58 360.788 248.269 366.212C255.956 371.636 259.791 379.434 256.835 383.626Z" fill="#FCC551"/>
<path d="M246.204 366.283C239.876 362.367 233.178 361.841 230.772 365.248C228.37 368.654 231.113 374.788 236.926 379.436L246.204 366.283Z" fill="#FFD96F"/>
<path d="M248.898 368.18L239.619 381.33C245.945 385.243 252.646 385.772 255.051 382.365C257.451 378.959 254.707 372.825 248.898 368.18Z" fill="#FFD96F"/>
<path d="M223.359 406.876C223.359 414.089 229.2 419.935 236.417 419.935C239.455 419.935 242.249 418.887 244.467 417.142L226.147 398.824C224.407 401.042 223.359 403.835 223.359 406.876Z" fill="#FFD96F"/>
<path d="M226.144 398.823L244.463 417.141C245.292 416.49 246.034 415.749 246.685 414.923L228.365 396.605C227.536 397.256 226.794 397.997 226.144 398.823Z" fill="#FFD96F"/>
<path d="M246.684 414.927C248.43 412.71 249.475 409.916 249.475 406.876C249.475 399.663 243.625 393.816 236.414 393.816C233.373 393.816 230.582 394.867 228.364 396.607L246.684 414.927Z" fill="#FFD96F"/>
<path d="M227.019 399.699C225.493 401.689 224.576 404.175 224.576 406.875C224.576 413.412 229.879 418.714 236.417 418.714C239.12 418.714 241.601 417.795 243.594 416.271L227.019 399.699Z" fill="white"/>
<path d="M229.234 397.481L245.812 414.053C247.335 412.061 248.255 409.577 248.255 406.875C248.255 400.337 242.952 395.035 236.414 395.035C233.711 395.038 231.23 395.958 229.234 397.481Z" fill="white"/>
<path d="M217.55 410.446C214.734 413.258 210.495 413.774 207.157 411.994C209.353 411.948 212.159 410.596 214.543 408.21L225.552 397.199L218.31 389.964L207.301 400.971C204.917 403.352 203.566 406.158 203.519 408.357C201.736 405.019 202.249 400.781 205.064 397.965C205.064 397.965 205.064 397.965 205.064 397.959L215.688 387.343L215.197 386.852L203.741 398.306C200.021 402.022 200.021 408.05 203.741 411.769C207.457 415.485 213.489 415.485 217.205 411.769L228.665 400.314L228.174 399.823L217.55 410.446Z" fill="#FFD96F"/>
<path d="M226.659 375.396L215.196 386.851L215.687 387.342L226.318 376.719C229.13 373.904 233.369 373.391 236.707 375.171C234.508 375.218 231.705 376.575 229.321 378.956L218.312 389.966L225.554 397.201L236.563 386.2C238.95 383.81 240.305 381.008 240.348 378.815C242.125 382.149 241.612 386.391 238.797 389.203L228.173 399.826L228.664 400.317L240.123 388.862C240.126 388.862 240.126 388.862 240.126 388.862C243.84 385.146 243.84 379.118 240.126 375.399C236.404 371.68 230.375 371.68 226.659 375.396Z" fill="#007BBC"/>
<path d="M229.318 378.956C231.705 376.576 234.508 375.218 236.704 375.172C233.366 373.392 229.127 373.908 226.315 376.72L215.685 387.343L218.306 389.964L229.318 378.956Z" fill="white"/>
<path d="M205.063 397.966C202.248 400.782 201.734 405.02 203.518 408.358C203.565 406.159 204.916 403.353 207.3 400.972L218.309 389.965L215.687 387.344L205.063 397.96C205.063 397.966 205.063 397.966 205.063 397.966Z" fill="white"/>
<path d="M207.157 411.999C210.495 413.778 214.737 413.262 217.55 410.45L228.174 399.828L225.552 397.203L214.543 408.214C212.156 410.6 209.353 411.952 207.157 411.999Z" fill="#FCC551"/>
<path d="M238.797 389.201C241.613 386.389 242.126 382.147 240.349 378.812C240.302 381.005 238.947 383.808 236.563 386.198L225.555 397.199L228.176 399.823L238.797 389.201Z" fill="#052F5F"/>
<path d="M253.03 308.872L248.676 305.703L247.981 305.828L223.292 339.755L223.702 340.052L228.028 343.199L228.438 343.496L253.124 309.569L253.03 308.872Z" fill="white"/>
<path d="M231.515 334.552L249.909 309.277L246.493 312.678L230.901 334.104L231.515 334.552Z" fill="#052F5F"/>
<path d="M232.684 335.4L224.656 349.023L219.241 345.085L229.734 333.258L232.684 335.4Z" fill="#052F5F"/>
<path d="M229.737 333.259C231.142 333.036 232.456 333.994 232.678 335.398L229.737 333.259Z" fill="#052F5F"/>
<path d="M222.61 339.225L222.162 339.84L228.743 344.631L229.19 344.017L222.61 339.225Z" fill="white"/>
<path d="M222.07 352.49L224.166 349.609L224.773 350.047L225.22 349.434L218.638 344.645L218.188 345.261L219.311 346.077L218.795 345.699L216.699 348.58L211.665 346.919L168.09 406.795L181.664 416.676L225.242 356.797L222.07 352.49Z" fill="white"/>
<path d="M220.775 352.541L217.049 349.829L212.009 348.168L205.023 357.768L205.424 358.056L216.561 366.16L216.958 366.448L223.944 356.848L220.775 352.541Z" fill="#052F5F"/>
<path d="M207.652 359.712L166.013 416.938L168.502 418.748L210.142 361.523L207.652 359.712Z" fill="#052F5F"/>
<path d="M211.844 362.728L170.197 419.953L172.684 421.762L214.331 364.537L211.844 362.728Z" fill="#052F5F"/>
<path d="M210.197 361.521L168.55 418.746L170.197 419.944L211.843 362.719L210.197 361.521Z" fill="#4E9FCA"/>
<path d="M164.945 403.225L164.347 404.047L185.367 419.362L185.966 418.54L164.945 403.225Z" fill="white"/>
<path d="M162.56 414.426L161.438 415.969L175.02 425.844L176.142 424.3L162.56 414.426Z" fill="#052F5F"/>
</svg>
