<svg width="710" height="624" viewBox="0 0 710 624" fill="none" xmlns="http://www.w3.org/2000/svg">
<rect width="710" height="624" fill="white"/>
<path d="M84.84 393.372C143.889 472.179 293.16 549.439 388.913 552.713C583.024 559.35 614.333 496.595 652.834 436.959C707.936 351.609 686.21 212.821 664.521 135.181C643.006 58.1717 583.564 2.93614 506.17 5.05916C437.091 6.95748 416.831 55.331 353.307 80.6329C300.09 101.836 254.455 91.4056 201.336 83.1885C146.975 74.7836 89.9051 97.7378 58.3543 155.13C13.0441 237.539 36.3935 328.705 84.84 393.372Z" fill="#4E9FCA" fill-opacity="0.5"/>
<path d="M352.585 306.561C390.318 301.041 435.658 293.672 450.937 251.483C455.11 239.969 464.247 227.453 475.169 234.023C488.67 242.146 481.398 261.783 475.239 271.379C451.356 308.57 401.997 322.214 352.675 321.845L352.585 306.561Z" fill="#F18E7F"/>
<path d="M364.476 301.199C362.568 300.022 359.488 298.748 358.945 301.189C358.462 303.359 359.542 304.235 362.014 305.533C357.704 306.2 357.741 309.148 361.819 310.379C358.341 313.522 359.736 317.597 364.379 315.591C361.729 317.674 357.328 321.4 361.33 324.415C365.419 327.501 369.427 321.229 372.61 319.478L364.476 301.199Z" fill="#EAF6FD"/>
<path d="M368.011 294.591C359.947 297.706 364.778 321.375 376.917 325.366C404.64 334.482 467.232 303.475 486.513 256.011C500.923 234.898 469.248 213.288 454.841 234.401C428.453 282.104 402.199 281.359 368.011 294.591Z" fill="#DB4444"/>
<path d="M342.381 623.999C519.323 623.999 662.763 608.073 662.763 588.427C662.763 568.781 519.323 552.855 342.381 552.855C165.44 552.855 22 568.781 22 588.427C22 608.073 165.44 623.999 342.381 623.999Z" fill="#A9ABAE" fill-opacity="0.5"/>
<path d="M679.014 111.43H439.321V563.802H679.014V111.43Z" fill="#945D3A"/>
<path d="M659.183 131.254H459.148V543.976H659.183V131.254Z" fill="#A9ABAE"/>
<mask id="mask0_1036_32993" style="mask-type:luminance" maskUnits="userSpaceOnUse" x="459" y="131" width="201" height="413">
<path d="M659.183 131.254H459.148V543.976H659.183V131.254Z" fill="white"/>
</mask>
<g mask="url(#mask0_1036_32993)">
<path d="M659.183 455.156H459.148V543.971H659.183V455.156Z" fill="#B67D4D"/>
</g>
<path d="M662.763 563.802L578.62 601.094H562.371V148.722L662.763 111.43V563.802Z" fill="#945D3A"/>
<path d="M679.015 563.802L578.62 601.094V148.722L679.015 111.43V563.802Z" fill="#C78F5F"/>
<path d="M602.962 388.401C602.962 383.547 600.637 379.613 597.766 379.613C594.898 379.613 592.57 383.547 592.57 388.401C592.57 393.254 594.898 397.188 597.766 397.188C600.634 397.184 602.962 393.254 602.962 388.401Z" fill="#F3C252"/>
<path d="M608.597 392.365C607.01 392.365 605.514 391.406 604.9 389.836C604.105 387.793 605.115 385.499 607.158 384.701L636.757 373.167C638.803 372.369 641.097 373.385 641.892 375.424C642.687 377.463 641.677 379.761 639.638 380.556L610.033 392.09C609.566 392.281 609.077 392.365 608.597 392.365Z" fill="#FFD96F"/>
<path d="M608.597 392.366H599.809C597.622 392.366 595.844 390.591 595.844 388.398C595.844 386.208 597.622 384.434 599.809 384.434H608.597C610.787 384.434 612.562 386.208 612.562 388.398C612.562 390.591 610.787 392.366 608.597 392.366Z" fill="#FFD96F"/>
<path d="M291.744 316.66C253.898 311.994 208.4 305.659 192.165 263.829C187.734 252.412 178.315 240.107 167.541 246.925C154.227 255.354 161.942 274.82 168.322 284.278C193.043 320.916 242.701 333.433 291.999 331.943L291.744 316.66Z" fill="#F18E7F"/>
<path d="M373.037 286.98H253.17V424.478H373.037V286.98Z" fill="#4E9FCA"/>
<path d="M339.417 286.979H336.057C336.057 269.506 325.761 255.289 313.104 255.289C300.446 255.289 290.151 269.506 290.151 286.979H286.791C286.791 267.651 298.594 251.93 313.104 251.93C327.613 251.93 339.417 267.651 339.417 286.979Z" fill="#4E9FCA"/>
<path d="M359.835 370.626C356.875 374.817 348.244 373.819 340.558 368.399C332.868 362.975 329.033 355.18 331.989 350.985C334.948 346.79 343.58 347.788 351.269 353.212C358.956 358.636 362.791 366.434 359.835 370.626Z" fill="#FCC551"/>
<path d="M349.204 353.283C342.876 349.367 336.178 348.841 333.772 352.248C331.37 355.654 334.113 361.788 339.926 366.436L349.204 353.283Z" fill="#FFD96F"/>
<path d="M351.898 355.18L342.619 368.33C348.945 372.243 355.646 372.772 358.051 369.365C360.451 365.959 357.707 359.825 351.898 355.18Z" fill="#FFD96F"/>
<path d="M326.359 393.876C326.359 401.089 332.2 406.935 339.417 406.935C342.455 406.935 345.249 405.887 347.467 404.142L329.147 385.824C327.407 388.042 326.359 390.835 326.359 393.876Z" fill="#FFD96F"/>
<path d="M329.144 385.823L347.463 404.141C348.292 403.49 349.034 402.749 349.685 401.923L331.365 383.605C330.536 384.256 329.794 384.997 329.144 385.823Z" fill="#FFD96F"/>
<path d="M349.684 401.927C351.43 399.71 352.475 396.916 352.475 393.876C352.475 386.663 346.625 380.816 339.414 380.816C336.373 380.816 333.582 381.867 331.364 383.607L349.684 401.927Z" fill="#FFD96F"/>
<path d="M330.019 386.699C328.493 388.689 327.576 391.175 327.576 393.875C327.576 400.412 332.879 405.714 339.417 405.714C342.12 405.714 344.601 404.795 346.594 403.271L330.019 386.699Z" fill="white"/>
<path d="M332.234 384.481L348.812 401.053C350.335 399.061 351.255 396.577 351.255 393.875C351.255 387.337 345.952 382.035 339.414 382.035C336.711 382.038 334.23 382.958 332.234 384.481Z" fill="white"/>
<path d="M320.55 397.446C317.734 400.258 313.495 400.774 310.157 398.994C312.353 398.948 315.159 397.596 317.543 395.21L328.552 384.199L321.31 376.964L310.301 387.971C307.917 390.352 306.566 393.158 306.519 395.357C304.736 392.019 305.249 387.781 308.064 384.965C308.064 384.965 308.064 384.965 308.064 384.959L318.688 374.343L318.197 373.852L306.741 385.306C303.021 389.022 303.021 395.05 306.741 398.769C310.457 402.485 316.489 402.485 320.205 398.769L331.665 387.314L331.174 386.823L320.55 397.446Z" fill="#FFD96F"/>
<path d="M329.659 362.396L318.196 373.851L318.687 374.342L329.318 363.719C332.13 360.904 336.369 360.391 339.707 362.171C337.508 362.218 334.705 363.575 332.321 365.956L321.312 376.966L328.554 384.201L339.563 373.2C341.95 370.81 343.305 368.008 343.348 365.815C345.125 369.149 344.612 373.391 341.797 376.203L331.173 386.826L331.664 387.317L343.123 375.862C343.126 375.862 343.126 375.862 343.126 375.862C346.84 372.146 346.84 366.118 343.126 362.399C339.404 358.68 333.375 358.68 329.659 362.396Z" fill="#007BBC"/>
<path d="M332.318 365.956C334.705 363.576 337.508 362.218 339.704 362.172C336.366 360.392 332.127 360.908 329.315 363.72L318.685 374.343L321.306 376.964L332.318 365.956Z" fill="white"/>
<path d="M308.063 384.966C305.248 387.782 304.734 392.02 306.518 395.358C306.565 393.159 307.916 390.353 310.3 387.972L321.309 376.965L318.687 374.344L308.063 384.96C308.063 384.966 308.063 384.966 308.063 384.966Z" fill="white"/>
<path d="M310.157 398.999C313.495 400.778 317.737 400.262 320.55 397.45L331.174 386.828L328.552 384.203L317.543 395.214C315.156 397.6 312.353 398.952 310.157 398.999Z" fill="#FCC551"/>
<path d="M341.797 376.201C344.613 373.389 345.126 369.147 343.349 365.812C343.302 368.005 341.947 370.808 339.563 373.198L328.555 384.199L331.176 386.823L341.797 376.201Z" fill="#052F5F"/>
<path d="M356.03 295.872L351.676 292.703L350.981 292.828L326.292 326.755L326.702 327.052L331.028 330.199L331.438 330.496L356.124 296.569L356.03 295.872Z" fill="white"/>
<path d="M334.515 321.552L352.909 296.277L349.493 299.678L333.901 321.104L334.515 321.552Z" fill="#052F5F"/>
<path d="M335.684 322.4L327.656 336.023L322.241 332.085L332.734 320.258L335.684 322.4Z" fill="#052F5F"/>
<path d="M332.737 320.259C334.142 320.036 335.456 320.994 335.678 322.398L332.737 320.259Z" fill="#052F5F"/>
<path d="M325.61 326.225L325.162 326.84L331.743 331.631L332.19 331.017L325.61 326.225Z" fill="white"/>
<path d="M325.07 339.49L327.166 336.609L327.773 337.047L328.22 336.434L321.638 331.645L321.188 332.261L322.311 333.077L321.795 332.699L319.699 335.58L314.665 333.919L271.09 393.795L284.664 403.676L328.242 343.797L325.07 339.49Z" fill="white"/>
<path d="M323.775 339.541L320.049 336.829L315.009 335.168L308.023 344.768L308.424 345.056L319.561 353.16L319.958 353.448L326.944 343.848L323.775 339.541Z" fill="#052F5F"/>
<path d="M310.652 346.712L269.013 403.938L271.502 405.748L313.142 348.523L310.652 346.712Z" fill="#052F5F"/>
<path d="M314.844 349.728L273.197 406.953L275.684 408.762L317.331 351.537L314.844 349.728Z" fill="#052F5F"/>
<path d="M313.197 348.521L271.55 405.746L273.197 406.944L314.843 349.719L313.197 348.521Z" fill="#4E9FCA"/>
<path d="M267.945 390.225L267.347 391.047L288.367 406.362L288.966 405.54L267.945 390.225Z" fill="white"/>
<path d="M265.56 401.426L264.438 402.969L278.02 412.844L279.142 411.3L265.56 401.426Z" fill="#052F5F"/>
<path d="M201.034 277.186C189.596 282.076 178.158 286.963 166.72 291.853C163.459 284.23 160.199 276.603 156.938 268.979C147.161 246.099 181.479 231.432 191.256 254.313C194.517 261.936 197.777 269.56 201.034 277.186Z" fill="#E73861"/>
<path d="M270.988 592.737C270.955 590.235 267.701 586.66 263.763 584.789L234.44 571.765C227.952 571.856 227.238 571.601 220.747 571.692C214.069 577.856 211.835 587.019 214.877 593.958L270.998 593.848C271.002 593.492 270.995 593.123 270.988 592.737Z" fill="#052F5F"/>
<path d="M214.881 593.958C215.418 595.169 216.092 596.322 216.954 597.369C236.02 597.104 251.99 597.553 271.052 597.288C271.052 597.288 271.035 595.812 271.002 593.844L214.881 593.958Z" fill="#D7D6D6"/>
<path d="M204.543 365.02L146.138 381.259C155.547 418.149 171.302 449.199 187.597 482.718C186.732 517.988 194.816 548.79 213.097 580.311L237.932 572.02C226.913 500.944 225.062 451.275 204.543 365.02Z" fill="#B67D4D"/>
<path d="M178.926 596.268C178.892 593.766 175.638 590.187 171.697 588.319L142.377 575.293C135.886 575.383 135.175 575.128 128.685 575.219C122.003 581.387 119.772 590.543 122.814 597.482L178.936 597.368C178.936 597.019 178.929 596.651 178.926 596.268Z" fill="#052F5F"/>
<path d="M122.817 597.485C123.351 598.696 124.028 599.85 124.887 600.896C143.953 600.631 159.923 601.081 178.985 600.816C178.985 600.816 178.969 599.343 178.938 597.371L122.817 597.485Z" fill="#D7D6D6"/>
<path d="M132.378 367.203C131.624 373.827 131.134 380.344 130.829 386.8C129.373 417.227 132.355 446.161 135.099 476.786C121.765 509.443 118.374 541.104 124.267 577.054L150.431 578.124C164.449 512.126 179.319 466.603 190.569 388.651C191.314 383.5 192.038 378.211 192.749 372.761L132.378 367.203Z" fill="#D28D58"/>
<path d="M178.903 270.679C171.899 257.665 140.201 265.011 144.585 285.345C148.768 304.734 160.616 337.405 210.098 348.221C209.629 341.104 209.22 333.491 209.082 325.944C208.985 320.665 209.025 315.426 209.27 310.409C196.983 304.483 185.149 282.283 178.903 270.679Z" fill="#FCC551"/>
<path d="M210.098 348.225C160.615 337.406 148.768 304.739 144.585 285.35C140.201 265.015 171.899 257.67 178.903 270.683C185.149 282.284 196.983 304.487 209.266 310.417C209.367 308.311 209.501 306.238 209.679 304.226C212.594 271.632 205.365 242.701 185.726 230.775C169.621 220.995 146.524 231.191 135.679 252.344C120.36 282.217 127.216 351.529 129.064 383.569C142.133 385.511 192.035 390.408 212.023 378.468C212.003 375 211.675 370.046 211.249 364.173C210.896 359.377 210.477 353.961 210.098 348.225Z" fill="#FFD96F"/>
<path d="M129.862 271.585L130.449 285.269C147.64 244.089 172.103 250.338 179.999 266.306C177.51 245.88 148.09 231.737 129.862 271.585Z" fill="#052F5F"/>
<path d="M179.999 266.305C180.318 268.924 180.201 271.644 179.553 274.371C172.301 304.932 139.855 343.237 129.654 360.12L130.077 369.917C140.277 353.033 174.689 313.045 181.945 282.481C183.27 276.896 182.398 271.151 179.999 266.305Z" fill="#052F5F"/>
<path d="M172.67 245.014C166.102 245.014 160.775 239.688 160.775 233.118V205.24C160.775 198.67 166.102 193.344 172.67 193.344C179.241 193.344 184.568 198.673 184.568 205.24V233.118C184.568 239.688 179.241 245.014 172.67 245.014Z" fill="#F5AE8B"/>
<path d="M178.997 213.53C183.984 217.672 186.047 223.424 183.602 226.365C181.157 229.307 175.132 228.331 170.141 224.182C165.153 220.04 163.09 214.295 165.536 211.353C167.981 208.408 174.009 209.384 178.997 213.53Z" fill="#F18E7F"/>
<path d="M201.594 177.801C210.087 194.906 205.304 214.563 190.921 221.707C176.531 228.848 157.978 220.778 149.488 203.673C140.998 186.568 145.771 166.911 160.165 159.767C174.552 152.62 193.101 160.696 201.594 177.801Z" fill="#F5AE8B"/>
<path d="M205.361 174.182C201.329 181.842 188.56 179.092 187.459 186.628C184.041 210.075 173.116 191.555 171.11 199.145C167.26 213.681 166.196 223.139 152.447 213.359C141.035 205.246 135.39 170.945 157.465 159.002C174.065 150.02 188.274 155.93 197.066 161.702C204.073 166.297 207.807 169.547 205.361 174.182Z" fill="#B44822"/>
<path d="M193.399 162.883C209.51 157.476 224.568 155.162 227.026 157.714C229.485 160.27 218.413 166.72 202.298 172.126L193.399 162.883Z" fill="#052F5F"/>
<path d="M192.115 188.728C191.998 188.728 191.88 188.698 191.776 188.638C191.437 188.447 191.317 188.021 191.505 187.685C193.031 184.975 196.227 182.413 199.924 182.815C200.31 182.856 200.585 183.204 200.544 183.587C200.501 183.972 200.135 184.247 199.773 184.207C196.684 183.872 194.024 186.059 192.726 188.373C192.598 188.601 192.36 188.728 192.115 188.728Z" fill="#B44822"/>
<path d="M199.515 189.928C199.847 191.571 199.424 193.04 198.579 193.208C197.734 193.375 196.781 192.185 196.452 190.538C196.12 188.898 196.543 187.429 197.385 187.258C198.233 187.09 199.186 188.284 199.515 189.928Z" fill="#B44822"/>
<path d="M194.063 204.058C195.479 209.894 201.419 207.741 203.335 203.938L194.063 204.058Z" fill="white"/>
<path d="M203.215 188.523C203.215 188.523 210.272 194.574 208.924 196.539C207.082 199.229 203.567 198.729 203.567 198.729L203.215 188.523Z" fill="#F5AE8B"/>
<path d="M140.562 192.838C134.162 173.771 142.796 153.677 159.846 147.959C176.896 142.24 195.902 153.057 202.299 172.12L140.562 192.838Z" fill="#4E9FCA"/>
<path d="M177.671 214.228L177.275 213.997C174.635 212.451 172.213 210.643 170.08 208.624C166.971 205.686 165.324 202.195 165.676 199.287C165.917 197.261 167.132 195.567 169.188 194.397C169.959 193.957 170.999 193.746 172.371 193.746C174.35 193.746 176.819 194.199 179.204 194.638C181.065 194.984 182.994 195.336 184.692 195.48L185.238 195.524L185.141 196.06C183.886 202.946 180.177 210.61 177.939 213.853L177.671 214.228ZM172.368 194.732C171.174 194.732 170.295 194.903 169.678 195.255C167.883 196.282 166.867 197.677 166.659 199.401C166.35 201.963 167.923 205.22 170.761 207.906C172.733 209.771 174.957 211.455 177.376 212.904C179.519 209.634 182.796 202.751 184.061 196.412C182.458 196.245 180.717 195.923 179.023 195.614C176.678 195.178 174.256 194.732 172.368 194.732Z" fill="white"/>
<path d="M206.948 190.066C206.74 189.885 206.432 189.912 206.254 190.117C204.362 192.297 196.446 195.49 187.077 195.577L186.893 195.58C186.249 195.58 185.531 195.543 184.692 195.476C184.407 195.446 184.209 195.627 184.162 195.882C182.935 202.623 179.305 210.116 177.118 213.289C177.041 213.406 177.014 213.54 177.044 213.678C177.075 213.812 177.158 213.926 177.276 213.996C184.836 218.43 193.38 220.332 201.487 221.731C201.514 221.734 201.544 221.737 201.571 221.737C201.725 221.737 201.87 221.667 201.964 221.546C205.969 216.371 210.832 208.379 211.235 199.695C211.413 195.882 210.799 193.35 206.948 190.066Z" fill="white"/>
<path d="M177.071 195.731C180.033 199.887 180.2 204.854 177.436 206.819C174.676 208.781 170.037 207.004 167.078 202.845C164.113 198.686 163.952 193.726 166.709 191.757C169.473 189.792 174.112 191.573 177.071 195.731Z" fill="#F5AE8B"/>
<path d="M279.388 333.027C241.541 328.365 196.043 322.026 179.808 280.196C175.377 268.779 165.958 256.474 155.184 263.292C141.871 271.721 149.586 291.187 155.966 300.641C180.687 337.283 230.344 349.796 279.643 348.311L279.388 333.027Z" fill="#F5AE8B"/>
<path d="M295.12 338.649C298.236 338.112 300.829 337.418 302.291 336.667C303.264 336.167 303.65 334.973 303.15 333.997C302.647 333.024 301.463 332.635 300.48 333.138C297.297 334.768 284.936 336.512 276.845 335.419C275.758 335.268 274.762 336.033 274.618 337.116C274.47 338.199 275.228 339.199 276.315 339.346C281.803 340.091 289.354 339.641 295.12 338.649Z" fill="#F5AE8B"/>
<path d="M299.624 342.468C302.523 341.968 304.938 341.358 306.001 340.771C306.96 340.241 307.302 339.033 306.772 338.078C306.242 337.122 305.032 336.77 304.079 337.306C302.029 338.44 289.491 340.211 285.211 339.409C284.134 339.204 283.098 339.915 282.896 340.992C282.692 342.069 283.403 343.102 284.48 343.303C287.673 343.9 294.422 343.363 299.624 342.468Z" fill="#F5AE8B"/>
<path d="M301.932 347.043C303.106 346.838 304.049 346.593 304.626 346.312C305.612 345.832 306.018 344.645 305.535 343.659C305.055 342.676 303.864 342.267 302.882 342.75C301.221 343.561 290.36 344.283 286.563 343.015C285.526 342.669 284.403 343.229 284.057 344.269C283.712 345.309 284.272 346.429 285.312 346.778C288.824 347.952 297.233 347.851 301.932 347.043Z" fill="#F5AE8B"/>
<path d="M299.986 352.08C300.308 352.023 300.583 351.96 300.808 351.886C301.844 351.534 302.405 350.41 302.052 349.37C301.703 348.334 300.583 347.774 299.537 348.129C297.836 348.706 289.729 348.227 287.364 346.687C286.445 346.087 285.217 346.345 284.62 347.261C284.019 348.18 284.281 349.407 285.197 350.004C288.414 352.104 296.625 352.661 299.986 352.08Z" fill="#F5AE8B"/>
<path d="M284.383 353.954C287.391 353.471 289.629 352.233 291.178 350.318C293.594 347.34 294.07 342.926 292.634 336.825L292.342 335.075L290.323 335.333C285.064 336.376 281.981 334.96 281.437 333.642C281.008 332.603 282.333 331.489 283.001 331.01C284.591 330.446 286.154 329.681 287.562 328.333C288.357 327.578 288.381 326.321 287.626 325.533C286.871 324.734 285.61 324.714 284.822 325.469C282.977 327.24 280.284 327.669 277.932 328.417C271.878 330.342 267.192 335.363 267.041 340.099C266.897 344.576 268.007 348.094 270.338 350.556C272.562 352.907 278.479 354.899 284.383 353.954Z" fill="#F5AE8B"/>
<path d="M188.683 293.556C177.241 298.446 165.803 303.333 154.365 308.223C151.108 300.599 147.847 292.972 144.587 285.346C134.809 262.469 169.127 247.799 178.905 270.679C182.162 278.309 185.426 285.929 188.683 293.556Z" fill="#FFD96F"/>
<path d="M130.775 276.022C130.775 280.12 127.42 283.474 123.321 283.474H74.3918C70.2928 283.474 66.9385 280.12 66.9385 276.022V242.761C66.9385 238.663 70.2928 235.309 74.3918 235.309H123.321C127.42 235.309 130.775 238.663 130.775 242.761V276.022Z" fill="#4E9FCA"/>
<path d="M105.382 363.006C105.382 366.082 102.866 368.597 99.7905 368.597H67.2939C64.2179 368.597 61.7021 366.082 61.7021 363.006V303.88C61.7021 300.805 64.2179 298.289 67.2939 298.289H99.7905C102.866 298.289 105.382 300.805 105.382 303.88V363.006Z" fill="#4E9FCA"/>
<path d="M130.774 369.476C130.774 373.061 127.839 375.996 124.253 375.996H77.635C74.0493 375.996 71.1143 373.061 71.1143 369.476V251.438C71.1143 247.853 74.0493 244.918 77.635 244.918H124.253C127.839 244.918 130.774 247.853 130.774 251.438V369.476Z" fill="#052F5F"/>
<path d="M93.9707 361.858V355.523C93.9707 354.007 94.2591 352.672 94.8361 351.508C95.413 350.344 96.2281 349.442 97.278 348.798C98.3279 348.154 99.5489 347.832 100.944 347.832C102.34 347.832 103.561 348.154 104.611 348.798C105.661 349.442 106.476 350.348 107.049 351.508C107.626 352.668 107.918 354.007 107.918 355.523V361.858H93.9707ZM105.268 355.68C105.268 354.285 104.879 353.175 104.104 352.343C103.326 351.515 102.273 351.099 100.944 351.099C99.616 351.099 98.5627 351.515 97.7845 352.343C97.0063 353.175 96.6172 354.285 96.6172 355.68V358.628H105.265V355.68H105.268Z" fill="#B1DCDE"/>
<path d="M105.328 334.605H107.918V345.402H93.9707V334.864H96.5602V342.195H99.5892V335.719H102.098V342.195H105.325V334.605H105.328Z" fill="#B1DCDE"/>
<path d="M93.9707 332.032V328.805H105.288V321.812H107.918V332.032H93.9707Z" fill="#B1DCDE"/>
<path d="M93.9707 320V316.773H107.918V320H93.9707Z" fill="#B1DCDE"/>
<path d="M93.9707 300.137L107.918 306.174V309.36L93.9707 315.377V311.889L103.933 307.646L93.9707 303.343V300.137Z" fill="#B1DCDE"/>
<path d="M105.328 288.184H107.918V298.983H93.9707V288.445H96.5602V295.777H99.5892V289.3H102.098V295.777H105.325V288.184H105.328Z" fill="#B1DCDE"/>
<path d="M107.918 276.726L104.034 279.416V279.577V282.388H107.918V285.614H93.9707V279.577C93.9707 278.343 94.1786 277.27 94.5878 276.357C95.0004 275.448 95.5841 274.747 96.3421 274.254C97.1002 273.765 97.9958 273.52 99.0323 273.52C100.069 273.52 100.961 273.768 101.712 274.268C102.464 274.764 103.037 275.472 103.437 276.391L107.921 273.262V276.726H107.918ZM97.2277 277.545C96.8084 278.048 96.6004 278.786 96.6004 279.755V282.384H101.461V279.755C101.461 278.786 101.25 278.048 100.824 277.545C100.398 277.038 99.8005 276.787 99.029 276.787C98.2474 276.787 97.647 277.038 97.2277 277.545Z" fill="#B1DCDE"/>
<path d="M102.977 264.474H107.918V267.701H102.937L93.9707 273.1V269.673L100.169 265.946L93.9707 262.22V259.051L102.977 264.474Z" fill="#B1DCDE"/>
<path d="M414.123 580.95C414.157 578.451 417.407 574.873 421.348 572.998L450.669 559.971C457.159 560.062 457.87 559.81 464.361 559.898C471.039 566.062 473.273 575.225 470.228 582.164L414.106 582.054C414.11 581.701 414.117 581.336 414.123 580.95Z" fill="#E5A344"/>
<path d="M470.228 582.169C469.694 583.38 469.02 584.534 468.158 585.587C449.092 585.315 433.122 585.768 414.06 585.503C414.06 585.503 414.076 584.027 414.107 582.059L470.228 582.169Z" fill="#D7D6D6"/>
<path d="M495.174 349.144L435.584 337.996C419.118 423.997 451.101 490.176 446.248 561.94L467.061 562.862C479.922 518.504 478.258 480.232 465.136 458.616C477.413 424.138 489.549 383.271 495.174 349.144Z" fill="#F18E7F"/>
<path d="M490.176 583.016C489.488 580.612 491.575 576.252 494.812 573.324L519.151 552.422C525.393 550.644 526 550.198 532.243 548.414C540.41 552.402 545.187 560.532 544.261 568.055L490.478 584.076C490.377 583.737 490.28 583.385 490.176 583.016Z" fill="#F3C252"/>
<path d="M544.265 568.059C544.104 569.37 543.788 570.671 543.262 571.922C524.924 577.148 509.759 582.168 491.424 587.394C491.424 587.394 491.018 585.975 490.481 584.084L544.265 568.059Z" fill="#D7D6D6"/>
<path d="M507.571 341.693C503.868 322.971 485.711 310.763 466.964 314.415C448.462 318.014 436.295 335.723 439.432 354.203C458.424 356.161 489.471 350.104 507.571 341.693Z" fill="#E51F5C"/>
<path d="M509.215 456.536C507.927 425.335 509.825 395.263 504.133 364.77C504.633 363.841 505.079 362.881 505.488 361.909C506.83 358.743 507.699 355.369 508.054 351.87C508.386 348.59 508.259 345.206 507.598 341.799C507.592 341.765 507.581 341.728 507.571 341.691C489.471 350.103 458.42 356.157 439.432 354.198C439.479 354.477 439.519 354.758 439.572 355.037C439.982 357.129 444.839 373.916 445.238 375.341C466.649 451.7 494.161 490.622 516.759 554.467L535.063 550.04C531.951 510.494 525.883 476.532 509.215 456.536Z" fill="#F5AE8B"/>
<path d="M430.617 497.768C430.795 507.071 433.18 516.835 441.801 504.66C442.72 513.94 453.068 514.997 457.103 507.262C457.707 516.046 470.436 517.25 470.782 507.712C474.998 515.966 489.123 514.437 490.975 505.109C493.155 516.687 510.44 511.529 509.447 501.054C510.202 511.696 524.152 506.937 522.935 497.026C527.242 509.936 540.334 503.194 539.626 491.596C539.871 496.778 544 500.981 547.633 495.943C552.208 489.604 541.316 474.24 540.079 468.035L430.617 497.768Z" fill="#EAF6FD"/>
<path d="M504.714 313.77C494.081 289.444 497.643 281.991 498.287 252.913C498.998 220.746 478.557 209.127 459.974 212.421C438.939 216.154 422.063 249.327 419.43 260.141C417.243 269.112 418.293 276.115 420.651 282.592C430.597 278.862 439.113 269.619 443.088 252.819C448.814 228.61 481.039 232.129 480.177 256.991C478.684 299.998 453.034 351.629 428.487 372.835C425.116 396.407 427.232 460.53 430.657 498.936C459.461 503.903 529.962 497.42 544.265 479.657C538.891 408.622 518.249 344.74 504.714 313.77Z" fill="#DB4444"/>
<path d="M480.177 256.992C481.043 232.13 448.818 228.608 443.088 252.82C439.114 269.62 430.597 278.863 420.651 282.593C424.036 291.886 430.124 300.09 433.25 311.456C437.205 325.831 432.472 344.989 428.487 372.836C453.031 351.633 478.685 300 480.177 256.992Z" fill="#DB4444"/>
<path d="M469.302 208.024C470.385 209.742 464.656 215.302 456.505 220.441C448.354 225.579 440.867 228.349 439.784 226.632C438.7 224.911 444.43 219.354 452.581 214.216C460.732 209.078 468.218 206.307 469.302 208.024Z" fill="#EAF6FD"/>
<path d="M475.826 211.813C479.442 216.512 475.622 225.518 467.293 231.927C458.964 238.336 449.277 239.721 445.661 235.023C442.045 230.324 445.866 221.318 454.194 214.909C462.523 208.5 472.207 207.115 475.826 211.813Z" fill="#EAF6FD"/>
<path d="M460.198 224.226C452.775 225.188 448.304 221.818 448.304 215.247V187.37C448.304 180.799 453.627 175.477 460.198 175.477C466.769 175.477 472.096 180.803 472.096 187.37V215.247C472.096 221.818 467.621 223.26 460.198 224.226Z" fill="#F5AE8B"/>
<path d="M453.879 195.765C448.895 199.907 446.832 205.656 449.274 208.597C451.719 211.538 457.744 210.566 462.735 206.417C467.723 202.275 469.782 196.53 467.34 193.585C464.895 190.644 458.871 191.62 453.879 195.765Z" fill="#F18E7F"/>
<path d="M431.284 160.038C422.791 177.143 427.574 196.8 441.957 203.944C456.348 211.085 474.897 203.012 483.394 185.91C491.883 168.805 487.107 149.148 472.717 142.004C458.327 134.86 439.777 142.933 431.284 160.038Z" fill="#F5AE8B"/>
<path d="M440.76 170.964C440.512 170.964 440.277 170.833 440.146 170.605C438.851 168.291 436.178 166.115 433.102 166.44C432.71 166.483 432.374 166.202 432.331 165.819C432.287 165.434 432.566 165.092 432.951 165.048C436.651 164.656 439.844 167.205 441.367 169.921C441.558 170.257 441.438 170.686 441.099 170.874C440.995 170.934 440.877 170.964 440.76 170.964Z" fill="#DFE9F0"/>
<path d="M433.364 172.159C433.035 173.802 433.455 175.271 434.3 175.439C435.145 175.606 436.098 174.416 436.426 172.772C436.755 171.129 436.336 169.663 435.491 169.492C434.645 169.325 433.693 170.515 433.364 172.159Z" fill="#86371B"/>
<path d="M439.305 185.199C438.037 191.894 430.463 194.952 430.463 187.983L439.305 185.199Z" fill="white"/>
<path d="M428.775 170.758C426.917 177.194 421.507 177.224 422.855 179.186C424.697 181.876 428.269 182.339 428.269 182.339L428.775 170.758Z" fill="#F5AE8B"/>
<path d="M436.018 181.476C430.969 181.476 426.86 177.368 426.86 172.32C426.86 167.273 430.969 163.164 436.018 163.164C441.066 163.164 445.175 167.273 445.175 172.32C445.175 177.368 441.069 181.476 436.018 181.476ZM436.018 164.485C431.697 164.485 428.182 168 428.182 172.32C428.182 176.64 431.697 180.155 436.018 180.155C440.338 180.155 443.853 176.64 443.853 172.32C443.853 168 440.341 164.485 436.018 164.485Z" fill="#86371B"/>
<path d="M463.134 183.549C463.01 183.549 462.882 183.513 462.771 183.439C462.466 183.238 462.386 182.828 462.587 182.523L462.872 182.097C463.888 180.588 465.15 178.713 464.677 177.026C464.103 174.994 461.393 174.081 459.095 173.511C454.49 172.371 449.522 172.066 445.477 172.679C445.108 172.736 444.779 172.485 444.725 172.126C444.671 171.764 444.92 171.428 445.279 171.375C449.495 170.738 454.644 171.049 459.414 172.23C462.06 172.884 465.19 173.981 465.948 176.667C466.589 178.941 465.133 181.101 463.969 182.835L463.69 183.254C463.56 183.445 463.348 183.549 463.134 183.549Z" fill="#86371B"/>
<path d="M518.225 202.219C517.829 194.434 513.012 190.212 505.66 189.105C508.085 184.104 510.258 177.554 506.904 172.466C503.989 168.046 497.784 167.006 494.976 162.532C492.001 157.783 493.745 154.513 493.983 149.851C494.446 140.789 480.479 132.156 471.476 135.684C469.896 131.408 465.485 130.942 460.199 131.334C451.347 131.995 441.102 138.277 434.313 144.075C431.459 146.517 426.578 151.32 428.188 155.63C430.419 161.59 442.793 162.468 448.059 161.647C448.261 165.232 449.193 167.865 452.417 169.666C455.013 171.118 460.648 170.87 461.919 174.033C463.13 177.051 459.233 181.347 458.703 184.265C457.861 188.89 460.138 188.833 462.396 191.782C464.291 194.253 463.741 194.109 461.936 197.154C459.947 200.512 457.978 203.933 458.592 208.001C460.98 223.818 486.725 228.886 498.921 225.757C509.574 223.023 518.812 213.793 518.225 202.219Z" fill="#DFE9F0"/>
<path d="M484.306 221.237C479.147 221.237 474.78 219.544 473.713 212.42C472.962 207.396 474.045 202.526 477.124 197.096C478.929 193.92 479.466 191.793 478.818 190.412C477.889 188.419 474.29 187.769 469.731 186.94C467.216 186.484 465.807 185.73 465.3 184.569C464.606 182.976 465.834 181.051 467.132 179.008C467.86 177.865 468.615 176.684 469.087 175.497C469.711 173.941 469.762 172.666 469.242 171.603C468.101 169.265 464.23 168.142 460.487 167.058C456.23 165.824 451.826 164.546 450.615 161.367C449.864 159.391 450.427 156.95 452.343 153.904C452.483 153.68 452.779 153.612 453.003 153.753C453.228 153.894 453.295 154.189 453.154 154.414C451.41 157.188 450.873 159.351 451.511 161.025C452.551 163.758 456.723 164.969 460.755 166.139C464.881 167.337 468.779 168.467 470.104 171.184C470.748 172.505 470.708 174.031 469.976 175.856C469.466 177.123 468.692 178.344 467.94 179.525C466.78 181.346 465.686 183.063 466.176 184.187C466.535 185.005 467.786 185.616 469.902 185.998C474.917 186.91 478.543 187.568 479.684 190.006C480.485 191.716 479.952 194.051 477.953 197.569C474.984 202.801 473.938 207.476 474.656 212.279C475.783 219.805 480.754 220.832 487.872 220.06C488.133 220.033 488.371 220.221 488.398 220.483C488.428 220.744 488.237 220.983 487.976 221.009C486.735 221.147 485.5 221.237 484.306 221.237Z" fill="#A2AFBB"/>
<path d="M475.34 216.643C472.419 216.643 469.514 215.663 467.545 213.886C466.116 212.598 464.563 210.321 465.277 206.806C465.868 203.894 467.622 201.463 469.319 199.112C470.537 197.425 471.795 195.681 472.58 193.803C472.68 193.558 472.962 193.444 473.207 193.544C473.452 193.645 473.566 193.927 473.465 194.171C472.637 196.154 471.345 197.941 470.097 199.672C468.383 202.046 466.767 204.287 466.217 206.997C465.593 210.072 466.944 212.055 468.189 213.178C470.711 215.455 475.132 216.304 478.705 215.19C478.956 215.113 479.225 215.254 479.305 215.506C479.386 215.757 479.241 216.026 478.99 216.106C477.816 216.468 476.575 216.643 475.34 216.643Z" fill="#A2AFBB"/>
<path d="M494.215 189.809C494.117 189.809 494.017 189.779 493.93 189.715C493.718 189.558 493.671 189.256 493.829 189.045C496.459 185.499 500.289 179.117 496.395 176.186C495.301 175.364 493.695 175.005 492.138 174.66C489.153 173.996 485.769 173.244 485.705 168.941C485.681 167.305 486.218 165.859 486.691 164.585C487.164 163.317 487.536 162.317 487.14 161.693C486.748 161.076 485.557 160.684 483.491 160.499C482.931 160.449 482.059 160.463 481.049 160.476C477.383 160.526 472.358 160.593 470.761 158.236C470.131 157.303 470.114 156.102 470.711 154.674C470.815 154.429 471.093 154.315 471.338 154.415C471.583 154.519 471.697 154.798 471.597 155.043C471.124 156.17 471.11 157.038 471.556 157.696C472.861 159.627 477.778 159.557 481.036 159.517C482.072 159.5 482.968 159.49 483.575 159.544C486.023 159.762 487.375 160.268 487.949 161.18C488.596 162.207 488.127 163.461 487.587 164.917C487.14 166.111 486.637 167.466 486.661 168.921C486.714 172.47 489.324 173.046 492.343 173.717C494 174.086 495.711 174.465 496.969 175.411C500.393 177.99 499.575 182.897 494.597 189.605C494.507 189.742 494.359 189.809 494.215 189.809Z" fill="#A2AFBB"/>
<path d="M498.25 217.981C495.577 217.981 493.061 217.149 491.29 215.579C489.509 214.003 488.861 212.142 489.458 210.341C490.26 207.932 493.275 205.917 496.472 205.652C496.73 205.625 496.969 205.826 496.989 206.091C497.012 206.356 496.814 206.584 496.553 206.608C493.715 206.842 491.055 208.576 490.367 210.642C489.888 212.078 490.428 213.537 491.924 214.865C494.329 216.998 498.283 217.615 502 216.441C505.27 215.408 507.515 213.259 508.159 210.549C509.99 202.821 502.782 200.115 496.425 197.73C495.489 197.378 494.587 197.039 493.755 196.697C490.974 195.553 489.408 194.138 488.958 192.374C488.284 189.717 490.344 186.719 492.444 184.133C492.611 183.929 492.913 183.898 493.118 184.063C493.322 184.23 493.353 184.532 493.188 184.737C490.421 188.138 489.435 190.351 489.888 192.136C490.257 193.588 491.642 194.789 494.121 195.808C494.943 196.147 495.835 196.479 496.761 196.828C502.819 199.102 511.114 202.214 509.088 210.763C508.377 213.765 505.834 216.227 502.289 217.35C500.95 217.776 499.582 217.981 498.25 217.981Z" fill="#A2AFBB"/>
<path d="M462.071 163.493C462.057 163.493 462.047 163.493 462.034 163.493C461.769 163.473 461.571 163.245 461.591 162.98C461.655 162.108 461.433 161.441 460.917 160.934C459.169 159.231 454.533 159.69 451.468 159.992C450.589 160.079 449.831 160.153 449.281 160.163C443.203 160.267 437.091 159.828 433.623 155.88C431.845 153.854 431.415 151.53 432.385 149.155C434.149 144.822 440.271 141.213 444.564 140.881C444.833 140.854 445.058 141.059 445.078 141.321C445.098 141.586 444.9 141.814 444.638 141.834C440.704 142.139 434.881 145.563 433.27 149.514C432.439 151.56 432.797 153.489 434.34 155.246C437.554 158.905 443.407 159.318 449.264 159.204C449.777 159.194 450.515 159.123 451.374 159.036C454.617 158.717 459.521 158.234 461.584 160.247C462.309 160.951 462.631 161.893 462.547 163.047C462.53 163.299 462.319 163.493 462.071 163.493Z" fill="#A2AFBB"/>
<path d="M463.935 155.803C463.895 155.803 463.854 155.796 463.814 155.786C463.559 155.722 463.405 155.461 463.469 155.202C463.623 154.602 463.566 154.152 463.297 153.834C462.305 152.65 458.504 152.945 455.15 153.21C451.38 153.502 447.817 153.78 446.268 152.479C444.812 151.255 444.242 149.709 444.617 148.001C445.298 144.926 449.018 141.904 451.93 141.123C452.188 141.052 452.446 141.206 452.517 141.461C452.587 141.716 452.436 141.978 452.178 142.048C449.535 142.759 446.143 145.546 445.553 148.209C445.251 149.564 445.701 150.755 446.881 151.748C448.129 152.797 451.661 152.522 455.076 152.258C459.004 151.949 462.721 151.66 464.032 153.223C464.508 153.79 464.629 154.538 464.398 155.447C464.341 155.658 464.146 155.803 463.935 155.803Z" fill="#A2AFBB"/>
<path d="M488.858 157.901C488.754 157.901 488.65 157.867 488.56 157.797C486.933 156.512 485.085 156.509 483.297 156.502C481.663 156.499 480.12 156.495 479.074 155.409C478.175 154.476 477.799 152.897 477.886 150.431C477.913 149.687 478.088 148.862 478.275 147.99C478.708 145.967 479.154 143.874 477.823 142.58C476.115 140.92 471.456 141.624 468.739 142.503C468.488 142.583 468.219 142.449 468.135 142.194C468.055 141.943 468.192 141.674 468.444 141.59C470.97 140.772 476.32 139.783 478.49 141.892C480.197 143.556 479.674 146.018 479.211 148.188C479.034 149.019 478.866 149.804 478.842 150.465C478.768 152.621 479.067 154.02 479.765 154.745C480.529 155.539 481.814 155.543 483.3 155.543C485.162 155.546 487.268 155.553 489.157 157.042C489.365 157.206 489.398 157.505 489.234 157.716C489.14 157.837 488.999 157.901 488.858 157.901Z" fill="#A2AFBB"/>
<path d="M355.322 332.249C392.076 322.077 436.148 309.128 446.063 265.366C448.767 253.419 456.277 239.863 467.937 245.028C482.34 251.41 477.57 271.799 472.65 282.088C453.58 321.96 406.305 341.637 357.315 347.406L355.322 332.249Z" fill="#F5AE8B"/>
<path d="M334.191 334.446C331.074 333.909 328.485 333.215 327.019 332.463C326.043 331.964 325.657 330.766 326.16 329.794C326.657 328.821 327.848 328.432 328.83 328.935C332.01 330.565 344.374 332.309 352.465 331.216C353.555 331.061 354.551 331.826 354.696 332.913C354.843 333.996 354.082 334.996 352.995 335.143C347.504 335.884 339.953 335.438 334.191 334.446Z" fill="#F5AE8B"/>
<path d="M329.682 338.266C326.784 337.766 324.365 337.156 323.302 336.569C322.343 336.039 322 334.831 322.53 333.876C323.06 332.92 324.268 332.567 325.224 333.101C327.273 334.234 339.812 336.005 344.092 335.204C345.169 334.999 346.202 335.707 346.407 336.787C346.611 337.863 345.9 338.9 344.827 339.098C341.633 339.698 334.888 339.161 329.682 338.266Z" fill="#F5AE8B"/>
<path d="M327.377 342.842C326.2 342.637 325.261 342.392 324.684 342.111C323.698 341.631 323.292 340.444 323.775 339.461C324.258 338.478 325.445 338.066 326.425 338.552C328.085 339.364 338.95 340.085 342.744 338.82C343.78 338.475 344.904 339.035 345.253 340.075C345.598 341.114 345.035 342.235 343.998 342.583C340.483 343.751 332.077 343.65 327.377 342.842Z" fill="#F5AE8B"/>
<path d="M329.319 347.875C329 347.818 328.722 347.751 328.497 347.677C327.461 347.329 326.904 346.202 327.256 345.162C327.605 344.126 328.725 343.565 329.768 343.921C331.472 344.498 339.576 344.018 341.941 342.479C342.86 341.882 344.088 342.137 344.685 343.052C345.282 343.971 345.024 345.199 344.108 345.796C340.895 347.899 332.68 348.455 329.319 347.875Z" fill="#F5AE8B"/>
<path d="M351.374 324.218C349.026 323.47 346.332 323.04 344.487 321.27C343.702 320.515 342.441 320.535 341.683 321.333C340.925 322.122 340.952 323.379 341.744 324.134C343.152 325.482 344.715 326.247 346.305 326.81C346.973 327.29 348.298 328.403 347.869 329.443C347.325 330.758 344.243 332.177 338.983 331.134L337.108 330.765L336.668 332.626C335.233 338.727 335.709 343.14 338.124 346.119C339.674 348.034 341.918 349.235 344.92 349.751C348.721 350.405 356.996 349.047 358.968 346.357C360.97 343.623 362.409 340.377 362.265 335.899C362.114 331.164 357.428 326.139 351.374 324.218Z" fill="#F5AE8B"/>
<path d="M365.771 328.17C363.862 326.993 359.488 325.366 358.945 327.808C358.455 329.995 359.559 330.867 362.071 332.182C362.34 332.366 362.34 332.353 362.068 332.141C357.7 332.792 357.724 335.76 361.82 336.998C358.341 340.14 359.737 344.215 364.379 342.21C361.729 344.293 360.565 347.734 363.024 349.709C365.805 351.936 369.424 347.848 372.607 346.1L365.771 328.17Z" fill="#EAF6FD"/>
<path d="M367.66 325.007C360.079 329.169 364.332 347.126 376.894 349.473C405.58 354.836 476.38 312.58 486.074 262.292C490.914 237.194 462.56 223.749 451.075 246.585C431.234 297.364 399.791 307.368 367.66 325.007Z" fill="#DB4444"/>
<path d="M457.358 194.216L457.71 193.924C460.068 191.972 462.165 189.802 463.949 187.464C466.545 184.067 467.609 180.358 466.797 177.54C466.233 175.578 464.764 174.102 462.547 173.274C461.715 172.965 460.655 172.922 459.3 173.14C457.344 173.455 454.983 174.3 452.699 175.115C450.914 175.753 449.073 176.413 447.416 176.829L446.886 176.96L447.067 177.473C449.411 184.067 454.302 191.036 457.029 193.877L457.358 194.216ZM459.464 174.123C460.642 173.931 461.537 173.958 462.205 174.206C464.14 174.931 465.368 176.145 465.848 177.815C466.562 180.294 465.536 183.762 463.164 186.867C461.517 189.024 459.592 191.04 457.438 192.864C454.799 189.98 450.458 183.711 448.194 177.658C449.75 177.235 451.417 176.638 453.038 176.058C455.278 175.253 457.596 174.424 459.464 174.123Z" fill="white"/>
<path d="M424.582 175.064C424.757 174.853 425.065 174.829 425.273 175C427.491 176.848 435.816 178.73 445.081 177.314L445.262 177.287C445.896 177.183 446.6 177.033 447.415 176.831C447.69 176.754 447.915 176.905 448.006 177.147C450.297 183.603 455.083 190.418 457.75 193.198C457.844 193.299 457.894 193.43 457.887 193.571C457.877 193.708 457.813 193.836 457.709 193.923C450.957 199.51 442.83 202.76 435.051 205.44C435.024 205.45 434.994 205.454 434.971 205.457C434.82 205.484 434.665 205.437 434.551 205.333C429.765 200.865 423.687 193.758 421.895 185.25C421.107 181.52 421.305 178.921 424.582 175.064Z" fill="white"/>
<path d="M454.731 177.687C452.474 182.262 453.108 187.192 456.147 188.688C459.186 190.184 463.479 187.685 465.733 183.104C467.991 178.522 467.357 173.602 464.318 172.103C461.279 170.604 456.985 173.106 454.731 177.687Z" fill="#F5AE8B"/>
</svg>
