<svg width="710" height="624" viewBox="0 0 710 624" fill="none" xmlns="http://www.w3.org/2000/svg">
<rect width="710" height="624" fill="white"/>
<path d="M381.485 108.915C418.35 116.749 488.958 78.5057 546.728 116.376C608.971 157.181 583.033 223.107 567.649 251.684C540.123 302.817 507.516 322.756 514.559 384.112C522.603 454.179 496.533 530.137 431.609 560.952C352.541 598.48 242.341 488.497 193.024 478.171C117.779 462.411 104.522 351.745 146.778 302.076C175.807 267.956 185.88 225.88 173.536 176.373C161.182 126.822 187.631 49.0555 277.25 55.3608C313.576 57.9165 327.549 97.4569 381.485 108.915Z" fill="#4E9FCA" fill-opacity="0.5"/>
<path d="M559.525 592.326C559.525 609.819 467.747 623.999 354.535 623.999C241.322 623.999 149.548 609.819 149.548 592.326C149.548 574.833 241.325 560.652 354.535 560.652C467.747 560.652 559.525 574.833 559.525 592.326Z" fill="#A9ABAE" fill-opacity="0.5"/>
<path d="M430.772 557.286C430.772 565.242 424.265 571.754 416.309 571.754H230.441C222.484 571.754 215.975 565.242 215.975 557.286V139.648C215.975 131.692 222.484 125.18 230.441 125.18H416.312C424.269 125.18 430.775 131.692 430.775 139.648V557.286H430.772Z" fill="#424853"/>
<path d="M237.039 545.966C229.434 545.966 223.209 539.741 223.209 532.134V164.8C223.209 157.193 229.434 150.969 237.039 150.969H409.71C417.318 150.969 423.54 157.193 423.54 164.8V532.137C423.54 539.744 417.318 545.969 409.71 545.969H237.039V545.966Z" fill="white"/>
<path d="M413.604 222.879C413.604 225.528 411.435 227.697 408.786 227.697H237.961C235.312 227.697 233.143 225.528 233.143 222.879V192.001C233.143 189.352 235.312 187.184 237.961 187.184H408.786C411.435 187.184 413.604 189.352 413.604 192.001V222.879Z" fill="#052F5F"/>
<path d="M258.723 212.994C257.551 212.364 256.634 211.498 255.97 210.391C255.306 209.287 254.976 208.045 254.976 206.665C254.976 205.286 255.306 204.044 255.97 202.94C256.634 201.835 257.551 200.967 258.723 200.34C259.895 199.71 261.21 199.395 262.672 199.395C264.132 199.395 265.447 199.71 266.61 200.34C267.775 200.97 268.693 201.835 269.363 202.94C270.033 204.044 270.366 205.286 270.366 206.665C270.366 208.045 270.033 209.287 269.363 210.391C268.693 211.495 267.775 212.364 266.61 212.994C265.444 213.624 264.132 213.939 262.672 213.939C261.213 213.939 259.898 213.624 258.723 212.994ZM264.924 210.593C265.594 210.21 266.12 209.678 266.502 208.996C266.885 208.314 267.074 207.537 267.074 206.665C267.074 205.793 266.885 205.017 266.502 204.334C266.12 203.652 265.594 203.12 264.924 202.738C264.254 202.355 263.504 202.166 262.672 202.166C261.84 202.166 261.091 202.355 260.421 202.738C259.751 203.12 259.225 203.652 258.842 204.334C258.46 205.017 258.27 205.793 258.27 206.665C258.27 207.537 258.46 208.314 258.842 208.996C259.225 209.678 259.751 210.21 260.421 210.593C261.091 210.975 261.84 211.165 262.672 211.165C263.504 211.165 264.254 210.975 264.924 210.593Z" fill="white"/>
<path d="M281.783 213.697L279.069 209.779H278.907H276.074V213.697H272.819V199.633H278.907C280.152 199.633 281.235 199.841 282.153 200.257C283.071 200.673 283.777 201.26 284.273 202.025C284.768 202.789 285.016 203.692 285.016 204.738C285.016 205.784 284.765 206.683 284.264 207.439C283.762 208.194 283.049 208.775 282.122 209.176L285.276 213.697H281.783ZM280.957 202.918C280.446 202.496 279.702 202.285 278.727 202.285H276.074V207.188H278.727C279.705 207.188 280.449 206.974 280.957 206.546C281.464 206.117 281.721 205.515 281.721 204.738C281.721 203.946 281.468 203.34 280.957 202.918Z" fill="white"/>
<path d="M287.589 199.633H293.979C295.506 199.633 296.855 199.923 298.03 200.508C299.201 201.092 300.113 201.912 300.762 202.97C301.41 204.028 301.734 205.261 301.734 206.668C301.734 208.075 301.41 209.308 300.762 210.366C300.113 211.424 299.201 212.244 298.03 212.828C296.858 213.413 295.509 213.703 293.979 213.703H287.589V199.633ZM293.817 211.027C295.224 211.027 296.344 210.635 297.182 209.852C298.021 209.069 298.44 208.008 298.44 206.668C298.44 205.328 298.021 204.267 297.182 203.484C296.344 202.701 295.224 202.309 293.817 202.309H290.844V211.03H293.817V211.027Z" fill="white"/>
<path d="M315.076 211.085V213.697H304.186V199.633H314.816V202.245H307.422V205.298H313.953V207.83H307.422V211.085H315.076Z" fill="white"/>
<path d="M326.629 213.697L323.916 209.779H323.754H320.921V213.697H317.666V199.633H323.754C324.999 199.633 326.082 199.841 326.999 200.257C327.917 200.673 328.624 201.26 329.119 202.025C329.615 202.789 329.863 203.692 329.863 204.738C329.863 205.784 329.612 206.683 329.11 207.439C328.609 208.194 327.896 208.775 326.972 209.176L330.126 213.697H326.629ZM325.806 202.918C325.296 202.496 324.552 202.285 323.576 202.285H320.924V207.188H323.576C324.555 207.188 325.299 206.974 325.806 206.546C326.314 206.117 326.571 205.515 326.571 204.738C326.568 203.946 326.314 203.34 325.806 202.918Z" fill="white"/>
<path d="M351.023 199.633V213.697H348.35L341.338 205.157V213.697H338.123V199.633H340.815L347.808 208.173V199.633H351.023Z" fill="white"/>
<path d="M357.222 212.994C356.05 212.364 355.133 211.498 354.469 210.391C353.805 209.287 353.475 208.045 353.475 206.665C353.475 205.286 353.805 204.044 354.469 202.94C355.133 201.835 356.05 200.967 357.222 200.34C358.394 199.71 359.709 199.395 361.171 199.395C362.631 199.395 363.946 199.71 365.109 200.34C366.274 200.97 367.192 201.835 367.862 202.94C368.532 204.044 368.865 205.286 368.865 206.665C368.865 208.045 368.529 209.287 367.862 210.391C367.192 211.495 366.274 212.364 365.109 212.994C363.943 213.624 362.631 213.939 361.171 213.939C359.709 213.939 358.394 213.624 357.222 212.994ZM363.42 210.593C364.09 210.21 364.616 209.678 364.998 208.996C365.381 208.314 365.57 207.537 365.57 206.665C365.57 205.793 365.381 205.017 364.998 204.334C364.616 203.652 364.09 203.12 363.42 202.738C362.75 202.355 362 202.166 361.168 202.166C360.336 202.166 359.587 202.355 358.917 202.738C358.247 203.12 357.721 203.652 357.338 204.334C356.956 205.017 356.766 205.793 356.766 206.665C356.766 207.537 356.956 208.314 357.338 208.996C357.721 209.678 358.247 210.21 358.917 210.593C359.587 210.975 360.336 211.165 361.168 211.165C362 211.165 362.75 210.975 363.42 210.593Z" fill="white"/>
<path d="M392.115 199.633L387.514 213.697H384.017L380.921 204.175L377.727 213.697H374.252L369.63 199.633H373.007L376.183 209.519L379.499 199.633H382.512L385.727 209.598L389.003 199.633H392.115Z" fill="white"/>
<path d="M378.937 617.911C332.08 607.184 285.22 596.456 238.363 585.729C270.08 524.75 251.187 452.187 282.907 391.207C329.764 401.934 376.624 412.661 423.484 423.391C391.764 484.368 410.654 556.931 378.937 617.911Z" fill="#DFE3E9"/>
<path d="M382.623 438.041C356.846 432.14 331.073 426.24 305.297 420.34C306.576 416.528 307.992 412.748 309.571 409.004C335.347 414.904 361.12 420.808 386.896 426.708C385.318 430.449 383.898 434.23 382.623 438.041Z" fill="#4E9FCA"/>
<path d="M395.86 460.153C357.917 451.467 319.975 442.78 282.032 434.096C282.384 432.569 282.748 431.049 283.134 429.535C321.076 438.222 359.022 446.909 396.961 455.596C396.579 457.11 396.212 458.63 395.86 460.153Z" fill="#4E9FCA"/>
<path d="M394.129 468.376C356.184 459.689 318.241 451.002 280.299 442.315C280.596 440.78 280.908 439.244 281.232 437.715C319.174 446.402 357.117 455.089 395.063 463.776C394.735 465.308 394.426 466.84 394.129 468.376Z" fill="#4E9FCA"/>
<path d="M392.661 476.66C354.721 467.974 316.776 459.29 278.833 450.603C279.084 449.055 279.347 447.51 279.622 445.969C317.565 454.656 355.51 463.339 393.453 472.029C393.178 473.568 392.915 475.113 392.661 476.66Z" fill="#4E9FCA"/>
<path d="M305.019 579.422C290.078 576.003 275.134 572.58 260.19 569.16C260.71 567.674 261.212 566.184 261.692 564.691C276.636 568.111 291.577 571.534 306.518 574.954C306.038 576.446 305.539 577.939 305.019 579.422Z" fill="#4E9FCA"/>
<path d="M352.772 494.618C326.999 488.718 301.223 482.815 275.446 476.914C275.865 472.916 276.309 468.925 276.801 464.945C302.575 470.846 328.351 476.746 354.127 482.646C353.635 486.629 353.191 490.624 352.772 494.618Z" fill="#4E9FCA"/>
<path d="M350.404 518.779C324.628 512.879 298.851 506.979 273.078 501.078C273.476 497.077 273.858 493.07 274.244 489.066C300.017 494.967 325.793 500.867 351.567 506.767C351.181 510.774 350.802 514.778 350.404 518.779Z" fill="#4E9FCA"/>
<path d="M347.608 542.843C321.832 536.943 296.055 531.04 270.282 525.139C270.839 521.175 271.335 517.196 271.79 513.207C297.567 519.107 323.34 525.008 349.116 530.908C348.661 534.9 348.165 538.876 347.608 542.843Z" fill="#4E9FCA"/>
<path d="M343.326 566.57C317.55 560.67 291.776 554.77 266 548.866C266.89 544.979 267.679 541.066 268.383 537.133C294.159 543.036 319.936 548.937 345.709 554.837C345.002 558.767 344.216 562.68 343.326 566.57Z" fill="#4E9FCA"/>
<path d="M389.277 502.975C379.234 500.675 369.188 498.378 359.142 496.074C359.558 492.077 360.001 488.085 360.494 484.105C370.54 486.406 380.586 488.703 390.632 491.006C390.14 494.989 389.696 498.977 389.277 502.975Z" fill="#4E9FCA"/>
<path d="M386.906 527.14C376.863 524.84 366.817 522.542 356.773 520.242C357.171 516.241 357.55 512.234 357.936 508.23C367.982 510.531 378.028 512.828 388.075 515.128C387.686 519.132 387.304 523.139 386.906 527.14Z" fill="#4E9FCA"/>
<path d="M384.113 551.204C374.07 548.907 364.024 546.607 353.978 544.303C354.534 540.336 355.03 536.36 355.486 532.371C365.532 534.668 375.578 536.968 385.621 539.269C385.165 543.26 384.67 547.24 384.113 551.204Z" fill="#4E9FCA"/>
<path d="M379.827 574.927C369.784 572.627 359.737 570.327 349.694 568.026C350.585 564.139 351.371 560.227 352.074 556.293C362.121 558.596 372.167 560.893 382.213 563.194C381.506 567.124 380.72 571.036 379.827 574.927Z" fill="#4E9FCA"/>
<path d="M349.172 599.211C337.93 599.911 328.22 591.334 327.523 580.096C326.828 568.855 335.403 559.147 346.642 558.45C357.882 557.755 367.591 566.329 368.289 577.567C368.989 588.808 360.415 598.516 349.172 599.211ZM346.691 559.202C335.865 559.875 327.602 569.226 328.275 580.051C328.948 590.876 338.3 599.134 349.126 598.461C359.95 597.791 368.212 588.438 367.539 577.616C366.869 566.791 357.515 558.535 346.691 559.202Z" fill="#347031"/>
<path d="M348.535 588.962C342.949 589.308 338.122 585.047 337.776 579.462C337.431 573.88 341.692 569.05 347.278 568.707C352.864 568.361 357.691 572.622 358.037 578.208C358.386 583.787 354.125 588.614 348.535 588.962ZM347.327 569.457C342.154 569.778 338.211 574.243 338.532 579.413C338.853 584.582 343.32 588.528 348.493 588.207C353.663 587.886 357.609 583.42 357.288 578.247C356.966 573.081 352.497 569.135 347.327 569.457Z" fill="#347031"/>
<path d="M348.483 580.473C348.584 579.95 348.857 579.387 349.12 578.842C349.361 578.341 349.634 577.775 349.646 577.466C349.664 577.031 350.031 576.698 350.469 576.707C350.906 576.723 351.246 577.093 351.231 577.53C351.203 578.169 350.87 578.864 350.548 579.53C350.175 580.298 351.475 580.286 351.891 580.057C352.607 579.656 353.675 577.866 353.283 576.135C353.142 575.536 352.993 574.952 352.84 574.392C352.723 573.97 352.971 573.535 353.393 573.419C353.815 573.303 354.253 573.554 354.369 573.979C354.819 575.624 355.241 577.301 355.37 579.007C355.406 579.488 355.418 579.968 355.397 580.445C355.36 581.271 354.926 583.687 353.393 584.941C352.821 585.406 352.151 585.654 351.432 585.666C350.512 585.679 349.71 585.287 349.178 584.532C348.474 583.534 348.202 581.941 348.483 580.473Z" fill="#347031"/>
<path d="M347.539 580.529C347.373 580.022 347.037 579.496 346.707 578.991C346.407 578.526 346.064 577.994 346.015 577.691C345.945 577.26 345.538 576.975 345.104 577.036C344.672 577.107 344.379 577.517 344.449 577.948C344.553 578.581 344.972 579.226 345.376 579.85C345.838 580.566 344.55 580.713 344.106 580.536C343.345 580.227 342.066 578.584 342.24 576.816C342.308 576.207 342.387 575.605 342.467 575.03C342.531 574.595 342.228 574.198 341.794 574.134C341.362 574.069 340.958 574.372 340.897 574.807C340.653 576.498 340.445 578.211 340.524 579.921C340.549 580.401 340.594 580.881 340.677 581.352C340.818 582.166 341.546 584.512 343.222 585.564C343.852 585.959 344.547 586.118 345.26 586.041C346.171 585.944 346.924 585.454 347.358 584.637C347.927 583.567 348.004 581.952 347.539 580.529Z" fill="#347031"/>
<path d="M342.745 575.075C342.742 575.09 342.739 575.108 342.736 575.127C342.865 576.259 343.458 577.286 344.211 578.161C344.198 578.106 344.183 578.051 344.174 577.996C344.079 577.412 344.474 576.858 345.083 576.76C345.664 576.687 346.196 577.075 346.291 577.647C346.331 577.895 346.685 578.442 346.946 578.846C347.282 579.363 347.628 579.905 347.802 580.446C347.875 580.666 347.931 580.893 347.98 581.122C348.035 581.153 348.065 581.168 348.065 581.168C348.065 581.168 348.084 581.156 348.117 581.131C348.136 580.893 348.163 580.654 348.209 580.418C348.316 579.856 348.594 579.281 348.864 578.727C349.075 578.293 349.356 577.705 349.365 577.451C349.39 576.873 349.867 576.421 350.454 576.424C351.069 576.448 351.531 576.95 351.51 577.54C351.507 577.61 351.501 577.684 351.488 577.76C352.122 576.815 352.593 575.745 352.611 574.628C352.596 574.573 352.584 574.521 352.568 574.466C352.522 574.298 352.522 574.127 352.559 573.961C352.296 572.585 351.048 571.585 349.61 571.673C348.763 571.725 348.028 572.148 347.548 572.772C346.994 572.215 346.214 571.884 345.367 571.936C343.908 572.028 342.779 573.206 342.718 574.634C342.754 574.775 342.767 574.925 342.745 575.075Z" fill="#347031"/>
<path d="M338.63 588.197C336.406 585.998 334.95 583.007 334.742 579.645C334.292 572.39 339.832 566.116 347.092 565.666C354.351 565.217 360.625 570.753 361.075 578.012C361.283 581.37 360.206 584.521 358.273 586.977L361.668 589.978C364.367 586.647 365.878 582.343 365.593 577.736C364.988 567.988 356.566 560.546 346.816 561.152C337.067 561.754 329.624 570.181 330.227 579.929C330.511 584.536 332.542 588.622 335.632 591.593L338.63 588.197Z" fill="#347031"/>
<path d="M357.272 588.109C355.073 590.333 352.084 591.786 348.722 591.997C345.363 592.205 342.215 591.128 339.759 589.195L336.761 592.59C340.092 595.288 344.399 596.799 349.003 596.515C353.611 596.23 357.697 594.199 360.668 591.11L357.272 588.109Z" fill="#347031"/>
<path d="M343.332 240.714C342.779 240.839 342.176 240.704 341.72 240.298C340.044 238.79 338.306 237.346 336.624 235.948C333.494 233.345 330.258 230.656 327.321 227.484C326.645 226.75 326.688 225.606 327.419 224.93C328.153 224.251 329.297 224.297 329.973 225.028C332.754 228.029 335.758 230.525 338.936 233.171C340.643 234.59 342.409 236.055 344.137 237.609C344.88 238.276 344.942 239.42 344.275 240.163C344.015 240.451 343.684 240.634 343.332 240.714Z" fill="#F5AE8B"/>
<path d="M347.122 235.631C346.535 235.766 345.895 235.576 345.476 235.087C344.097 233.463 342.659 231.893 341.27 230.373C338.7 227.565 336.039 224.662 333.677 221.328C333.142 220.576 333.319 219.536 334.075 219.004C334.828 218.468 335.868 218.649 336.403 219.398C338.645 222.564 341.117 225.262 343.736 228.119C345.146 229.657 346.602 231.251 348.025 232.924C348.621 233.628 348.536 234.683 347.832 235.279C347.618 235.457 347.376 235.573 347.122 235.631Z" fill="#F5AE8B"/>
<path d="M349.57 233.379C348.988 233.511 348.352 233.327 347.936 232.844C347.049 231.816 346.134 230.844 345.232 229.877C343.543 228.072 341.8 226.207 340.261 224.059C339.725 223.31 339.897 222.267 340.646 221.732C341.393 221.193 342.436 221.365 342.974 222.117C344.388 224.087 345.981 225.794 347.67 227.598C348.603 228.596 349.542 229.602 350.46 230.66C351.066 231.355 350.989 232.413 350.292 233.015C350.074 233.202 349.827 233.324 349.57 233.379Z" fill="#F5AE8B"/>
<path d="M345.076 237.915C344.525 238.041 343.92 237.882 343.501 237.444C341.711 235.585 339.848 233.792 338.049 232.061C334.709 228.843 331.255 225.518 328.187 221.676C327.611 220.958 327.731 219.905 328.45 219.33C329.169 218.752 330.221 218.875 330.796 219.593C333.73 223.264 336.954 226.366 340.365 229.654C342.188 231.406 344.073 233.22 345.905 235.129C346.544 235.793 346.523 236.851 345.859 237.49C345.636 237.71 345.364 237.851 345.076 237.915Z" fill="#F5AE8B"/>
<path d="M347.612 248.981C339.909 250.743 334.256 243.808 331.638 240.597C331.173 240.025 330.689 239.431 330.463 239.233C329.774 238.621 329.71 237.565 330.325 236.877C330.937 236.189 331.992 236.125 332.681 236.737C333.106 237.113 333.574 237.691 334.226 238.486C338.557 243.802 343.446 248.213 349.76 244.546C350.558 244.084 351.58 244.356 352.042 245.151C352.504 245.95 352.235 246.971 351.436 247.433C350.112 248.204 348.836 248.702 347.612 248.981Z" fill="#F5AE8B"/>
<path d="M337.049 236.062C339.839 239.516 337.703 243.391 334.029 239.268L339.695 247.713C342.518 248.668 345.458 249.659 348.468 249.163C353.271 248.368 358.135 244.887 357.01 239.546C355.917 234.374 351.258 230.239 347.144 227.293L337.049 236.062Z" fill="#F5AE8B"/>
<path d="M458.561 302.545C412.212 302.683 370.709 274.971 347.358 247.665L350.69 232.301C358.35 242.652 374.212 254.192 384.655 260.815C405.127 273.805 430.922 276.913 454.857 274.744L458.561 302.545Z" fill="#F5AE8B"/>
<path d="M365.419 242.285C364.715 236.296 357.771 237.724 360.108 243.371C359.028 240.07 353.21 238.66 353.464 242.285C353.586 244.041 355.923 245.322 357.459 246.329C353.146 242.728 347.951 248.341 354.201 249.993C351.017 249.075 345.957 249.598 347.361 253.945C348.563 257.667 355.403 257.068 358.432 256.658L365.419 242.285Z" fill="#EAF6FD"/>
<path d="M370.485 242.044C364.183 237.664 351.589 248.143 354.688 259.054C361.764 283.97 420.979 308.483 466.178 309.799C488.871 309.9 489.021 275.868 466.328 275.767C440.8 275.069 397.21 260.607 370.485 242.044Z" fill="#DB4444"/>
<path d="M420.539 600.601C420.569 598.322 423.534 595.058 427.128 593.351L453.868 581.471C459.788 581.554 460.436 581.324 466.355 581.404C472.446 587.029 474.484 595.382 471.706 601.711L420.523 601.61C420.53 601.286 420.536 600.952 420.539 600.601Z" fill="#E5A344"/>
<path d="M471.709 601.71C471.222 602.815 470.608 603.867 469.821 604.824C452.433 604.579 437.869 604.989 420.48 604.748C420.48 604.748 420.499 603.402 420.523 601.609L471.709 601.71Z" fill="#D7D6D6"/>
<path d="M494.459 389.195L440.114 379.027C425.096 457.46 454.268 517.816 449.839 583.264L468.821 584.106C480.549 543.65 479.032 508.747 467.065 489.033C478.258 457.586 489.326 420.315 494.459 389.195Z" fill="#F8A379"/>
<path d="M489.902 602.484C489.275 600.291 491.177 596.314 494.13 593.644L516.327 574.582C522.02 572.961 522.577 572.554 528.27 570.93C535.719 574.567 540.075 581.981 539.23 588.842L490.18 603.454C490.085 603.142 489.994 602.82 489.902 602.484Z" fill="#F3C252"/>
<path d="M539.227 588.84C539.08 590.036 538.792 591.223 538.315 592.364C521.591 597.129 507.761 601.708 491.039 606.471C491.039 606.471 490.666 605.18 490.18 603.452L539.227 588.84Z" fill="#D7D6D6"/>
<path d="M505.767 382.4C502.39 365.326 485.831 354.192 468.733 357.523C451.859 360.808 440.763 376.955 443.624 393.809C460.941 395.595 489.257 390.071 505.767 382.4Z" fill="#E51F5C"/>
<path d="M507.264 487.137C506.089 458.681 507.817 431.253 502.629 403.443C503.085 402.595 503.492 401.721 503.865 400.834C505.089 397.949 505.884 394.869 506.205 391.682C506.508 388.687 506.392 385.604 505.786 382.496C505.78 382.466 505.771 382.432 505.762 382.398C489.254 390.07 460.936 395.591 443.618 393.808C443.661 394.062 443.698 394.318 443.747 394.572C444.12 396.481 448.549 411.79 448.914 413.09C468.44 482.729 493.531 518.226 514.144 576.45L530.837 572.412C527.998 536.343 522.464 505.373 507.264 487.137Z" fill="#F5AE8B"/>
<path d="M435.584 524.741C435.746 533.226 437.921 542.13 445.783 531.027C446.621 539.49 456.059 540.454 459.739 533.4C460.29 541.411 471.899 542.509 472.217 533.81C476.063 541.335 488.945 539.943 490.633 531.437C492.622 541.995 508.385 537.291 507.48 527.739C508.168 537.444 520.891 533.104 519.781 524.065C523.709 535.838 535.649 529.69 535.003 519.113C535.226 523.839 538.989 527.671 542.305 523.077C546.478 517.296 536.545 503.284 535.416 497.625L435.584 524.741Z" fill="#EAF6FD"/>
<path d="M503.157 356.933C493.46 334.748 496.708 327.951 497.296 301.432C497.944 272.095 479.302 261.497 462.357 264.503C443.173 267.908 427.783 298.162 425.382 308.024C423.387 316.206 424.344 322.592 426.495 328.499C435.565 325.098 443.333 316.668 446.958 301.346C452.18 279.268 481.569 282.477 480.78 305.154C479.418 344.377 456.025 391.464 433.638 410.804C430.564 432.301 432.494 490.782 435.617 525.808C461.886 530.338 526.186 524.425 539.227 508.226C534.327 443.438 515.504 385.178 503.157 356.933Z" fill="#DB4444"/>
<path d="M480.78 305.153C481.569 282.478 452.18 279.266 446.958 301.344C443.333 316.666 435.565 325.096 426.495 328.497C429.582 336.973 435.134 344.455 437.985 354.821C441.592 367.931 437.276 385.402 433.641 410.799C456.025 391.465 479.418 344.375 480.78 305.153Z" fill="#DB4444"/>
<path d="M478.669 310.777C470.008 356.307 434.92 391.792 403.677 409.532L389.223 403.348C400.841 397.793 415.179 384.411 423.669 375.415C440.307 357.784 448.255 333.051 450.669 309.141L478.669 310.777Z" fill="#F5AE8B"/>
<path d="M374.316 425.773C374.197 425.773 374.074 425.761 373.952 425.736C372.973 425.537 372.343 424.583 372.542 423.604C374.723 412.908 383.438 403.542 394.748 399.746C395.696 399.431 396.721 399.938 397.039 400.884C397.357 401.829 396.846 402.857 395.898 403.175C385.791 406.567 378.014 414.868 376.084 424.326C375.91 425.182 375.157 425.773 374.316 425.773Z" fill="#F5AE8B"/>
<path d="M378.42 431.108C377.451 431.108 376.646 430.338 376.616 429.359C376.356 421.146 379.999 412.279 386.362 405.635C387.053 404.916 388.194 404.889 388.916 405.58C389.638 406.271 389.663 407.415 388.971 408.137C383.266 414.092 379.999 421.984 380.228 429.242C380.259 430.243 379.476 431.075 378.479 431.108C378.46 431.108 378.439 431.108 378.42 431.108Z" fill="#F5AE8B"/>
<path d="M383.383 431.111C382.505 431.111 381.737 430.472 381.6 429.582C380.422 422.067 383.478 413.686 386.454 408.791C386.971 407.938 388.085 407.666 388.938 408.186C389.792 408.703 390.061 409.816 389.544 410.67C386.886 415.041 384.148 422.47 385.176 429.019C385.329 430.007 384.656 430.934 383.668 431.087C383.57 431.102 383.475 431.111 383.383 431.111Z" fill="#F5AE8B"/>
<path d="M389.21 428.894C388.653 428.894 388.102 428.634 387.748 428.147C384.346 423.467 384.581 416.246 385.814 411.486C386.062 410.52 387.047 409.932 388.017 410.189C388.983 410.437 389.565 411.425 389.314 412.392C388.194 416.708 388.179 422.599 390.669 426.021C391.256 426.829 391.079 427.961 390.268 428.548C389.953 428.784 389.58 428.894 389.21 428.894Z" fill="#F5AE8B"/>
<path d="M406.732 403.703C409.204 408.328 406.509 414.589 400.709 417.687C394.909 420.786 388.203 419.544 385.731 414.919C383.26 410.291 385.958 404.03 391.755 400.934C397.558 397.839 404.261 399.078 406.732 403.703Z" fill="#F5AE8B"/>
<path d="M405.465 392.215C403.421 392.328 398.114 393.64 398.979 395.751C399.753 397.644 401.035 397.721 403.599 397.396C403.895 397.393 403.889 397.384 403.577 397.366C400.647 400.128 402.213 402.339 405.921 401.134C404.954 405.297 408.12 407.622 410.552 403.701C409.656 406.64 409.39 410.8 413.103 410.057C416.484 409.381 417.267 405.294 418.738 402.324L405.465 392.215Z" fill="#EAF6FD"/>
<path d="M405.078 387.544C400.046 393.34 409.11 406.983 420.294 405.077C445.832 400.721 476.564 344.489 482.731 299.699C485.27 277.153 451.445 273.345 448.906 295.891C445.471 321.196 426.406 362.973 405.078 387.544Z" fill="#DB4444"/>
<path d="M470.866 260.491C471.854 262.057 466.629 267.129 459.195 271.815C451.761 276.501 444.933 279.031 443.945 277.461C442.957 275.895 448.182 270.824 455.616 266.138C463.049 261.452 469.877 258.925 470.866 260.491Z" fill="#EAF6FD"/>
<path d="M476.812 263.947C480.109 268.233 476.625 276.445 469.029 282.291C461.433 288.136 452.602 289.399 449.301 285.114C446.003 280.829 449.487 272.616 457.083 266.77C464.682 260.925 473.514 259.662 476.812 263.947Z" fill="#EAF6FD"/>
<path d="M462.56 275.268C455.79 276.146 451.712 273.072 451.712 267.079V241.655C451.712 235.663 456.567 230.809 462.56 230.809C468.552 230.809 473.41 235.663 473.41 241.655V267.079C473.41 273.072 469.329 274.39 462.56 275.268Z" fill="#F5AE8B"/>
<path d="M456.799 249.314C452.253 253.091 450.371 258.334 452.599 261.017C454.829 263.699 460.323 262.809 464.872 259.028C469.424 255.251 471.302 250.011 469.072 247.329C466.842 244.643 461.348 245.533 456.799 249.314Z" fill="#F18E7F"/>
<path d="M436.19 216.727C428.444 232.327 432.804 250.254 445.924 256.77C459.048 263.282 475.965 255.919 483.714 240.32C491.457 224.72 487.1 206.792 473.977 200.277C460.853 193.765 443.936 201.128 436.19 216.727Z" fill="#F5AE8B"/>
<path d="M444.835 226.694C444.611 226.694 444.394 226.578 444.278 226.367C443.097 224.256 440.659 222.271 437.854 222.568C437.496 222.607 437.19 222.351 437.15 222.002C437.113 221.65 437.364 221.338 437.716 221.298C441.087 220.94 444.003 223.265 445.391 225.743C445.566 226.049 445.456 226.44 445.147 226.611C445.046 226.666 444.939 226.694 444.835 226.694Z" fill="#DFE9F0"/>
<path d="M438.086 227.783C437.783 229.282 438.168 230.622 438.939 230.778C439.71 230.931 440.579 229.845 440.882 228.346C441.182 226.847 440.799 225.511 440.028 225.355C439.254 225.199 438.386 226.285 438.086 227.783Z" fill="#86371B"/>
<path d="M443.503 239.676C442.347 245.778 435.437 248.571 435.437 242.215L443.503 239.676Z" fill="white"/>
<path d="M433.902 226.508C432.21 232.375 427.276 232.405 428.502 234.194C430.182 236.648 433.44 237.07 433.44 237.07L433.902 226.508Z" fill="#F5AE8B"/>
<path d="M440.509 236.275C435.905 236.275 432.157 232.528 432.157 227.925C432.157 223.321 435.905 219.574 440.509 219.574C445.113 219.574 448.86 223.321 448.86 227.925C448.86 232.531 445.113 236.275 440.509 236.275ZM440.509 220.782C436.569 220.782 433.363 223.988 433.363 227.928C433.363 231.867 436.569 235.073 440.509 235.073C444.449 235.073 447.655 231.867 447.655 227.928C447.655 223.988 444.449 220.782 440.509 220.782Z" fill="#86371B"/>
<path d="M465.239 238.168C465.126 238.168 465.009 238.135 464.905 238.067C464.627 237.884 464.554 237.511 464.737 237.232L464.994 236.847C465.921 235.471 467.074 233.758 466.643 232.219C466.12 230.365 463.648 229.533 461.553 229.013C457.349 227.973 452.822 227.698 449.129 228.255C448.796 228.301 448.493 228.077 448.444 227.75C448.395 227.42 448.622 227.114 448.949 227.065C452.791 226.484 457.49 226.768 461.84 227.845C464.254 228.441 467.108 229.442 467.799 231.892C468.384 233.966 467.056 235.935 465.991 237.52L465.737 237.899C465.624 238.074 465.432 238.168 465.239 238.168Z" fill="#86371B"/>
<path d="M515.48 255.198C515.119 248.098 510.726 244.247 504.02 243.238C506.232 238.677 508.214 232.704 505.155 228.063C502.497 224.032 496.834 223.084 494.277 219.003C491.56 214.672 493.151 211.69 493.371 207.438C493.793 199.173 481.055 191.3 472.844 194.518C471.401 190.618 467.381 190.193 462.563 190.551C454.49 191.153 445.147 196.882 438.955 202.171C436.352 204.398 431.901 208.775 433.369 212.705C435.404 218.141 446.689 218.942 451.492 218.193C451.675 221.463 452.526 223.864 455.465 225.506C457.833 226.831 462.973 226.607 464.132 229.489C465.236 232.242 461.682 236.16 461.198 238.821C460.43 243.036 462.508 242.987 464.566 245.676C466.295 247.93 465.796 247.799 464.147 250.576C462.333 253.638 460.538 256.758 461.097 260.468C463.275 274.893 486.754 279.515 497.877 276.661C507.59 274.174 516.018 265.754 515.48 255.198Z" fill="#DFE9F0"/>
<path d="M484.548 272.542C479.843 272.542 475.86 270.998 474.887 264.501C474.202 259.919 475.19 255.481 477.998 250.525C479.644 247.626 480.134 245.689 479.543 244.429C478.696 242.615 475.413 242.019 471.256 241.263C468.962 240.847 467.677 240.159 467.215 239.101C466.582 237.651 467.701 235.892 468.888 234.029C469.552 232.986 470.24 231.91 470.672 230.827C471.241 229.408 471.287 228.245 470.813 227.276C469.772 225.144 466.242 224.119 462.828 223.131C458.946 222.005 454.929 220.84 453.825 217.94C453.14 216.139 453.654 213.912 455.401 211.135C455.529 210.93 455.798 210.868 456.003 210.997C456.208 211.125 456.269 211.395 456.141 211.599C454.55 214.129 454.061 216.102 454.642 217.628C455.59 220.121 459.396 221.225 463.073 222.293C466.836 223.385 470.39 224.416 471.599 226.893C472.186 228.098 472.149 229.49 471.482 231.154C471.017 232.31 470.311 233.424 469.626 234.5C468.567 236.161 467.57 237.727 468.016 238.752C468.344 239.498 469.485 240.055 471.415 240.404C475.992 241.236 479.296 241.835 480.336 244.059C481.067 245.619 480.58 247.748 478.757 250.957C476.05 255.731 475.095 259.992 475.75 264.369C476.778 271.233 481.311 272.169 487.803 271.466C488.042 271.441 488.259 271.612 488.283 271.854C488.311 272.093 488.136 272.31 487.895 272.334C486.76 272.46 485.634 272.542 484.548 272.542Z" fill="#A2AFBB"/>
<path d="M476.369 268.353C473.704 268.353 471.052 267.46 469.256 265.839C467.953 264.665 466.537 262.588 467.188 259.382C467.727 256.727 469.327 254.509 470.871 252.365C471.982 250.827 473.129 249.236 473.848 247.52C473.94 247.297 474.197 247.19 474.42 247.285C474.643 247.376 474.747 247.633 474.656 247.857C473.9 249.664 472.722 251.298 471.584 252.876C470.021 255.039 468.546 257.085 468.048 259.553C467.479 262.358 468.712 264.166 469.847 265.191C472.147 267.268 476.179 268.038 479.437 267.026C479.666 266.956 479.911 267.084 479.985 267.313C480.055 267.543 479.926 267.788 479.697 267.861C478.626 268.194 477.498 268.353 476.369 268.353Z" fill="#A2AFBB"/>
<path d="M493.583 243.88C493.491 243.88 493.402 243.852 493.323 243.794C493.13 243.65 493.087 243.378 493.231 243.182C495.629 239.949 499.123 234.128 495.571 231.455C494.577 230.706 493.108 230.378 491.689 230.063C488.966 229.458 485.88 228.772 485.822 224.848C485.8 223.355 486.29 222.037 486.721 220.878C487.152 219.722 487.492 218.81 487.131 218.241C486.776 217.675 485.687 217.32 483.803 217.152C483.292 217.106 482.496 217.119 481.576 217.131C478.229 217.177 473.649 217.238 472.193 215.088C471.618 214.237 471.603 213.145 472.147 211.839C472.239 211.616 472.496 211.512 472.719 211.604C472.943 211.695 473.047 211.952 472.955 212.176C472.524 213.203 472.514 213.996 472.918 214.598C474.108 216.36 478.596 216.299 481.563 216.259C482.509 216.247 483.325 216.235 483.879 216.284C486.112 216.482 487.345 216.944 487.868 217.776C488.459 218.712 488.03 219.856 487.538 221.184C487.131 222.273 486.672 223.508 486.693 224.839C486.742 228.072 489.122 228.601 491.876 229.213C493.387 229.549 494.947 229.895 496.094 230.758C499.218 233.11 498.471 237.585 493.931 243.702C493.849 243.819 493.717 243.88 493.583 243.88Z" fill="#A2AFBB"/>
<path d="M497.266 269.574C494.827 269.574 492.533 268.815 490.918 267.384C489.293 265.946 488.7 264.249 489.247 262.603C489.979 260.407 492.729 258.569 495.644 258.33C495.883 258.302 496.097 258.489 496.115 258.728C496.137 258.969 495.956 259.18 495.718 259.199C493.13 259.413 490.707 260.994 490.08 262.878C489.645 264.187 490.135 265.521 491.499 266.729C493.695 268.675 497.302 269.241 500.689 268.167C503.671 267.225 505.718 265.264 506.302 262.793C507.972 255.745 501.401 253.277 495.601 251.102C494.748 250.781 493.925 250.472 493.166 250.16C490.63 249.117 489.202 247.829 488.792 246.217C488.177 243.795 490.055 241.06 491.973 238.705C492.126 238.518 492.401 238.488 492.588 238.641C492.775 238.794 492.802 239.069 492.652 239.255C490.129 242.357 489.229 244.376 489.642 246.003C489.979 247.324 491.242 248.423 493.503 249.352C494.252 249.661 495.066 249.967 495.913 250.282C501.438 252.356 509.003 255.195 507.156 262.991C506.507 265.729 504.188 267.974 500.955 268.999C499.728 269.387 498.477 269.574 497.266 269.574Z" fill="#A2AFBB"/>
<path d="M464.269 219.877C464.257 219.877 464.248 219.877 464.236 219.877C463.994 219.859 463.813 219.651 463.832 219.409C463.89 218.614 463.688 218.005 463.217 217.544C461.623 215.99 457.395 216.409 454.599 216.684C453.798 216.764 453.106 216.831 452.605 216.84C447.062 216.941 441.488 216.534 438.325 212.934C436.703 211.087 436.312 208.967 437.196 206.801C438.805 202.849 444.385 199.558 448.304 199.255C448.542 199.237 448.753 199.417 448.772 199.656C448.79 199.898 448.609 200.106 448.371 200.124C444.783 200.402 439.472 203.522 438.007 207.128C437.248 208.994 437.575 210.753 438.985 212.356C441.913 215.69 447.254 216.06 452.596 215.965C453.064 215.956 453.737 215.889 454.52 215.812C457.478 215.522 461.95 215.078 463.832 216.917C464.49 217.559 464.786 218.418 464.71 219.471C464.685 219.703 464.496 219.877 464.269 219.877Z" fill="#A2AFBB"/>
<path d="M465.967 212.867C465.931 212.867 465.894 212.861 465.86 212.851C465.628 212.79 465.487 212.555 465.545 212.319C465.686 211.772 465.634 211.362 465.389 211.071C464.481 209.992 461.015 210.261 457.959 210.499C454.517 210.765 451.268 211.019 449.858 209.832C448.53 208.716 448.01 207.306 448.356 205.749C448.977 202.941 452.37 200.191 455.022 199.475C455.254 199.414 455.493 199.552 455.557 199.784C455.621 200.017 455.481 200.259 455.248 200.32C452.841 200.968 449.745 203.51 449.206 205.939C448.934 207.174 449.341 208.26 450.418 209.166C451.556 210.123 454.777 209.872 457.888 209.631C461.474 209.352 464.86 209.089 466.056 210.511C466.491 211.028 466.604 211.711 466.39 212.539C466.341 212.735 466.163 212.867 465.967 212.867Z" fill="#A2AFBB"/>
<path d="M488.697 214.779C488.603 214.779 488.508 214.749 488.428 214.684C486.945 213.51 485.259 213.507 483.628 213.504C482.139 213.501 480.734 213.497 479.78 212.506C478.96 211.656 478.618 210.215 478.697 207.967C478.722 207.288 478.881 206.536 479.052 205.74C479.447 203.896 479.853 201.987 478.639 200.807C477.082 199.293 472.833 199.935 470.355 200.736C470.125 200.81 469.881 200.684 469.804 200.455C469.731 200.225 469.856 199.978 470.086 199.904C472.389 199.158 477.268 198.256 479.248 200.18C480.808 201.697 480.328 203.939 479.905 205.921C479.743 206.679 479.59 207.395 479.569 207.998C479.499 209.965 479.774 211.243 480.41 211.901C481.108 212.626 482.279 212.629 483.635 212.632C485.329 212.635 487.253 212.641 488.976 213.999C489.165 214.149 489.196 214.424 489.049 214.614C488.954 214.721 488.826 214.779 488.697 214.779Z" fill="#A2AFBB"/>
<path d="M455.394 231.046C452.693 234.835 452.54 239.365 455.058 241.158C457.575 242.95 461.806 241.329 464.504 237.533C467.209 233.74 467.359 229.216 464.841 227.421C462.323 225.629 458.092 227.253 455.394 231.046Z" fill="#F5AE8B"/>
<path d="M343.371 347.09H251.221V370.22H343.371V347.09Z" fill="#DEE0E2"/>
<path d="M342.258 348.492H252.625V368.821H342.258V348.492Z" fill="#CFD0D2"/>
<path d="M339.997 358.657C339.997 353.445 333.695 349.215 325.897 349.172V348.496H342.258V368.825H325.897V368.146C333.695 368.097 339.997 363.869 339.997 358.657Z" fill="#4E9FCA"/>
<path d="M339.997 358.66C339.997 363.875 333.695 368.103 325.897 368.145V349.172C333.695 349.218 339.997 353.445 339.997 358.66Z" fill="#4E9FCA"/>
<path d="M409.021 354.242H360.772V363.003H409.021V354.242Z" fill="#DEE0E2"/>
<path d="M409.021 354.941H360.772V362.304H409.021V354.941Z" fill="#CFD0D2"/>
<path d="M373.235 359.184H406.739L400.183 358.129H373.235V359.184Z" fill="#ADAFB1"/>
<path d="M373.235 361.162L351.555 363.266V354.047L373.235 356.148V361.162Z" fill="#4E9FCA"/>
<path d="M345.598 363.2L343.371 370.223V347.09L345.598 354.049V363.2Z" fill="#DEE0E2"/>
<path d="M344.485 361.795L342.258 368.821V348.492L344.485 355.448V361.795Z" fill="#4E9FCA"/>
<path d="M373.235 356.152C374.615 357.538 374.615 359.78 373.235 361.16V356.152Z" fill="#4E9FCA"/>
<path d="M360.772 353.012H359.726V364.228H360.772V353.012Z" fill="#DEE0E2"/>
<path d="M361.329 356.898L372.697 357.461V359.853L361.329 360.413V356.898Z" fill="#4E9FCA"/>
<path d="M359.172 356.797V360.522L352.292 360.862V356.457L359.172 356.797Z" fill="#4E9FCA"/>
<path d="M409.021 363.006L409.721 362.336V354.915L409.021 354.242V363.006Z" fill="#DEE0E2"/>
<path d="M351.551 353.012H350.505V364.228H351.551V353.012Z" fill="#DEE0E2"/>
<path d="M350.509 354.047H344.485V363.199H350.509V354.047Z" fill="#DEE0E2"/>
<path d="M350.509 355.449H344.485V361.796H350.509V355.449Z" fill="#CFD0D2"/>
<path d="M325.897 353.016H238.274V357.258H325.897V353.016Z" fill="#4E9FCA"/>
<path d="M325.897 360.059H238.274V364.298H325.897V360.059Z" fill="#4E9FCA"/>
<path d="M325.897 357.258H238.274V360.063H325.897V357.258Z" fill="#C2DBA4"/>
<path d="M252.625 340.746H251.221V376.57H252.625V340.746Z" fill="#DEE0E2"/>
<path d="M238.25 347.09H235.619V370.22H238.25V347.09Z" fill="#4E9FCA"/>
<path d="M342.258 351.648H341.76V365.67H342.258V351.648Z" fill="#1D1D1B"/>
<path d="M339.642 354.047H339.146V363.272H339.642V354.047Z" fill="#1D1D1B"/>
<path d="M337.036 354.047H336.54V363.272H337.036V354.047Z" fill="#1D1D1B"/>
<path d="M334.426 354.047H333.928V363.272H334.426V354.047Z" fill="#1D1D1B"/>
<path d="M331.814 354.047H331.315V363.272H331.814V354.047Z" fill="#1D1D1B"/>
<path d="M329.205 351.648H328.709V365.67H329.205V351.648Z" fill="#1D1D1B"/>
<path d="M326.592 354.047H326.097V363.272H326.592V354.047Z" fill="#1D1D1B"/>
<path d="M323.983 354.047H323.484V363.272H323.983V354.047Z" fill="#1D1D1B"/>
<path d="M321.371 354.047H320.875V363.272H321.371V354.047Z" fill="#1D1D1B"/>
<path d="M318.763 354.047H318.265V363.272H318.763V354.047Z" fill="#1D1D1B"/>
<path d="M316.151 351.648H315.652V365.67H316.151V351.648Z" fill="#1D1D1B"/>
<path d="M313.539 354.047H313.043V363.272H313.539V354.047Z" fill="#1D1D1B"/>
<path d="M310.932 354.047H310.434V363.272H310.932V354.047Z" fill="#1D1D1B"/>
<path d="M308.316 354.047H307.82V363.272H308.316V354.047Z" fill="#1D1D1B"/>
<path d="M305.707 354.047H305.212V363.272H305.707V354.047Z" fill="#1D1D1B"/>
<path d="M303.101 351.648H302.603V365.67H303.101V351.648Z" fill="#1D1D1B"/>
<path d="M300.486 354.047H299.99V363.272H300.486V354.047Z" fill="#1D1D1B"/>
<path d="M297.875 354.047H297.38V363.272H297.875V354.047Z" fill="#1D1D1B"/>
<path d="M295.267 354.047H294.769V363.272H295.267V354.047Z" fill="#1D1D1B"/>
<path d="M292.658 354.047H292.159V363.272H292.658V354.047Z" fill="#1D1D1B"/>
<path d="M290.044 351.648H289.549V365.67H290.044V351.648Z" fill="#1D1D1B"/>
<path d="M287.438 354.047H286.939V363.272H287.438V354.047Z" fill="#1D1D1B"/>
<path d="M284.826 354.047H284.327V363.272H284.826V354.047Z" fill="#1D1D1B"/>
<path d="M282.213 354.047H281.718V363.272H282.213V354.047Z" fill="#1D1D1B"/>
<path d="M279.606 354.047H279.107V363.272H279.606V354.047Z" fill="#1D1D1B"/>
<path d="M276.994 351.648H276.495V365.67H276.994V351.648Z" fill="#1D1D1B"/>
<path d="M274.382 354.047H273.887V363.272H274.382V354.047Z" fill="#1D1D1B"/>
<path d="M271.775 354.047H271.276V363.272H271.775V354.047Z" fill="#1D1D1B"/>
<path d="M269.16 354.047H268.664V363.272H269.16V354.047Z" fill="#1D1D1B"/>
<path d="M266.551 354.047H266.056V363.272H266.551V354.047Z" fill="#1D1D1B"/>
<path d="M263.944 351.648H263.445V365.67H263.944V351.648Z" fill="#1D1D1B"/>
<path d="M259.982 237.461C253.894 237.461 248.957 242.395 248.957 248.488C248.957 251.054 249.841 253.409 251.313 255.284L266.786 239.816C264.91 238.345 262.552 237.461 259.982 237.461Z" fill="#FFD862"/>
<path d="M266.786 239.816L251.312 255.285C251.857 255.982 252.487 256.609 253.182 257.157L268.652 241.685C268.11 240.991 267.483 240.367 266.786 239.816Z" fill="#FFD862"/>
<path d="M253.185 257.16C255.06 258.631 257.415 259.518 259.982 259.518C266.076 259.518 271.013 254.578 271.013 248.491C271.013 245.922 270.129 243.566 268.655 241.691L253.185 257.16Z" fill="#FFD862"/>
<path d="M266.049 240.553C264.363 239.265 262.271 238.488 259.982 238.488C254.464 238.488 249.991 242.963 249.991 248.487C249.991 250.769 250.765 252.868 252.053 254.547L266.049 240.553Z" fill="#FFE495"/>
<path d="M267.918 242.426L253.926 256.42C255.605 257.71 257.704 258.484 259.986 258.484C265.511 258.484 269.986 254.009 269.986 248.488C269.983 246.203 269.209 244.111 267.918 242.426Z" fill="#FFE495"/>
<path d="M279.831 250.418C273.743 250.418 268.806 255.352 268.806 261.445C268.806 264.011 269.69 266.366 271.164 268.241L286.637 252.773C284.762 251.302 282.404 250.418 279.831 250.418Z" fill="#FFD862"/>
<path d="M286.634 252.773L271.161 268.242C271.706 268.939 272.336 269.566 273.03 270.114L288.5 254.642C287.962 253.948 287.332 253.324 286.634 252.773Z" fill="#FFD862"/>
<path d="M273.033 270.117C274.908 271.588 277.264 272.475 279.831 272.475C285.924 272.475 290.862 267.535 290.862 261.448C290.862 258.879 289.978 256.523 288.503 254.648L273.033 270.117Z" fill="#FFD862"/>
<path d="M285.897 253.514C284.212 252.226 282.119 251.449 279.831 251.449C274.312 251.449 269.837 255.924 269.837 261.448C269.837 263.73 270.614 265.828 271.902 267.508L285.897 253.514Z" fill="#FFE495"/>
<path d="M287.767 255.383L273.774 269.377C275.454 270.667 277.552 271.441 279.835 271.441C285.359 271.441 289.835 266.966 289.835 261.445C289.832 259.163 289.061 257.068 287.767 255.383Z" fill="#FFE495"/>
<path d="M254.425 315.323C252.21 317.538 248.878 317.941 246.248 316.541C247.979 316.504 250.182 315.439 252.057 313.564L260.714 304.908L255.018 299.213L246.361 307.869C244.486 309.744 243.424 311.952 243.387 313.678C241.989 311.053 242.393 307.716 244.608 305.505L252.965 297.151L252.58 296.766L243.568 305.774C240.64 308.698 240.64 313.439 243.568 316.363C246.495 319.29 251.234 319.29 254.155 316.366L263.168 307.358L262.782 306.97L254.425 315.323Z" fill="#4E9FCA"/>
<path d="M261.585 287.755L252.576 296.766L252.962 297.152L261.319 288.795C263.528 286.581 266.862 286.177 269.493 287.578C267.762 287.615 265.559 288.679 263.684 290.554L255.02 299.21L260.717 304.906L269.374 296.249C271.258 294.371 272.32 292.166 272.354 290.441C273.755 293.068 273.351 296.402 271.136 298.614L262.778 306.97L263.164 307.359L272.179 298.348C275.107 295.421 275.107 290.682 272.179 287.758C269.255 284.831 264.51 284.831 261.585 287.755Z" fill="#FFE495"/>
<path d="M263.685 290.552C265.563 288.674 267.766 287.61 269.494 287.576C266.864 286.175 263.529 286.582 261.32 288.794L252.963 297.15L255.019 299.212L263.685 290.552Z" fill="white"/>
<path d="M244.608 305.506C242.393 307.72 241.989 311.058 243.387 313.679C243.424 311.954 244.485 309.745 246.361 307.87L255.018 299.214L252.962 297.152L244.608 305.506Z" fill="#C2DBA4"/>
<path d="M246.248 316.539C248.879 317.94 252.21 317.533 254.425 315.321L262.78 306.968L260.715 304.906L252.057 313.563C250.182 315.438 247.98 316.502 246.248 316.539Z" fill="#4E9FCA"/>
<path d="M271.136 298.614C273.351 296.4 273.755 293.066 272.354 290.441C272.32 292.167 271.256 294.375 269.374 296.25L260.717 304.906L262.782 306.968L271.136 298.614Z" fill="#FFD862"/>
<path d="M284.588 310.784C287.717 310.863 290.305 312.998 291.104 315.871C289.883 314.641 287.595 313.778 284.943 313.708L272.7 313.396L272.495 321.447L284.738 321.759C287.39 321.826 289.721 321.074 290.997 319.914C290.061 322.738 287.363 324.741 284.23 324.662L272.419 324.359L272.403 324.903L285.145 325.23C289.281 325.338 292.719 322.074 292.82 317.938C292.927 313.803 289.66 310.365 285.53 310.261L272.789 309.934L272.777 310.478L284.588 310.784Z" fill="#4E9FCA"/>
<path d="M259.665 324.581L272.403 324.905L272.418 324.36L260.604 324.058C257.478 323.981 254.886 321.843 254.088 318.971C255.306 320.2 257.594 321.063 260.249 321.13L272.495 321.448L272.7 313.398L260.457 313.086C257.799 313.012 255.468 313.765 254.192 314.927C255.134 312.101 257.829 310.097 260.959 310.18L272.773 310.483L272.785 309.938L260.044 309.608C255.908 309.504 252.47 312.768 252.366 316.903C252.262 321.038 255.529 324.477 259.665 324.581Z" fill="#FFE495"/>
<path d="M260.249 321.132C257.597 321.065 255.308 320.202 254.088 318.973C254.886 321.842 257.474 323.983 260.604 324.059L272.418 324.362L272.495 321.45L260.249 321.132Z" fill="white"/>
<path d="M284.229 324.665C287.359 324.745 290.057 322.741 290.996 319.918C289.72 321.08 287.389 321.83 284.737 321.762L272.494 321.45L272.418 324.362L284.229 324.665Z" fill="#C2DBA4"/>
<path d="M291.104 315.87C290.305 312.998 287.717 310.863 284.588 310.783L272.777 310.48L272.703 313.399L284.946 313.711C287.595 313.775 289.883 314.637 291.104 315.87Z" fill="#4E9FCA"/>
<path d="M260.959 310.178C257.83 310.099 255.135 312.102 254.192 314.925C255.468 313.763 257.802 313.01 260.457 313.084L272.7 313.396L272.774 310.478L260.959 310.178Z" fill="#FFD862"/>
<path d="M352.053 286.1C352.335 284.781 350.328 283.322 348.694 283.555H348.688C346.966 283.766 344.739 282.775 343.738 281.359L334.231 269.711C333.233 268.292 333.756 267.597 335.393 268.169L349.211 274.097C350.851 274.666 352.417 276.535 352.686 278.248V278.251H352.689C352.919 279.884 354.583 281.527 356.061 280.781C358.9 279.349 362.372 279.346 365.07 281.38L396.041 304.715C397.429 305.762 397.708 307.753 396.662 309.135L390.5 317.311C389.457 318.697 387.469 318.975 386.08 317.929L355.112 294.594C352.411 292.56 351.389 289.211 352.053 286.1Z" fill="#F3C252"/>
<path d="M348.514 275.78L336.146 269.164C336.298 269.192 336.464 269.234 336.647 269.302L348.789 274.645C350.181 275.129 351.509 276.716 351.741 278.169L351.873 278.995C351.236 277.774 349.817 276.395 348.514 275.78Z" fill="white"/>
<path d="M344.146 280.804L335.663 270.606C335.549 270.444 335.464 270.297 335.396 270.156L345.161 280.226C346.113 281.305 347.832 282.29 349.178 282.566L348.346 282.67C346.887 282.85 344.996 282.009 344.146 280.804Z" fill="#E5A344"/>
<path d="M392.606 307.532L362.473 284.83C362.47 284.823 362.461 284.817 362.452 284.814C360.614 283.429 358.191 282.413 356.27 282.208C358.64 280.648 361.831 280.654 364.226 282.462C364.232 282.468 364.239 282.474 364.248 282.48L394.38 305.186C395.763 306.229 396.041 308.22 394.998 309.606L394.038 310.881C394.634 310.08 393.992 308.575 392.606 307.532Z" fill="white"/>
<path d="M355.911 293.494C353.516 291.686 352.629 288.624 353.476 285.914C354.204 287.707 355.847 289.753 357.685 291.138C357.691 291.145 357.701 291.151 357.707 291.154L387.839 313.856C389.225 314.899 390.85 315.104 391.446 314.309L390.482 315.587C389.436 316.973 387.448 317.251 386.065 316.208L355.936 293.503C355.926 293.503 355.92 293.497 355.911 293.494Z" fill="#E5A344"/>
<path d="M350.214 282.959C350.768 282.632 351.263 282.197 351.676 281.65C352.08 281.114 352.361 280.518 352.524 279.906C353.077 280.732 353.97 281.457 354.803 281.607C354.313 282.008 353.866 282.47 353.466 282.999C353.062 283.537 352.735 284.109 352.481 284.702C352.107 284.014 351.156 283.292 350.214 282.959Z" fill="#E5A344"/>
<path d="M303.324 275.68H235.619V282.941H303.324V275.68Z" fill="#797A7C"/>
<path d="M318.271 275.68H311.009V282.941H318.271V275.68Z" fill="#797A7C"/>
<path d="M303.324 329.578H235.619V336.84H303.324V329.578Z" fill="#797A7C"/>
<path d="M318.271 329.578H311.009V336.84H318.271V329.578Z" fill="#797A7C"/>
<path d="M396.181 329.578H328.477V336.84H396.181V329.578Z" fill="#797A7C"/>
<path d="M411.13 329.578H403.867V336.84H411.13V329.578Z" fill="#797A7C"/>
<path d="M303.324 381.328H235.619V388.59H303.324V381.328Z" fill="#797A7C"/>
<path d="M318.271 381.328H311.009V388.59H318.271V381.328Z" fill="#797A7C"/>
<path d="M351.797 308.309C351.641 306.969 349.27 306.235 347.796 306.981H347.79C346.226 307.734 343.8 307.513 342.396 306.495L329.649 298.527C328.248 297.505 328.52 296.682 330.255 296.691L345.244 297.86C346.979 297.872 349.059 299.139 349.87 300.674L349.873 300.677H349.876C350.619 302.151 352.721 303.17 353.883 301.986C356.11 299.717 359.396 298.597 362.608 299.652L399.44 311.783C401.089 312.325 401.995 314.123 401.453 315.766L398.247 325.49C397.706 327.138 395.913 328.041 394.261 327.499L357.429 315.368C354.214 314.313 352.17 311.468 351.797 308.309Z" fill="#F3C252"/>
<path d="M345.121 299.678L331.284 297.391C331.437 297.366 331.608 297.357 331.804 297.36L345.02 298.513C346.494 298.525 348.262 299.599 348.951 300.899L349.339 301.639C348.342 300.691 346.555 299.841 345.121 299.678Z" fill="white"/>
<path d="M342.607 305.843L331.294 298.918C331.135 298.801 331.007 298.688 330.896 298.578L343.384 304.971C344.635 305.687 346.575 306.069 347.942 305.895L347.189 306.259C345.859 306.895 343.8 306.708 342.607 305.843Z" fill="#E5A344"/>
<path d="M397.088 315.551L361.253 303.747C361.247 303.747 361.238 303.744 361.229 303.738C359.041 303.016 356.42 302.839 354.535 303.261C356.279 301.022 359.301 300.003 362.152 300.943C362.162 300.946 362.168 300.952 362.177 300.952V300.949L398.012 312.752C399.657 313.294 400.56 315.089 400.018 316.738L399.52 318.255C399.829 317.31 398.734 316.093 397.088 315.551Z" fill="white"/>
<path d="M357.827 314.062C354.976 313.123 353.152 310.507 353.082 307.672C354.345 309.134 356.56 310.544 358.751 311.266C358.76 311.266 358.766 311.269 358.775 311.275L394.61 323.079C396.256 323.62 397.859 323.29 398.171 322.348L397.672 323.868C397.128 325.517 395.338 326.419 393.689 325.878L357.854 314.074C357.845 314.068 357.839 314.065 357.827 314.062Z" fill="#E5A344"/>
<path d="M349.047 305.927C349.466 305.44 349.796 304.868 350.011 304.217C350.219 303.578 350.295 302.926 350.249 302.293C351.038 302.896 352.118 303.296 352.953 303.171C352.62 303.706 352.345 304.29 352.137 304.917C351.926 305.56 351.8 306.205 351.754 306.847C351.179 306.315 350.047 305.939 349.047 305.927Z" fill="#E5A344"/>
</svg>
