<svg width="710" height="569" viewBox="0 0 710 569" fill="none" xmlns="http://www.w3.org/2000/svg">
<path d="M630.226 542.543C630.226 557.158 527.356 569.002 400.456 569.002C273.557 569.002 170.69 557.158 170.69 542.543C170.69 527.928 273.56 516.078 400.456 516.078C527.353 516.078 630.226 527.925 630.226 542.543Z" fill="#A9ABAE" fill-opacity="0.5"/>
<path d="M631.777 200.041C573.283 192.681 555.221 189.084 544.084 122.444C533.28 57.7816 484.092 9.92693 405.461 0.620939C360.903 -4.65498 285.058 23.3616 250.464 97.254C204.739 93.4047 146.537 109.121 105.025 137.43C60.4946 167.803 -6.32686 277.371 61.0022 321.137C105.025 349.748 167.662 315.772 212.803 341.652C253.499 364.984 253.207 422.878 279.12 457.587C382.913 596.605 613.639 448.36 680.759 348.966C726.017 281.954 725.252 211.805 631.777 200.041Z" fill="#4E9FCA" fill-opacity="0.5"/>
<mask id="mask0_387_18135" style="mask-type:luminance" maskUnits="userSpaceOnUse" x="32" y="0" width="678" height="515">
<path d="M631.777 200.041C573.283 192.681 555.221 189.084 544.084 122.444C533.28 57.7816 484.092 9.92693 405.461 0.620939C360.903 -4.65498 285.058 23.3616 250.464 97.254C204.739 93.4047 146.537 109.121 105.025 137.43C60.4946 167.803 -6.32686 277.371 61.0022 321.137C105.025 349.748 167.662 315.772 212.803 341.652C253.499 364.984 253.207 422.878 279.12 457.587C382.913 596.605 613.639 448.36 680.759 348.966C726.017 281.954 725.252 211.805 631.777 200.041Z" fill="white"/>
</mask>
<g mask="url(#mask0_387_18135)">
<path d="M544.084 122.449H462.956V422.065H544.084V122.449Z" fill="#4682A2"/>
<path d="M382.056 83.6523H300.925V422.064H382.056V83.6523Z" fill="#4682A2"/>
<path d="M668.953 231.941H535.461V422.065H668.953V231.941Z" fill="#4682A2"/>
<path d="M502.936 209.348H369.447V422.064H502.936V209.348Z" fill="#4682A2"/>
<path d="M676.287 231.82H528.132L602.208 205.332L676.287 231.82Z" fill="#4682A2"/>
<path d="M752.877 245.25H619.385V422.067H752.877V245.25Z" fill="#4682A2"/>
<path d="M760.206 245.128H612.055L686.13 218.637L760.206 245.128Z" fill="#4682A2"/>
<path d="M152.592 245.25H19.0996V422.067H152.592V245.25Z" fill="#4682A2"/>
<path d="M159.921 245.128H11.7695L85.8452 218.637L159.921 245.128Z" fill="#4682A2"/>
<path d="M334.157 231.941H200.668V422.065H334.157V231.941Z" fill="#4682A2"/>
<path d="M341.49 231.82H193.335L267.414 205.332L341.49 231.82Z" fill="#4682A2"/>
<path d="M275.756 181.418H142.264V422.062H275.756V181.418Z" fill="#4682A2"/>
<path d="M283.086 181.296H134.931L209.006 154.805L283.086 181.296Z" fill="#4682A2"/>
<path d="M478.1 173.574H394.283V247.43H478.1V173.574Z" fill="#4682A2"/>
<path d="M482.702 173.523H389.68L436.189 163.234L482.702 173.523Z" fill="#4682A2"/>
<path d="M752.876 422.062H19.0986V524.593H752.876V422.062Z" fill="#4682A2"/>
</g>
<path d="M422.006 438.251C421.471 438.251 420.929 438.149 420.408 437.935L394.118 427.104C392.06 426.256 391.11 423.971 391.991 421.999C392.876 420.027 395.267 419.12 397.318 419.964L423.612 430.799C425.669 431.644 426.62 433.932 425.735 435.901C425.073 437.37 423.581 438.251 422.006 438.251Z" fill="#383639"/>
<path d="M431.514 432.956C432.492 430.688 430.873 426.21 427.923 423.002L405.612 399.949C399.476 397.527 398.906 397.024 392.774 394.598C384.014 397.576 378.224 404.965 378.293 412.391L431.082 433.955C431.226 433.633 431.364 433.301 431.514 432.956Z" fill="#052F5F"/>
<path d="M378.293 412.391C378.303 413.686 378.475 414.988 378.859 416.266C396.89 423.386 411.717 429.957 429.742 437.071C429.742 437.071 430.318 435.736 431.083 433.951L378.293 412.391Z" fill="#D7D6D6"/>
<path d="M428.166 324.159C397.136 323.088 378.879 296.156 391.161 275.338C382.861 272.367 373.597 269.037 362.604 264.793L333.072 312.674C349.941 322.312 390.777 324.876 415.634 325.369C410.753 328.59 406.143 333.689 401.928 341.315C405.725 335.05 413.305 328.397 428.166 324.159Z" fill="#B67D4D"/>
<path d="M441.429 296.575C423.885 287.013 410.042 282.102 391.164 275.34C378.882 296.154 397.139 323.089 428.169 324.161C413.308 328.398 405.724 335.051 401.931 341.313C395.554 352.845 390.087 370.172 385.988 395.631L411.215 403.543C416 390.72 425.436 368.922 443.817 341.701C453.369 327.55 458.486 305.878 441.429 296.575Z" fill="#D28D58"/>
<path d="M476.339 322.004C473.962 322.004 472.426 321.195 471.568 320.541C469.671 319.091 468.793 316.689 469.222 314.115C469.853 310.328 473.046 306.972 477.56 305.351L511.959 292.104L511.201 290.293L516.97 288.07C518.716 287.4 520.568 287.173 522.362 287.393C523.737 285.934 524.258 283.968 523.528 282.229C523.024 281.026 521.981 280.099 520.592 279.616C519.12 279.106 517.467 279.149 515.931 279.741L510.161 281.963L508.649 278.357L514.418 276.135C516.884 275.185 519.57 275.122 521.977 275.967C524.464 276.832 526.354 278.541 527.294 280.783C528.412 283.449 527.966 286.381 526.361 288.757C527.945 289.707 529.153 291.072 529.842 292.722C531.756 297.278 529.091 302.613 523.905 304.615L481.58 320.916C479.508 321.711 477.769 322.004 476.339 322.004ZM523.387 291.644C522.763 292.045 522.084 292.393 521.353 292.676L479.025 308.974C475.214 310.338 473.537 312.836 473.225 314.726C473.026 315.916 473.345 316.928 474.096 317.504C475.259 318.391 477.433 318.322 480.067 317.306L522.392 301.005C525.503 299.809 527.157 296.739 526.08 294.168C525.606 293.037 524.656 292.15 523.387 291.644Z" fill="#F6A841"/>
<path d="M516.631 280.134C516.631 283.957 513.4 287.054 509.411 287.054C505.426 287.054 502.191 283.957 502.191 280.134C502.191 276.311 505.426 273.215 509.411 273.215C513.4 273.215 516.631 276.315 516.631 280.134Z" fill="#424853"/>
<path d="M520.321 286.441C520.887 284.623 521.233 282.739 521.24 280.902C521.254 278.144 520.729 275.175 519.083 272.858C518.157 271.556 516.819 270.245 515.447 269.37C512.71 267.625 509.136 267.431 505.915 267.414C496.308 267.362 492.566 273.216 493.753 278.321C494.36 280.928 495.341 283.459 496.912 285.685C497.882 287.055 499.049 288.278 500.482 289.218C502.489 290.543 504.79 291.204 507.352 291.204C508.982 291.204 510.717 290.937 512.552 290.402C513.622 290.089 514.226 289.005 513.9 287.976C513.574 286.95 512.442 286.368 511.369 286.684C509.122 287.341 506.186 287.193 504.457 285.51C504.001 285.067 503.614 284.495 503.346 283.929C502.568 282.286 502.434 279.689 504.619 277.782C507.785 275.011 510.662 275.813 512.521 276.974C515.299 278.709 517.025 282.042 516.596 284.596C516.232 286.036 515.697 287.45 515.035 288.752C514.545 289.715 514.96 290.878 515.968 291.348C516.963 291.809 518.194 291.408 518.678 290.454C519.323 289.192 519.885 287.834 520.321 286.441Z" fill="#F18E7F"/>
<path d="M504.742 270.811C469.212 251.798 423.632 224.432 396.992 187.682C389.724 177.649 376.759 167.814 366.274 176.617C353.308 187.497 365.883 204.571 374.9 212.306C409.833 242.291 453.187 268.293 498.5 278.657L504.742 270.811Z" fill="#F18E7F"/>
<path d="M534.419 389.105H532.988V542.538H534.419V389.105Z" fill="#C4C4C5"/>
<path d="M506.979 393.519L505.635 393.988L560.387 538.168L561.731 537.7L506.979 393.519Z" fill="#C4C4C5"/>
<path d="M482.783 406.556L481.688 407.438L584.598 524.969L585.694 524.088L482.783 406.556Z" fill="#C4C4C5"/>
<path d="M602.671 504.773L464.023 428.054L464.737 426.867L603.387 503.587L602.671 504.773Z" fill="#C4C4C5"/>
<path d="M455.014 451.861L454.766 453.211L612.43 479.863L612.678 478.513L455.014 451.861Z" fill="#C4C4C5"/>
<path d="M612.45 451.813L454.786 478.48L455.035 479.83L612.699 453.163L612.45 451.813Z" fill="#C4C4C5"/>
<path d="M602.637 426.877L464.024 503.656L464.74 504.843L603.353 428.064L602.637 426.877Z" fill="#C4C4C5"/>
<path d="M584.574 406.629L481.663 524.16L482.759 525.041L585.67 407.51L584.574 406.629Z" fill="#C4C4C5"/>
<path d="M560.358 393.505L505.619 537.691L506.963 538.16L561.702 393.974L560.358 393.505Z" fill="#C4C4C5"/>
<path d="M262.904 389.105H261.474V542.538H262.904V389.105Z" fill="#C4C4C5"/>
<path d="M235.467 393.512L234.123 393.98L288.875 538.161L290.219 537.692L235.467 393.512Z" fill="#C4C4C5"/>
<path d="M211.28 406.56L210.185 407.441L313.093 524.97L314.189 524.089L211.28 406.56Z" fill="#C4C4C5"/>
<path d="M193.199 426.86L192.484 428.047L331.129 504.765L331.844 503.577L193.199 426.86Z" fill="#C4C4C5"/>
<path d="M183.49 451.861L183.241 453.211L340.905 479.863L341.154 478.513L183.49 451.861Z" fill="#C4C4C5"/>
<path d="M340.9 451.853L183.235 478.535L183.484 479.885L341.148 453.203L340.9 451.853Z" fill="#C4C4C5"/>
<path d="M331.151 426.746L192.586 503.602L193.302 504.788L331.867 427.932L331.151 426.746Z" fill="#C4C4C5"/>
<path d="M313.069 406.613L210.174 524.16L211.27 525.041L314.164 407.494L313.069 406.613Z" fill="#C4C4C5"/>
<path d="M288.84 393.432L234.214 537.664L235.558 538.132L290.185 393.899L288.84 393.432Z" fill="#C4C4C5"/>
<path d="M262.19 379.414C212.395 379.414 172.028 418.101 172.028 465.824C172.028 513.551 212.395 552.237 262.19 552.237C311.989 552.237 352.356 513.551 352.356 465.824C352.356 418.101 311.989 379.414 262.19 379.414ZM262.19 539.167C219.927 539.167 185.666 506.329 185.666 465.824C185.666 425.319 219.93 392.484 262.19 392.484C304.454 392.484 338.718 425.319 338.718 465.824C338.718 506.329 304.454 539.167 262.19 539.167Z" fill="#424853"/>
<path d="M385.969 488.964L262.111 475.345L262.273 473.984L386.13 487.603L385.969 488.964Z" fill="#383639"/>
<path d="M385.962 442.717L262.099 456.023L262.258 457.386L386.121 444.079L385.962 442.717Z" fill="#383639"/>
<path d="M272.329 465.823C272.329 471.194 267.795 475.54 262.19 475.54C256.592 475.54 252.055 471.194 252.055 465.823C252.055 460.462 256.592 456.109 262.19 456.109C267.795 456.106 272.329 460.458 272.329 465.823Z" fill="#424853"/>
<path d="M392.328 467.764H262.231C261.11 467.764 260.204 466.897 260.204 465.822C260.204 464.75 261.11 463.879 262.231 463.879H392.328C393.449 463.879 394.355 464.747 394.355 465.822C394.355 466.897 393.446 467.764 392.328 467.764Z" fill="#F6A841"/>
<path d="M262.186 469.709C261.311 469.709 260.427 469.436 259.682 468.877C257.923 467.546 257.617 465.107 259 463.42L346.198 357.166C347.584 355.479 350.132 355.19 351.895 356.515C353.655 357.843 353.96 360.285 352.578 361.968L265.376 468.226C264.58 469.202 263.39 469.709 262.186 469.709Z" fill="#F6A841"/>
<path d="M395.349 468.417L388.548 467.227L345.612 360.973L349.392 355.684H491.569L494.59 362.163L395.349 468.417ZM355.312 363.455L393.72 458.51L482.5 363.455H355.312Z" fill="#F6A841"/>
<path d="M378.244 307.166C378.244 309.931 374.732 313.136 370.434 314.28L314.564 329.213C310.267 330.364 305.698 327.957 304.402 323.862L299.891 309.576C298.598 305.486 301.191 302.137 305.653 302.137H370.132C374.595 302.14 378.244 304.402 378.244 307.166Z" fill="#052F5F"/>
<path d="M533.701 379.414C483.906 379.414 443.539 418.101 443.539 465.824C443.539 513.551 483.906 552.237 533.701 552.237C583.5 552.237 623.866 513.551 623.866 465.824C623.866 418.101 583.5 379.414 533.701 379.414ZM533.701 539.167C491.438 539.167 457.176 506.329 457.176 465.824C457.176 425.319 491.441 392.484 533.701 392.484C575.968 392.484 610.229 425.319 610.229 465.824C610.233 506.329 575.968 539.167 533.701 539.167Z" fill="#424853"/>
<path d="M615.512 453.315C614.086 453.315 612.816 452.352 612.532 450.965C608.388 430.788 596.298 413.36 578.48 401.897C560.661 390.435 539.259 386.309 518.199 390.28C516.542 390.589 514.954 389.56 514.628 387.983C514.306 386.405 515.38 384.87 517.026 384.561C539.674 380.287 562.705 384.728 581.868 397.055C601.035 409.389 614.044 428.132 618.5 449.837C618.826 451.419 617.752 452.95 616.102 453.259C615.903 453.299 615.708 453.315 615.512 453.315Z" fill="#606169"/>
<path d="M533.674 548.653C493.232 548.653 457.005 521.245 448.911 481.805C448.585 480.227 449.659 478.695 451.308 478.383C452.965 478.074 454.556 479.1 454.879 480.681C463.43 522.336 505.734 549.557 549.212 541.365C550.868 541.05 552.46 542.085 552.782 543.663C553.105 545.244 552.034 546.776 550.385 547.085C544.777 548.147 539.186 548.653 533.674 548.653Z" fill="#606169"/>
<path d="M636.862 466.335C636.303 466.335 635.85 465.901 635.847 465.365C635.813 457.91 634.897 450.484 633.13 443.288C633 442.766 633.34 442.246 633.885 442.121C634.434 441.993 634.976 442.322 635.103 442.845C636.907 450.182 637.84 457.755 637.877 465.359C637.877 465.894 637.425 466.332 636.866 466.335C636.862 466.335 636.862 466.335 636.862 466.335Z" fill="#FFD96F"/>
<path d="M632.355 437.801C631.92 437.801 631.518 437.531 631.385 437.114C626.226 420.977 616.557 406.25 603.417 394.528C603.006 394.164 602.985 393.549 603.366 393.158C603.746 392.763 604.391 392.743 604.799 393.108C618.2 405.061 628.065 420.083 633.326 436.545C633.491 437.061 633.189 437.603 632.654 437.761C632.551 437.788 632.451 437.801 632.355 437.801Z" fill="#FFD96F"/>
<path d="M598.307 389.981C598.084 389.981 597.861 389.909 597.672 389.764C579.374 375.679 556.671 367.931 533.691 367.931C533.536 367.931 533.42 367.957 533.228 367.931C532.672 367.931 532.216 367.5 532.216 366.965C532.212 366.429 532.665 365.992 533.224 365.988C533.379 365.988 533.536 365.988 533.694 365.988C557.134 365.988 580.289 373.884 598.945 388.249C599.38 388.584 599.452 389.199 599.099 389.616C598.893 389.853 598.602 389.981 598.307 389.981Z" fill="#FFD96F"/>
<path d="M446.27 519.133C445.93 519.133 445.601 518.968 445.409 518.673C435.112 502.825 429.624 484.713 429.535 466.285C429.532 465.749 429.984 465.312 430.544 465.309H430.547C431.103 465.309 431.559 465.739 431.559 466.275C431.648 484.341 437.033 502.105 447.127 517.647C447.422 518.101 447.278 518.699 446.805 518.985C446.637 519.083 446.451 519.133 446.27 519.133Z" fill="#FFD96F"/>
<path d="M470.441 544.892C470.225 544.892 470.005 544.823 469.82 544.685C461.814 538.719 454.759 531.635 448.846 523.631C448.52 523.19 448.633 522.585 449.086 522.276C449.542 521.967 450.177 522.069 450.499 522.506C456.296 530.356 463.214 537.299 471.061 543.15C471.504 543.478 471.583 544.09 471.24 544.511C471.044 544.76 470.746 544.892 470.441 544.892Z" fill="#FFD96F"/>
<path d="M159.032 466.335C158.466 466.331 158.017 465.894 158.017 465.358C158.054 457.755 158.987 450.182 160.788 442.845C160.915 442.325 161.46 441.993 162.006 442.121C162.551 442.246 162.887 442.766 162.76 443.288C160.994 450.484 160.081 457.91 160.044 465.365C160.044 465.904 159.591 466.335 159.032 466.335Z" fill="#FFD96F"/>
<path d="M163.539 437.799C163.443 437.799 163.34 437.786 163.24 437.756C162.705 437.598 162.407 437.056 162.568 436.54C167.83 420.078 177.694 405.055 191.095 393.103C191.503 392.738 192.144 392.761 192.525 393.153C192.909 393.547 192.885 394.158 192.473 394.523C179.333 406.242 169.665 420.972 164.506 437.109C164.376 437.529 163.974 437.799 163.539 437.799Z" fill="#FFD96F"/>
<path d="M197.591 389.981C197.296 389.981 197.001 389.856 196.798 389.616C196.449 389.199 196.517 388.584 196.953 388.249C215.608 373.884 238.767 365.988 262.203 365.988C262.361 365.988 262.516 365.988 262.673 365.988C263.232 365.992 263.685 366.429 263.682 366.965C263.678 367.5 263.226 367.931 262.666 367.931C262.536 367.938 262.358 367.931 262.203 367.931C239.223 367.931 216.52 375.676 198.222 389.764C198.037 389.906 197.814 389.981 197.591 389.981Z" fill="#FFD96F"/>
<path d="M325.454 544.891C325.152 544.891 324.854 544.759 324.652 544.513C324.309 544.092 324.388 543.481 324.83 543.152C332.678 537.301 339.596 530.358 345.392 522.509C345.715 522.068 346.349 521.966 346.805 522.279C347.262 522.588 347.371 523.192 347.046 523.633C341.136 531.637 334.077 538.721 326.072 544.687C325.89 544.825 325.667 544.891 325.454 544.891Z" fill="#FFD96F"/>
<path d="M262.2 548.692C251.238 548.692 240.272 546.667 229.801 542.61C228.243 542.009 227.492 540.309 228.12 538.817C228.748 537.328 230.521 536.601 232.078 537.206C251.975 544.918 273.81 544.737 293.563 536.703C313.319 528.673 328.623 513.746 336.666 494.68C337.297 493.188 339.064 492.464 340.628 493.069C342.185 493.671 342.936 495.374 342.305 496.863C333.655 517.375 317.188 533.429 295.94 542.071C285.087 546.482 273.645 548.692 262.2 548.692Z" fill="#606169"/>
<path d="M184.886 438.794C184.509 438.794 184.121 438.725 183.747 438.581C182.19 437.979 181.439 436.28 182.07 434.787C199.926 392.448 250.397 371.92 294.575 389.04C296.132 389.641 296.883 391.341 296.255 392.833C295.628 394.325 293.861 395.045 292.294 394.444C251.234 378.537 204.31 397.612 187.709 436.973C187.229 438.104 186.09 438.794 184.886 438.794Z" fill="#606169"/>
<path d="M543.841 465.823C543.841 471.194 539.303 475.54 533.702 475.54C528.101 475.54 523.566 471.194 523.566 465.823C523.566 460.455 528.101 456.109 533.702 456.109C539.306 456.106 543.841 460.455 543.841 465.823Z" fill="#424853"/>
<path d="M533.708 469.709C532.083 469.709 530.546 468.766 529.925 467.227L469.909 318.647C469.099 316.645 470.138 314.397 472.227 313.621C474.323 312.849 476.666 313.845 477.472 315.84L537.492 464.42C538.301 466.422 537.262 468.674 535.173 469.45C534.689 469.624 534.192 469.709 533.708 469.709Z" fill="#F6A841"/>
<path d="M336.855 317.787L329.29 320.594L388.539 467.287L396.104 464.48L336.855 317.787Z" fill="#F6A841"/>
<path d="M408.328 428.765L375.07 502.434L376.383 502.978L409.641 429.31L408.328 428.765Z" fill="#383639"/>
<path d="M392.325 442.574C378.927 442.574 368.068 452.981 368.068 465.821C368.068 478.664 378.931 489.071 392.325 489.071C405.722 489.071 416.584 478.661 416.584 465.821C416.584 452.981 405.725 442.574 392.325 442.574ZM392.325 484.104C381.788 484.104 373.248 475.916 373.248 465.818C373.248 455.72 381.788 447.535 392.325 447.535C402.861 447.535 411.402 455.72 411.402 465.818C411.405 475.919 402.861 484.104 392.325 484.104Z" fill="#424853"/>
<path d="M393.042 444.863H391.611V486.785H393.042V444.863Z" fill="#383639"/>
<path d="M373.716 454.758L373.001 455.945L410.884 476.908L411.599 475.721L373.716 454.758Z" fill="#383639"/>
<path d="M410.978 454.757L373.106 475.738L373.821 476.922L411.692 455.941L410.978 454.757Z" fill="#383639"/>
<path d="M398.601 465.82C398.601 469.147 395.792 471.836 392.325 471.836C388.86 471.836 386.048 469.147 386.048 465.82C386.048 462.497 388.857 459.805 392.325 459.805C395.792 459.805 398.601 462.497 398.601 465.82Z" fill="#424853"/>
<path d="M387.628 506.673C387.542 506.673 387.457 506.673 387.371 506.666L358.806 504.954C356.57 504.819 354.872 502.975 355.013 500.832C355.15 498.688 357.109 497.055 359.311 497.196L387.875 498.909C390.108 499.047 391.809 500.891 391.668 503.031C391.538 505.092 389.751 506.673 387.628 506.673Z" fill="#383639"/>
<path d="M519.183 292.076C519.183 295.895 515.949 298.995 511.963 298.995C507.974 298.995 504.743 295.899 504.743 292.076C504.743 288.253 507.978 285.156 511.963 285.156C515.952 285.156 519.183 288.253 519.183 292.076Z" fill="#424853"/>
<path d="M480.908 317.24C480.908 321.063 477.677 324.16 473.688 324.16C469.702 324.16 466.468 321.063 466.468 317.24C466.468 313.417 469.699 310.324 473.688 310.324C477.673 310.321 480.908 313.417 480.908 317.24Z" fill="#424853"/>
<path d="M406.898 498.571C407.021 496.125 403.927 492.424 400.024 490.356L370.928 475.834C364.298 475.528 363.588 475.232 356.958 474.93C349.752 480.557 346.888 489.38 349.56 496.352L406.843 499.656C406.86 499.304 406.877 498.946 406.898 498.571Z" fill="#052F5F"/>
<path d="M349.557 496.352C350.023 497.571 350.641 498.741 351.453 499.816C370.928 500.717 387.196 502.127 406.671 503.024C406.671 503.024 406.743 501.585 406.84 499.655L349.557 496.352Z" fill="#D7D6D6"/>
<path d="M373.493 280.973C373.545 280.23 373.579 279.481 373.579 278.725C373.579 259.83 357.599 244.512 337.887 244.512C318.172 244.512 302.192 259.83 302.192 278.725C302.192 283.895 303.403 288.793 305.55 293.188C307.879 297.961 311.316 302.136 315.552 305.4C320.83 332.973 336.087 358.725 344.95 385.893C338.707 419.945 335.829 448.139 349.511 481.349L375.887 476.941C375.74 443.688 379.111 416.004 378.244 385.893C377.379 356.026 373.346 284.77 373.493 280.973Z" fill="#D28D58"/>
<path d="M344.95 166.012C341.764 168.392 338.77 171.189 336.098 174.401C315.083 199.613 301.6 256.139 296.691 287.68C315.902 266.228 322.062 236.551 329.368 208.893C333.079 194.837 335.888 178.289 344.95 166.012Z" fill="#FCC551"/>
<path d="M375.716 182.168C384.627 182.063 395.727 194.883 403.969 202.782C405.598 186.665 401.441 173.01 390.63 163.434C378.978 153.116 359.819 154.894 344.947 166.008C335.885 178.286 333.079 194.833 329.365 208.889C322.056 236.548 315.895 266.224 296.688 287.676C296.592 288.294 296.492 288.925 296.403 289.527C313.639 296.059 334.63 295.431 351.837 292.499C362.161 290.74 377.678 285.152 387.351 274.284C387.032 272.529 386.864 270.645 386.809 268.69C384.233 252.014 372.835 238.122 366.86 227.846C352.64 203.393 352.033 182.447 375.716 182.168Z" fill="#FFD96F"/>
<path d="M403.972 202.782C395.727 194.88 384.631 182.063 375.72 182.169C352.037 182.448 352.644 203.394 366.864 227.85C372.839 238.126 384.237 252.014 386.813 268.694C386.535 258.523 389.701 245.927 395.058 233.905C399.966 222.88 402.995 212.394 403.972 202.782Z" fill="#FCC551"/>
<path d="M373.579 170.646C372.108 170.646 370.616 170.389 369.161 169.847C362.902 167.51 359.808 160.748 362.247 154.749L372.605 129.293C375.047 123.294 382.106 120.329 388.359 122.666C394.618 125.007 397.712 131.765 395.273 137.764L384.915 163.22C383.039 167.828 378.443 170.646 373.579 170.646Z" fill="#F5AE8B"/>
<path d="M327.177 193.236L323.16 206.263C357.751 171.941 386.83 180.78 391.213 196.26C396.33 177.161 362.926 160.098 327.177 193.236Z" fill="#2C6764"/>
<path d="M391.21 196.262C390.678 198.241 389.735 200.239 388.339 202.208C369.365 228.933 321.065 257.025 303.356 270.072L300.479 279.398C318.191 266.348 369.361 237.223 388.336 210.495C391.683 205.785 392.479 200.745 391.21 196.262Z" fill="#2C6764"/>
<path d="M500.181 280.393C464.651 261.38 419.067 234.011 392.431 197.26C385.163 187.231 372.197 177.396 361.709 186.199C348.747 197.076 361.321 214.15 370.335 221.888C405.269 251.873 448.112 277.783 493.428 288.147L500.181 280.393Z" fill="#F5AE8B"/>
<path d="M403.008 206.191C393.575 214.376 384.147 222.558 374.718 230.74C369.028 224.717 363.334 218.689 357.64 212.667C340.563 194.59 368.853 170.042 385.93 188.118C391.624 194.143 397.314 200.165 403.008 206.191Z" fill="#FFD96F"/>
<path d="M384.4 141.847C389.185 146.245 390.869 152.007 388.163 154.713C385.453 157.418 379.379 156.044 374.59 151.639C369.806 147.241 368.122 141.485 370.828 138.776C373.537 136.071 379.612 137.448 384.4 141.847Z" fill="#F18E7F"/>
<path d="M410.05 108.497C417.465 125.811 411.158 144.696 395.967 150.672C380.769 156.644 362.436 147.463 355.021 130.15C347.605 112.833 353.906 93.9515 369.107 87.9688C384.305 81.9927 402.634 91.1804 410.05 108.497Z" fill="#F5AE8B"/>
<path d="M414.158 105.223C409.487 112.429 396.663 108.849 394.992 116.14C389.799 138.825 380.007 119.953 377.404 127.234C372.417 141.175 370.647 150.35 357.335 139.828C346.288 131.1 343.026 97.1732 366.411 87.0388C383.999 79.4126 398.062 86.1875 406.609 92.4397C413.414 97.4231 416.985 100.861 414.158 105.223Z" fill="#B44822"/>
<path d="M402.781 93.3387C419.608 89.1772 435.132 87.9674 437.454 90.6366C439.776 93.3025 428.012 98.8381 411.181 103L402.781 93.3387Z" fill="#052F5F"/>
<path d="M384.929 125.574C387.645 129.844 387.453 134.709 384.497 136.438C381.537 138.163 376.937 136.102 374.217 131.832C371.497 127.559 371.696 122.694 374.653 120.968C377.61 119.236 382.209 121.303 384.929 125.574Z" fill="#F5AE8B"/>
<path d="M399.64 118.516C399.506 118.516 399.369 118.48 399.245 118.401C398.916 118.197 398.824 117.77 399.043 117.454C400.796 114.904 404.25 112.626 407.981 113.276C408.372 113.346 408.626 113.701 408.558 114.075C408.486 114.447 408.098 114.687 407.728 114.628C404.613 114.082 401.729 116.041 400.24 118.207C400.1 118.411 399.873 118.516 399.64 118.516Z" fill="#B44822"/>
<path d="M407.045 120.203C407.261 121.834 406.729 123.237 405.855 123.349C404.977 123.451 404.095 122.222 403.879 120.595C403.663 118.964 404.198 117.56 405.073 117.452C405.947 117.343 406.832 118.576 407.045 120.203Z" fill="#B44822"/>
<path d="M400.456 133.633C401.478 139.441 407.69 137.748 409.923 134.162L400.456 133.633Z" fill="white"/>
<path d="M410.92 119.094C410.92 119.094 417.681 125.5 416.161 127.328C414.086 129.826 410.536 129.093 410.536 129.093L410.92 119.094Z" fill="#F5AE8B"/>
<path d="M346.706 118.936C341.568 99.8502 351.84 80.811 369.641 76.4062C387.446 72.0079 406.043 83.9074 411.181 102.993L346.706 118.936Z" fill="#4E9FCA"/>
<path d="M519.306 278.759C513.139 274.828 500.664 277.445 495.681 279.696C488.996 282.714 489.387 289.308 490.666 291.658C491.949 294.009 494.12 295.655 496.627 296.185C501.556 297.22 505.322 294.587 508.646 292.27C510.837 290.741 512.906 289.298 515.193 288.815C516.37 288.565 517.567 289.002 518.174 289.903C518.908 290.988 518.637 292.51 517.423 294.078C516.757 294.939 516.943 296.158 517.845 296.796C518.208 297.056 518.63 297.177 519.049 297.177C519.155 297.177 519.261 297.158 519.368 297.145C519.217 297.483 519.062 297.815 518.894 298.141C518.404 299.104 518.819 300.267 519.827 300.741C520.115 300.875 520.417 300.938 520.712 300.938C521.463 300.938 522.184 300.537 522.537 299.847C526.179 292.7 526.591 283.407 519.306 278.759Z" fill="#F5AE8B"/>
<path d="M181.871 173.145C172.596 173.145 167.894 171.001 163.346 168.93C158.801 166.86 154.507 164.904 145.692 164.904C136.877 164.904 132.586 166.86 128.042 168.93C123.494 171.001 118.791 173.145 109.52 173.145C100.249 173.145 95.5469 171.001 90.9989 168.93C86.4542 166.86 82.1634 164.904 73.352 164.904C64.5371 164.904 60.2463 166.86 55.7017 168.93C51.1571 171.001 46.4547 173.145 37.1836 173.145C27.9126 173.145 23.2102 171.001 18.6656 168.93C14.1209 166.86 9.82668 164.904 1.01525 164.904C0.452745 164.904 0 164.467 0 163.934C0 163.395 0.452745 162.961 1.01525 162.961C10.2863 162.961 14.9887 165.101 19.5333 167.175C24.0779 169.243 28.3722 171.199 37.1836 171.199C45.9985 171.199 50.2893 169.243 54.8305 167.175C59.3786 165.101 64.081 162.961 73.352 162.961C82.623 162.961 87.3254 165.101 91.8701 167.175C96.4147 169.243 100.709 171.199 109.52 171.199C118.332 171.199 122.626 169.243 127.167 167.175C131.715 165.101 136.418 162.961 145.689 162.961C154.963 162.961 159.666 165.101 164.21 167.175C168.755 169.243 173.049 171.199 181.864 171.199C190.679 171.199 194.973 169.243 199.518 167.175C204.066 165.101 208.768 162.961 218.043 162.961C218.602 162.961 219.058 163.395 219.058 163.934C219.058 164.467 218.602 164.904 218.043 164.904C209.228 164.904 204.934 166.86 200.389 168.93C195.844 171.001 191.142 173.145 181.871 173.145Z" fill="#FFD96F"/>
<path d="M209.958 201.52C200.687 201.52 195.981 199.377 191.436 197.306C186.892 195.238 182.601 193.279 173.783 193.279C164.971 193.279 160.677 195.235 156.132 197.306C151.584 199.377 146.885 201.52 137.611 201.52C128.34 201.52 123.637 199.377 119.089 197.306C114.548 195.238 110.254 193.279 101.442 193.279C92.6275 193.279 88.3367 195.235 83.7921 197.306C79.244 199.377 74.545 201.52 65.2705 201.52C55.9995 201.52 51.2971 199.377 46.7525 197.306C42.2078 195.238 37.917 193.279 29.1022 193.279C28.5431 193.279 28.0869 192.845 28.0869 192.31C28.0869 191.77 28.5397 191.34 29.1022 191.34C38.3732 191.34 43.0756 193.483 47.6237 195.551C52.1649 197.618 56.4591 199.578 65.2705 199.578C74.0854 199.578 78.3762 197.618 82.9208 195.551C87.4655 193.483 92.1679 191.34 101.442 191.34C110.713 191.34 115.416 193.483 119.96 195.551C124.505 197.618 128.796 199.578 137.611 199.578C146.422 199.578 150.716 197.618 155.261 195.551C159.809 193.483 164.511 191.34 173.783 191.34C183.057 191.34 187.759 193.483 192.304 195.551C196.849 197.618 201.143 199.578 209.958 199.578C218.773 199.578 223.067 197.618 227.612 195.551C232.16 193.483 236.862 191.34 246.136 191.34C246.696 191.34 247.152 191.774 247.152 192.31C247.152 192.845 246.699 193.279 246.136 193.279C237.322 193.279 233.027 195.235 228.483 197.306C223.935 199.377 219.232 201.52 209.958 201.52Z" fill="#FFD96F"/>
<path d="M218.698 321.523C209.427 321.523 204.725 319.383 200.177 317.305C195.632 315.238 191.338 313.282 182.523 313.282C173.708 313.282 169.414 315.234 164.873 317.305C160.325 319.383 155.622 321.523 146.351 321.523C137.08 321.523 132.378 319.383 127.833 317.305C123.289 315.238 118.998 313.282 110.186 313.282C101.372 313.282 97.0808 315.234 92.5362 317.305C87.9881 319.383 83.2857 321.523 74.0147 321.523C64.7436 321.523 60.0412 319.383 55.4932 317.305C50.952 315.238 46.6577 313.282 37.8463 313.282C37.2838 313.282 36.8311 312.845 36.8311 312.309C36.8311 311.77 37.2838 311.336 37.8463 311.336C47.1173 311.336 51.8163 313.479 56.3644 315.55C60.909 317.618 65.2032 319.574 74.0147 319.574C82.8295 319.574 87.1204 317.618 91.665 315.55C96.213 313.476 100.912 311.336 110.186 311.336C119.454 311.336 124.16 313.479 128.705 315.55C133.246 317.618 137.54 319.574 146.351 319.574C155.166 319.574 159.461 317.618 164.005 315.55C168.55 313.476 173.252 311.336 182.523 311.336C191.794 311.336 196.497 313.479 201.048 315.55C205.593 317.618 209.884 319.574 218.698 319.574C227.513 319.574 231.804 317.618 236.349 315.55C240.897 313.476 245.599 311.336 254.874 311.336C255.433 311.336 255.889 311.77 255.889 312.309C255.889 312.845 255.433 313.282 254.874 313.282C246.059 313.282 241.768 315.234 237.223 317.305C232.675 319.383 227.973 321.523 218.698 321.523Z" fill="#FFD96F"/>
<path d="M246.789 349.902C237.518 349.902 232.816 347.759 228.264 345.688C223.72 343.617 219.429 341.661 210.614 341.661C201.799 341.661 197.508 343.617 192.964 345.688C188.416 347.759 183.713 349.902 174.442 349.902C165.171 349.902 160.469 347.759 155.921 345.688C151.38 343.617 147.085 341.661 138.274 341.661C129.459 341.661 125.168 343.617 120.624 345.688C116.079 347.759 111.373 349.902 102.106 349.902C92.8345 349.902 88.1321 347.759 83.584 345.688C79.0394 343.617 74.7486 341.661 65.9337 341.661C65.3746 341.661 64.9219 341.227 64.9219 340.688C64.9219 340.152 65.3746 339.715 65.9337 339.715C75.2082 339.715 79.9071 341.858 84.4552 343.929C88.9998 346 93.2906 347.953 102.106 347.953C110.92 347.953 115.211 345.997 119.752 343.929C124.3 341.858 129.003 339.715 138.274 339.715C147.545 339.715 152.247 341.858 156.792 343.929C161.337 346 165.627 347.953 174.442 347.953C183.257 347.953 187.548 345.997 192.093 343.929C196.641 341.858 201.343 339.715 210.614 339.715C219.889 339.715 224.587 341.858 229.136 343.929C233.68 346 237.974 347.953 246.789 347.953C255.604 347.953 259.898 345.997 264.443 343.929C268.991 341.858 273.693 339.715 282.968 339.715C283.527 339.715 283.98 340.152 283.98 340.688C283.98 341.224 283.527 341.661 282.968 341.661C274.153 341.661 269.859 343.617 265.314 345.688C260.763 347.759 256.064 349.902 246.789 349.902Z" fill="#FFD96F"/>
<path d="M327.746 193.263C326.563 197.116 322.306 199.344 318.283 198.21L270.285 184.677C266.265 183.543 263.94 179.46 265.123 175.608L274.723 144.337C275.907 140.484 280.163 138.255 284.186 139.39L332.185 152.923C336.204 154.057 338.53 158.14 337.347 161.992L327.746 193.263Z" fill="#4E9FCA"/>
<path d="M277.731 268.029C276.843 270.919 273.65 272.588 270.635 271.737L238.757 262.75C235.742 261.899 234 258.838 234.885 255.949L251.949 200.356C252.837 197.467 256.03 195.797 259.045 196.648L290.923 205.635C293.937 206.483 295.68 209.547 294.795 212.436L277.731 268.029Z" fill="#4E9FCA"/>
<path d="M300.776 281.133C299.741 284.506 296.016 286.452 292.497 285.459L246.766 272.567C243.247 271.574 241.216 268.004 242.249 264.632L276.314 153.647C277.35 150.274 281.075 148.325 284.594 149.318L330.325 162.21C333.844 163.203 335.875 166.773 334.842 170.145L300.776 281.133Z" fill="#052F5F"/>
<path d="M267.65 263.795L269.479 257.839C269.914 256.415 270.586 255.235 271.488 254.305C272.391 253.372 273.45 252.747 274.665 252.431C275.879 252.116 277.172 252.152 278.54 252.537C279.909 252.924 281.013 253.562 281.857 254.46C282.701 255.357 283.239 256.429 283.469 257.681C283.702 258.933 283.599 260.271 283.16 261.695L281.332 267.651L267.65 263.795ZM280.516 261.113C280.917 259.801 280.859 258.647 280.334 257.651C279.813 256.655 278.9 255.975 277.597 255.607C276.294 255.239 275.141 255.337 274.14 255.903C273.138 256.468 272.435 257.408 272.034 258.72L271.183 261.491L279.665 263.884L280.516 261.113Z" fill="#B1DCDE"/>
<path d="M286.656 241.31L289.197 242.027L286.079 252.181L272.397 248.325L275.44 238.414L277.981 239.131L275.865 246.024L278.835 246.862L280.705 240.774L283.167 241.468L281.298 247.556L284.464 248.447L286.656 241.31Z" fill="#B1DCDE"/>
<path d="M276.256 235.753L277.185 232.718L288.288 235.848L290.308 229.273L292.887 230L289.938 239.608L276.256 235.753Z" fill="#B1DCDE"/>
<path d="M279.73 224.436L280.663 221.402L294.345 225.261L293.412 228.296L279.73 224.436Z" fill="#B1DCDE"/>
<path d="M285.462 205.762L297.402 215.295L296.482 218.292L281.062 220.094L282.066 216.816L293.066 215.584L284.533 208.779L285.462 205.762Z" fill="#B1DCDE"/>
<path d="M300.056 197.665L302.598 198.382L299.48 208.536L285.798 204.677L288.84 194.766L291.382 195.482L289.265 202.375L292.236 203.214L294.105 197.126L296.568 197.819L294.698 203.907L297.864 204.801L300.056 197.665Z" fill="#B1DCDE"/>
<path d="M305.904 187.61L301.315 189.063L301.27 189.214L300.458 191.857L304.268 192.928L303.335 195.962L289.653 192.103L291.396 186.426C291.752 185.266 292.263 184.316 292.929 183.573C293.594 182.833 294.373 182.334 295.258 182.081C296.143 181.828 297.093 181.844 298.108 182.13C299.123 182.416 299.929 182.899 300.523 183.573C301.116 184.25 301.473 185.072 301.6 186.045L306.899 184.342L305.904 187.61ZM295.179 185.42C294.623 185.779 294.205 186.416 293.924 187.327L293.166 189.799L297.933 191.143L298.691 188.671C298.972 187.761 298.976 187.008 298.705 186.416C298.434 185.825 297.919 185.42 297.165 185.21C296.4 184.99 295.735 185.062 295.179 185.42Z" fill="#B1DCDE"/>
<path d="M304.59 174.72L309.436 176.088L308.503 179.122L303.616 177.744L293.261 180.341L294.249 177.12L301.403 175.332L296.399 170.115L297.311 167.137L304.59 174.72Z" fill="#B1DCDE"/>
</svg>
