<svg width="137" height="137" viewBox="0 0 137 137" fill="none" xmlns="http://www.w3.org/2000/svg">
<g filter="url(#filter0_d_16_2568)">
<circle cx="68.5" cy="68.5" r="62.5" fill="white"/>
</g>
<path d="M90.9519 58.547C90.9519 58.547 104.723 54.0966 102.819 65.1874C102.256 68.3494 100.841 71.2805 98.741 73.6409C96.6406 76.0014 93.9399 77.6946 90.9519 78.5243M45.0481 58.547C45.0481 58.547 31.277 54.0966 33.1806 65.1874C33.7445 68.3494 35.1586 71.2805 37.259 73.6409C39.3594 76.0014 42.0601 77.6946 45.0481 78.5243" stroke="#BBBDBF" stroke-width="2" stroke-linecap="round" stroke-linejoin="round"/>
<path d="M90.9516 80.1535C90.9516 80.1535 85.3352 85.4181 67.9997 85.4181C50.6643 85.4181 45.0479 80.1535 45.0479 80.1535V56.2874C52.1326 52.4542 60.0137 50.4874 67.9997 50.5595C75.9858 50.4874 83.8669 52.4542 90.9516 56.2874V80.1535Z" fill="#95DEEB"/>
<path d="M90.9516 65.8895C90.9516 65.8895 85.3352 63.0818 67.9997 63.0818C50.6643 63.0818 45.0479 65.8895 45.0479 65.8895V60.3863C52.5402 58.3595 60.2585 57.3775 67.9997 57.4662C75.741 57.3775 83.4593 58.3595 90.9516 60.3863V65.8895ZM45.0479 70.1012C45.0479 70.1012 50.6643 72.909 67.9997 72.909C85.3352 72.909 90.9516 70.1012 90.9516 70.1012V75.6044C83.4593 77.6313 75.741 78.6132 67.9997 78.5245C60.2585 78.6132 52.5402 77.6313 45.0479 75.6044V70.1012Z" fill="#4E9FCA"/>
<path d="M52.1899 53.1704C49.7164 53.9622 47.3241 55.0062 45.0479 56.287V80.1531C45.0479 80.1531 50.6643 85.4177 67.9997 85.4177H70.1464C55.9162 72.9933 52.6895 60.4566 52.1899 53.1704Z" fill="#65BFC4"/>
<path d="M58.954 72.6144C48.6526 71.8985 45.0479 70.1015 45.0479 70.1015V75.6047C50.9868 77.2368 57.0816 78.1784 63.2204 78.4125C61.6734 76.5827 60.2479 74.6456 58.954 72.6144ZM53 58.6458C50.3169 59.0525 47.6609 59.6339 45.0479 60.3866V65.8898C45.0479 65.8898 47.5996 64.6263 54.4986 63.798C53.8865 62.1182 53.3857 60.3968 53 58.6458Z" fill="#2D6F92"/>
<path d="M59.0502 85.4021V89.6249M61.0825 87.5117H57.0215M60.4858 86.0189L57.6147 89.0081M60.4858 89.0081L57.6147 86.0189" stroke="#BC4343" stroke-linecap="round" stroke-linejoin="round"/>
<path d="M57.3552 93.1935C57.2954 93.0683 57.207 92.9604 57.0976 92.8792C56.9883 92.798 56.8613 92.7461 56.7281 92.7281C56.5948 92.71 56.4594 92.7264 56.3337 92.7758C56.208 92.8251 56.0959 92.9059 56.0073 93.011C55.8777 93.1737 55.7021 93.2899 55.5054 93.3431L55.0421 93.4563C54.7945 92.7505 54.3572 92.1335 53.782 91.6788L53.8171 91.6205C54.0095 91.3228 54.2465 91.0591 54.5191 90.8394C54.5662 90.7977 54.6065 90.7484 54.6384 90.6934C54.6894 90.6131 54.7214 90.5214 54.7317 90.4258C54.7421 90.3302 54.7305 90.2334 54.698 90.1434C54.6655 90.0533 54.6129 89.9725 54.5446 89.9076C54.4763 89.8427 54.3942 89.7956 54.305 89.77C54.2098 89.74 54.1087 89.736 54.0116 89.7583C53.9145 89.7807 53.8245 89.8287 53.7504 89.8978C53.6634 89.9783 53.6012 90.0836 53.5714 90.2007C53.494 90.572 53.3626 90.9289 53.1818 91.2591C52.5312 90.919 51.7997 90.7821 51.0758 90.8649L50.9705 90.3978C50.9288 90.184 50.9522 89.9621 51.0372 89.7627C51.1008 89.6007 51.1143 89.4221 51.0758 89.2517C51.0457 89.1207 50.9861 88.999 50.9021 88.8965C50.8181 88.7939 50.7119 88.7135 50.5923 88.6618C50.4726 88.6101 50.3429 88.5886 50.2138 88.599C50.0846 88.6094 49.9596 88.6514 49.849 88.7216C49.7385 88.7917 49.6454 88.8881 49.5775 89.0029C49.5096 89.1176 49.4688 89.2474 49.4584 89.3817C49.4479 89.516 49.4682 89.6509 49.5175 89.7755C49.5668 89.9001 49.6437 90.0107 49.742 90.0985C49.9102 90.2284 50.0334 90.4115 50.093 90.6204L50.2018 91.1022C49.5231 91.3596 48.9297 91.8144 48.4925 92.4125L48.4328 92.376C48.1465 92.1759 47.893 91.9295 47.6817 91.646C47.6416 91.5971 47.5942 91.5552 47.5413 91.5219C47.4647 91.4718 47.3779 91.4409 47.2879 91.4315C47.1979 91.4221 47.107 91.4345 47.0223 91.4677C46.9377 91.501 46.8616 91.5541 46.8 91.623C46.7384 91.692 46.693 91.7748 46.6673 91.865C46.6384 91.964 46.6345 92.0691 46.6561 92.1701C46.6776 92.2711 46.7237 92.3646 46.7901 92.4417C46.8676 92.5321 46.9689 92.5968 47.0815 92.6278C47.4386 92.7083 47.7818 92.8449 48.0994 93.0329H48.1169C47.7898 93.7095 47.6581 94.4701 47.7378 95.2228L47.2745 95.3359C47.0747 95.3783 46.8671 95.354 46.6813 95.2666C46.5427 95.2074 46.391 95.1889 46.243 95.2132C46.0949 95.2375 45.9561 95.3037 45.8418 95.4045C45.7274 95.5053 45.6419 95.6368 45.5946 95.7847C45.5472 95.9326 45.5399 96.0912 45.5734 96.2431C45.6069 96.395 45.6799 96.5345 45.7844 96.6462C45.8889 96.7579 46.021 96.8376 46.1661 96.8766C46.3113 96.9156 46.4639 96.9123 46.6074 96.8672C46.7509 96.822 46.8796 96.7367 46.9797 96.6207C47.1148 96.4543 47.2964 96.3357 47.4992 96.2812L47.9484 96.1717C48.1939 96.8717 48.6261 97.4845 49.1945 97.9382C48.9883 98.2521 48.7374 98.5315 48.4504 98.7667C48.3627 98.8458 48.2992 98.9498 48.2678 99.066C48.241 99.1654 48.2391 99.2703 48.2625 99.3706C48.2858 99.471 48.3336 99.5634 48.4012 99.639C48.4622 99.7085 48.5377 99.7624 48.6221 99.7965C48.7064 99.8305 48.7971 99.8438 48.8872 99.8353C48.9773 99.8269 49.0643 99.7968 49.1413 99.7476C49.2184 99.6983 49.2834 99.6312 49.3314 99.5514C49.358 99.5034 49.3781 99.4519 49.391 99.3981C49.4554 99.045 49.5739 98.7049 49.742 98.3908L49.7771 98.3324C50.4278 98.6726 51.1592 98.8095 51.8831 98.7266L51.9919 99.2083C52.0327 99.4161 52.0093 99.632 51.9252 99.8252C51.8683 99.9693 51.8505 100.127 51.8739 100.281C51.8973 100.435 51.9609 100.579 52.0578 100.698C52.1548 100.817 52.2813 100.906 52.4235 100.955C52.5657 101.004 52.7182 101.012 52.8643 100.977C53.0105 100.942 53.1446 100.867 53.252 100.758C53.3594 100.649 53.4361 100.512 53.4736 100.361C53.511 100.21 53.5079 100.051 53.4645 99.902C53.4211 99.7529 53.3391 99.6189 53.2274 99.5149C53.065 99.3705 52.9507 99.1763 52.901 98.9602L52.7957 98.493C53.4745 98.2356 54.0678 97.7808 54.5051 97.1827C54.8069 97.3971 55.0756 97.658 55.3018 97.9565C55.3778 98.0476 55.4779 98.1136 55.5896 98.1463C55.6852 98.1742 55.7861 98.1761 55.8826 98.1518C55.9791 98.1275 56.068 98.0779 56.1407 98.0076C56.2064 97.9444 56.2572 97.8665 56.2895 97.7797C56.3217 97.693 56.3344 97.5997 56.3266 97.507C56.3188 97.4144 56.2907 97.3248 56.2445 97.2452C56.1983 97.1656 56.1352 97.098 56.06 97.0477C56.0079 97.0142 55.951 96.9895 55.8915 96.9747C55.5519 96.9077 55.2248 96.7845 54.9227 96.6097L54.8666 96.5732C55.1904 95.902 55.3219 95.1483 55.2457 94.4016L55.709 94.2884C55.9145 94.2451 56.128 94.2693 56.3197 94.3578C56.4755 94.4239 56.6473 94.4379 56.8111 94.3979C56.9304 94.3678 57.0417 94.3102 57.1367 94.2294C57.2318 94.1486 57.3082 94.0467 57.3604 93.9312C57.4126 93.8156 57.4393 93.6894 57.4383 93.5617C57.4374 93.4341 57.409 93.3082 57.3552 93.1935Z" fill="#BD4C4C"/>
<path d="M52.1368 97.7122C53.6854 97.3389 54.6497 95.731 54.2908 94.1208C53.9319 92.5106 52.3856 91.5079 50.837 91.8811C49.2885 92.2543 48.3242 93.8622 48.6831 95.4724C49.042 97.0826 50.5883 98.0854 52.1368 97.7122Z" fill="#933333"/>
<path d="M54.1858 97.574C51.9363 96.2508 50.138 94.233 49.0402 91.8C48.8349 91.9819 48.6489 92.1863 48.4856 92.4095L48.426 92.373C48.1397 92.173 47.8861 91.9266 47.6748 91.6431C47.6347 91.5942 47.5873 91.5523 47.5344 91.519C47.4578 91.4689 47.3711 91.438 47.2811 91.4286C47.191 91.4192 47.1001 91.4316 47.0155 91.4648C46.9308 91.498 46.8547 91.5512 46.7931 91.6201C46.7315 91.689 46.6861 91.7719 46.6605 91.8621C46.6316 91.9611 46.6277 92.0661 46.6492 92.1671C46.6707 92.2682 46.7169 92.3617 46.7833 92.4387C46.8607 92.5292 46.9621 92.5939 47.0746 92.6249C47.4317 92.7054 47.775 92.842 48.0925 93.03H48.1101C47.7829 93.7066 47.6513 94.4672 47.731 95.2199L47.2677 95.333C47.0679 95.3754 46.8603 95.3511 46.6745 95.2637C46.5358 95.2044 46.3842 95.186 46.2361 95.2103C46.0881 95.2346 45.9493 95.3008 45.8349 95.4016C45.7206 95.5024 45.6351 95.6339 45.5877 95.7818C45.5404 95.9297 45.5331 96.0883 45.5666 96.2402C45.6 96.3921 45.673 96.5316 45.7776 96.6433C45.8821 96.755 46.0141 96.8347 46.1593 96.8737C46.3044 96.9126 46.4571 96.9094 46.6005 96.8642C46.744 96.8191 46.8728 96.7338 46.9728 96.6177C47.108 96.4514 47.2895 96.3328 47.4923 96.2783L47.9416 96.1688C48.1884 96.8711 48.6232 97.4853 49.1947 97.939C48.9885 98.2528 48.7376 98.5322 48.4505 98.7675C48.3629 98.8465 48.2994 98.9506 48.268 99.0667C48.2411 99.1661 48.2393 99.271 48.2627 99.3714C48.286 99.4717 48.3338 99.5641 48.4014 99.6398C48.4623 99.7093 48.5379 99.7631 48.6222 99.7972C48.7066 99.8313 48.7973 99.8446 48.8874 99.8361C48.9775 99.8276 49.0644 99.7976 49.1415 99.7483C49.2185 99.699 49.2836 99.6319 49.3315 99.5522C49.3582 99.5042 49.3782 99.4526 49.3912 99.3989C49.4556 99.0457 49.5741 98.7056 49.7422 98.3915L49.7773 98.3331C50.4279 98.6733 51.1594 98.8102 51.8833 98.7273L51.9921 99.2091C52.0329 99.4169 52.0095 99.6327 51.9254 99.8259C51.8684 99.9701 51.8507 100.128 51.8741 100.282C51.8975 100.436 51.9611 100.58 52.058 100.699C52.155 100.818 52.2814 100.907 52.4237 100.956C52.5659 101.005 52.7184 101.013 52.8645 100.978C53.0106 100.943 53.1447 100.867 53.2522 100.759C53.3596 100.65 53.4363 100.513 53.4737 100.362C53.5112 100.211 53.5081 100.052 53.4647 99.9028C53.4213 99.7536 53.3393 99.6197 53.2276 99.5157C53.0651 99.3713 52.9509 99.1771 52.9012 98.9609L52.7959 98.4937C53.3187 98.2974 53.7933 97.9833 54.1858 97.574Z" fill="#AA3F3F"/>
<path d="M48.6886 95.4715C48.8008 95.9754 49.0367 96.4404 49.3733 96.8213C49.7098 97.2022 50.1355 97.4858 50.6089 97.6446C51.0823 97.8034 51.5872 97.832 52.0743 97.7274C52.5615 97.6229 53.0142 97.3889 53.3885 97.0482C51.7719 95.9274 50.4313 94.4271 49.4749 92.6685C49.1243 93.0268 48.8679 93.4726 48.7302 93.9634C48.5926 94.4541 48.5783 94.9734 48.6886 95.4715Z" fill="#B04444"/>
<path d="M53.4236 92.5814C53.8998 93.0315 54.2172 93.6347 54.325 94.2945C54.4329 94.9543 54.3249 95.6326 54.0184 96.2211C53.712 96.8096 53.2246 97.2743 52.6343 97.5409C52.044 97.8076 51.3848 97.8608 50.762 97.6921C50.1391 97.5234 49.5887 97.1424 49.1985 96.6102C48.8084 96.0779 48.601 95.4251 48.6096 94.7559C48.6182 94.0867 48.8423 93.4398 49.246 92.9186C49.6497 92.3974 50.2098 92.0319 50.8367 91.8806" stroke="#BC4D4D" stroke-linecap="round" stroke-linejoin="round"/>
<path d="M51.7805 96.1159C52.4811 95.947 52.9174 95.2196 52.755 94.491C52.5926 93.7625 51.893 93.3088 51.1924 93.4777C50.4918 93.6466 50.0555 94.374 50.2179 95.1025C50.3803 95.8311 51.0799 96.2848 51.7805 96.1159Z" fill="#A54545"/>
<path d="M59.05 88.7776C59.7227 88.7776 60.268 88.2106 60.268 87.5111C60.268 86.8116 59.7227 86.2446 59.05 86.2446C58.3773 86.2446 57.832 86.8116 57.832 87.5111C57.832 88.2106 58.3773 88.7776 59.05 88.7776Z" fill="#AA3F3F"/>
<path d="M59.0507 86.26C58.9316 86.2613 58.8133 86.281 58.6997 86.3184C58.6637 86.4365 58.6448 86.5595 58.6436 86.6834C58.6436 87.0193 58.7719 87.3414 59.0003 87.5789C59.2287 87.8164 59.5385 87.9499 59.8615 87.9499C59.9806 87.9486 60.0989 87.9289 60.2125 87.8915C60.2485 87.7734 60.2674 87.6504 60.2687 87.5265C60.2687 87.1906 60.1404 86.8685 59.9119 86.631C59.6835 86.3934 59.3737 86.26 59.0507 86.26Z" fill="#BD4C4C"/>
<path d="M59.1836 97.6574L59.8329 97.9129M60.9386 98.3508L61.5037 98.5771M60.7841 96.9092L60.542 97.5734M60.1418 98.6684L59.9031 99.3217" stroke="#BC4343" stroke-linecap="round" stroke-linejoin="round"/>
<path d="M60.6461 98.8252C61.0211 98.6505 61.1889 98.1927 61.0208 97.8027C60.8527 97.4127 60.4125 97.2383 60.0374 97.4131C59.6624 97.5878 59.4946 98.0456 59.6627 98.4356C59.8308 98.8255 60.2711 99 60.6461 98.8252Z" fill="#AA3F3F"/>
<path d="M60.9319 97.6463C60.8482 97.5332 60.736 97.4465 60.6077 97.3956C60.4795 97.3447 60.3402 97.3317 60.2053 97.358C60.1249 97.4218 60.0673 97.5119 60.0419 97.6138C60.0164 97.7157 60.0246 97.8235 60.0649 97.92C60.1148 98.0357 60.2068 98.126 60.3206 98.1711C60.4345 98.2163 60.5609 98.2126 60.6722 98.1609C60.7646 98.1177 60.8404 98.0436 60.8875 97.9503C60.9346 97.857 60.9502 97.7499 60.9319 97.6463Z" fill="#BD4C4C"/>
<path d="M45.7897 86.7087L45.9863 87.3329M46.3092 88.3402L46.569 89.1614M47.3552 87.5299L46.7269 87.7453M45.5932 88.1358L45 88.3402" stroke="#BC4343" stroke-linecap="round" stroke-linejoin="round"/>
<path d="M46.8436 88.2823C47.0281 87.9004 46.88 87.4354 46.5128 87.2435C46.1456 87.0516 45.6983 87.2056 45.5138 87.5874C45.3293 87.9693 45.4774 88.4344 45.8446 88.6262C46.2118 88.8181 46.659 88.6641 46.8436 88.2823Z" fill="#AA3F3F"/>
<path d="M46.902 88.1097C46.9333 87.9711 46.9273 87.8263 46.8846 87.691C46.8418 87.5558 46.7641 87.4355 46.6598 87.3432C46.5609 87.3186 46.4569 87.3294 46.3646 87.3737C46.2722 87.4181 46.197 87.4935 46.1509 87.5878C46.1237 87.6438 46.1073 87.7049 46.1028 87.7676C46.0983 87.8302 46.1058 87.8932 46.1247 87.9528C46.1436 88.0125 46.1736 88.0677 46.213 88.1152C46.2524 88.1628 46.3005 88.2019 46.3544 88.2301C46.4455 88.2768 46.549 88.2903 46.6483 88.2684C46.7476 88.2466 46.8369 88.1907 46.902 88.1097Z" fill="#BD4C4C"/>
<path d="M88.0502 36V40.2228M90.0825 38.1096H86.0215M89.4858 36.6168L86.6147 39.606M89.4858 39.606L86.6147 36.6168" stroke="#BC4343" stroke-linecap="round" stroke-linejoin="round"/>
<path d="M86.3552 43.7917C86.2954 43.6665 86.207 43.5585 86.0976 43.4774C85.9883 43.3962 85.8613 43.3443 85.7281 43.3262C85.5948 43.3082 85.4594 43.3246 85.3337 43.3739C85.208 43.4233 85.0959 43.5041 85.0073 43.6092C84.8777 43.7719 84.7021 43.8881 84.5054 43.9413L84.0421 44.0544C83.7945 43.3486 83.3572 42.7317 82.782 42.277L82.8171 42.2186C83.0095 41.9209 83.2465 41.6572 83.5191 41.4375C83.5662 41.3959 83.6065 41.3466 83.6384 41.2916C83.6894 41.2113 83.7214 41.1196 83.7317 41.024C83.7421 40.9284 83.7305 40.8316 83.698 40.7415C83.6655 40.6514 83.6129 40.5707 83.5446 40.5058C83.4763 40.4409 83.3942 40.3937 83.305 40.3682C83.2098 40.3381 83.1087 40.3341 83.0116 40.3565C82.9145 40.3788 82.8245 40.4269 82.7504 40.4959C82.6634 40.5764 82.6012 40.6818 82.5714 40.7988C82.494 41.1702 82.3626 41.5271 82.1818 41.8573C81.5312 41.5171 80.7997 41.3802 80.0758 41.4631L79.9705 40.9959C79.9288 40.7822 79.9522 40.5602 80.0372 40.3609C80.1008 40.1988 80.1143 40.0203 80.0758 39.8499C80.0457 39.7189 79.9861 39.5971 79.9021 39.4946C79.8181 39.3921 79.7119 39.3117 79.5923 39.26C79.4726 39.2083 79.3429 39.1867 79.2138 39.1971C79.0846 39.2075 78.9596 39.2495 78.849 39.3197C78.7385 39.3899 78.6454 39.4863 78.5775 39.601C78.5096 39.7158 78.4688 39.8456 78.4584 39.9798C78.4479 40.1141 78.4682 40.249 78.5175 40.3736C78.5668 40.4982 78.6437 40.6089 78.742 40.6966C78.9102 40.8266 79.0334 41.0097 79.093 41.2186L79.2018 41.7003C78.5231 41.9577 77.9297 42.4125 77.4925 43.0106L77.4328 42.9741C77.1465 42.7741 76.893 42.5276 76.6817 42.2441C76.6416 42.1952 76.5942 42.1533 76.5413 42.1201C76.4647 42.07 76.3779 42.039 76.2879 42.0296C76.1979 42.0202 76.107 42.0326 76.0223 42.0659C75.9377 42.0991 75.8616 42.1523 75.8 42.2212C75.7384 42.2901 75.693 42.3729 75.6673 42.4631C75.6384 42.5621 75.6345 42.6672 75.6561 42.7682C75.6776 42.8692 75.7237 42.9627 75.7901 43.0398C75.8676 43.1302 75.9689 43.195 76.0815 43.2259C76.4386 43.3064 76.7818 43.4431 77.0994 43.6311H77.1169C76.7898 44.3076 76.6581 45.0682 76.7378 45.8209L76.2745 45.9341C76.0747 45.9765 75.8671 45.9522 75.6813 45.8647C75.5427 45.8055 75.391 45.787 75.243 45.8114C75.0949 45.8357 74.9561 45.9018 74.8418 46.0026C74.7274 46.1034 74.6419 46.2349 74.5946 46.3828C74.5472 46.5307 74.5399 46.6893 74.5734 46.8412C74.6069 46.9932 74.6799 47.1326 74.7844 47.2443C74.8889 47.3561 75.021 47.4358 75.1661 47.4747C75.3113 47.5137 75.4639 47.5104 75.6074 47.4653C75.7509 47.4202 75.8796 47.3349 75.9797 47.2188C76.1148 47.0524 76.2964 46.9338 76.4992 46.8794L76.9484 46.7699C77.1939 47.4699 77.6261 48.0826 78.1945 48.5364C77.9883 48.8502 77.7374 49.1296 77.4504 49.3649C77.3627 49.4439 77.2992 49.548 77.2678 49.6641C77.241 49.7635 77.2391 49.8684 77.2625 49.9688C77.2858 50.0691 77.3336 50.1615 77.4012 50.2372C77.4622 50.3067 77.5377 50.3605 77.6221 50.3946C77.7064 50.4287 77.7971 50.442 77.8872 50.4335C77.9773 50.425 78.0643 50.395 78.1413 50.3457C78.2184 50.2964 78.2834 50.2293 78.3314 50.1496C78.358 50.1016 78.3781 50.05 78.391 49.9963C78.4554 49.6431 78.5739 49.303 78.742 48.9889L78.7771 48.9305C79.4278 49.2707 80.1592 49.4076 80.8831 49.3247L80.9919 49.8065C81.0327 50.0143 81.0093 50.2301 80.9252 50.4233C80.8683 50.5675 80.8505 50.7252 80.8739 50.8791C80.8973 51.0331 80.9609 51.1774 81.0578 51.2963C81.1548 51.4152 81.2813 51.5041 81.4235 51.5533C81.5657 51.6026 81.7182 51.6102 81.8643 51.5754C82.0105 51.5406 82.1446 51.4647 82.252 51.356C82.3594 51.2473 82.4361 51.11 82.4736 50.959C82.511 50.8081 82.5079 50.6494 82.4645 50.5002C82.4211 50.351 82.3391 50.2171 82.2274 50.1131C82.065 49.9687 81.9507 49.7745 81.901 49.5583L81.7957 49.0911C82.4745 48.8337 83.0678 48.3789 83.5051 47.7809C83.8069 47.9952 84.0756 48.2561 84.3018 48.5546C84.3778 48.6458 84.4779 48.7118 84.5896 48.7444C84.6852 48.7723 84.7861 48.7743 84.8826 48.75C84.9791 48.7257 85.068 48.676 85.1407 48.6057C85.2064 48.5426 85.2572 48.4646 85.2895 48.3779C85.3217 48.2911 85.3344 48.1978 85.3266 48.1052C85.3188 48.0125 85.2907 47.923 85.2445 47.8434C85.1983 47.7637 85.1352 47.6962 85.06 47.6458C85.0079 47.6123 84.951 47.5877 84.8915 47.5728C84.5519 47.5059 84.2248 47.3826 83.9227 47.2078L83.8666 47.1713C84.1904 46.5002 84.3219 45.7464 84.2457 44.9997L84.709 44.8866C84.9145 44.8433 85.128 44.8675 85.3197 44.9559C85.4755 45.022 85.6473 45.036 85.8111 44.9961C85.9304 44.9659 86.0417 44.9083 86.1367 44.8275C86.2318 44.7468 86.3082 44.6449 86.3604 44.5293C86.4126 44.4138 86.4393 44.2875 86.4383 44.1599C86.4374 44.0322 86.409 43.9064 86.3552 43.7917Z" fill="#BD4C4C"/>
<path d="M81.1368 48.3103C82.6854 47.9371 83.6497 46.3292 83.2908 44.719C82.9319 43.1088 81.3856 42.106 79.837 42.4792C78.2885 42.8525 77.3242 44.4604 77.6831 46.0706C78.042 47.6808 79.5883 48.6835 81.1368 48.3103Z" fill="#933333"/>
<path d="M83.1858 48.1721C80.9363 46.849 79.138 44.8312 78.0402 42.3982C77.8349 42.5801 77.6489 42.7844 77.4856 43.0077L77.426 42.9712C77.1397 42.7711 76.8861 42.5247 76.6748 42.2412C76.6347 42.1923 76.5873 42.1504 76.5344 42.1171C76.4578 42.0671 76.3711 42.0361 76.2811 42.0267C76.191 42.0173 76.1001 42.0297 76.0155 42.063C75.9308 42.0962 75.8547 42.1493 75.7931 42.2183C75.7315 42.2872 75.6861 42.37 75.6605 42.4602C75.6316 42.5592 75.6277 42.6643 75.6492 42.7653C75.6707 42.8663 75.7169 42.9598 75.7833 43.0369C75.8607 43.1273 75.9621 43.1921 76.0746 43.223C76.4317 43.3035 76.775 43.4401 77.0925 43.6282H77.1101C76.7829 44.3047 76.6513 45.0653 76.731 45.818L76.2677 45.9312C76.0679 45.9735 75.8603 45.9493 75.6745 45.8618C75.5358 45.8026 75.3842 45.7841 75.2361 45.8084C75.0881 45.8328 74.9493 45.8989 74.8349 45.9997C74.7206 46.1005 74.6351 46.232 74.5877 46.3799C74.5404 46.5278 74.5331 46.6864 74.5666 46.8383C74.6 46.9903 74.673 47.1297 74.7776 47.2414C74.8821 47.3532 75.0141 47.4329 75.1593 47.4718C75.3044 47.5108 75.4571 47.5075 75.6005 47.4624C75.744 47.4173 75.8728 47.332 75.9728 47.2159C76.108 47.0495 76.2895 46.9309 76.4923 46.8765L76.9416 46.767C77.1884 47.4692 77.6232 48.0834 78.1947 48.5371C77.9885 48.851 77.7376 49.1303 77.4505 49.3656C77.3629 49.4447 77.2994 49.5487 77.268 49.6649C77.2411 49.7643 77.2393 49.8692 77.2627 49.9695C77.286 50.0699 77.3338 50.1623 77.4014 50.2379C77.4623 50.3074 77.5379 50.3613 77.6222 50.3953C77.7066 50.4294 77.7973 50.4427 77.8874 50.4342C77.9775 50.4257 78.0644 50.3957 78.1415 50.3464C78.2185 50.2972 78.2836 50.2301 78.3315 50.1503C78.3582 50.1023 78.3782 50.0507 78.3912 49.997C78.4556 49.6439 78.5741 49.3038 78.7422 48.9897L78.7773 48.9313C79.4279 49.2714 80.1594 49.4084 80.8833 49.3255L80.9921 49.8072C81.0329 50.015 81.0095 50.2309 80.9254 50.424C80.8684 50.5682 80.8507 50.7259 80.8741 50.8799C80.8975 51.0338 80.9611 51.1782 81.058 51.2971C81.155 51.416 81.2814 51.5049 81.4237 51.5541C81.5659 51.6033 81.7184 51.6109 81.8645 51.5761C82.0106 51.5413 82.1447 51.4654 82.2522 51.3567C82.3596 51.248 82.4363 51.1107 82.4737 50.9598C82.5112 50.8089 82.5081 50.6501 82.4647 50.5009C82.4213 50.3517 82.3393 50.2178 82.2276 50.1138C82.0651 49.9694 81.9509 49.7752 81.9012 49.559L81.7959 49.0919C82.3187 48.8955 82.7933 48.5814 83.1858 48.1721Z" fill="#AA3F3F"/>
<path d="M77.6886 46.0696C77.8008 46.5735 78.0367 47.0386 78.3733 47.4194C78.7098 47.8003 79.1355 48.084 79.6089 48.2428C80.0823 48.4016 80.5872 48.4301 81.0743 48.3256C81.5615 48.2211 82.0142 47.987 82.3885 47.6463C80.7719 46.5255 79.4313 45.0252 78.4749 43.2666C78.1243 43.6249 77.8679 44.0708 77.7302 44.5615C77.5926 45.0522 77.5783 45.5715 77.6886 46.0696Z" fill="#B04444"/>
<path d="M82.4236 43.1793C82.8998 43.6294 83.2172 44.2326 83.325 44.8924C83.4329 45.5522 83.3249 46.2305 83.0184 46.819C82.712 47.4075 82.2246 47.8722 81.6343 48.1388C81.044 48.4055 80.3848 48.4587 79.762 48.29C79.1391 48.1213 78.5887 47.7403 78.1985 47.2081C77.8084 46.6758 77.601 46.023 77.6096 45.3538C77.6182 44.6846 77.8423 44.0377 78.246 43.5165C78.6497 42.9953 79.2098 42.6298 79.8367 42.4785" stroke="#BC4D4D" stroke-linecap="round" stroke-linejoin="round"/>
<path d="M80.7805 46.714C81.4811 46.5452 81.9174 45.8177 81.755 45.0892C81.5926 44.3607 80.893 43.907 80.1924 44.0758C79.4918 44.2447 79.0555 44.9722 79.2179 45.7007C79.3803 46.4292 80.0799 46.8829 80.7805 46.714Z" fill="#A54545"/>
<path d="M88.05 39.3757C88.7227 39.3757 89.268 38.8087 89.268 38.1092C89.268 37.4098 88.7227 36.8428 88.05 36.8428C87.3773 36.8428 86.832 37.4098 86.832 38.1092C86.832 38.8087 87.3773 39.3757 88.05 39.3757Z" fill="#AA3F3F"/>
<path d="M88.0507 36.8582C87.9316 36.8595 87.8133 36.8791 87.6997 36.9166C87.6637 37.0347 87.6448 37.1577 87.6436 37.2815C87.6436 37.6174 87.7719 37.9396 88.0003 38.1771C88.2287 38.4146 88.5385 38.548 88.8615 38.548C88.9806 38.5467 89.0989 38.527 89.2125 38.4896C89.2485 38.3715 89.2674 38.2485 89.2687 38.1246C89.2687 37.7887 89.1404 37.4666 88.9119 37.2291C88.6835 36.9916 88.3737 36.8582 88.0507 36.8582Z" fill="#BD4C4C"/>
<path d="M88.1836 48.2553L88.8329 48.5108M89.9386 48.9487L90.5037 49.175M89.7841 47.5071L89.542 48.1713M89.1418 49.2663L88.9031 49.9196" stroke="#BC4343" stroke-linecap="round" stroke-linejoin="round"/>
<path d="M89.6461 49.4234C90.0211 49.2486 90.1889 48.7908 90.0208 48.4008C89.8527 48.0109 89.4125 47.8364 89.0374 48.0112C88.6624 48.186 88.4946 48.6438 88.6627 49.0337C88.8308 49.4237 89.2711 49.5981 89.6461 49.4234Z" fill="#AA3F3F"/>
<path d="M89.9319 48.2444C89.8482 48.1314 89.736 48.0446 89.6077 47.9937C89.4795 47.9428 89.3402 47.9298 89.2053 47.9561C89.1249 48.02 89.0673 48.1101 89.0419 48.212C89.0164 48.3138 89.0246 48.4217 89.0649 48.5182C89.1148 48.6338 89.2068 48.7241 89.3206 48.7693C89.4345 48.8145 89.5609 48.8108 89.6722 48.7591C89.7646 48.7159 89.8404 48.6417 89.8875 48.5484C89.9346 48.4551 89.9502 48.3481 89.9319 48.2444Z" fill="#BD4C4C"/>
<path d="M74.7897 37.3069L74.9863 37.931M75.3092 38.9383L75.569 39.7595M76.3552 38.1281L75.7269 38.3434M74.5932 38.7339L74 38.9383" stroke="#BC4343" stroke-linecap="round" stroke-linejoin="round"/>
<path d="M75.8436 38.8802C76.0281 38.4983 75.88 38.0333 75.5128 37.8414C75.1456 37.6495 74.6983 37.8035 74.5138 38.1853C74.3293 38.5672 74.4774 39.0323 74.8446 39.2241C75.2118 39.416 75.659 39.262 75.8436 38.8802Z" fill="#AA3F3F"/>
<path d="M75.902 38.7078C75.9333 38.5693 75.9273 38.4244 75.8846 38.2892C75.8418 38.154 75.7641 38.0336 75.6598 37.9414C75.5609 37.9168 75.4569 37.9275 75.3646 37.9719C75.2722 38.0162 75.197 38.0916 75.1509 38.1859C75.1237 38.242 75.1073 38.3031 75.1028 38.3657C75.0983 38.4284 75.1058 38.4913 75.1247 38.551C75.1436 38.6106 75.1736 38.6658 75.213 38.7134C75.2524 38.761 75.3005 38.8 75.3544 38.8283C75.4455 38.8749 75.549 38.8884 75.6483 38.8666C75.7476 38.8447 75.8369 38.7888 75.902 38.7078Z" fill="#BD4C4C"/>
<defs>
<filter id="filter0_d_16_2568" x="0" y="0" width="137" height="137" filterUnits="userSpaceOnUse" color-interpolation-filters="sRGB">
<feFlood flood-opacity="0" result="BackgroundImageFix"/>
<feColorMatrix in="SourceAlpha" type="matrix" values="0 0 0 0 0 0 0 0 0 0 0 0 0 0 0 0 0 0 127 0" result="hardAlpha"/>
<feMorphology radius="3" operator="dilate" in="SourceAlpha" result="effect1_dropShadow_16_2568"/>
<feOffset/>
<feGaussianBlur stdDeviation="1.5"/>
<feComposite in2="hardAlpha" operator="out"/>
<feColorMatrix type="matrix" values="0 0 0 0 0 0 0 0 0 0 0 0 0 0 0 0 0 0 0.25 0"/>
<feBlend mode="normal" in2="BackgroundImageFix" result="effect1_dropShadow_16_2568"/>
<feBlend mode="normal" in="SourceGraphic" in2="effect1_dropShadow_16_2568" result="shape"/>
</filter>
</defs>
</svg>
