<svg width="179" height="50" viewBox="0 0 179 50" fill="none" xmlns="http://www.w3.org/2000/svg">
<path d="M16.254 4.54561C-10.7499 4.1179 2.48719 29.1473 9.40985 33.1833C9.64224 29.5468 36.6424 22.2363 40.8683 18.1311C45.0943 14.0259 47.4936 9.2207 49.7892 0C41.8159 6.02293 43.2579 4.97332 16.254 4.54561Z" fill="#4E9FCA"/>
<path d="M32.9314 45.391C59.4492 45.8247 48.4259 20.9089 41.6279 16.8167C41.3997 20.5038 13.1642 27.6851 9.01437 31.8474C4.8645 36.0098 2.25417 40.6508 -0.000148773 50C7.82969 43.8931 6.4136 44.9574 32.9314 45.391Z" fill="#347031"/>
<rect x="19.2529" y="8.25586" width="11.5572" height="32.6962" fill="white"/>
<path d="M25.0312 30.2139V18.9898C35.2558 19.0226 40.3832 18.9327 41.8646 16.5498C49.6531 28.7499 41.8646 30.2139 41.8646 30.2139H25.0312Z" fill="white"/>
<path d="M25.2275 18.9893L25.2275 30.2133C15.003 30.1806 9.87564 30.2704 8.3942 32.6533C0.605644 20.4533 8.3942 18.9893 8.3942 18.9893L25.2275 18.9893Z" fill="white"/>
<path d="M91.8257 17.519H86.5857L85.7457 19.999H82.1657L87.2457 5.95902H91.2057L96.2857 19.999H92.6657L91.8257 17.519ZM90.9457 14.879L89.2057 9.73902L87.4857 14.879H90.9457ZM108.532 10.479C108.532 11.2924 108.345 12.039 107.972 12.719C107.598 13.3857 107.025 13.9257 106.252 14.339C105.478 14.7524 104.518 14.959 103.372 14.959H101.252V19.999H97.8318V5.95902H103.372C104.492 5.95902 105.438 6.15236 106.212 6.53902C106.985 6.92569 107.565 7.45902 107.952 8.13902C108.338 8.81902 108.532 9.59902 108.532 10.479ZM103.112 12.239C103.765 12.239 104.252 12.0857 104.572 11.779C104.892 11.4724 105.052 11.039 105.052 10.479C105.052 9.91902 104.892 9.48569 104.572 9.17902C104.252 8.87236 103.765 8.71902 103.112 8.71902H101.252V12.239H103.112ZM116.952 20.139C115.632 20.139 114.419 19.8324 113.312 19.219C112.219 18.6057 111.346 17.7524 110.692 16.659C110.052 15.5524 109.732 14.3124 109.732 12.939C109.732 11.5657 110.052 10.3324 110.692 9.23902C111.346 8.14569 112.219 7.29236 113.312 6.67902C114.419 6.06569 115.632 5.75902 116.952 5.75902C118.272 5.75902 119.479 6.06569 120.572 6.67902C121.679 7.29236 122.546 8.14569 123.172 9.23902C123.812 10.3324 124.132 11.5657 124.132 12.939C124.132 14.3124 123.812 15.5524 123.172 16.659C122.532 17.7524 121.666 18.6057 120.572 19.219C119.479 19.8324 118.272 20.139 116.952 20.139ZM116.952 17.019C118.072 17.019 118.966 16.6457 119.632 15.899C120.312 15.1524 120.652 14.1657 120.652 12.939C120.652 11.699 120.312 10.7124 119.632 9.97902C118.966 9.23236 118.072 8.85902 116.952 8.85902C115.819 8.85902 114.912 9.22569 114.232 9.95902C113.566 10.6924 113.232 11.6857 113.232 12.939C113.232 14.179 113.566 15.1724 114.232 15.919C114.912 16.6524 115.819 17.019 116.952 17.019ZM136.135 5.95902V8.69902H132.415V19.999H128.995V8.69902H125.275V5.95902H136.135ZM141.271 8.69902V11.539H145.851V14.179H141.271V17.259H146.451V19.999H137.851V5.95902H146.451V8.69902H141.271ZM156.812 19.999L152.092 13.799V19.999H148.672V5.95902H152.092V12.119L156.772 5.95902H160.792L155.352 12.839L160.992 19.999H156.812Z" fill="#347031"/>
<path d="M76.2814 25.959V28.699H72.5614V39.999H69.1414V28.699H65.4214V25.959H76.2814ZM81.3578 25.959V34.359C81.3578 35.199 81.5645 35.8457 81.9778 36.299C82.3911 36.7524 82.9978 36.979 83.7978 36.979C84.5978 36.979 85.2111 36.7524 85.6378 36.299C86.0645 35.8457 86.2778 35.199 86.2778 34.359V25.959H89.6978V34.339C89.6978 35.5924 89.4311 36.6524 88.8978 37.519C88.3645 38.3857 87.6445 39.039 86.7378 39.479C85.8445 39.919 84.8445 40.139 83.7378 40.139C82.6311 40.139 81.6378 39.9257 80.7578 39.499C79.8911 39.059 79.2045 38.4057 78.6978 37.539C78.1911 36.659 77.9378 35.5924 77.9378 34.339V25.959H81.3578ZM101.419 30.399C101.166 29.9324 100.799 29.579 100.319 29.339C99.8527 29.0857 99.2994 28.959 98.6594 28.959C97.5527 28.959 96.666 29.3257 95.9994 30.059C95.3327 30.779 94.9994 31.7457 94.9994 32.959C94.9994 34.2524 95.346 35.2657 96.0394 35.999C96.746 36.719 97.7127 37.079 98.9394 37.079C99.7794 37.079 100.486 36.8657 101.059 36.439C101.646 36.0124 102.073 35.399 102.339 34.599H97.9994V32.079H105.439V35.259C105.186 36.1124 104.753 36.9057 104.139 37.639C103.539 38.3724 102.773 38.9657 101.839 39.419C100.906 39.8724 99.8527 40.099 98.6794 40.099C97.2927 40.099 96.0527 39.799 94.9594 39.199C93.8794 38.5857 93.0327 37.739 92.4194 36.659C91.8194 35.579 91.5194 34.3457 91.5194 32.959C91.5194 31.5724 91.8194 30.339 92.4194 29.259C93.0327 28.1657 93.8794 27.319 94.9594 26.719C96.0394 26.1057 97.2727 25.799 98.6594 25.799C100.339 25.799 101.753 26.2057 102.899 27.019C104.059 27.8324 104.826 28.959 105.199 30.399H101.419ZM110.694 25.959V34.359C110.694 35.199 110.9 35.8457 111.314 36.299C111.727 36.7524 112.334 36.979 113.134 36.979C113.934 36.979 114.547 36.7524 114.974 36.299C115.4 35.8457 115.614 35.199 115.614 34.359V25.959H119.034V34.339C119.034 35.5924 118.767 36.6524 118.234 37.519C117.7 38.3857 116.98 39.039 116.074 39.479C115.18 39.919 114.18 40.139 113.074 40.139C111.967 40.139 110.974 39.9257 110.094 39.499C109.227 39.059 108.54 38.4057 108.034 37.539C107.527 36.659 107.274 35.5924 107.274 34.339V25.959H110.694ZM134.174 32.799C134.987 32.9724 135.64 33.379 136.134 34.019C136.627 34.6457 136.874 35.3657 136.874 36.179C136.874 37.3524 136.46 38.2857 135.634 38.979C134.82 39.659 133.68 39.999 132.214 39.999H125.674V25.959H131.994C133.42 25.959 134.534 26.2857 135.334 26.939C136.147 27.5924 136.554 28.479 136.554 29.599C136.554 30.4257 136.334 31.1124 135.894 31.659C135.467 32.2057 134.894 32.5857 134.174 32.799ZM129.094 31.639H131.334C131.894 31.639 132.32 31.519 132.614 31.279C132.92 31.0257 133.074 30.659 133.074 30.179C133.074 29.699 132.92 29.3324 132.614 29.079C132.32 28.8257 131.894 28.699 131.334 28.699H129.094V31.639ZM131.614 37.239C132.187 37.239 132.627 37.1124 132.934 36.859C133.254 36.5924 133.414 36.2124 133.414 35.719C133.414 35.2257 133.247 34.839 132.914 34.559C132.594 34.279 132.147 34.139 131.574 34.139H129.094V37.239H131.614ZM147.597 37.519H142.357L141.517 39.999H137.937L143.017 25.959H146.977L152.057 39.999H148.437L147.597 37.519ZM146.717 34.879L144.977 29.739L143.257 34.879H146.717ZM163.703 25.959V28.699H159.983V39.999H156.563V28.699H152.843V25.959H163.703ZM168.78 25.959V34.359C168.78 35.199 168.986 35.8457 169.4 36.299C169.813 36.7524 170.42 36.979 171.22 36.979C172.02 36.979 172.633 36.7524 173.06 36.299C173.486 35.8457 173.7 35.199 173.7 34.359V25.959H177.12V34.339C177.12 35.5924 176.853 36.6524 176.32 37.519C175.786 38.3857 175.066 39.039 174.16 39.479C173.266 39.919 172.266 40.139 171.16 40.139C170.053 40.139 169.06 39.9257 168.18 39.499C167.313 39.059 166.626 38.4057 166.12 37.539C165.613 36.659 165.36 35.5924 165.36 34.339V25.959H168.78Z" fill="#4E9FCA"/>
</svg>
