<svg width="50" height="32" viewBox="0 0 50 32" fill="none" xmlns="http://www.w3.org/2000/svg">
<rect width="50" height="32" rx="4" fill="white"/>
<g clip-path="url(#clip0_742_17504)">
<path d="M4.04929 18.2467C4.04929 17.6507 4.03867 17.1517 4.00586 16.7052H5.15474L5.20926 17.4713H5.24111C5.50118 17.0669 5.97791 16.5878 6.86671 16.5878C7.56057 16.5878 8.10196 16.9713 8.32971 17.5451H8.3519C8.53623 17.2582 8.7524 17.0452 9.00137 16.897C9.29426 16.6944 9.63106 16.5878 10.0639 16.5878C10.9421 16.5878 11.8299 17.1725 11.8299 18.8324V21.8831H10.5295V19.0227C10.5295 18.162 10.226 17.6507 9.58667 17.6507C9.13165 17.6507 8.79534 17.9707 8.65493 18.3428C8.61585 18.4848 8.59399 18.6309 8.58979 18.7779V21.8836H7.2894V18.884C7.2894 18.1625 6.99699 17.6512 6.37889 17.6512C5.88141 17.6512 5.54558 18.0346 5.42495 18.3954C5.37139 18.5232 5.34919 18.6728 5.34919 18.8205V21.8836H4.04929V18.2467ZM16.8968 20.6399C16.8968 21.1072 16.9185 21.564 16.9721 21.8836H15.7692L15.6828 21.3098H15.65C15.3248 21.7141 14.7718 22.0001 14.0905 22.0001C13.028 22.0001 12.4321 21.2459 12.4321 20.4586C12.4321 19.1496 13.6123 18.4915 15.5641 18.5019V18.4172C15.5641 18.0763 15.4227 17.5129 14.4905 17.5129C13.9699 17.5129 13.4285 17.6729 13.0709 17.8954L12.8109 17.0447C13.2012 16.8103 13.884 16.5874 14.7178 16.5874C16.409 16.5874 16.8973 17.6412 16.8973 18.767L16.8968 20.6399ZM15.596 19.3536C14.6526 19.3318 13.7537 19.534 13.7537 20.3208C13.7537 20.8312 14.0905 21.0655 14.5127 21.0655C15.043 21.0655 15.4338 20.7242 15.553 20.3525C15.5822 20.2596 15.5968 20.1629 15.5964 20.0656V19.3536H15.596ZM17.8175 18.2467C17.8175 17.6507 17.8064 17.1517 17.775 16.7052H18.9442L19.0088 17.4826H19.0416C19.2689 17.0778 19.8436 16.5878 20.7213 16.5878C21.6429 16.5878 22.5959 17.1725 22.5959 18.8111V21.8831H21.2631V18.9597C21.2631 18.2155 20.9809 17.6502 20.2552 17.6502C19.7249 17.6502 19.3553 18.0228 19.2148 18.4167C19.1714 18.5332 19.1608 18.6932 19.1608 18.8409V21.8827H17.817L17.8175 18.2467ZM28.3755 14.625V20.4269C28.3755 20.9585 28.3977 21.5337 28.4189 21.8836H27.2276L27.173 21.0655H27.1508C26.8372 21.6393 26.1969 22.0005 25.4282 22.0005C24.1708 22.0005 23.1744 20.9481 23.1744 19.3541C23.1628 17.6204 24.2678 16.5883 25.5368 16.5883C26.2625 16.5883 26.7827 16.8861 27.021 17.2705H27.0437V14.6255H28.3759V14.625H28.3755ZM27.0432 18.8636C27.0432 18.758 27.0326 18.6302 27.0104 18.5232C26.8912 18.0138 26.4695 17.5986 25.862 17.5986C25.006 17.5986 24.5283 18.3433 24.5283 19.3105C24.5283 20.256 25.0056 20.9476 25.8514 20.9476C26.3923 20.9476 26.8695 20.5855 26.9993 20.0221C27.0321 19.9056 27.0437 19.7773 27.0437 19.6396V18.8636H27.0432ZM29.3183 21.8836V16.7052H30.6631V21.8836H29.3183ZM31.605 18.375C31.605 17.6734 31.5948 17.173 31.5625 16.7057H32.722L32.7645 17.6938H32.8084C33.0684 16.9604 33.6856 16.7057 34.2506 16.7057C34.3804 16.7057 34.4557 16.6839 34.5638 16.7057V17.8547C34.4359 17.827 34.3053 17.8127 34.1744 17.8121C33.5336 17.8121 33.1003 18.2164 32.9816 18.8002C32.9553 18.9338 32.941 19.0694 32.9386 19.2054V21.8841H31.605V18.375ZM35.1824 21.8836V16.7052H36.5252V21.8836H35.1824Z" fill="#0D2B5B"/>
<path d="M44.8901 11.2281C44.2247 10.4834 43.5173 10.8204 42.9552 11.0946C42.7187 11.2091 41.0121 12.1583 41.0121 12.1583C40.0769 12.5366 39.3488 12.1238 39.0632 11.7763C39.0358 11.7433 39.0112 11.7084 38.9893 11.6717L38.9227 11.5585C38.8102 11.3675 38.6851 11.1839 38.5483 11.0089C38.4653 10.9028 38.3753 10.802 38.2791 10.7073C37.6392 10.0734 36.6168 9.62977 34.9077 10.4355C34.0985 10.8957 31.4625 12.3733 31.4625 12.3733C30.4719 12.7733 29.7144 12.2862 29.4683 11.9287C29.4572 11.9154 29.4475 11.9009 29.4393 11.8857L29.407 11.8317L29.24 11.5637C29.1647 11.4463 29.0839 11.3324 28.9978 11.2224C28.914 11.1169 28.8239 11.0164 28.7281 10.9213C28.0926 10.2911 27.0755 9.84849 25.3813 10.6391C24.357 11.2129 21.9743 12.5494 21.9743 12.5494L21.9733 12.5503L20.2295 13.528L21.1318 14.615C21.5115 14.97 22.2252 15.5524 23.3292 15.0614C23.3292 15.0614 26.3763 13.3301 26.3884 13.3249C28.9935 11.9221 30.2789 13.2624 30.8473 14.1557C30.8671 14.1837 30.883 14.214 30.9009 14.241L30.9018 14.2424C30.9091 14.2533 30.9134 14.2632 30.9197 14.2736L30.9839 14.3768C31.2608 14.7887 31.6975 15.0548 32.2182 15.0425C32.5052 15.0368 32.7002 14.945 32.9839 14.7901L35.9321 13.1123L35.9384 13.1095C38.5763 11.6897 39.8834 13.1175 40.4417 14.0109C40.4851 14.088 40.5344 14.1619 40.585 14.2305C40.8615 14.5984 41.2427 14.8394 41.7271 14.8275C42.0471 14.8214 42.4056 14.633 42.4591 14.5984L45.9936 12.5967C45.9945 12.5977 45.6336 12.0622 44.8901 11.2281Z" fill="#FDD213"/>
</g>
<defs>
<clipPath id="clip0_742_17504">
<rect width="42" height="12" fill="white" transform="translate(4 10)"/>
</clipPath>
</defs>
</svg>
