<svg width="137" height="137" viewBox="0 0 137 137" fill="none" xmlns="http://www.w3.org/2000/svg">
<g filter="url(#filter0_d_16_2459)">
<circle cx="68.5" cy="68.5" r="62.5" fill="white"/>
</g>
<path d="M76 47.4383V93.1916H32V36H65L76 47.4383Z" fill="#4E9FCA"/>
<path d="M70.4997 83.6594H44.833V87.4722H70.4997V83.6594Z" fill="#D1E6E9"/>
<path d="M70.4997 76.0342H44.833V79.847H70.4997V76.0342Z" fill="#D1E6E9"/>
<path d="M70.4997 68.4089H44.833V72.2217H70.4997V68.4089Z" fill="#D1E6E9"/>
<path d="M58.7474 51.3505L52.2656 58.0906L54.8584 60.7866L61.3402 54.0465L58.7474 51.3505Z" fill="#D1E6E9"/>
<path d="M53.4658 49.898L50.873 52.594L58.742 60.7765L61.3347 58.0804L53.4658 49.898Z" fill="#D1E6E9"/>
<path d="M50.3337 58.8767H46.667V41.7192H52.167C53.6257 41.7192 55.0246 42.3218 56.0561 43.3943C57.0875 44.4669 57.667 45.9216 57.667 47.4384C57.667 48.9552 57.0875 50.4099 56.0561 51.4825C55.0246 52.555 53.6257 53.1576 52.167 53.1576H50.3337V58.8767ZM50.3337 49.3448H52.167C52.6532 49.3448 53.1195 49.1439 53.4634 48.7864C53.8072 48.4289 54.0003 47.944 54.0003 47.4384C54.0003 46.9328 53.8072 46.4479 53.4634 46.0904C53.1195 45.7329 52.6532 45.532 52.167 45.532H50.3337V49.3448Z" fill="#D1E6E9"/>
<path d="M41.1667 68.4089H37.5V72.2217H41.1667V68.4089Z" fill="#D1E6E9"/>
<path d="M41.1667 76.0342H37.5V79.847H41.1667V76.0342Z" fill="#D1E6E9"/>
<path d="M41.1667 83.6594H37.5V87.4722H41.1667V83.6594Z" fill="#D1E6E9"/>
<path d="M76 47.4383H65V36L76 47.4383Z" fill="#D1E6E9"/>
<path d="M86.7572 59.2686H62.4344C61.0869 59.2686 60.0021 60.432 60.0021 61.8774V98.3923C60.0021 99.8364 61.0869 101 62.4344 101H86.7572C88.1047 101 89.1895 99.8364 89.1895 98.3923V61.8774C89.1895 60.432 88.1047 59.2686 86.7572 59.2686Z" fill="#FFD039"/>
<path d="M65.5163 59.2666V88.3521C65.5163 95.3579 70.9403 100.998 77.6777 100.998H62.4322C61.0847 100.998 59.9999 99.8345 59.9999 98.3903V61.8754C59.9999 60.43 61.0847 59.2666 62.4322 59.2666H65.5163Z" fill="#D3A621"/>
<path d="M89.1895 75.9397V98.3509C89.1895 99.4789 88.5138 100.43 87.5669 100.812C87.0486 100.15 86.7632 99.3242 86.7579 98.4705V79.5004C86.7632 78.7193 86.9993 77.9588 87.4343 77.3219C87.8692 76.6849 88.4819 76.2024 89.1895 75.9397Z" fill="#F5BA00"/>
<path d="M101.351 71.9143H91.6215V78.2372H101.351V71.9143Z" fill="#4D88E7"/>
<path d="M94.7041 71.9133V78.2363H91.62V71.9133H94.7041Z" fill="#367BE7"/>
<path d="M102.567 76.9724H90.4054C89.0579 76.9724 87.9731 78.1004 87.9731 79.5016V98.4704C87.9731 99.8715 89.0579 101 90.4054 101H102.567C103.914 101 104.999 99.8715 104.999 98.4704V79.5016C104.999 78.1004 103.914 76.9724 102.567 76.9724Z" fill="#589FFF"/>
<path d="M101.699 70.6489H91.2743C90.7939 70.6489 90.406 71.0726 90.406 71.5974V73.4942C90.406 74.0203 90.7939 74.4427 91.2743 74.4427H101.699C102.179 74.4427 102.567 74.0203 102.567 73.4942V71.5974C102.567 71.0726 102.179 70.6489 101.699 70.6489Z" fill="#D3D5E7"/>
<path d="M83.9432 62.645H78.6226C78.413 62.6447 78.2054 62.6874 78.0117 62.7706C77.8179 62.8539 77.6419 62.9761 77.4937 63.1302C77.3455 63.2844 77.2279 63.4674 77.1479 63.6688C77.0678 63.8703 77.0267 64.0862 77.0271 64.3042C77.0266 64.5222 77.0675 64.7383 77.1475 64.9399C77.2275 65.1415 77.345 65.3246 77.4932 65.4789C77.6415 65.6332 77.8176 65.7555 78.0114 65.8388C78.2052 65.9222 78.4129 65.9649 78.6226 65.9646H83.9432C84.1531 65.9651 84.3609 65.9225 84.5549 65.8392C84.7488 65.7559 84.925 65.6336 85.0734 65.4794C85.2218 65.3251 85.3394 65.1418 85.4195 64.9402C85.4995 64.7385 85.5405 64.5223 85.54 64.3042C85.5404 64.0861 85.4993 63.8701 85.4191 63.6685C85.339 63.467 85.2213 63.2839 85.073 63.1298C84.9246 62.9756 84.7485 62.8535 84.5546 62.7703C84.3607 62.6871 84.153 62.6445 83.9432 62.645Z" fill="#FF5751"/>
<path d="M81.2832 62.645H78.6223C78.4126 62.6447 78.2048 62.6874 78.011 62.7708C77.8172 62.8541 77.6411 62.9764 77.4929 63.1307C77.3447 63.2849 77.2272 63.4681 77.1472 63.6697C77.0672 63.8713 77.0262 64.0873 77.0267 64.3054C77.0264 64.5234 77.0674 64.7393 77.1475 64.9407C77.2276 65.1422 77.3451 65.3252 77.4933 65.4793C77.6416 65.6335 77.8176 65.7557 78.0113 65.8389C78.205 65.9222 78.4127 65.9649 78.6223 65.9646H81.2832V62.645Z" fill="white"/>
<path fill-rule="evenodd" clip-rule="evenodd" d="M100.741 71.9204V74.4393H99.5323V71.9204H100.741ZM98.3097 71.9204V74.4393H97.0962V71.9204H98.3097ZM95.8736 71.9204V74.4393H94.6647V71.9204H95.8736Z" fill="#B9BCD9"/>
<path d="M70.5663 62.645H65.2457C65.0361 62.6447 64.8284 62.6874 64.6347 62.7706C64.441 62.8539 64.265 62.9761 64.1167 63.1302C63.9685 63.2844 63.851 63.4674 63.7709 63.6688C63.6908 63.8703 63.6498 64.0862 63.6501 64.3042C63.6496 64.5222 63.6906 64.7383 63.7706 64.9399C63.8506 65.1415 63.9681 65.3246 64.1163 65.4789C64.2645 65.6332 64.4406 65.7555 64.6344 65.8388C64.8282 65.9222 65.036 65.9649 65.2457 65.9646H70.5663C70.7761 65.9651 70.984 65.9225 71.1779 65.8392C71.3719 65.7559 71.5481 65.6336 71.6965 65.4794C71.8448 65.3251 71.9624 65.1418 72.0425 64.9402C72.1226 64.7385 72.1636 64.5223 72.1631 64.3042C72.1634 64.0861 72.1223 63.8701 72.0422 63.6685C71.962 63.467 71.8444 63.2839 71.696 63.1298C71.5477 62.9756 71.3715 62.8535 71.1776 62.7703C70.9838 62.6871 70.776 62.6445 70.5663 62.645Z" fill="#FF5751"/>
<path d="M67.9072 62.645H65.2463C65.0366 62.6447 64.8289 62.6874 64.6351 62.7708C64.4412 62.8541 64.2652 62.9764 64.1169 63.1307C63.9687 63.2849 63.8512 63.4681 63.7712 63.6697C63.6912 63.8713 63.6503 64.0873 63.6507 64.3054C63.6504 64.5234 63.6915 64.7393 63.7715 64.9407C63.8516 65.1422 63.9691 65.3252 64.1174 65.4793C64.2656 65.6335 64.4416 65.7557 64.6353 65.8389C64.8291 65.9222 65.0367 65.9649 65.2463 65.9646H67.9072V62.645Z" fill="white"/>
<path d="M83.9432 68.9685H78.6226C78.413 68.9682 78.2054 69.0109 78.0117 69.0941C77.8179 69.1774 77.6419 69.2996 77.4937 69.4537C77.3455 69.6078 77.2279 69.7909 77.1479 69.9923C77.0678 70.1938 77.0267 70.4097 77.0271 70.6276C77.0266 70.8457 77.0675 71.0618 77.1475 71.2634C77.2275 71.4649 77.345 71.6481 77.4932 71.8024C77.6415 71.9567 77.8176 72.079 78.0114 72.1623C78.2052 72.2456 78.4129 72.2884 78.6226 72.288H83.9432C84.1531 72.2885 84.3609 72.2459 84.5549 72.1627C84.7488 72.0794 84.925 71.9571 85.0734 71.8028C85.2218 71.6486 85.3394 71.4653 85.4195 71.2636C85.4995 71.062 85.5405 70.8458 85.54 70.6276C85.5404 70.4096 85.4993 70.1936 85.4191 69.992C85.339 69.7905 85.2213 69.6074 85.073 69.4533C84.9246 69.2991 84.7485 69.1769 84.5546 69.0938C84.3607 69.0106 84.153 68.968 83.9432 68.9685Z" fill="#FF5751"/>
<path d="M81.2832 68.9685H78.6223C78.4126 68.9682 78.2048 69.0109 78.011 69.0942C77.8172 69.1776 77.6411 69.2999 77.4929 69.4542C77.3447 69.6084 77.2272 69.7916 77.1472 69.9932C77.0672 70.1948 77.0262 70.4108 77.0267 70.6289C77.0264 70.8469 77.0674 71.0628 77.1475 71.2642C77.2276 71.4657 77.3451 71.6487 77.4933 71.8028C77.6416 71.957 77.8176 72.0792 78.0113 72.1624C78.205 72.2457 78.4127 72.2884 78.6223 72.288H81.2832V68.9685Z" fill="white"/>
<path d="M70.5663 68.9685H65.2457C65.0361 68.9682 64.8284 69.0109 64.6347 69.0941C64.441 69.1774 64.265 69.2996 64.1167 69.4537C63.9685 69.6078 63.851 69.7909 63.7709 69.9923C63.6908 70.1938 63.6498 70.4097 63.6501 70.6276C63.6496 70.8457 63.6906 71.0618 63.7706 71.2634C63.8506 71.4649 63.9681 71.6481 64.1163 71.8024C64.2645 71.9567 64.4406 72.079 64.6344 72.1623C64.8282 72.2456 65.036 72.2884 65.2457 72.288H70.5663C70.7761 72.2885 70.984 72.2459 71.1779 72.1627C71.3719 72.0794 71.5481 71.9571 71.6965 71.8028C71.8448 71.6486 71.9624 71.4653 72.0425 71.2636C72.1226 71.062 72.1636 70.8458 72.1631 70.6276C72.1634 70.4096 72.1223 70.1936 72.0422 69.992C71.962 69.7905 71.8444 69.6074 71.696 69.4533C71.5477 69.2991 71.3715 69.1769 71.1776 69.0938C70.9838 69.0106 70.776 68.968 70.5663 68.9685Z" fill="#FF5751"/>
<path d="M67.9072 68.9685H65.2463C65.0366 68.9682 64.8289 69.0109 64.6351 69.0942C64.4412 69.1776 64.2652 69.2999 64.1169 69.4542C63.9687 69.6084 63.8512 69.7916 63.7712 69.9932C63.6912 70.1948 63.6503 70.4108 63.6507 70.6289C63.6504 70.8469 63.6915 71.0628 63.7715 71.2642C63.8516 71.4657 63.9691 71.6487 64.1174 71.8028C64.2656 71.957 64.4416 72.0792 64.6353 72.1624C64.8291 72.2457 65.0367 72.2884 65.2463 72.288H67.9072V68.9685Z" fill="white"/>
<path d="M83.9432 75.2918H78.6226C78.4129 75.2914 78.2052 75.3341 78.0114 75.4175C77.8176 75.5008 77.6415 75.6231 77.4932 75.7774C77.345 75.9317 77.2275 76.1149 77.1475 76.3164C77.0675 76.518 77.0266 76.7341 77.0271 76.9522C77.0267 77.1701 77.0678 77.386 77.1479 77.5875C77.2279 77.7889 77.3455 77.9719 77.4937 78.1261C77.6419 78.2802 77.8179 78.4024 78.0117 78.4857C78.2054 78.5689 78.413 78.6116 78.6226 78.6113H83.9432C84.153 78.6118 84.3607 78.5692 84.5546 78.486C84.7485 78.4028 84.9246 78.2807 85.073 78.1265C85.2213 77.9724 85.339 77.7893 85.4191 77.5878C85.4993 77.3862 85.5404 77.1702 85.54 76.9522C85.5405 76.734 85.4995 76.5178 85.4195 76.3162C85.3394 76.1145 85.2218 75.9312 85.0734 75.777C84.925 75.6227 84.7488 75.5004 84.5549 75.4171C84.3609 75.3339 84.1531 75.2913 83.9432 75.2918Z" fill="#FF5751"/>
<path d="M81.2832 75.2917H78.6223C78.4126 75.2914 78.2048 75.3341 78.011 75.4175C77.8172 75.5008 77.6411 75.6231 77.4929 75.7774C77.3447 75.9317 77.2272 76.1148 77.1472 76.3164C77.0672 76.518 77.0262 76.7341 77.0267 76.9521C77.0264 77.1701 77.0674 77.386 77.1475 77.5875C77.2276 77.7889 77.3451 77.9719 77.4933 78.1261C77.6416 78.2802 77.8176 78.4024 78.0113 78.4857C78.205 78.5689 78.4127 78.6116 78.6223 78.6113H81.2832V75.2917Z" fill="white"/>
<path d="M70.5663 75.2918H65.2457C65.036 75.2914 64.8282 75.3341 64.6344 75.4175C64.4406 75.5008 64.2645 75.6231 64.1163 75.7774C63.9681 75.9317 63.8506 76.1149 63.7706 76.3164C63.6906 76.518 63.6496 76.7341 63.6501 76.9522C63.6498 77.1701 63.6908 77.386 63.7709 77.5875C63.851 77.7889 63.9685 77.9719 64.1167 78.1261C64.265 78.2802 64.441 78.4024 64.6347 78.4857C64.8284 78.5689 65.0361 78.6116 65.2457 78.6113H70.5663C70.776 78.6118 70.9838 78.5692 71.1776 78.486C71.3715 78.4028 71.5477 78.2807 71.696 78.1265C71.8444 77.9724 71.962 77.7893 72.0422 77.5878C72.1223 77.3862 72.1634 77.1702 72.1631 76.9522C72.1636 76.734 72.1226 76.5178 72.0425 76.3162C71.9624 76.1145 71.8448 75.9312 71.6965 75.777C71.5481 75.6227 71.3719 75.5004 71.1779 75.4171C70.984 75.3339 70.7761 75.2913 70.5663 75.2918Z" fill="#FF5751"/>
<path d="M67.9072 75.2917H65.2463C65.0366 75.2914 64.8289 75.3341 64.6351 75.4175C64.4412 75.5008 64.2652 75.6231 64.1169 75.7774C63.9687 75.9317 63.8512 76.1148 63.7712 76.3164C63.6912 76.518 63.6503 76.7341 63.6507 76.9521C63.6504 77.1701 63.6915 77.386 63.7715 77.5875C63.8516 77.7889 63.9691 77.9719 64.1174 78.1261C64.2656 78.2802 64.4416 78.4024 64.6353 78.4857C64.8291 78.5689 65.0367 78.6116 65.2463 78.6113H67.9072V75.2917Z" fill="white"/>
<path d="M83.9432 81.6185H78.6226C78.4129 81.6181 78.2052 81.6609 78.0114 81.7442C77.8176 81.8275 77.6415 81.9498 77.4932 82.1041C77.345 82.2584 77.2275 82.4416 77.1475 82.6432C77.0675 82.8447 77.0266 83.0608 77.0271 83.2789C77.0269 83.4967 77.0681 83.7125 77.1482 83.9138C77.2284 84.1151 77.3459 84.298 77.4941 84.452C77.6423 84.606 77.8183 84.728 78.0119 84.8112C78.2056 84.8944 78.4131 84.9371 78.6226 84.9367H83.9432C84.153 84.9372 84.3607 84.8947 84.5546 84.8115C84.7485 84.7283 84.9246 84.6061 85.073 84.452C85.2213 84.2978 85.339 84.1147 85.4191 83.9132C85.4993 83.7117 85.5404 83.4957 85.54 83.2776C85.5405 83.0594 85.4995 82.8433 85.4195 82.6416C85.3394 82.4399 85.2218 82.2567 85.0734 82.1024C84.925 81.9481 84.7488 81.8258 84.5549 81.7426C84.3609 81.6593 84.1531 81.618 83.9432 81.6185Z" fill="#FF5751"/>
<path d="M81.2832 81.6201H78.6223C78.4126 81.6198 78.2048 81.6625 78.011 81.7459C77.8172 81.8292 77.6411 81.9515 77.4929 82.1058C77.3447 82.26 77.2272 82.4432 77.1472 82.6448C77.0672 82.8464 77.0262 83.0624 77.0267 83.2805C77.0266 83.4984 77.0677 83.7142 77.1479 83.9155C77.228 84.1168 77.3456 84.2996 77.4938 84.4536C77.642 84.6076 77.8179 84.7297 78.0116 84.8129C78.2052 84.8961 78.4128 84.9387 78.6223 84.9384H81.2832V81.6201Z" fill="white"/>
<path d="M70.5663 81.6185H65.2457C65.036 81.6181 64.8282 81.6609 64.6344 81.7442C64.4406 81.8275 64.2645 81.9498 64.1163 82.1041C63.9681 82.2584 63.8506 82.4416 63.7706 82.6432C63.6906 82.8447 63.6496 83.0608 63.6501 83.2789C63.6499 83.4967 63.6911 83.7125 63.7713 83.9138C63.8514 84.1151 63.9689 84.298 64.1172 84.452C64.2654 84.606 64.4413 84.728 64.635 84.8112C64.8286 84.8944 65.0362 84.9371 65.2457 84.9367H70.5663C70.776 84.9372 70.9838 84.8947 71.1776 84.8115C71.3715 84.7283 71.5477 84.6061 71.696 84.452C71.8444 84.2978 71.962 84.1147 72.0422 83.9132C72.1223 83.7117 72.1634 83.4957 72.1631 83.2776C72.1636 83.0594 72.1226 82.8433 72.0425 82.6416C71.9624 82.4399 71.8448 82.2567 71.6965 82.1024C71.5481 81.9481 71.3719 81.8258 71.1779 81.7426C70.984 81.6593 70.7761 81.618 70.5663 81.6185Z" fill="#FF5751"/>
<path d="M67.9072 81.6201H65.2463C65.0366 81.6198 64.8289 81.6625 64.6351 81.7459C64.4412 81.8292 64.2652 81.9515 64.1169 82.1058C63.9687 82.26 63.8512 82.4432 63.7712 82.6448C63.6912 82.8464 63.6503 83.0624 63.6507 83.2805C63.6506 83.4984 63.6917 83.7142 63.7719 83.9155C63.852 84.1168 63.9696 84.2996 64.1178 84.4536C64.266 84.6076 64.442 84.7297 64.6356 84.8129C64.8293 84.8961 65.0368 84.9387 65.2463 84.9384H67.9072V81.6201Z" fill="white"/>
<path d="M83.9432 87.9365H78.6226C78.413 87.9362 78.2054 87.9789 78.0117 88.0621C77.8179 88.1454 77.6419 88.2676 77.4937 88.4217C77.3455 88.5759 77.2279 88.7589 77.1479 88.9603C77.0678 89.1618 77.0267 89.3777 77.0271 89.5957C77.0266 89.8137 77.0675 90.0298 77.1475 90.2314C77.2275 90.433 77.345 90.6161 77.4932 90.7704C77.6415 90.9247 77.8176 91.047 78.0114 91.1303C78.2052 91.2137 78.4129 91.2564 78.6226 91.2561H83.9432C84.1531 91.2566 84.3609 91.214 84.5549 91.1307C84.7488 91.0474 84.925 90.9251 85.0734 90.7709C85.2218 90.6166 85.3394 90.4333 85.4195 90.2317C85.4995 90.03 85.5405 89.8139 85.54 89.5957C85.5404 89.3776 85.4993 89.1616 85.4191 88.9601C85.339 88.7585 85.2213 88.5754 85.073 88.4213C84.9246 88.2671 84.7485 88.145 84.5546 88.0618C84.3607 87.9786 84.153 87.936 83.9432 87.9365Z" fill="#FF5751"/>
<path d="M81.2832 87.9365H78.6223C78.4126 87.9362 78.2048 87.9789 78.011 88.0623C77.8172 88.1456 77.6411 88.2679 77.4929 88.4222C77.3447 88.5764 77.2272 88.7596 77.1472 88.9612C77.0672 89.1628 77.0262 89.3788 77.0267 89.5969C77.0264 89.8149 77.0674 90.0308 77.1475 90.2322C77.2276 90.4337 77.3451 90.6167 77.4933 90.7709C77.6416 90.925 77.8176 91.0472 78.0113 91.1304C78.205 91.2137 78.4127 91.2564 78.6223 91.2561H81.2832V87.9365Z" fill="white"/>
<path d="M70.5663 87.9365H65.2457C65.0361 87.9362 64.8284 87.9789 64.6347 88.0621C64.441 88.1454 64.265 88.2676 64.1167 88.4217C63.9685 88.5759 63.851 88.7589 63.7709 88.9603C63.6908 89.1618 63.6498 89.3777 63.6501 89.5957C63.6496 89.8137 63.6906 90.0298 63.7706 90.2314C63.8506 90.433 63.9681 90.6161 64.1163 90.7704C64.2645 90.9247 64.4406 91.047 64.6344 91.1303C64.8282 91.2137 65.036 91.2564 65.2457 91.2561H70.5663C70.7761 91.2566 70.984 91.214 71.1779 91.1307C71.3719 91.0474 71.5481 90.9251 71.6965 90.7709C71.8448 90.6166 71.9624 90.4333 72.0425 90.2317C72.1226 90.03 72.1636 89.8139 72.1631 89.5957C72.1634 89.3776 72.1223 89.1616 72.0422 88.9601C71.962 88.7585 71.8444 88.5754 71.696 88.4213C71.5477 88.2671 71.3715 88.145 71.1776 88.0618C70.9838 87.9786 70.776 87.936 70.5663 87.9365Z" fill="#FF5751"/>
<path d="M67.9072 87.9365H65.2463C65.0366 87.9362 64.8289 87.9789 64.6351 88.0623C64.4412 88.1456 64.2652 88.2679 64.1169 88.4222C63.9687 88.5764 63.8512 88.7596 63.7712 88.9612C63.6912 89.1628 63.6503 89.3788 63.6507 89.5969C63.6504 89.8149 63.6915 90.0308 63.7715 90.2322C63.8516 90.4337 63.9691 90.6167 64.1174 90.7709C64.2656 90.925 64.4416 91.0472 64.6353 91.1304C64.8291 91.2137 65.0367 91.2564 65.2463 91.2561H67.9072V87.9365Z" fill="white"/>
<path d="M83.9432 94.261H78.6226C78.4129 94.2607 78.2052 94.3034 78.0114 94.3867C77.8176 94.4701 77.6415 94.5924 77.4932 94.7466C77.345 94.9009 77.2275 95.0841 77.1475 95.2857C77.0675 95.4873 77.0266 95.7033 77.0271 95.9214C77.0267 96.1394 77.0678 96.3553 77.1479 96.5567C77.2279 96.7582 77.3455 96.9412 77.4937 97.0953C77.6419 97.2494 77.8179 97.3716 78.0117 97.4549C78.2054 97.5382 78.413 97.5809 78.6226 97.5805H83.9432C84.153 97.581 84.3607 97.5385 84.5546 97.4553C84.7485 97.3721 84.9246 97.2499 85.073 97.0958C85.2213 96.9416 85.339 96.7585 85.4191 96.557C85.4993 96.3555 85.5404 96.1395 85.54 95.9214C85.5405 95.7032 85.4995 95.4871 85.4195 95.2854C85.3394 95.0837 85.2218 94.9005 85.0734 94.7462C84.925 94.5919 84.7488 94.4696 84.5549 94.3864C84.3609 94.3031 84.1531 94.2605 83.9432 94.261Z" fill="#FF5751"/>
<path d="M81.2832 94.261H78.6223C78.4126 94.2607 78.2048 94.3034 78.011 94.3867C77.8172 94.4701 77.6411 94.5924 77.4929 94.7466C77.3447 94.9009 77.2272 95.0841 77.1472 95.2857C77.0672 95.4873 77.0262 95.7033 77.0267 95.9214C77.0264 96.1394 77.0674 96.3553 77.1475 96.5567C77.2276 96.7582 77.3451 96.9412 77.4933 97.0953C77.6416 97.2494 77.8176 97.3716 78.0113 97.4549C78.205 97.5382 78.4127 97.5809 78.6223 97.5805H81.2832V94.261Z" fill="white"/>
<path d="M70.5663 94.261H65.2457C65.036 94.2607 64.8282 94.3034 64.6344 94.3867C64.4406 94.4701 64.2645 94.5924 64.1163 94.7466C63.9681 94.9009 63.8506 95.0841 63.7706 95.2857C63.6906 95.4873 63.6496 95.7033 63.6501 95.9214C63.6498 96.1394 63.6908 96.3553 63.7709 96.5567C63.851 96.7582 63.9685 96.9412 64.1167 97.0953C64.265 97.2494 64.441 97.3716 64.6347 97.4549C64.8284 97.5382 65.0361 97.5809 65.2457 97.5805H70.5663C70.776 97.581 70.9838 97.5385 71.1776 97.4553C71.3715 97.3721 71.5477 97.2499 71.696 97.0958C71.8444 96.9416 71.962 96.7585 72.0422 96.557C72.1223 96.3555 72.1634 96.1395 72.1631 95.9214C72.1636 95.7032 72.1226 95.4871 72.0425 95.2854C71.9624 95.0837 71.8448 94.9005 71.6965 94.7462C71.5481 94.5919 71.3719 94.4696 71.1779 94.3864C70.984 94.3031 70.7761 94.2605 70.5663 94.261Z" fill="#FF5751"/>
<path d="M66.9198 94.261C67.5515 95.5011 68.3776 96.623 69.3643 97.5805H65.2452C65.0355 97.581 64.8277 97.5385 64.6338 97.4553C64.44 97.3721 64.2638 97.2499 64.1155 97.0958C63.9671 96.9416 63.8495 96.7585 63.7693 96.557C63.6892 96.3555 63.6481 96.1395 63.6484 95.9214C63.6479 95.7032 63.6889 95.4871 63.769 95.2854C63.8491 95.0837 63.9667 94.9005 64.115 94.7462C64.2634 94.5919 64.4396 94.4696 64.6336 94.3864C64.8275 94.3031 65.0354 94.2605 65.2452 94.261H66.9198Z" fill="#D34F5C"/>
<path d="M67.9072 94.261H65.2463C65.0366 94.2607 64.8289 94.3034 64.6351 94.3867C64.4412 94.4701 64.2652 94.5924 64.1169 94.7466C63.9687 94.9009 63.8512 95.0841 63.7712 95.2857C63.6912 95.4873 63.6503 95.7033 63.6507 95.9214C63.6504 96.1394 63.6915 96.3553 63.7715 96.5567C63.8516 96.7582 63.9691 96.9412 64.1174 97.0953C64.2656 97.2494 64.4416 97.3716 64.6353 97.4549C64.8291 97.5382 65.0367 97.5809 65.2463 97.5805H67.9072V94.261Z" fill="white"/>
<path d="M65.5168 62.645V65.9646H65.2456C65.0359 65.9651 64.8281 65.9225 64.6342 65.8393C64.4404 65.7561 64.2642 65.6339 64.1158 65.4798C63.9675 65.3257 63.8499 65.1426 63.7697 64.941C63.6896 64.7395 63.6485 64.5235 63.6488 64.3054C63.6483 64.0872 63.6893 63.8711 63.7694 63.6694C63.8494 63.4677 63.967 63.2845 64.1154 63.1302C64.2638 62.9759 64.44 62.8537 64.6339 62.7704C64.8279 62.6871 65.0357 62.6445 65.2456 62.645H65.5168ZM65.5168 68.9679V72.2875H65.2456C65.0359 72.288 64.8281 72.2454 64.6342 72.1622C64.4404 72.079 64.2642 71.9569 64.1158 71.8027C63.9675 71.6486 63.8499 71.4655 63.7697 71.264C63.6896 71.0624 63.6485 70.8464 63.6488 70.6283C63.6483 70.4102 63.6893 70.194 63.7694 69.9923C63.8494 69.7907 63.967 69.6074 64.1154 69.4532C64.2638 69.2989 64.44 69.1766 64.6339 69.0933C64.8279 69.0101 65.0357 68.9674 65.2456 68.9679H65.5168ZM65.5168 75.2909V78.6104H65.2456C65.0359 78.6109 64.8281 78.5683 64.6342 78.4852C64.4404 78.402 64.2642 78.2798 64.1158 78.1257C63.9675 77.9715 63.8499 77.7884 63.7697 77.5869C63.6896 77.3854 63.6485 77.1694 63.6488 76.9513C63.6483 76.7331 63.6893 76.5169 63.7694 76.3153C63.8494 76.1136 63.967 75.9304 64.1154 75.7761C64.2638 75.6218 64.44 75.4995 64.6339 75.4162C64.8279 75.333 65.0357 75.2904 65.2456 75.2909H65.5168ZM65.5168 81.6189V84.9384H65.2456C65.0359 84.9389 64.8281 84.8963 64.6342 84.8131C64.4404 84.73 64.2642 84.6078 64.1158 84.4536C63.9675 84.2995 63.8499 84.1164 63.7697 83.9149C63.6896 83.7133 63.6485 83.4973 63.6488 83.2793C63.6483 83.0611 63.6893 82.8449 63.7694 82.6433C63.8494 82.4416 63.967 82.2583 64.1154 82.1041C64.2638 81.9498 64.44 81.8275 64.6339 81.7442C64.8279 81.661 65.0357 81.6184 65.2456 81.6189H65.5168ZM65.5168 87.9367V88.3515C65.5168 89.3543 65.6384 90.323 65.8488 91.2563H65.2456C65.0359 91.2568 64.8281 91.2142 64.6342 91.131C64.4404 91.0478 64.2642 90.9256 64.1158 90.7715C63.9675 90.6174 63.8499 90.4343 63.7697 90.2327C63.6896 90.0312 63.6485 89.8152 63.6488 89.5971C63.6483 89.3789 63.6893 89.1628 63.7694 88.9611C63.8494 88.7594 63.967 88.5762 64.1154 88.4219C64.2638 88.2676 64.44 88.1454 64.6339 88.0621C64.8279 87.9788 65.0357 87.9362 65.2456 87.9367H65.5168ZM66.9202 94.2596C67.2087 94.8236 67.538 95.3638 67.9053 95.8758V97.5792H65.2456C65.0359 97.5797 64.8281 97.5371 64.6342 97.4539C64.4404 97.3707 64.2642 97.2486 64.1158 97.0944C63.9675 96.9403 63.8499 96.7572 63.7697 96.5557C63.6896 96.3541 63.6485 96.1381 63.6488 95.92C63.6483 95.7019 63.6893 95.4857 63.7694 95.284C63.8494 95.0824 63.967 94.8991 64.1154 94.7449C64.2638 94.5906 64.44 94.4683 64.6339 94.385C64.8279 94.3018 65.0357 94.2591 65.2456 94.2596H66.9202Z" fill="#D3D5E7"/>
<path d="M84.3217 61.8018C85.6593 61.8018 86.7578 62.9394 86.7578 64.3303C86.7578 65.7163 85.6593 66.8586 84.3217 66.8586H78.2498C76.9123 66.8586 75.8137 65.7211 75.8137 64.3255C75.8137 62.9394 76.9123 61.7971 78.2498 61.7971H84.3171L84.3217 61.8018ZM84.3217 63.0588H78.2498C77.565 63.0588 77.0271 63.6181 77.0271 64.3303C77.0259 64.4969 77.0568 64.6621 77.1179 64.8161C77.1791 64.9702 77.2694 65.11 77.3833 65.2272C77.4973 65.3443 77.6327 65.4365 77.7815 65.4983C77.9303 65.5602 78.0896 65.5905 78.2498 65.5873H84.3171C84.4774 65.5905 84.6366 65.5602 84.7854 65.4983C84.9342 65.4365 85.0696 65.3443 85.1836 65.2272C85.2975 65.11 85.3878 64.9702 85.449 64.8161C85.5101 64.6621 85.541 64.4969 85.5398 64.3303C85.5398 63.6133 85.0066 63.0588 84.3217 63.0588ZM70.9461 61.7971C72.279 61.7971 73.3822 62.9394 73.3822 64.3303C73.3822 65.7163 72.279 66.8586 70.9461 66.8586H64.8696C63.532 66.8586 62.4335 65.7211 62.4335 64.3255C62.4335 62.9394 63.532 61.7971 64.8696 61.7971H70.9461ZM70.9461 63.0588H64.8696C64.1801 63.0588 63.6469 63.6181 63.6469 64.3303C63.6457 64.4969 63.6766 64.6621 63.7377 64.8161C63.7989 64.9702 63.8891 65.11 64.0031 65.2272C64.1171 65.3443 64.2525 65.4365 64.4013 65.4983C64.5501 65.5602 64.7093 65.5905 64.8696 65.5873H70.9415C71.1017 65.5905 71.2609 65.5602 71.4098 65.4983C71.5586 65.4365 71.694 65.3443 71.808 65.2272C71.9219 65.11 72.0122 64.9702 72.0733 64.8161C72.1345 64.6621 72.1654 64.4969 72.1641 64.3303C72.1641 63.6133 71.6309 63.0588 70.9461 63.0588ZM84.3217 68.1204C85.6593 68.1204 86.7578 69.2579 86.7578 70.6488C86.7578 72.0348 85.6593 73.1819 84.3217 73.1819H78.2498C76.9123 73.1819 75.8137 72.0348 75.8137 70.6488C75.8137 69.2627 76.9123 68.1156 78.2498 68.1156H84.3171L84.3217 68.1204ZM84.3217 69.3869H78.2498C77.565 69.3869 77.0271 69.9366 77.0271 70.6488C77.0253 70.8163 77.0557 70.9824 77.1165 71.1375C77.1772 71.2927 77.2672 71.4336 77.3812 71.5521C77.4951 71.6705 77.6306 71.7641 77.7797 71.8273C77.9289 71.8905 78.0887 71.922 78.2498 71.9201H84.3171C84.4782 71.922 84.638 71.8905 84.7872 71.8273C84.9363 71.7641 85.0718 71.6705 85.1857 71.5521C85.2997 71.4336 85.3897 71.2927 85.4504 71.1375C85.5112 70.9824 85.5416 70.8163 85.5398 70.6488C85.5398 69.9366 85.0066 69.3869 84.3217 69.3869ZM70.9461 68.1204C72.279 68.1204 73.3822 69.2579 73.3822 70.6488C73.3822 72.0348 72.279 73.1819 70.9461 73.1819H64.8696C63.532 73.1819 62.4335 72.0348 62.4335 70.6488C62.4335 69.2627 63.532 68.1156 64.8696 68.1156H70.9415L70.9461 68.1204ZM70.9461 69.3869H64.8696C64.1801 69.3869 63.6469 69.9366 63.6469 70.6488C63.6451 70.8163 63.6754 70.9824 63.7362 71.1375C63.797 71.2927 63.887 71.4336 64.0009 71.5521C64.1148 71.6705 64.2504 71.7641 64.3995 71.8273C64.5487 71.8905 64.7085 71.922 64.8696 71.9201H70.9415C71.1025 71.922 71.2624 71.8905 71.4116 71.8273C71.5607 71.7641 71.6962 71.6705 71.8101 71.5521C71.924 71.4336 72.014 71.2927 72.0748 71.1375C72.1356 70.9824 72.166 70.8163 72.1641 70.6488C72.1641 69.9366 71.6309 69.3869 70.9461 69.3869ZM84.3217 74.4389C85.6593 74.4389 86.7578 75.5765 86.7578 76.9721C86.7578 78.3582 85.6593 79.5004 84.3217 79.5004H78.2498C76.9123 79.5004 75.8137 78.3581 75.8137 76.9673C75.8137 75.5812 76.9123 74.4341 78.2498 74.4341H84.3171L84.3217 74.4389ZM84.3217 75.7103H78.2498C77.565 75.7103 77.0271 76.2551 77.0271 76.9673C77.0253 77.1348 77.0557 77.3009 77.1165 77.4561C77.1772 77.6112 77.2672 77.7521 77.3812 77.8706C77.4951 77.989 77.6306 78.0826 77.7797 78.1458C77.9289 78.209 78.0887 78.2407 78.2498 78.2387H84.3171C84.4782 78.2407 84.638 78.209 84.7872 78.1458C84.9363 78.0826 85.0718 77.989 85.1857 77.8706C85.2997 77.7521 85.3897 77.6112 85.4504 77.4561C85.5112 77.3009 85.5416 77.1348 85.5398 76.9673C85.5398 76.2551 85.0066 75.7103 84.3217 75.7103ZM70.9461 74.4389C72.279 74.4389 73.3822 75.5765 73.3822 76.9721C73.3822 78.3582 72.279 79.5004 70.9461 79.5004H64.8696C63.532 79.5004 62.4335 78.3581 62.4335 76.9673C62.4335 75.5812 63.532 74.4341 64.8696 74.4341H70.9415L70.9461 74.4389ZM70.9461 75.7103H64.8696C64.1801 75.7103 63.6469 76.2551 63.6469 76.9673C63.6451 77.1348 63.6754 77.3009 63.7362 77.4561C63.797 77.6112 63.887 77.7521 64.0009 77.8706C64.1148 77.989 64.2504 78.0826 64.3995 78.1458C64.5487 78.209 64.7085 78.2407 64.8696 78.2387H70.9415C71.1025 78.2407 71.2624 78.209 71.4116 78.1458C71.5607 78.0826 71.6962 77.989 71.8101 77.8706C71.924 77.7521 72.014 77.6112 72.0748 77.4561C72.1356 77.3009 72.166 77.1348 72.1641 76.9673C72.1641 76.2551 71.6309 75.7103 70.9461 75.7103ZM84.3217 80.7671C85.6593 80.7671 86.7578 81.9094 86.7578 83.3002C86.7578 84.6863 85.6593 85.8286 84.3217 85.8286H78.2498C76.9123 85.8286 75.8137 84.6863 75.8137 83.2954C75.8137 81.9093 76.9123 80.7671 78.2498 80.7671H84.3217ZM84.3217 82.0384H78.2498C77.565 82.0384 77.0271 82.588 77.0271 83.2954C77.0253 83.4629 77.0557 83.6291 77.1165 83.7842C77.1772 83.9393 77.2672 84.0803 77.3812 84.1987C77.4951 84.3172 77.6306 84.4107 77.7797 84.474C77.9289 84.5372 78.0887 84.5686 78.2498 84.5667H84.3171C84.4782 84.5686 84.638 84.5372 84.7872 84.474C84.9363 84.4107 85.0718 84.3172 85.1857 84.1987C85.2997 84.0803 85.3897 83.9393 85.4504 83.7842C85.5112 83.6291 85.5416 83.4629 85.5398 83.2954C85.5398 82.588 85.0066 82.0384 84.3217 82.0384ZM70.9461 80.7671C72.279 80.7671 73.3822 81.9094 73.3822 83.3002C73.3822 84.6863 72.279 85.8286 70.9461 85.8286H64.8696C63.532 85.8286 62.4335 84.6863 62.4335 83.2954C62.4335 81.9093 63.532 80.7671 64.8696 80.7671H70.9461ZM70.9461 82.0384H64.8696C64.1801 82.0384 63.6469 82.588 63.6469 83.2954C63.6451 83.4629 63.6754 83.6291 63.7362 83.7842C63.797 83.9393 63.887 84.0803 64.0009 84.1987C64.1148 84.3172 64.2504 84.4107 64.3995 84.474C64.5487 84.5372 64.7085 84.5686 64.8696 84.5667H70.9415C71.1025 84.5686 71.2624 84.5372 71.4116 84.474C71.5607 84.4107 71.6962 84.3172 71.8101 84.1987C71.924 84.0803 72.014 83.9393 72.0748 83.7842C72.1356 83.6291 72.166 83.4629 72.1641 83.2954C72.1641 82.588 71.6309 82.0384 70.9461 82.0384ZM84.3217 87.0856C85.6593 87.0856 86.7578 88.2279 86.7578 89.6187C86.7578 91.0048 85.6593 92.1472 84.3217 92.1472H78.2498C76.9123 92.1472 75.8137 91.0095 75.8137 89.6139C75.8137 88.2278 76.9123 87.0856 78.2498 87.0856H84.3217ZM84.3217 88.3569H78.2498C77.565 88.3569 77.0271 88.9066 77.0271 89.6187C77.0259 89.7858 77.0567 89.9515 77.1178 90.106C77.1789 90.2606 77.269 90.401 77.3828 90.519C77.4966 90.6369 77.632 90.73 77.7808 90.7929C77.9297 90.8558 78.0891 90.8873 78.2498 90.8854H84.3171C84.4778 90.8873 84.6372 90.8558 84.7861 90.7929C84.9349 90.73 85.0703 90.6369 85.1841 90.519C85.2979 90.401 85.388 90.2606 85.4491 90.106C85.5102 89.9515 85.541 89.7858 85.5398 89.6187C85.5398 88.9018 85.0066 88.3569 84.3217 88.3569ZM70.9461 87.0856C72.279 87.0856 73.3822 88.2279 73.3822 89.6187C73.3822 91.0048 72.279 92.1472 70.9461 92.1472H64.8696C63.532 92.1472 62.4335 91.0095 62.4335 89.6139C62.4335 88.2278 63.532 87.0856 64.8696 87.0856H70.9461ZM70.9461 88.3569H64.8696C64.1801 88.3569 63.6469 88.9066 63.6469 89.6187C63.6457 89.7858 63.6765 89.9515 63.7376 90.106C63.7987 90.2606 63.8887 90.401 64.0026 90.519C64.1164 90.6369 64.2517 90.73 64.4006 90.7929C64.5495 90.8558 64.7089 90.8873 64.8696 90.8854H70.9415C71.1022 90.8873 71.2616 90.8558 71.4105 90.7929C71.5593 90.73 71.6947 90.6369 71.8085 90.519C71.9223 90.401 72.0124 90.2606 72.0735 90.106C72.1345 89.9515 72.1654 89.7858 72.1641 89.6187C72.1641 88.9018 71.6309 88.3569 70.9461 88.3569ZM84.3217 93.4089C85.6593 93.4089 86.7578 94.5465 86.7578 95.9374C86.7578 97.3234 85.6593 98.4705 84.3217 98.4705H78.2498C76.9123 98.4705 75.8137 97.3234 75.8137 95.9374C75.8137 94.5513 76.9123 93.4041 78.2498 93.4041H84.3171L84.3217 93.4089ZM84.3217 94.6755H78.2498C77.565 94.6755 77.0271 95.2252 77.0271 95.9374C77.0253 96.1049 77.0557 96.271 77.1165 96.4262C77.1772 96.5813 77.2672 96.7221 77.3812 96.8405C77.4951 96.959 77.6306 97.0526 77.7797 97.1158C77.9289 97.179 78.0887 97.2106 78.2498 97.2087H84.3171C84.4782 97.2106 84.638 97.179 84.7872 97.1158C84.9363 97.0526 85.0718 96.959 85.1857 96.8405C85.2997 96.7221 85.3897 96.5813 85.4504 96.4262C85.5112 96.271 85.5416 96.1049 85.5398 95.9374C85.5398 95.2252 85.0066 94.6755 84.3217 94.6755ZM70.9461 93.4089C72.279 93.4089 73.3822 94.5465 73.3822 95.9374C73.3822 97.3234 72.279 98.4705 70.9461 98.4705H64.8696C63.532 98.4705 62.4335 97.3234 62.4335 95.9374C62.4335 94.5513 63.532 93.4041 64.8696 93.4041H70.9415L70.9461 93.4089ZM70.9461 94.6755H64.8696C64.1801 94.6755 63.6469 95.2252 63.6469 95.9374C63.6451 96.1049 63.6754 96.271 63.7362 96.4262C63.797 96.5813 63.887 96.7221 64.0009 96.8405C64.1148 96.959 64.2504 97.0526 64.3995 97.1158C64.5487 97.179 64.7085 97.2106 64.8696 97.2087H70.9415C71.1025 97.2106 71.2624 97.179 71.4116 97.1158C71.5607 97.0526 71.6962 96.959 71.8101 96.8405C71.924 96.7221 72.014 96.5813 72.0748 96.4262C72.1356 96.271 72.166 96.1049 72.1641 95.9374C72.1641 95.2252 71.6309 94.6755 70.9461 94.6755Z" fill="#F5BA00"/>
<path d="M65.5174 61.7971V63.0636H64.8648C64.7047 63.061 64.5458 63.092 64.3975 63.1545C64.2491 63.217 64.1143 63.3099 64.0012 63.4275C63.888 63.5452 63.7987 63.6853 63.7386 63.8396C63.6785 63.9938 63.6488 64.159 63.6513 64.3255C63.6482 64.4925 63.6774 64.6584 63.7372 64.8135C63.7969 64.9686 63.8861 65.1096 63.9992 65.2282C64.1124 65.3468 64.2474 65.4405 64.396 65.5039C64.5447 65.5672 64.7041 65.5987 64.8648 65.5968H65.5174V66.8538H64.8648C64.2187 66.8538 63.599 66.587 63.1422 66.1119C62.6853 65.6369 62.4286 64.9925 62.4286 64.3206C62.4311 63.6505 62.6888 63.0086 63.1454 62.5356C63.602 62.0626 64.2202 61.7971 64.8648 61.7971H65.5174ZM65.5174 68.1253V69.3823H64.8648C64.7047 69.3797 64.5458 69.4105 64.3975 69.473C64.2491 69.5355 64.1143 69.6284 64.0012 69.746C63.888 69.8637 63.7987 70.0038 63.7386 70.1581C63.6785 70.3124 63.6488 70.4775 63.6513 70.644C63.6482 70.811 63.6774 70.9771 63.7372 71.1322C63.7969 71.2872 63.8861 71.4281 63.9992 71.5467C64.1124 71.6653 64.2474 71.759 64.396 71.8224C64.5447 71.8857 64.7041 71.9174 64.8648 71.9154H65.5174V73.1724H64.8648C64.2521 73.1244 63.6795 72.8373 63.2617 72.3689C62.8439 71.9005 62.6118 71.2853 62.6118 70.6464C62.6118 70.0076 62.8439 69.3923 63.2617 68.9238C63.6795 68.4554 64.2521 68.1685 64.8648 68.1204H65.5174V68.1253ZM65.5174 74.4438V75.7056H64.8648C64.1753 75.7056 63.6513 76.2599 63.6513 76.9721C63.6488 77.1385 63.6785 77.3037 63.7386 77.458C63.7987 77.6122 63.888 77.7525 64.0012 77.8702C64.1143 77.9878 64.2491 78.0806 64.3975 78.1431C64.5458 78.2056 64.7047 78.2365 64.8648 78.2339H65.5174V79.5004H64.8648C64.2195 79.5004 63.6005 79.2342 63.1438 78.7602C62.6871 78.2862 62.4299 77.6431 62.4286 76.9721C62.4299 76.3011 62.6871 75.658 63.1438 75.184C63.6005 74.71 64.2195 74.4438 64.8648 74.4438H65.5174ZM65.5174 80.7719V82.0336H64.8648C64.1753 82.0336 63.6513 82.5929 63.6513 83.305C63.6494 83.4711 63.6796 83.6357 63.7399 83.7894C63.8003 83.9431 63.8897 84.0827 64.0029 84.1999C64.116 84.3171 64.2505 84.4094 64.3986 84.4716C64.5466 84.5338 64.7051 84.5646 64.8648 84.5621H65.5174V85.8334H64.8648C64.2187 85.8334 63.599 85.5664 63.1422 85.0914C62.6853 84.6163 62.4286 83.9721 62.4286 83.3002C62.4286 81.9142 63.5272 80.7719 64.8648 80.7719H65.5174ZM65.5174 87.0904V88.3522H64.8648C64.7047 88.3496 64.5458 88.3805 64.3975 88.443C64.2491 88.5054 64.1143 88.5983 64.0012 88.716C63.888 88.8337 63.7987 88.9738 63.7386 89.1281C63.6785 89.2823 63.6488 89.4475 63.6513 89.6139C63.6482 89.7809 63.6774 89.947 63.7372 90.1021C63.7969 90.2572 63.8861 90.3982 63.9992 90.5168C64.1124 90.6354 64.2474 90.729 64.396 90.7923C64.5447 90.8556 64.7041 90.8873 64.8648 90.8854H65.7611C65.8438 91.3155 65.9449 91.7314 66.069 92.1424H64.8648C64.2521 92.0944 63.6795 91.8074 63.2617 91.339C62.8439 90.8706 62.6118 90.2553 62.6118 89.6164C62.6118 88.9775 62.8439 88.3622 63.2617 87.8938C63.6795 87.4254 64.2521 87.1384 64.8648 87.0904H65.5174ZM66.5287 93.4137C66.7125 93.8439 66.9194 94.2645 67.1446 94.6707H64.8648C64.1753 94.6707 63.6513 95.2299 63.6513 95.942C63.6488 96.1085 63.6785 96.2738 63.7386 96.4281C63.7987 96.5823 63.888 96.7224 64.0012 96.8401C64.1143 96.9578 64.2491 97.0507 64.3975 97.1132C64.5458 97.1757 64.7047 97.2065 64.8648 97.2039H68.9831C69.4201 97.6628 69.8904 98.0863 70.3896 98.4705H64.8648C64.2195 98.4705 63.6005 98.2042 63.1438 97.7301C62.6871 97.2561 62.4299 96.6131 62.4286 95.942C62.4286 95.2702 62.6853 94.6259 63.1422 94.1509C63.599 93.6758 64.2187 93.4089 64.8648 93.4089H66.5287V93.4137Z" fill="#C69C1F"/>
<path d="M91.057 76.9705V94.6747C91.057 98.1776 93.769 100.998 97.1377 100.998H90.4051C89.0577 100.998 87.9729 99.8696 87.9729 98.4684V79.4996C87.9729 78.0985 89.0577 76.9705 90.4051 76.9705H91.057Z" fill="#4D88E7"/>
<path d="M102.62 76.9724C103.251 76.9749 103.855 77.2366 104.301 77.7004C104.747 78.1642 104.998 78.7924 105.001 79.4482V84.4811C105.001 84.6497 104.936 84.8113 104.822 84.9305C104.707 85.0497 104.552 85.1168 104.389 85.1168C104.227 85.1168 104.072 85.0497 103.957 84.9305C103.843 84.8113 103.778 84.6497 103.778 84.4811V79.4482C103.781 79.2889 103.752 79.1306 103.695 78.9828C103.638 78.835 103.553 78.7006 103.445 78.5875C103.337 78.4744 103.208 78.3849 103.067 78.3242C102.925 78.2636 102.773 78.233 102.62 78.2342H101.292C101.131 78.2342 100.976 78.1678 100.862 78.0494C100.749 77.9311 100.685 77.7706 100.685 77.6033C100.685 77.4359 100.749 77.2755 100.862 77.1572C100.976 77.0389 101.131 76.9724 101.292 76.9724H102.62ZM104.399 86.3547C104.479 86.3553 104.559 86.3726 104.633 86.4055C104.707 86.4383 104.774 86.4862 104.83 86.5462C104.886 86.6063 104.93 86.6773 104.959 86.7552C104.988 86.8331 105.003 86.9162 105.001 86.9998V89.5187C105.001 89.6873 104.936 89.849 104.822 89.9682C104.707 90.0875 104.552 90.1544 104.389 90.1544C104.227 90.1544 104.072 90.0875 103.957 89.9682C103.843 89.849 103.778 89.6873 103.778 89.5187V86.9998C103.776 86.9146 103.791 86.8299 103.822 86.7507C103.852 86.6715 103.898 86.5995 103.956 86.5392C104.014 86.4789 104.083 86.4315 104.159 86.3998C104.235 86.368 104.317 86.3527 104.399 86.3547Z" fill="#9BC5FF"/>
<path d="M104.999 82.0305H90.4054V95.941H104.999V82.0305Z" fill="#D3D5E7"/>
<path d="M99.9307 83.295V85.403H101.958V87.5098H99.9307V89.6179H97.9046V87.5098H95.8773V85.403H97.9046V83.2937L99.9307 83.295Z" fill="#FF5751"/>
<path d="M103.899 90.8824C104.648 90.978 104.588 92.1347 103.834 92.1442H94.1589C93.281 92.2207 93.281 90.8059 94.1589 90.8824H103.834C103.854 90.8814 103.879 90.8814 103.899 90.8824ZM103.899 93.4155C104.653 93.5111 104.593 94.663 103.834 94.6726H94.1451C93.2672 94.7538 93.2672 93.3343 94.1451 93.4155H103.834C103.856 93.4143 103.877 93.4143 103.899 93.4155Z" fill="white"/>
<path d="M91.0542 82.0295V94.6754C91.0542 95.1091 91.0955 95.5315 91.1758 95.94H90.4023V82.0295H91.0542Z" fill="#B0B3D4"/>
<path opacity="0.446" d="M105.001 82.0295V84.5436C104.993 84.7122 104.921 84.8705 104.801 84.9839C104.741 85.0401 104.672 85.0835 104.596 85.1117C104.52 85.1399 104.44 85.1523 104.36 85.1482C104.279 85.1441 104.201 85.1236 104.128 85.0879C104.055 85.0522 103.99 85.0019 103.936 84.94C103.882 84.8781 103.84 84.8058 103.813 84.7271C103.786 84.6484 103.774 84.5649 103.778 84.4814V82.0295H105.001ZM104.394 86.355C104.396 86.355 104.393 86.355 104.394 86.355C104.544 86.3567 104.693 86.4164 104.804 86.5223C104.914 86.6283 104.983 86.773 104.996 86.9285V89.5811C104.978 89.7407 104.902 89.887 104.784 89.9906C104.665 90.0942 104.514 90.1475 104.36 90.1396C104.205 90.1318 104.059 90.0633 103.952 89.9481C103.844 89.833 103.782 89.6797 103.778 89.519V87.0002C103.776 86.9153 103.791 86.831 103.821 86.7522C103.852 86.6733 103.897 86.6015 103.954 86.5413C104.012 86.481 104.08 86.4336 104.156 86.4015C104.232 86.3695 104.313 86.3537 104.394 86.355Z" fill="#B0B3D4"/>
<path d="M94.3564 70.6479C93.8761 70.6479 93.4881 71.0716 93.4881 71.5964V73.4933C93.4881 74.0193 93.8761 74.4417 94.3564 74.4417H91.2735C90.7932 74.4417 90.404 74.0193 90.404 73.4933V71.5964C90.404 71.0716 90.7932 70.6479 91.2735 70.6479H94.3564Z" fill="#B9BCD9"/>
<path fill-rule="evenodd" clip-rule="evenodd" d="M93.4414 71.9204V74.4393H92.2325V71.9204H93.4414Z" fill="#9CA0CA"/>
<defs>
<filter id="filter0_d_16_2459" x="0" y="0" width="137" height="137" filterUnits="userSpaceOnUse" color-interpolation-filters="sRGB">
<feFlood flood-opacity="0" result="BackgroundImageFix"/>
<feColorMatrix in="SourceAlpha" type="matrix" values="0 0 0 0 0 0 0 0 0 0 0 0 0 0 0 0 0 0 127 0" result="hardAlpha"/>
<feMorphology radius="3" operator="dilate" in="SourceAlpha" result="effect1_dropShadow_16_2459"/>
<feOffset/>
<feGaussianBlur stdDeviation="1.5"/>
<feComposite in2="hardAlpha" operator="out"/>
<feColorMatrix type="matrix" values="0 0 0 0 0 0 0 0 0 0 0 0 0 0 0 0 0 0 0.25 0"/>
<feBlend mode="normal" in2="BackgroundImageFix" result="effect1_dropShadow_16_2459"/>
<feBlend mode="normal" in="SourceGraphic" in2="effect1_dropShadow_16_2459" result="shape"/>
</filter>
</defs>
</svg>
