<svg width="137" height="137" viewBox="0 0 137 137" fill="none" xmlns="http://www.w3.org/2000/svg">
<g filter="url(#filter0_d_16_2520)">
<circle cx="68.5" cy="68.5" r="62.5" fill="white"/>
</g>
<path d="M75.4534 36.0042H36.0615C33.8792 36.0042 32.1223 37.8162 32.1223 40.0674V96.9389C32.1223 99.1881 33.8792 101 36.0615 101H75.4534C77.6357 101 79.3926 99.1881 79.3926 96.9389V40.0674C79.3926 37.8162 77.6357 36.0042 75.4534 36.0042Z" fill="#FFD039"/>
<path d="M41.0521 36V81.3002C41.0521 92.2117 49.8365 100.996 60.748 100.996H36.0572C33.8749 100.996 32.118 99.184 32.118 96.9347V40.0632C32.118 37.812 33.8749 36 36.0572 36H41.0521Z" fill="#D3A621"/>
<path d="M79.3926 61.9673V96.8725C79.3926 98.6293 78.2983 100.111 76.7648 100.706C75.9253 99.6752 75.4631 98.3884 75.4546 97.0588V67.5131C75.4632 66.2964 75.8456 65.112 76.55 64.12C77.2544 63.128 78.2467 62.3764 79.3926 61.9673Z" fill="#F5BA00"/>
<path d="M99.0889 55.6987H83.3321V65.5466H99.0889V55.6987Z" fill="#4D88E7"/>
<path d="M88.3242 55.6968V65.5447H83.3293V55.6968H88.3242Z" fill="#367BE7"/>
<path d="M101.057 63.5767H81.3609C79.1786 63.5767 77.4218 65.3335 77.4218 67.5158V97.0594C77.4218 99.2417 79.1786 100.999 81.3609 100.999H101.057C103.239 100.999 104.996 99.2417 104.996 97.0594V67.5158C104.996 65.3335 103.239 63.5767 101.057 63.5767Z" fill="#589FFF"/>
<path d="M99.6513 53.7278H82.768C81.99 53.7278 81.3617 54.3876 81.3617 55.205V58.1593C81.3617 58.9787 81.99 59.6365 82.768 59.6365H99.6513C100.429 59.6365 101.058 58.9787 101.058 58.1593V55.205C101.058 54.3876 100.429 53.7278 99.6513 53.7278Z" fill="#D3D5E7"/>
<path d="M70.8963 41.2622H62.2794C61.9399 41.2617 61.6036 41.3282 61.2899 41.4579C60.9761 41.5875 60.691 41.7779 60.451 42.0179C60.2109 42.258 60.0206 42.543 59.8909 42.8568C59.7612 43.1705 59.6947 43.5068 59.6953 43.8463C59.6945 44.186 59.7608 44.5224 59.8903 44.8364C60.0199 45.1504 60.2102 45.4357 60.4503 45.6759C60.6903 45.9162 60.9755 46.1067 61.2894 46.2365C61.6033 46.3663 61.9397 46.4329 62.2794 46.4323H70.8963C71.2362 46.4331 71.5728 46.3668 71.8869 46.2371C72.201 46.1074 72.4864 45.9169 72.7267 45.6766C72.967 45.4364 73.1575 45.151 73.2871 44.8369C73.4168 44.5227 73.4832 44.1861 73.4824 43.8463C73.4829 43.5066 73.4164 43.1702 73.2866 42.8563C73.1568 42.5425 72.9663 42.2573 72.726 42.0172C72.4857 41.7771 72.2004 41.5869 71.8865 41.4573C71.5725 41.3277 71.236 41.2614 70.8963 41.2622Z" fill="#FF5751"/>
<path d="M66.5869 41.2622H62.2774C61.9378 41.2617 61.6014 41.3282 61.2875 41.458C60.9736 41.5878 60.6884 41.7783 60.4483 42.0186C60.2083 42.2589 60.018 42.5442 59.8884 42.8582C59.7588 43.1721 59.6926 43.5086 59.6933 43.8483C59.6928 44.1878 59.7593 44.524 59.889 44.8378C60.0187 45.1515 60.209 45.4366 60.449 45.6766C60.6891 45.9167 60.9742 46.107 61.2879 46.2367C61.6017 46.3664 61.9379 46.4329 62.2774 46.4323H66.5869V41.2622Z" fill="white"/>
<path fill-rule="evenodd" clip-rule="evenodd" d="M98.0996 55.708V59.6311H96.1418V55.708H98.0996ZM94.1617 55.708V59.6311H92.1964V55.708H94.1617ZM90.2163 55.708V59.6311H88.2585V55.708H90.2163Z" fill="#B9BCD9"/>
<path d="M49.2313 41.2622H40.6143C40.2748 41.2617 39.9386 41.3282 39.6248 41.4579C39.3111 41.5875 39.026 41.7779 38.7859 42.0179C38.5459 42.258 38.3555 42.543 38.2259 42.8568C38.0962 43.1705 38.0297 43.5068 38.0302 43.8463C38.0294 44.186 38.0957 44.5224 38.2253 44.8364C38.3549 45.1504 38.5451 45.4357 38.7852 45.6759C39.0253 45.9162 39.3105 46.1067 39.6244 46.2365C39.9382 46.3663 40.2747 46.4329 40.6143 46.4323H49.2313C49.5711 46.4331 49.9078 46.3668 50.2219 46.2371C50.536 46.1074 50.8214 45.9169 51.0617 45.6766C51.302 45.4364 51.4924 45.151 51.6221 44.8369C51.7518 44.5227 51.8182 44.1861 51.8174 43.8463C51.8179 43.5066 51.7513 43.1702 51.6215 42.8563C51.4917 42.5425 51.3012 42.2573 51.061 42.0172C50.8207 41.7771 50.5354 41.5869 50.2214 41.4573C49.9074 41.3277 49.571 41.2614 49.2313 41.2622Z" fill="#FF5751"/>
<path d="M44.9248 41.2622H40.6153C40.2757 41.2617 39.9392 41.3282 39.6254 41.458C39.3115 41.5878 39.0263 41.7783 38.7862 42.0186C38.5461 42.2589 38.3559 42.5442 38.2263 42.8582C38.0967 43.1721 38.0304 43.5086 38.0312 43.8483C38.0307 44.1878 38.0972 44.524 38.2269 44.8378C38.3565 45.1515 38.5469 45.4366 38.7869 45.6766C39.027 45.9167 39.3121 46.107 39.6258 46.2367C39.9396 46.3664 40.2758 46.4329 40.6153 46.4323H44.9248V41.2622Z" fill="white"/>
<path d="M70.8963 51.1111H62.2794C61.9399 51.1106 61.6036 51.1771 61.2899 51.3067C60.9761 51.4364 60.691 51.6267 60.451 51.8668C60.2109 52.1069 60.0206 52.3919 59.8909 52.7057C59.7612 53.0194 59.6947 53.3557 59.6953 53.6952C59.6945 54.0348 59.7608 54.3713 59.8903 54.6853C60.0199 54.9993 60.2102 55.2846 60.4503 55.5248C60.6903 55.7651 60.9755 55.9556 61.2894 56.0854C61.6033 56.2152 61.9397 56.2817 62.2794 56.2812H70.8963C71.2362 56.282 71.5728 56.2156 71.8869 56.086C72.201 55.9563 72.4864 55.7658 72.7267 55.5255C72.967 55.2852 73.1575 54.9998 73.2871 54.6857C73.4168 54.3716 73.4832 54.035 73.4824 53.6952C73.4829 53.3555 73.4164 53.0191 73.2866 52.7052C73.1568 52.3913 72.9663 52.1062 72.726 51.8661C72.4857 51.626 72.2004 51.4357 71.8865 51.3062C71.5725 51.1766 71.236 51.1103 70.8963 51.1111Z" fill="#FF5751"/>
<path d="M66.5869 51.1111H62.2774C61.9378 51.1106 61.6014 51.1771 61.2875 51.3069C60.9736 51.4367 60.6884 51.6272 60.4483 51.8675C60.2083 52.1078 60.018 52.3931 59.8884 52.707C59.7588 53.021 59.6926 53.3575 59.6933 53.6971C59.6928 54.0366 59.7593 54.3729 59.889 54.6866C60.0187 55.0004 60.209 55.2855 60.449 55.5255C60.6891 55.7656 60.9742 55.9559 61.2879 56.0856C61.6017 56.2153 61.9379 56.2817 62.2774 56.2812H66.5869V51.1111Z" fill="white"/>
<path d="M49.2313 51.1111H40.6143C40.2748 51.1106 39.9386 51.1771 39.6248 51.3067C39.3111 51.4364 39.026 51.6267 38.7859 51.8668C38.5459 52.1069 38.3555 52.3919 38.2259 52.7057C38.0962 53.0194 38.0297 53.3557 38.0302 53.6952C38.0294 54.0348 38.0957 54.3713 38.2253 54.6853C38.3549 54.9993 38.5451 55.2846 38.7852 55.5248C39.0253 55.7651 39.3105 55.9556 39.6244 56.0854C39.9382 56.2152 40.2747 56.2817 40.6143 56.2812H49.2313C49.5711 56.282 49.9078 56.2156 50.2219 56.086C50.536 55.9563 50.8214 55.7658 51.0617 55.5255C51.302 55.2852 51.4924 54.9998 51.6221 54.6857C51.7518 54.3716 51.8182 54.035 51.8174 53.6952C51.8179 53.3555 51.7513 53.0191 51.6215 52.7052C51.4917 52.3913 51.3012 52.1062 51.061 51.8661C50.8207 51.626 50.5354 51.4357 50.2214 51.3062C49.9074 51.1766 49.571 51.1103 49.2313 51.1111Z" fill="#FF5751"/>
<path d="M44.9248 51.1111H40.6153C40.2757 51.1106 39.9392 51.1771 39.6254 51.3069C39.3115 51.4367 39.0263 51.6272 38.7862 51.8675C38.5461 52.1078 38.3559 52.3931 38.2263 52.707C38.0967 53.021 38.0304 53.3575 38.0312 53.6971C38.0307 54.0366 38.0972 54.3729 38.2269 54.6866C38.3565 55.0004 38.5469 55.2855 38.7869 55.5255C39.027 55.7656 39.3121 55.9559 39.6258 56.0856C39.9396 56.2153 40.2758 56.2817 40.6153 56.2812H44.9248V51.1111Z" fill="white"/>
<path d="M70.8963 60.959H62.2794C61.9397 60.9585 61.6033 61.025 61.2894 61.1548C60.9755 61.2846 60.6903 61.4751 60.4503 61.7154C60.2102 61.9557 60.0199 62.241 59.8903 62.5549C59.7608 62.8689 59.6945 63.2054 59.6953 63.545C59.6947 63.8845 59.7612 64.2208 59.8909 64.5345C60.0206 64.8483 60.2109 65.1334 60.451 65.3734C60.691 65.6135 60.9761 65.8038 61.2899 65.9335C61.6036 66.0632 61.9399 66.1296 62.2794 66.1291H70.8963C71.236 66.1299 71.5725 66.0636 71.8865 65.934C72.2004 65.8045 72.4857 65.6142 72.726 65.3741C72.9663 65.134 73.1568 64.8489 73.2866 64.535C73.4164 64.2211 73.4829 63.8847 73.4824 63.545C73.4832 63.2052 73.4168 62.8686 73.2871 62.5545C73.1575 62.2404 72.967 61.955 72.7267 61.7147C72.4864 61.4744 72.201 61.2839 71.8869 61.1543C71.5728 61.0246 71.2362 60.9582 70.8963 60.959Z" fill="#FF5751"/>
<path d="M66.5869 60.959H62.2774C61.9378 60.9585 61.6014 61.025 61.2875 61.1548C60.9736 61.2846 60.6884 61.4751 60.4483 61.7154C60.2083 61.9557 60.018 62.241 59.8884 62.5549C59.7588 62.8689 59.6926 63.2054 59.6933 63.545C59.6928 63.8845 59.7593 64.2208 59.889 64.5345C60.0187 64.8483 60.209 65.1334 60.449 65.3734C60.6891 65.6135 60.9742 65.8038 61.2879 65.9335C61.6017 66.0632 61.9379 66.1296 62.2774 66.1291H66.5869V60.959Z" fill="white"/>
<path d="M49.2313 60.959H40.6143C40.2747 60.9585 39.9382 61.025 39.6244 61.1548C39.3105 61.2846 39.0253 61.4751 38.7852 61.7154C38.5451 61.9557 38.3549 62.241 38.2253 62.5549C38.0957 62.8689 38.0294 63.2054 38.0302 63.545C38.0297 63.8845 38.0962 64.2208 38.2259 64.5345C38.3555 64.8483 38.5459 65.1334 38.7859 65.3734C39.026 65.6135 39.3111 65.8038 39.6248 65.9335C39.9386 66.0632 40.2748 66.1296 40.6143 66.1291H49.2313C49.571 66.1299 49.9074 66.0636 50.2214 65.934C50.5354 65.8045 50.8207 65.6142 51.061 65.3741C51.3012 65.134 51.4917 64.8489 51.6215 64.535C51.7513 64.2211 51.8179 63.8847 51.8174 63.545C51.8182 63.2052 51.7518 62.8686 51.6221 62.5545C51.4924 62.2404 51.302 61.955 51.0617 61.7147C50.8214 61.4744 50.536 61.2839 50.2219 61.1543C49.9078 61.0246 49.5711 60.9582 49.2313 60.959Z" fill="#FF5751"/>
<path d="M44.9248 60.959H40.6153C40.2757 60.9585 39.9392 61.025 39.6254 61.1548C39.3115 61.2846 39.0263 61.4751 38.7862 61.7154C38.5461 61.9557 38.3559 62.241 38.2263 62.5549C38.0967 62.8689 38.0304 63.2054 38.0312 63.545C38.0307 63.8845 38.0972 64.2208 38.2269 64.5345C38.3565 64.8483 38.5469 65.1334 38.7869 65.3734C39.027 65.6135 39.3121 65.8038 39.6258 65.9335C39.9396 66.0632 40.2758 66.1296 40.6153 66.1291H44.9248V60.959Z" fill="white"/>
<path d="M70.8963 70.8128H62.2794C61.9397 70.8122 61.6033 70.8788 61.2894 71.0086C60.9755 71.1384 60.6903 71.3289 60.4503 71.5692C60.2102 71.8094 60.0199 72.0947 59.8903 72.4087C59.7608 72.7227 59.6945 73.0592 59.6953 73.3988C59.695 73.7381 59.7617 74.0742 59.8915 74.3877C60.0213 74.7012 60.2116 74.9861 60.4517 75.2259C60.6917 75.4658 60.9767 75.6559 61.2903 75.7855C61.6039 75.915 61.94 75.9814 62.2794 75.9809H70.8963C71.236 75.9817 71.5725 75.9154 71.8865 75.7859C72.2004 75.6563 72.4857 75.466 72.726 75.2259C72.9663 74.9858 73.1568 74.7007 73.2866 74.3868C73.4164 74.0729 73.4829 73.7365 73.4824 73.3968C73.4832 73.057 73.4168 72.7204 73.2871 72.4063C73.1575 72.0922 72.967 71.8068 72.7267 71.5665C72.4864 71.3262 72.201 71.1357 71.8869 71.0061C71.5728 70.8764 71.2362 70.812 70.8963 70.8128Z" fill="#FF5751"/>
<path d="M66.5869 70.8149H62.2774C61.9378 70.8144 61.6014 70.881 61.2875 71.0108C60.9736 71.1406 60.6884 71.3311 60.4483 71.5713C60.2083 71.8116 60.018 72.0969 59.8884 72.4109C59.7588 72.7249 59.6926 73.0613 59.6933 73.401C59.6931 73.7403 59.7597 74.0764 59.8895 74.3899C60.0193 74.7034 60.2097 74.9883 60.4497 75.2281C60.6898 75.468 60.9748 75.6581 61.2884 75.7877C61.602 75.9172 61.9381 75.9836 62.2774 75.9831H66.5869V70.8149Z" fill="white"/>
<path d="M49.2313 70.8128H40.6143C40.2747 70.8122 39.9382 70.8788 39.6244 71.0086C39.3105 71.1384 39.0253 71.3289 38.7852 71.5692C38.5451 71.8094 38.3549 72.0947 38.2253 72.4087C38.0957 72.7227 38.0294 73.0592 38.0302 73.3988C38.0299 73.7381 38.0966 74.0742 38.2264 74.3877C38.3562 74.7012 38.5466 74.9861 38.7866 75.2259C39.0266 75.4658 39.3116 75.6559 39.6253 75.7855C39.9389 75.915 40.275 75.9814 40.6143 75.9809H49.2313C49.571 75.9817 49.9074 75.9154 50.2214 75.7859C50.5354 75.6563 50.8207 75.466 51.061 75.2259C51.3012 74.9858 51.4917 74.7007 51.6215 74.3868C51.7513 74.0729 51.8179 73.7365 51.8174 73.3968C51.8182 73.057 51.7518 72.7204 51.6221 72.4063C51.4924 72.0922 51.302 71.8068 51.0617 71.5665C50.8214 71.3262 50.536 71.1357 50.2219 71.0061C49.9078 70.8764 49.5711 70.812 49.2313 70.8128Z" fill="#FF5751"/>
<path d="M44.9248 70.8149H40.6153C40.2757 70.8144 39.9392 70.881 39.6254 71.0108C39.3115 71.1406 39.0263 71.3311 38.7862 71.5713C38.5461 71.8116 38.3559 72.0969 38.2263 72.4109C38.0967 72.7249 38.0304 73.0613 38.0312 73.401C38.031 73.7403 38.0976 74.0764 38.2274 74.3899C38.3572 74.7034 38.5476 74.9883 38.7876 75.2281C39.0277 75.468 39.3126 75.6581 39.6263 75.7877C39.9399 75.9172 40.276 75.9836 40.6153 75.9831H44.9248V70.8149Z" fill="white"/>
<path d="M70.8963 80.6526H62.2794C61.9399 80.6521 61.6036 80.7186 61.2899 80.8482C60.9761 80.9779 60.691 81.1682 60.451 81.4083C60.2109 81.6484 60.0206 81.9334 59.8909 82.2472C59.7612 82.5609 59.6947 82.8972 59.6953 83.2367C59.6945 83.5763 59.7608 83.9128 59.8903 84.2268C60.0199 84.5408 60.2102 84.8261 60.4503 85.0663C60.6903 85.3066 60.9755 85.4971 61.2894 85.6269C61.6033 85.7567 61.9397 85.8232 62.2794 85.8227H70.8963C71.2362 85.8235 71.5728 85.7571 71.8869 85.6275C72.201 85.4978 72.4864 85.3073 72.7267 85.067C72.967 84.8267 73.1575 84.5413 73.2871 84.2272C73.4168 83.9131 73.4832 83.5765 73.4824 83.2367C73.4829 82.897 73.4164 82.5606 73.2866 82.2467C73.1568 81.9328 72.9663 81.6477 72.726 81.4076C72.4857 81.1675 72.2004 80.9772 71.8865 80.8477C71.5725 80.7181 71.236 80.6518 70.8963 80.6526Z" fill="#FF5751"/>
<path d="M66.5869 80.6526H62.2774C61.9378 80.6521 61.6014 80.7186 61.2875 80.8484C60.9736 80.9782 60.6884 81.1687 60.4483 81.409C60.2083 81.6493 60.018 81.9346 59.8884 82.2485C59.7588 82.5625 59.6926 82.899 59.6933 83.2386C59.6928 83.5781 59.7593 83.9144 59.889 84.2281C60.0187 84.5419 60.209 84.827 60.449 85.067C60.6891 85.3071 60.9742 85.4974 61.2879 85.6271C61.6017 85.7568 61.9379 85.8232 62.2774 85.8227H66.5869V80.6526Z" fill="white"/>
<path d="M49.2313 80.6526H40.6143C40.2748 80.6521 39.9386 80.7186 39.6248 80.8482C39.3111 80.9779 39.026 81.1682 38.7859 81.4083C38.5459 81.6484 38.3555 81.9334 38.2259 82.2472C38.0962 82.5609 38.0297 82.8972 38.0302 83.2367C38.0294 83.5763 38.0957 83.9128 38.2253 84.2268C38.3549 84.5408 38.5451 84.8261 38.7852 85.0663C39.0253 85.3066 39.3105 85.4971 39.6244 85.6269C39.9382 85.7567 40.2747 85.8232 40.6143 85.8227H49.2313C49.5711 85.8235 49.9078 85.7571 50.2219 85.6275C50.536 85.4978 50.8214 85.3073 51.0617 85.067C51.302 84.8267 51.4924 84.5413 51.6221 84.2272C51.7518 83.9131 51.8182 83.5765 51.8174 83.2367C51.8179 82.897 51.7513 82.5606 51.6215 82.2467C51.4917 81.9328 51.3012 81.6477 51.061 81.4076C50.8207 81.1675 50.5354 80.9772 50.2214 80.8477C49.9074 80.7181 49.571 80.6518 49.2313 80.6526Z" fill="#FF5751"/>
<path d="M44.9248 80.6526H40.6153C40.2757 80.6521 39.9392 80.7186 39.6254 80.8484C39.3115 80.9782 39.0263 81.1687 38.7862 81.409C38.5461 81.6493 38.3559 81.9346 38.2263 82.2485C38.0967 82.5625 38.0304 82.899 38.0312 83.2386C38.0307 83.5781 38.0972 83.9144 38.2269 84.2281C38.3565 84.5419 38.5469 84.827 38.7869 85.067C39.027 85.3071 39.3121 85.4974 39.6258 85.6271C39.9396 85.7568 40.2758 85.8232 40.6153 85.8227H44.9248V80.6526Z" fill="white"/>
<path d="M70.8963 90.5027H62.2794C61.9397 90.5022 61.6033 90.5687 61.2894 90.6985C60.9755 90.8283 60.6903 91.0188 60.4503 91.2591C60.2102 91.4994 60.0199 91.7847 59.8903 92.0986C59.7608 92.4126 59.6945 92.7491 59.6953 93.0887C59.6947 93.4282 59.7612 93.7645 59.8909 94.0782C60.0206 94.392 60.2109 94.6771 60.451 94.9171C60.691 95.1572 60.9761 95.3475 61.2899 95.4772C61.6036 95.6069 61.9399 95.6733 62.2794 95.6728H70.8963C71.236 95.6736 71.5725 95.6073 71.8865 95.4777C72.2004 95.3482 72.4857 95.1579 72.726 94.9178C72.9663 94.6777 73.1568 94.3926 73.2866 94.0787C73.4164 93.7648 73.4829 93.4284 73.4824 93.0887C73.4832 92.7489 73.4168 92.4123 73.2871 92.0982C73.1575 91.7841 72.967 91.4987 72.7267 91.2584C72.4864 91.0181 72.201 90.8276 71.8869 90.698C71.5728 90.5683 71.2362 90.5019 70.8963 90.5027Z" fill="#FF5751"/>
<path d="M66.5869 90.5027H62.2774C61.9378 90.5022 61.6014 90.5687 61.2875 90.6985C60.9736 90.8283 60.6884 91.0188 60.4483 91.2591C60.2083 91.4994 60.018 91.7847 59.8884 92.0986C59.7588 92.4126 59.6926 92.7491 59.6933 93.0887C59.6928 93.4282 59.7593 93.7645 59.889 94.0782C60.0187 94.392 60.209 94.6771 60.449 94.9171C60.6891 95.1572 60.9742 95.3475 61.2879 95.4772C61.6017 95.6069 61.9379 95.6733 62.2774 95.6728H66.5869V90.5027Z" fill="white"/>
<path d="M49.2313 90.5027H40.6143C40.2747 90.5022 39.9382 90.5687 39.6244 90.6985C39.3105 90.8283 39.0253 91.0188 38.7852 91.2591C38.5451 91.4994 38.3549 91.7847 38.2253 92.0986C38.0957 92.4126 38.0294 92.7491 38.0302 93.0887C38.0297 93.4282 38.0962 93.7645 38.2259 94.0782C38.3555 94.392 38.5459 94.6771 38.7859 94.9171C39.026 95.1572 39.3111 95.3475 39.6248 95.4772C39.9386 95.6069 40.2748 95.6733 40.6143 95.6728H49.2313C49.571 95.6736 49.9074 95.6073 50.2214 95.4777C50.5354 95.3482 50.8207 95.1579 51.061 94.9178C51.3012 94.6777 51.4917 94.3926 51.6215 94.0787C51.7513 93.7648 51.8179 93.4284 51.8174 93.0887C51.8182 92.7489 51.7518 92.4123 51.6221 92.0982C51.4924 91.7841 51.302 91.4987 51.0617 91.2584C50.8214 91.0181 50.536 90.8276 50.2219 90.698C49.9078 90.5683 49.5711 90.5019 49.2313 90.5027Z" fill="#FF5751"/>
<path d="M43.3253 90.5027C44.3483 92.4342 45.6863 94.1815 47.2842 95.6728H40.6132C40.2735 95.6736 39.937 95.6073 39.623 95.4777C39.3091 95.3482 39.0238 95.1579 38.7835 94.9178C38.5432 94.6777 38.3527 94.3926 38.2229 94.0787C38.0931 93.7648 38.0266 93.4284 38.0271 93.0887C38.0263 92.7489 38.0927 92.4123 38.2224 92.0982C38.352 91.7841 38.5425 91.4987 38.7828 91.2584C39.0231 91.0181 39.3085 90.8276 39.6226 90.698C39.9367 90.5683 40.2733 90.5019 40.6132 90.5027H43.3253Z" fill="#D34F5C"/>
<path d="M44.9248 90.5027H40.6153C40.2757 90.5022 39.9392 90.5687 39.6254 90.6985C39.3115 90.8283 39.0263 91.0188 38.7862 91.2591C38.5461 91.4994 38.3559 91.7847 38.2263 92.0986C38.0967 92.4126 38.0304 92.7491 38.0312 93.0887C38.0307 93.4282 38.0972 93.7645 38.2269 94.0782C38.3565 94.392 38.5469 94.6771 38.7869 94.9171C39.027 95.1572 39.3121 95.3475 39.6258 95.4772C39.9396 95.6069 40.2758 95.6733 40.6153 95.6728H44.9248V90.5027Z" fill="white"/>
<path d="M41.0536 41.2622V46.4323H40.6144C40.2747 46.4331 39.9382 46.3668 39.6243 46.2373C39.3103 46.1077 39.025 45.9174 38.7847 45.6773C38.5444 45.4373 38.3539 45.1521 38.2241 44.8382C38.0943 44.5243 38.0278 44.1879 38.0283 43.8483C38.0275 43.5084 38.0939 43.1718 38.2236 42.8577C38.3532 42.5436 38.5437 42.2582 38.784 42.0179C39.0243 41.7776 39.3097 41.5872 39.6238 41.4575C39.9379 41.3278 40.2745 41.2614 40.6144 41.2622H41.0536ZM41.0536 51.1101V56.2802H40.6144C40.2747 56.281 39.9382 56.2147 39.6243 56.0851C39.3103 55.9556 39.025 55.7653 38.7847 55.5252C38.5444 55.2851 38.3539 55 38.2241 54.6861C38.0943 54.3722 38.0278 54.0358 38.0283 53.6961C38.0275 53.3563 38.0939 53.0197 38.2236 52.7056C38.3532 52.3915 38.5437 52.1061 38.784 51.8658C39.0243 51.6255 39.3097 51.435 39.6238 51.3054C39.9379 51.1757 40.2745 51.1093 40.6144 51.1101H41.0536ZM41.0536 60.958V66.1281H40.6144C40.2747 66.1289 39.9382 66.0626 39.6243 65.933C39.3103 65.8035 39.025 65.6132 38.7847 65.3731C38.5444 65.133 38.3539 64.8478 38.2241 64.534C38.0943 64.2201 38.0278 63.8837 38.0283 63.544C38.0275 63.2042 38.0939 62.8676 38.2236 62.5534C38.3532 62.2393 38.5437 61.954 38.784 61.7137C39.0243 61.4734 39.3097 61.2829 39.6238 61.1532C39.9379 61.0235 40.2745 60.9572 40.6144 60.958H41.0536ZM41.0536 70.8137V75.9838H40.6144C40.2747 75.9846 39.9382 75.9183 39.6243 75.7888C39.3103 75.6592 39.025 75.4689 38.7847 75.2288C38.5444 74.9888 38.3539 74.7036 38.2241 74.3897C38.0943 74.0758 38.0278 73.7394 38.0283 73.3998C38.0275 73.0599 38.0939 72.7233 38.2236 72.4092C38.3532 72.0951 38.5437 71.8097 38.784 71.5694C39.0243 71.3291 39.3097 71.1387 39.6238 71.009C39.9379 70.8793 40.2745 70.8129 40.6144 70.8137H41.0536ZM41.0536 80.6537V81.2997C41.0536 82.8616 41.2505 84.3703 41.5913 85.8238H40.6144C40.2747 85.8246 39.9382 85.7583 39.6243 85.6288C39.3103 85.4992 39.025 85.3089 38.7847 85.0688C38.5444 84.8288 38.3539 84.5436 38.2241 84.2297C38.0943 83.9158 38.0278 83.5794 38.0283 83.2398C38.0275 82.8999 38.0939 82.5633 38.2236 82.2492C38.3532 81.9351 38.5437 81.6497 38.784 81.4094C39.0243 81.1691 39.3097 80.9787 39.6238 80.849C39.9379 80.7193 40.2745 80.6529 40.6144 80.6537H41.0536ZM43.3265 90.5016C43.7937 91.3799 44.327 92.2213 44.9219 93.0187V95.6717H40.6144C40.2747 95.6725 39.9382 95.6062 39.6243 95.4766C39.3103 95.3471 39.025 95.1568 38.7847 94.9167C38.5444 94.6766 38.3539 94.3915 38.2241 94.0776C38.0943 93.7637 38.0278 93.4273 38.0283 93.0876C38.0275 92.7478 38.0939 92.4112 38.2236 92.0971C38.3532 91.783 38.5437 91.4976 38.784 91.2573C39.0243 91.017 39.3097 90.8265 39.6238 90.6968C39.9379 90.5672 40.2745 90.5008 40.6144 90.5016H43.3265Z" fill="#D3D5E7"/>
<path d="M71.5087 39.9492C73.675 39.9492 75.4541 41.721 75.4541 43.8872C75.4541 46.046 73.675 47.8251 71.5087 47.8251H61.675C59.5088 47.8251 57.7296 46.0534 57.7296 43.8797C57.7296 41.721 59.5088 39.9419 61.675 39.9419H71.5013L71.5087 39.9492ZM71.5087 41.907H61.675C60.5658 41.907 59.6948 42.7781 59.6948 43.8872C59.6928 44.1468 59.7428 44.404 59.8419 44.644C59.9409 44.8839 60.0871 45.1016 60.2717 45.2841C60.4563 45.4666 60.6755 45.6101 60.9166 45.7065C61.1576 45.8028 61.4155 45.85 61.675 45.845H71.5013C71.7608 45.85 72.0187 45.8028 72.2597 45.7065C72.5007 45.6101 72.72 45.4666 72.9045 45.2841C73.0891 45.1016 73.2353 44.8839 73.3344 44.644C73.4334 44.404 73.4834 44.1468 73.4814 43.8872C73.4814 42.7706 72.6179 41.907 71.5087 41.907ZM49.8462 39.9419C52.005 39.9419 53.7916 41.721 53.7916 43.8872C53.7916 46.046 52.005 47.8251 49.8462 47.8251H40.0051C37.8388 47.8251 36.0597 46.0534 36.0597 43.8797C36.0597 41.721 37.8388 39.9419 40.0051 39.9419H49.8462ZM49.8462 41.907H40.0051C38.8885 41.907 38.0249 42.7781 38.0249 43.8872C38.0229 44.1468 38.0729 44.404 38.172 44.644C38.271 44.8839 38.4172 45.1016 38.6017 45.2841C38.7863 45.4666 39.0056 45.6101 39.2466 45.7065C39.4877 45.8028 39.7456 45.85 40.0051 45.845H49.8388C50.0983 45.85 50.3562 45.8028 50.5972 45.7065C50.8382 45.6101 51.0575 45.4666 51.2421 45.2841C51.4267 45.1016 51.5728 44.8839 51.6719 44.644C51.7709 44.404 51.821 44.1468 51.8189 43.8872C51.8189 42.7706 50.9554 41.907 49.8462 41.907ZM71.5087 49.7904C73.675 49.7904 75.4541 51.562 75.4541 53.7282C75.4541 55.887 73.675 57.6736 71.5087 57.6736H61.675C59.5088 57.6736 57.7296 55.887 57.7296 53.7282C57.7296 51.5695 59.5088 49.7829 61.675 49.7829H71.5013L71.5087 49.7904ZM71.5087 51.7629H61.675C60.5658 51.7629 59.6948 52.6191 59.6948 53.7282C59.6918 53.9891 59.741 54.2479 59.8395 54.4895C59.9379 54.7311 60.0837 54.9507 60.2682 55.1351C60.4526 55.3196 60.6721 55.4654 60.9137 55.5638C61.1553 55.6623 61.4141 55.7113 61.675 55.7083H71.5013C71.7621 55.7113 72.021 55.6623 72.2625 55.5638C72.5041 55.4654 72.7236 55.3196 72.9081 55.1351C73.0925 54.9507 73.2383 54.7311 73.3368 54.4895C73.4352 54.2479 73.4844 53.9891 73.4814 53.7282C73.4814 52.6191 72.6179 51.7629 71.5087 51.7629ZM49.8462 49.7904C52.005 49.7904 53.7916 51.562 53.7916 53.7282C53.7916 55.887 52.005 57.6736 49.8462 57.6736H40.0051C37.8388 57.6736 36.0597 55.887 36.0597 53.7282C36.0597 51.5695 37.8388 49.7829 40.0051 49.7829H49.8388L49.8462 49.7904ZM49.8462 51.7629H40.0051C38.8885 51.7629 38.0249 52.6191 38.0249 53.7282C38.0219 53.9891 38.0711 54.2479 38.1695 54.4895C38.268 54.7311 38.4137 54.9507 38.5982 55.1351C38.7827 55.3196 39.0022 55.4654 39.2438 55.5638C39.4854 55.6623 39.7442 55.7113 40.0051 55.7083H49.8388C50.0996 55.7113 50.3585 55.6623 50.6001 55.5638C50.8417 55.4654 51.0612 55.3196 51.2456 55.1351C51.4301 54.9507 51.5759 54.7311 51.6743 54.4895C51.7728 54.2479 51.8219 53.9891 51.8189 53.7282C51.8189 52.6191 50.9554 51.7629 49.8462 51.7629ZM71.5087 59.6314C73.675 59.6314 75.4541 61.403 75.4541 63.5767C75.4541 65.7355 73.675 67.5146 71.5087 67.5146H61.675C59.5088 67.5146 57.7296 65.7354 57.7296 63.5692C57.7296 61.4104 59.5088 59.6239 61.675 59.6239H71.5013L71.5087 59.6314ZM71.5087 61.6114H61.675C60.5658 61.6114 59.6948 62.4601 59.6948 63.5692C59.6918 63.8301 59.741 64.0889 59.8395 64.3305C59.9379 64.5721 60.0837 64.7916 60.2682 64.9761C60.4526 65.1606 60.6721 65.3063 60.9137 65.4048C61.1553 65.5032 61.4141 65.5525 61.675 65.5495H71.5013C71.7621 65.5525 72.021 65.5032 72.2625 65.4048C72.5041 65.3063 72.7236 65.1606 72.9081 64.9761C73.0925 64.7916 73.2383 64.5721 73.3368 64.3305C73.4352 64.0889 73.4844 63.8301 73.4814 63.5692C73.4814 62.4601 72.6179 61.6114 71.5087 61.6114ZM49.8462 59.6314C52.005 59.6314 53.7916 61.403 53.7916 63.5767C53.7916 65.7355 52.005 67.5146 49.8462 67.5146H40.0051C37.8388 67.5146 36.0597 65.7354 36.0597 63.5692C36.0597 61.4104 37.8388 59.6239 40.0051 59.6239H49.8388L49.8462 59.6314ZM49.8462 61.6114H40.0051C38.8885 61.6114 38.0249 62.4601 38.0249 63.5692C38.0219 63.8301 38.0711 64.0889 38.1695 64.3305C38.268 64.5721 38.4137 64.7916 38.5982 64.9761C38.7827 65.1606 39.0022 65.3063 39.2438 65.4048C39.4854 65.5032 39.7442 65.5525 40.0051 65.5495H49.8388C50.0996 65.5525 50.3585 65.5032 50.6001 65.4048C50.8417 65.3063 51.0612 65.1606 51.2456 64.9761C51.4301 64.7916 51.5759 64.5721 51.6743 64.3305C51.7728 64.0889 51.8219 63.8301 51.8189 63.5692C51.8189 62.4601 50.9554 61.6114 49.8462 61.6114ZM71.5087 69.4874C73.675 69.4874 75.4541 71.2665 75.4541 73.4327C75.4541 75.5915 73.675 77.3705 71.5087 77.3705H61.675C59.5088 77.3705 57.7296 75.5914 57.7296 73.4252C57.7296 71.2664 59.5088 69.4874 61.675 69.4874H71.5087ZM71.5087 71.4674H61.675C60.5658 71.4674 59.6948 72.3235 59.6948 73.4252C59.6918 73.6861 59.741 73.9449 59.8395 74.1865C59.9379 74.4281 60.0837 74.6476 60.2682 74.8321C60.4526 75.0166 60.6721 75.1623 60.9137 75.2608C61.1553 75.3592 61.4141 75.4082 61.675 75.4053H71.5013C71.7621 75.4082 72.021 75.3592 72.2625 75.2608C72.5041 75.1623 72.7236 75.0166 72.9081 74.8321C73.0925 74.6476 73.2383 74.4281 73.3368 74.1865C73.4352 73.9449 73.4844 73.6861 73.4814 73.4252C73.4814 72.3235 72.6179 71.4674 71.5087 71.4674ZM49.8462 69.4874C52.005 69.4874 53.7916 71.2665 53.7916 73.4327C53.7916 75.5915 52.005 77.3705 49.8462 77.3705H40.0051C37.8388 77.3705 36.0597 75.5914 36.0597 73.4252C36.0597 71.2664 37.8388 69.4874 40.0051 69.4874H49.8462ZM49.8462 71.4674H40.0051C38.8885 71.4674 38.0249 72.3235 38.0249 73.4252C38.0219 73.6861 38.0711 73.9449 38.1695 74.1865C38.268 74.4281 38.4137 74.6476 38.5982 74.8321C38.7827 75.0166 39.0022 75.1623 39.2438 75.2608C39.4854 75.3592 39.7442 75.4082 40.0051 75.4053H49.8388C50.0996 75.4082 50.3585 75.3592 50.6001 75.2608C50.8417 75.1623 51.0612 75.0166 51.2456 74.8321C51.4301 74.6476 51.5759 74.4281 51.6743 74.1865C51.7728 73.9449 51.8219 73.6861 51.8189 73.4252C51.8189 72.3235 50.9554 71.4674 49.8462 71.4674ZM71.5087 79.3283C73.675 79.3283 75.4541 81.1075 75.4541 83.2737C75.4541 85.4325 73.675 87.2118 71.5087 87.2118H61.675C59.5088 87.2118 57.7296 85.4399 57.7296 83.2662C57.7296 81.1074 59.5088 79.3283 61.675 79.3283H71.5087ZM71.5087 81.3084H61.675C60.5658 81.3084 59.6948 82.1645 59.6948 83.2737C59.6928 83.5339 59.7427 83.792 59.8416 84.0327C59.9405 84.2734 60.0864 84.4921 60.2708 84.6758C60.4552 84.8595 60.6743 85.0045 60.9154 85.1024C61.1565 85.2004 61.4148 85.2494 61.675 85.2465H71.5013C71.7615 85.2494 72.0197 85.2004 72.2608 85.1024C72.5019 85.0045 72.721 84.8595 72.9054 84.6758C73.0898 84.4921 73.2357 84.2734 73.3346 84.0327C73.4335 83.792 73.4834 83.5339 73.4814 83.2737C73.4814 82.1571 72.6179 81.3084 71.5087 81.3084ZM49.8462 79.3283C52.005 79.3283 53.7916 81.1075 53.7916 83.2737C53.7916 85.4325 52.005 87.2118 49.8462 87.2118H40.0051C37.8388 87.2118 36.0597 85.4399 36.0597 83.2662C36.0597 81.1074 37.8388 79.3283 40.0051 79.3283H49.8462ZM49.8462 81.3084H40.0051C38.8885 81.3084 38.0249 82.1645 38.0249 83.2737C38.0229 83.5339 38.0729 83.792 38.1718 84.0327C38.2706 84.2734 38.4165 84.4921 38.6009 84.6758C38.7853 84.8595 39.0044 85.0045 39.2455 85.1024C39.4866 85.2004 39.7448 85.2494 40.0051 85.2465H49.8388C50.099 85.2494 50.3573 85.2004 50.5983 85.1024C50.8394 85.0045 51.0586 84.8595 51.243 84.6758C51.4273 84.4921 51.5732 84.2734 51.6721 84.0327C51.771 83.792 51.8209 83.5339 51.8189 83.2737C51.8189 82.1571 50.9554 81.3084 49.8462 81.3084ZM71.5087 89.1768C73.675 89.1768 75.4541 90.9487 75.4541 93.1149C75.4541 95.2737 73.675 97.0602 71.5087 97.0602H61.675C59.5088 97.0602 57.7296 95.2737 57.7296 93.1149C57.7296 90.9561 59.5088 89.1693 61.675 89.1693H71.5013L71.5087 89.1768ZM71.5087 91.1496H61.675C60.5658 91.1496 59.6948 92.0057 59.6948 93.1149C59.6918 93.3758 59.741 93.6346 59.8395 93.8762C59.9379 94.1178 60.0837 94.3371 60.2682 94.5216C60.4526 94.706 60.6721 94.8518 60.9137 94.9502C61.1553 95.0487 61.4141 95.0979 61.675 95.095H71.5013C71.7621 95.0979 72.021 95.0487 72.2625 94.9502C72.5041 94.8518 72.7236 94.706 72.9081 94.5216C73.0925 94.3371 73.2383 94.1178 73.3368 93.8762C73.4352 93.6346 73.4844 93.3758 73.4814 93.1149C73.4814 92.0057 72.6179 91.1496 71.5087 91.1496ZM49.8462 89.1768C52.005 89.1768 53.7916 90.9487 53.7916 93.1149C53.7916 95.2737 52.005 97.0602 49.8462 97.0602H40.0051C37.8388 97.0602 36.0597 95.2737 36.0597 93.1149C36.0597 90.9561 37.8388 89.1693 40.0051 89.1693H49.8388L49.8462 89.1768ZM49.8462 91.1496H40.0051C38.8885 91.1496 38.0249 92.0057 38.0249 93.1149C38.0219 93.3758 38.0711 93.6346 38.1695 93.8762C38.268 94.1178 38.4137 94.3371 38.5982 94.5216C38.7827 94.706 39.0022 94.8518 39.2438 94.9502C39.4854 95.0487 39.7442 95.0979 40.0051 95.095H49.8388C50.0996 95.0979 50.3585 95.0487 50.6001 94.9502C50.8417 94.8518 51.0612 94.706 51.2456 94.5216C51.4301 94.3371 51.5759 94.1178 51.6743 93.8762C51.7728 93.6346 51.8219 93.3758 51.8189 93.1149C51.8189 92.0057 50.9554 91.1496 49.8462 91.1496Z" fill="#F5BA00"/>
<path d="M41.0536 39.9419V41.9145H39.9965C39.7373 41.9104 39.48 41.9586 39.2397 42.056C38.9995 42.1533 38.7812 42.298 38.5979 42.4813C38.4146 42.6646 38.27 42.8828 38.1727 43.123C38.0753 43.3633 38.0272 43.6206 38.0312 43.8797C38.0262 44.1399 38.0735 44.3983 38.1703 44.6399C38.2671 44.8814 38.4115 45.101 38.5948 45.2857C38.7781 45.4704 38.9966 45.6165 39.2374 45.7151C39.4782 45.8137 39.7363 45.8628 39.9965 45.8598H41.0536V47.8176H39.9965C38.9501 47.8176 37.9466 47.4021 37.2067 46.6622C36.4668 45.9223 36.0511 44.9186 36.0511 43.8722C36.0551 42.8285 36.4725 41.8288 37.2119 41.0921C37.9514 40.3554 38.9527 39.9419 39.9965 39.9419H41.0536ZM41.0536 49.7979V51.7557H39.9965C39.7373 51.7517 39.48 51.7996 39.2397 51.897C38.9995 51.9943 38.7812 52.1389 38.5979 52.3222C38.4146 52.5055 38.27 52.7238 38.1727 52.964C38.0753 53.2043 38.0272 53.4615 38.0312 53.7207C38.0262 53.9809 38.0735 54.2396 38.1703 54.4811C38.2671 54.7226 38.4115 54.942 38.5948 55.1267C38.7781 55.3114 38.9966 55.4575 39.2374 55.5561C39.4782 55.6547 39.7363 55.7041 39.9965 55.701H41.0536V57.6588H39.9965C39.0043 57.584 38.077 57.1369 37.4003 56.4073C36.7237 55.6777 36.3478 54.7196 36.3478 53.7246C36.3478 52.7296 36.7237 51.7712 37.4003 51.0417C38.077 50.3121 39.0043 49.8652 39.9965 49.7904H41.0536V49.7979ZM41.0536 59.6389V61.6042H39.9965C38.8799 61.6042 38.0312 62.4675 38.0312 63.5767C38.0272 63.8359 38.0753 64.0932 38.1727 64.3334C38.27 64.5737 38.4146 64.7921 38.5979 64.9754C38.7812 65.1587 38.9995 65.3031 39.2397 65.4005C39.48 65.4978 39.7373 65.546 39.9965 65.542H41.0536V67.5146H39.9965C38.9514 67.5146 37.949 67.0999 37.2093 66.3617C36.4696 65.6234 36.0531 64.6218 36.0511 63.5767C36.0531 62.5316 36.4696 61.5301 37.2093 60.7918C37.949 60.0535 38.9514 59.6389 39.9965 59.6389H41.0536ZM41.0536 69.4948V71.4599H39.9965C38.8799 71.4599 38.0312 72.331 38.0312 73.4402C38.0282 73.6988 38.077 73.9553 38.1748 74.1946C38.2726 74.434 38.4174 74.6514 38.6006 74.8339C38.7838 75.0164 39.0017 75.1603 39.2415 75.2571C39.4812 75.354 39.7379 75.402 39.9965 75.398H41.0536V77.378H39.9965C38.9501 77.378 37.9466 76.9623 37.2067 76.2224C36.4668 75.4825 36.0511 74.4791 36.0511 73.4327C36.0511 71.2739 37.8303 69.4948 39.9965 69.4948H41.0536ZM41.0536 79.3358V81.3011H39.9965C39.7373 81.2971 39.48 81.3451 39.2397 81.4424C38.9995 81.5398 38.7812 81.6844 38.5979 81.8677C38.4146 82.051 38.27 82.2692 38.1727 82.5095C38.0753 82.7497 38.0272 83.007 38.0312 83.2662C38.0262 83.5263 38.0735 83.785 38.1703 84.0265C38.2671 84.2681 38.4115 84.4877 38.5948 84.6724C38.7781 84.8571 38.9966 85.0029 39.2374 85.1015C39.4782 85.2002 39.7363 85.2495 39.9965 85.2465H41.4481C41.5821 85.9164 41.7459 86.5641 41.9469 87.2043H39.9965C39.0043 87.1295 38.077 86.6825 37.4003 85.953C36.7237 85.2234 36.3478 84.2651 36.3478 83.2701C36.3478 82.275 36.7237 81.3167 37.4003 80.5871C38.077 79.8576 39.0043 79.4106 39.9965 79.3358H41.0536ZM42.6913 89.1843C42.989 89.8543 43.3241 90.5094 43.6888 91.1421H39.9965C38.8799 91.1421 38.0312 92.013 38.0312 93.1222C38.0272 93.3814 38.0753 93.6389 38.1727 93.8791C38.27 94.1194 38.4146 94.3376 38.5979 94.5209C38.7812 94.7042 38.9995 94.8488 39.2397 94.9462C39.48 95.0435 39.7373 95.0915 39.9965 95.0875H46.6664C47.3742 95.8023 48.1357 96.4619 48.9443 97.0602H39.9965C38.9514 97.0602 37.949 96.6454 37.2093 95.9071C36.4696 95.1688 36.0531 94.1673 36.0511 93.1222C36.0511 92.0758 36.4668 91.0724 37.2067 90.3325C37.9466 89.5926 38.9501 89.1768 39.9965 89.1768H42.6913V89.1843Z" fill="#C69C1F"/>
<path d="M82.4157 63.5728V91.1468C82.4157 96.6025 86.8079 100.995 92.2637 100.995H81.36C79.1777 100.995 77.4208 99.2378 77.4208 97.0555V67.5119C77.4208 65.3296 79.1777 63.5728 81.36 63.5728H82.4157Z" fill="#4D88E7"/>
<path d="M101.144 63.5767C102.165 63.5806 103.144 63.9882 103.866 64.7105C104.588 65.4328 104.996 66.4113 105 67.4327V75.2714C105 75.534 104.895 75.7856 104.71 75.9713C104.524 76.157 104.272 76.2614 104.01 76.2614C103.747 76.2614 103.495 76.157 103.31 75.9713C103.124 75.7856 103.02 75.534 103.02 75.2714V67.4327C103.024 67.1846 102.978 66.938 102.885 66.7078C102.793 66.4776 102.655 66.2683 102.48 66.0922C102.305 65.916 102.097 65.7766 101.867 65.6821C101.638 65.5876 101.392 65.5399 101.144 65.542H98.9923C98.7317 65.542 98.4818 65.4384 98.2975 65.2541C98.1132 65.0698 98.0097 64.8198 98.0097 64.5592C98.0097 64.2986 98.1132 64.0488 98.2975 63.8645C98.4818 63.6802 98.7317 63.5767 98.9923 63.5767H101.144ZM104.025 78.1895C104.155 78.1904 104.284 78.2173 104.404 78.2685C104.523 78.3197 104.632 78.3942 104.723 78.4877C104.813 78.5813 104.885 78.692 104.932 78.8133C104.98 78.9346 105.003 79.064 105 79.1943V83.1173C105 83.3799 104.895 83.6318 104.71 83.8175C104.524 84.0032 104.272 84.1074 104.01 84.1074C103.747 84.1074 103.495 84.0032 103.31 83.8175C103.124 83.6318 103.02 83.3799 103.02 83.1173V79.1943C103.017 79.0614 103.04 78.9295 103.09 78.8062C103.139 78.6829 103.213 78.5708 103.307 78.4768C103.401 78.3829 103.513 78.3091 103.636 78.2597C103.76 78.2102 103.892 78.1864 104.025 78.1895Z" fill="#9BC5FF"/>
<path d="M104.996 71.4546H81.3609V93.1199H104.996V71.4546Z" fill="#D3D5E7"/>
<path d="M96.7889 73.4236V76.7069H100.072V79.9882H96.7889V83.2715H93.5076V79.9882H90.2243V76.7069H93.5076V73.4216L96.7889 73.4236Z" fill="#FF5751"/>
<path d="M103.215 85.2422C104.429 85.3911 104.332 87.1926 103.111 87.2075H87.441C86.0192 87.3266 86.0192 85.1231 87.441 85.2422H103.111C103.143 85.2406 103.183 85.2406 103.215 85.2422ZM103.215 89.1876C104.436 89.3364 104.339 91.1305 103.111 91.1454H87.4187C85.9969 91.2719 85.9969 89.061 87.4187 89.1876H103.111C103.146 89.1857 103.18 89.1857 103.215 89.1876Z" fill="white"/>
<path d="M82.4124 71.4526V91.1484C82.4124 91.8239 82.4794 92.4818 82.6094 93.118H81.3567V71.4526H82.4124Z" fill="#B0B3D4"/>
<path opacity="0.446" d="M105 71.4526V75.3682C104.987 75.6308 104.871 75.8775 104.676 76.0541C104.579 76.1415 104.467 76.2092 104.344 76.2531C104.222 76.297 104.092 76.3162 103.962 76.3099C103.831 76.3035 103.704 76.2717 103.586 76.216C103.469 76.1604 103.363 76.0821 103.276 75.9857C103.188 75.8893 103.121 75.7766 103.077 75.654C103.033 75.5315 103.013 75.4015 103.02 75.2714V71.4526H105ZM104.017 78.1895C104.02 78.1895 104.015 78.1895 104.017 78.1895C104.261 78.1922 104.502 78.2851 104.68 78.4501C104.859 78.6151 104.97 78.8405 104.993 79.0828V83.2142C104.962 83.4627 104.839 83.6905 104.648 83.8518C104.457 84.0132 104.211 84.0963 103.961 84.084C103.711 84.0718 103.475 83.9651 103.3 83.7857C103.126 83.6064 103.025 83.3676 103.02 83.1174V79.1943C103.017 79.0621 103.04 78.9309 103.089 78.8081C103.138 78.6853 103.212 78.5734 103.305 78.4796C103.398 78.3858 103.509 78.3119 103.631 78.262C103.754 78.2121 103.885 78.1875 104.017 78.1895Z" fill="#B0B3D4"/>
<path d="M87.7598 53.7268C86.9818 53.7268 86.3535 54.3866 86.3535 55.204V58.1583C86.3535 58.9777 86.9818 59.6355 87.7598 59.6355H82.7668C81.9889 59.6355 81.3586 58.9777 81.3586 58.1583V55.204C81.3586 54.3866 81.9889 53.7268 82.7668 53.7268H87.7598Z" fill="#B9BCD9"/>
<path fill-rule="evenodd" clip-rule="evenodd" d="M86.2793 55.708V59.6311H84.3215V55.708H86.2793Z" fill="#9CA0CA"/>
<defs>
<filter id="filter0_d_16_2520" x="0" y="0" width="137" height="137" filterUnits="userSpaceOnUse" color-interpolation-filters="sRGB">
<feFlood flood-opacity="0" result="BackgroundImageFix"/>
<feColorMatrix in="SourceAlpha" type="matrix" values="0 0 0 0 0 0 0 0 0 0 0 0 0 0 0 0 0 0 127 0" result="hardAlpha"/>
<feMorphology radius="3" operator="dilate" in="SourceAlpha" result="effect1_dropShadow_16_2520"/>
<feOffset/>
<feGaussianBlur stdDeviation="1.5"/>
<feComposite in2="hardAlpha" operator="out"/>
<feColorMatrix type="matrix" values="0 0 0 0 0 0 0 0 0 0 0 0 0 0 0 0 0 0 0.25 0"/>
<feBlend mode="normal" in2="BackgroundImageFix" result="effect1_dropShadow_16_2520"/>
<feBlend mode="normal" in="SourceGraphic" in2="effect1_dropShadow_16_2520" result="shape"/>
</filter>
</defs>
</svg>
