<svg width="137" height="137" viewBox="0 0 137 137" fill="none" xmlns="http://www.w3.org/2000/svg">
<g filter="url(#filter0_d_16_2714)">
<circle cx="68.5" cy="68.5" r="62.5" fill="white"/>
</g>
<path d="M94.9062 87.7969H72.5625L68.5 44.125H98.9688L94.9062 87.7969Z" fill="#E5A28E"/>
<path d="M98.4959 49.2031H68.9717L72.1841 83.7344H95.2835L98.4959 49.2031Z" fill="#F9C7C6"/>
<path d="M72.5625 87.7969V94.9062C72.5625 95.9837 72.9905 97.017 73.7524 97.7789C74.5142 98.5407 75.5476 98.9688 76.625 98.9688H90.8438C91.9212 98.9688 92.9545 98.5407 93.7164 97.7789C94.4782 97.017 94.9062 95.9837 94.9062 94.9062V87.7969H72.5625Z" fill="#F3E07B"/>
<path d="M96.4658 49.2031H98.4971L98.9693 44.125H96.9381L96.4658 49.2031Z" fill="#D39688"/>
<path d="M98.4964 49.2031L96.7119 68.3873L98.4964 49.2031Z" fill="#F1C6C0"/>
<path d="M96.4653 49.2031L94.6809 68.3873L93.2529 83.7344H95.2842L96.7121 68.3873L98.4966 49.2031H96.4653Z" fill="#E2BCB7"/>
<path d="M93.2529 83.7341L94.6809 68.387L93.2529 83.7341Z" fill="#F1C6C0"/>
<path d="M94.6807 68.3873L96.4651 49.2031L94.6807 68.3873Z" fill="#F1C6C0"/>
<path d="M92.875 94.9062C92.875 95.9837 92.447 97.017 91.6851 97.7789C90.9233 98.5407 89.8899 98.9688 88.8125 98.9688H90.8438C91.9212 98.9688 92.9545 98.5407 93.7164 97.7789C94.4782 97.017 94.9062 95.9837 94.9062 94.9062V87.7969H92.875V94.9062Z" fill="#E2CD74"/>
<path d="M83.723 53.2656C83.8688 53.842 84.1603 54.3713 84.5697 54.8024C84.9791 55.2335 85.4925 55.5521 86.0606 55.7275C86.6287 55.9028 87.2323 55.9291 87.8135 55.8037C88.3947 55.6783 88.9338 55.4055 89.3791 55.0115C89.1388 55.5494 89.0482 56.1421 89.1166 56.7272C89.1851 57.3124 89.4101 57.8682 89.768 58.3361C90.1259 58.804 90.6034 59.1667 91.1502 59.3859C91.697 59.6052 92.2928 59.6728 92.8748 59.5818C92.3515 59.8451 91.9115 60.2486 91.6041 60.7473C91.2967 61.246 91.1339 61.8204 91.1339 62.4062C91.1339 62.9921 91.2967 63.5665 91.6041 64.0652C91.9115 64.5639 92.3515 64.9674 92.8748 65.2307C92.2928 65.1397 91.697 65.2073 91.1502 65.4266C90.6034 65.6458 90.1259 66.0085 89.768 66.4764C89.4101 66.9443 89.1851 67.5001 89.1166 68.0853C89.0482 68.6704 89.1388 69.2631 89.3791 69.801C88.9338 69.407 88.3947 69.1342 87.8135 69.0088C87.2323 68.8834 86.6287 68.9097 86.0606 69.085C85.4925 69.2604 84.9791 69.579 84.5697 70.0101C84.1603 70.4412 83.8688 70.9705 83.723 71.5469C83.5772 70.9707 83.2857 70.4416 82.8764 70.0106C82.4671 69.5796 81.9538 69.2612 81.3858 69.0858C80.8179 68.9105 80.2144 68.8842 79.6334 69.0094C79.0524 69.1347 78.5133 69.4073 78.068 69.801C78.3083 69.2631 78.399 68.6704 78.3305 68.0853C78.262 67.5001 78.037 66.9443 77.6791 66.4764C77.3212 66.0085 76.8437 65.6458 76.2969 65.4266C75.7501 65.2073 75.1543 65.1397 74.5723 65.2307C75.0956 64.9674 75.5356 64.5639 75.843 64.0652C76.1504 63.5665 76.3132 62.9921 76.3132 62.4062C76.3132 61.8204 76.1504 61.246 75.843 60.7473C75.5356 60.2486 75.0956 59.8451 74.5723 59.5818C75.1543 59.6728 75.7501 59.6052 76.2969 59.3859C76.8437 59.1667 77.3212 58.804 77.6791 58.3361C78.037 57.8682 78.262 57.3124 78.3305 56.7272C78.399 56.1421 78.3083 55.5494 78.068 55.0115C78.5133 55.4052 79.0524 55.6778 79.6334 55.8031C80.2144 55.9283 80.8179 55.902 81.3858 55.7267C81.9538 55.5513 82.4671 55.2329 82.8764 54.8019C83.2857 54.3709 83.5772 53.8418 83.723 53.2656Z" fill="#F3E07B"/>
<path d="M98.9688 38.0312H68.5V44.125H98.9688V38.0312Z" fill="#EA9F81"/>
<path d="M75.6094 38.0312H73.5781V44.125H75.6094V38.0312Z" fill="#E2855C"/>
<path d="M93.8906 38.0312H91.8594V44.125H93.8906V38.0312Z" fill="#E2855C"/>
<path d="M87.7969 38.0312H85.7656V44.125H87.7969V38.0312Z" fill="#E2855C"/>
<path d="M81.7031 38.0312H79.6719V44.125H81.7031V38.0312Z" fill="#E2855C"/>
<path d="M83.7344 65.4531C85.4171 65.4531 86.7812 64.089 86.7812 62.4062C86.7812 60.7235 85.4171 59.3594 83.7344 59.3594C82.0516 59.3594 80.6875 60.7235 80.6875 62.4062C80.6875 64.089 82.0516 65.4531 83.7344 65.4531Z" fill="#E2855C"/>
<path d="M88.8125 93.8906H78.6562V98.9688H88.8125V93.8906Z" fill="#E2855C"/>
<path d="M88.8125 75.6094H78.6562C77.5344 75.6094 76.625 76.5188 76.625 77.6406C76.625 78.7625 77.5344 79.6719 78.6562 79.6719H88.8125C89.9343 79.6719 90.8438 78.7625 90.8438 77.6406C90.8438 76.5188 89.9343 75.6094 88.8125 75.6094Z" fill="#E2855C"/>
<path d="M93.2528 83.7344L92.875 87.7969H94.9062L95.2841 83.7344H93.2528Z" fill="#D39485"/>
<path d="M98.9688 38.0312H96.9375V44.125H98.9688V38.0312Z" fill="#DD977F"/>
<path d="M55.2969 42.0938H51.2344V52.25H55.2969V42.0938Z" fill="#F9C7C6"/>
<path d="M63.4219 42.0938H59.3594V47.1719H63.4219V42.0938Z" fill="#F9C7C6"/>
<path d="M63.4219 38.0312H50.2188C49.0969 38.0312 48.1875 38.9407 48.1875 40.0625C48.1875 41.1843 49.0969 42.0938 50.2188 42.0938H63.4219C64.5437 42.0938 65.4531 41.1843 65.4531 40.0625C65.4531 38.9407 64.5437 38.0312 63.4219 38.0312Z" fill="#D17875"/>
<path d="M46.1562 56.3125H60.375C61.9912 56.3125 63.5411 56.9545 64.6839 58.0973C65.8267 59.2401 66.4688 60.7901 66.4688 62.4062V94.9062C66.4688 95.9837 66.0407 97.017 65.2789 97.7789C64.517 98.5407 63.4837 98.9688 62.4062 98.9688H44.125C43.0476 98.9688 42.0142 98.5407 41.2524 97.7789C40.4905 97.017 40.0625 95.9837 40.0625 94.9062V62.4062C40.0625 60.7901 40.7045 59.2401 41.8473 58.0973C42.9901 56.9545 44.5401 56.3125 46.1562 56.3125Z" fill="#F1ABAB"/>
<path d="M66.4688 65.4531H40.0625V89.8281H66.4688V65.4531Z" fill="#F9C7C6"/>
<path d="M60.375 56.3125H58.3438C59.9599 56.3125 61.5099 56.9545 62.6527 58.0973C63.7955 59.2401 64.4375 60.7901 64.4375 62.4062V65.4531H66.4688V62.4062C66.4688 60.7901 65.8267 59.2401 64.6839 58.0973C63.5411 56.9545 61.9912 56.3125 60.375 56.3125ZM64.4375 94.9062C64.4375 95.9837 64.0095 97.017 63.2476 97.7789C62.4858 98.5407 61.4524 98.9688 60.375 98.9688H62.4062C63.4837 98.9688 64.517 98.5407 65.2789 97.7789C66.0407 97.017 66.4688 95.9837 66.4688 94.9062V89.8281H64.4375V94.9062Z" fill="#E0A0A0"/>
<path d="M66.4688 65.4531H64.4375V89.8281H66.4688V65.4531Z" fill="#E8BABA"/>
<path d="M59.3594 52.25H47.1719V56.3125H59.3594V52.25Z" fill="#D17875"/>
<path d="M56.8199 71.9473C60.3939 71.1855 62.876 75.1607 60.3746 77.6408C62.875 80.121 60.3928 84.0962 56.8199 83.3344C56.5407 84.05 56.052 84.6647 55.4178 85.098C54.7835 85.5313 54.0333 85.7631 53.2652 85.7631C52.4971 85.7631 51.7468 85.5313 51.1126 85.098C50.4784 84.6647 49.9897 84.05 49.7105 83.3344C46.1355 84.0962 43.6533 80.121 46.1558 77.6408C43.6553 75.1607 46.1375 71.1855 49.7105 71.9473C49.9897 71.2317 50.4784 70.617 51.1126 70.1837C51.7468 69.7504 52.4971 69.5186 53.2652 69.5186C54.0333 69.5186 54.7835 69.7504 55.4178 70.1837C56.052 70.617 56.5407 71.2317 56.8199 71.9473Z" fill="#D17875"/>
<path d="M53.2656 80.6875C54.9484 80.6875 56.3125 79.3234 56.3125 77.6406C56.3125 75.9579 54.9484 74.5938 53.2656 74.5938C51.5829 74.5938 50.2188 75.9579 50.2188 77.6406C50.2188 79.3234 51.5829 80.6875 53.2656 80.6875Z" fill="#F3E07B"/>
<defs>
<filter id="filter0_d_16_2714" x="0" y="0" width="137" height="137" filterUnits="userSpaceOnUse" color-interpolation-filters="sRGB">
<feFlood flood-opacity="0" result="BackgroundImageFix"/>
<feColorMatrix in="SourceAlpha" type="matrix" values="0 0 0 0 0 0 0 0 0 0 0 0 0 0 0 0 0 0 127 0" result="hardAlpha"/>
<feMorphology radius="3" operator="dilate" in="SourceAlpha" result="effect1_dropShadow_16_2714"/>
<feOffset/>
<feGaussianBlur stdDeviation="1.5"/>
<feComposite in2="hardAlpha" operator="out"/>
<feColorMatrix type="matrix" values="0 0 0 0 0 0 0 0 0 0 0 0 0 0 0 0 0 0 0.25 0"/>
<feBlend mode="normal" in2="BackgroundImageFix" result="effect1_dropShadow_16_2714"/>
<feBlend mode="normal" in="SourceGraphic" in2="effect1_dropShadow_16_2714" result="shape"/>
</filter>
</defs>
</svg>
