<svg width="50" height="32" viewBox="0 0 50 32" fill="none" xmlns="http://www.w3.org/2000/svg">
<rect width="50" height="32" rx="4" fill="white"/>
<path fill-rule="evenodd" clip-rule="evenodd" d="M6.02957 10.0477H19.5701C20.4698 10.0477 21.2059 10.805 21.2059 11.7305V21.4783C21.2059 22.4038 20.4698 23.1611 19.5701 23.1611H5.63577C4.7361 23.1611 4 22.4038 4 21.4783V9.43694C4 8.99754 4.35139 8.69526 4.77548 8.63917L17.2619 7C17.689 7 18.0374 7.35837 18.0374 7.79777V9.15959H5.25409C5.25409 9.73298 5.4207 10.0446 6.03563 10.0446L6.02957 10.0477ZM13.6238 20.7272C12.4848 20.9516 11.0217 20.5621 10.225 19.6802C9.86455 19.2844 10.4462 18.683 10.8066 19.085C11.3428 19.6771 12.297 19.9544 13.0755 19.9357C14.0691 19.9139 14.9536 18.9852 14.3872 17.9475C13.6056 16.5109 11.6821 16.9129 10.6946 15.7848C9.89484 14.8749 10.2735 13.4414 11.2126 12.8056C12.191 12.1419 13.8843 12.1668 14.6871 13.1173C15.0354 13.5255 14.4538 14.1238 14.1054 13.7125C13.4542 12.9459 11.9184 13.0487 11.3307 13.8403C10.4946 14.9683 11.7457 15.576 12.6181 15.8471C13.8177 16.2211 15.1475 16.9036 15.3656 18.3184C15.5413 19.4589 14.681 20.5185 13.6208 20.7304L13.6238 20.7272Z" fill="#EE4E2C"/>
<path fill-rule="evenodd" clip-rule="evenodd" d="M13.6236 20.7283C12.4846 20.9526 11.0215 20.5631 10.2248 19.6812C9.86437 19.2854 10.446 18.684 10.8065 19.086C11.3426 19.6781 12.2968 19.9554 13.0753 19.9367C14.0689 19.9149 14.9504 18.9863 14.387 17.9485C13.6054 16.5119 11.6819 16.9139 10.6944 15.7858C9.89466 14.8759 10.2733 13.4424 11.2124 12.8067C12.1908 12.1429 13.8811 12.1709 14.6869 13.1183C15.0322 13.5265 14.4536 14.1249 14.1053 13.7135C13.454 12.9469 11.9182 13.0497 11.3305 13.8413C10.4944 14.9694 11.7455 15.577 12.6179 15.8482C13.8175 16.2221 15.1473 16.9046 15.3684 18.3194C15.5441 19.4599 14.6838 20.5195 13.6236 20.7314V20.7283Z" fill="#FEFEFE"/>
<path d="M36.9426 9.44851C36.4579 9.44851 36.0217 9.66042 35.7248 9.99386V9.60432C35.7248 9.25218 35.1766 9.25218 35.1766 9.60432V14.204C35.1766 14.5561 35.7248 14.5561 35.7248 14.204V12.1566C36.0247 12.4931 36.4579 12.7019 36.9426 12.7019C37.8423 12.7019 38.5723 11.9727 38.5723 11.0752C38.5723 10.1777 37.8423 9.44851 36.9426 9.44851ZM36.9426 12.116C36.367 12.116 35.9005 11.6486 35.9005 11.0783C35.9005 10.561 36.2792 10.131 36.776 10.0531C36.779 10.0531 36.782 10.0531 36.7851 10.0531C36.8366 10.0468 36.8881 10.0406 36.9426 10.0406C37.3667 10.0406 37.7332 10.2961 37.8938 10.6607V10.6639C37.9483 10.7916 37.9816 10.9319 37.9816 11.0783C37.9816 11.6517 37.5151 12.116 36.9426 12.116ZM32.8956 12.705C31.9959 12.705 31.2658 11.9758 31.2658 11.0783C31.2658 10.1808 31.9959 9.45162 32.8956 9.45162C33.7952 9.45162 34.5253 10.1808 34.5253 11.0783C34.5253 11.9758 33.7952 12.705 32.8956 12.705ZM32.8956 10.0375C32.32 10.0375 31.8535 10.5049 31.8535 11.0752C31.8535 11.6486 32.32 12.1129 32.8956 12.1129C33.4711 12.1129 33.9376 11.6455 33.9376 11.0752C33.9376 10.5018 33.4711 10.0375 32.8956 10.0375ZM45.9969 11.044C45.9848 10.2961 45.6001 9.6199 44.8064 9.47032C44.1218 9.34255 43.3221 9.70093 43.0313 10.3398C42.7284 11.0035 42.8556 11.9166 43.4524 12.3809C44.0976 12.8827 45.1063 12.7268 45.7697 12.356C46.0787 12.1846 45.803 11.7109 45.491 11.8823C45.07 12.1192 44.5217 12.2314 44.0521 12.0755C43.7008 11.9571 43.5039 11.6548 43.4433 11.3152H45.7243C45.8697 11.3152 45.9999 11.1905 45.9999 11.0409L45.9969 11.044ZM43.4615 10.7698C43.4645 10.748 43.4705 10.7293 43.4766 10.7106C43.6069 10.265 44.0582 10.0063 44.5126 9.99386C45.0336 9.97828 45.3274 10.3398 45.4183 10.7698H43.4615ZM42.3467 11.0472C42.3346 10.2993 41.9499 9.62302 41.1562 9.47344C40.4716 9.34567 39.6719 9.70404 39.3811 10.3429C39.0782 11.0067 39.2054 11.9197 39.8022 12.3841C40.4474 12.8858 41.4561 12.73 42.1195 12.3591C42.4285 12.1877 42.1528 11.714 41.8408 11.8854C41.4198 12.1223 40.8715 12.2345 40.4019 12.0787C40.0506 11.9602 39.8537 11.658 39.7931 11.3183H42.0741C42.2195 11.3183 42.3497 11.1936 42.3497 11.044L42.3467 11.0472ZM39.8113 10.7729C39.8143 10.7511 39.8203 10.7324 39.8264 10.7137C39.9567 10.2681 40.408 10.0094 40.8624 9.99697C41.3834 9.98139 41.6772 10.3429 41.7681 10.7729H39.8113ZM30.6237 10.5205V12.4214C30.6237 12.7798 30.0754 12.7798 30.0754 12.4214V10.5579C30.0572 10.1902 29.7512 10.0188 29.7422 10.0157C29.3514 9.84116 28.6426 9.92218 28.2215 10.4738V12.4246C28.2215 12.7829 27.6732 12.7829 27.6732 12.4246V7.54134C27.6732 7.18297 28.2215 7.18297 28.2215 7.54134V9.73521C28.894 9.274 29.7482 9.32386 30.1511 9.60744C30.1511 9.60744 30.6358 9.87856 30.6267 10.5236L30.6237 10.5205ZM26.7705 7.7626C26.2313 7.1518 25.1044 7.13622 24.4501 7.56315C23.8231 7.97139 23.5686 8.89069 24.1048 9.47655C24.7652 10.2026 26.0495 9.944 26.5706 10.8664C26.9462 11.5333 26.3585 12.1285 25.6951 12.1441C25.1741 12.1566 24.538 11.9758 24.1805 11.5956C23.9382 11.3401 23.5535 11.7234 23.7928 11.9789C24.3229 12.543 25.3013 12.7954 26.0617 12.6489C26.7705 12.5149 27.343 11.8325 27.2279 11.1001C27.0825 10.1933 26.195 9.7539 25.3922 9.51395C24.8076 9.33944 23.9745 8.9499 24.5319 8.22692C24.9227 7.71897 25.9496 7.65353 26.3828 8.1459C26.616 8.41078 27.0007 8.02437 26.7705 7.7626Z" fill="#EE4E2C"/>
<path fill-rule="evenodd" clip-rule="evenodd" d="M41.0748 25.9988H39.333L41.199 22.3746L38.1395 16.4256H40.0297L42.1441 20.5391L44.2585 16.4256H46.0003L41.0748 25.9988ZM23.7144 23.163H25.1744V20.4175H27.1434C29.1851 20.4175 30.8421 18.9435 30.8421 17.1267C30.8421 15.3099 29.1851 13.8359 27.1434 13.8359H23.7144C23.7144 16.946 23.7144 20.056 23.7144 23.163ZM25.1744 18.9155V15.338H27.1434C28.2521 15.338 29.1518 16.1389 29.1518 17.1267C29.1518 18.1146 28.2521 18.9155 27.1434 18.9155H25.1744ZM36.3098 16.4848H37.5912V23.1069H36.3098V22.3621C35.7373 22.8638 34.9982 23.1661 34.1894 23.1661C32.3809 23.1661 30.9148 21.6578 30.9148 19.7974C30.9148 17.937 32.3809 16.4287 34.1894 16.4287C34.9982 16.4287 35.7403 16.731 36.3098 17.2327V16.4879V16.4848ZM34.1894 17.8466C35.2344 17.8466 36.0856 18.7192 36.0856 19.7974C36.0856 20.8725 35.2375 21.7482 34.1894 21.7482C33.1443 21.7482 32.2931 20.8756 32.2931 19.7974C32.2931 18.7223 33.1413 17.8466 34.1894 17.8466Z" fill="#EE4E2C"/>
</svg>
