<svg width="350" height="350" viewBox="0 0 350 350" fill="none" xmlns="http://www.w3.org/2000/svg">
<rect width="350" height="350" rx="25" fill="#052F5F"/>
<path d="M287 330.943C286.557 330.943 286.1 330.943 285.572 330.871C284.933 330.82 284.323 330.585 283.814 330.196C283.306 329.806 282.92 329.277 282.705 328.674C282.489 328.071 282.452 327.418 282.598 326.794C282.744 326.17 283.067 325.602 283.529 325.157C284.361 324.416 285.015 323.497 285.443 322.468C285.871 321.439 286.061 320.327 286 319.214C283.749 318.038 281.99 316.097 281.039 313.741C280.089 311.385 280.009 308.767 280.815 306.357C281.327 304.846 282.194 303.479 283.343 302.371C284.765 300.892 286.579 299.849 288.574 299.365C290.568 298.882 292.659 298.978 294.6 299.643C296.703 300.351 298.57 301.626 299.995 303.327C301.419 305.029 302.345 307.091 302.672 309.286C303.375 313.231 302.757 317.298 300.915 320.857V320.971C296.515 327.886 292.315 330.943 287 330.943ZM286.472 327.357C289.629 327.514 293.186 326.443 297.786 319.129C299.23 316.313 299.731 313.108 299.215 309.986C299.001 308.41 298.353 306.925 297.344 305.696C296.335 304.468 295.004 303.544 293.5 303.029C292.192 302.568 290.778 302.499 289.431 302.829C288.084 303.158 286.862 303.873 285.915 304.886C285.168 305.618 284.609 306.52 284.286 307.514C283.717 309.232 283.82 311.101 284.576 312.745C285.332 314.389 286.683 315.685 288.357 316.371C288.632 316.481 288.875 316.658 289.064 316.885C289.254 317.111 289.384 317.382 289.443 317.671C289.784 319.406 289.691 321.197 289.173 322.887C288.654 324.577 287.726 326.112 286.472 327.357ZM313.7 330.943C313.243 330.943 312.8 330.943 312.272 330.871C311.633 330.82 311.023 330.585 310.514 330.196C310.006 329.806 309.62 329.277 309.405 328.674C309.189 328.071 309.152 327.418 309.298 326.794C309.444 326.17 309.767 325.602 310.229 325.157C311.061 324.416 311.715 323.497 312.143 322.468C312.571 321.439 312.761 320.327 312.7 319.214C310.451 318.035 308.694 316.095 307.744 313.739C306.793 311.384 306.712 308.767 307.515 306.357C308.019 304.852 308.871 303.487 310 302.371C311.425 300.888 313.245 299.842 315.245 299.359C317.244 298.875 319.34 298.974 321.286 299.643C323.391 300.348 325.259 301.622 326.684 303.324C328.109 305.026 329.034 307.09 329.357 309.286C330.061 313.231 329.443 317.298 327.6 320.857C327.603 320.895 327.603 320.933 327.6 320.971C323.215 327.886 319 330.943 313.7 330.943ZM313.157 327.357C316.329 327.514 319.872 326.443 324.486 319.129C325.942 316.317 326.443 313.108 325.915 309.986C325.921 309.938 325.921 309.89 325.915 309.843C325.692 308.287 325.039 306.825 324.029 305.621C323.02 304.417 321.693 303.519 320.2 303.029C318.892 302.568 317.478 302.499 316.131 302.829C314.784 303.158 313.562 303.873 312.615 304.886C311.878 305.618 311.333 306.521 311.029 307.514C310.459 309.232 310.563 311.101 311.319 312.745C312.075 314.389 313.426 315.685 315.1 316.371C315.371 316.484 315.611 316.662 315.797 316.888C315.984 317.115 316.113 317.384 316.172 317.671C316.51 319.409 316.411 321.204 315.885 322.894C315.359 324.585 314.422 326.118 313.157 327.357Z" fill="white" fill-opacity="0.5"/>
<path d="M62.9997 19.0571C63.4426 19.0571 63.8997 19.0571 64.4283 19.1286C65.067 19.18 65.6773 19.4147 66.1859 19.8045C66.6944 20.1942 67.0797 20.7225 67.2954 21.3259C67.5111 21.9293 67.5481 22.5821 67.4019 23.2059C67.2557 23.8298 66.9325 24.3982 66.4712 24.8429C65.6391 25.584 64.9848 26.5032 64.557 27.5321C64.1291 28.561 63.9386 29.6731 63.9997 30.7857C66.2515 31.9624 68.0103 33.903 68.9606 36.2592C69.911 38.6154 69.9907 41.2332 69.1855 43.6429C68.6727 45.1542 67.8057 46.5208 66.6569 47.6286C65.2353 49.1084 63.4206 50.1514 61.4263 50.6348C59.432 51.1182 57.3411 51.0219 55.3997 50.3571C53.2966 49.6495 51.4298 48.3745 50.0055 46.6729C48.5812 44.9713 47.6547 42.9092 47.3283 40.7143C46.6251 36.7689 47.2427 32.7017 49.0855 29.1429V29.0286C53.4855 22.1143 57.6855 19.0571 62.9997 19.0571ZM63.5283 22.6429C60.3712 22.4857 56.814 23.5571 52.214 30.8714C50.7699 33.6871 50.2691 36.8923 50.7855 40.0143C50.999 41.5898 51.6465 43.0749 52.6556 44.3035C53.6648 45.5321 54.9957 46.4559 56.4997 46.9714C57.808 47.4317 59.2219 47.5012 60.5689 47.1714C61.9159 46.8416 63.1378 46.1268 64.0855 45.1143C64.8319 44.3819 65.3905 43.4802 65.714 42.4857C66.2834 40.7682 66.1798 38.8987 65.4241 37.2547C64.6684 35.6106 63.3169 34.3147 61.6426 33.6286C61.3682 33.5187 61.1253 33.3424 60.9358 33.1155C60.7463 32.8886 60.6161 32.6182 60.5569 32.3286C60.216 30.5943 60.3089 28.8026 60.8273 27.1129C61.3457 25.4231 62.2735 23.8876 63.5283 22.6429ZM36.2997 19.0571C36.7569 19.0571 37.1997 19.0571 37.7283 19.1286C38.367 19.18 38.9773 19.4147 39.4859 19.8045C39.9944 20.1942 40.3797 20.7225 40.5954 21.3259C40.8111 21.9293 40.8481 22.5821 40.7019 23.2059C40.5557 23.8298 40.2325 24.3982 39.7712 24.8429C38.9391 25.584 38.2848 26.5032 37.857 27.5321C37.4291 28.561 37.2386 29.6731 37.2998 30.7857C39.5494 31.9646 41.3064 33.9054 42.2565 36.2609C43.2065 38.6164 43.2877 41.233 42.4855 43.6429C41.9807 45.1479 41.1292 46.5131 39.9997 47.6286C38.5747 49.1123 36.755 50.1576 34.7554 50.6411C32.7557 51.1245 30.6595 51.026 28.714 50.3571C26.6092 49.6523 24.7407 48.3782 23.316 46.6761C21.8912 44.9739 20.9659 42.9103 20.6426 40.7143C19.9394 36.7689 20.557 32.7017 22.3997 29.1429C22.3972 29.1048 22.3972 29.0666 22.3997 29.0286C26.7855 22.1143 30.9997 19.0571 36.2997 19.0571ZM36.8426 22.6429C33.6712 22.4857 30.1283 23.5571 25.514 30.8714C24.0581 33.6832 23.5566 36.8924 24.0855 40.0143C24.0788 40.0617 24.0788 40.1098 24.0855 40.1571C24.308 41.7127 24.961 43.1752 25.9707 44.3793C26.9805 45.5834 28.3067 46.4812 29.7998 46.9714C31.108 47.4317 32.5219 47.5012 33.8689 47.1714C35.2159 46.8416 36.4378 46.1268 37.3855 45.1143C38.1222 44.3819 38.6669 43.479 38.9712 42.4857C39.5406 40.7682 39.4369 38.8987 38.6812 37.2547C37.9255 35.6106 36.574 34.3147 34.8997 33.6286C34.6287 33.5157 34.3893 33.3382 34.2026 33.1117C34.0158 32.8851 33.8873 32.6162 33.8283 32.3286C33.4903 30.5908 33.5887 28.7962 34.1147 27.1058C34.6408 25.4154 35.5781 23.8819 36.8426 22.6429Z" fill="white" fill-opacity="0.5"/>
</svg>
