<svg width="137" height="137" viewBox="0 0 137 137" fill="none" xmlns="http://www.w3.org/2000/svg">
<g filter="url(#filter0_d_16_2609)">
<circle cx="68.5" cy="68.5" r="62.5" fill="white"/>
</g>
<g clip-path="url(#clip0_16_2609)">
<path d="M86.5413 59.4364V91.9478C86.5326 94.3681 85.5636 96.6859 83.8471 98.3922C82.1306 100.098 79.807 101.054 77.3867 101.048H46.1067C41.1987 101.048 37.1921 97.2075 36.9623 92.3845C36.956 92.2398 36.9521 92.0938 36.9521 91.9478V59.3919C36.9513 57.3076 37.6673 55.2864 38.98 53.6674C40.2927 52.0484 42.1223 50.9301 44.1618 50.5001L45.0771 50.3021C45.7562 50.157 46.365 49.7837 46.8023 49.2443C47.2396 48.705 47.4789 48.0321 47.4804 47.3377V46.1418H75.7084V47.3225C75.7096 48.0201 75.9509 48.6959 76.3918 49.2365C76.8327 49.7771 77.4463 50.1493 78.1294 50.2907L79.2796 50.5319C81.3301 50.9533 83.1723 52.0694 84.4953 53.6917C85.8183 55.3139 86.541 57.343 86.5413 59.4364Z" fill="#DFE3E9"/>
<path d="M86.3898 57.7873C86.057 56.0094 85.2033 54.3706 83.9373 53.0788C82.6713 51.787 81.05 50.9005 79.2792 50.5319L78.129 50.2907C77.4459 50.1493 76.8323 49.7771 76.3914 49.2365C75.9505 48.6959 75.7092 48.0201 75.708 47.3225V46.1418H71.8994V47.3225C71.9006 48.0201 72.1419 48.6959 72.5828 49.2365C73.0237 49.7771 73.6373 50.1493 74.3204 50.2907L75.4706 50.5319C77.5211 50.9533 79.3633 52.0694 80.6863 53.6917C82.0093 55.3139 82.732 57.343 82.7323 59.4364V91.9478C82.7236 94.3681 81.7546 96.6859 80.0381 98.3922C78.3216 100.098 75.998 101.054 73.5777 101.048H77.3863C79.8066 101.054 82.1302 100.098 83.8467 98.3922C85.5632 96.6859 86.5322 94.3681 86.5409 91.9478V59.4364C86.5409 58.8832 86.4904 58.3312 86.3898 57.7873Z" fill="#CCC9C9"/>
<path d="M76.0927 37.9521H47.0957C46.044 37.9521 45.1914 38.8047 45.1914 39.8564V44.2381C45.1914 45.2898 46.044 46.1424 47.0957 46.1424H76.0927C77.1444 46.1424 77.997 45.2898 77.997 44.2381V39.8564C77.997 38.8047 77.1444 37.9521 76.0927 37.9521Z" fill="#FF5751"/>
<path d="M76.0928 37.9521H72.2842C72.7892 37.9521 73.2736 38.1528 73.6307 38.5099C73.9878 38.867 74.1885 39.3514 74.1885 39.8564V44.2381C74.1885 44.4882 74.1392 44.7358 74.0435 44.9668C73.9478 45.1979 73.8076 45.4078 73.6307 45.5846C73.4539 45.7615 73.244 45.9017 73.0129 45.9974C72.7819 46.0931 72.5343 46.1424 72.2842 46.1424H76.0928C76.5978 46.1424 77.0822 45.9418 77.4393 45.5846C77.7964 45.2275 77.9971 44.7432 77.9971 44.2381V39.8564C77.9971 39.3514 77.7964 38.867 77.4393 38.5099C77.0822 38.1528 76.5978 37.9521 76.0928 37.9521Z" fill="#FF4E4E"/>
<path d="M86.5413 92.3847H36.9623C36.956 92.2399 36.9521 92.0939 36.9521 91.9479V59.3921L86.5413 59.4365V92.3847Z" fill="#FF5751"/>
<path d="M86.5312 92.3845C86.5376 92.2397 86.5414 92.0938 86.5414 91.9478V92.3845H86.5312Z" fill="#FF6666"/>
<path d="M36.9521 59.3921V59.3955L82.7327 59.4365V73.5646C82.7357 73.9456 82.6325 74.3199 82.4348 74.6456C82.237 74.9712 81.9525 75.2354 81.6131 75.4085L81.6004 75.4148C80.9084 75.7541 80.3253 76.2806 79.9173 76.9345C79.5094 77.5884 79.2929 78.3435 79.2924 79.1143V92.3847L81.1967 96.4979C81.1967 98.0315 80.0554 99.3874 81.2246 100.213C82.7411 99.5189 84.0379 98.422 84.9735 97.0416C85.909 95.6611 86.4474 94.0502 86.5298 92.3847H86.5413V59.4365L36.9521 59.3921Z" fill="#FF4E4E"/>
<path d="M86.5309 92.3845C86.4482 94.0502 85.9096 95.6612 84.9738 97.0416C84.038 98.4221 82.7409 99.5189 81.2242 100.212C80.6276 99.7939 80.1405 99.2378 79.8041 98.5913C79.4678 97.9447 79.2921 97.2266 79.292 96.4978V92.3845H86.5309Z" fill="#DEDEDE"/>
<path d="M95.4318 71.7167V71.4866H85.8127V71.7167C85.8117 72.4873 85.595 73.2421 85.187 73.8958C84.7791 74.5494 84.1963 75.0758 83.5046 75.4153C82.8128 75.7547 82.23 76.281 81.822 76.9347C81.4141 77.5883 81.1973 78.3432 81.1963 79.1137V81.9537L83.1006 85.8497L81.1963 91.9475V96.4977C81.2 97.7081 81.6843 98.8675 82.5427 99.7208C83.4012 100.574 84.5634 101.051 85.7738 101.048H95.4706C96.681 101.051 97.8433 100.574 98.7017 99.7208C99.5602 98.8675 100.045 97.7081 100.048 96.4977V79.1137C100.047 78.3432 99.8304 77.5883 99.4225 76.9347C99.0146 76.2811 98.4318 75.7547 97.7401 75.4153C97.0483 75.0758 96.4655 74.5495 96.0575 73.8958C95.6495 73.2421 95.4328 72.4873 95.4318 71.7167Z" fill="#DFE3E9"/>
<path d="M97.7399 75.4153C97.0482 75.0758 96.4653 74.5495 96.0573 73.8958C95.6494 73.2421 95.4326 72.4873 95.4316 71.7167V71.4866H91.623V71.7167C91.624 72.4873 91.8408 73.2421 92.2488 73.8958C92.6567 74.5495 93.2396 75.0758 93.9313 75.4153C94.623 75.7547 95.2058 76.2811 95.6138 76.9347C96.0217 77.5883 96.2384 78.3432 96.2394 79.1137V96.4979C96.2358 97.7083 95.7515 98.8676 94.893 99.7209C94.0345 100.574 92.8723 101.052 91.6619 101.048H95.4705C96.6809 101.052 97.8431 100.574 98.7016 99.7209C99.56 98.8676 100.044 97.7083 100.048 96.4979V79.1137C100.047 78.3432 99.8303 77.5883 99.4224 76.9347C99.0144 76.2811 98.4316 75.7547 97.7399 75.4153Z" fill="#CCC9C9"/>
<path d="M96.0229 67.2058H85.2207C84.7299 67.2058 84.332 67.6037 84.332 68.0945V70.598C84.332 71.0888 84.7299 71.4867 85.2207 71.4867H96.0229C96.5137 71.4867 96.9116 71.0888 96.9116 70.598V68.0945C96.9116 67.6037 96.5137 67.2058 96.0229 67.2058Z" fill="#589FFF"/>
<path d="M96.0234 67.2058H92.2148C92.4505 67.2058 92.6766 67.2994 92.8432 67.4661C93.0099 67.6328 93.1035 67.8588 93.1035 68.0945V70.598C93.1035 70.8337 93.0099 71.0597 92.8432 71.2264C92.6766 71.393 92.4505 71.4867 92.2148 71.4867H96.0234C96.2591 71.4867 96.4852 71.393 96.6518 71.2264C96.8185 71.0597 96.9121 70.8337 96.9121 70.598V68.0945C96.9121 67.8588 96.8185 67.6328 96.6518 67.4661C96.4852 67.2994 96.2591 67.2058 96.0234 67.2058Z" fill="#4D88E7"/>
<path d="M81.1963 81.9536H100.048V91.9474H81.1963V81.9536Z" fill="#589FFF"/>
<path d="M96.2393 81.9536H100.048V91.9474H96.2393V81.9536Z" fill="#4D88E7"/>
<path d="M73.0258 81.8906C72.1968 82.9659 70.9196 83.9295 69.8151 84.7077C67.7375 86.1645 65.3865 87.1858 62.9038 87.7102C61.8659 87.8872 60.8032 87.8544 59.7782 87.6137C58.8286 87.3877 57.7 87.9818 56.7174 88.072C55.7322 88.1621 54.4538 88.2345 53.56 87.7533C52.7475 87.3153 52.0658 86.5562 51.6037 85.769C50.6655 84.172 50.5132 82.1407 51.3625 80.4738C52.5673 78.11 55.4466 76.9737 58.0301 77.7837C58.4839 77.926 58.9181 78.1248 59.3224 78.3753C59.3555 78.341 59.3973 78.2991 59.4469 78.2522C60.1337 77.5912 61.0057 77.1555 61.9466 77.003C62.8875 76.8506 63.8525 76.9887 64.7129 77.399V72.6231C64.7459 72.4948 64.9807 71.5211 64.3511 70.7061C64.285 70.6197 63.7569 69.9545 62.9762 69.9101C62.561 69.8859 62.5382 70.0916 61.9999 70.0903C61.322 70.0891 61.0998 69.8263 60.5526 69.8732C59.9217 69.9278 59.8315 70.3125 59.3593 70.3798C58.5176 70.5004 57.5007 69.4733 57.1884 68.6075C56.6437 67.1006 57.7736 65.4946 58.84 64.5412C59.8417 63.6462 60.3305 63.895 61.5378 64.3444C63.4233 65.0448 65.19 66.0309 66.7759 67.2682C70.0112 70.7534 72.2394 75.0518 73.2225 79.7045C73.4041 80.5652 73.6275 81.1099 73.0258 81.8906Z" fill="#FFD6A1"/>
<path d="M58.652 79.4277C58.4063 80.0256 58.3256 80.6784 58.4184 81.3181C58.2139 81.1615 57.6151 80.6605 57.491 79.8513C57.4437 79.4515 57.488 79.0462 57.6204 78.666C57.714 78.3538 57.8519 78.0567 58.03 77.7837C58.4838 77.926 58.918 78.1248 59.3223 78.3753C59.3554 78.341 59.3972 78.2991 59.4468 78.2521C59.4468 78.2534 59.448 78.2547 59.448 78.256C59.1068 78.5892 58.836 78.9877 58.652 79.4277Z" fill="#FFC570"/>
</g>
<defs>
<filter id="filter0_d_16_2609" x="0" y="0" width="137" height="137" filterUnits="userSpaceOnUse" color-interpolation-filters="sRGB">
<feFlood flood-opacity="0" result="BackgroundImageFix"/>
<feColorMatrix in="SourceAlpha" type="matrix" values="0 0 0 0 0 0 0 0 0 0 0 0 0 0 0 0 0 0 127 0" result="hardAlpha"/>
<feMorphology radius="3" operator="dilate" in="SourceAlpha" result="effect1_dropShadow_16_2609"/>
<feOffset/>
<feGaussianBlur stdDeviation="1.5"/>
<feComposite in2="hardAlpha" operator="out"/>
<feColorMatrix type="matrix" values="0 0 0 0 0 0 0 0 0 0 0 0 0 0 0 0 0 0 0.25 0"/>
<feBlend mode="normal" in2="BackgroundImageFix" result="effect1_dropShadow_16_2609"/>
<feBlend mode="normal" in="SourceGraphic" in2="effect1_dropShadow_16_2609" result="shape"/>
</filter>
<clipPath id="clip0_16_2609">
<rect width="65" height="65" fill="white" transform="translate(36 37)"/>
</clipPath>
</defs>
</svg>
